<svg width="160" height="160" viewBox="0 0 160 160" fill="none" xmlns="http://www.w3.org/2000/svg">
<g clip-path="url(#clip0_8114_966)">
<rect width="160" height="160" rx="8" fill="#FFF2D4"/>
<g opacity="0.6">
<path fill-rule="evenodd" clip-rule="evenodd" d="M20.9392 86.5449C21.0132 86.5904 21.0365 86.6873 20.991 86.7614L18.4793 90.8561L13.8235 90.9602L12.0902 95.1866C12.0573 95.267 11.9653 95.3055 11.8849 95.2725C11.8045 95.2395 11.7661 95.1476 11.799 95.0672L13.6105 90.6502L18.3008 90.5453L20.7227 86.5968C20.7682 86.5227 20.8651 86.4995 20.9392 86.5449Z" fill="#FEC955"/>
<path fill-rule="evenodd" clip-rule="evenodd" d="M7.14239 86.0307C7.28491 86.0048 7.42147 86.0992 7.44742 86.2418L9.8721 99.5566L23.3934 97.0944C23.5359 97.0684 23.6725 97.1629 23.6984 97.3054C23.7244 97.4479 23.6299 97.5845 23.4874 97.6105L9.45 100.167L6.93134 86.3357C6.90539 86.1932 6.99988 86.0567 7.14239 86.0307Z" fill="#FEC955"/>
<path d="M12.6061 94.9532C12.6736 95.3237 12.4279 95.6788 12.0574 95.7462C11.6869 95.8137 11.3318 95.568 11.2643 95.1975C11.1968 94.827 11.4425 94.4719 11.813 94.4044C12.1836 94.337 12.5386 94.5826 12.6061 94.9532Z" fill="#FEC955"/>
<path d="M14.3879 90.6831C14.4553 91.0536 14.2097 91.4087 13.8391 91.4761C13.4686 91.5436 13.1135 91.2979 13.0461 90.9274C12.9786 90.5569 13.2243 90.2018 13.5948 90.1343C13.9653 90.0669 14.3204 90.3125 14.3879 90.6831Z" fill="#FEC955"/>
<path d="M19.0422 90.4753C19.1096 90.8459 18.864 91.2009 18.4934 91.2684C18.1229 91.3359 17.7678 91.0902 17.7003 90.7197C17.6329 90.3491 17.8785 89.9941 18.2491 89.9266C18.6196 89.8591 18.9747 90.1048 19.0422 90.4753Z" fill="#FEC955"/>
<path d="M21.4153 86.5241C21.4828 86.8947 21.2371 87.2497 20.8666 87.3172C20.496 87.3847 20.141 87.139 20.0735 86.7685C20.006 86.3979 20.2517 86.0429 20.6222 85.9754C20.9927 85.9079 21.3478 86.1536 21.4153 86.5241Z" fill="#FEC955"/>
</g>
<g opacity="0.6">
<path fill-rule="evenodd" clip-rule="evenodd" d="M51.3948 80.9989C51.4688 81.0444 51.4921 81.1413 51.4466 81.2154L48.9349 85.3101L44.2791 85.4142L42.5458 89.6406C42.5129 89.721 42.4209 89.7595 42.3405 89.7265C42.2601 89.6935 42.2216 89.6016 42.2546 89.5212L44.0661 85.1042L48.7564 84.9993L51.1783 81.0508C51.2238 80.9767 51.3207 80.9535 51.3948 80.9989Z" fill="#FEC955"/>
<path fill-rule="evenodd" clip-rule="evenodd" d="M37.5979 80.4847C37.7404 80.4587 37.877 80.5532 37.9029 80.6957L40.3276 94.0106L53.8489 91.5483C53.9915 91.5224 54.128 91.6169 54.154 91.7594C54.1799 91.9019 54.0854 92.0385 53.9429 92.0644L39.9055 94.6207L37.3869 80.7897C37.3609 80.6472 37.4554 80.5106 37.5979 80.4847Z" fill="#FEC955"/>
<path d="M43.0617 89.4071C43.1292 89.7777 42.8835 90.1328 42.513 90.2002C42.1425 90.2677 41.7874 90.022 41.7199 89.6515C41.6524 89.281 41.8981 88.9259 42.2686 88.8584C42.6392 88.7909 42.9942 89.0366 43.0617 89.4071Z" fill="#FEC955"/>
<path d="M44.8435 85.137C44.9109 85.5076 44.6653 85.8626 44.2947 85.9301C43.9242 85.9976 43.5691 85.7519 43.5016 85.3814C43.4342 85.0109 43.6798 84.6558 44.0504 84.5883C44.4209 84.5208 44.776 84.7665 44.8435 85.137Z" fill="#FEC955"/>
<path d="M49.4977 84.9293C49.5652 85.2998 49.3195 85.6549 48.949 85.7224C48.5785 85.7899 48.2234 85.5442 48.1559 85.1737C48.0885 84.8031 48.3341 84.448 48.7047 84.3806C49.0752 84.3131 49.4303 84.5588 49.4977 84.9293Z" fill="#FEC955"/>
<path d="M51.8708 80.9781C51.9382 81.3486 51.6926 81.7037 51.322 81.7712C50.9515 81.8387 50.5964 81.593 50.529 81.2224C50.4615 80.8519 50.7072 80.4968 51.0777 80.4294C51.4482 80.3619 51.8033 80.6076 51.8708 80.9781Z" fill="#FEC955"/>
</g>
<g opacity="0.6">
<path fill-rule="evenodd" clip-rule="evenodd" d="M81.8501 75.4529C81.9242 75.4984 81.9474 75.5953 81.902 75.6693L79.3903 79.7641L74.7344 79.8682L73.0012 84.0946C72.9682 84.175 72.8763 84.2135 72.7959 84.1805C72.7154 84.1475 72.677 84.0556 72.71 83.9752L74.5214 79.5582L79.2117 79.4533L81.6337 75.5048C81.6791 75.4307 81.776 75.4075 81.8501 75.4529Z" fill="#FEC955"/>
<path fill-rule="evenodd" clip-rule="evenodd" d="M68.0534 74.9387C68.1959 74.9127 68.3325 75.0072 68.3585 75.1497L70.7831 88.4646L84.3045 86.0023C84.447 85.9764 84.5835 86.0709 84.6095 86.2134C84.6354 86.3559 84.541 86.4925 84.3984 86.5184L70.361 89.0747L67.8424 75.2437C67.8164 75.1012 67.9109 74.9646 68.0534 74.9387Z" fill="#FEC955"/>
<path d="M73.5172 83.8611C73.5847 84.2317 73.339 84.5867 72.9685 84.6542C72.5979 84.7217 72.2428 84.476 72.1754 84.1055C72.1079 83.7349 72.3536 83.3799 72.7241 83.3124C73.0946 83.2449 73.4497 83.4906 73.5172 83.8611Z" fill="#FEC955"/>
<path d="M75.2989 79.591C75.3664 79.9615 75.1207 80.3166 74.7502 80.3841C74.3797 80.4516 74.0246 80.2059 73.9571 79.8354C73.8896 79.4648 74.1353 79.1098 74.5059 79.0423C74.8764 78.9748 75.2315 79.2205 75.2989 79.591Z" fill="#FEC955"/>
<path d="M79.9532 79.3833C80.0207 79.7538 79.775 80.1089 79.4045 80.1764C79.034 80.2439 78.6789 79.9982 78.6114 79.6277C78.5439 79.2571 78.7896 78.9021 79.1601 78.8346C79.5307 78.7671 79.8857 79.0128 79.9532 79.3833Z" fill="#FEC955"/>
<path d="M82.3262 75.4321C82.3937 75.8026 82.148 76.1577 81.7775 76.2252C81.407 76.2926 81.0519 76.047 80.9844 75.6764C80.917 75.3059 81.1626 74.9508 81.5332 74.8834C81.9037 74.8159 82.2588 75.0616 82.3262 75.4321Z" fill="#FEC955"/>
</g>
<g opacity="0.6">
<path fill-rule="evenodd" clip-rule="evenodd" d="M112.306 69.9069C112.38 69.9524 112.403 70.0493 112.357 70.1233L109.846 74.2181L105.19 74.3222L103.457 78.5486C103.424 78.629 103.332 78.6675 103.251 78.6345C103.171 78.6015 103.132 78.5096 103.165 78.4292L104.977 74.0122L109.667 73.9073L112.089 69.9588C112.135 69.8847 112.231 69.8615 112.306 69.9069Z" fill="#FEC955"/>
<path fill-rule="evenodd" clip-rule="evenodd" d="M98.509 69.3926C98.6515 69.3667 98.788 69.4612 98.814 69.6037L101.239 82.9186L114.76 80.4563C114.902 80.4304 115.039 80.5249 115.065 80.6674C115.091 80.8099 114.996 80.9464 114.854 80.9724L100.817 83.5286L98.2979 69.6977C98.272 69.5552 98.3664 69.4186 98.509 69.3926Z" fill="#FEC955"/>
<path d="M103.973 78.3151C104.04 78.6857 103.794 79.0407 103.424 79.1082C103.053 79.1757 102.698 78.93 102.631 78.5595C102.563 78.189 102.809 77.8339 103.18 77.7664C103.55 77.6989 103.905 77.9446 103.973 78.3151Z" fill="#FEC955"/>
<path d="M105.754 74.045C105.822 74.4156 105.576 74.7706 105.206 74.8381C104.835 74.9056 104.48 74.6599 104.413 74.2894C104.345 73.9188 104.591 73.5638 104.961 73.4963C105.332 73.4288 105.687 73.6745 105.754 74.045Z" fill="#FEC955"/>
<path d="M110.409 73.8373C110.476 74.2078 110.23 74.5629 109.86 74.6303C109.489 74.6978 109.134 74.4521 109.067 74.0816C108.999 73.7111 109.245 73.356 109.616 73.2885C109.986 73.2211 110.341 73.4667 110.409 73.8373Z" fill="#FEC955"/>
<path d="M112.782 69.8861C112.849 70.2566 112.604 70.6117 112.233 70.6791C111.862 70.7466 111.507 70.5009 111.44 70.1304C111.372 69.7599 111.618 69.4048 111.989 69.3373C112.359 69.2699 112.714 69.5155 112.782 69.8861Z" fill="#FEC955"/>
</g>
<g opacity="0.6">
<path fill-rule="evenodd" clip-rule="evenodd" d="M9.41963 114.971C9.49372 115.016 9.51694 115.113 9.47149 115.187L6.95981 119.282L2.30395 119.386L0.570702 123.612C0.537725 123.693 0.445803 123.731 0.365389 123.698C0.284975 123.665 0.24652 123.573 0.279498 123.493L2.09093 119.076L6.78124 118.971L9.2032 115.023C9.24865 114.949 9.34554 114.925 9.41963 114.971Z" fill="#FEC955"/>
<path fill-rule="evenodd" clip-rule="evenodd" d="M-4.37714 114.457C-4.23463 114.431 -4.09806 114.525 -4.07211 114.668L-1.64743 127.982L11.8739 125.52C12.0164 125.494 12.153 125.589 12.1789 125.731C12.2049 125.874 12.1104 126.01 11.9679 126.036L-2.06953 128.593L-4.58819 114.762C-4.61414 114.619 -4.51965 114.483 -4.37714 114.457Z" fill="#FEC955"/>
<path d="M1.08659 123.379C1.15406 123.75 0.908387 124.105 0.537857 124.172C0.167326 124.24 -0.187748 123.994 -0.255222 123.623C-0.322697 123.253 -0.0770212 122.898 0.29351 122.83C0.66404 122.763 1.01911 123.009 1.08659 123.379Z" fill="#FEC955"/>
<path d="M2.86846 119.109C2.93594 119.479 2.69026 119.835 2.31973 119.902C1.9492 119.969 1.59413 119.724 1.52665 119.353C1.45918 118.983 1.70485 118.628 2.07539 118.56C2.44592 118.493 2.80099 118.738 2.86846 119.109Z" fill="#FEC955"/>
<path d="M7.52275 118.901C7.59022 119.272 7.34454 119.627 6.97401 119.694C6.60348 119.762 6.24841 119.516 6.18094 119.146C6.11346 118.775 6.35914 118.42 6.72967 118.352C7.1002 118.285 7.45527 118.531 7.52275 118.901Z" fill="#FEC955"/>
<path d="M9.89576 114.95C9.96324 115.321 9.71756 115.676 9.34703 115.743C8.9765 115.811 8.62143 115.565 8.55395 115.194C8.48648 114.824 8.73215 114.469 9.10268 114.401C9.47321 114.334 9.82829 114.579 9.89576 114.95Z" fill="#FEC955"/>
</g>
<g opacity="0.6">
<path fill-rule="evenodd" clip-rule="evenodd" d="M39.8752 109.425C39.9493 109.47 39.9725 109.567 39.9271 109.641L37.4154 113.736L32.7596 113.84L31.0263 118.067C30.9933 118.147 30.9014 118.185 30.821 118.152C30.7406 118.119 30.7021 118.028 30.7351 117.947L32.5465 113.53L37.2368 113.425L39.6588 109.477C39.7042 109.403 39.8011 109.379 39.8752 109.425Z" fill="#FEC955"/>
<path fill-rule="evenodd" clip-rule="evenodd" d="M26.0784 108.911C26.2209 108.885 26.3575 108.979 26.3834 109.122L28.8081 122.437L42.3294 119.974C42.4719 119.948 42.6085 120.043 42.6344 120.185C42.6604 120.328 42.5659 120.464 42.4234 120.49L28.386 123.047L25.8673 109.216C25.8414 109.073 25.9359 108.937 26.0784 108.911Z" fill="#FEC955"/>
<path d="M31.5422 117.833C31.6097 118.204 31.364 118.559 30.9935 118.626C30.6229 118.694 30.2678 118.448 30.2004 118.077C30.1329 117.707 30.3786 117.352 30.7491 117.284C31.1196 117.217 31.4747 117.463 31.5422 117.833Z" fill="#FEC955"/>
<path d="M33.3239 113.563C33.3914 113.934 33.1457 114.289 32.7752 114.356C32.4047 114.424 32.0496 114.178 31.9821 113.807C31.9146 113.437 32.1603 113.082 32.5308 113.014C32.9014 112.947 33.2564 113.192 33.3239 113.563Z" fill="#FEC955"/>
<path d="M37.9782 113.355C38.0457 113.726 37.8 114.081 37.4295 114.148C37.059 114.216 36.7039 113.97 36.6364 113.6C36.5689 113.229 36.8146 112.874 37.1851 112.807C37.5557 112.739 37.9107 112.985 37.9782 113.355Z" fill="#FEC955"/>
<path d="M40.3514 109.404C40.4188 109.775 40.1732 110.13 39.8026 110.197C39.4321 110.265 39.077 110.019 39.0095 109.648C38.9421 109.278 39.1877 108.923 39.5583 108.855C39.9288 108.788 40.2839 109.034 40.3514 109.404Z" fill="#FEC955"/>
</g>
<g opacity="0.6">
<path fill-rule="evenodd" clip-rule="evenodd" d="M70.3307 103.879C70.4048 103.924 70.428 104.021 70.3826 104.095L67.8709 108.19L63.215 108.294L61.4818 112.52C61.4488 112.601 61.3569 112.639 61.2765 112.606C61.196 112.573 61.1576 112.481 61.1906 112.401L63.002 107.984L67.6923 107.879L70.1143 103.931C70.1597 103.857 70.2566 103.833 70.3307 103.879Z" fill="#FEC955"/>
<path fill-rule="evenodd" clip-rule="evenodd" d="M56.5339 103.365C56.6764 103.339 56.813 103.433 56.8389 103.576L59.2636 116.89L72.7849 114.428C72.9274 114.402 73.064 114.497 73.09 114.639C73.1159 114.782 73.0214 114.918 72.8789 114.944L58.8415 117.501L56.3229 103.67C56.2969 103.527 56.3914 103.39 56.5339 103.365Z" fill="#FEC955"/>
<path d="M61.9977 112.287C62.0651 112.658 61.8195 113.013 61.4489 113.08C61.0784 113.148 60.7233 112.902 60.6558 112.531C60.5884 112.161 60.834 111.806 61.2046 111.738C61.5751 111.671 61.9302 111.916 61.9977 112.287Z" fill="#FEC955"/>
<path d="M63.7794 108.017C63.8469 108.387 63.6012 108.743 63.2307 108.81C62.8601 108.877 62.5051 108.632 62.4376 108.261C62.3701 107.891 62.6158 107.536 62.9863 107.468C63.3569 107.401 63.7119 107.646 63.7794 108.017Z" fill="#FEC955"/>
<path d="M68.4337 107.809C68.5012 108.18 68.2555 108.535 67.885 108.602C67.5144 108.67 67.1594 108.424 67.0919 108.054C67.0244 107.683 67.2701 107.328 67.6406 107.26C68.0111 107.193 68.3662 107.439 68.4337 107.809Z" fill="#FEC955"/>
<path d="M70.8067 103.858C70.8742 104.229 70.6285 104.584 70.258 104.651C69.8874 104.719 69.5324 104.473 69.4649 104.102C69.3974 103.732 69.6431 103.377 70.0136 103.309C70.3842 103.242 70.7392 103.487 70.8067 103.858Z" fill="#FEC955"/>
</g>
<g opacity="0.6">
<path fill-rule="evenodd" clip-rule="evenodd" d="M100.786 98.3328C100.86 98.3782 100.883 98.4751 100.838 98.5492L98.3264 102.644L93.6705 102.748L91.9372 106.974C91.9043 107.055 91.8123 107.093 91.7319 107.06C91.6515 107.027 91.6131 106.935 91.646 106.855L93.4575 102.438L98.1478 102.333L100.57 98.3847C100.615 98.3106 100.712 98.2874 100.786 98.3328Z" fill="#FEC955"/>
<path fill-rule="evenodd" clip-rule="evenodd" d="M86.9894 97.8185C87.1319 97.7926 87.2685 97.8871 87.2945 98.0296L89.7191 111.344L103.24 108.882C103.383 108.856 103.52 108.951 103.545 109.093C103.571 109.236 103.477 109.372 103.334 109.398L89.297 111.955L86.7784 98.1236C86.7524 97.9811 86.8469 97.8445 86.9894 97.8185Z" fill="#FEC955"/>
<path d="M92.4531 106.741C92.5206 107.112 92.2749 107.467 91.9044 107.534C91.5339 107.602 91.1788 107.356 91.1113 106.985C91.0438 106.615 91.2895 106.26 91.66 106.192C92.0306 106.125 92.3857 106.37 92.4531 106.741Z" fill="#FEC955"/>
<path d="M94.2349 102.471C94.3023 102.841 94.0567 103.197 93.6861 103.264C93.3156 103.331 92.9605 103.086 92.8931 102.715C92.8256 102.345 93.0713 101.99 93.4418 101.922C93.8123 101.855 94.1674 102.1 94.2349 102.471Z" fill="#FEC955"/>
<path d="M98.8892 102.263C98.9566 102.634 98.711 102.989 98.3404 103.056C97.9699 103.124 97.6148 102.878 97.5473 102.507C97.4799 102.137 97.7255 101.782 98.0961 101.714C98.4666 101.647 98.8217 101.893 98.8892 102.263Z" fill="#FEC955"/>
<path d="M101.262 98.3119C101.33 98.6825 101.084 99.0375 100.713 99.105C100.343 99.1725 99.9879 98.9268 99.9204 98.5563C99.8529 98.1858 100.099 97.8307 100.469 97.7632C100.84 97.6957 101.195 97.9414 101.262 98.3119Z" fill="#FEC955"/>
</g>
<g opacity="0.6">
<path fill-rule="evenodd" clip-rule="evenodd" d="M30.2203 137.511C30.2944 137.557 30.3177 137.654 30.2722 137.728L27.7605 141.822L23.1047 141.927L21.3714 146.153C21.3384 146.233 21.2465 146.272 21.1661 146.239C21.0857 146.206 21.0472 146.114 21.0802 146.034L22.8916 141.617L27.582 141.512L30.0039 137.563C30.0494 137.489 30.1463 137.466 30.2203 137.511Z" fill="#FEC955"/>
<path fill-rule="evenodd" clip-rule="evenodd" d="M16.4235 136.997C16.566 136.971 16.7026 137.066 16.7285 137.208L19.1532 150.523L32.6745 148.061C32.817 148.035 32.9536 148.129 32.9795 148.272C33.0055 148.414 32.911 148.551 32.7685 148.577L18.7311 151.133L16.2124 137.302C16.1865 137.16 16.281 137.023 16.4235 136.997Z" fill="#FEC955"/>
<path d="M21.8873 145.92C21.9548 146.29 21.7091 146.645 21.3386 146.713C20.968 146.78 20.613 146.534 20.5455 146.164C20.478 145.793 20.7237 145.438 21.0942 145.371C21.4648 145.303 21.8198 145.549 21.8873 145.92Z" fill="#FEC955"/>
<path d="M23.6691 141.649C23.7365 142.02 23.4909 142.375 23.1203 142.443C22.7498 142.51 22.3947 142.264 22.3273 141.894C22.2598 141.523 22.5055 141.168 22.876 141.101C23.2465 141.033 23.6016 141.279 23.6691 141.649Z" fill="#FEC955"/>
<path d="M28.3233 141.442C28.3908 141.812 28.1451 142.167 27.7746 142.235C27.4041 142.302 27.049 142.057 26.9815 141.686C26.9141 141.316 27.1597 140.96 27.5303 140.893C27.9008 140.825 28.2559 141.071 28.3233 141.442Z" fill="#FEC955"/>
<path d="M30.6964 137.49C30.7638 137.861 30.5182 138.216 30.1476 138.284C29.7771 138.351 29.422 138.105 29.3545 137.735C29.2871 137.364 29.5328 137.009 29.9033 136.942C30.2738 136.874 30.6289 137.12 30.6964 137.49Z" fill="#FEC955"/>
</g>
<g opacity="0.6">
<path fill-rule="evenodd" clip-rule="evenodd" d="M60.6758 131.965C60.7499 132.011 60.7731 132.108 60.7277 132.182L58.216 136.276L53.5601 136.381L51.8269 140.607C51.7939 140.687 51.702 140.726 51.6216 140.693C51.5412 140.66 51.5027 140.568 51.5357 140.488L53.3471 136.071L58.0374 135.966L60.4594 132.017C60.5048 131.943 60.6017 131.92 60.6758 131.965Z" fill="#FEC955"/>
<path fill-rule="evenodd" clip-rule="evenodd" d="M46.8791 131.451C47.0216 131.425 47.1582 131.52 47.1842 131.662L49.6088 144.977L63.1302 142.515C63.2727 142.489 63.4092 142.583 63.4352 142.726C63.4611 142.868 63.3666 143.005 63.2241 143.031L49.1867 145.587L46.6681 131.756C46.6421 131.614 46.7366 131.477 46.8791 131.451Z" fill="#FEC955"/>
<path d="M52.3429 140.374C52.4104 140.744 52.1647 141.099 51.7942 141.167C51.4236 141.234 51.0686 140.988 51.0011 140.618C50.9336 140.247 51.1793 139.892 51.5498 139.825C51.9203 139.757 52.2754 140.003 52.3429 140.374Z" fill="#FEC955"/>
<path d="M54.1247 136.103C54.1921 136.474 53.9465 136.829 53.5759 136.896C53.2054 136.964 52.8503 136.718 52.7828 136.348C52.7154 135.977 52.961 135.622 53.3316 135.555C53.7021 135.487 54.0572 135.733 54.1247 136.103Z" fill="#FEC955"/>
<path d="M58.7789 135.896C58.8464 136.266 58.6007 136.621 58.2302 136.689C57.8597 136.756 57.5046 136.511 57.4371 136.14C57.3696 135.769 57.6153 135.414 57.9859 135.347C58.3564 135.279 58.7115 135.525 58.7789 135.896Z" fill="#FEC955"/>
<path d="M61.152 131.944C61.2194 132.315 60.9738 132.67 60.6032 132.738C60.2327 132.805 59.8776 132.559 59.8101 132.189C59.7427 131.818 59.9883 131.463 60.3589 131.396C60.7294 131.328 61.0845 131.574 61.152 131.944Z" fill="#FEC955"/>
</g>
<g opacity="0.6">
<path fill-rule="evenodd" clip-rule="evenodd" d="M91.1312 126.419C91.2053 126.465 91.2285 126.562 91.183 126.636L88.6714 130.73L84.0155 130.835L82.2822 135.061C82.2493 135.141 82.1573 135.18 82.0769 135.147C81.9965 135.114 81.9581 135.022 81.991 134.942L83.8025 130.524L88.4928 130.42L90.9147 126.471C90.9602 126.397 91.0571 126.374 91.1312 126.419Z" fill="#FEC955"/>
<path fill-rule="evenodd" clip-rule="evenodd" d="M77.3345 125.905C77.477 125.879 77.6136 125.974 77.6396 126.116L80.0642 139.431L93.5856 136.969C93.7281 136.943 93.8646 137.037 93.8906 137.18C93.9165 137.322 93.822 137.459 93.6795 137.485L79.6421 140.041L77.1235 126.21C77.0975 126.068 77.192 125.931 77.3345 125.905Z" fill="#FEC955"/>
<path d="M82.7983 134.827C82.8657 135.198 82.62 135.553 82.2495 135.621C81.879 135.688 81.5239 135.442 81.4564 135.072C81.389 134.701 81.6346 134.346 82.0052 134.279C82.3757 134.211 82.7308 134.457 82.7983 134.827Z" fill="#FEC955"/>
<path d="M84.58 130.557C84.6475 130.928 84.4018 131.283 84.0313 131.35C83.6607 131.418 83.3057 131.172 83.2382 130.802C83.1707 130.431 83.4164 130.076 83.7869 130.009C84.1574 129.941 84.5125 130.187 84.58 130.557Z" fill="#FEC955"/>
<path d="M89.2343 130.35C89.3018 130.72 89.0561 131.075 88.6856 131.143C88.315 131.21 87.9599 130.965 87.8925 130.594C87.825 130.223 88.0707 129.868 88.4412 129.801C88.8117 129.733 89.1668 129.979 89.2343 130.35Z" fill="#FEC955"/>
<path d="M91.6073 126.398C91.6748 126.769 91.4291 127.124 91.0586 127.192C90.688 127.259 90.333 127.013 90.2655 126.643C90.198 126.272 90.4437 125.917 90.8142 125.85C91.1848 125.782 91.5398 126.028 91.6073 126.398Z" fill="#FEC955"/>
</g>
<g opacity="0.6">
<path fill-rule="evenodd" clip-rule="evenodd" d="M121.587 120.873C121.661 120.919 121.684 121.016 121.639 121.09L119.127 125.184L114.471 125.288L112.738 129.515C112.705 129.595 112.613 129.634 112.533 129.601C112.452 129.568 112.414 129.476 112.447 129.395L114.258 124.978L118.948 124.874L121.37 120.925C121.416 120.851 121.513 120.828 121.587 120.873Z" fill="#FEC955"/>
<path fill-rule="evenodd" clip-rule="evenodd" d="M107.79 120.359C107.932 120.333 108.069 120.427 108.095 120.57L110.52 133.885L124.041 131.423C124.183 131.397 124.32 131.491 124.346 131.634C124.372 131.776 124.277 131.913 124.135 131.939L110.098 134.495L107.579 120.664C107.553 120.521 107.647 120.385 107.79 120.359Z" fill="#FEC955"/>
<path d="M113.254 129.281C113.321 129.652 113.076 130.007 112.705 130.074C112.334 130.142 111.979 129.896 111.912 129.526C111.844 129.155 112.09 128.8 112.461 128.733C112.831 128.665 113.186 128.911 113.254 129.281Z" fill="#FEC955"/>
<path d="M115.035 125.011C115.103 125.382 114.857 125.737 114.487 125.804C114.116 125.872 113.761 125.626 113.694 125.256C113.626 124.885 113.872 124.53 114.242 124.463C114.613 124.395 114.968 124.641 115.035 125.011Z" fill="#FEC955"/>
<path d="M119.69 124.804C119.757 125.174 119.512 125.529 119.141 125.597C118.771 125.664 118.416 125.418 118.348 125.048C118.281 124.677 118.526 124.322 118.897 124.255C119.267 124.187 119.622 124.433 119.69 124.804Z" fill="#FEC955"/>
<path d="M122.063 120.852C122.13 121.223 121.885 121.578 121.514 121.645C121.144 121.713 120.789 121.467 120.721 121.097C120.654 120.726 120.899 120.371 121.27 120.304C121.64 120.236 121.995 120.482 122.063 120.852Z" fill="#FEC955"/>
</g>
<g opacity="0.6">
<path fill-rule="evenodd" clip-rule="evenodd" d="M35.3595 159.877C35.502 159.851 35.6386 159.946 35.6645 160.088L38.0892 173.403L51.6105 170.941C51.753 170.915 51.8896 171.009 51.9155 171.152C51.9415 171.294 51.847 171.431 51.7045 171.457L37.6671 174.013L35.1484 160.182C35.1225 160.04 35.217 159.903 35.3595 159.877Z" fill="#FEC955"/>
<path d="M49.6324 160.37C49.6999 160.741 49.4542 161.096 49.0837 161.163C48.7132 161.231 48.3581 160.985 48.2906 160.615C48.2231 160.244 48.4688 159.889 48.8393 159.822C49.2099 159.754 49.565 160 49.6324 160.37Z" fill="#FEC955"/>
</g>
<g opacity="0.6">
<path fill-rule="evenodd" clip-rule="evenodd" d="M79.6118 154.845C79.6858 154.891 79.7091 154.987 79.6636 155.062L77.1519 159.156L72.4961 159.26L70.7628 163.487C70.7299 163.567 70.6379 163.606 70.5575 163.573C70.4771 163.54 70.4387 163.448 70.4716 163.367L72.2831 158.95L76.9734 158.846L79.3953 154.897C79.4408 154.823 79.5377 154.8 79.6118 154.845Z" fill="#FEC955"/>
<path fill-rule="evenodd" clip-rule="evenodd" d="M65.8151 154.331C65.9576 154.305 66.0942 154.399 66.1202 154.542L68.5448 167.857L82.0661 165.395C82.2087 165.369 82.3452 165.463 82.3712 165.606C82.3971 165.748 82.3026 165.885 82.1601 165.911L68.1227 168.467L65.6041 154.636C65.5781 154.493 65.6726 154.357 65.8151 154.331Z" fill="#FEC955"/>
<path d="M73.0606 158.983C73.1281 159.354 72.8824 159.709 72.5119 159.776C72.1413 159.844 71.7863 159.598 71.7188 159.228C71.6513 158.857 71.897 158.502 72.2675 158.435C72.638 158.367 72.9931 158.613 73.0606 158.983Z" fill="#FEC955"/>
<path d="M77.7149 158.776C77.7824 159.146 77.5367 159.501 77.1661 159.569C76.7956 159.636 76.4405 159.39 76.3731 159.02C76.3056 158.649 76.5513 158.294 76.9218 158.227C77.2923 158.159 77.6474 158.405 77.7149 158.776Z" fill="#FEC955"/>
<path d="M80.0879 154.824C80.1554 155.195 79.9097 155.55 79.5392 155.617C79.1686 155.685 78.8136 155.439 78.7461 155.069C78.6786 154.698 78.9243 154.343 79.2948 154.276C79.6654 154.208 80.0204 154.454 80.0879 154.824Z" fill="#FEC955"/>
</g>
<g opacity="0.6">
<path fill-rule="evenodd" clip-rule="evenodd" d="M110.067 149.299C110.141 149.345 110.165 149.441 110.119 149.516L107.607 153.61L102.952 153.714L101.218 157.941C101.185 158.021 101.093 158.06 101.013 158.027C100.933 157.994 100.894 157.902 100.927 157.821L102.739 153.404L107.429 153.299L109.851 149.351C109.896 149.277 109.993 149.254 110.067 149.299Z" fill="#FEC955"/>
<path fill-rule="evenodd" clip-rule="evenodd" d="M96.2705 148.785C96.413 148.759 96.5496 148.853 96.5756 148.996L99.0002 162.311L112.522 159.849C112.664 159.823 112.801 159.917 112.827 160.06C112.853 160.202 112.758 160.339 112.616 160.365L98.5781 162.921L96.0595 149.09C96.0335 148.947 96.128 148.811 96.2705 148.785Z" fill="#FEC955"/>
<path d="M101.734 157.707C101.802 158.078 101.556 158.433 101.186 158.5C100.815 158.568 100.46 158.322 100.393 157.952C100.325 157.581 100.571 157.226 100.941 157.159C101.312 157.091 101.667 157.337 101.734 157.707Z" fill="#FEC955"/>
<path d="M103.516 153.437C103.584 153.808 103.338 154.163 102.967 154.23C102.597 154.298 102.242 154.052 102.174 153.682C102.107 153.311 102.352 152.956 102.723 152.889C103.094 152.821 103.449 153.067 103.516 153.437Z" fill="#FEC955"/>
<path d="M108.17 153.23C108.238 153.6 107.992 153.955 107.622 154.023C107.251 154.09 106.896 153.844 106.829 153.474C106.761 153.103 107.007 152.748 107.377 152.681C107.748 152.613 108.103 152.859 108.17 153.23Z" fill="#FEC955"/>
<path d="M110.543 149.278C110.611 149.649 110.365 150.004 109.995 150.071C109.624 150.139 109.269 149.893 109.202 149.523C109.134 149.152 109.38 148.797 109.75 148.73C110.121 148.662 110.476 148.908 110.543 149.278Z" fill="#FEC955"/>
</g>
<g opacity="0.6">
<path fill-rule="evenodd" clip-rule="evenodd" d="M144.354 64.0709C144.428 64.1163 144.451 64.2132 144.406 64.2873L141.894 68.382L137.238 68.4862L135.505 72.7126C135.472 72.793 135.38 72.8314 135.299 72.7984C135.219 72.7655 135.181 72.6735 135.214 72.5931L137.025 68.1761L141.715 68.0712L144.137 64.1227C144.183 64.0486 144.28 64.0254 144.354 64.0709Z" fill="#FEC955"/>
<path fill-rule="evenodd" clip-rule="evenodd" d="M130.557 63.5566C130.699 63.5306 130.836 63.6251 130.862 63.7676L133.287 77.0825L146.808 74.6203C146.95 74.5943 147.087 74.6888 147.113 74.8313C147.139 74.9738 147.044 75.1104 146.902 75.1363L132.865 77.6926L130.346 63.8616C130.32 63.7191 130.414 63.5825 130.557 63.5566Z" fill="#FEC955"/>
<path d="M136.021 72.4791C136.088 72.8496 135.843 73.2047 135.472 73.2722C135.101 73.3396 134.746 73.094 134.679 72.7234C134.611 72.3529 134.857 71.9978 135.228 71.9303C135.598 71.8629 135.953 72.1085 136.021 72.4791Z" fill="#FEC955"/>
<path d="M137.802 68.209C137.87 68.5795 137.624 68.9346 137.254 69.002C136.883 69.0695 136.528 68.8238 136.461 68.4533C136.393 68.0828 136.639 67.7277 137.009 67.6602C137.38 67.5928 137.735 67.8384 137.802 68.209Z" fill="#FEC955"/>
<path d="M142.457 68.0012C142.524 68.3717 142.279 68.7268 141.908 68.7943C141.538 68.8618 141.182 68.6161 141.115 68.2456C141.047 67.875 141.293 67.5199 141.664 67.4525C142.034 67.385 142.389 67.6307 142.457 68.0012Z" fill="#FEC955"/>
<path d="M144.83 64.05C144.897 64.4205 144.652 64.7756 144.281 64.8431C143.911 64.9106 143.555 64.6649 143.488 64.2943C143.421 63.9238 143.666 63.5687 144.037 63.5013C144.407 63.4338 144.762 63.6795 144.83 64.05Z" fill="#FEC955"/>
</g>
<g opacity="0.6">
<path fill-rule="evenodd" clip-rule="evenodd" d="M132.834 92.4968C132.908 92.5422 132.932 92.6391 132.886 92.7132L130.374 96.808L125.719 96.9121L123.985 101.138C123.952 101.219 123.86 101.257 123.78 101.224C123.7 101.191 123.661 101.099 123.694 101.019L125.506 96.602L130.196 96.4971L132.618 92.5487C132.663 92.4746 132.76 92.4514 132.834 92.4968Z" fill="#FEC955"/>
<path fill-rule="evenodd" clip-rule="evenodd" d="M119.037 91.9825C119.18 91.9566 119.316 92.0511 119.342 92.1936L121.767 105.508L135.288 103.046C135.431 103.02 135.568 103.115 135.593 103.257C135.619 103.4 135.525 103.536 135.382 103.562L121.345 106.119L118.826 92.2876C118.8 92.145 118.895 92.0085 119.037 91.9825Z" fill="#FEC955"/>
<path d="M124.501 100.905C124.569 101.276 124.323 101.631 123.952 101.698C123.582 101.766 123.227 101.52 123.159 101.149C123.092 100.779 123.338 100.424 123.708 100.356C124.079 100.289 124.434 100.534 124.501 100.905Z" fill="#FEC955"/>
<path d="M126.283 96.6349C126.35 97.0054 126.105 97.3605 125.734 97.428C125.364 97.4955 125.009 97.2498 124.941 96.8792C124.874 96.5087 125.119 96.1536 125.49 96.0862C125.86 96.0187 126.215 96.2644 126.283 96.6349Z" fill="#FEC955"/>
<path d="M130.937 96.4271C131.005 96.7977 130.759 97.1527 130.389 97.2202C130.018 97.2877 129.663 97.042 129.595 96.6715C129.528 96.301 129.774 95.9459 130.144 95.8784C130.515 95.8109 130.87 96.0566 130.937 96.4271Z" fill="#FEC955"/>
<path d="M133.31 92.4759C133.378 92.8465 133.132 93.2015 132.762 93.269C132.391 93.3365 132.036 93.0908 131.969 92.7203C131.901 92.3498 132.147 91.9947 132.517 91.9272C132.888 91.8597 133.243 92.1054 133.31 92.4759Z" fill="#FEC955"/>
</g>
<g opacity="0.6">
<path fill-rule="evenodd" clip-rule="evenodd" d="M0.0548532 63.5445C0.128939 63.59 0.152159 63.6869 0.106716 63.761L-2.40496 67.8557L-7.06082 67.9598L-8.79407 72.1862C-8.82705 72.2666 -8.91897 72.3051 -8.99939 72.2721C-9.0798 72.2391 -9.11826 72.1472 -9.08528 72.0668L-7.27385 67.6498L-2.58354 67.5449L-0.161575 63.5964C-0.116131 63.5223 -0.019232 63.4991 0.0548532 63.5445Z" fill="#FEC955"/>
<path fill-rule="evenodd" clip-rule="evenodd" d="M-13.742 63.0303C-13.5994 63.0043 -13.4629 63.0988 -13.4369 63.2413L-11.0123 76.5562L2.50906 74.094C2.65158 74.068 2.78814 74.1625 2.8141 74.305C2.84005 74.4475 2.74556 74.5841 2.60304 74.61L-11.4344 77.1663L-13.953 63.3353C-13.979 63.1928 -13.8845 63.0562 -13.742 63.0303Z" fill="#FEC955"/>
<path d="M0.530863 63.5237C0.598338 63.8943 0.352662 64.2493 -0.0178685 64.3168C-0.388399 64.3843 -0.743473 64.1386 -0.810947 63.7681C-0.878422 63.3975 -0.632746 63.0425 -0.262216 62.975C0.108315 62.9075 0.463389 63.1532 0.530863 63.5237Z" fill="#FEC955"/>
</g>
<g opacity="0.6">
<path fill-rule="evenodd" clip-rule="evenodd" d="M30.5102 57.9985C30.5843 58.044 30.6075 58.1409 30.5621 58.215L28.0504 62.3097L23.3945 62.4138L21.6613 66.6402C21.6283 66.7206 21.5364 66.7591 21.4559 66.7261C21.3755 66.6931 21.3371 66.6012 21.3701 66.5208L23.1815 62.1038L27.8718 61.9989L30.2938 58.0504C30.3392 57.9763 30.4361 57.9531 30.5102 57.9985Z" fill="#FEC955"/>
<path fill-rule="evenodd" clip-rule="evenodd" d="M16.7136 57.4843C16.8561 57.4583 16.9926 57.5528 17.0186 57.6953L19.4433 71.0102L32.9646 68.5479C33.1071 68.522 33.2437 68.6165 33.2696 68.759C33.2956 68.9015 33.2011 69.0381 33.0586 69.064L19.0212 71.6203L16.5025 57.7893C16.4766 57.6468 16.571 57.5102 16.7136 57.4843Z" fill="#FEC955"/>
<path d="M22.1773 66.4068C22.2447 66.7773 21.9991 67.1324 21.6285 67.1998C21.258 67.2673 20.9029 67.0216 20.8355 66.6511C20.768 66.2806 21.0137 65.9255 21.3842 65.858C21.7547 65.7905 22.1098 66.0362 22.1773 66.4068Z" fill="#FEC955"/>
<path d="M23.959 62.1366C24.0265 62.5072 23.7808 62.8622 23.4103 62.9297C23.0398 62.9972 22.6847 62.7515 22.6172 62.381C22.5497 62.0105 22.7954 61.6554 23.1659 61.5879C23.5365 61.5204 23.8916 61.7661 23.959 62.1366Z" fill="#FEC955"/>
<path d="M28.6133 61.9289C28.6808 62.2994 28.4351 62.6545 28.0646 62.722C27.694 62.7895 27.339 62.5438 27.2715 62.1733C27.204 61.8027 27.4497 61.4477 27.8202 61.3802C28.1908 61.3127 28.5458 61.5584 28.6133 61.9289Z" fill="#FEC955"/>
<path d="M30.9863 57.9777C31.0538 58.3482 30.8081 58.7033 30.4376 58.7708C30.0671 58.8383 29.712 58.5926 29.6445 58.2221C29.5771 57.8515 29.8227 57.4964 30.1933 57.429C30.5638 57.3615 30.9189 57.6072 30.9863 57.9777Z" fill="#FEC955"/>
</g>
<g opacity="0.6">
<path fill-rule="evenodd" clip-rule="evenodd" d="M60.9659 52.4525C61.04 52.4979 61.0632 52.5948 61.0178 52.6689L58.5061 56.7636L53.8502 56.8678L52.117 61.0941C52.084 61.1746 51.9921 61.213 51.9117 61.18C51.8312 61.1471 51.7928 61.0551 51.8258 60.9747L53.6372 56.5577L58.3275 56.4528L60.7495 52.5043C60.7949 52.4302 60.8918 52.407 60.9659 52.4525Z" fill="#FEC955"/>
<path fill-rule="evenodd" clip-rule="evenodd" d="M47.1692 51.9382C47.3117 51.9123 47.4483 52.0067 47.4742 52.1493L49.8989 65.4641L63.4202 63.0019C63.5627 62.9759 63.6993 63.0704 63.7253 63.2129C63.7512 63.3554 63.6567 63.492 63.5142 63.518L49.4768 66.0742L46.9581 52.2432C46.9322 52.1007 47.0267 51.9642 47.1692 51.9382Z" fill="#FEC955"/>
<path d="M52.633 60.8607C52.7005 61.2312 52.4548 61.5863 52.0843 61.6537C51.7137 61.7212 51.3586 61.4755 51.2912 61.105C51.2237 60.7345 51.4694 60.3794 51.8399 60.3119C52.2104 60.2445 52.5655 60.4901 52.633 60.8607Z" fill="#FEC955"/>
<path d="M54.4147 56.5906C54.4822 56.9611 54.2365 57.3162 53.866 57.3837C53.4955 57.4511 53.1404 57.2055 53.0729 56.8349C53.0054 56.4644 53.2511 56.1093 53.6216 56.0419C53.9922 55.9744 54.3473 56.2201 54.4147 56.5906Z" fill="#FEC955"/>
<path d="M59.069 56.3828C59.1365 56.7534 58.8908 57.1084 58.5203 57.1759C58.1498 57.2434 57.7947 56.9977 57.7272 56.6272C57.6597 56.2566 57.9054 55.9016 58.2759 55.8341C58.6465 55.7666 59.0015 56.0123 59.069 56.3828Z" fill="#FEC955"/>
<path d="M61.442 52.4316C61.5095 52.8022 61.2638 53.1572 60.8933 53.2247C60.5228 53.2922 60.1677 53.0465 60.1002 52.676C60.0328 52.3054 60.2784 51.9504 60.649 51.8829C61.0195 51.8154 61.3746 52.0611 61.442 52.4316Z" fill="#FEC955"/>
</g>
<g opacity="0.6">
<path fill-rule="evenodd" clip-rule="evenodd" d="M91.4213 46.9065C91.4953 46.9519 91.5186 47.0488 91.4731 47.1229L88.9614 51.2177L84.3056 51.3218L82.5723 55.5482C82.5393 55.6286 82.4474 55.6671 82.367 55.6341C82.2866 55.6011 82.2481 55.5092 82.2811 55.4288L84.0926 51.0117L88.7829 50.9068L91.2048 46.9584C91.2503 46.8843 91.3472 46.8611 91.4213 46.9065Z" fill="#FEC955"/>
<path fill-rule="evenodd" clip-rule="evenodd" d="M77.6245 46.3922C77.767 46.3663 77.9036 46.4608 77.9295 46.6033L80.3542 59.9182L93.8755 57.4559C94.018 57.43 94.1546 57.5245 94.1805 57.667C94.2065 57.8095 94.112 57.946 93.9695 57.972L79.9321 60.5282L77.4134 46.6973C77.3875 46.5548 77.482 46.4182 77.6245 46.3922Z" fill="#FEC955"/>
<path d="M83.0882 55.3147C83.1557 55.6853 82.91 56.0403 82.5395 56.1078C82.169 56.1753 81.8139 55.9296 81.7464 55.5591C81.6789 55.1886 81.9246 54.8335 82.2951 54.766C82.6657 54.6985 83.0207 54.9442 83.0882 55.3147Z" fill="#FEC955"/>
<path d="M84.87 51.0446C84.9374 51.4151 84.6918 51.7702 84.3212 51.8377C83.9507 51.9052 83.5956 51.6595 83.5281 51.2889C83.4607 50.9184 83.7063 50.5633 84.0769 50.4959C84.4474 50.4284 84.8025 50.6741 84.87 51.0446Z" fill="#FEC955"/>
<path d="M89.5244 50.8369C89.5918 51.2074 89.3462 51.5625 88.9756 51.6299C88.6051 51.6974 88.25 51.4517 88.1826 51.0812C88.1151 50.7107 88.3608 50.3556 88.7313 50.2881C89.1018 50.2207 89.4569 50.4663 89.5244 50.8369Z" fill="#FEC955"/>
<path d="M91.8974 46.8857C91.9649 47.2562 91.7192 47.6113 91.3487 47.6787C90.9781 47.7462 90.6231 47.5005 90.5556 47.13C90.4881 46.7595 90.7338 46.4044 91.1043 46.3369C91.4748 46.2695 91.8299 46.5151 91.8974 46.8857Z" fill="#FEC955"/>
</g>
<g opacity="0.6">
<path fill-rule="evenodd" clip-rule="evenodd" d="M123.469 41.0705C123.543 41.1159 123.567 41.2128 123.521 41.2869L121.009 45.3817L116.354 45.4858L114.62 49.7122C114.587 49.7926 114.495 49.8311 114.415 49.7981C114.335 49.7651 114.296 49.6732 114.329 49.5928L116.141 45.1757L120.831 45.0708L123.253 41.1224C123.298 41.0483 123.395 41.0251 123.469 41.0705Z" fill="#FEC955"/>
<path fill-rule="evenodd" clip-rule="evenodd" d="M109.673 40.5563C109.815 40.5303 109.952 40.6248 109.978 40.7673L112.402 54.0822L125.924 51.6199C126.066 51.594 126.203 51.6885 126.229 51.831C126.255 51.9735 126.16 52.11 126.018 52.136L111.98 54.6922L109.462 40.8613C109.436 40.7188 109.53 40.5822 109.673 40.5563Z" fill="#FEC955"/>
<path d="M115.136 49.4787C115.204 49.8492 114.958 50.2043 114.588 50.2718C114.217 50.3393 113.862 50.0936 113.794 49.7231C113.727 49.3525 113.973 48.9975 114.343 48.93C114.714 48.8625 115.069 49.1082 115.136 49.4787Z" fill="#FEC955"/>
<path d="M116.918 45.2086C116.986 45.5791 116.74 45.9342 116.369 46.0017C115.999 46.0692 115.644 45.8235 115.576 45.4529C115.509 45.0824 115.754 44.7273 116.125 44.6599C116.495 44.5924 116.851 44.8381 116.918 45.2086Z" fill="#FEC955"/>
<path d="M121.572 45.0009C121.64 45.3714 121.394 45.7265 121.024 45.7939C120.653 45.8614 120.298 45.6157 120.231 45.2452C120.163 44.8747 120.409 44.5196 120.779 44.4521C121.15 44.3847 121.505 44.6303 121.572 45.0009Z" fill="#FEC955"/>
<path d="M123.945 41.0497C124.013 41.4202 123.767 41.7753 123.397 41.8427C123.026 41.9102 122.671 41.6645 122.604 41.294C122.536 40.9235 122.782 40.5684 123.152 40.5009C123.523 40.4335 123.878 40.6791 123.945 41.0497Z" fill="#FEC955"/>
</g>
<g opacity="0.6">
<path fill-rule="evenodd" clip-rule="evenodd" d="M153.635 115.037C153.709 115.083 153.732 115.18 153.687 115.254L151.175 119.348L146.519 119.453L144.786 123.679C144.753 123.759 144.661 123.798 144.58 123.765C144.5 123.732 144.462 123.64 144.495 123.559L146.306 119.142L150.996 119.038L153.418 115.089C153.464 115.015 153.561 114.992 153.635 115.037Z" fill="#FEC955"/>
<path fill-rule="evenodd" clip-rule="evenodd" d="M139.838 114.523C139.981 114.497 140.117 114.591 140.143 114.734L142.568 128.049L156.089 125.587C156.232 125.561 156.368 125.655 156.394 125.798C156.42 125.94 156.326 126.077 156.183 126.103L142.146 128.659L139.627 114.828C139.601 114.685 139.696 114.549 139.838 114.523Z" fill="#FEC955"/>
<path d="M145.302 123.445C145.369 123.816 145.124 124.171 144.753 124.238C144.383 124.306 144.027 124.06 143.96 123.69C143.893 123.319 144.138 122.964 144.509 122.897C144.879 122.829 145.234 123.075 145.302 123.445Z" fill="#FEC955"/>
<path d="M147.084 119.175C147.151 119.546 146.905 119.901 146.535 119.968C146.164 120.036 145.809 119.79 145.742 119.42C145.674 119.049 145.92 118.694 146.29 118.627C146.661 118.559 147.016 118.805 147.084 119.175Z" fill="#FEC955"/>
<path d="M151.738 118.968C151.805 119.338 151.56 119.693 151.189 119.761C150.819 119.828 150.464 119.582 150.396 119.212C150.329 118.841 150.574 118.486 150.945 118.419C151.315 118.351 151.67 118.597 151.738 118.968Z" fill="#FEC955"/>
<path d="M154.111 115.016C154.178 115.387 153.933 115.742 153.562 115.809C153.192 115.877 152.837 115.631 152.769 115.261C152.702 114.89 152.947 114.535 153.318 114.468C153.688 114.4 154.043 114.646 154.111 115.016Z" fill="#FEC955"/>
</g>
<g opacity="0.6">
<path fill-rule="evenodd" clip-rule="evenodd" d="M142.115 143.463C142.189 143.509 142.213 143.605 142.167 143.68L139.656 147.774L135 147.878L133.266 152.105C133.233 152.185 133.142 152.224 133.061 152.191C132.981 152.158 132.942 152.066 132.975 151.985L134.787 147.568L139.477 147.463L141.899 143.515C141.944 143.441 142.041 143.418 142.115 143.463Z" fill="#FEC955"/>
<path fill-rule="evenodd" clip-rule="evenodd" d="M128.318 142.949C128.461 142.923 128.598 143.017 128.624 143.16L131.048 156.475L144.57 154.013C144.712 153.987 144.849 154.081 144.875 154.224C144.901 154.366 144.806 154.503 144.663 154.529L130.626 157.085L128.107 143.254C128.081 143.111 128.176 142.975 128.318 142.949Z" fill="#FEC955"/>
<path d="M133.782 151.871C133.85 152.242 133.604 152.597 133.234 152.664C132.863 152.732 132.508 152.486 132.44 152.116C132.373 151.745 132.619 151.39 132.989 151.323C133.36 151.255 133.715 151.501 133.782 151.871Z" fill="#FEC955"/>
<path d="M135.564 147.601C135.632 147.972 135.386 148.327 135.015 148.394C134.645 148.462 134.29 148.216 134.222 147.846C134.155 147.475 134.4 147.12 134.771 147.053C135.141 146.985 135.497 147.231 135.564 147.601Z" fill="#FEC955"/>
<path d="M140.218 147.394C140.286 147.764 140.04 148.119 139.67 148.187C139.299 148.254 138.944 148.008 138.877 147.638C138.809 147.267 139.055 146.912 139.425 146.845C139.796 146.777 140.151 147.023 140.218 147.394Z" fill="#FEC955"/>
<path d="M142.591 143.442C142.659 143.813 142.413 144.168 142.043 144.235C141.672 144.303 141.317 144.057 141.25 143.687C141.182 143.316 141.428 142.961 141.798 142.894C142.169 142.826 142.524 143.072 142.591 143.442Z" fill="#FEC955"/>
</g>
<path fill-rule="evenodd" clip-rule="evenodd" d="M160 40.8702L66 60L74.5 46.5L0 57.1428V8C0 3.58172 3.58172 0 8 0H152C156.418 0 160 3.58172 160 8V40.8702Z" fill="#4DAA9C"/>
<path d="M15.3672 25.3594C15.0547 25.3594 14.7812 25.3411 14.5469 25.3047C14.3073 25.2734 14.1042 25.2344 13.9375 25.1875V23.1719C14.1042 23.2083 14.2839 23.2422 14.4766 23.2734C14.6641 23.3099 14.8646 23.3281 15.0781 23.3281C15.3594 23.3281 15.612 23.2734 15.8359 23.1641C16.0599 23.0599 16.237 22.8594 16.3672 22.5625C16.4974 22.2656 16.5625 21.8385 16.5625 21.2812V10.5781H18.9844V21.2656C18.9844 22.2448 18.8307 23.0339 18.5234 23.6328C18.2214 24.237 17.7969 24.6745 17.25 24.9453C16.7083 25.2214 16.0807 25.3594 15.3672 25.3594ZM29.6094 17.6172C29.6094 18.3464 29.5104 18.9922 29.3125 19.5547C29.1198 20.1172 28.8359 20.5938 28.4609 20.9844C28.0911 21.3698 27.6432 21.6615 27.1172 21.8594C26.5964 22.0573 26.0078 22.1562 25.3516 22.1562C24.737 22.1562 24.1719 22.0573 23.6562 21.8594C23.1458 21.6615 22.7005 21.3698 22.3203 20.9844C21.9453 20.5938 21.6536 20.1172 21.4453 19.5547C21.2422 18.9922 21.1406 18.3464 21.1406 17.6172C21.1406 16.6484 21.3125 15.8281 21.6562 15.1562C22 14.4844 22.4896 13.974 23.125 13.625C23.7604 13.276 24.5182 13.1016 25.3984 13.1016C26.2161 13.1016 26.9401 13.276 27.5703 13.625C28.2057 13.974 28.7031 14.4844 29.0625 15.1562C29.4271 15.8281 29.6094 16.6484 29.6094 17.6172ZM23.5703 17.6172C23.5703 18.1901 23.6328 18.6719 23.7578 19.0625C23.8828 19.4531 24.0781 19.7474 24.3438 19.9453C24.6094 20.1432 24.9557 20.2422 25.3828 20.2422C25.8047 20.2422 26.1458 20.1432 26.4062 19.9453C26.6719 19.7474 26.8646 19.4531 26.9844 19.0625C27.1094 18.6719 27.1719 18.1901 27.1719 17.6172C27.1719 17.0391 27.1094 16.5599 26.9844 16.1797C26.8646 15.7943 26.6719 15.5052 26.4062 15.3125C26.1406 15.1198 25.7943 15.0234 25.3672 15.0234C24.737 15.0234 24.2786 15.2396 23.9922 15.6719C23.7109 16.1042 23.5703 16.7526 23.5703 17.6172ZM33.9609 13.2656V22H31.5781V13.2656H33.9609ZM32.7734 9.84375C33.1276 9.84375 33.4323 9.92708 33.6875 10.0938C33.9427 10.2552 34.0703 10.5599 34.0703 11.0078C34.0703 11.4505 33.9427 11.7578 33.6875 11.9297C33.4323 12.0964 33.1276 12.1797 32.7734 12.1797C32.4141 12.1797 32.1068 12.0964 31.8516 11.9297C31.6016 11.7578 31.4766 11.4505 31.4766 11.0078C31.4766 10.5599 31.6016 10.2552 31.8516 10.0938C32.1068 9.92708 32.4141 9.84375 32.7734 9.84375ZM41.4297 13.1016C42.362 13.1016 43.112 13.3568 43.6797 13.8672C44.2474 14.3724 44.5312 15.1849 44.5312 16.3047V22H42.1484V16.8984C42.1484 16.2734 42.0339 15.8021 41.8047 15.4844C41.5807 15.1667 41.2266 15.0078 40.7422 15.0078C40.013 15.0078 39.5156 15.2552 39.25 15.75C38.9844 16.2448 38.8516 16.9583 38.8516 17.8906V22H36.4688V13.2656H38.2891L38.6094 14.3828H38.7422C38.9297 14.0807 39.1615 13.8359 39.4375 13.6484C39.7188 13.4609 40.0286 13.3229 40.3672 13.2344C40.7109 13.1458 41.0651 13.1016 41.4297 13.1016ZM59.1562 13.2656V22H57.3281L57.0078 20.8828H56.8828C56.6953 21.1797 56.4609 21.4219 56.1797 21.6094C55.8984 21.7969 55.5885 21.9349 55.25 22.0234C54.9115 22.112 54.5599 22.1562 54.1953 22.1562C53.5703 22.1562 53.026 22.0469 52.5625 21.8281C52.099 21.6042 51.737 21.2578 51.4766 20.7891C51.2214 20.3203 51.0938 19.7109 51.0938 18.9609V13.2656H53.4766V18.3672C53.4766 18.9922 53.5885 19.4635 53.8125 19.7812C54.0365 20.099 54.3932 20.2578 54.8828 20.2578C55.3672 20.2578 55.7474 20.1484 56.0234 19.9297C56.2995 19.7057 56.4922 19.3802 56.6016 18.9531C56.7161 18.5208 56.7734 17.9948 56.7734 17.375V13.2656H59.1562ZM67.75 19.4062C67.75 20 67.6094 20.5026 67.3281 20.9141C67.0521 21.3203 66.638 21.6302 66.0859 21.8438C65.5339 22.0521 64.8464 22.1562 64.0234 22.1562C63.4141 22.1562 62.8906 22.1172 62.4531 22.0391C62.0208 21.9609 61.5833 21.8307 61.1406 21.6484V19.6797C61.6146 19.8932 62.1224 20.0703 62.6641 20.2109C63.2109 20.3464 63.6901 20.4141 64.1016 20.4141C64.5651 20.4141 64.8958 20.3464 65.0938 20.2109C65.2969 20.0703 65.3984 19.888 65.3984 19.6641C65.3984 19.5182 65.3568 19.388 65.2734 19.2734C65.1953 19.1536 65.0234 19.0208 64.7578 18.875C64.4922 18.724 64.0755 18.5286 63.5078 18.2891C62.9609 18.0599 62.5104 17.8281 62.1562 17.5938C61.8073 17.3594 61.5469 17.0833 61.375 16.7656C61.2083 16.4427 61.125 16.0339 61.125 15.5391C61.125 14.7318 61.4375 14.125 62.0625 13.7188C62.6927 13.3073 63.5339 13.1016 64.5859 13.1016C65.1276 13.1016 65.6432 13.1562 66.1328 13.2656C66.6276 13.375 67.1354 13.5495 67.6562 13.7891L66.9375 15.5078C66.5052 15.3203 66.0964 15.1667 65.7109 15.0469C65.3307 14.9271 64.9427 14.8672 64.5469 14.8672C64.1979 14.8672 63.9349 14.9141 63.7578 15.0078C63.5807 15.1016 63.4922 15.2448 63.4922 15.4375C63.4922 15.5781 63.5365 15.7031 63.625 15.8125C63.7188 15.9219 63.8958 16.0443 64.1562 16.1797C64.4219 16.3099 64.8099 16.4792 65.3203 16.6875C65.8151 16.8906 66.2448 17.1042 66.6094 17.3281C66.974 17.5469 67.2552 17.8203 67.4531 18.1484C67.651 18.4714 67.75 18.8906 67.75 19.4062ZM77.3438 13.0859C78.5156 13.0859 79.4141 13.3411 80.0391 13.8516C80.6641 14.362 80.9766 15.138 80.9766 16.1797V22H79.3125L78.8516 20.8125H78.7891C78.5391 21.125 78.2839 21.3802 78.0234 21.5781C77.763 21.776 77.4635 21.9219 77.125 22.0156C76.7865 22.1094 76.375 22.1562 75.8906 22.1562C75.375 22.1562 74.9115 22.0573 74.5 21.8594C74.0938 21.6615 73.7734 21.3594 73.5391 20.9531C73.3047 20.5417 73.1875 20.0208 73.1875 19.3906C73.1875 18.4635 73.513 17.7812 74.1641 17.3438C74.8151 16.901 75.7917 16.6562 77.0938 16.6094L78.6094 16.5625V16.1797C78.6094 15.7214 78.4896 15.3854 78.25 15.1719C78.0104 14.9583 77.6771 14.8516 77.25 14.8516C76.8281 14.8516 76.4141 14.9115 76.0078 15.0312C75.6016 15.151 75.1953 15.3021 74.7891 15.4844L74 13.875C74.4635 13.6302 74.9818 13.4375 75.5547 13.2969C76.1328 13.1562 76.7292 13.0859 77.3438 13.0859ZM78.6094 17.9531L77.6875 17.9844C76.9167 18.0052 76.3802 18.1432 76.0781 18.3984C75.7812 18.6536 75.6328 18.9896 75.6328 19.4062C75.6328 19.7708 75.7396 20.0312 75.9531 20.1875C76.1667 20.3385 76.4453 20.4141 76.7891 20.4141C77.2995 20.4141 77.7292 20.263 78.0781 19.9609C78.4323 19.6589 78.6094 19.2292 78.6094 18.6719V17.9531ZM87.1172 20.2578C87.3776 20.2578 87.6302 20.2318 87.875 20.1797C88.125 20.1276 88.3724 20.0625 88.6172 19.9844V21.7578C88.362 21.8724 88.0443 21.9661 87.6641 22.0391C87.2891 22.1172 86.8776 22.1562 86.4297 22.1562C85.9089 22.1562 85.4401 22.0729 85.0234 21.9062C84.612 21.7344 84.2865 21.4401 84.0469 21.0234C83.8125 20.6016 83.6953 20.0156 83.6953 19.2656V15.0547H82.5547V14.0469L83.8672 13.25L84.5547 11.4062H86.0781V13.2656H88.5234V15.0547H86.0781V19.2656C86.0781 19.599 86.1719 19.849 86.3594 20.0156C86.5521 20.1771 86.8047 20.2578 87.1172 20.2578ZM101.477 18.8281C101.477 19.5052 101.312 20.0938 100.984 20.5938C100.656 21.0938 100.177 21.4792 99.5469 21.75C98.9219 22.0208 98.1615 22.1562 97.2656 22.1562C96.8698 22.1562 96.4818 22.1302 96.1016 22.0781C95.7266 22.026 95.3646 21.9505 95.0156 21.8516C94.6719 21.7474 94.3438 21.6198 94.0312 21.4688V19.2188C94.5729 19.4583 95.1354 19.6745 95.7188 19.8672C96.3021 20.0599 96.8802 20.1562 97.4531 20.1562C97.849 20.1562 98.1667 20.1042 98.4062 20C98.651 19.8958 98.8281 19.7526 98.9375 19.5703C99.0469 19.388 99.1016 19.1797 99.1016 18.9453C99.1016 18.6589 99.0052 18.4141 98.8125 18.2109C98.6198 18.0078 98.3542 17.8177 98.0156 17.6406C97.6823 17.4635 97.3047 17.2734 96.8828 17.0703C96.6172 16.9453 96.3281 16.7943 96.0156 16.6172C95.7031 16.4349 95.4062 16.2135 95.125 15.9531C94.8438 15.6927 94.612 15.3776 94.4297 15.0078C94.2526 14.6328 94.1641 14.1849 94.1641 13.6641C94.1641 12.9818 94.3203 12.3984 94.6328 11.9141C94.9453 11.4297 95.3906 11.0599 95.9688 10.8047C96.5521 10.5443 97.2396 10.4141 98.0312 10.4141C98.625 10.4141 99.1901 10.4844 99.7266 10.625C100.268 10.7604 100.833 10.9583 101.422 11.2188L100.641 13.1016C100.115 12.888 99.6432 12.724 99.2266 12.6094C98.8099 12.4896 98.3854 12.4297 97.9531 12.4297C97.651 12.4297 97.3932 12.4792 97.1797 12.5781C96.9661 12.6719 96.8047 12.8073 96.6953 12.9844C96.5859 13.1562 96.5312 13.3568 96.5312 13.5859C96.5312 13.8568 96.6094 14.0859 96.7656 14.2734C96.9271 14.4557 97.1667 14.6328 97.4844 14.8047C97.8073 14.9766 98.2083 15.1771 98.6875 15.4062C99.2708 15.6823 99.7682 15.9714 100.18 16.2734C100.596 16.5703 100.917 16.9219 101.141 17.3281C101.365 17.7292 101.477 18.2292 101.477 18.8281ZM113.617 13.1016C114.607 13.1016 115.354 13.3568 115.859 13.8672C116.37 14.3724 116.625 15.1849 116.625 16.3047V22H114.234V16.8984C114.234 16.2734 114.128 15.8021 113.914 15.4844C113.701 15.1667 113.37 15.0078 112.922 15.0078C112.292 15.0078 111.844 15.2344 111.578 15.6875C111.312 16.1354 111.18 16.7786 111.18 17.6172V22H108.797V16.8984C108.797 16.4818 108.75 16.1328 108.656 15.8516C108.562 15.5703 108.419 15.3594 108.227 15.2188C108.034 15.0781 107.786 15.0078 107.484 15.0078C107.042 15.0078 106.693 15.1198 106.438 15.3438C106.188 15.5625 106.008 15.888 105.898 16.3203C105.794 16.7474 105.742 17.2708 105.742 17.8906V22H103.359V13.2656H105.18L105.5 14.3828H105.633C105.81 14.0807 106.031 13.8359 106.297 13.6484C106.568 13.4609 106.865 13.3229 107.188 13.2344C107.51 13.1458 107.839 13.1016 108.172 13.1016C108.812 13.1016 109.354 13.2057 109.797 13.4141C110.245 13.6224 110.589 13.9453 110.828 14.3828H111.039C111.299 13.9349 111.667 13.6094 112.141 13.4062C112.62 13.2031 113.112 13.1016 113.617 13.1016ZM122.656 13.0859C123.828 13.0859 124.727 13.3411 125.352 13.8516C125.977 14.362 126.289 15.138 126.289 16.1797V22H124.625L124.164 20.8125H124.102C123.852 21.125 123.596 21.3802 123.336 21.5781C123.076 21.776 122.776 21.9219 122.438 22.0156C122.099 22.1094 121.688 22.1562 121.203 22.1562C120.688 22.1562 120.224 22.0573 119.812 21.8594C119.406 21.6615 119.086 21.3594 118.852 20.9531C118.617 20.5417 118.5 20.0208 118.5 19.3906C118.5 18.4635 118.826 17.7812 119.477 17.3438C120.128 16.901 121.104 16.6562 122.406 16.6094L123.922 16.5625V16.1797C123.922 15.7214 123.802 15.3854 123.562 15.1719C123.323 14.9583 122.99 14.8516 122.562 14.8516C122.141 14.8516 121.727 14.9115 121.32 15.0312C120.914 15.151 120.508 15.3021 120.102 15.4844L119.312 13.875C119.776 13.6302 120.294 13.4375 120.867 13.2969C121.445 13.1562 122.042 13.0859 122.656 13.0859ZM123.922 17.9531L123 17.9844C122.229 18.0052 121.693 18.1432 121.391 18.3984C121.094 18.6536 120.945 18.9896 120.945 19.4062C120.945 19.7708 121.052 20.0312 121.266 20.1875C121.479 20.3385 121.758 20.4141 122.102 20.4141C122.612 20.4141 123.042 20.263 123.391 19.9609C123.745 19.6589 123.922 19.2292 123.922 18.6719V17.9531ZM133.625 13.1016C133.745 13.1016 133.883 13.1094 134.039 13.125C134.201 13.1354 134.331 13.151 134.43 13.1719L134.25 15.4062C134.172 15.3802 134.06 15.362 133.914 15.3516C133.773 15.3359 133.651 15.3281 133.547 15.3281C133.24 15.3281 132.94 15.3672 132.648 15.4453C132.362 15.5234 132.104 15.651 131.875 15.8281C131.646 16 131.464 16.2292 131.328 16.5156C131.198 16.7969 131.133 17.1432 131.133 17.5547V22H128.75V13.2656H130.555L130.906 14.7344H131.023C131.195 14.4375 131.409 14.1667 131.664 13.9219C131.924 13.6719 132.219 13.474 132.547 13.3281C132.88 13.1771 133.24 13.1016 133.625 13.1016ZM139.695 20.2578C139.956 20.2578 140.208 20.2318 140.453 20.1797C140.703 20.1276 140.951 20.0625 141.195 19.9844V21.7578C140.94 21.8724 140.622 21.9661 140.242 22.0391C139.867 22.1172 139.456 22.1562 139.008 22.1562C138.487 22.1562 138.018 22.0729 137.602 21.9062C137.19 21.7344 136.865 21.4401 136.625 21.0234C136.391 20.6016 136.273 20.0156 136.273 19.2656V15.0547H135.133V14.0469L136.445 13.25L137.133 11.4062H138.656V13.2656H141.102V15.0547H138.656V19.2656C138.656 19.599 138.75 19.849 138.938 20.0156C139.13 20.1771 139.383 20.2578 139.695 20.2578ZM37.4219 33.5859H41.9531V39.5078C41.3542 39.7057 40.7318 39.8646 40.0859 39.9844C39.4401 40.099 38.7083 40.1562 37.8906 40.1562C36.7552 40.1562 35.7917 39.9323 35 39.4844C34.2083 39.0365 33.6068 38.375 33.1953 37.5C32.7839 36.625 32.5781 35.5495 32.5781 34.2734C32.5781 33.0755 32.8073 32.0391 33.2656 31.1641C33.7292 30.2891 34.4036 29.612 35.2891 29.1328C36.1797 28.6536 37.2656 28.4141 38.5469 28.4141C39.151 28.4141 39.7474 28.4792 40.3359 28.6094C40.9245 28.7396 41.4583 28.9089 41.9375 29.1172L41.1328 31.0547C40.7839 30.8776 40.3854 30.7292 39.9375 30.6094C39.4896 30.4896 39.0208 30.4297 38.5312 30.4297C37.8281 30.4297 37.2161 30.5911 36.6953 30.9141C36.1797 31.237 35.7786 31.6901 35.4922 32.2734C35.2109 32.8516 35.0703 33.5339 35.0703 34.3203C35.0703 35.0651 35.1719 35.7266 35.375 36.3047C35.5781 36.8776 35.8984 37.3281 36.3359 37.6562C36.7734 37.9792 37.3438 38.1406 38.0469 38.1406C38.3906 38.1406 38.6797 38.125 38.9141 38.0938C39.1536 38.0573 39.3776 38.0208 39.5859 37.9844V35.6016H37.4219V33.5859ZM48.0938 31.1016C48.901 31.1016 49.5964 31.2578 50.1797 31.5703C50.763 31.8776 51.2135 32.3255 51.5312 32.9141C51.849 33.5026 52.0078 34.2214 52.0078 35.0703V36.2266H46.375C46.401 36.8984 46.6016 37.4271 46.9766 37.8125C47.3568 38.1927 47.8828 38.3828 48.5547 38.3828C49.112 38.3828 49.6224 38.3255 50.0859 38.2109C50.5495 38.0964 51.026 37.9245 51.5156 37.6953V39.5391C51.0833 39.7526 50.6302 39.9089 50.1562 40.0078C49.6875 40.1068 49.1172 40.1562 48.4453 40.1562C47.5703 40.1562 46.7943 39.9948 46.1172 39.6719C45.4453 39.349 44.9167 38.8568 44.5312 38.1953C44.151 37.5339 43.9609 36.7005 43.9609 35.6953C43.9609 34.6745 44.1328 33.8255 44.4766 33.1484C44.8255 32.4661 45.3099 31.9557 45.9297 31.6172C46.5495 31.2734 47.2708 31.1016 48.0938 31.1016ZM48.1094 32.7969C47.6458 32.7969 47.2604 32.9453 46.9531 33.2422C46.651 33.5391 46.4766 34.0052 46.4297 34.6406H49.7734C49.7682 34.2865 49.7031 33.9714 49.5781 33.6953C49.4583 33.4193 49.276 33.2005 49.0312 33.0391C48.7917 32.8776 48.4844 32.7969 48.1094 32.7969ZM61.8828 35.6172C61.8828 36.3464 61.7839 36.9922 61.5859 37.5547C61.3932 38.1172 61.1094 38.5938 60.7344 38.9844C60.3646 39.3698 59.9167 39.6615 59.3906 39.8594C58.8698 40.0573 58.2812 40.1562 57.625 40.1562C57.0104 40.1562 56.4453 40.0573 55.9297 39.8594C55.4193 39.6615 54.974 39.3698 54.5938 38.9844C54.2188 38.5938 53.9271 38.1172 53.7188 37.5547C53.5156 36.9922 53.4141 36.3464 53.4141 35.6172C53.4141 34.6484 53.5859 33.8281 53.9297 33.1562C54.2734 32.4844 54.763 31.974 55.3984 31.625C56.0339 31.276 56.7917 31.1016 57.6719 31.1016C58.4896 31.1016 59.2135 31.276 59.8438 31.625C60.4792 31.974 60.9766 32.4844 61.3359 33.1562C61.7005 33.8281 61.8828 34.6484 61.8828 35.6172ZM55.8438 35.6172C55.8438 36.1901 55.9062 36.6719 56.0312 37.0625C56.1562 37.4531 56.3516 37.7474 56.6172 37.9453C56.8828 38.1432 57.2292 38.2422 57.6562 38.2422C58.0781 38.2422 58.4193 38.1432 58.6797 37.9453C58.9453 37.7474 59.138 37.4531 59.2578 37.0625C59.3828 36.6719 59.4453 36.1901 59.4453 35.6172C59.4453 35.0391 59.3828 34.5599 59.2578 34.1797C59.138 33.7943 58.9453 33.5052 58.6797 33.3125C58.4141 33.1198 58.0677 33.0234 57.6406 33.0234C57.0104 33.0234 56.5521 33.2396 56.2656 33.6719C55.9844 34.1042 55.8438 34.7526 55.8438 35.6172ZM67.5312 38.2578C67.7917 38.2578 68.0443 38.2318 68.2891 38.1797C68.5391 38.1276 68.7865 38.0625 69.0312 37.9844V39.7578C68.776 39.8724 68.4583 39.9661 68.0781 40.0391C67.7031 40.1172 67.2917 40.1562 66.8438 40.1562C66.3229 40.1562 65.8542 40.0729 65.4375 39.9062C65.026 39.7344 64.7005 39.4401 64.4609 39.0234C64.2266 38.6016 64.1094 38.0156 64.1094 37.2656V33.0547H62.9688V32.0469L64.2812 31.25L64.9688 29.4062H66.4922V31.2656H68.9375V33.0547H66.4922V37.2656C66.4922 37.599 66.5859 37.849 66.7734 38.0156C66.9661 38.1771 67.2188 38.2578 67.5312 38.2578ZM74.4062 31.1016C75.2135 31.1016 75.9089 31.2578 76.4922 31.5703C77.0755 31.8776 77.526 32.3255 77.8438 32.9141C78.1615 33.5026 78.3203 34.2214 78.3203 35.0703V36.2266H72.6875C72.7135 36.8984 72.9141 37.4271 73.2891 37.8125C73.6693 38.1927 74.1953 38.3828 74.8672 38.3828C75.4245 38.3828 75.9349 38.3255 76.3984 38.2109C76.862 38.0964 77.3385 37.9245 77.8281 37.6953V39.5391C77.3958 39.7526 76.9427 39.9089 76.4688 40.0078C76 40.1068 75.4297 40.1562 74.7578 40.1562C73.8828 40.1562 73.1068 39.9948 72.4297 39.6719C71.7578 39.349 71.2292 38.8568 70.8438 38.1953C70.4635 37.5339 70.2734 36.7005 70.2734 35.6953C70.2734 34.6745 70.4453 33.8255 70.7891 33.1484C71.138 32.4661 71.6224 31.9557 72.2422 31.6172C72.862 31.2734 73.5833 31.1016 74.4062 31.1016ZM74.4219 32.7969C73.9583 32.7969 73.5729 32.9453 73.2656 33.2422C72.9635 33.5391 72.7891 34.0052 72.7422 34.6406H76.0859C76.0807 34.2865 76.0156 33.9714 75.8906 33.6953C75.7708 33.4193 75.5885 33.2005 75.3438 33.0391C75.1042 32.8776 74.7969 32.7969 74.4219 32.7969ZM83.8047 40.1562C82.9401 40.1562 82.2031 40 81.5938 39.6875C80.9844 39.3698 80.5208 38.8802 80.2031 38.2188C79.8854 37.5573 79.7266 36.7109 79.7266 35.6797C79.7266 34.612 79.9062 33.7422 80.2656 33.0703C80.6302 32.3932 81.1328 31.8958 81.7734 31.5781C82.4193 31.2604 83.1667 31.1016 84.0156 31.1016C84.6198 31.1016 85.1406 31.1615 85.5781 31.2812C86.0208 31.3958 86.4062 31.5339 86.7344 31.6953L86.0312 33.5391C85.6562 33.388 85.3073 33.2656 84.9844 33.1719C84.6615 33.0729 84.3385 33.0234 84.0156 33.0234C83.599 33.0234 83.2526 33.1224 82.9766 33.3203C82.7005 33.513 82.4948 33.8047 82.3594 34.1953C82.224 34.5859 82.1562 35.0755 82.1562 35.6641C82.1562 36.2422 82.2292 36.7214 82.375 37.1016C82.5208 37.4818 82.7318 37.7656 83.0078 37.9531C83.2839 38.1354 83.6198 38.2266 84.0156 38.2266C84.5104 38.2266 84.9505 38.1615 85.3359 38.0312C85.7214 37.8958 86.0964 37.7083 86.4609 37.4688V39.5078C86.0964 39.737 85.7135 39.901 85.3125 40C84.9167 40.1042 84.4141 40.1562 83.8047 40.1562ZM90.875 27.8438V30.3203C90.875 30.7526 90.8594 31.1641 90.8281 31.5547C90.8021 31.9453 90.7812 32.2214 90.7656 32.3828H90.8906C91.0781 32.0807 91.2995 31.8359 91.5547 31.6484C91.8151 31.4609 92.1016 31.3229 92.4141 31.2344C92.7266 31.1458 93.0625 31.1016 93.4219 31.1016C94.0521 31.1016 94.6016 31.2135 95.0703 31.4375C95.5391 31.6562 95.9036 32.0026 96.1641 32.4766C96.4245 32.9453 96.5547 33.5547 96.5547 34.3047V40H94.1719V34.8984C94.1719 34.2734 94.0573 33.8021 93.8281 33.4844C93.599 33.1667 93.2448 33.0078 92.7656 33.0078C92.2865 33.0078 91.9089 33.1198 91.6328 33.3438C91.3568 33.5625 91.1615 33.888 91.0469 34.3203C90.9323 34.7474 90.875 35.2708 90.875 35.8906V40H88.4922V27.8438H90.875ZM103.969 31.1016C104.901 31.1016 105.651 31.3568 106.219 31.8672C106.786 32.3724 107.07 33.1849 107.07 34.3047V40H104.688V34.8984C104.688 34.2734 104.573 33.8021 104.344 33.4844C104.12 33.1667 103.766 33.0078 103.281 33.0078C102.552 33.0078 102.055 33.2552 101.789 33.75C101.523 34.2448 101.391 34.9583 101.391 35.8906V40H99.0078V31.2656H100.828L101.148 32.3828H101.281C101.469 32.0807 101.701 31.8359 101.977 31.6484C102.258 31.4609 102.568 31.3229 102.906 31.2344C103.25 31.1458 103.604 31.1016 103.969 31.1016ZM111.906 31.2656V40H109.523V31.2656H111.906ZM110.719 27.8438C111.073 27.8438 111.378 27.9271 111.633 28.0938C111.888 28.2552 112.016 28.5599 112.016 29.0078C112.016 29.4505 111.888 29.7578 111.633 29.9297C111.378 30.0964 111.073 30.1797 110.719 30.1797C110.359 30.1797 110.052 30.0964 109.797 29.9297C109.547 29.7578 109.422 29.4505 109.422 29.0078C109.422 28.5599 109.547 28.2552 109.797 28.0938C110.052 27.9271 110.359 27.8438 110.719 27.8438ZM117.961 40.1562C117.096 40.1562 116.359 40 115.75 39.6875C115.141 39.3698 114.677 38.8802 114.359 38.2188C114.042 37.5573 113.883 36.7109 113.883 35.6797C113.883 34.612 114.062 33.7422 114.422 33.0703C114.786 32.3932 115.289 31.8958 115.93 31.5781C116.576 31.2604 117.323 31.1016 118.172 31.1016C118.776 31.1016 119.297 31.1615 119.734 31.2812C120.177 31.3958 120.562 31.5339 120.891 31.6953L120.188 33.5391C119.812 33.388 119.464 33.2656 119.141 33.1719C118.818 33.0729 118.495 33.0234 118.172 33.0234C117.755 33.0234 117.409 33.1224 117.133 33.3203C116.857 33.513 116.651 33.8047 116.516 34.1953C116.38 34.5859 116.312 35.0755 116.312 35.6641C116.312 36.2422 116.385 36.7214 116.531 37.1016C116.677 37.4818 116.888 37.7656 117.164 37.9531C117.44 38.1354 117.776 38.2266 118.172 38.2266C118.667 38.2266 119.107 38.1615 119.492 38.0312C119.878 37.8958 120.253 37.7083 120.617 37.4688V39.5078C120.253 39.737 119.87 39.901 119.469 40C119.073 40.1042 118.57 40.1562 117.961 40.1562ZM128.742 37.4062C128.742 38 128.602 38.5026 128.32 38.9141C128.044 39.3203 127.63 39.6302 127.078 39.8438C126.526 40.0521 125.839 40.1562 125.016 40.1562C124.406 40.1562 123.883 40.1172 123.445 40.0391C123.013 39.9609 122.576 39.8307 122.133 39.6484V37.6797C122.607 37.8932 123.115 38.0703 123.656 38.2109C124.203 38.3464 124.682 38.4141 125.094 38.4141C125.557 38.4141 125.888 38.3464 126.086 38.2109C126.289 38.0703 126.391 37.888 126.391 37.6641C126.391 37.5182 126.349 37.388 126.266 37.2734C126.188 37.1536 126.016 37.0208 125.75 36.875C125.484 36.724 125.068 36.5286 124.5 36.2891C123.953 36.0599 123.503 35.8281 123.148 35.5938C122.799 35.3594 122.539 35.0833 122.367 34.7656C122.201 34.4427 122.117 34.0339 122.117 33.5391C122.117 32.7318 122.43 32.125 123.055 31.7188C123.685 31.3073 124.526 31.1016 125.578 31.1016C126.12 31.1016 126.635 31.1562 127.125 31.2656C127.62 31.375 128.128 31.5495 128.648 31.7891L127.93 33.5078C127.497 33.3203 127.089 33.1667 126.703 33.0469C126.323 32.9271 125.935 32.8672 125.539 32.8672C125.19 32.8672 124.927 32.9141 124.75 33.0078C124.573 33.1016 124.484 33.2448 124.484 33.4375C124.484 33.5781 124.529 33.7031 124.617 33.8125C124.711 33.9219 124.888 34.0443 125.148 34.1797C125.414 34.3099 125.802 34.4792 126.312 34.6875C126.807 34.8906 127.237 35.1042 127.602 35.3281C127.966 35.5469 128.247 35.8203 128.445 36.1484C128.643 36.4714 128.742 36.8906 128.742 37.4062Z" fill="white"/>
<path d="M127.338 57C121.629 57 117 61.5805 117 67.2308C117 72.8811 121.629 77.4615 127.338 77.4615H128.28L124.255 85L135.364 77.4615H143.662C149.371 77.4615 154 72.8811 154 67.2308C154 61.5805 149.371 57 143.662 57H127.338Z" fill="#458CBA"/>
<path d="M129 67.5C129 66.9471 129.146 66.5588 129.437 66.3353C129.734 66.1118 130.09 66 130.507 66C130.913 66 131.261 66.1118 131.552 66.3353C131.849 66.5588 131.997 66.9471 131.997 67.5C131.997 68.0294 131.849 68.4118 131.552 68.6471C131.261 68.8824 130.913 69 130.507 69C130.09 69 129.734 68.8824 129.437 68.6471C129.146 68.4118 129 68.0294 129 67.5Z" fill="white"/>
<path d="M134.001 67.5C134.001 66.9471 134.147 66.5588 134.438 66.3353C134.735 66.1118 135.092 66 135.509 66C135.914 66 136.262 66.1118 136.553 66.3353C136.85 66.5588 136.999 66.9471 136.999 67.5C136.999 68.0294 136.85 68.4118 136.553 68.6471C136.262 68.8824 135.914 69 135.509 69C135.092 69 134.735 68.8824 134.438 68.6471C134.147 68.4118 134.001 68.0294 134.001 67.5Z" fill="white"/>
<path d="M139.003 67.5C139.003 66.9471 139.148 66.5588 139.439 66.3353C139.736 66.1118 140.093 66 140.51 66C140.915 66 141.264 66.1118 141.555 66.3353C141.852 66.5588 142 66.9471 142 67.5C142 68.0294 141.852 68.4118 141.555 68.6471C141.264 68.8824 140.915 69 140.51 69C140.093 69 139.736 68.8824 139.439 68.6471C139.148 68.4118 139.003 68.0294 139.003 67.5Z" fill="white"/>
<rect x="21.9189" y="143.061" width="28" height="8" rx="3.75" transform="rotate(-41.8055 21.9189 143.061)" fill="#1F1F1F" stroke="#1F1F1F" stroke-width="0.5"/>
<path d="M14.7871 191.728C13.7682 188.404 8.53935 178.189 14.6578 162.223C19.5527 149.45 30.2286 140.026 34.9548 136.911" stroke="#1F1F1F" stroke-width="2"/>
<path d="M98.2755 86.2474L100.704 76.2284C100.815 75.774 100.443 75.3471 99.9776 75.3936L81.0224 77.2891L61.7786 76.9573L45.4586 75.3881C44.9988 75.3439 44.6302 75.7622 44.732 76.2127L46.848 85.5838L52.1567 92.5514L46.848 109.473L58.4607 118.763L69.7416 114.45L87.99 135.021L97.6119 152.937L98.2755 245.838H117.188L117.188 199.056L119.066 193.421C119.667 191.617 122.193 191.549 122.89 193.318L125.15 199.056L129.132 245.838H148.376L149.703 196.734L153.617 190.747C154.426 189.51 156.243 189.521 157.037 190.769L162.311 199.056L163.638 245.838H181.555V199.056L171.933 167.536L147.712 152.605L117.188 131.039L91.9715 91.2243L98.2755 86.2474Z" fill="#FC7E24"/>
<path fill-rule="evenodd" clip-rule="evenodd" d="M100.64 76.4929L98.2754 86.2474L91.9714 91.2242L103.618 109.614L97.9442 112.89V126.796L109.988 133.749L116.517 129.98L117.187 131.039L147.712 152.605L151.74 155.088L146.108 158.34V172.246L158.151 179.2L170.195 172.246V166.464L171.933 167.536L181.555 199.056V245.838H163.638L162.311 199.056L157.519 191.526C156.499 189.923 154.165 189.909 153.126 191.499L151.471 194.03L144.584 190.054L132.541 197.007V210.913L144.584 217.866L149.204 215.199L148.376 245.838H129.132L125.15 199.056L123.474 194.801C122.579 192.529 119.334 192.615 118.562 194.932L117.187 199.056V245.838H98.2754L97.6118 152.937L87.9899 135.02L82.2876 128.592L85.399 126.796V112.89L73.3557 105.936L61.3124 112.89V117.672L58.4606 118.763L46.8479 109.473L52.1566 92.5514L46.8479 85.5838L44.7906 76.4728C44.6599 75.894 45.1333 75.3567 45.724 75.4135L61.7785 76.9572L81.0223 77.289L99.7066 75.4206C100.304 75.3608 100.782 75.9093 100.64 76.4929ZM122.031 164.445L109.988 157.492L97.9442 164.445V178.351L109.988 185.305L122.031 178.351V164.445Z" fill="#FEC955"/>
<path fill-rule="evenodd" clip-rule="evenodd" d="M47.9982 78.3585L49.3646 84.4098L55.166 92.0241L49.9927 108.514L58.9426 115.674L70.5257 111.245L90.2304 133.457L100.32 152.246L100.97 243.125H114.474L114.474 198.616L116.492 192.563C117.895 188.354 123.789 188.197 125.415 192.324L127.82 198.431L131.624 243.125H145.735L147.011 195.892L151.346 189.263C153.234 186.375 157.474 186.401 159.326 189.312L165.002 198.231L166.276 243.125H178.841V199.461L169.637 169.308L146.216 154.871L115.183 132.945L88.3705 90.6102L95.859 84.6982L97.3908 78.3795L81.1343 80.0051L61.6251 79.6688L47.9982 78.3585ZM42.0851 76.8107C41.5764 74.5577 43.4192 72.4663 45.7183 72.6873L61.932 74.2463L80.9104 74.5736L99.7075 72.6938C102.034 72.4612 103.892 74.5961 103.341 76.8679L100.692 87.7971L95.5724 91.8388L119.192 129.133L149.208 150.34L174.229 165.764L184.268 198.651V248.552H161.001L159.62 199.882L155.312 193.113L152.395 197.575L151.017 248.552H126.64L122.48 199.682L121.05 196.05L119.901 199.497L119.901 248.552H95.5813L94.9033 153.629L85.7495 136.584L68.9573 117.655L57.9786 121.852L43.7032 110.432L49.1473 93.0792L44.3314 86.7584L42.0851 76.8107Z" fill="#333333"/>
<path d="M59.1043 66.9626L63.127 64.6401L69.7628 76.1337L65.7401 78.4562L59.1043 66.9626Z" fill="#333333"/>
<path d="M84.3103 67.0354L80.2876 64.7129L73.6518 76.2064L77.6745 78.5289L84.3103 67.0354Z" fill="#333333"/>
<path d="M60.6806 53.1357L65.0724 57.2856L63.5856 62.9326L57.707 64.4298L53.3151 60.28L54.802 54.6329L60.6806 53.1357Z" fill="#F2C94C"/>
<path d="M82.1015 53.1147L87.793 54.6251L89.318 60.2622L85.1516 64.3888L79.4601 62.8783L77.935 57.2413L82.1015 53.1147Z" fill="#F2C94C"/>
<path fill-rule="evenodd" clip-rule="evenodd" d="M61.7141 49.0527L69.1388 56.1278L66.5635 65.9918L56.6252 68.5444L49.2005 61.4693L51.7758 51.6053L61.7141 49.0527ZM81.0338 49L90.8124 51.6171L93.4326 61.3843L86.2742 68.5343L76.4956 65.9172L73.8754 56.1501L81.0338 49ZM54.7686 54.6047L60.6596 53.0916L65.0607 57.2855L63.5708 62.9924L57.6797 64.5055L53.2786 60.3116L54.7686 54.6047ZM79.4787 62.9375L85.1823 64.464L89.3575 60.2936L87.8293 54.5968L82.1257 53.0703L77.9505 57.2407L79.4787 62.9375Z" fill="#353535"/>
<ellipse opacity="0.5" cx="6" cy="5.5" rx="6" ry="5.5" transform="matrix(-1 0 0 1 78.2682 87)" fill="#D9D9D9"/>
<path d="M73.0209 89.4603C70.7569 89.3536 69.4165 91.2683 69.7233 93.1151" stroke="white" stroke-width="1.125" stroke-linecap="round"/>
<ellipse opacity="0.5" cx="4.5" cy="5" rx="4.5" ry="5" transform="matrix(-1 0 0 1 55 86)" fill="#D9D9D9"/>
<path d="M51.0947 89.2504C50.0226 89.1132 48.9529 90.1829 49.0913 91.4027" stroke="white" stroke-linecap="round"/>
<path d="M65.6272 91.1394L64.875 90.8051C62.2894 89.6559 59.3379 89.6559 56.7522 90.8051L56 91.1394" stroke="#5C2905" stroke-width="2" stroke-linecap="round"/>
<rect x="-1" y="1" width="9" height="10" rx="4.5" transform="matrix(-1 0 0 1 54 85)" stroke="#5C2905" stroke-width="2"/>
<rect x="-1" y="1" width="11.9059" height="11.9059" rx="5.75" transform="matrix(-1 0 0 1 77.4389 85.3693)" stroke="#5C2905" stroke-width="2"/>
</g>
<defs>
<clipPath id="clip0_8114_966">
<rect width="160" height="160" rx="8" fill="white"/>
</clipPath>
</defs>
</svg>
