<svg width="900" height="350" viewBox="0 0 900 350" fill="none" xmlns="http://www.w3.org/2000/svg">
<g clip-path="url(#clip0_11361_1234)">
<rect width="900" height="350" fill="#79BFB5"/>
<path d="M613.585 -6.30343C613.871 -7.23219 615.129 -7.23219 615.415 -6.30343L616.754 -1.96272C616.883 -1.54678 617.253 -1.2652 617.671 -1.26616L622.035 -1.27613C622.968 -1.27826 623.357 -0.0285478 622.6 0.543321L619.065 3.21606C618.726 3.47217 618.584 3.92778 618.714 4.34312L620.072 8.67768C620.362 9.60511 619.345 10.3775 618.591 9.80216L615.067 7.11329C614.729 6.85563 614.271 6.85563 613.933 7.11329L610.409 9.80216C609.655 10.3775 608.638 9.60511 608.928 8.67768L610.286 4.34312C610.416 3.92778 610.274 3.47217 609.935 3.21606L606.4 0.543321C605.643 -0.0285478 606.032 -1.27826 606.965 -1.27613L611.329 -1.26616C611.747 -1.2652 612.117 -1.54678 612.246 -1.96272L613.585 -6.30343Z" fill="white"/>
<path d="M288.8 140.533C289.019 139.822 289.981 139.822 290.2 140.533L291.224 143.852C291.322 144.17 291.606 144.385 291.925 144.385L295.262 144.377C295.976 144.375 296.273 145.331 295.694 145.768L292.991 147.812C292.732 148.008 292.623 148.357 292.723 148.674L293.761 151.989C293.983 152.698 293.205 153.289 292.628 152.849L289.933 150.793C289.675 150.595 289.325 150.595 289.067 150.793L286.372 152.849C285.795 153.289 285.017 152.698 285.239 151.989L286.277 148.674C286.377 148.357 286.268 148.008 286.009 147.812L283.306 145.768C282.727 145.331 283.024 144.375 283.738 144.377L287.075 144.385C287.394 144.385 287.678 144.17 287.776 143.852L288.8 140.533Z" fill="white"/>
<path d="M843.139 260.656C843.408 259.781 844.592 259.781 844.861 260.656L846.122 264.741C846.242 265.132 846.591 265.397 846.985 265.397L851.091 265.387C851.97 265.385 852.336 266.561 851.624 267.1L848.296 269.615C847.977 269.856 847.844 270.285 847.966 270.676L849.244 274.755C849.517 275.628 848.56 276.355 847.85 275.814L844.533 273.283C844.216 273.041 843.784 273.041 843.467 273.283L840.15 275.814C839.44 276.355 838.483 275.628 838.756 274.755L840.034 270.676C840.156 270.285 840.023 269.856 839.704 269.615L836.376 267.1C835.664 266.561 836.03 265.385 836.909 265.387L841.015 265.397C841.409 265.397 841.758 265.132 841.878 264.741L843.139 260.656Z" fill="white"/>
<path d="M758.939 32.1063C759.428 30.6312 761.572 30.6312 762.061 32.1063L764.346 39.0004C764.564 39.661 765.197 40.1082 765.91 40.1067L773.353 40.0909C774.946 40.0875 775.608 42.0723 774.318 42.9806L768.287 47.2255C767.709 47.6323 767.467 48.3559 767.689 49.0156L770.005 55.8998C770.5 57.3728 768.765 58.5995 767.479 57.6858L761.467 53.4152C760.891 53.006 760.109 53.006 759.533 53.4152L753.521 57.6858C752.235 58.5995 750.5 57.3728 750.995 55.8998L753.311 49.0156C753.533 48.3559 753.291 47.6323 752.713 47.2255L746.682 42.9806C745.392 42.0723 746.054 40.0875 747.647 40.0909L755.09 40.1067C755.803 40.1082 756.436 39.661 756.654 39.0004L758.939 32.1063Z" fill="white"/>
<path d="M695.031 156.697C695.335 155.768 696.665 155.768 696.969 156.697L698.387 161.037C698.523 161.453 698.915 161.735 699.358 161.734L703.978 161.724C704.966 161.722 705.378 162.971 704.577 163.543L700.833 166.216C700.474 166.472 700.325 166.928 700.462 167.343L701.899 171.678C702.207 172.605 701.13 173.377 700.332 172.802L696.6 170.113C696.243 169.856 695.757 169.856 695.4 170.113L691.668 172.802C690.87 173.377 689.793 172.605 690.101 171.678L691.538 167.343C691.675 166.928 691.526 166.472 691.167 166.216L687.423 163.543C686.622 162.971 687.034 161.722 688.022 161.724L692.642 161.734C693.085 161.735 693.477 161.453 693.613 161.037L695.031 156.697Z" fill="white"/>
<path d="M217.585 293.697C217.871 292.768 219.129 292.768 219.415 293.697L220.754 298.037C220.883 298.453 221.253 298.735 221.671 298.734L226.035 298.724C226.968 298.722 227.357 299.971 226.6 300.543L223.065 303.216C222.726 303.472 222.584 303.928 222.714 304.343L224.072 308.678C224.362 309.605 223.345 310.377 222.591 309.802L219.067 307.113C218.729 306.856 218.271 306.856 217.933 307.113L214.409 309.802C213.655 310.377 212.638 309.605 212.928 308.678L214.286 304.343C214.416 303.928 214.274 303.472 213.935 303.216L210.4 300.543C209.643 299.971 210.032 298.722 210.965 298.724L215.329 298.734C215.747 298.735 216.117 298.453 216.246 298.037L217.585 293.697Z" fill="white"/>
<path d="M406.031 54.6966C406.335 53.7678 407.665 53.7678 407.969 54.6966L409.387 59.0373C409.523 59.4532 409.915 59.7348 410.358 59.7338L414.978 59.7239C415.966 59.7217 416.378 60.9715 415.577 61.5433L411.833 64.2161C411.474 64.4722 411.325 64.9278 411.462 65.3431L412.899 69.6777C413.207 70.6051 412.13 71.3775 411.332 70.8022L407.6 68.1133C407.243 67.8556 406.757 67.8556 406.4 68.1133L402.668 70.8022C401.87 71.3775 400.793 70.6051 401.101 69.6777L402.538 65.3431C402.675 64.9278 402.526 64.4722 402.167 64.2161L398.423 61.5433C397.622 60.9715 398.034 59.7217 399.022 59.7239L403.642 59.7338C404.085 59.7348 404.477 59.4532 404.613 59.0373L406.031 54.6966Z" fill="white"/>
<path opacity="0.5" d="M905.171 152L742.651 291.212" stroke="white" stroke-width="10" stroke-linecap="round"/>
<path opacity="0.5" d="M385.906 301.426L223.386 440.638" stroke="white" stroke-width="10" stroke-linecap="round"/>
<path opacity="0.5" d="M986.171 10.0001L823.651 149.212" stroke="white" stroke-width="10" stroke-linecap="round"/>
<path opacity="0.5" d="M566.171 -29.9999L403.651 109.212" stroke="white" stroke-width="10" stroke-linecap="round"/>
<path opacity="0.5" d="M76.171 249L-86.3491 388.212" stroke="white" stroke-width="10" stroke-linecap="round"/>
<path d="M148.303 21.5849C149.232 21.8715 149.232 23.1285 148.303 23.4151L143.963 24.7543C143.547 24.8826 143.265 25.2534 143.266 25.6714L143.276 30.0346C143.278 30.9681 142.029 31.3566 141.457 30.6001L138.784 27.0647C138.528 26.7259 138.072 26.5843 137.657 26.7143L133.322 28.0717C132.395 28.3621 131.623 27.3451 132.198 26.5911L134.887 23.0668C135.144 22.7291 135.144 22.2709 134.887 21.9332L132.198 18.4089C131.623 17.6549 132.395 16.6379 133.322 16.9283L137.657 18.2857C138.072 18.4157 138.528 18.2741 138.784 17.9353L141.457 14.3999C142.029 13.6434 143.278 14.0319 143.276 14.9654L143.266 19.3286C143.265 19.7466 143.547 20.1174 143.963 20.2457L148.303 21.5849Z" fill="white"/>
<path d="M54.9756 193.6C56.3415 194.039 56.3415 195.961 54.9756 196.4L48.5922 198.448C47.9806 198.644 47.5665 199.211 47.5679 199.85L47.5825 206.523C47.5857 207.951 45.7479 208.545 44.9069 207.388L40.9764 201.981C40.5997 201.463 39.9297 201.247 39.3189 201.445L32.9446 203.521C31.5807 203.966 30.4449 202.41 31.2909 201.257L35.2452 195.867C35.6241 195.35 35.6241 194.65 35.2452 194.133L31.2909 188.743C30.4449 187.59 31.5807 186.034 32.9446 186.479L39.3189 188.555C39.9297 188.753 40.5997 188.537 40.9764 188.019L44.9069 182.612C45.7479 181.455 47.5857 182.049 47.5825 183.477L47.5679 190.15C47.5665 190.789 47.9806 191.356 48.5922 191.552L54.9756 193.6Z" fill="white"/>
</g>
<defs>
<clipPath id="clip0_11361_1234">
<rect width="900" height="350" fill="white"/>
</clipPath>
</defs>
</svg>
