<svg width="900" height="350" viewBox="0 0 900 350" fill="none" xmlns="http://www.w3.org/2000/svg">
<g clip-path="url(#clip0_34815_2359)">
<rect width="900" height="350" fill="#D1E3FA"/>
<g opacity="0.2">
<g opacity="0.6">
<path fill-rule="evenodd" clip-rule="evenodd" d="M400.716 32.7306C400.834 32.8421 400.844 33.0336 400.738 33.1582L394.9 40.0448L386.52 38.6367L382.034 46.0409C381.948 46.1818 381.771 46.2229 381.638 46.1327C381.504 46.0425 381.465 45.8552 381.551 45.7144L386.239 37.9762L394.681 39.3947L400.311 32.7541C400.417 32.6295 400.598 32.619 400.716 32.7306Z" fill="#002740"/>
<path fill-rule="evenodd" clip-rule="evenodd" d="M376.153 27C376.417 27 376.631 27.226 376.631 27.5047V53.5495H401.672C401.935 53.5495 402.149 53.7755 402.149 54.0543C402.149 54.3331 401.935 54.559 401.672 54.559H375.675V27.5047C375.675 27.226 375.889 27 376.153 27Z" fill="#002740"/>
<path d="M383.034 45.7767C383.034 46.5015 382.478 47.089 381.792 47.089C381.106 47.089 380.549 46.5015 380.549 45.7767C380.549 45.0519 381.106 44.4644 381.792 44.4644C382.478 44.4644 383.034 45.0519 383.034 45.7767Z" fill="#002740"/>
<path d="M387.622 38.3065C387.622 39.0313 387.066 39.6188 386.38 39.6188C385.693 39.6188 385.137 39.0313 385.137 38.3065C385.137 37.5817 385.693 36.9941 386.38 36.9941C387.066 36.9941 387.622 37.5817 387.622 38.3065Z" fill="#002740"/>
<path d="M396.033 39.5174C396.033 40.2422 395.477 40.8297 394.79 40.8297C394.104 40.8297 393.548 40.2422 393.548 39.5174C393.548 38.7926 394.104 38.2051 394.79 38.2051C395.477 38.2051 396.033 38.7926 396.033 39.5174Z" fill="#002740"/>
<path d="M401.576 32.8553C401.576 33.5801 401.02 34.1676 400.334 34.1676C399.648 34.1676 399.091 33.5801 399.091 32.8553C399.091 32.1305 399.648 31.543 400.334 31.543C401.02 31.543 401.576 32.1305 401.576 32.8553Z" fill="#002740"/>
</g>
<g opacity="0.6">
<path fill-rule="evenodd" clip-rule="evenodd" d="M488.764 32.7301C488.882 32.8417 488.892 33.0331 488.787 33.1577L482.948 40.0443L474.568 38.6362L470.082 46.0404C469.997 46.1813 469.819 46.2224 469.686 46.1322C469.553 46.0421 469.514 45.8548 469.599 45.7139L474.288 37.9757L482.729 39.3942L488.359 32.7536C488.465 32.629 488.646 32.6185 488.764 32.7301Z" fill="#002740"/>
<path fill-rule="evenodd" clip-rule="evenodd" d="M464.202 27C464.466 27 464.68 27.226 464.68 27.5047V53.5495H489.72C489.984 53.5495 490.198 53.7755 490.198 54.0543C490.198 54.3331 489.984 54.559 489.72 54.559H463.724V27.5047C463.724 27.226 463.938 27 464.202 27Z" fill="#002740"/>
<path d="M471.083 45.7767C471.083 46.5015 470.527 47.089 469.841 47.089C469.154 47.089 468.598 46.5015 468.598 45.7767C468.598 45.0519 469.154 44.4644 469.841 44.4644C470.527 44.4644 471.083 45.0519 471.083 45.7767Z" fill="#002740"/>
<path d="M475.671 38.3065C475.671 39.0313 475.115 39.6188 474.429 39.6188C473.742 39.6188 473.186 39.0313 473.186 38.3065C473.186 37.5817 473.742 36.9941 474.429 36.9941C475.115 36.9941 475.671 37.5817 475.671 38.3065Z" fill="#002740"/>
<path d="M484.082 39.5174C484.082 40.2422 483.525 40.8297 482.839 40.8297C482.153 40.8297 481.597 40.2422 481.597 39.5174C481.597 38.7926 482.153 38.2051 482.839 38.2051C483.525 38.2051 484.082 38.7926 484.082 39.5174Z" fill="#002740"/>
<path d="M489.625 32.8548C489.625 33.5796 489.068 34.1672 488.382 34.1672C487.696 34.1672 487.14 33.5796 487.14 32.8548C487.14 32.13 487.696 31.5425 488.382 31.5425C489.068 31.5425 489.625 32.13 489.625 32.8548Z" fill="#002740"/>
</g>
<g opacity="0.6">
<path fill-rule="evenodd" clip-rule="evenodd" d="M576.813 32.7306C576.931 32.8421 576.941 33.0336 576.836 33.1582L570.997 40.0448L562.617 38.6367L558.131 46.0409C558.045 46.1818 557.868 46.2229 557.735 46.1327C557.601 46.0425 557.562 45.8552 557.648 45.7144L562.337 37.9762L570.778 39.3947L576.408 32.7541C576.514 32.6295 576.695 32.619 576.813 32.7306Z" fill="#002740"/>
<path fill-rule="evenodd" clip-rule="evenodd" d="M552.251 27C552.515 27 552.729 27.226 552.729 27.5047V53.5495H577.769C578.033 53.5495 578.247 53.7755 578.247 54.0543C578.247 54.3331 578.033 54.559 577.769 54.559H551.773V27.5047C551.773 27.226 551.987 27 552.251 27Z" fill="#002740"/>
<path d="M559.132 45.7767C559.132 46.5015 558.576 47.089 557.889 47.089C557.203 47.089 556.647 46.5015 556.647 45.7767C556.647 45.0519 557.203 44.4644 557.889 44.4644C558.576 44.4644 559.132 45.0519 559.132 45.7767Z" fill="#002740"/>
<path d="M563.719 38.3065C563.719 39.0313 563.163 39.6188 562.477 39.6188C561.791 39.6188 561.234 39.0313 561.234 38.3065C561.234 37.5817 561.791 36.9941 562.477 36.9941C563.163 36.9941 563.719 37.5817 563.719 38.3065Z" fill="#002740"/>
<path d="M572.13 39.5174C572.13 40.2422 571.574 40.8297 570.887 40.8297C570.201 40.8297 569.645 40.2422 569.645 39.5174C569.645 38.7926 570.201 38.2051 570.887 38.2051C571.574 38.2051 572.13 38.7926 572.13 39.5174Z" fill="#002740"/>
<path d="M577.673 32.8553C577.673 33.5801 577.117 34.1676 576.431 34.1676C575.745 34.1676 575.188 33.5801 575.188 32.8553C575.188 32.1305 575.745 31.543 576.431 31.543C577.117 31.543 577.673 32.1305 577.673 32.8553Z" fill="#002740"/>
</g>
<g opacity="0.6">
<path fill-rule="evenodd" clip-rule="evenodd" d="M664.863 32.7301C664.98 32.8417 664.99 33.0331 664.885 33.1577L659.046 40.0443L650.667 38.6362L646.18 46.0404C646.095 46.1813 645.917 46.2224 645.784 46.1322C645.651 46.0421 645.612 45.8548 645.697 45.7139L650.386 37.9757L658.827 39.3942L664.458 32.7536C664.563 32.629 664.745 32.6185 664.863 32.7301Z" fill="#002740"/>
<path fill-rule="evenodd" clip-rule="evenodd" d="M640.3 27C640.564 27 640.778 27.226 640.778 27.5047V53.5495H665.818C666.082 53.5495 666.296 53.7755 666.296 54.0543C666.296 54.3331 666.082 54.559 665.818 54.559H639.822V27.5047C639.822 27.226 640.036 27 640.3 27Z" fill="#002740"/>
<path d="M647.181 45.7767C647.181 46.5015 646.624 47.089 645.938 47.089C645.252 47.089 644.696 46.5015 644.696 45.7767C644.696 45.0519 645.252 44.4644 645.938 44.4644C646.624 44.4644 647.181 45.0519 647.181 45.7767Z" fill="#002740"/>
<path d="M651.769 38.3065C651.769 39.0313 651.212 39.6188 650.526 39.6188C649.84 39.6188 649.284 39.0313 649.284 38.3065C649.284 37.5817 649.84 36.9941 650.526 36.9941C651.212 36.9941 651.769 37.5817 651.769 38.3065Z" fill="#002740"/>
<path d="M660.179 39.5179C660.179 40.2427 659.623 40.8302 658.937 40.8302C658.251 40.8302 657.694 40.2427 657.694 39.5179C657.694 38.7931 658.251 38.2056 658.937 38.2056C659.623 38.2056 660.179 38.7931 660.179 39.5179Z" fill="#002740"/>
<path d="M665.723 32.8553C665.723 33.5801 665.166 34.1676 664.48 34.1676C663.794 34.1676 663.238 33.5801 663.238 32.8553C663.238 32.1305 663.794 31.543 664.48 31.543C665.166 31.543 665.723 32.1305 665.723 32.8553Z" fill="#002740"/>
</g>
<g opacity="0.6">
<path fill-rule="evenodd" clip-rule="evenodd" d="M752.911 32.7306C753.029 32.8421 753.039 33.0336 752.933 33.1582L747.094 40.0448L738.715 38.6367L734.228 46.0409C734.143 46.1818 733.966 46.2229 733.832 46.1327C733.699 46.0425 733.66 45.8552 733.745 45.7144L738.434 37.9762L746.876 39.3947L752.506 32.7541C752.612 32.6295 752.793 32.619 752.911 32.7306Z" fill="#002740"/>
<path fill-rule="evenodd" clip-rule="evenodd" d="M728.348 27C728.612 27 728.826 27.226 728.826 27.5047V53.5495H753.867C754.131 53.5495 754.345 53.7755 754.345 54.0543C754.345 54.3331 754.131 54.559 753.867 54.559H727.871V27.5047C727.871 27.226 728.085 27 728.348 27Z" fill="#002740"/>
<path d="M735.23 45.7767C735.23 46.5015 734.673 47.089 733.987 47.089C733.301 47.089 732.745 46.5015 732.745 45.7767C732.745 45.0519 733.301 44.4644 733.987 44.4644C734.673 44.4644 735.23 45.0519 735.23 45.7767Z" fill="#002740"/>
<path d="M739.817 38.3065C739.817 39.0313 739.261 39.6188 738.575 39.6188C737.888 39.6188 737.332 39.0313 737.332 38.3065C737.332 37.5817 737.888 36.9941 738.575 36.9941C739.261 36.9941 739.817 37.5817 739.817 38.3065Z" fill="#002740"/>
<path d="M748.228 39.5174C748.228 40.2422 747.672 40.8297 746.986 40.8297C746.299 40.8297 745.743 40.2422 745.743 39.5174C745.743 38.7926 746.299 38.2051 746.986 38.2051C747.672 38.2051 748.228 38.7926 748.228 39.5174Z" fill="#002740"/>
<path d="M753.771 32.8553C753.771 33.5801 753.215 34.1676 752.529 34.1676C751.842 34.1676 751.286 33.5801 751.286 32.8553C751.286 32.1305 751.842 31.543 752.529 31.543C753.215 31.543 753.771 32.1305 753.771 32.8553Z" fill="#002740"/>
</g>
<g opacity="0.6">
<path fill-rule="evenodd" clip-rule="evenodd" d="M48.5197 32.7301C48.6377 32.8417 48.6477 33.0331 48.542 33.1577L42.7033 40.0443L34.3237 38.6362L29.8373 46.0404C29.752 46.1813 29.5747 46.2224 29.4413 46.1322C29.3079 46.0421 29.269 45.8548 29.3543 45.7139L34.0431 37.9757L42.4847 39.3942L48.1149 32.7536C48.2205 32.629 48.4018 32.6185 48.5197 32.7301Z" fill="#002740"/>
<path fill-rule="evenodd" clip-rule="evenodd" d="M23.9574 27C24.2213 27 24.4352 27.226 24.4352 27.5047V53.5495H49.4758C49.7397 53.5495 49.9536 53.7755 49.9536 54.0543C49.9536 54.3331 49.7397 54.559 49.4758 54.559H23.4795V27.5047C23.4795 27.226 23.6934 27 23.9574 27Z" fill="#002740"/>
<path d="M30.8385 45.7767C30.8385 46.5015 30.2822 47.089 29.596 47.089C28.9098 47.089 28.3535 46.5015 28.3535 45.7767C28.3535 45.0519 28.9098 44.4644 29.596 44.4644C30.2822 44.4644 30.8385 45.0519 30.8385 45.7767Z" fill="#002740"/>
<path d="M35.4263 38.3065C35.4263 39.0313 34.8701 39.6188 34.1839 39.6188C33.4977 39.6188 32.9414 39.0313 32.9414 38.3065C32.9414 37.5817 33.4977 36.9941 34.1839 36.9941C34.8701 36.9941 35.4263 37.5817 35.4263 38.3065Z" fill="#002740"/>
<path d="M43.8365 39.5174C43.8365 40.2422 43.2802 40.8297 42.594 40.8297C41.9078 40.8297 41.3516 40.2422 41.3516 39.5174C41.3516 38.7926 41.9078 38.2051 42.594 38.2051C43.2802 38.2051 43.8365 38.7926 43.8365 39.5174Z" fill="#002740"/>
<path d="M49.38 32.8548C49.38 33.5796 48.8237 34.1672 48.1375 34.1672C47.4513 34.1672 46.895 33.5796 46.895 32.8548C46.895 32.13 47.4513 31.5425 48.1375 31.5425C48.8237 31.5425 49.38 32.13 49.38 32.8548Z" fill="#002740"/>
</g>
<g opacity="0.6">
<path fill-rule="evenodd" clip-rule="evenodd" d="M136.569 32.7306C136.687 32.8421 136.697 33.0336 136.591 33.1582L130.753 40.0448L122.373 38.6367L117.887 46.0409C117.801 46.1818 117.624 46.2229 117.491 46.1327C117.357 46.0425 117.318 45.8552 117.404 45.7144L122.092 37.9762L130.534 39.3947L136.164 32.7541C136.27 32.6295 136.451 32.619 136.569 32.7306Z" fill="#002740"/>
<path fill-rule="evenodd" clip-rule="evenodd" d="M112.007 27C112.271 27 112.485 27.226 112.485 27.5047V53.5495H137.525C137.789 53.5495 138.003 53.7755 138.003 54.0543C138.003 54.3331 137.789 54.559 137.525 54.559H111.529V27.5047C111.529 27.226 111.743 27 112.007 27Z" fill="#002740"/>
<path d="M118.888 45.7767C118.888 46.5015 118.331 47.089 117.645 47.089C116.959 47.089 116.403 46.5015 116.403 45.7767C116.403 45.0519 116.959 44.4644 117.645 44.4644C118.331 44.4644 118.888 45.0519 118.888 45.7767Z" fill="#002740"/>
<path d="M123.476 38.3065C123.476 39.0313 122.919 39.6188 122.233 39.6188C121.547 39.6188 120.991 39.0313 120.991 38.3065C120.991 37.5817 121.547 36.9941 122.233 36.9941C122.919 36.9941 123.476 37.5817 123.476 38.3065Z" fill="#002740"/>
<path d="M131.886 39.5174C131.886 40.2422 131.33 40.8297 130.643 40.8297C129.957 40.8297 129.401 40.2422 129.401 39.5174C129.401 38.7926 129.957 38.2051 130.643 38.2051C131.33 38.2051 131.886 38.7926 131.886 39.5174Z" fill="#002740"/>
<path d="M137.429 32.8553C137.429 33.5801 136.873 34.1676 136.187 34.1676C135.501 34.1676 134.944 33.5801 134.944 32.8553C134.944 32.1305 135.501 31.543 136.187 31.543C136.873 31.543 137.429 32.1305 137.429 32.8553Z" fill="#002740"/>
</g>
<g opacity="0.6">
<path fill-rule="evenodd" clip-rule="evenodd" d="M224.618 32.7301C224.736 32.8417 224.746 33.0331 224.64 33.1577L218.801 40.0443L210.422 38.6362L205.935 46.0404C205.85 46.1813 205.673 46.2224 205.539 46.1322C205.406 46.0421 205.367 45.8548 205.452 45.7139L210.141 37.9757L218.583 39.3942L224.213 32.7536C224.319 32.629 224.5 32.6185 224.618 32.7301Z" fill="#002740"/>
<path fill-rule="evenodd" clip-rule="evenodd" d="M200.055 27C200.319 27 200.533 27.226 200.533 27.5047V53.5495H225.573C225.837 53.5495 226.051 53.7755 226.051 54.0543C226.051 54.3331 225.837 54.559 225.573 54.559H199.577V27.5047C199.577 27.226 199.791 27 200.055 27Z" fill="#002740"/>
<path d="M206.936 45.7767C206.936 46.5015 206.38 47.089 205.694 47.089C205.007 47.089 204.451 46.5015 204.451 45.7767C204.451 45.0519 205.007 44.4644 205.694 44.4644C206.38 44.4644 206.936 45.0519 206.936 45.7767Z" fill="#002740"/>
<path d="M211.524 38.3065C211.524 39.0313 210.968 39.6188 210.282 39.6188C209.595 39.6188 209.039 39.0313 209.039 38.3065C209.039 37.5817 209.595 36.9941 210.282 36.9941C210.968 36.9941 211.524 37.5817 211.524 38.3065Z" fill="#002740"/>
<path d="M219.935 39.5179C219.935 40.2427 219.378 40.8302 218.692 40.8302C218.006 40.8302 217.45 40.2427 217.45 39.5179C217.45 38.7931 218.006 38.2056 218.692 38.2056C219.378 38.2056 219.935 38.7931 219.935 39.5179Z" fill="#002740"/>
<path d="M225.478 32.8553C225.478 33.5801 224.922 34.1676 224.236 34.1676C223.549 34.1676 222.993 33.5801 222.993 32.8553C222.993 32.1305 223.549 31.543 224.236 31.543C224.922 31.543 225.478 32.1305 225.478 32.8553Z" fill="#002740"/>
</g>
<g opacity="0.6">
<path fill-rule="evenodd" clip-rule="evenodd" d="M312.666 32.7306C312.784 32.8421 312.794 33.0336 312.689 33.1582L306.85 40.0448L298.47 38.6367L293.984 46.0409C293.898 46.1818 293.721 46.2229 293.588 46.1327C293.454 46.0425 293.415 45.8552 293.501 45.7144L298.19 37.9762L306.631 39.3947L312.261 32.7541C312.367 32.6295 312.548 32.619 312.666 32.7306Z" fill="#002740"/>
<path fill-rule="evenodd" clip-rule="evenodd" d="M288.104 27C288.368 27 288.582 27.226 288.582 27.5047V53.5495H313.622C313.886 53.5495 314.1 53.7755 314.1 54.0543C314.1 54.3331 313.886 54.559 313.622 54.559H287.626V27.5047C287.626 27.226 287.84 27 288.104 27Z" fill="#002740"/>
<path d="M294.985 45.7767C294.985 46.5015 294.429 47.089 293.742 47.089C293.056 47.089 292.5 46.5015 292.5 45.7767C292.5 45.0519 293.056 44.4644 293.742 44.4644C294.429 44.4644 294.985 45.0519 294.985 45.7767Z" fill="#002740"/>
<path d="M299.573 38.3065C299.573 39.0313 299.017 39.6188 298.33 39.6188C297.644 39.6188 297.088 39.0313 297.088 38.3065C297.088 37.5817 297.644 36.9941 298.33 36.9941C299.017 36.9941 299.573 37.5817 299.573 38.3065Z" fill="#002740"/>
<path d="M307.983 39.5174C307.983 40.2422 307.427 40.8297 306.741 40.8297C306.055 40.8297 305.499 40.2422 305.499 39.5174C305.499 38.7926 306.055 38.2051 306.741 38.2051C307.427 38.2051 307.983 38.7926 307.983 39.5174Z" fill="#002740"/>
<path d="M313.527 32.8553C313.527 33.5801 312.971 34.1676 312.284 34.1676C311.598 34.1676 311.042 33.5801 311.042 32.8553C311.042 32.1305 311.598 31.543 312.284 31.543C312.971 31.543 313.527 32.1305 313.527 32.8553Z" fill="#002740"/>
</g>
<g opacity="0.6">
<path fill-rule="evenodd" clip-rule="evenodd" d="M455.628 93.7306C455.746 93.8421 455.756 94.0336 455.65 94.1582L449.812 101.045L441.432 99.6367L436.946 107.041C436.86 107.182 436.683 107.223 436.55 107.133C436.416 107.043 436.377 106.855 436.463 106.714L441.151 98.9762L449.593 100.395L455.223 93.7541C455.329 93.6295 455.51 93.619 455.628 93.7306Z" fill="#002740"/>
<path fill-rule="evenodd" clip-rule="evenodd" d="M431.065 88C431.329 88 431.543 88.226 431.543 88.5047V114.55H456.584C456.848 114.55 457.062 114.776 457.062 115.054C457.062 115.333 456.848 115.559 456.584 115.559H430.587V88.5047C430.587 88.226 430.801 88 431.065 88Z" fill="#002740"/>
<path d="M437.946 106.777C437.946 107.501 437.39 108.089 436.704 108.089C436.018 108.089 435.461 107.501 435.461 106.777C435.461 106.052 436.018 105.464 436.704 105.464C437.39 105.464 437.946 106.052 437.946 106.777Z" fill="#002740"/>
<path d="M442.534 99.3065C442.534 100.031 441.978 100.619 441.292 100.619C440.606 100.619 440.049 100.031 440.049 99.3065C440.049 98.5817 440.606 97.9941 441.292 97.9941C441.978 97.9941 442.534 98.5817 442.534 99.3065Z" fill="#002740"/>
<path d="M450.945 100.517C450.945 101.242 450.389 101.83 449.702 101.83C449.016 101.83 448.46 101.242 448.46 100.517C448.46 99.7926 449.016 99.2051 449.702 99.2051C450.389 99.2051 450.945 99.7926 450.945 100.517Z" fill="#002740"/>
<path d="M456.488 93.8553C456.488 94.5801 455.932 95.1676 455.245 95.1676C454.559 95.1676 454.003 94.5801 454.003 93.8553C454.003 93.1305 454.559 92.543 455.245 92.543C455.932 92.543 456.488 93.1305 456.488 93.8553Z" fill="#002740"/>
</g>
<g opacity="0.6">
<path fill-rule="evenodd" clip-rule="evenodd" d="M543.676 93.7301C543.794 93.8417 543.804 94.0331 543.699 94.1577L537.86 101.044L529.48 99.6362L524.994 107.04C524.909 107.181 524.731 107.222 524.598 107.132C524.465 107.042 524.426 106.855 524.511 106.714L529.2 98.9757L537.641 100.394L543.272 93.7536C543.377 93.629 543.559 93.6185 543.676 93.7301Z" fill="#002740"/>
<path fill-rule="evenodd" clip-rule="evenodd" d="M519.114 88C519.378 88 519.592 88.226 519.592 88.5047V114.55H544.633C544.896 114.55 545.11 114.776 545.11 115.054C545.11 115.333 544.896 115.559 544.633 115.559H518.636V88.5047C518.636 88.226 518.85 88 519.114 88Z" fill="#002740"/>
<path d="M525.995 106.777C525.995 107.501 525.439 108.089 524.753 108.089C524.067 108.089 523.51 107.501 523.51 106.777C523.51 106.052 524.067 105.464 524.753 105.464C525.439 105.464 525.995 106.052 525.995 106.777Z" fill="#002740"/>
<path d="M530.583 99.3065C530.583 100.031 530.027 100.619 529.341 100.619C528.654 100.619 528.098 100.031 528.098 99.3065C528.098 98.5817 528.654 97.9941 529.341 97.9941C530.027 97.9941 530.583 98.5817 530.583 99.3065Z" fill="#002740"/>
<path d="M538.994 100.517C538.994 101.242 538.437 101.83 537.751 101.83C537.065 101.83 536.509 101.242 536.509 100.517C536.509 99.7926 537.065 99.2051 537.751 99.2051C538.437 99.2051 538.994 99.7926 538.994 100.517Z" fill="#002740"/>
<path d="M544.537 93.8548C544.537 94.5796 543.98 95.1672 543.294 95.1672C542.608 95.1672 542.052 94.5796 542.052 93.8548C542.052 93.13 542.608 92.5425 543.294 92.5425C543.98 92.5425 544.537 93.13 544.537 93.8548Z" fill="#002740"/>
</g>
<g opacity="0.6">
<path fill-rule="evenodd" clip-rule="evenodd" d="M631.725 93.7306C631.843 93.8421 631.853 94.0336 631.748 94.1582L625.909 101.045L617.529 99.6367L613.043 107.041C612.958 107.182 612.78 107.223 612.647 107.133C612.513 107.043 612.475 106.855 612.56 106.714L617.249 98.9762L625.69 100.395L631.32 93.7541C631.426 93.6295 631.607 93.619 631.725 93.7306Z" fill="#002740"/>
<path fill-rule="evenodd" clip-rule="evenodd" d="M607.163 88C607.427 88 607.641 88.226 607.641 88.5047V114.55H632.681C632.945 114.55 633.159 114.776 633.159 115.054C633.159 115.333 632.945 115.559 632.681 115.559H606.685V88.5047C606.685 88.226 606.899 88 607.163 88Z" fill="#002740"/>
<path d="M614.044 106.777C614.044 107.501 613.488 108.089 612.802 108.089C612.115 108.089 611.559 107.501 611.559 106.777C611.559 106.052 612.115 105.464 612.802 105.464C613.488 105.464 614.044 106.052 614.044 106.777Z" fill="#002740"/>
<path d="M618.631 99.3065C618.631 100.031 618.075 100.619 617.389 100.619C616.703 100.619 616.146 100.031 616.146 99.3065C616.146 98.5817 616.703 97.9941 617.389 97.9941C618.075 97.9941 618.631 98.5817 618.631 99.3065Z" fill="#002740"/>
<path d="M627.043 100.517C627.043 101.242 626.486 101.83 625.8 101.83C625.114 101.83 624.558 101.242 624.558 100.517C624.558 99.7926 625.114 99.2051 625.8 99.2051C626.486 99.2051 627.043 99.7926 627.043 100.517Z" fill="#002740"/>
<path d="M632.586 93.8553C632.586 94.5801 632.029 95.1676 631.343 95.1676C630.657 95.1676 630.101 94.5801 630.101 93.8553C630.101 93.1305 630.657 92.543 631.343 92.543C632.029 92.543 632.586 93.1305 632.586 93.8553Z" fill="#002740"/>
</g>
<g opacity="0.6">
<path fill-rule="evenodd" clip-rule="evenodd" d="M719.775 93.7301C719.893 93.8417 719.903 94.0331 719.797 94.1577L713.958 101.044L705.579 99.6362L701.092 107.04C701.007 107.181 700.83 107.222 700.696 107.132C700.563 107.042 700.524 106.855 700.609 106.714L705.298 98.9757L713.74 100.394L719.37 93.7536C719.475 93.629 719.657 93.6185 719.775 93.7301Z" fill="#002740"/>
<path fill-rule="evenodd" clip-rule="evenodd" d="M695.212 88C695.476 88 695.69 88.226 695.69 88.5047V114.55H720.73C720.994 114.55 721.208 114.776 721.208 115.054C721.208 115.333 720.994 115.559 720.73 115.559H694.734V88.5047C694.734 88.226 694.948 88 695.212 88Z" fill="#002740"/>
<path d="M702.093 106.777C702.093 107.501 701.537 108.089 700.85 108.089C700.164 108.089 699.608 107.501 699.608 106.777C699.608 106.052 700.164 105.464 700.85 105.464C701.537 105.464 702.093 106.052 702.093 106.777Z" fill="#002740"/>
<path d="M706.681 99.3065C706.681 100.031 706.124 100.619 705.438 100.619C704.752 100.619 704.196 100.031 704.196 99.3065C704.196 98.5817 704.752 97.9941 705.438 97.9941C706.124 97.9941 706.681 98.5817 706.681 99.3065Z" fill="#002740"/>
<path d="M715.091 100.518C715.091 101.243 714.535 101.83 713.849 101.83C713.163 101.83 712.606 101.243 712.606 100.518C712.606 99.7931 713.163 99.2056 713.849 99.2056C714.535 99.2056 715.091 99.7931 715.091 100.518Z" fill="#002740"/>
<path d="M720.635 93.8553C720.635 94.5801 720.079 95.1676 719.392 95.1676C718.706 95.1676 718.15 94.5801 718.15 93.8553C718.15 93.1305 718.706 92.543 719.392 92.543C720.079 92.543 720.635 93.1305 720.635 93.8553Z" fill="#002740"/>
</g>
<g opacity="0.6">
<path fill-rule="evenodd" clip-rule="evenodd" d="M807.823 93.7306C807.941 93.8421 807.951 94.0336 807.845 94.1582L802.007 101.045L793.627 99.6367L789.141 107.041C789.055 107.182 788.878 107.223 788.745 107.133C788.611 107.043 788.572 106.855 788.658 106.714L793.346 98.9762L801.788 100.395L807.418 93.7541C807.524 93.6295 807.705 93.619 807.823 93.7306Z" fill="#002740"/>
<path fill-rule="evenodd" clip-rule="evenodd" d="M783.261 88C783.525 88 783.738 88.226 783.738 88.5047V114.55H808.779C809.043 114.55 809.257 114.776 809.257 115.054C809.257 115.333 809.043 115.559 808.779 115.559H782.783V88.5047C782.783 88.226 782.997 88 783.261 88Z" fill="#002740"/>
<path d="M790.142 106.777C790.142 107.501 789.586 108.089 788.9 108.089C788.213 108.089 787.657 107.501 787.657 106.777C787.657 106.052 788.213 105.464 788.9 105.464C789.586 105.464 790.142 106.052 790.142 106.777Z" fill="#002740"/>
<path d="M794.73 99.3065C794.73 100.031 794.173 100.619 793.487 100.619C792.801 100.619 792.245 100.031 792.245 99.3065C792.245 98.5817 792.801 97.9941 793.487 97.9941C794.173 97.9941 794.73 98.5817 794.73 99.3065Z" fill="#002740"/>
<path d="M803.14 100.517C803.14 101.242 802.584 101.83 801.898 101.83C801.212 101.83 800.655 101.242 800.655 100.517C800.655 99.7926 801.212 99.2051 801.898 99.2051C802.584 99.2051 803.14 99.7926 803.14 100.517Z" fill="#002740"/>
<path d="M808.684 93.8553C808.684 94.5801 808.127 95.1676 807.441 95.1676C806.755 95.1676 806.199 94.5801 806.199 93.8553C806.199 93.1305 806.755 92.543 807.441 92.543C808.127 92.543 808.684 93.1305 808.684 93.8553Z" fill="#002740"/>
</g>
<g opacity="0.6">
<path fill-rule="evenodd" clip-rule="evenodd" d="M15.3835 93.7306C15.5015 93.8421 15.5115 94.0336 15.4058 94.1582L9.56707 101.045L1.18751 99.6367L-3.29889 107.041C-3.38425 107.182 -3.56157 107.223 -3.69495 107.133C-3.82833 107.043 -3.86725 106.855 -3.78189 106.714L0.90687 98.9762L9.34843 100.395L14.9786 93.7541C15.0843 93.6295 15.2655 93.619 15.3835 93.7306Z" fill="#002740"/>
<path fill-rule="evenodd" clip-rule="evenodd" d="M-9.17935 88C-8.91543 88 -8.70148 88.226 -8.70148 88.5047V114.55H16.3391C16.603 114.55 16.8169 114.776 16.8169 115.054C16.8169 115.333 16.603 115.559 16.3391 115.559H-9.65723L-9.65723 88.5047C-9.65723 88.226 -9.44328 88 -9.17935 88Z" fill="#002740"/>
<path d="M2.28963 99.3065C2.28963 100.031 1.73335 100.619 1.04716 100.619C0.36096 100.619 -0.195312 100.031 -0.195312 99.3065C-0.195312 98.5817 0.36096 97.9941 1.04716 97.9941C1.73335 97.9941 2.28963 98.5817 2.28963 99.3065Z" fill="#002740"/>
<path d="M10.7003 100.517C10.7003 101.242 10.144 101.83 9.4578 101.83C8.7716 101.83 8.21533 101.242 8.21533 100.517C8.21533 99.7926 8.7716 99.2051 9.4578 99.2051C10.144 99.2051 10.7003 99.7926 10.7003 100.517Z" fill="#002740"/>
<path d="M16.2432 93.8553C16.2432 94.5801 15.687 95.1676 15.0008 95.1676C14.3146 95.1676 13.7583 94.5801 13.7583 93.8553C13.7583 93.1305 14.3146 92.543 15.0008 92.543C15.687 92.543 16.2432 93.1305 16.2432 93.8553Z" fill="#002740"/>
</g>
<g opacity="0.6">
<path fill-rule="evenodd" clip-rule="evenodd" d="M103.432 93.7301C103.55 93.8417 103.56 94.0331 103.454 94.1577L97.6154 101.044L89.2358 99.6362L84.7494 107.04C84.6641 107.181 84.4868 107.222 84.3534 107.132C84.22 107.042 84.1811 106.855 84.2665 106.714L88.9552 98.9757L97.3968 100.394L103.027 93.7536C103.133 93.629 103.314 93.6185 103.432 93.7301Z" fill="#002740"/>
<path fill-rule="evenodd" clip-rule="evenodd" d="M78.8695 88C79.1334 88 79.3473 88.226 79.3473 88.5047V114.55H104.388C104.652 114.55 104.866 114.776 104.866 115.054C104.866 115.333 104.652 115.559 104.388 115.559H78.3916V88.5047C78.3916 88.226 78.6056 88 78.8695 88Z" fill="#002740"/>
<path d="M85.7511 106.777C85.7511 107.501 85.1948 108.089 84.5086 108.089C83.8224 108.089 83.2661 107.501 83.2661 106.777C83.2661 106.052 83.8224 105.464 84.5086 105.464C85.1948 105.464 85.7511 106.052 85.7511 106.777Z" fill="#002740"/>
<path d="M90.3385 99.3065C90.3385 100.031 89.7822 100.619 89.096 100.619C88.4098 100.619 87.8535 100.031 87.8535 99.3065C87.8535 98.5817 88.4098 97.9941 89.096 97.9941C89.7822 97.9941 90.3385 98.5817 90.3385 99.3065Z" fill="#002740"/>
<path d="M98.7491 100.517C98.7491 101.242 98.1928 101.83 97.5066 101.83C96.8204 101.83 96.2642 101.242 96.2642 100.517C96.2642 99.7926 96.8204 99.2051 97.5066 99.2051C98.1928 99.2051 98.7491 99.7926 98.7491 100.517Z" fill="#002740"/>
<path d="M104.292 93.8548C104.292 94.5796 103.736 95.1672 103.05 95.1672C102.363 95.1672 101.807 94.5796 101.807 93.8548C101.807 93.13 102.363 92.5425 103.05 92.5425C103.736 92.5425 104.292 93.13 104.292 93.8548Z" fill="#002740"/>
</g>
<g opacity="0.6">
<path fill-rule="evenodd" clip-rule="evenodd" d="M191.481 93.7306C191.599 93.8421 191.609 94.0336 191.503 94.1582L185.664 101.045L177.285 99.6367L172.798 107.041C172.713 107.182 172.536 107.223 172.402 107.133C172.269 107.043 172.23 106.855 172.315 106.714L177.004 98.9762L185.446 100.395L191.076 93.7541C191.181 93.6295 191.363 93.619 191.481 93.7306Z" fill="#002740"/>
<path fill-rule="evenodd" clip-rule="evenodd" d="M166.918 88C167.182 88 167.396 88.226 167.396 88.5047V114.55H192.437C192.701 114.55 192.915 114.776 192.915 115.054C192.915 115.333 192.701 115.559 192.437 115.559H166.44V88.5047C166.44 88.226 166.654 88 166.918 88Z" fill="#002740"/>
<path d="M173.799 106.777C173.799 107.501 173.243 108.089 172.557 108.089C171.871 108.089 171.314 107.501 171.314 106.777C171.314 106.052 171.871 105.464 172.557 105.464C173.243 105.464 173.799 106.052 173.799 106.777Z" fill="#002740"/>
<path d="M178.387 99.3065C178.387 100.031 177.831 100.619 177.145 100.619C176.459 100.619 175.902 100.031 175.902 99.3065C175.902 98.5817 176.459 97.9941 177.145 97.9941C177.831 97.9941 178.387 98.5817 178.387 99.3065Z" fill="#002740"/>
<path d="M186.797 100.517C186.797 101.242 186.241 101.83 185.555 101.83C184.869 101.83 184.312 101.242 184.312 100.517C184.312 99.7926 184.869 99.2051 185.555 99.2051C186.241 99.2051 186.797 99.7926 186.797 100.517Z" fill="#002740"/>
<path d="M192.341 93.8553C192.341 94.5801 191.785 95.1676 191.098 95.1676C190.412 95.1676 189.856 94.5801 189.856 93.8553C189.856 93.1305 190.412 92.543 191.098 92.543C191.785 92.543 192.341 93.1305 192.341 93.8553Z" fill="#002740"/>
</g>
<g opacity="0.6">
<path fill-rule="evenodd" clip-rule="evenodd" d="M279.53 93.7301C279.648 93.8417 279.658 94.0331 279.552 94.1577L273.714 101.044L265.334 99.6362L260.848 107.04C260.762 107.181 260.585 107.222 260.452 107.132C260.318 107.042 260.279 106.855 260.365 106.714L265.053 98.9757L273.495 100.394L279.125 93.7536C279.231 93.629 279.412 93.6185 279.53 93.7301Z" fill="#002740"/>
<path fill-rule="evenodd" clip-rule="evenodd" d="M254.967 88C255.231 88 255.445 88.226 255.445 88.5047V114.55H280.486C280.749 114.55 280.963 114.776 280.963 115.054C280.963 115.333 280.749 115.559 280.486 115.559H254.489V88.5047C254.489 88.226 254.703 88 254.967 88Z" fill="#002740"/>
<path d="M261.848 106.777C261.848 107.501 261.292 108.089 260.606 108.089C259.92 108.089 259.363 107.501 259.363 106.777C259.363 106.052 259.92 105.464 260.606 105.464C261.292 105.464 261.848 106.052 261.848 106.777Z" fill="#002740"/>
<path d="M266.436 99.3065C266.436 100.031 265.88 100.619 265.194 100.619C264.507 100.619 263.951 100.031 263.951 99.3065C263.951 98.5817 264.507 97.9941 265.194 97.9941C265.88 97.9941 266.436 98.5817 266.436 99.3065Z" fill="#002740"/>
<path d="M274.847 100.518C274.847 101.243 274.29 101.83 273.604 101.83C272.918 101.83 272.362 101.243 272.362 100.518C272.362 99.7931 272.918 99.2056 273.604 99.2056C274.29 99.2056 274.847 99.7931 274.847 100.518Z" fill="#002740"/>
<path d="M280.39 93.8553C280.39 94.5801 279.834 95.1676 279.148 95.1676C278.462 95.1676 277.905 94.5801 277.905 93.8553C277.905 93.1305 278.462 92.543 279.148 92.543C279.834 92.543 280.39 93.1305 280.39 93.8553Z" fill="#002740"/>
</g>
<g opacity="0.6">
<path fill-rule="evenodd" clip-rule="evenodd" d="M367.578 93.7306C367.696 93.8421 367.706 94.0336 367.601 94.1582L361.762 101.045L353.382 99.6367L348.896 107.041C348.811 107.182 348.633 107.223 348.5 107.133C348.366 107.043 348.328 106.855 348.413 106.714L353.102 98.9762L361.543 100.395L367.173 93.7541C367.279 93.6295 367.46 93.619 367.578 93.7306Z" fill="#002740"/>
<path fill-rule="evenodd" clip-rule="evenodd" d="M343.016 88C343.28 88 343.494 88.226 343.494 88.5047V114.55H368.534C368.798 114.55 369.012 114.776 369.012 115.054C369.012 115.333 368.798 115.559 368.534 115.559H342.538V88.5047C342.538 88.226 342.752 88 343.016 88Z" fill="#002740"/>
<path d="M349.897 106.777C349.897 107.501 349.341 108.089 348.655 108.089C347.968 108.089 347.412 107.501 347.412 106.777C347.412 106.052 347.968 105.464 348.655 105.464C349.341 105.464 349.897 106.052 349.897 106.777Z" fill="#002740"/>
<path d="M354.485 99.3065C354.485 100.031 353.929 100.619 353.242 100.619C352.556 100.619 352 100.031 352 99.3065C352 98.5817 352.556 97.9941 353.242 97.9941C353.929 97.9941 354.485 98.5817 354.485 99.3065Z" fill="#002740"/>
<path d="M362.896 100.517C362.896 101.242 362.339 101.83 361.653 101.83C360.967 101.83 360.411 101.242 360.411 100.517C360.411 99.7926 360.967 99.2051 361.653 99.2051C362.339 99.2051 362.896 99.7926 362.896 100.517Z" fill="#002740"/>
<path d="M368.439 93.8553C368.439 94.5801 367.882 95.1676 367.196 95.1676C366.51 95.1676 365.954 94.5801 365.954 93.8553C365.954 93.1305 366.51 92.543 367.196 92.543C367.882 92.543 368.439 93.1305 368.439 93.8553Z" fill="#002740"/>
</g>
<g opacity="0.6">
<path fill-rule="evenodd" clip-rule="evenodd" d="M400.716 164.731C400.834 164.842 400.844 165.034 400.738 165.158L394.9 172.045L386.52 170.637L382.034 178.041C381.948 178.182 381.771 178.223 381.638 178.133C381.504 178.043 381.465 177.855 381.551 177.714L386.239 169.976L394.681 171.395L400.311 164.754C400.417 164.63 400.598 164.619 400.716 164.731Z" fill="#002740"/>
<path fill-rule="evenodd" clip-rule="evenodd" d="M376.153 159C376.417 159 376.631 159.226 376.631 159.505V185.55H401.672C401.935 185.55 402.149 185.776 402.149 186.054C402.149 186.333 401.935 186.559 401.672 186.559H375.675V159.505C375.675 159.226 375.889 159 376.153 159Z" fill="#002740"/>
<path d="M383.034 177.777C383.034 178.501 382.478 179.089 381.792 179.089C381.106 179.089 380.549 178.501 380.549 177.777C380.549 177.052 381.106 176.464 381.792 176.464C382.478 176.464 383.034 177.052 383.034 177.777Z" fill="#002740"/>
<path d="M387.622 170.306C387.622 171.031 387.066 171.619 386.38 171.619C385.693 171.619 385.137 171.031 385.137 170.306C385.137 169.582 385.693 168.994 386.38 168.994C387.066 168.994 387.622 169.582 387.622 170.306Z" fill="#002740"/>
<path d="M396.033 171.517C396.033 172.242 395.477 172.83 394.79 172.83C394.104 172.83 393.548 172.242 393.548 171.517C393.548 170.793 394.104 170.205 394.79 170.205C395.477 170.205 396.033 170.793 396.033 171.517Z" fill="#002740"/>
<path d="M401.576 164.855C401.576 165.58 401.02 166.168 400.334 166.168C399.648 166.168 399.091 165.58 399.091 164.855C399.091 164.131 399.648 163.543 400.334 163.543C401.02 163.543 401.576 164.131 401.576 164.855Z" fill="#002740"/>
</g>
<g opacity="0.6">
<path fill-rule="evenodd" clip-rule="evenodd" d="M488.764 164.73C488.882 164.842 488.892 165.033 488.787 165.158L482.948 172.044L474.568 170.636L470.082 178.04C469.997 178.181 469.819 178.222 469.686 178.132C469.553 178.042 469.514 177.855 469.599 177.714L474.288 169.976L482.729 171.394L488.359 164.754C488.465 164.629 488.646 164.618 488.764 164.73Z" fill="#002740"/>
<path fill-rule="evenodd" clip-rule="evenodd" d="M464.202 159C464.466 159 464.68 159.226 464.68 159.505V185.55H489.72C489.984 185.55 490.198 185.776 490.198 186.054C490.198 186.333 489.984 186.559 489.72 186.559H463.724V159.505C463.724 159.226 463.938 159 464.202 159Z" fill="#002740"/>
<path d="M471.083 177.777C471.083 178.501 470.527 179.089 469.841 179.089C469.154 179.089 468.598 178.501 468.598 177.777C468.598 177.052 469.154 176.464 469.841 176.464C470.527 176.464 471.083 177.052 471.083 177.777Z" fill="#002740"/>
<path d="M475.671 170.306C475.671 171.031 475.115 171.619 474.429 171.619C473.742 171.619 473.186 171.031 473.186 170.306C473.186 169.582 473.742 168.994 474.429 168.994C475.115 168.994 475.671 169.582 475.671 170.306Z" fill="#002740"/>
<path d="M484.082 171.517C484.082 172.242 483.525 172.83 482.839 172.83C482.153 172.83 481.597 172.242 481.597 171.517C481.597 170.793 482.153 170.205 482.839 170.205C483.525 170.205 484.082 170.793 484.082 171.517Z" fill="#002740"/>
<path d="M489.625 164.855C489.625 165.58 489.068 166.167 488.382 166.167C487.696 166.167 487.14 165.58 487.14 164.855C487.14 164.13 487.696 163.542 488.382 163.542C489.068 163.542 489.625 164.13 489.625 164.855Z" fill="#002740"/>
</g>
<g opacity="0.6">
<path fill-rule="evenodd" clip-rule="evenodd" d="M576.813 164.731C576.931 164.842 576.941 165.034 576.836 165.158L570.997 172.045L562.617 170.637L558.131 178.041C558.045 178.182 557.868 178.223 557.735 178.133C557.601 178.043 557.562 177.855 557.648 177.714L562.337 169.976L570.778 171.395L576.408 164.754C576.514 164.63 576.695 164.619 576.813 164.731Z" fill="#002740"/>
<path fill-rule="evenodd" clip-rule="evenodd" d="M552.251 159C552.515 159 552.729 159.226 552.729 159.505V185.55H577.769C578.033 185.55 578.247 185.776 578.247 186.054C578.247 186.333 578.033 186.559 577.769 186.559H551.773V159.505C551.773 159.226 551.987 159 552.251 159Z" fill="#002740"/>
<path d="M559.132 177.777C559.132 178.501 558.576 179.089 557.889 179.089C557.203 179.089 556.647 178.501 556.647 177.777C556.647 177.052 557.203 176.464 557.889 176.464C558.576 176.464 559.132 177.052 559.132 177.777Z" fill="#002740"/>
<path d="M563.719 170.306C563.719 171.031 563.163 171.619 562.477 171.619C561.791 171.619 561.234 171.031 561.234 170.306C561.234 169.582 561.791 168.994 562.477 168.994C563.163 168.994 563.719 169.582 563.719 170.306Z" fill="#002740"/>
<path d="M572.13 171.517C572.13 172.242 571.574 172.83 570.887 172.83C570.201 172.83 569.645 172.242 569.645 171.517C569.645 170.793 570.201 170.205 570.887 170.205C571.574 170.205 572.13 170.793 572.13 171.517Z" fill="#002740"/>
<path d="M577.673 164.855C577.673 165.58 577.117 166.168 576.431 166.168C575.745 166.168 575.188 165.58 575.188 164.855C575.188 164.131 575.745 163.543 576.431 163.543C577.117 163.543 577.673 164.131 577.673 164.855Z" fill="#002740"/>
</g>
<g opacity="0.6">
<path fill-rule="evenodd" clip-rule="evenodd" d="M664.863 164.73C664.98 164.842 664.99 165.033 664.885 165.158L659.046 172.044L650.667 170.636L646.18 178.04C646.095 178.181 645.917 178.222 645.784 178.132C645.651 178.042 645.612 177.855 645.697 177.714L650.386 169.976L658.827 171.394L664.458 164.754C664.563 164.629 664.745 164.618 664.863 164.73Z" fill="#002740"/>
<path fill-rule="evenodd" clip-rule="evenodd" d="M640.3 159C640.564 159 640.778 159.226 640.778 159.505V185.55H665.818C666.082 185.55 666.296 185.776 666.296 186.054C666.296 186.333 666.082 186.559 665.818 186.559H639.822V159.505C639.822 159.226 640.036 159 640.3 159Z" fill="#002740"/>
<path d="M647.181 177.777C647.181 178.501 646.624 179.089 645.938 179.089C645.252 179.089 644.696 178.501 644.696 177.777C644.696 177.052 645.252 176.464 645.938 176.464C646.624 176.464 647.181 177.052 647.181 177.777Z" fill="#002740"/>
<path d="M651.769 170.306C651.769 171.031 651.212 171.619 650.526 171.619C649.84 171.619 649.284 171.031 649.284 170.306C649.284 169.582 649.84 168.994 650.526 168.994C651.212 168.994 651.769 169.582 651.769 170.306Z" fill="#002740"/>
<path d="M660.179 171.518C660.179 172.243 659.623 172.83 658.937 172.83C658.251 172.83 657.694 172.243 657.694 171.518C657.694 170.793 658.251 170.206 658.937 170.206C659.623 170.206 660.179 170.793 660.179 171.518Z" fill="#002740"/>
<path d="M665.723 164.855C665.723 165.58 665.166 166.168 664.48 166.168C663.794 166.168 663.238 165.58 663.238 164.855C663.238 164.131 663.794 163.543 664.48 163.543C665.166 163.543 665.723 164.131 665.723 164.855Z" fill="#002740"/>
</g>
<g opacity="0.6">
<path fill-rule="evenodd" clip-rule="evenodd" d="M752.911 164.731C753.029 164.842 753.039 165.034 752.933 165.158L747.094 172.045L738.715 170.637L734.228 178.041C734.143 178.182 733.966 178.223 733.832 178.133C733.699 178.043 733.66 177.855 733.745 177.714L738.434 169.976L746.876 171.395L752.506 164.754C752.612 164.63 752.793 164.619 752.911 164.731Z" fill="#002740"/>
<path fill-rule="evenodd" clip-rule="evenodd" d="M728.348 159C728.612 159 728.826 159.226 728.826 159.505V185.55H753.867C754.131 185.55 754.345 185.776 754.345 186.054C754.345 186.333 754.131 186.559 753.867 186.559H727.871V159.505C727.871 159.226 728.085 159 728.348 159Z" fill="#002740"/>
<path d="M735.23 177.777C735.23 178.501 734.673 179.089 733.987 179.089C733.301 179.089 732.745 178.501 732.745 177.777C732.745 177.052 733.301 176.464 733.987 176.464C734.673 176.464 735.23 177.052 735.23 177.777Z" fill="#002740"/>
<path d="M739.817 170.306C739.817 171.031 739.261 171.619 738.575 171.619C737.888 171.619 737.332 171.031 737.332 170.306C737.332 169.582 737.888 168.994 738.575 168.994C739.261 168.994 739.817 169.582 739.817 170.306Z" fill="#002740"/>
<path d="M748.228 171.517C748.228 172.242 747.672 172.83 746.986 172.83C746.299 172.83 745.743 172.242 745.743 171.517C745.743 170.793 746.299 170.205 746.986 170.205C747.672 170.205 748.228 170.793 748.228 171.517Z" fill="#002740"/>
<path d="M753.771 164.855C753.771 165.58 753.215 166.168 752.529 166.168C751.842 166.168 751.286 165.58 751.286 164.855C751.286 164.131 751.842 163.543 752.529 163.543C753.215 163.543 753.771 164.131 753.771 164.855Z" fill="#002740"/>
</g>
<g opacity="0.6">
<path fill-rule="evenodd" clip-rule="evenodd" d="M48.5197 164.73C48.6377 164.842 48.6477 165.033 48.542 165.158L42.7033 172.044L34.3237 170.636L29.8373 178.04C29.752 178.181 29.5747 178.222 29.4413 178.132C29.3079 178.042 29.269 177.855 29.3543 177.714L34.0431 169.976L42.4847 171.394L48.1149 164.754C48.2205 164.629 48.4018 164.618 48.5197 164.73Z" fill="#002740"/>
<path fill-rule="evenodd" clip-rule="evenodd" d="M23.9574 159C24.2213 159 24.4352 159.226 24.4352 159.505V185.55H49.4758C49.7397 185.55 49.9536 185.776 49.9536 186.054C49.9536 186.333 49.7397 186.559 49.4758 186.559H23.4795V159.505C23.4795 159.226 23.6934 159 23.9574 159Z" fill="#002740"/>
<path d="M30.8385 177.777C30.8385 178.501 30.2822 179.089 29.596 179.089C28.9098 179.089 28.3535 178.501 28.3535 177.777C28.3535 177.052 28.9098 176.464 29.596 176.464C30.2822 176.464 30.8385 177.052 30.8385 177.777Z" fill="#002740"/>
<path d="M35.4263 170.306C35.4263 171.031 34.8701 171.619 34.1839 171.619C33.4977 171.619 32.9414 171.031 32.9414 170.306C32.9414 169.582 33.4977 168.994 34.1839 168.994C34.8701 168.994 35.4263 169.582 35.4263 170.306Z" fill="#002740"/>
<path d="M43.8365 171.517C43.8365 172.242 43.2802 172.83 42.594 172.83C41.9078 172.83 41.3516 172.242 41.3516 171.517C41.3516 170.793 41.9078 170.205 42.594 170.205C43.2802 170.205 43.8365 170.793 43.8365 171.517Z" fill="#002740"/>
<path d="M49.38 164.855C49.38 165.58 48.8237 166.167 48.1375 166.167C47.4513 166.167 46.895 165.58 46.895 164.855C46.895 164.13 47.4513 163.542 48.1375 163.542C48.8237 163.542 49.38 164.13 49.38 164.855Z" fill="#002740"/>
</g>
<g opacity="0.6">
<path fill-rule="evenodd" clip-rule="evenodd" d="M136.569 164.731C136.687 164.842 136.697 165.034 136.591 165.158L130.753 172.045L122.373 170.637L117.887 178.041C117.801 178.182 117.624 178.223 117.491 178.133C117.357 178.043 117.318 177.855 117.404 177.714L122.092 169.976L130.534 171.395L136.164 164.754C136.27 164.63 136.451 164.619 136.569 164.731Z" fill="#002740"/>
<path fill-rule="evenodd" clip-rule="evenodd" d="M112.007 159C112.271 159 112.485 159.226 112.485 159.505V185.55H137.525C137.789 185.55 138.003 185.776 138.003 186.054C138.003 186.333 137.789 186.559 137.525 186.559H111.529V159.505C111.529 159.226 111.743 159 112.007 159Z" fill="#002740"/>
<path d="M118.888 177.777C118.888 178.501 118.331 179.089 117.645 179.089C116.959 179.089 116.403 178.501 116.403 177.777C116.403 177.052 116.959 176.464 117.645 176.464C118.331 176.464 118.888 177.052 118.888 177.777Z" fill="#002740"/>
<path d="M123.476 170.306C123.476 171.031 122.919 171.619 122.233 171.619C121.547 171.619 120.991 171.031 120.991 170.306C120.991 169.582 121.547 168.994 122.233 168.994C122.919 168.994 123.476 169.582 123.476 170.306Z" fill="#002740"/>
<path d="M131.886 171.517C131.886 172.242 131.33 172.83 130.643 172.83C129.957 172.83 129.401 172.242 129.401 171.517C129.401 170.793 129.957 170.205 130.643 170.205C131.33 170.205 131.886 170.793 131.886 171.517Z" fill="#002740"/>
<path d="M137.429 164.855C137.429 165.58 136.873 166.168 136.187 166.168C135.501 166.168 134.944 165.58 134.944 164.855C134.944 164.131 135.501 163.543 136.187 163.543C136.873 163.543 137.429 164.131 137.429 164.855Z" fill="#002740"/>
</g>
<g opacity="0.6">
<path fill-rule="evenodd" clip-rule="evenodd" d="M224.618 164.73C224.736 164.842 224.746 165.033 224.64 165.158L218.801 172.044L210.422 170.636L205.935 178.04C205.85 178.181 205.673 178.222 205.539 178.132C205.406 178.042 205.367 177.855 205.452 177.714L210.141 169.976L218.583 171.394L224.213 164.754C224.319 164.629 224.5 164.618 224.618 164.73Z" fill="#002740"/>
<path fill-rule="evenodd" clip-rule="evenodd" d="M200.055 159C200.319 159 200.533 159.226 200.533 159.505V185.55H225.573C225.837 185.55 226.051 185.776 226.051 186.054C226.051 186.333 225.837 186.559 225.573 186.559H199.577V159.505C199.577 159.226 199.791 159 200.055 159Z" fill="#002740"/>
<path d="M206.936 177.777C206.936 178.501 206.38 179.089 205.694 179.089C205.007 179.089 204.451 178.501 204.451 177.777C204.451 177.052 205.007 176.464 205.694 176.464C206.38 176.464 206.936 177.052 206.936 177.777Z" fill="#002740"/>
<path d="M211.524 170.306C211.524 171.031 210.968 171.619 210.282 171.619C209.595 171.619 209.039 171.031 209.039 170.306C209.039 169.582 209.595 168.994 210.282 168.994C210.968 168.994 211.524 169.582 211.524 170.306Z" fill="#002740"/>
<path d="M219.935 171.518C219.935 172.243 219.378 172.83 218.692 172.83C218.006 172.83 217.45 172.243 217.45 171.518C217.45 170.793 218.006 170.206 218.692 170.206C219.378 170.206 219.935 170.793 219.935 171.518Z" fill="#002740"/>
<path d="M225.478 164.855C225.478 165.58 224.922 166.168 224.236 166.168C223.549 166.168 222.993 165.58 222.993 164.855C222.993 164.131 223.549 163.543 224.236 163.543C224.922 163.543 225.478 164.131 225.478 164.855Z" fill="#002740"/>
</g>
<g opacity="0.6">
<path fill-rule="evenodd" clip-rule="evenodd" d="M312.666 164.731C312.784 164.842 312.794 165.034 312.689 165.158L306.85 172.045L298.47 170.637L293.984 178.041C293.898 178.182 293.721 178.223 293.588 178.133C293.454 178.043 293.415 177.855 293.501 177.714L298.19 169.976L306.631 171.395L312.261 164.754C312.367 164.63 312.548 164.619 312.666 164.731Z" fill="#002740"/>
<path fill-rule="evenodd" clip-rule="evenodd" d="M288.104 159C288.368 159 288.582 159.226 288.582 159.505V185.55H313.622C313.886 185.55 314.1 185.776 314.1 186.054C314.1 186.333 313.886 186.559 313.622 186.559H287.626V159.505C287.626 159.226 287.84 159 288.104 159Z" fill="#002740"/>
<path d="M294.985 177.777C294.985 178.501 294.429 179.089 293.742 179.089C293.056 179.089 292.5 178.501 292.5 177.777C292.5 177.052 293.056 176.464 293.742 176.464C294.429 176.464 294.985 177.052 294.985 177.777Z" fill="#002740"/>
<path d="M299.573 170.306C299.573 171.031 299.017 171.619 298.33 171.619C297.644 171.619 297.088 171.031 297.088 170.306C297.088 169.582 297.644 168.994 298.33 168.994C299.017 168.994 299.573 169.582 299.573 170.306Z" fill="#002740"/>
<path d="M307.983 171.517C307.983 172.242 307.427 172.83 306.741 172.83C306.055 172.83 305.499 172.242 305.499 171.517C305.499 170.793 306.055 170.205 306.741 170.205C307.427 170.205 307.983 170.793 307.983 171.517Z" fill="#002740"/>
<path d="M313.527 164.855C313.527 165.58 312.971 166.168 312.284 166.168C311.598 166.168 311.042 165.58 311.042 164.855C311.042 164.131 311.598 163.543 312.284 163.543C312.971 163.543 313.527 164.131 313.527 164.855Z" fill="#002740"/>
</g>
<g opacity="0.6">
<path fill-rule="evenodd" clip-rule="evenodd" d="M455.628 225.731C455.746 225.842 455.756 226.034 455.65 226.158L449.812 233.045L441.432 231.637L436.946 239.041C436.86 239.182 436.683 239.223 436.55 239.133C436.416 239.043 436.377 238.855 436.463 238.714L441.151 230.976L449.593 232.395L455.223 225.754C455.329 225.63 455.51 225.619 455.628 225.731Z" fill="#002740"/>
<path fill-rule="evenodd" clip-rule="evenodd" d="M431.065 220C431.329 220 431.543 220.226 431.543 220.505V246.55H456.584C456.848 246.55 457.062 246.776 457.062 247.054C457.062 247.333 456.848 247.559 456.584 247.559H430.587V220.505C430.587 220.226 430.801 220 431.065 220Z" fill="#002740"/>
<path d="M437.946 238.777C437.946 239.501 437.39 240.089 436.704 240.089C436.018 240.089 435.461 239.501 435.461 238.777C435.461 238.052 436.018 237.464 436.704 237.464C437.39 237.464 437.946 238.052 437.946 238.777Z" fill="#002740"/>
<path d="M442.534 231.306C442.534 232.031 441.978 232.619 441.292 232.619C440.606 232.619 440.049 232.031 440.049 231.306C440.049 230.582 440.606 229.994 441.292 229.994C441.978 229.994 442.534 230.582 442.534 231.306Z" fill="#002740"/>
<path d="M450.945 232.517C450.945 233.242 450.389 233.83 449.702 233.83C449.016 233.83 448.46 233.242 448.46 232.517C448.46 231.793 449.016 231.205 449.702 231.205C450.389 231.205 450.945 231.793 450.945 232.517Z" fill="#002740"/>
<path d="M456.488 225.855C456.488 226.58 455.932 227.168 455.245 227.168C454.559 227.168 454.003 226.58 454.003 225.855C454.003 225.131 454.559 224.543 455.245 224.543C455.932 224.543 456.488 225.131 456.488 225.855Z" fill="#002740"/>
</g>
<g opacity="0.6">
<path fill-rule="evenodd" clip-rule="evenodd" d="M543.676 225.73C543.794 225.842 543.804 226.033 543.699 226.158L537.86 233.044L529.48 231.636L524.994 239.04C524.909 239.181 524.731 239.222 524.598 239.132C524.465 239.042 524.426 238.855 524.511 238.714L529.2 230.976L537.641 232.394L543.272 225.754C543.377 225.629 543.559 225.618 543.676 225.73Z" fill="#002740"/>
<path fill-rule="evenodd" clip-rule="evenodd" d="M519.114 220C519.378 220 519.592 220.226 519.592 220.505V246.55H544.633C544.896 246.55 545.11 246.776 545.11 247.054C545.11 247.333 544.896 247.559 544.633 247.559H518.636V220.505C518.636 220.226 518.85 220 519.114 220Z" fill="#002740"/>
<path d="M525.995 238.777C525.995 239.501 525.439 240.089 524.753 240.089C524.067 240.089 523.51 239.501 523.51 238.777C523.51 238.052 524.067 237.464 524.753 237.464C525.439 237.464 525.995 238.052 525.995 238.777Z" fill="#002740"/>
<path d="M530.583 231.306C530.583 232.031 530.027 232.619 529.341 232.619C528.654 232.619 528.098 232.031 528.098 231.306C528.098 230.582 528.654 229.994 529.341 229.994C530.027 229.994 530.583 230.582 530.583 231.306Z" fill="#002740"/>
<path d="M538.994 232.517C538.994 233.242 538.437 233.83 537.751 233.83C537.065 233.83 536.509 233.242 536.509 232.517C536.509 231.793 537.065 231.205 537.751 231.205C538.437 231.205 538.994 231.793 538.994 232.517Z" fill="#002740"/>
<path d="M544.537 225.855C544.537 226.58 543.98 227.167 543.294 227.167C542.608 227.167 542.052 226.58 542.052 225.855C542.052 225.13 542.608 224.542 543.294 224.542C543.98 224.542 544.537 225.13 544.537 225.855Z" fill="#002740"/>
</g>
<g opacity="0.6">
<path fill-rule="evenodd" clip-rule="evenodd" d="M631.725 225.731C631.843 225.842 631.853 226.034 631.748 226.158L625.909 233.045L617.529 231.637L613.043 239.041C612.958 239.182 612.78 239.223 612.647 239.133C612.513 239.043 612.475 238.855 612.56 238.714L617.249 230.976L625.69 232.395L631.32 225.754C631.426 225.63 631.607 225.619 631.725 225.731Z" fill="#002740"/>
<path fill-rule="evenodd" clip-rule="evenodd" d="M607.163 220C607.427 220 607.641 220.226 607.641 220.505V246.55H632.681C632.945 246.55 633.159 246.776 633.159 247.054C633.159 247.333 632.945 247.559 632.681 247.559H606.685V220.505C606.685 220.226 606.899 220 607.163 220Z" fill="#002740"/>
<path d="M614.044 238.777C614.044 239.501 613.488 240.089 612.802 240.089C612.115 240.089 611.559 239.501 611.559 238.777C611.559 238.052 612.115 237.464 612.802 237.464C613.488 237.464 614.044 238.052 614.044 238.777Z" fill="#002740"/>
<path d="M618.631 231.306C618.631 232.031 618.075 232.619 617.389 232.619C616.703 232.619 616.146 232.031 616.146 231.306C616.146 230.582 616.703 229.994 617.389 229.994C618.075 229.994 618.631 230.582 618.631 231.306Z" fill="#002740"/>
<path d="M627.043 232.517C627.043 233.242 626.486 233.83 625.8 233.83C625.114 233.83 624.558 233.242 624.558 232.517C624.558 231.793 625.114 231.205 625.8 231.205C626.486 231.205 627.043 231.793 627.043 232.517Z" fill="#002740"/>
<path d="M632.586 225.855C632.586 226.58 632.029 227.168 631.343 227.168C630.657 227.168 630.101 226.58 630.101 225.855C630.101 225.131 630.657 224.543 631.343 224.543C632.029 224.543 632.586 225.131 632.586 225.855Z" fill="#002740"/>
</g>
<g opacity="0.6">
<path fill-rule="evenodd" clip-rule="evenodd" d="M719.775 225.73C719.893 225.842 719.903 226.033 719.797 226.158L713.958 233.044L705.579 231.636L701.092 239.04C701.007 239.181 700.83 239.222 700.696 239.132C700.563 239.042 700.524 238.855 700.609 238.714L705.298 230.976L713.74 232.394L719.37 225.754C719.475 225.629 719.657 225.618 719.775 225.73Z" fill="#002740"/>
<path fill-rule="evenodd" clip-rule="evenodd" d="M695.212 220C695.476 220 695.69 220.226 695.69 220.505V246.55H720.73C720.994 246.55 721.208 246.776 721.208 247.054C721.208 247.333 720.994 247.559 720.73 247.559H694.734V220.505C694.734 220.226 694.948 220 695.212 220Z" fill="#002740"/>
<path d="M702.093 238.777C702.093 239.501 701.537 240.089 700.85 240.089C700.164 240.089 699.608 239.501 699.608 238.777C699.608 238.052 700.164 237.464 700.85 237.464C701.537 237.464 702.093 238.052 702.093 238.777Z" fill="#002740"/>
<path d="M706.681 231.306C706.681 232.031 706.124 232.619 705.438 232.619C704.752 232.619 704.196 232.031 704.196 231.306C704.196 230.582 704.752 229.994 705.438 229.994C706.124 229.994 706.681 230.582 706.681 231.306Z" fill="#002740"/>
<path d="M715.091 232.518C715.091 233.243 714.535 233.83 713.849 233.83C713.163 233.83 712.606 233.243 712.606 232.518C712.606 231.793 713.163 231.206 713.849 231.206C714.535 231.206 715.091 231.793 715.091 232.518Z" fill="#002740"/>
<path d="M720.635 225.855C720.635 226.58 720.079 227.168 719.392 227.168C718.706 227.168 718.15 226.58 718.15 225.855C718.15 225.131 718.706 224.543 719.392 224.543C720.079 224.543 720.635 225.131 720.635 225.855Z" fill="#002740"/>
</g>
<g opacity="0.6">
<path fill-rule="evenodd" clip-rule="evenodd" d="M807.823 225.731C807.941 225.842 807.951 226.034 807.845 226.158L802.007 233.045L793.627 231.637L789.141 239.041C789.055 239.182 788.878 239.223 788.745 239.133C788.611 239.043 788.572 238.855 788.658 238.714L793.346 230.976L801.788 232.395L807.418 225.754C807.524 225.63 807.705 225.619 807.823 225.731Z" fill="#002740"/>
<path fill-rule="evenodd" clip-rule="evenodd" d="M783.261 220C783.525 220 783.738 220.226 783.738 220.505V246.55H808.779C809.043 246.55 809.257 246.776 809.257 247.054C809.257 247.333 809.043 247.559 808.779 247.559H782.783V220.505C782.783 220.226 782.997 220 783.261 220Z" fill="#002740"/>
<path d="M790.142 238.777C790.142 239.501 789.586 240.089 788.9 240.089C788.213 240.089 787.657 239.501 787.657 238.777C787.657 238.052 788.213 237.464 788.9 237.464C789.586 237.464 790.142 238.052 790.142 238.777Z" fill="#002740"/>
<path d="M794.73 231.306C794.73 232.031 794.173 232.619 793.487 232.619C792.801 232.619 792.245 232.031 792.245 231.306C792.245 230.582 792.801 229.994 793.487 229.994C794.173 229.994 794.73 230.582 794.73 231.306Z" fill="#002740"/>
<path d="M803.14 232.517C803.14 233.242 802.584 233.83 801.898 233.83C801.212 233.83 800.655 233.242 800.655 232.517C800.655 231.793 801.212 231.205 801.898 231.205C802.584 231.205 803.14 231.793 803.14 232.517Z" fill="#002740"/>
<path d="M808.684 225.855C808.684 226.58 808.127 227.168 807.441 227.168C806.755 227.168 806.199 226.58 806.199 225.855C806.199 225.131 806.755 224.543 807.441 224.543C808.127 224.543 808.684 225.131 808.684 225.855Z" fill="#002740"/>
</g>
<g opacity="0.6">
<path fill-rule="evenodd" clip-rule="evenodd" d="M15.3835 225.731C15.5015 225.842 15.5115 226.034 15.4058 226.158L9.56707 233.045L1.18751 231.637L-3.29889 239.041C-3.38425 239.182 -3.56157 239.223 -3.69495 239.133C-3.82833 239.043 -3.86725 238.855 -3.78189 238.714L0.90687 230.976L9.34843 232.395L14.9786 225.754C15.0843 225.63 15.2655 225.619 15.3835 225.731Z" fill="#002740"/>
<path fill-rule="evenodd" clip-rule="evenodd" d="M-9.17935 220C-8.91543 220 -8.70148 220.226 -8.70148 220.505V246.55H16.3391C16.603 246.55 16.8169 246.776 16.8169 247.054C16.8169 247.333 16.603 247.559 16.3391 247.559H-9.65723L-9.65723 220.505C-9.65723 220.226 -9.44328 220 -9.17935 220Z" fill="#002740"/>
<path d="M2.28963 231.306C2.28963 232.031 1.73335 232.619 1.04716 232.619C0.36096 232.619 -0.195312 232.031 -0.195312 231.306C-0.195312 230.582 0.36096 229.994 1.04716 229.994C1.73335 229.994 2.28963 230.582 2.28963 231.306Z" fill="#002740"/>
<path d="M10.7003 232.517C10.7003 233.242 10.144 233.83 9.4578 233.83C8.7716 233.83 8.21533 233.242 8.21533 232.517C8.21533 231.793 8.7716 231.205 9.4578 231.205C10.144 231.205 10.7003 231.793 10.7003 232.517Z" fill="#002740"/>
<path d="M16.2432 225.855C16.2432 226.58 15.687 227.168 15.0008 227.168C14.3146 227.168 13.7583 226.58 13.7583 225.855C13.7583 225.131 14.3146 224.543 15.0008 224.543C15.687 224.543 16.2432 225.131 16.2432 225.855Z" fill="#002740"/>
</g>
<g opacity="0.6">
<path fill-rule="evenodd" clip-rule="evenodd" d="M103.432 225.73C103.55 225.842 103.56 226.033 103.454 226.158L97.6154 233.044L89.2358 231.636L84.7494 239.04C84.6641 239.181 84.4868 239.222 84.3534 239.132C84.22 239.042 84.1811 238.855 84.2665 238.714L88.9552 230.976L97.3968 232.394L103.027 225.754C103.133 225.629 103.314 225.618 103.432 225.73Z" fill="#002740"/>
<path fill-rule="evenodd" clip-rule="evenodd" d="M78.8695 220C79.1334 220 79.3473 220.226 79.3473 220.505V246.55H104.388C104.652 246.55 104.866 246.776 104.866 247.054C104.866 247.333 104.652 247.559 104.388 247.559H78.3916V220.505C78.3916 220.226 78.6056 220 78.8695 220Z" fill="#002740"/>
<path d="M85.7511 238.777C85.7511 239.501 85.1948 240.089 84.5086 240.089C83.8224 240.089 83.2661 239.501 83.2661 238.777C83.2661 238.052 83.8224 237.464 84.5086 237.464C85.1948 237.464 85.7511 238.052 85.7511 238.777Z" fill="#002740"/>
<path d="M90.3385 231.306C90.3385 232.031 89.7822 232.619 89.096 232.619C88.4098 232.619 87.8535 232.031 87.8535 231.306C87.8535 230.582 88.4098 229.994 89.096 229.994C89.7822 229.994 90.3385 230.582 90.3385 231.306Z" fill="#002740"/>
<path d="M98.7491 232.517C98.7491 233.242 98.1928 233.83 97.5066 233.83C96.8204 233.83 96.2642 233.242 96.2642 232.517C96.2642 231.793 96.8204 231.205 97.5066 231.205C98.1928 231.205 98.7491 231.793 98.7491 232.517Z" fill="#002740"/>
<path d="M104.292 225.855C104.292 226.58 103.736 227.167 103.05 227.167C102.363 227.167 101.807 226.58 101.807 225.855C101.807 225.13 102.363 224.542 103.05 224.542C103.736 224.542 104.292 225.13 104.292 225.855Z" fill="#002740"/>
</g>
<g opacity="0.6">
<path fill-rule="evenodd" clip-rule="evenodd" d="M191.481 225.731C191.599 225.842 191.609 226.034 191.503 226.158L185.664 233.045L177.285 231.637L172.798 239.041C172.713 239.182 172.536 239.223 172.402 239.133C172.269 239.043 172.23 238.855 172.315 238.714L177.004 230.976L185.446 232.395L191.076 225.754C191.181 225.63 191.363 225.619 191.481 225.731Z" fill="#002740"/>
<path fill-rule="evenodd" clip-rule="evenodd" d="M166.918 220C167.182 220 167.396 220.226 167.396 220.505V246.55H192.437C192.701 246.55 192.915 246.776 192.915 247.054C192.915 247.333 192.701 247.559 192.437 247.559H166.44V220.505C166.44 220.226 166.654 220 166.918 220Z" fill="#002740"/>
<path d="M173.799 238.777C173.799 239.501 173.243 240.089 172.557 240.089C171.871 240.089 171.314 239.501 171.314 238.777C171.314 238.052 171.871 237.464 172.557 237.464C173.243 237.464 173.799 238.052 173.799 238.777Z" fill="#002740"/>
<path d="M178.387 231.306C178.387 232.031 177.831 232.619 177.145 232.619C176.459 232.619 175.902 232.031 175.902 231.306C175.902 230.582 176.459 229.994 177.145 229.994C177.831 229.994 178.387 230.582 178.387 231.306Z" fill="#002740"/>
<path d="M186.797 232.517C186.797 233.242 186.241 233.83 185.555 233.83C184.869 233.83 184.312 233.242 184.312 232.517C184.312 231.793 184.869 231.205 185.555 231.205C186.241 231.205 186.797 231.793 186.797 232.517Z" fill="#002740"/>
<path d="M192.341 225.855C192.341 226.58 191.785 227.168 191.098 227.168C190.412 227.168 189.856 226.58 189.856 225.855C189.856 225.131 190.412 224.543 191.098 224.543C191.785 224.543 192.341 225.131 192.341 225.855Z" fill="#002740"/>
</g>
<g opacity="0.6">
<path fill-rule="evenodd" clip-rule="evenodd" d="M279.53 225.73C279.648 225.842 279.658 226.033 279.552 226.158L273.714 233.044L265.334 231.636L260.848 239.04C260.762 239.181 260.585 239.222 260.452 239.132C260.318 239.042 260.279 238.855 260.365 238.714L265.053 230.976L273.495 232.394L279.125 225.754C279.231 225.629 279.412 225.618 279.53 225.73Z" fill="#002740"/>
<path fill-rule="evenodd" clip-rule="evenodd" d="M254.967 220C255.231 220 255.445 220.226 255.445 220.505V246.55H280.486C280.749 246.55 280.963 246.776 280.963 247.054C280.963 247.333 280.749 247.559 280.486 247.559H254.489V220.505C254.489 220.226 254.703 220 254.967 220Z" fill="#002740"/>
<path d="M261.848 238.777C261.848 239.501 261.292 240.089 260.606 240.089C259.92 240.089 259.363 239.501 259.363 238.777C259.363 238.052 259.92 237.464 260.606 237.464C261.292 237.464 261.848 238.052 261.848 238.777Z" fill="#002740"/>
<path d="M266.436 231.306C266.436 232.031 265.88 232.619 265.194 232.619C264.507 232.619 263.951 232.031 263.951 231.306C263.951 230.582 264.507 229.994 265.194 229.994C265.88 229.994 266.436 230.582 266.436 231.306Z" fill="#002740"/>
<path d="M274.847 232.518C274.847 233.243 274.29 233.83 273.604 233.83C272.918 233.83 272.362 233.243 272.362 232.518C272.362 231.793 272.918 231.206 273.604 231.206C274.29 231.206 274.847 231.793 274.847 232.518Z" fill="#002740"/>
<path d="M280.39 225.855C280.39 226.58 279.834 227.168 279.148 227.168C278.462 227.168 277.905 226.58 277.905 225.855C277.905 225.131 278.462 224.543 279.148 224.543C279.834 224.543 280.39 225.131 280.39 225.855Z" fill="#002740"/>
</g>
<g opacity="0.6">
<path fill-rule="evenodd" clip-rule="evenodd" d="M367.578 225.731C367.696 225.842 367.706 226.034 367.601 226.158L361.762 233.045L353.382 231.637L348.896 239.041C348.811 239.182 348.633 239.223 348.5 239.133C348.366 239.043 348.328 238.855 348.413 238.714L353.102 230.976L361.543 232.395L367.173 225.754C367.279 225.63 367.46 225.619 367.578 225.731Z" fill="#002740"/>
<path fill-rule="evenodd" clip-rule="evenodd" d="M343.016 220C343.28 220 343.494 220.226 343.494 220.505V246.55H368.534C368.798 246.55 369.012 246.776 369.012 247.054C369.012 247.333 368.798 247.559 368.534 247.559H342.538V220.505C342.538 220.226 342.752 220 343.016 220Z" fill="#002740"/>
<path d="M349.897 238.777C349.897 239.501 349.341 240.089 348.655 240.089C347.968 240.089 347.412 239.501 347.412 238.777C347.412 238.052 347.968 237.464 348.655 237.464C349.341 237.464 349.897 238.052 349.897 238.777Z" fill="#002740"/>
<path d="M354.485 231.306C354.485 232.031 353.929 232.619 353.242 232.619C352.556 232.619 352 232.031 352 231.306C352 230.582 352.556 229.994 353.242 229.994C353.929 229.994 354.485 230.582 354.485 231.306Z" fill="#002740"/>
<path d="M362.896 232.517C362.896 233.242 362.339 233.83 361.653 233.83C360.967 233.83 360.411 233.242 360.411 232.517C360.411 231.793 360.967 231.205 361.653 231.205C362.339 231.205 362.896 231.793 362.896 232.517Z" fill="#002740"/>
<path d="M368.439 225.855C368.439 226.58 367.882 227.168 367.196 227.168C366.51 227.168 365.954 226.58 365.954 225.855C365.954 225.131 366.51 224.543 367.196 224.543C367.882 224.543 368.439 225.131 368.439 225.855Z" fill="#002740"/>
</g>
<g opacity="0.6">
<path fill-rule="evenodd" clip-rule="evenodd" d="M854.215 32.7306C854.333 32.8421 854.343 33.0336 854.237 33.1582L848.399 40.0448L840.019 38.6367L835.533 46.0409C835.447 46.1818 835.27 46.2229 835.137 46.1327C835.003 46.0425 834.964 45.8552 835.05 45.7144L839.738 37.9762L848.18 39.3947L853.81 32.7541C853.916 32.6295 854.097 32.619 854.215 32.7306Z" fill="#002740"/>
<path fill-rule="evenodd" clip-rule="evenodd" d="M829.652 27C829.916 27 830.13 27.226 830.13 27.5047V53.5495H855.171C855.435 53.5495 855.648 53.7755 855.648 54.0543C855.648 54.3331 855.435 54.559 855.171 54.559H829.174V27.5047C829.174 27.226 829.388 27 829.652 27Z" fill="#002740"/>
<path d="M836.533 45.7767C836.533 46.5015 835.977 47.089 835.291 47.089C834.605 47.089 834.048 46.5015 834.048 45.7767C834.048 45.0519 834.605 44.4644 835.291 44.4644C835.977 44.4644 836.533 45.0519 836.533 45.7767Z" fill="#002740"/>
<path d="M841.121 38.3065C841.121 39.0313 840.565 39.6188 839.879 39.6188C839.193 39.6188 838.636 39.0313 838.636 38.3065C838.636 37.5817 839.193 36.9941 839.879 36.9941C840.565 36.9941 841.121 37.5817 841.121 38.3065Z" fill="#002740"/>
<path d="M849.532 39.5174C849.532 40.2422 848.976 40.8297 848.289 40.8297C847.603 40.8297 847.047 40.2422 847.047 39.5174C847.047 38.7926 847.603 38.2051 848.289 38.2051C848.976 38.2051 849.532 38.7926 849.532 39.5174Z" fill="#002740"/>
<path d="M855.075 32.8553C855.075 33.5801 854.519 34.1676 853.832 34.1676C853.146 34.1676 852.59 33.5801 852.59 32.8553C852.59 32.1305 853.146 31.543 853.832 31.543C854.519 31.543 855.075 32.1305 855.075 32.8553Z" fill="#002740"/>
</g>
<g opacity="0.6">
<path fill-rule="evenodd" clip-rule="evenodd" d="M909.127 93.7306C909.245 93.8421 909.255 94.0336 909.149 94.1582L903.311 101.045L894.931 99.6367L890.445 107.041C890.359 107.182 890.182 107.223 890.049 107.133C889.915 107.043 889.876 106.855 889.962 106.714L894.651 98.9762L903.092 100.395L908.722 93.7541C908.828 93.6295 909.009 93.619 909.127 93.7306Z" fill="#002740"/>
<path fill-rule="evenodd" clip-rule="evenodd" d="M884.564 88C884.828 88 885.042 88.226 885.042 88.5047V114.55H910.083C910.347 114.55 910.561 114.776 910.561 115.054C910.561 115.333 910.347 115.559 910.083 115.559H884.086V88.5047C884.086 88.226 884.3 88 884.564 88Z" fill="#002740"/>
<path d="M891.445 106.777C891.445 107.501 890.889 108.089 890.203 108.089C889.517 108.089 888.96 107.501 888.96 106.777C888.96 106.052 889.517 105.464 890.203 105.464C890.889 105.464 891.445 106.052 891.445 106.777Z" fill="#002740"/>
<path d="M896.033 99.3065C896.033 100.031 895.477 100.619 894.791 100.619C894.105 100.619 893.548 100.031 893.548 99.3065C893.548 98.5817 894.105 97.9941 894.791 97.9941C895.477 97.9941 896.033 98.5817 896.033 99.3065Z" fill="#002740"/>
</g>
<g opacity="0.6">
<path fill-rule="evenodd" clip-rule="evenodd" d="M854.215 164.731C854.333 164.842 854.343 165.034 854.237 165.158L848.399 172.045L840.019 170.637L835.533 178.041C835.447 178.182 835.27 178.223 835.137 178.133C835.003 178.043 834.964 177.855 835.05 177.714L839.738 169.976L848.18 171.395L853.81 164.754C853.916 164.63 854.097 164.619 854.215 164.731Z" fill="#002740"/>
<path fill-rule="evenodd" clip-rule="evenodd" d="M829.652 159C829.916 159 830.13 159.226 830.13 159.505V185.55H855.171C855.435 185.55 855.648 185.776 855.648 186.054C855.648 186.333 855.435 186.559 855.171 186.559H829.174V159.505C829.174 159.226 829.388 159 829.652 159Z" fill="#002740"/>
<path d="M836.533 177.777C836.533 178.501 835.977 179.089 835.291 179.089C834.605 179.089 834.048 178.501 834.048 177.777C834.048 177.052 834.605 176.464 835.291 176.464C835.977 176.464 836.533 177.052 836.533 177.777Z" fill="#002740"/>
<path d="M841.121 170.306C841.121 171.031 840.565 171.619 839.879 171.619C839.193 171.619 838.636 171.031 838.636 170.306C838.636 169.582 839.193 168.994 839.879 168.994C840.565 168.994 841.121 169.582 841.121 170.306Z" fill="#002740"/>
<path d="M849.532 171.517C849.532 172.242 848.976 172.83 848.289 172.83C847.603 172.83 847.047 172.242 847.047 171.517C847.047 170.793 847.603 170.205 848.289 170.205C848.976 170.205 849.532 170.793 849.532 171.517Z" fill="#002740"/>
<path d="M855.075 164.855C855.075 165.58 854.519 166.168 853.832 166.168C853.146 166.168 852.59 165.58 852.59 164.855C852.59 164.131 853.146 163.543 853.832 163.543C854.519 163.543 855.075 164.131 855.075 164.855Z" fill="#002740"/>
</g>
<g opacity="0.6">
<path fill-rule="evenodd" clip-rule="evenodd" d="M909.127 225.731C909.245 225.842 909.255 226.034 909.149 226.158L903.311 233.045L894.931 231.637L890.445 239.041C890.359 239.182 890.182 239.223 890.049 239.133C889.915 239.043 889.876 238.855 889.962 238.714L894.651 230.976L903.092 232.395L908.722 225.754C908.828 225.63 909.009 225.619 909.127 225.731Z" fill="#002740"/>
<path fill-rule="evenodd" clip-rule="evenodd" d="M884.564 220C884.828 220 885.042 220.226 885.042 220.505V246.55H910.083C910.347 246.55 910.561 246.776 910.561 247.054C910.561 247.333 910.347 247.559 910.083 247.559H884.086V220.505C884.086 220.226 884.3 220 884.564 220Z" fill="#002740"/>
<path d="M891.445 238.777C891.445 239.501 890.889 240.089 890.203 240.089C889.517 240.089 888.96 239.501 888.96 238.777C888.96 238.052 889.517 237.464 890.203 237.464C890.889 237.464 891.445 238.052 891.445 238.777Z" fill="#002740"/>
<path d="M896.033 231.306C896.033 232.031 895.477 232.619 894.791 232.619C894.105 232.619 893.548 232.031 893.548 231.306C893.548 230.582 894.105 229.994 894.791 229.994C895.477 229.994 896.033 230.582 896.033 231.306Z" fill="#002740"/>
</g>
</g>
<rect y="303" width="1500" height="68" fill="#E6A513"/>
<rect y="291" width="1500" height="26" fill="#B8840F"/>
<ellipse opacity="0.3" cx="849.962" cy="327.255" rx="33.0362" ry="6.68968" fill="#B8840F"/>
<mask id="path-250-outside-1_34815_2359" maskUnits="userSpaceOnUse" x="802.541" y="250.056" width="85" height="79" fill="black">
<rect fill="white" x="802.541" y="250.056" width="85" height="79"/>
<path d="M863.196 253.056C866.296 253.056 868.65 255.849 868.124 258.905L866.375 269.053C868.073 269.294 869.739 269.752 871.332 270.42C874.162 271.606 876.684 273.424 878.704 275.734C880.724 278.045 882.189 280.786 882.987 283.75C883.785 286.713 883.894 289.82 883.307 292.832C882.72 295.844 881.452 298.683 879.599 301.13C877.747 303.577 875.359 305.567 872.619 306.95C869.879 308.332 866.859 309.07 863.791 309.106C862.36 309.123 860.937 308.985 859.544 308.702L857.271 321.903C856.858 324.302 854.777 326.054 852.343 326.054H821.878C819.43 326.054 817.341 324.28 816.944 321.864L806.608 258.866C806.109 255.822 808.458 253.056 811.542 253.056H863.196ZM860.475 303.3C861.54 303.528 862.629 303.64 863.725 303.627C865.958 303.6 868.156 303.063 870.15 302.057C872.144 301.051 873.882 299.603 875.23 297.822C876.578 296.041 877.501 293.976 877.928 291.784C878.356 289.592 878.275 287.331 877.695 285.175C877.114 283.018 876.049 281.022 874.579 279.341C873.109 277.659 871.273 276.337 869.213 275.473C868.004 274.967 866.736 274.627 865.444 274.459L860.475 303.3Z"/>
</mask>
<path d="M863.196 253.056C866.296 253.056 868.65 255.849 868.124 258.905L866.375 269.053C868.073 269.294 869.739 269.752 871.332 270.42C874.162 271.606 876.684 273.424 878.704 275.734C880.724 278.045 882.189 280.786 882.987 283.75C883.785 286.713 883.894 289.82 883.307 292.832C882.72 295.844 881.452 298.683 879.599 301.13C877.747 303.577 875.359 305.567 872.619 306.95C869.879 308.332 866.859 309.07 863.791 309.106C862.36 309.123 860.937 308.985 859.544 308.702L857.271 321.903C856.858 324.302 854.777 326.054 852.343 326.054H821.878C819.43 326.054 817.341 324.28 816.944 321.864L806.608 258.866C806.109 255.822 808.458 253.056 811.542 253.056H863.196ZM860.475 303.3C861.54 303.528 862.629 303.64 863.725 303.627C865.958 303.6 868.156 303.063 870.15 302.057C872.144 301.051 873.882 299.603 875.23 297.822C876.578 296.041 877.501 293.976 877.928 291.784C878.356 289.592 878.275 287.331 877.695 285.175C877.114 283.018 876.049 281.022 874.579 279.341C873.109 277.659 871.273 276.337 869.213 275.473C868.004 274.967 866.736 274.627 865.444 274.459L860.475 303.3Z" fill="white"/>
<path d="M868.124 258.905L871.08 259.415L871.08 259.414L868.124 258.905ZM866.375 269.053L863.418 268.544L862.893 271.59L865.954 272.024L866.375 269.053ZM871.332 270.42L872.491 267.653L872.491 267.653L871.332 270.42ZM878.704 275.734L880.962 273.759L880.962 273.759L878.704 275.734ZM882.987 283.75L885.884 282.97V282.97L882.987 283.75ZM883.307 292.832L886.252 293.406L886.252 293.406L883.307 292.832ZM879.599 301.13L881.991 302.94L881.991 302.94L879.599 301.13ZM872.619 306.95L873.97 309.628L873.97 309.628L872.619 306.95ZM863.791 309.106L863.826 312.106H863.826L863.791 309.106ZM859.544 308.702L860.142 305.762L857.113 305.146L856.588 308.193L859.544 308.702ZM857.271 321.903L860.227 322.412L860.227 322.412L857.271 321.903ZM816.944 321.864L813.983 322.35L813.983 322.35L816.944 321.864ZM806.608 258.866L809.568 258.38L809.568 258.38L806.608 258.866ZM860.475 303.3L857.519 302.79L857.03 305.628L859.845 306.233L860.475 303.3ZM863.725 303.627L863.76 306.626H863.761L863.725 303.627ZM870.15 302.057L871.501 304.736L871.501 304.736L870.15 302.057ZM875.23 297.822L877.622 299.633L877.622 299.633L875.23 297.822ZM877.928 291.784L880.873 292.358V292.358L877.928 291.784ZM877.695 285.175L880.592 284.395L880.592 284.395L877.695 285.175ZM874.579 279.341L876.837 277.366L876.837 277.366L874.579 279.341ZM869.213 275.473L870.373 272.707L870.373 272.707L869.213 275.473ZM865.444 274.459L865.831 271.484L862.976 271.112L862.487 273.949L865.444 274.459ZM863.196 253.056V256.056C864.436 256.056 865.378 257.174 865.167 258.396L868.124 258.905L871.08 259.414C871.922 254.525 868.157 250.056 863.196 250.056V253.056ZM868.124 258.905L865.167 258.396L863.418 268.544L866.375 269.053L869.331 269.563L871.08 259.415L868.124 258.905ZM866.375 269.053L865.954 272.024C867.398 272.228 868.816 272.618 870.172 273.187L871.332 270.42L872.491 267.653C870.662 266.886 868.748 266.36 866.795 266.083L866.375 269.053ZM871.332 270.42L870.172 273.187C872.58 274.196 874.726 275.743 876.445 277.709L878.704 275.734L880.962 273.759C878.641 271.105 875.743 269.016 872.491 267.653L871.332 270.42ZM878.704 275.734L876.445 277.709C878.164 279.675 879.411 282.008 880.09 284.53L882.987 283.75L885.884 282.97C884.967 279.564 883.283 276.414 880.962 273.759L878.704 275.734ZM882.987 283.75L880.09 284.53C880.769 287.051 880.862 289.695 880.363 292.258L883.307 292.832L886.252 293.406C886.926 289.944 886.8 286.375 885.884 282.97L882.987 283.75ZM883.307 292.832L880.363 292.258C879.863 294.821 878.783 297.237 877.207 299.319L879.599 301.13L881.991 302.94C884.12 300.129 885.577 296.867 886.252 293.406L883.307 292.832ZM879.599 301.13L877.207 299.319C875.631 301.401 873.599 303.095 871.267 304.272L872.619 306.95L873.97 309.628C877.118 308.04 879.862 305.752 881.991 302.94L879.599 301.13ZM872.619 306.95L871.267 304.272C868.936 305.448 866.366 306.075 863.755 306.106L863.791 309.106L863.826 312.106C867.352 312.064 870.822 311.217 873.97 309.628L872.619 306.95ZM863.791 309.106L863.755 306.106C862.541 306.121 861.331 306.004 860.142 305.762L859.544 308.702L858.947 311.642C860.544 311.966 862.179 312.125 863.826 312.106L863.791 309.106ZM859.544 308.702L856.588 308.193L854.315 321.394L857.271 321.903L860.227 322.412L862.501 309.211L859.544 308.702ZM857.271 321.903L854.315 321.394C854.149 322.353 853.317 323.054 852.343 323.054V326.054V329.054C856.237 329.054 859.566 326.25 860.227 322.412L857.271 321.903ZM852.343 326.054V323.054H821.878V326.054V329.054H852.343V326.054ZM821.878 326.054V323.054C820.899 323.054 820.063 322.345 819.904 321.378L816.944 321.864L813.983 322.35C814.618 326.216 817.96 329.054 821.878 329.054V326.054ZM816.944 321.864L819.904 321.378L809.568 258.38L806.608 258.866L803.647 259.352L813.983 322.35L816.944 321.864ZM806.608 258.866L809.568 258.38C809.369 257.163 810.308 256.056 811.542 256.056V253.056V250.056C806.608 250.056 802.848 254.481 803.647 259.352L806.608 258.866ZM811.542 253.056V256.056H863.196V253.056V250.056H811.542V253.056ZM860.475 303.3L859.845 306.233C861.125 306.508 862.438 306.642 863.76 306.626L863.725 303.627L863.69 300.627C862.821 300.637 861.954 300.549 861.105 300.367L860.475 303.3ZM863.725 303.627L863.761 306.626C866.451 306.595 869.099 305.948 871.501 304.736L870.15 302.057L868.798 299.379C867.213 300.179 865.465 300.606 863.69 300.627L863.725 303.627ZM870.15 302.057L871.501 304.736C873.903 303.524 875.997 301.779 877.622 299.633L875.23 297.822L872.838 296.011C871.766 297.427 870.384 298.579 868.798 299.379L870.15 302.057ZM875.23 297.822L877.622 299.633C879.246 297.487 880.358 294.999 880.873 292.358L877.928 291.784L874.984 291.21C874.644 292.953 873.91 294.595 872.838 296.011L875.23 297.822ZM877.928 291.784L880.873 292.358C881.388 289.716 881.291 286.993 880.592 284.395L877.695 285.175L874.798 285.954C875.26 287.67 875.323 289.467 874.984 291.21L877.928 291.784ZM877.695 285.175L880.592 284.395C879.892 281.797 878.609 279.392 876.837 277.366L874.579 279.341L872.32 281.315C873.489 282.652 874.336 284.239 874.798 285.954L877.695 285.175ZM874.579 279.341L876.837 277.366C875.066 275.34 872.854 273.746 870.373 272.707L869.213 275.473L868.054 278.24C869.692 278.927 871.151 279.979 872.32 281.315L874.579 279.341ZM869.213 275.473L870.373 272.707C868.915 272.095 867.387 271.686 865.831 271.484L865.444 274.459L865.056 277.434C866.085 277.568 867.094 277.838 868.054 278.24L869.213 275.473ZM865.444 274.459L862.487 273.949L857.519 302.79L860.475 303.3L863.432 303.809L868.4 274.968L865.444 274.459Z" fill="#FEC955" mask="url(#path-250-outside-1_34815_2359)"/>
<path d="M863.494 253.056C866.595 253.057 868.947 255.849 868.421 258.905L857.568 321.903C857.155 324.301 855.075 326.054 852.642 326.054H845.237L856.215 253.056H863.494Z" fill="#F7F7F7"/>
<g clip-path="url(#clip1_34815_2359)">
<path d="M847.792 295.778C847.514 296.229 847.188 296.603 846.812 296.895C846.353 297.248 845.881 297.426 845.392 297.426C844.712 297.426 844.3 297.164 844.158 296.645L843.867 296.595L843.625 297.923C844.051 298.162 844.473 298.283 844.89 298.283C846.14 298.283 847.303 297.446 848.378 295.778H847.793H847.792Z" fill="#2A3C51"/>
<path d="M851.28 294.302C851.738 294.575 852.084 294.749 852.317 294.833C852.673 294.969 853.09 295.037 853.568 295.037C854.412 295.037 855.063 294.817 855.52 294.381C855.927 293.988 856.131 293.459 856.131 292.803C856.131 292.232 855.826 291.628 855.215 290.996C854.677 290.453 854.341 290.093 854.208 289.919C853.944 289.585 853.812 289.266 853.812 288.967C853.812 288.705 853.908 288.478 854.102 288.28C854.305 288.083 854.59 287.982 854.956 287.982C855.2 287.982 855.459 288.06 855.734 288.216C856.019 288.364 856.207 288.546 856.298 288.762C856.349 288.887 856.375 289.051 856.375 289.248L856.771 289.373L857.229 287.891C856.588 287.534 855.916 287.36 855.215 287.36C854.514 287.36 853.908 287.576 853.461 288.016C853.014 288.44 852.79 288.956 852.79 289.559C852.79 290.101 853.044 290.647 853.553 291.197L854.513 292.258C854.91 292.706 855.109 293.101 855.109 293.446C855.109 293.697 855.017 293.908 854.833 294.087C854.61 294.314 854.27 294.428 853.812 294.428C853.436 294.428 853.08 294.325 852.745 294.118C852.338 293.879 852.135 293.571 852.135 293.195C852.135 293.135 852.144 293.025 852.166 292.87L851.723 292.76L851.28 294.303V294.302Z" fill="#2A3C51"/>
<path d="M838.07 294.302C838.528 294.575 838.875 294.749 839.108 294.833C839.475 294.969 839.892 295.037 840.359 295.037C841.214 295.037 841.864 294.817 842.313 294.381C842.729 293.988 842.936 293.459 842.936 292.803C842.936 292.232 842.627 291.628 842.006 290.996C841.467 290.453 841.131 290.093 841 289.919C840.745 289.585 840.618 289.266 840.618 288.967C840.618 288.705 840.714 288.478 840.908 288.28C841.111 288.083 841.391 287.982 841.747 287.982C841.991 287.982 842.251 288.06 842.525 288.216C842.811 288.364 842.998 288.546 843.09 288.762C843.14 288.887 843.167 289.051 843.167 289.248L843.563 289.373L844.021 287.891C843.379 287.534 842.709 287.36 842.007 287.36C841.304 287.36 840.701 287.576 840.252 288.016C839.805 288.44 839.581 288.956 839.581 289.559C839.581 290.101 839.835 290.647 840.344 291.197L841.304 292.258C841.701 292.706 841.901 293.101 841.901 293.446C841.901 293.697 841.808 293.908 841.625 294.087C841.402 294.314 841.067 294.428 840.619 294.428C840.232 294.428 839.873 294.325 839.536 294.118C839.129 293.879 838.926 293.571 838.926 293.195C838.926 293.135 838.942 293.025 838.972 292.87L838.514 292.76L838.071 294.303L838.07 294.302Z" fill="#2A3C51"/>
<path d="M837.415 292.789C836.937 293.506 836.572 293.865 836.318 293.865C836.083 293.865 835.966 293.737 835.966 293.474C835.966 293.309 836.003 293.043 836.073 292.679L837.171 287.359C836.977 287.389 836.784 287.404 836.592 287.404C836.51 287.404 836.327 287.401 836.041 287.389C835.766 287.37 835.563 287.359 835.431 287.359C834.273 287.359 833.224 287.734 832.289 288.481C831.507 289.107 830.877 289.919 830.398 290.915C829.971 291.791 829.758 292.565 829.758 293.239C829.758 293.722 829.864 294.12 830.078 294.442C830.332 294.839 830.698 295.037 831.176 295.037C831.938 295.037 832.737 294.552 833.571 293.585C834.151 292.91 834.679 292.087 835.157 291.121L835.187 291.151L834.929 292.257C834.766 292.998 834.685 293.612 834.685 294.101C834.685 294.727 834.933 295.037 835.431 295.037C836.113 295.037 836.912 294.339 837.827 292.944L837.414 292.789H837.415ZM831.039 293.149C831.039 292.66 831.161 292.073 831.406 291.386C831.63 290.771 831.898 290.214 832.213 289.713C832.65 289.027 833.124 288.553 833.633 288.296C834.049 288.087 834.577 287.981 835.219 287.981C835.403 287.981 835.589 288.004 835.784 288.045C835.722 289.096 835.187 290.396 834.181 291.947C833.175 293.486 832.347 294.256 831.694 294.256C831.257 294.256 831.039 293.888 831.039 293.149" fill="#2A3C51"/>
<path d="M817.557 289.278C817.557 291.014 818.111 292.452 819.219 293.586C820.327 294.708 821.696 295.273 823.322 295.273C825.397 295.273 827.029 294.568 828.218 293.164C829.214 291.989 829.712 290.643 829.712 289.122C829.712 287.394 829.159 285.979 828.051 284.876C826.952 283.766 825.519 283.208 823.749 283.208C821.98 283.208 820.404 283.866 819.204 285.19C818.106 286.384 817.557 287.751 817.557 289.278ZM819.097 289.357C819.097 287.818 819.57 286.521 820.516 285.471C821.461 284.421 822.595 283.893 823.917 283.893C825.097 283.893 826.089 284.338 826.891 285.221C827.745 286.158 828.173 287.378 828.173 288.886C828.173 290.502 827.72 291.851 826.815 292.944C825.92 294.036 824.786 294.586 823.413 294.586C822.04 294.586 820.943 294.029 820.149 292.914C819.448 291.924 819.097 290.74 819.097 289.357" fill="#2A3C51"/>
<path d="M848.377 295.778C848.466 295.639 848.554 295.499 848.641 295.348L849.939 293.149C851.484 290.506 852.257 288.857 852.257 288.201C852.257 287.64 852.058 287.359 851.662 287.359C851.408 287.359 851.123 287.461 850.808 287.669C850.686 287.741 850.406 287.962 849.969 288.326L850.106 288.671C850.32 288.493 850.523 288.405 850.718 288.405C850.971 288.405 851.097 288.561 851.097 288.872C851.097 289.32 850.767 290.187 850.106 291.477L848.733 294.162H848.703C848.611 293.589 848.469 292.876 848.276 292.023C848.032 290.931 847.904 290.359 847.895 290.309C847.651 289.122 847.38 288.299 847.085 287.841C846.872 287.519 846.608 287.359 846.293 287.359C845.795 287.359 845.129 287.891 844.296 288.952L844.036 289.278L844.418 289.574C844.855 288.876 845.256 288.532 845.622 288.532C846.039 288.532 846.365 289.036 846.598 290.045L847.878 295.629C847.851 295.681 847.822 295.728 847.793 295.779H848.378L848.377 295.778Z" fill="#2A3C51"/>
</g>
<ellipse opacity="0.3" cx="156" cy="318.5" rx="30" ry="8.5" fill="#09090B" fill-opacity="0.5"/>
<ellipse opacity="0.3" cx="85" cy="300.5" rx="35" ry="8.5" fill="#09090B" fill-opacity="0.5"/>
<path d="M74.71 207C75.8144 207 76.7099 207.896 76.71 209V211.387C76.71 212.491 75.8144 213.387 74.71 213.387H72.4512V239.779C87.088 243.157 98 256.273 98 271.936C98 290.161 83.2254 304.936 65 304.936C46.7746 304.936 32 290.161 32 271.936C32 257.042 41.8663 244.455 55.4189 240.35V213.387H53.1611C52.0566 213.387 51.1611 212.491 51.1611 211.387V209C51.1612 207.896 52.0567 207 53.1611 207H74.71Z" fill="white"/>
<path opacity="0.2" d="M70 243.366C83.6334 245.736 94 257.624 94 271.936C94 287.952 81.0163 300.936 65 300.936C48.9837 300.936 36 287.952 36 271.936C36 258.333 45.3657 246.92 58 243.788V212.936H70V243.366Z" fill="#176FA9"/>
<path d="M93.7051 270.503C93.7284 270.978 93.7422 271.455 93.7422 271.936C93.7422 287.809 80.8737 300.678 65 300.678C49.1263 300.678 36.2578 287.809 36.2578 271.936C36.2578 271.899 36.2587 271.863 36.2588 271.827C39.2939 270.98 43.3127 270.406 47.9678 270.871C58.6129 271.936 63.9359 280.451 74.5811 278.322C80.8648 277.065 88.2612 273.583 93.7051 270.503Z" fill="#F3DB23"/>
<path d="M93.7051 270.503C93.7284 270.978 93.7422 271.455 93.7422 271.936C93.7422 287.809 80.8737 300.678 65 300.678C57.3505 300.678 50.3999 297.688 45.25 292.815C49.2734 294.959 53.8655 296.175 58.7422 296.175C72.322 296.175 83.6995 286.756 86.7051 274.096C89.2114 272.938 91.6042 271.692 93.7051 270.503Z" fill="#FDB515"/>
<path d="M76.4287 254.218C87.6799 258.584 90.0728 270.797 84.5941 279.125" stroke="white" stroke-width="3.465" stroke-linecap="round"/>
<path d="M83.5 289C83.5 290.933 81.933 292.5 80 292.5C78.067 292.5 76.5 290.933 76.5 289C76.5 287.067 78.067 285.5 80 285.5C81.933 285.5 83.5 287.067 83.5 289Z" fill="white"/>
<g opacity="0.8">
<path opacity="0.2" d="M141.552 279.608C150.933 281.489 158 289.772 158 299.707C158 311.029 148.822 320.207 137.5 320.207C126.178 320.207 117 311.029 117 299.707C117 290.091 123.621 282.023 132.552 279.81V258H141.552V279.608Z" fill="#002740"/>
</g>
<path d="M144.014 255C145.118 255 146.014 255.895 146.014 257V257.431C146.014 258.535 145.118 259.431 144.014 259.431H143.061V277.738C153.213 280.082 160.782 289.179 160.782 300.044C160.782 312.686 150.534 322.935 137.892 322.936C125.249 322.936 115 312.686 115 300.044C115 289.713 121.844 280.982 131.245 278.134V259.431H130.292C129.187 259.431 128.292 258.535 128.292 257.431V257C128.292 255.895 129.187 255 130.292 255H144.014ZM133.035 259.117V280.519C124.271 282.691 117.775 290.608 117.774 300.044C117.774 311.154 126.781 320.161 137.891 320.161C149.001 320.161 158.008 311.154 158.008 300.044C158.008 290.117 150.816 281.87 141.359 280.227V259.117H133.035Z" fill="white"/>
<path d="M157.804 299.047C157.82 299.377 157.829 299.71 157.829 300.045C157.829 311.056 148.902 319.982 137.891 319.982C126.88 319.982 117.954 311.056 117.954 300.045C117.954 300.02 117.954 299.995 117.954 299.97C120.059 299.382 122.847 298.983 126.077 299.306C133.461 300.045 137.153 305.952 144.538 304.475C148.897 303.603 154.028 301.184 157.804 299.047Z" fill="#0061A0"/>
<path d="M157.805 299.047C157.821 299.377 157.829 299.71 157.829 300.045C157.829 311.056 148.903 319.982 137.892 319.982C132.585 319.982 127.763 317.908 124.19 314.527C126.981 316.014 130.167 316.859 133.55 316.859C142.971 316.859 150.864 310.324 152.948 301.541C154.687 300.737 156.347 299.871 157.805 299.047Z" fill="#002740"/>
<path d="M145 285.946C153.742 289.339 155.602 298.828 151.345 305.299" stroke="white" stroke-width="2" stroke-linecap="round"/>
<path d="M145 285.946C153.742 289.339 155.602 298.828 151.345 305.299" stroke="white" stroke-width="2" stroke-linecap="round"/>
</g>
<defs>
<clipPath id="clip0_34815_2359">
<rect width="900" height="350" fill="white"/>
</clipPath>
<clipPath id="clip1_34815_2359">
<rect width="39.6726" height="15.0756" fill="white" transform="translate(817.557 283.208)"/>
</clipPath>
</defs>
</svg>
