<svg width="160" height="160" viewBox="0 0 160 160" fill="none" xmlns="http://www.w3.org/2000/svg">
<g clip-path="url(#clip0_34815_3001)">
<rect width="160" height="160" rx="8" fill="#D1E3FA"/>
<g opacity="0.2">
<g opacity="0.6">
<path fill-rule="evenodd" clip-rule="evenodd" d="M30.9646 17.5823C31.0177 17.6326 31.0222 17.7189 30.9746 17.775L28.3433 20.8785L24.567 20.2439L22.5452 23.5807C22.5067 23.6442 22.4268 23.6627 22.3667 23.6221C22.3066 23.5814 22.2891 23.497 22.3275 23.4336L24.4406 19.9463L28.2448 20.5856L30.7821 17.5929C30.8297 17.5368 30.9114 17.532 30.9646 17.5823Z" fill="#002740"/>
<path fill-rule="evenodd" clip-rule="evenodd" d="M19.8953 15C20.0142 15 20.1106 15.1018 20.1106 15.2275V26.9648H31.3954C31.5143 26.9648 31.6107 27.0666 31.6107 27.1922C31.6107 27.3179 31.5143 27.4197 31.3954 27.4197H19.6799V15.2275C19.6799 15.1018 19.7764 15 19.8953 15Z" fill="#002740"/>
<path d="M22.9966 23.4619C22.9966 23.7885 22.7459 24.0533 22.4366 24.0533C22.1274 24.0533 21.8767 23.7885 21.8767 23.4619C21.8767 23.1352 22.1274 22.8705 22.4366 22.8705C22.7459 22.8705 22.9966 23.1352 22.9966 23.4619Z" fill="#002740"/>
<path d="M25.0639 20.0954C25.0639 20.422 24.8133 20.6868 24.504 20.6868C24.1948 20.6868 23.9441 20.422 23.9441 20.0954C23.9441 19.7687 24.1948 19.5039 24.504 19.5039C24.8133 19.5039 25.0639 19.7687 25.0639 20.0954Z" fill="#002740"/>
<path d="M28.8542 20.6411C28.8542 20.9677 28.6035 21.2325 28.2943 21.2325C27.9851 21.2325 27.7344 20.9677 27.7344 20.6411C27.7344 20.3144 27.9851 20.0497 28.2943 20.0497C28.6035 20.0497 28.8542 20.3144 28.8542 20.6411Z" fill="#002740"/>
<path d="M31.3523 17.6385C31.3523 17.9652 31.1016 18.2299 30.7924 18.2299C30.4831 18.2299 30.2324 17.9652 30.2324 17.6385C30.2324 17.3119 30.4831 17.0471 30.7924 17.0471C31.1016 17.0471 31.3523 17.3119 31.3523 17.6385Z" fill="#002740"/>
</g>
<g opacity="0.6">
<path fill-rule="evenodd" clip-rule="evenodd" d="M70.6445 17.5825C70.6977 17.6328 70.7022 17.7191 70.6546 17.7753L68.0233 20.8787L64.247 20.2442L62.2251 23.5809C62.1867 23.6444 62.1067 23.663 62.0466 23.6223C61.9865 23.5817 61.969 23.4973 62.0075 23.4338L64.1205 19.9465L67.9247 20.5858L70.462 17.5932C70.5096 17.537 70.5913 17.5323 70.6445 17.5825Z" fill="#002740"/>
<path fill-rule="evenodd" clip-rule="evenodd" d="M59.5753 15C59.6943 15 59.7907 15.1018 59.7907 15.2275V26.9648H71.0754C71.1944 26.9648 71.2908 27.0666 71.2908 27.1922C71.2908 27.3179 71.1944 27.4197 71.0754 27.4197H59.36V15.2275C59.36 15.1018 59.4564 15 59.5753 15Z" fill="#002740"/>
<path d="M62.6765 23.4619C62.6765 23.7885 62.4258 24.0533 62.1166 24.0533C61.8073 24.0533 61.5566 23.7885 61.5566 23.4619C61.5566 23.1352 61.8073 22.8705 62.1166 22.8705C62.4258 22.8705 62.6765 23.1352 62.6765 23.4619Z" fill="#002740"/>
<path d="M64.7439 20.0954C64.7439 20.422 64.4932 20.6868 64.184 20.6868C63.8747 20.6868 63.624 20.422 63.624 20.0954C63.624 19.7687 63.8747 19.5039 64.184 19.5039C64.4932 19.5039 64.7439 19.7687 64.7439 20.0954Z" fill="#002740"/>
<path d="M68.5343 20.6411C68.5343 20.9677 68.2836 21.2325 67.9744 21.2325C67.6651 21.2325 67.4144 20.9677 67.4144 20.6411C67.4144 20.3144 67.6651 20.0497 67.9744 20.0497C68.2836 20.0497 68.5343 20.3144 68.5343 20.6411Z" fill="#002740"/>
<path d="M71.0323 17.6387C71.0323 17.9654 70.7816 18.2302 70.4724 18.2302C70.1632 18.2302 69.9125 17.9654 69.9125 17.6387C69.9125 17.3121 70.1632 17.0473 70.4724 17.0473C70.7816 17.0473 71.0323 17.3121 71.0323 17.6387Z" fill="#002740"/>
</g>
<g opacity="0.6">
<path fill-rule="evenodd" clip-rule="evenodd" d="M110.325 17.5823C110.378 17.6326 110.382 17.7189 110.335 17.775L107.703 20.8785L103.927 20.2439L101.905 23.5807C101.867 23.6442 101.787 23.6627 101.727 23.6221C101.667 23.5814 101.649 23.497 101.688 23.4336L103.801 19.9463L107.605 20.5856L110.142 17.5929C110.19 17.5368 110.272 17.532 110.325 17.5823Z" fill="#002740"/>
<path fill-rule="evenodd" clip-rule="evenodd" d="M99.2553 15C99.3742 15 99.4706 15.1018 99.4706 15.2275V26.9648H110.755C110.874 26.9648 110.971 27.0666 110.971 27.1922C110.971 27.3179 110.874 27.4197 110.755 27.4197H99.0399V15.2275C99.0399 15.1018 99.1363 15 99.2553 15Z" fill="#002740"/>
<path d="M102.356 23.4619C102.356 23.7885 102.106 24.0533 101.797 24.0533C101.487 24.0533 101.237 23.7885 101.237 23.4619C101.237 23.1352 101.487 22.8705 101.797 22.8705C102.106 22.8705 102.356 23.1352 102.356 23.4619Z" fill="#002740"/>
<path d="M104.424 20.0954C104.424 20.422 104.173 20.6868 103.864 20.6868C103.555 20.6868 103.304 20.422 103.304 20.0954C103.304 19.7687 103.555 19.5039 103.864 19.5039C104.173 19.5039 104.424 19.7687 104.424 20.0954Z" fill="#002740"/>
<path d="M108.214 20.6413C108.214 20.9679 107.964 21.2327 107.654 21.2327C107.345 21.2327 107.094 20.9679 107.094 20.6413C107.094 20.3147 107.345 20.0499 107.654 20.0499C107.964 20.0499 108.214 20.3147 108.214 20.6413Z" fill="#002740"/>
<path d="M110.713 17.6387C110.713 17.9654 110.462 18.2302 110.153 18.2302C109.843 18.2302 109.593 17.9654 109.593 17.6387C109.593 17.3121 109.843 17.0473 110.153 17.0473C110.462 17.0473 110.713 17.3121 110.713 17.6387Z" fill="#002740"/>
</g>
<g opacity="0.6">
<path fill-rule="evenodd" clip-rule="evenodd" d="M150.004 17.5825C150.058 17.6328 150.062 17.7191 150.015 17.7753L147.383 20.8787L143.607 20.2442L141.585 23.5809C141.547 23.6444 141.467 23.663 141.407 23.6223C141.347 23.5817 141.329 23.4973 141.367 23.4338L143.48 19.9465L147.285 20.5858L149.822 17.5932C149.87 17.537 149.951 17.5323 150.004 17.5825Z" fill="#002740"/>
<path fill-rule="evenodd" clip-rule="evenodd" d="M138.935 15C139.054 15 139.15 15.1018 139.15 15.2275V26.9648H150.435C150.554 26.9648 150.651 27.0666 150.651 27.1922C150.651 27.3179 150.554 27.4197 150.435 27.4197H138.72V15.2275C138.72 15.1018 138.816 15 138.935 15Z" fill="#002740"/>
<path d="M142.036 23.4619C142.036 23.7885 141.785 24.0533 141.476 24.0533C141.167 24.0533 140.916 23.7885 140.916 23.4619C140.916 23.1352 141.167 22.8705 141.476 22.8705C141.785 22.8705 142.036 23.1352 142.036 23.4619Z" fill="#002740"/>
<path d="M144.104 20.0954C144.104 20.422 143.853 20.6868 143.544 20.6868C143.234 20.6868 142.984 20.422 142.984 20.0954C142.984 19.7687 143.234 19.5039 143.544 19.5039C143.853 19.5039 144.104 19.7687 144.104 20.0954Z" fill="#002740"/>
<path d="M147.894 20.6411C147.894 20.9677 147.643 21.2325 147.334 21.2325C147.025 21.2325 146.774 20.9677 146.774 20.6411C146.774 20.3144 147.025 20.0497 147.334 20.0497C147.643 20.0497 147.894 20.3144 147.894 20.6411Z" fill="#002740"/>
<path d="M150.392 17.6387C150.392 17.9654 150.142 18.2302 149.832 18.2302C149.523 18.2302 149.272 17.9654 149.272 17.6387C149.272 17.3121 149.523 17.0473 149.832 17.0473C150.142 17.0473 150.392 17.3121 150.392 17.6387Z" fill="#002740"/>
</g>
<g opacity="0.6">
<path fill-rule="evenodd" clip-rule="evenodd" d="M16.0315 45.0726C16.0846 45.1228 16.0891 45.2091 16.0415 45.2653L13.4102 48.3688L9.63392 47.7342L7.61209 51.071C7.57362 51.1344 7.49371 51.153 7.4336 51.1123C7.37349 51.0717 7.35595 50.9873 7.39442 50.9238L9.50745 47.4366L13.3117 48.0758L15.849 45.0832C15.8966 45.027 15.9783 45.0223 16.0315 45.0726Z" fill="#002740"/>
<path fill-rule="evenodd" clip-rule="evenodd" d="M4.96194 42.4901C5.08088 42.4901 5.1773 42.592 5.1773 42.7176V54.4549H16.462C16.581 54.4549 16.6774 54.5567 16.6774 54.6823C16.6774 54.808 16.581 54.9098 16.462 54.9098H4.74658V42.7176C4.74658 42.592 4.843 42.4901 4.96194 42.4901Z" fill="#002740"/>
<path d="M8.06297 50.9519C8.06297 51.2785 7.81228 51.5433 7.50304 51.5433C7.1938 51.5433 6.94312 51.2785 6.94312 50.9519C6.94312 50.6253 7.1938 50.3605 7.50304 50.3605C7.81228 50.3605 8.06297 50.6253 8.06297 50.9519Z" fill="#002740"/>
<path d="M10.1306 47.5854C10.1306 47.912 9.87991 48.1768 9.57067 48.1768C9.26143 48.1768 9.01074 47.912 9.01074 47.5854C9.01074 47.2587 9.26143 46.994 9.57067 46.994C9.87991 46.994 10.1306 47.2587 10.1306 47.5854Z" fill="#002740"/>
<path d="M13.9206 48.1311C13.9206 48.4577 13.67 48.7225 13.3607 48.7225C13.0515 48.7225 12.8008 48.4577 12.8008 48.1311C12.8008 47.8045 13.0515 47.5397 13.3607 47.5397C13.67 47.5397 13.9206 47.8045 13.9206 48.1311Z" fill="#002740"/>
<path d="M16.4189 45.1288C16.4189 45.4554 16.1682 45.7202 15.859 45.7202C15.5498 45.7202 15.2991 45.4554 15.2991 45.1288C15.2991 44.8021 15.5498 44.5374 15.859 44.5374C16.1682 44.5374 16.4189 44.8021 16.4189 45.1288Z" fill="#002740"/>
</g>
<g opacity="0.6">
<path fill-rule="evenodd" clip-rule="evenodd" d="M55.7111 45.0722C55.7643 45.1225 55.7688 45.2088 55.7212 45.2649L53.0899 48.3684L49.3136 47.7339L47.2918 51.0706C47.2533 51.1341 47.1734 51.1526 47.1133 51.112C47.0532 51.0714 47.0356 50.987 47.0741 50.9235L49.1871 47.4362L52.9914 48.0755L55.5287 45.0828C55.5763 45.0267 55.658 45.0219 55.7111 45.0722Z" fill="#002740"/>
<path fill-rule="evenodd" clip-rule="evenodd" d="M44.6419 42.49C44.7608 42.49 44.8572 42.5919 44.8572 42.7175V54.4548H56.1419C56.2609 54.4548 56.3573 54.5566 56.3573 54.6823C56.3573 54.8079 56.2609 54.9097 56.1419 54.9097H44.4265V42.7175C44.4265 42.5919 44.5229 42.49 44.6419 42.49Z" fill="#002740"/>
<path d="M47.743 50.9518C47.743 51.2784 47.4923 51.5432 47.1831 51.5432C46.8739 51.5432 46.6232 51.2784 46.6232 50.9518C46.6232 50.6252 46.8739 50.3604 47.1831 50.3604C47.4923 50.3604 47.743 50.6252 47.743 50.9518Z" fill="#002740"/>
<path d="M49.8104 47.5853C49.8104 47.9119 49.5597 48.1767 49.2505 48.1767C48.9412 48.1767 48.6906 47.9119 48.6906 47.5853C48.6906 47.2587 48.9412 46.9939 49.2505 46.9939C49.5597 46.9939 49.8104 47.2587 49.8104 47.5853Z" fill="#002740"/>
<path d="M53.6007 48.131C53.6007 48.4576 53.35 48.7224 53.0408 48.7224C52.7315 48.7224 52.4808 48.4576 52.4808 48.131C52.4808 47.8044 52.7315 47.5396 53.0408 47.5396C53.35 47.5396 53.6007 47.8044 53.6007 48.131Z" fill="#002740"/>
<path d="M56.0987 45.1285C56.0987 45.4551 55.8481 45.7199 55.5388 45.7199C55.2296 45.7199 54.9789 45.4551 54.9789 45.1285C54.9789 44.8018 55.2296 44.537 55.5388 44.537C55.8481 44.537 56.0987 44.8018 56.0987 45.1285Z" fill="#002740"/>
</g>
<g opacity="0.6">
<path fill-rule="evenodd" clip-rule="evenodd" d="M95.3911 45.0725C95.4442 45.1228 95.4487 45.209 95.4011 45.2652L92.7699 48.3687L88.9935 47.7341L86.9717 51.0709C86.9332 51.1344 86.8533 51.1529 86.7932 51.1123C86.7331 51.0716 86.7156 50.9872 86.754 50.9237L88.8671 47.4365L92.6713 48.0757L95.2086 45.0831C95.2562 45.0269 95.3379 45.0222 95.3911 45.0725Z" fill="#002740"/>
<path fill-rule="evenodd" clip-rule="evenodd" d="M84.3219 42.49C84.4409 42.49 84.5373 42.5919 84.5373 42.7175V54.4548H95.822C95.9409 54.4548 96.0374 54.5566 96.0374 54.6823C96.0374 54.8079 95.9409 54.9097 95.822 54.9097H84.1066V42.7175C84.1066 42.5919 84.203 42.49 84.3219 42.49Z" fill="#002740"/>
<path d="M87.4231 50.9518C87.4231 51.2784 87.1724 51.5432 86.8632 51.5432C86.5539 51.5432 86.3032 51.2784 86.3032 50.9518C86.3032 50.6252 86.5539 50.3604 86.8632 50.3604C87.1724 50.3604 87.4231 50.6252 87.4231 50.9518Z" fill="#002740"/>
<path d="M89.4905 47.5853C89.4905 47.9119 89.2398 48.1767 88.9305 48.1767C88.6213 48.1767 88.3706 47.9119 88.3706 47.5853C88.3706 47.2587 88.6213 46.9939 88.9305 46.9939C89.2398 46.9939 89.4905 47.2587 89.4905 47.5853Z" fill="#002740"/>
<path d="M93.2809 48.131C93.2809 48.4576 93.0302 48.7224 92.7209 48.7224C92.4117 48.7224 92.161 48.4576 92.161 48.131C92.161 47.8044 92.4117 47.5396 92.7209 47.5396C93.0302 47.5396 93.2809 47.8044 93.2809 48.131Z" fill="#002740"/>
<path d="M95.7789 45.1287C95.7789 45.4553 95.5282 45.7201 95.219 45.7201C94.9097 45.7201 94.6591 45.4553 94.6591 45.1287C94.6591 44.802 94.9097 44.5373 95.219 44.5373C95.5282 44.5373 95.7789 44.802 95.7789 45.1287Z" fill="#002740"/>
</g>
<g opacity="0.6">
<path fill-rule="evenodd" clip-rule="evenodd" d="M135.071 45.0722C135.124 45.1225 135.129 45.2088 135.081 45.2649L132.45 48.3684L128.674 47.7339L126.652 51.0706C126.613 51.1341 126.534 51.1526 126.473 51.112C126.413 51.0714 126.396 50.987 126.434 50.9235L128.547 47.4362L132.352 48.0755L134.889 45.0828C134.936 45.0267 135.018 45.0219 135.071 45.0722Z" fill="#002740"/>
<path fill-rule="evenodd" clip-rule="evenodd" d="M124.002 42.49C124.121 42.49 124.217 42.5919 124.217 42.7175V54.4548H135.502C135.621 54.4548 135.717 54.5566 135.717 54.6823C135.717 54.8079 135.621 54.9097 135.502 54.9097H123.786V42.7175C123.786 42.5919 123.883 42.49 124.002 42.49Z" fill="#002740"/>
<path d="M127.103 50.9518C127.103 51.2784 126.852 51.5432 126.543 51.5432C126.234 51.5432 125.983 51.2784 125.983 50.9518C125.983 50.6252 126.234 50.3604 126.543 50.3604C126.852 50.3604 127.103 50.6252 127.103 50.9518Z" fill="#002740"/>
<path d="M129.17 47.5853C129.17 47.9119 128.92 48.1767 128.61 48.1767C128.301 48.1767 128.051 47.9119 128.051 47.5853C128.051 47.2587 128.301 46.9939 128.61 46.9939C128.92 46.9939 129.17 47.2587 129.17 47.5853Z" fill="#002740"/>
<path d="M132.961 48.1312C132.961 48.4579 132.71 48.7227 132.401 48.7227C132.092 48.7227 131.841 48.4579 131.841 48.1312C131.841 47.8046 132.092 47.5398 132.401 47.5398C132.71 47.5398 132.961 47.8046 132.961 48.1312Z" fill="#002740"/>
<path d="M135.459 45.1287C135.459 45.4553 135.208 45.7201 134.899 45.7201C134.59 45.7201 134.339 45.4553 134.339 45.1287C134.339 44.802 134.59 44.5373 134.899 44.5373C135.208 44.5373 135.459 44.802 135.459 45.1287Z" fill="#002740"/>
</g>
<g opacity="0.6">
<path fill-rule="evenodd" clip-rule="evenodd" d="M30.9646 77.0693C31.0177 77.1195 31.0222 77.2058 30.9746 77.262L28.3433 80.3655L24.567 79.7309L22.5452 83.0677C22.5067 83.1312 22.4268 83.1497 22.3667 83.109C22.3066 83.0684 22.2891 82.984 22.3275 82.9205L24.4406 79.4333L28.2448 80.0725L30.7821 77.0799C30.8297 77.0237 30.9114 77.019 30.9646 77.0693Z" fill="#002740"/>
<path fill-rule="evenodd" clip-rule="evenodd" d="M19.8953 74.4869C20.0142 74.4869 20.1106 74.5887 20.1106 74.7144V86.4517H31.3954C31.5143 86.4517 31.6107 86.5535 31.6107 86.6791C31.6107 86.8048 31.5143 86.9066 31.3954 86.9066H19.6799V74.7144C19.6799 74.5887 19.7764 74.4869 19.8953 74.4869Z" fill="#002740"/>
<path d="M22.9966 82.9488C22.9966 83.2755 22.7459 83.5403 22.4366 83.5403C22.1274 83.5403 21.8767 83.2755 21.8767 82.9488C21.8767 82.6222 22.1274 82.3574 22.4366 82.3574C22.7459 82.3574 22.9966 82.6222 22.9966 82.9488Z" fill="#002740"/>
<path d="M25.0639 79.5823C25.0639 79.9089 24.8133 80.1737 24.504 80.1737C24.1948 80.1737 23.9441 79.9089 23.9441 79.5823C23.9441 79.2557 24.1948 78.9909 24.504 78.9909C24.8133 78.9909 25.0639 79.2557 25.0639 79.5823Z" fill="#002740"/>
<path d="M28.8542 80.128C28.8542 80.4547 28.6035 80.7195 28.2943 80.7195C27.9851 80.7195 27.7344 80.4547 27.7344 80.128C27.7344 79.8014 27.9851 79.5366 28.2943 79.5366C28.6035 79.5366 28.8542 79.8014 28.8542 80.128Z" fill="#002740"/>
<path d="M31.3523 77.1255C31.3523 77.4521 31.1016 77.7169 30.7924 77.7169C30.4831 77.7169 30.2324 77.4521 30.2324 77.1255C30.2324 76.7988 30.4831 76.5341 30.7924 76.5341C31.1016 76.5341 31.3523 76.7988 31.3523 77.1255Z" fill="#002740"/>
</g>
<g opacity="0.6">
<path fill-rule="evenodd" clip-rule="evenodd" d="M70.6445 77.0695C70.6977 77.1198 70.7022 77.206 70.6546 77.2622L68.0233 80.3657L64.247 79.7311L62.2251 83.0679C62.1867 83.1314 62.1067 83.1499 62.0466 83.1093C61.9865 83.0686 61.969 82.9842 62.0075 82.9207L64.1205 79.4335L67.9247 80.0727L70.462 77.0801C70.5096 77.0239 70.5913 77.0192 70.6445 77.0695Z" fill="#002740"/>
<path fill-rule="evenodd" clip-rule="evenodd" d="M59.5753 74.4869C59.6943 74.4869 59.7907 74.5887 59.7907 74.7144V86.4517H71.0754C71.1944 86.4517 71.2908 86.5535 71.2908 86.6791C71.2908 86.8048 71.1944 86.9066 71.0754 86.9066H59.36V74.7144C59.36 74.5887 59.4564 74.4869 59.5753 74.4869Z" fill="#002740"/>
<path d="M62.6765 82.9488C62.6765 83.2755 62.4258 83.5403 62.1166 83.5403C61.8073 83.5403 61.5566 83.2755 61.5566 82.9488C61.5566 82.6222 61.8073 82.3574 62.1166 82.3574C62.4258 82.3574 62.6765 82.6222 62.6765 82.9488Z" fill="#002740"/>
<path d="M64.7439 79.5823C64.7439 79.9089 64.4932 80.1737 64.184 80.1737C63.8747 80.1737 63.624 79.9089 63.624 79.5823C63.624 79.2557 63.8747 78.9909 64.184 78.9909C64.4932 78.9909 64.7439 79.2557 64.7439 79.5823Z" fill="#002740"/>
<path d="M68.5343 80.128C68.5343 80.4547 68.2836 80.7195 67.9744 80.7195C67.6651 80.7195 67.4144 80.4547 67.4144 80.128C67.4144 79.8014 67.6651 79.5366 67.9744 79.5366C68.2836 79.5366 68.5343 79.8014 68.5343 80.128Z" fill="#002740"/>
<path d="M71.0323 77.1257C71.0323 77.4523 70.7816 77.7171 70.4724 77.7171C70.1632 77.7171 69.9125 77.4523 69.9125 77.1257C69.9125 76.7991 70.1632 76.5343 70.4724 76.5343C70.7816 76.5343 71.0323 76.7991 71.0323 77.1257Z" fill="#002740"/>
</g>
<g opacity="0.6">
<path fill-rule="evenodd" clip-rule="evenodd" d="M110.325 77.0693C110.378 77.1195 110.382 77.2058 110.335 77.262L107.703 80.3655L103.927 79.7309L101.905 83.0677C101.867 83.1312 101.787 83.1497 101.727 83.109C101.667 83.0684 101.649 82.984 101.688 82.9205L103.801 79.4333L107.605 80.0725L110.142 77.0799C110.19 77.0237 110.272 77.019 110.325 77.0693Z" fill="#002740"/>
<path fill-rule="evenodd" clip-rule="evenodd" d="M99.2553 74.4869C99.3742 74.4869 99.4706 74.5887 99.4706 74.7144V86.4517H110.755C110.874 86.4517 110.971 86.5535 110.971 86.6791C110.971 86.8048 110.874 86.9066 110.755 86.9066H99.0399V74.7144C99.0399 74.5887 99.1363 74.4869 99.2553 74.4869Z" fill="#002740"/>
<path d="M102.356 82.9488C102.356 83.2755 102.106 83.5403 101.797 83.5403C101.487 83.5403 101.237 83.2755 101.237 82.9488C101.237 82.6222 101.487 82.3574 101.797 82.3574C102.106 82.3574 102.356 82.6222 102.356 82.9488Z" fill="#002740"/>
<path d="M104.424 79.5823C104.424 79.9089 104.173 80.1737 103.864 80.1737C103.555 80.1737 103.304 79.9089 103.304 79.5823C103.304 79.2557 103.555 78.9909 103.864 78.9909C104.173 78.9909 104.424 79.2557 104.424 79.5823Z" fill="#002740"/>
<path d="M108.214 80.1282C108.214 80.4549 107.964 80.7197 107.654 80.7197C107.345 80.7197 107.094 80.4549 107.094 80.1282C107.094 79.8016 107.345 79.5368 107.654 79.5368C107.964 79.5368 108.214 79.8016 108.214 80.1282Z" fill="#002740"/>
<path d="M110.713 77.1257C110.713 77.4523 110.462 77.7171 110.153 77.7171C109.843 77.7171 109.593 77.4523 109.593 77.1257C109.593 76.7991 109.843 76.5343 110.153 76.5343C110.462 76.5343 110.713 76.7991 110.713 77.1257Z" fill="#002740"/>
</g>
<g opacity="0.6">
<path fill-rule="evenodd" clip-rule="evenodd" d="M150.004 77.0695C150.058 77.1198 150.062 77.206 150.015 77.2622L147.383 80.3657L143.607 79.7311L141.585 83.0679C141.547 83.1314 141.467 83.1499 141.407 83.1093C141.347 83.0686 141.329 82.9842 141.367 82.9207L143.48 79.4335L147.285 80.0727L149.822 77.0801C149.87 77.0239 149.951 77.0192 150.004 77.0695Z" fill="#002740"/>
<path fill-rule="evenodd" clip-rule="evenodd" d="M138.935 74.4869C139.054 74.4869 139.15 74.5887 139.15 74.7144V86.4517H150.435C150.554 86.4517 150.651 86.5535 150.651 86.6791C150.651 86.8048 150.554 86.9066 150.435 86.9066H138.72V74.7144C138.72 74.5887 138.816 74.4869 138.935 74.4869Z" fill="#002740"/>
<path d="M142.036 82.9488C142.036 83.2755 141.785 83.5403 141.476 83.5403C141.167 83.5403 140.916 83.2755 140.916 82.9488C140.916 82.6222 141.167 82.3574 141.476 82.3574C141.785 82.3574 142.036 82.6222 142.036 82.9488Z" fill="#002740"/>
<path d="M144.104 79.5823C144.104 79.9089 143.853 80.1737 143.544 80.1737C143.234 80.1737 142.984 79.9089 142.984 79.5823C142.984 79.2557 143.234 78.9909 143.544 78.9909C143.853 78.9909 144.104 79.2557 144.104 79.5823Z" fill="#002740"/>
<path d="M147.894 80.128C147.894 80.4547 147.643 80.7195 147.334 80.7195C147.025 80.7195 146.774 80.4547 146.774 80.128C146.774 79.8014 147.025 79.5366 147.334 79.5366C147.643 79.5366 147.894 79.8014 147.894 80.128Z" fill="#002740"/>
<path d="M150.392 77.1257C150.392 77.4523 150.142 77.7171 149.832 77.7171C149.523 77.7171 149.272 77.4523 149.272 77.1257C149.272 76.7991 149.523 76.5343 149.832 76.5343C150.142 76.5343 150.392 76.7991 150.392 77.1257Z" fill="#002740"/>
</g>
<g opacity="0.6">
<path fill-rule="evenodd" clip-rule="evenodd" d="M16.0315 104.559C16.0846 104.61 16.0891 104.696 16.0415 104.752L13.4102 107.856L9.63392 107.221L7.61209 110.558C7.57362 110.621 7.49371 110.64 7.4336 110.599C7.37349 110.559 7.35595 110.474 7.39442 110.411L9.50745 106.923L13.3117 107.563L15.849 104.57C15.8966 104.514 15.9783 104.509 16.0315 104.559Z" fill="#002740"/>
<path fill-rule="evenodd" clip-rule="evenodd" d="M4.96194 101.977C5.08088 101.977 5.1773 102.079 5.1773 102.204V113.942H16.462C16.581 113.942 16.6774 114.044 16.6774 114.169C16.6774 114.295 16.581 114.397 16.462 114.397H4.74658V102.204C4.74658 102.079 4.843 101.977 4.96194 101.977Z" fill="#002740"/>
<path d="M8.06297 110.439C8.06297 110.765 7.81228 111.03 7.50304 111.03C7.1938 111.03 6.94312 110.765 6.94312 110.439C6.94312 110.112 7.1938 109.847 7.50304 109.847C7.81228 109.847 8.06297 110.112 8.06297 110.439Z" fill="#002740"/>
<path d="M10.1306 107.072C10.1306 107.399 9.87991 107.664 9.57067 107.664C9.26143 107.664 9.01074 107.399 9.01074 107.072C9.01074 106.746 9.26143 106.481 9.57067 106.481C9.87991 106.481 10.1306 106.746 10.1306 107.072Z" fill="#002740"/>
<path d="M13.9206 107.618C13.9206 107.945 13.67 108.209 13.3607 108.209C13.0515 108.209 12.8008 107.945 12.8008 107.618C12.8008 107.291 13.0515 107.027 13.3607 107.027C13.67 107.027 13.9206 107.291 13.9206 107.618Z" fill="#002740"/>
<path d="M16.4189 104.616C16.4189 104.942 16.1682 105.207 15.859 105.207C15.5498 105.207 15.2991 104.942 15.2991 104.616C15.2991 104.289 15.5498 104.024 15.859 104.024C16.1682 104.024 16.4189 104.289 16.4189 104.616Z" fill="#002740"/>
</g>
<g opacity="0.6">
<path fill-rule="evenodd" clip-rule="evenodd" d="M55.7111 104.559C55.7643 104.609 55.7688 104.696 55.7212 104.752L53.0899 107.855L49.3136 107.221L47.2918 110.558C47.2533 110.621 47.1734 110.64 47.1133 110.599C47.0532 110.558 47.0356 110.474 47.0741 110.41L49.1871 106.923L52.9914 107.562L55.5287 104.57C55.5763 104.514 55.658 104.509 55.7111 104.559Z" fill="#002740"/>
<path fill-rule="evenodd" clip-rule="evenodd" d="M44.6419 101.977C44.7608 101.977 44.8572 102.079 44.8572 102.204V113.942H56.1419C56.2609 113.942 56.3573 114.044 56.3573 114.169C56.3573 114.295 56.2609 114.397 56.1419 114.397H44.4265V102.204C44.4265 102.079 44.5229 101.977 44.6419 101.977Z" fill="#002740"/>
<path d="M47.743 110.439C47.743 110.765 47.4923 111.03 47.1831 111.03C46.8739 111.03 46.6232 110.765 46.6232 110.439C46.6232 110.112 46.8739 109.847 47.1831 109.847C47.4923 109.847 47.743 110.112 47.743 110.439Z" fill="#002740"/>
<path d="M49.8104 107.072C49.8104 107.399 49.5597 107.664 49.2505 107.664C48.9412 107.664 48.6906 107.399 48.6906 107.072C48.6906 106.746 48.9412 106.481 49.2505 106.481C49.5597 106.481 49.8104 106.746 49.8104 107.072Z" fill="#002740"/>
<path d="M53.6007 107.618C53.6007 107.945 53.35 108.209 53.0408 108.209C52.7315 108.209 52.4808 107.945 52.4808 107.618C52.4808 107.291 52.7315 107.027 53.0408 107.027C53.35 107.027 53.6007 107.291 53.6007 107.618Z" fill="#002740"/>
<path d="M56.0987 104.615C56.0987 104.942 55.8481 105.207 55.5388 105.207C55.2296 105.207 54.9789 104.942 54.9789 104.615C54.9789 104.289 55.2296 104.024 55.5388 104.024C55.8481 104.024 56.0987 104.289 56.0987 104.615Z" fill="#002740"/>
</g>
<g opacity="0.6">
<path fill-rule="evenodd" clip-rule="evenodd" d="M95.3911 104.559C95.4442 104.61 95.4487 104.696 95.4011 104.752L92.7699 107.856L88.9935 107.221L86.9717 110.558C86.9332 110.621 86.8533 110.64 86.7932 110.599C86.7331 110.559 86.7156 110.474 86.754 110.411L88.8671 106.923L92.6713 107.563L95.2086 104.57C95.2562 104.514 95.3379 104.509 95.3911 104.559Z" fill="#002740"/>
<path fill-rule="evenodd" clip-rule="evenodd" d="M84.3219 101.977C84.4409 101.977 84.5373 102.079 84.5373 102.204V113.942H95.822C95.9409 113.942 96.0374 114.044 96.0374 114.169C96.0374 114.295 95.9409 114.397 95.822 114.397H84.1066V102.204C84.1066 102.079 84.203 101.977 84.3219 101.977Z" fill="#002740"/>
<path d="M87.4231 110.439C87.4231 110.765 87.1724 111.03 86.8632 111.03C86.5539 111.03 86.3032 110.765 86.3032 110.439C86.3032 110.112 86.5539 109.847 86.8632 109.847C87.1724 109.847 87.4231 110.112 87.4231 110.439Z" fill="#002740"/>
<path d="M89.4905 107.072C89.4905 107.399 89.2398 107.664 88.9305 107.664C88.6213 107.664 88.3706 107.399 88.3706 107.072C88.3706 106.746 88.6213 106.481 88.9305 106.481C89.2398 106.481 89.4905 106.746 89.4905 107.072Z" fill="#002740"/>
<path d="M93.2809 107.618C93.2809 107.945 93.0302 108.209 92.7209 108.209C92.4117 108.209 92.161 107.945 92.161 107.618C92.161 107.291 92.4117 107.027 92.7209 107.027C93.0302 107.027 93.2809 107.291 93.2809 107.618Z" fill="#002740"/>
<path d="M95.7789 104.616C95.7789 104.942 95.5282 105.207 95.219 105.207C94.9097 105.207 94.6591 104.942 94.6591 104.616C94.6591 104.289 94.9097 104.024 95.219 104.024C95.5282 104.024 95.7789 104.289 95.7789 104.616Z" fill="#002740"/>
</g>
<g opacity="0.6">
<path fill-rule="evenodd" clip-rule="evenodd" d="M135.071 104.559C135.124 104.609 135.129 104.696 135.081 104.752L132.45 107.855L128.674 107.221L126.652 110.558C126.613 110.621 126.534 110.64 126.473 110.599C126.413 110.558 126.396 110.474 126.434 110.41L128.547 106.923L132.352 107.562L134.889 104.57C134.936 104.514 135.018 104.509 135.071 104.559Z" fill="#002740"/>
<path fill-rule="evenodd" clip-rule="evenodd" d="M124.002 101.977C124.121 101.977 124.217 102.079 124.217 102.204V113.942H135.502C135.621 113.942 135.717 114.044 135.717 114.169C135.717 114.295 135.621 114.397 135.502 114.397H123.786V102.204C123.786 102.079 123.883 101.977 124.002 101.977Z" fill="#002740"/>
<path d="M127.103 110.439C127.103 110.765 126.852 111.03 126.543 111.03C126.234 111.03 125.983 110.765 125.983 110.439C125.983 110.112 126.234 109.847 126.543 109.847C126.852 109.847 127.103 110.112 127.103 110.439Z" fill="#002740"/>
<path d="M129.17 107.072C129.17 107.399 128.92 107.664 128.61 107.664C128.301 107.664 128.051 107.399 128.051 107.072C128.051 106.746 128.301 106.481 128.61 106.481C128.92 106.481 129.17 106.746 129.17 107.072Z" fill="#002740"/>
<path d="M132.961 107.618C132.961 107.945 132.71 108.21 132.401 108.21C132.092 108.21 131.841 107.945 131.841 107.618C131.841 107.292 132.092 107.027 132.401 107.027C132.71 107.027 132.961 107.292 132.961 107.618Z" fill="#002740"/>
<path d="M135.459 104.616C135.459 104.942 135.208 105.207 134.899 105.207C134.59 105.207 134.339 104.942 134.339 104.616C134.339 104.289 134.59 104.024 134.899 104.024C135.208 104.024 135.459 104.289 135.459 104.616Z" fill="#002740"/>
</g>
<g opacity="0.6">
<path fill-rule="evenodd" clip-rule="evenodd" d="M31.9646 132.582C32.0177 132.633 32.0222 132.719 31.9746 132.775L29.3433 135.878L25.567 135.244L23.5452 138.581C23.5067 138.644 23.4268 138.663 23.3667 138.622C23.3066 138.581 23.2891 138.497 23.3275 138.433L25.4406 134.946L29.2448 135.585L31.7821 132.593C31.8297 132.537 31.9114 132.532 31.9646 132.582Z" fill="#002740"/>
<path fill-rule="evenodd" clip-rule="evenodd" d="M20.8953 130C21.0142 130 21.1106 130.102 21.1106 130.227V141.965H32.3954C32.5143 141.965 32.6107 142.067 32.6107 142.192C32.6107 142.318 32.5143 142.42 32.3954 142.42H20.6799V130.227C20.6799 130.102 20.7764 130 20.8953 130Z" fill="#002740"/>
<path d="M23.9963 138.462C23.9963 138.788 23.7456 139.053 23.4364 139.053C23.1272 139.053 22.8765 138.788 22.8765 138.462C22.8765 138.135 23.1272 137.87 23.4364 137.87C23.7456 137.87 23.9963 138.135 23.9963 138.462Z" fill="#002740"/>
<path d="M26.0639 135.095C26.0639 135.422 25.8133 135.687 25.504 135.687C25.1948 135.687 24.9441 135.422 24.9441 135.095C24.9441 134.769 25.1948 134.504 25.504 134.504C25.8133 134.504 26.0639 134.769 26.0639 135.095Z" fill="#002740"/>
<path d="M29.854 135.641C29.854 135.968 29.6033 136.232 29.2941 136.232C28.9848 136.232 28.7341 135.968 28.7341 135.641C28.7341 135.314 28.9848 135.05 29.2941 135.05C29.6033 135.05 29.854 135.314 29.854 135.641Z" fill="#002740"/>
<path d="M32.3523 132.638C32.3523 132.965 32.1016 133.23 31.7924 133.23C31.4831 133.23 31.2324 132.965 31.2324 132.638C31.2324 132.312 31.4831 132.047 31.7924 132.047C32.1016 132.047 32.3523 132.312 32.3523 132.638Z" fill="#002740"/>
</g>
<g opacity="0.6">
<path fill-rule="evenodd" clip-rule="evenodd" d="M71.6445 132.582C71.6977 132.633 71.7022 132.719 71.6546 132.775L69.0233 135.879L65.247 135.244L63.2251 138.581C63.1867 138.644 63.1067 138.663 63.0466 138.622C62.9865 138.582 62.969 138.497 63.0075 138.434L65.1205 134.946L68.9247 135.586L71.462 132.593C71.5096 132.537 71.5913 132.532 71.6445 132.582Z" fill="#002740"/>
<path fill-rule="evenodd" clip-rule="evenodd" d="M60.5753 130C60.6943 130 60.7907 130.102 60.7907 130.227V141.965H72.0754C72.1944 141.965 72.2908 142.067 72.2908 142.192C72.2908 142.318 72.1944 142.42 72.0754 142.42H60.36V130.227C60.36 130.102 60.4564 130 60.5753 130Z" fill="#002740"/>
<path d="M63.6765 138.462C63.6765 138.788 63.4258 139.053 63.1166 139.053C62.8073 139.053 62.5566 138.788 62.5566 138.462C62.5566 138.135 62.8073 137.87 63.1166 137.87C63.4258 137.87 63.6765 138.135 63.6765 138.462Z" fill="#002740"/>
<path d="M65.7439 135.095C65.7439 135.422 65.4932 135.687 65.184 135.687C64.8747 135.687 64.624 135.422 64.624 135.095C64.624 134.769 64.8747 134.504 65.184 134.504C65.4932 134.504 65.7439 134.769 65.7439 135.095Z" fill="#002740"/>
<path d="M69.5343 135.641C69.5343 135.968 69.2836 136.232 68.9744 136.232C68.6651 136.232 68.4144 135.968 68.4144 135.641C68.4144 135.314 68.6651 135.05 68.9744 135.05C69.2836 135.05 69.5343 135.314 69.5343 135.641Z" fill="#002740"/>
<path d="M72.0323 132.639C72.0323 132.965 71.7816 133.23 71.4724 133.23C71.1632 133.23 70.9125 132.965 70.9125 132.639C70.9125 132.312 71.1632 132.047 71.4724 132.047C71.7816 132.047 72.0323 132.312 72.0323 132.639Z" fill="#002740"/>
</g>
<g opacity="0.6">
<path fill-rule="evenodd" clip-rule="evenodd" d="M111.325 132.582C111.378 132.633 111.382 132.719 111.335 132.775L108.703 135.878L104.927 135.244L102.905 138.581C102.867 138.644 102.787 138.663 102.727 138.622C102.667 138.581 102.649 138.497 102.688 138.433L104.801 134.946L108.605 135.585L111.142 132.593C111.19 132.537 111.272 132.532 111.325 132.582Z" fill="#002740"/>
<path fill-rule="evenodd" clip-rule="evenodd" d="M100.255 130C100.374 130 100.471 130.102 100.471 130.227V141.965H111.755C111.874 141.965 111.971 142.067 111.971 142.192C111.971 142.318 111.874 142.42 111.755 142.42H100.04V130.227C100.04 130.102 100.136 130 100.255 130Z" fill="#002740"/>
<path d="M103.356 138.462C103.356 138.788 103.106 139.053 102.797 139.053C102.487 139.053 102.237 138.788 102.237 138.462C102.237 138.135 102.487 137.87 102.797 137.87C103.106 137.87 103.356 138.135 103.356 138.462Z" fill="#002740"/>
<path d="M105.424 135.095C105.424 135.422 105.173 135.687 104.864 135.687C104.555 135.687 104.304 135.422 104.304 135.095C104.304 134.769 104.555 134.504 104.864 134.504C105.173 134.504 105.424 134.769 105.424 135.095Z" fill="#002740"/>
<path d="M109.214 135.641C109.214 135.968 108.964 136.233 108.654 136.233C108.345 136.233 108.094 135.968 108.094 135.641C108.094 135.315 108.345 135.05 108.654 135.05C108.964 135.05 109.214 135.315 109.214 135.641Z" fill="#002740"/>
<path d="M111.713 132.639C111.713 132.965 111.462 133.23 111.153 133.23C110.843 133.23 110.593 132.965 110.593 132.639C110.593 132.312 110.843 132.047 111.153 132.047C111.462 132.047 111.713 132.312 111.713 132.639Z" fill="#002740"/>
</g>
<g opacity="0.6">
<path fill-rule="evenodd" clip-rule="evenodd" d="M151.004 132.582C151.058 132.633 151.062 132.719 151.015 132.775L148.383 135.879L144.607 135.244L142.585 138.581C142.547 138.644 142.467 138.663 142.407 138.622C142.347 138.582 142.329 138.497 142.367 138.434L144.48 134.946L148.285 135.586L150.822 132.593C150.87 132.537 150.951 132.532 151.004 132.582Z" fill="#002740"/>
<path fill-rule="evenodd" clip-rule="evenodd" d="M139.935 130C140.054 130 140.15 130.102 140.15 130.227V141.965H151.435C151.554 141.965 151.651 142.067 151.651 142.192C151.651 142.318 151.554 142.42 151.435 142.42H139.72V130.227C139.72 130.102 139.816 130 139.935 130Z" fill="#002740"/>
<path d="M143.036 138.462C143.036 138.788 142.786 139.053 142.476 139.053C142.167 139.053 141.916 138.788 141.916 138.462C141.916 138.135 142.167 137.87 142.476 137.87C142.786 137.87 143.036 138.135 143.036 138.462Z" fill="#002740"/>
<path d="M145.104 135.095C145.104 135.422 144.853 135.687 144.544 135.687C144.235 135.687 143.984 135.422 143.984 135.095C143.984 134.769 144.235 134.504 144.544 134.504C144.853 134.504 145.104 134.769 145.104 135.095Z" fill="#002740"/>
<path d="M148.894 135.641C148.894 135.968 148.643 136.232 148.334 136.232C148.025 136.232 147.774 135.968 147.774 135.641C147.774 135.314 148.025 135.05 148.334 135.05C148.643 135.05 148.894 135.314 148.894 135.641Z" fill="#002740"/>
<path d="M151.392 132.639C151.392 132.965 151.142 133.23 150.832 133.23C150.523 133.23 150.272 132.965 150.272 132.639C150.272 132.312 150.523 132.047 150.832 132.047C151.142 132.047 151.392 132.312 151.392 132.639Z" fill="#002740"/>
</g>
</g>
<path d="M108.14 114.647L104.166 116.135C103.903 116.234 103.656 116.371 103.433 116.542L78.9935 135.296C78.7155 135.509 78.4794 135.772 78.2969 136.071L61.55 163.522C60.5611 165.143 61.4078 167.259 63.2418 167.75L70.9943 169.828C72.0547 170.112 73.1446 169.482 73.4288 168.422C73.4632 168.294 73.5105 168.169 73.5698 168.05L87.1369 140.835C87.3271 140.453 87.6007 140.12 87.9375 139.858L102.706 128.385C102.936 128.206 103.192 128.064 103.465 127.963L108.481 126.109C109.347 125.789 110.003 125.069 110.242 124.177L111.885 118.046C112.484 115.812 110.306 113.835 108.14 114.647Z" fill="#FC7E24"/>
<path d="M108.14 114.646C110.307 113.835 112.484 115.811 111.885 118.046L110.242 124.177C110.096 124.722 109.794 125.201 109.384 125.566L109.788 124.767L98.0439 128.491L91.1179 136.942L91.3967 137.169L87.9374 139.858C87.6007 140.119 87.3269 140.453 87.1367 140.835L84.6032 145.917L77.9232 147.08L77.2361 157.941L78.1436 158.875L73.5701 168.05C73.5108 168.169 73.4633 168.294 73.4288 168.422C73.1445 169.483 72.0542 170.111 70.994 169.827L63.242 167.75C61.5928 167.308 60.7429 165.553 61.3073 164.025L66.0952 165.444L71.5366 156.019L69.6727 150.207L78.2972 136.07C78.4796 135.771 78.7154 135.508 78.9932 135.295L79.9697 134.545L87.6527 134.747L89.7093 127.072L103.432 116.542C103.656 116.371 103.903 116.234 104.166 116.135L108.14 114.646Z" fill="#FEC955"/>
<path fill-rule="evenodd" clip-rule="evenodd" d="M110.512 117.678C110.811 116.561 109.722 115.573 108.639 115.978L104.665 117.467C104.534 117.517 104.41 117.585 104.299 117.671L79.8594 136.424C79.7204 136.531 79.6023 136.662 79.5111 136.811L62.7641 164.263C62.2697 165.073 62.6931 166.131 63.6101 166.377L71.3625 168.454C71.6643 168.535 71.9745 168.356 72.0553 168.054C72.1144 167.834 72.1955 167.62 72.2973 167.415L85.8644 140.201C86.1497 139.628 86.5601 139.127 87.0652 138.735L101.834 127.262C102.178 126.994 102.562 126.781 102.972 126.63L107.988 124.775C108.421 124.615 108.749 124.255 108.869 123.809L110.512 117.678ZM107.641 113.315C110.891 112.098 114.157 115.063 113.259 118.414L111.616 124.546C111.258 125.883 110.273 126.963 108.974 127.443L103.958 129.297C103.821 129.348 103.693 129.419 103.579 129.508L88.8101 140.981C88.6417 141.112 88.5049 141.279 88.4098 141.47L74.8427 168.684C74.8258 168.718 74.8124 168.754 74.8026 168.79C74.3152 170.609 72.4454 171.689 70.6264 171.201L62.874 169.124C60.1229 168.387 58.8528 165.213 60.3361 162.781L77.0831 135.33C77.3568 134.882 77.711 134.487 78.1279 134.167L78.9937 135.296L78.1279 134.167L102.567 115.414C102.902 115.157 103.273 114.952 103.668 114.804L107.641 113.315Z" fill="#27292A"/>
<path d="M112.572 112.948L104.328 115.612C104.234 115.642 104.153 115.704 104.1 115.788L101.731 119.503C101.674 119.592 101.653 119.698 101.67 119.801L102.968 127.608C103.012 127.871 103.285 128.03 103.535 127.937L109.655 125.675C109.784 125.627 109.883 125.519 109.918 125.386L113.113 113.463C113.2 113.137 112.892 112.845 112.572 112.948Z" fill="#5C4208" stroke="#27292A" stroke-width="2.5512"/>
<path d="M63.2441 172.427H71.7629C72.4082 172.427 72.9947 172.082 73.2972 171.513C76.7365 165.032 88.1799 143.375 88.9046 141.926C89.5904 140.554 95.6289 136.344 99.4671 133.808C100.17 133.343 100.448 132.447 100.126 131.669L96.1545 122.092C95.7112 121.023 94.3692 120.673 93.4609 121.39L77.3945 134.074C77.2176 134.214 77.0694 134.387 76.9582 134.583L60.9908 162.71C60.8115 163.026 60.7352 163.39 60.7726 163.751L61.5081 170.861C61.6001 171.751 62.3497 172.427 63.2441 172.427Z" fill="white" stroke="#333333" stroke-width="1.74523"/>
<path d="M35.8896 40.6249L40.3204 39.4058L43.9089 52.4477L39.4782 53.6669L35.8896 40.6249Z" fill="#27292A"/>
<path fill-rule="evenodd" clip-rule="evenodd" d="M40.0949 39.8024L36.2863 40.8504L39.7036 53.2702L43.5123 52.2223L40.0949 39.8024ZM35.8896 40.6249L39.4782 53.6669L43.9089 52.4477L40.3204 39.4058L35.8896 40.6249Z" fill="#27292A"/>
<path d="M58.8644 40.5722L54.4256 39.3828L50.8739 52.6377L55.3127 53.8271L58.8644 40.5722Z" fill="#27292A"/>
<path fill-rule="evenodd" clip-rule="evenodd" d="M54.6537 39.778L58.4692 40.8003L55.0846 53.432L51.2691 52.4096L54.6537 39.778ZM58.8644 40.5722L55.3127 53.8271L50.8739 52.6377L54.4256 39.3828L58.8644 40.5722Z" fill="#27292A"/>
<path d="M38.1769 29.0646L42.0632 32.7722L40.7475 37.8175L35.5456 39.1551L31.6593 35.4475L32.975 30.4022L38.1769 29.0646Z" fill="#FEC955"/>
<path fill-rule="evenodd" clip-rule="evenodd" d="M39.2011 25.1368L46.0242 31.6463L43.6544 40.7342L34.5212 43.0827L27.6981 36.5732L30.0679 27.4853L39.2011 25.1368ZM31.6592 35.4474L35.5455 39.155L40.7474 37.8174L42.0631 32.7721L38.1768 29.0645L32.9749 30.4021L31.6592 35.4474Z" fill="#27292A"/>
<path d="M57.1321 29.0458L62.1685 30.3953L63.5179 35.4316L59.8311 39.1185L54.7947 37.769L53.4453 32.7327L57.1321 29.0458Z" fill="#FEC955"/>
<path fill-rule="evenodd" clip-rule="evenodd" d="M56.0715 25.0872L65.0661 27.4973L67.4762 36.4919L60.8917 43.0764L51.8971 40.6663L49.487 31.6717L56.0715 25.0872ZM54.7948 37.7687L59.8311 39.1182L63.518 35.4313L62.1685 30.395L57.1322 29.0455L53.4453 32.7324L54.7948 37.7687Z" fill="#27292A"/>
<path d="M48.2052 171.916L29.6556 161.412C29.5416 161.347 29.478 161.22 29.4945 161.091L37.7217 96.4773C37.7422 96.3162 37.8793 96.1954 38.0417 96.1954H54.0641C54.2223 96.1954 54.3571 96.31 54.3826 96.4661L64.922 161.097C64.9426 161.224 64.8863 161.35 64.7786 161.42L48.5392 171.906C48.4383 171.971 48.3097 171.975 48.2052 171.916Z" fill="#FEC955"/>
<path fill-rule="evenodd" clip-rule="evenodd" d="M37.8971 96.2531C38.0305 95.2058 38.9216 94.421 39.9774 94.421H55.9998C57.0277 94.421 57.9041 95.166 58.0695 96.1805L68.6089 160.811C68.7431 161.634 68.3771 162.458 67.6768 162.91L51.4374 173.397C50.7819 173.82 49.9455 173.845 49.2665 173.46L30.7169 162.956C29.9761 162.537 29.5624 161.711 29.6699 160.866L31.4302 161.091L31.4336 161.091M31.4302 161.091L29.6699 160.866L37.8971 96.2531M41.2561 97.9698L33.3135 160.348L50.2505 169.939L64.9534 160.445L54.7655 97.9698H41.2561ZM32.4656 159.868C32.4662 159.868 32.4668 159.869 32.4674 159.869L32.4656 159.868Z" fill="#27292A"/>
<path d="M58.9625 123.838L61.2209 137.389L63.3179 150.455L51.7155 143.529L49.3601 131.826L58.9625 123.838Z" fill="#FC7E24"/>
<path d="M38.5226 146.264L44.5133 152.632L44.3077 159.327L39.307 156.585L34.145 153.843L34.7917 148.907L38.5226 146.264Z" fill="#FC7E24"/>
<path d="M39.3072 113.192L43.4725 115.702L45.3382 123.088L39.8748 128.397L37.3715 128.678L38.1781 122.387L39.3072 113.192Z" fill="#FC7E24"/>
<path fill-rule="evenodd" clip-rule="evenodd" d="M47.6169 52.0545H37.9123C37.724 52.0545 37.545 52.1368 37.4224 52.2798L31.195 59.5451C30.9903 59.784 30.643 59.8403 30.3732 59.6784L24.4969 56.1527C24.4249 56.1095 24.3452 56.0808 24.2622 56.0681L16.5246 54.8878C15.941 54.7988 15.5542 55.4753 15.9269 55.9331L29.6271 72.7604C29.6826 72.8286 29.7236 72.9074 29.7475 72.9921L32.0998 81.3034C32.1204 81.3762 32.1536 81.4447 32.1979 81.5059L37.4571 88.7761C37.5585 88.9162 37.5994 89.0911 37.5706 89.2616L35.4068 102.09C35.3753 102.277 35.4273 102.467 35.549 102.612L42.0463 110.347C42.103 110.415 42.173 110.47 42.2518 110.509L47.3284 113.048C47.51 113.138 47.7238 113.138 47.9055 113.048L52.982 110.509C53.0609 110.47 53.1308 110.415 53.1875 110.347L59.6849 102.612C59.8066 102.467 59.8586 102.277 59.8271 102.09L57.6633 89.2616C57.6345 89.0911 57.6754 88.9162 57.7767 88.7761L63.036 81.5059C63.0803 81.4447 63.1135 81.3762 63.1341 81.3034L65.4863 72.9921C65.5103 72.9074 65.5513 72.8286 65.6068 72.7604L79.307 55.9331C79.6797 55.4753 79.2928 54.7988 78.7093 54.8878L70.9716 56.0681C70.8886 56.0808 70.8089 56.1095 70.7369 56.1527L64.8607 59.6784C64.5909 59.8403 64.2436 59.784 64.0388 59.5451L57.8115 52.2798C57.6889 52.1368 57.5099 52.0545 57.3215 52.0545H47.6169Z" fill="#FEC955"/>
<path fill-rule="evenodd" clip-rule="evenodd" d="M36.0751 51.1248C36.5348 50.5885 37.2059 50.2798 37.9123 50.2798H57.3215C58.0278 50.2798 58.6989 50.5885 59.1586 51.1248L64.7654 57.666L69.8239 54.6309C70.0939 54.4689 70.3928 54.3612 70.704 54.3138L78.4416 53.1334C80.63 52.7996 82.0806 55.3365 80.6829 57.0532L67.1301 73.6996L64.8414 81.7864C64.7642 82.0591 64.6397 82.3161 64.4736 82.5457L59.4916 89.4326L61.5768 101.795C61.6947 102.494 61.4998 103.21 61.0435 103.753L54.5462 111.488C54.3335 111.742 54.0712 111.948 53.7755 112.096L48.699 114.635C48.0178 114.975 47.216 114.975 46.5347 114.635L41.4582 112.096C41.1625 111.948 40.9002 111.742 40.6876 111.488L34.1902 103.753C33.7339 103.21 33.539 102.494 33.657 101.795L35.7421 89.4326L30.7601 82.5457C30.594 82.3161 30.4695 82.0591 30.3924 81.7864L28.1036 73.6996L14.5508 57.0532C13.1531 55.3365 14.6037 52.7996 16.7921 53.1334L24.5298 54.3138C24.8409 54.3612 25.1399 54.4689 25.4098 54.6309L30.4683 57.666L36.0751 51.1248ZM38.4316 53.8287L32.5422 60.6996C31.7743 61.5956 30.472 61.8069 29.4601 61.1998L23.7747 57.7885L19.1517 57.0833L31.003 71.6399C31.2113 71.8956 31.365 72.1913 31.4548 72.5086L33.7527 80.6276L38.8948 87.7358C39.2748 88.2612 39.4281 88.9171 39.3202 89.5565L37.2432 101.87L43.2545 109.027L47.6169 111.208L51.9792 109.027L57.9905 101.87L55.9135 89.5565C55.8056 88.9171 55.9589 88.2612 56.339 87.7358L61.4811 80.6276L63.7789 72.5086C63.8687 72.1913 64.0225 71.8956 64.2307 71.6399L76.0821 57.0833L71.4591 57.7885L65.7736 61.1998C64.7617 61.8069 63.4595 61.5956 62.6915 60.6996L56.8021 53.8287H38.4316Z" fill="#27292A"/>
<path d="M55.947 75.9284L63.0448 75.1219L61.4316 80.7678L56.1083 88.0269L52.5594 83.1875L55.947 75.9284Z" fill="#FC7E24"/>
<path d="M37.8801 98.0285L39.1706 90.4468L41.9129 91.092L42.7195 95.6088L39.1706 98.6737L37.8801 98.0285Z" fill="#FC7E24"/>
<path d="M47.913 53.8288L48.8279 58.0737L42.7573 62.6758L35.7365 59.7196L35.4604 57.3777L38.2342 53.8288L47.913 53.8288Z" fill="#FC7E24"/>
<ellipse opacity="0.2" cx="58.8369" cy="73.6523" rx="7.58442" ry="8.42713" fill="#D9D9D9"/>
<rect x="50.6801" y="65.1094" width="16.5239" height="16.5239" rx="8.06298" stroke="white" stroke-width="2.01575"/>
<ellipse opacity="0.2" cx="36.9263" cy="73.3713" rx="7.53175" ry="7.53175" fill="#D9D9D9"/>
<path d="M45.6167 73.3714H50.2516" stroke="white" stroke-width="2.01575" stroke-linecap="round"/>
<path d="M61.4143 68.9167C64.1948 69.9957 64.7861 73.0139 63.4322 75.0719" stroke="white" stroke-width="1.51181" stroke-linecap="round"/>
<path d="M36.9263 68.1588C39.9054 68.0184 41.6692 70.538 41.2654 72.9682" stroke="white" stroke-width="1.51181" stroke-linecap="round"/>
<ellipse cx="61.5492" cy="78.2959" rx="0.869048" ry="0.869048" fill="white"/>
<rect x="28.6641" y="65.1094" width="16.5239" height="16.5239" rx="8.06298" stroke="white" stroke-width="2.01575"/>
<path d="M33.691 126.12L49.0131 151.9L62.1462 125.877L69.9289 161.675L48.3614 177.437L28.6274 161.675L33.691 126.12Z" fill="white" stroke="#333333" stroke-width="1.74523"/>
<path d="M33.7147 124.101C38.0296 130.736 45.3781 145.197 48.8443 151.715C49.0879 152.173 47.6561 153.843 47.171 153.659L43.2008 152.151C43.0874 152.108 42.997 152.02 42.9514 151.907L38.2249 140.255C38.1952 140.181 38.1462 140.118 38.0831 140.07L30.766 134.56C30.6276 134.456 30.564 134.28 30.6039 134.111L32.9399 124.241C33.0273 123.872 33.5079 123.783 33.7147 124.101Z" fill="#CBCBCB" stroke="#333333" stroke-width="1.74523"/>
<path d="M63.073 122.954C58.8277 129.774 52.4825 144.847 49.5238 151.497C49.314 151.968 50.8488 153.653 51.3316 153.47L56.0861 151.677C56.2169 151.628 56.3162 151.519 56.353 151.384L59.7916 138.777C59.8236 138.66 59.9031 138.561 60.011 138.505L66.4403 135.156C66.6183 135.064 66.7101 134.861 66.6626 134.666L63.8453 123.085C63.7554 122.715 63.2738 122.631 63.073 122.954Z" fill="#CBCBCB" stroke="#333333" stroke-width="1.74523"/>
<path d="M49.2561 151.9L48.5265 176.95" stroke="#333333" stroke-width="1.30893"/>
<path opacity="0.8" d="M111.059 123.848H111.034L124.782 147.663C125.305 148.569 124.651 149.702 123.605 149.702H93.486C92.4396 149.702 91.7861 148.569 92.3092 147.663L106.057 123.848H106.032V110.204H111.059V123.848Z" fill="#EEF8FC"/>
<path d="M113.744 106.613C114.244 106.613 114.65 107.019 114.65 107.519V108.579C114.65 109.079 114.244 109.486 113.744 109.486H112.496V122.789L127.189 148.239C127.886 149.447 127.014 150.958 125.619 150.959H91.4731C90.0778 150.959 89.2051 149.447 89.9028 148.239L104.596 122.789V109.486H103.348C102.848 109.486 102.442 109.079 102.442 108.579V107.519C102.442 107.019 102.848 106.613 103.348 106.613H113.744ZM106.032 110.204V123.848H106.057L92.3081 147.663C91.7857 148.569 92.4399 149.702 93.4858 149.702H123.604C124.65 149.702 125.305 148.569 124.782 147.663L111.033 123.848H111.058V110.204H106.032Z" fill="white"/>
<path d="M124.782 147.663C125.305 148.569 124.651 149.702 123.605 149.702H93.4865C92.4402 149.702 91.786 148.569 92.3087 147.663L98.5948 136.775H118.496L124.782 147.663Z" fill="#209583"/>
<path d="M124.782 147.663C125.305 148.569 124.651 149.702 123.604 149.702H119.154C120.2 149.702 120.855 148.569 120.332 147.663L114.046 136.775H118.496L124.782 147.663Z" fill="#04322B"/>
<path d="M109.512 128.842L119.111 146.524" stroke="white" stroke-width="1.81265" stroke-linecap="round"/>
<path d="M114.275 122.126L113.842 114.331C113.825 114.02 113.501 113.825 113.219 113.953L111.137 114.899C111.065 114.932 111.004 114.983 110.959 115.047L109.528 117.072C109.493 117.121 109.469 117.176 109.457 117.234L108.756 120.479C108.709 120.698 108.833 120.918 109.046 120.99L113.692 122.569C113.989 122.67 114.293 122.439 114.275 122.126Z" fill="#5C4208" stroke="#27292A" stroke-width="1.81265"/>
<path d="M91 57H148" stroke="white" stroke-width="4" stroke-linecap="round"/>
<path d="M91 66H148" stroke="white" stroke-width="4" stroke-linecap="round"/>
<rect x="89" y="11" width="59" height="38" rx="2" fill="white"/>
<path d="M118.336 18C122.939 18.0001 126.671 21.7323 126.671 26.3359C126.671 28.7155 125.674 30.8615 124.074 32.3801C123.467 32.957 123.034 33.7217 123.034 34.5595C123.034 35.9607 121.898 37.0967 120.497 37.0967H116.175C114.774 37.0967 113.638 35.9608 113.638 34.5595C113.638 33.7217 113.205 32.957 112.597 32.3801C110.998 30.8616 110 28.7156 110 26.3359C110 21.7323 113.732 18 118.336 18Z" fill="#FDB515"/>
<path d="M124.138 20.2997C125.732 21.8181 126.727 23.9601 126.728 26.3358C126.727 28.7154 125.73 30.8612 124.131 32.3798C123.523 32.9566 123.091 33.7217 123.091 34.5594C123.091 35.9607 121.955 37.0966 120.554 37.0966H118.627C118.743 36.7279 118.806 36.3354 118.806 35.9286C118.806 34.6332 119.479 33.452 120.425 32.5673C122.926 30.2288 124.486 26.9221 124.486 23.2557C124.486 22.2383 124.365 21.2488 124.138 20.2997Z" fill="#E6A513"/>
<path d="M114.235 38.8298C114.235 38.058 114.861 37.4323 115.633 37.4323H121.096C121.868 37.4323 122.494 38.058 122.494 38.8298V40.2909C122.494 42.5714 120.645 44.4201 118.364 44.4201C116.084 44.4201 114.235 42.5714 114.235 40.2909V38.8298Z" fill="#B2B2B2"/>
<path fill-rule="evenodd" clip-rule="evenodd" d="M113.821 38.5636C113.878 38.2383 114.192 38.0202 114.522 38.0765L122.413 39.4217C122.744 39.478 122.965 39.7874 122.908 40.1127C122.851 40.4381 122.537 40.6562 122.206 40.5998L114.315 39.2547C113.985 39.1984 113.763 38.889 113.821 38.5636Z" fill="#6C6C6C"/>
<path fill-rule="evenodd" clip-rule="evenodd" d="M114.031 41.5223C114.083 41.2047 114.39 40.9885 114.717 41.0393L122.201 42.2038C122.528 42.2547 122.75 42.5533 122.698 42.8708C122.645 43.1884 122.338 43.4046 122.012 43.3538L114.528 42.1892C114.201 42.1384 113.979 41.8398 114.031 41.5223Z" fill="#6C6C6C"/>
</g>
<defs>
<clipPath id="clip0_34815_3001">
<rect width="160" height="160" rx="8" fill="white"/>
</clipPath>
</defs>
</svg>
