<svg width="660" height="398" viewBox="0 0 660 398" fill="none" xmlns="http://www.w3.org/2000/svg">
<g clip-path="url(#clip0_34815_4252)">
<rect width="660" height="398" fill="#D1E3FA"/>
<path d="M422 109V39H583" stroke="white" stroke-width="3" stroke-linecap="round" stroke-dasharray="8 8"/>
<g opacity="0.2">
<g opacity="0.6">
<path fill-rule="evenodd" clip-rule="evenodd" d="M43.549 51.557C43.667 51.6686 43.677 51.86 43.5713 51.9846L37.7326 58.8712L29.353 57.4631L24.8666 64.8673C24.7812 65.0082 24.6039 65.0493 24.4705 64.9591C24.3372 64.869 24.2982 64.6817 24.3836 64.5408L29.0724 56.8026L37.5139 58.2211L43.1441 51.5806C43.2498 51.456 43.431 51.4454 43.549 51.557Z" fill="#002740"/>
<path fill-rule="evenodd" clip-rule="evenodd" d="M18.9864 45.8269C19.2504 45.8269 19.4643 46.0529 19.4643 46.3316V72.3765H44.5049C44.7688 72.3765 44.9827 72.6024 44.9827 72.8812C44.9827 73.16 44.7688 73.3859 44.5049 73.3859H18.5086V46.3316C18.5086 46.0529 18.7225 45.8269 18.9864 45.8269Z" fill="#002740"/>
<path d="M25.8678 64.6036C25.8678 65.3284 25.3115 65.9159 24.6253 65.9159C23.9391 65.9159 23.3829 65.3284 23.3829 64.6036C23.3829 63.8788 23.9391 63.2913 24.6253 63.2913C25.3115 63.2913 25.8678 63.8788 25.8678 64.6036Z" fill="#002740"/>
<path d="M30.4554 57.1334C30.4554 57.8582 29.8992 58.4457 29.213 58.4457C28.5268 58.4457 27.9705 57.8582 27.9705 57.1334C27.9705 56.4086 28.5268 55.821 29.213 55.821C29.8992 55.821 30.4554 56.4086 30.4554 57.1334Z" fill="#002740"/>
<path d="M38.866 58.3443C38.866 59.0691 38.3097 59.6567 37.6235 59.6567C36.9373 59.6567 36.3811 59.0691 36.3811 58.3443C36.3811 57.6195 36.9373 57.032 37.6235 57.032C38.3097 57.032 38.866 57.6195 38.866 58.3443Z" fill="#002740"/>
<path d="M44.4091 51.6817C44.4091 52.4065 43.8528 52.9941 43.1666 52.9941C42.4804 52.9941 41.9242 52.4065 41.9242 51.6817C41.9242 50.9569 42.4804 50.3694 43.1666 50.3694C43.8528 50.3694 44.4091 50.9569 44.4091 51.6817Z" fill="#002740"/>
</g>
<g opacity="0.6">
<path fill-rule="evenodd" clip-rule="evenodd" d="M131.598 51.5575C131.716 51.669 131.726 51.8605 131.62 51.9851L125.781 58.8717L117.402 57.4636L112.915 64.8678C112.83 65.0087 112.653 65.0498 112.519 64.9596C112.386 64.8694 112.347 64.6822 112.432 64.5413L117.121 56.8031L125.563 58.2216L131.193 51.581C131.299 51.4564 131.48 51.4459 131.598 51.5575Z" fill="#002740"/>
<path fill-rule="evenodd" clip-rule="evenodd" d="M107.035 45.8269C107.299 45.8269 107.513 46.0529 107.513 46.3316V72.3765H132.554C132.818 72.3765 133.032 72.6024 133.032 72.8812C133.032 73.16 132.818 73.3859 132.554 73.3859H106.558V46.3316C106.558 46.0529 106.772 45.8269 107.035 45.8269Z" fill="#002740"/>
<path d="M113.917 64.6036C113.917 65.3284 113.36 65.9159 112.674 65.9159C111.988 65.9159 111.432 65.3284 111.432 64.6036C111.432 63.8788 111.988 63.2913 112.674 63.2913C113.36 63.2913 113.917 63.8788 113.917 64.6036Z" fill="#002740"/>
<path d="M118.504 57.1334C118.504 57.8582 117.948 58.4457 117.262 58.4457C116.575 58.4457 116.019 57.8582 116.019 57.1334C116.019 56.4086 116.575 55.821 117.262 55.821C117.948 55.821 118.504 56.4086 118.504 57.1334Z" fill="#002740"/>
<path d="M126.915 58.3443C126.915 59.0691 126.358 59.6567 125.672 59.6567C124.986 59.6567 124.43 59.0691 124.43 58.3443C124.43 57.6195 124.986 57.032 125.672 57.032C126.358 57.032 126.915 57.6195 126.915 58.3443Z" fill="#002740"/>
<path d="M132.458 51.6822C132.458 52.407 131.902 52.9945 131.216 52.9945C130.529 52.9945 129.973 52.407 129.973 51.6822C129.973 50.9574 130.529 50.3699 131.216 50.3699C131.902 50.3699 132.458 50.9574 132.458 51.6822Z" fill="#002740"/>
</g>
<g opacity="0.6">
<path fill-rule="evenodd" clip-rule="evenodd" d="M219.647 51.557C219.765 51.6686 219.775 51.86 219.669 51.9846L213.831 58.8712L205.451 57.4631L200.965 64.8673C200.879 65.0082 200.702 65.0493 200.569 64.9591C200.435 64.869 200.396 64.6817 200.482 64.5408L205.17 56.8026L213.612 58.2211L219.242 51.5806C219.348 51.456 219.529 51.4454 219.647 51.557Z" fill="#002740"/>
<path fill-rule="evenodd" clip-rule="evenodd" d="M195.084 45.8269C195.348 45.8269 195.562 46.0529 195.562 46.3316V72.3765H220.603C220.867 72.3765 221.081 72.6024 221.081 72.8812C221.081 73.16 220.867 73.3859 220.603 73.3859H194.606V46.3316C194.606 46.0529 194.82 45.8269 195.084 45.8269Z" fill="#002740"/>
<path d="M201.965 64.6036C201.965 65.3284 201.409 65.9159 200.723 65.9159C200.037 65.9159 199.48 65.3284 199.48 64.6036C199.48 63.8788 200.037 63.2913 200.723 63.2913C201.409 63.2913 201.965 63.8788 201.965 64.6036Z" fill="#002740"/>
<path d="M206.553 57.1334C206.553 57.8582 205.997 58.4457 205.311 58.4457C204.624 58.4457 204.068 57.8582 204.068 57.1334C204.068 56.4086 204.624 55.821 205.311 55.821C205.997 55.821 206.553 56.4086 206.553 57.1334Z" fill="#002740"/>
<path d="M214.964 58.3448C214.964 59.0696 214.407 59.6571 213.721 59.6571C213.035 59.6571 212.479 59.0696 212.479 58.3448C212.479 57.62 213.035 57.0325 213.721 57.0325C214.407 57.0325 214.964 57.62 214.964 58.3448Z" fill="#002740"/>
<path d="M220.507 51.6822C220.507 52.407 219.951 52.9945 219.265 52.9945C218.579 52.9945 218.022 52.407 218.022 51.6822C218.022 50.9574 218.579 50.3699 219.265 50.3699C219.951 50.3699 220.507 50.9574 220.507 51.6822Z" fill="#002740"/>
</g>
<g opacity="0.6">
<path fill-rule="evenodd" clip-rule="evenodd" d="M307.696 51.5575C307.814 51.669 307.824 51.8605 307.718 51.9851L301.879 58.8717L293.5 57.4636L289.013 64.8678C288.928 65.0087 288.751 65.0498 288.617 64.9596C288.484 64.8694 288.445 64.6822 288.53 64.5413L293.219 56.8031L301.661 58.2216L307.291 51.581C307.396 51.4564 307.578 51.4459 307.696 51.5575Z" fill="#002740"/>
<path fill-rule="evenodd" clip-rule="evenodd" d="M283.133 45.8269C283.397 45.8269 283.611 46.0529 283.611 46.3316V72.3765H308.651C308.915 72.3765 309.129 72.6024 309.129 72.8812C309.129 73.16 308.915 73.3859 308.651 73.3859H282.655V46.3316C282.655 46.0529 282.869 45.8269 283.133 45.8269Z" fill="#002740"/>
<path d="M290.014 64.6036C290.014 65.3284 289.458 65.9159 288.772 65.9159C288.086 65.9159 287.529 65.3284 287.529 64.6036C287.529 63.8788 288.086 63.2913 288.772 63.2913C289.458 63.2913 290.014 63.8788 290.014 64.6036Z" fill="#002740"/>
<path d="M294.602 57.1334C294.602 57.8582 294.045 58.4457 293.359 58.4457C292.673 58.4457 292.117 57.8582 292.117 57.1334C292.117 56.4086 292.673 55.821 293.359 55.821C294.045 55.821 294.602 56.4086 294.602 57.1334Z" fill="#002740"/>
<path d="M303.013 58.3443C303.013 59.0691 302.456 59.6567 301.77 59.6567C301.084 59.6567 300.528 59.0691 300.528 58.3443C300.528 57.6195 301.084 57.032 301.77 57.032C302.456 57.032 303.013 57.6195 303.013 58.3443Z" fill="#002740"/>
<path d="M308.556 51.6822C308.556 52.407 308 52.9945 307.313 52.9945C306.627 52.9945 306.071 52.407 306.071 51.6822C306.071 50.9574 306.627 50.3699 307.313 50.3699C308 50.3699 308.556 50.9574 308.556 51.6822Z" fill="#002740"/>
</g>
<g opacity="0.6">
<path fill-rule="evenodd" clip-rule="evenodd" d="M10.4126 112.557C10.5305 112.669 10.5405 112.861 10.4349 112.985L4.59612 119.872L-3.78344 118.464L-8.26984 125.868C-8.3552 126.009 -8.53252 126.05 -8.6659 125.96C-8.79927 125.869 -8.8382 125.682 -8.75284 125.541L-4.06408 117.803L4.37748 119.222L10.0077 112.581C10.1133 112.456 10.2946 112.446 10.4126 112.557Z" fill="#002740"/>
<path fill-rule="evenodd" clip-rule="evenodd" d="M-14.1501 106.827C-13.8862 106.827 -13.6722 107.053 -13.6722 107.332V133.376H11.3683C11.6322 133.376 11.8462 133.602 11.8462 133.881C11.8462 134.16 11.6322 134.386 11.3683 134.386H-14.628V107.332C-14.628 107.053 -14.414 106.827 -14.1501 106.827Z" fill="#002740"/>
<path d="M5.72923 119.344C5.72923 120.069 5.17296 120.657 4.48676 120.657C3.80057 120.657 3.24429 120.069 3.24429 119.344C3.24429 118.62 3.80057 118.032 4.48676 118.032C5.17296 118.032 5.72923 118.62 5.72923 119.344Z" fill="#002740"/>
<path d="M11.2726 112.682C11.2726 113.407 10.7163 113.995 10.0301 113.995C9.3439 113.995 8.78763 113.407 8.78763 112.682C8.78763 111.957 9.3439 111.37 10.0301 111.37C10.7163 111.37 11.2726 111.957 11.2726 112.682Z" fill="#002740"/>
</g>
<g opacity="0.6">
<path fill-rule="evenodd" clip-rule="evenodd" d="M98.4611 112.557C98.5791 112.669 98.5891 112.86 98.4834 112.985L92.6447 119.871L84.2651 118.463L79.7787 125.867C79.6934 126.008 79.516 126.049 79.3827 125.959C79.2493 125.869 79.2104 125.682 79.2957 125.541L83.9845 117.803L92.426 119.221L98.0562 112.581C98.1619 112.456 98.3431 112.445 98.4611 112.557Z" fill="#002740"/>
<path fill-rule="evenodd" clip-rule="evenodd" d="M73.8986 106.827C74.1626 106.827 74.3765 107.053 74.3765 107.332V133.376H99.4171C99.681 133.376 99.8949 133.602 99.8949 133.881C99.8949 134.16 99.681 134.386 99.4171 134.386H73.4208V107.332C73.4208 107.053 73.6347 106.827 73.8986 106.827Z" fill="#002740"/>
<path d="M80.7799 125.604C80.7799 126.328 80.2236 126.916 79.5374 126.916C78.8512 126.916 78.295 126.328 78.295 125.604C78.295 124.879 78.8512 124.291 79.5374 124.291C80.2236 124.291 80.7799 124.879 80.7799 125.604Z" fill="#002740"/>
<path d="M85.3675 118.133C85.3675 118.858 84.8113 119.446 84.1251 119.446C83.4389 119.446 82.8826 118.858 82.8826 118.133C82.8826 117.409 83.4389 116.821 84.1251 116.821C84.8113 116.821 85.3675 117.409 85.3675 118.133Z" fill="#002740"/>
<path d="M93.7781 119.344C93.7781 120.069 93.2218 120.657 92.5357 120.657C91.8495 120.657 91.2932 120.069 91.2932 119.344C91.2932 118.62 91.8495 118.032 92.5357 118.032C93.2218 118.032 93.7781 118.62 93.7781 119.344Z" fill="#002740"/>
<path d="M99.3211 112.682C99.3211 113.407 98.7648 113.994 98.0786 113.994C97.3924 113.994 96.8362 113.407 96.8362 112.682C96.8362 111.957 97.3924 111.369 98.0786 111.369C98.7648 111.369 99.3211 111.957 99.3211 112.682Z" fill="#002740"/>
</g>
<g opacity="0.6">
<path fill-rule="evenodd" clip-rule="evenodd" d="M186.51 112.557C186.628 112.669 186.638 112.861 186.532 112.985L180.694 119.872L172.314 118.464L167.828 125.868C167.742 126.009 167.565 126.05 167.432 125.96C167.298 125.869 167.259 125.682 167.345 125.541L172.033 117.803L180.475 119.222L186.105 112.581C186.211 112.456 186.392 112.446 186.51 112.557Z" fill="#002740"/>
<path fill-rule="evenodd" clip-rule="evenodd" d="M161.948 106.827C162.212 106.827 162.426 107.053 162.426 107.332V133.376H187.466C187.73 133.376 187.944 133.602 187.944 133.881C187.944 134.16 187.73 134.386 187.466 134.386H161.47V107.332C161.47 107.053 161.684 106.827 161.948 106.827Z" fill="#002740"/>
<path d="M168.829 125.604C168.829 126.328 168.273 126.916 167.586 126.916C166.9 126.916 166.344 126.328 166.344 125.604C166.344 124.879 166.9 124.291 167.586 124.291C168.273 124.291 168.829 124.879 168.829 125.604Z" fill="#002740"/>
<path d="M173.416 118.133C173.416 118.858 172.86 119.446 172.174 119.446C171.488 119.446 170.931 118.858 170.931 118.133C170.931 117.409 171.488 116.821 172.174 116.821C172.86 116.821 173.416 117.409 173.416 118.133Z" fill="#002740"/>
<path d="M181.827 119.344C181.827 120.069 181.271 120.657 180.585 120.657C179.898 120.657 179.342 120.069 179.342 119.344C179.342 118.62 179.898 118.032 180.585 118.032C181.271 118.032 181.827 118.62 181.827 119.344Z" fill="#002740"/>
<path d="M187.37 112.682C187.37 113.407 186.814 113.995 186.128 113.995C185.442 113.995 184.885 113.407 184.885 112.682C184.885 111.957 185.442 111.37 186.128 111.37C186.814 111.37 187.37 111.957 187.37 112.682Z" fill="#002740"/>
</g>
<g opacity="0.6">
<path fill-rule="evenodd" clip-rule="evenodd" d="M274.559 112.557C274.677 112.669 274.687 112.86 274.581 112.985L268.743 119.871L260.363 118.463L255.877 125.867C255.791 126.008 255.614 126.049 255.481 125.959C255.347 125.869 255.308 125.682 255.394 125.541L260.082 117.803L268.524 119.221L274.154 112.581C274.26 112.456 274.441 112.445 274.559 112.557Z" fill="#002740"/>
<path fill-rule="evenodd" clip-rule="evenodd" d="M249.996 106.827C250.26 106.827 250.474 107.053 250.474 107.332V133.376H275.515C275.779 133.376 275.993 133.602 275.993 133.881C275.993 134.16 275.779 134.386 275.515 134.386H249.518V107.332C249.518 107.053 249.732 106.827 249.996 106.827Z" fill="#002740"/>
<path d="M256.878 125.604C256.878 126.328 256.321 126.916 255.635 126.916C254.949 126.916 254.393 126.328 254.393 125.604C254.393 124.879 254.949 124.291 255.635 124.291C256.321 124.291 256.878 124.879 256.878 125.604Z" fill="#002740"/>
<path d="M261.465 118.133C261.465 118.858 260.909 119.446 260.223 119.446C259.537 119.446 258.98 118.858 258.98 118.133C258.98 117.409 259.537 116.821 260.223 116.821C260.909 116.821 261.465 117.409 261.465 118.133Z" fill="#002740"/>
<path d="M269.876 119.345C269.876 120.07 269.32 120.657 268.634 120.657C267.947 120.657 267.391 120.07 267.391 119.345C267.391 118.62 267.947 118.032 268.634 118.032C269.32 118.032 269.876 118.62 269.876 119.345Z" fill="#002740"/>
<path d="M275.419 112.682C275.419 113.407 274.863 113.995 274.177 113.995C273.491 113.995 272.935 113.407 272.935 112.682C272.935 111.957 273.491 111.37 274.177 111.37C274.863 111.37 275.419 111.957 275.419 112.682Z" fill="#002740"/>
</g>
<g opacity="0.6">
<path fill-rule="evenodd" clip-rule="evenodd" d="M362.608 112.557C362.726 112.669 362.736 112.861 362.63 112.985L356.791 119.872L348.412 118.464L343.925 125.868C343.84 126.009 343.663 126.05 343.529 125.96C343.396 125.869 343.357 125.682 343.442 125.541L348.131 117.803L356.573 119.222L362.203 112.581C362.309 112.456 362.49 112.446 362.608 112.557Z" fill="#002740"/>
<path fill-rule="evenodd" clip-rule="evenodd" d="M338.045 106.827C338.309 106.827 338.523 107.053 338.523 107.332V133.376H363.564C363.828 133.376 364.042 133.602 364.042 133.881C364.042 134.16 363.828 134.386 363.564 134.386H337.568V107.332C337.568 107.053 337.781 106.827 338.045 106.827Z" fill="#002740"/>
<path d="M344.927 125.604C344.927 126.328 344.37 126.916 343.684 126.916C342.998 126.916 342.442 126.328 342.442 125.604C342.442 124.879 342.998 124.291 343.684 124.291C344.37 124.291 344.927 124.879 344.927 125.604Z" fill="#002740"/>
<path d="M349.514 118.133C349.514 118.858 348.958 119.446 348.272 119.446C347.586 119.446 347.029 118.858 347.029 118.133C347.029 117.409 347.586 116.821 348.272 116.821C348.958 116.821 349.514 117.409 349.514 118.133Z" fill="#002740"/>
<path d="M357.925 119.344C357.925 120.069 357.368 120.657 356.682 120.657C355.996 120.657 355.44 120.069 355.44 119.344C355.44 118.62 355.996 118.032 356.682 118.032C357.368 118.032 357.925 118.62 357.925 119.344Z" fill="#002740"/>
<path d="M363.468 112.682C363.468 113.407 362.912 113.995 362.226 113.995C361.54 113.995 360.983 113.407 360.983 112.682C360.983 111.957 361.54 111.37 362.226 111.37C362.912 111.37 363.468 111.957 363.468 112.682Z" fill="#002740"/>
</g>
<g opacity="0.6">
<path fill-rule="evenodd" clip-rule="evenodd" d="M43.549 183.557C43.667 183.669 43.677 183.86 43.5713 183.985L37.7326 190.871L29.353 189.463L24.8666 196.867C24.7812 197.008 24.6039 197.049 24.4705 196.959C24.3372 196.869 24.2982 196.682 24.3836 196.541L29.0724 188.803L37.5139 190.221L43.1441 183.581C43.2498 183.456 43.431 183.445 43.549 183.557Z" fill="#002740"/>
<path fill-rule="evenodd" clip-rule="evenodd" d="M18.9864 177.827C19.2504 177.827 19.4643 178.053 19.4643 178.332V204.376H44.5049C44.7688 204.376 44.9827 204.602 44.9827 204.881C44.9827 205.16 44.7688 205.386 44.5049 205.386H18.5086V178.332C18.5086 178.053 18.7225 177.827 18.9864 177.827Z" fill="#002740"/>
<path d="M25.8678 196.604C25.8678 197.328 25.3115 197.916 24.6253 197.916C23.9391 197.916 23.3829 197.328 23.3829 196.604C23.3829 195.879 23.9391 195.291 24.6253 195.291C25.3115 195.291 25.8678 195.879 25.8678 196.604Z" fill="#002740"/>
<path d="M30.4554 189.133C30.4554 189.858 29.8992 190.446 29.213 190.446C28.5268 190.446 27.9705 189.858 27.9705 189.133C27.9705 188.409 28.5268 187.821 29.213 187.821C29.8992 187.821 30.4554 188.409 30.4554 189.133Z" fill="#002740"/>
<path d="M38.866 190.344C38.866 191.069 38.3097 191.657 37.6235 191.657C36.9373 191.657 36.3811 191.069 36.3811 190.344C36.3811 189.62 36.9373 189.032 37.6235 189.032C38.3097 189.032 38.866 189.62 38.866 190.344Z" fill="#002740"/>
<path d="M44.4091 183.682C44.4091 184.407 43.8528 184.994 43.1666 184.994C42.4804 184.994 41.9242 184.407 41.9242 183.682C41.9242 182.957 42.4804 182.369 43.1666 182.369C43.8528 182.369 44.4091 182.957 44.4091 183.682Z" fill="#002740"/>
</g>
<g opacity="0.6">
<path fill-rule="evenodd" clip-rule="evenodd" d="M131.598 183.557C131.716 183.669 131.726 183.861 131.62 183.985L125.781 190.872L117.402 189.464L112.915 196.868C112.83 197.009 112.653 197.05 112.519 196.96C112.386 196.869 112.347 196.682 112.432 196.541L117.121 188.803L125.563 190.222L131.193 183.581C131.299 183.456 131.48 183.446 131.598 183.557Z" fill="#002740"/>
<path fill-rule="evenodd" clip-rule="evenodd" d="M107.035 177.827C107.299 177.827 107.513 178.053 107.513 178.332V204.376H132.554C132.818 204.376 133.032 204.602 133.032 204.881C133.032 205.16 132.818 205.386 132.554 205.386H106.558V178.332C106.558 178.053 106.772 177.827 107.035 177.827Z" fill="#002740"/>
<path d="M113.917 196.604C113.917 197.328 113.36 197.916 112.674 197.916C111.988 197.916 111.432 197.328 111.432 196.604C111.432 195.879 111.988 195.291 112.674 195.291C113.36 195.291 113.917 195.879 113.917 196.604Z" fill="#002740"/>
<path d="M118.504 189.133C118.504 189.858 117.948 190.446 117.262 190.446C116.575 190.446 116.019 189.858 116.019 189.133C116.019 188.409 116.575 187.821 117.262 187.821C117.948 187.821 118.504 188.409 118.504 189.133Z" fill="#002740"/>
<path d="M126.915 190.344C126.915 191.069 126.358 191.657 125.672 191.657C124.986 191.657 124.43 191.069 124.43 190.344C124.43 189.62 124.986 189.032 125.672 189.032C126.358 189.032 126.915 189.62 126.915 190.344Z" fill="#002740"/>
<path d="M132.458 183.682C132.458 184.407 131.902 184.995 131.216 184.995C130.529 184.995 129.973 184.407 129.973 183.682C129.973 182.957 130.529 182.37 131.216 182.37C131.902 182.37 132.458 182.957 132.458 183.682Z" fill="#002740"/>
</g>
<g opacity="0.6">
<path fill-rule="evenodd" clip-rule="evenodd" d="M219.647 183.557C219.765 183.669 219.775 183.86 219.669 183.985L213.831 190.871L205.451 189.463L200.965 196.867C200.879 197.008 200.702 197.049 200.569 196.959C200.435 196.869 200.396 196.682 200.482 196.541L205.17 188.803L213.612 190.221L219.242 183.581C219.348 183.456 219.529 183.445 219.647 183.557Z" fill="#002740"/>
<path fill-rule="evenodd" clip-rule="evenodd" d="M195.084 177.827C195.348 177.827 195.562 178.053 195.562 178.332V204.376H220.603C220.867 204.376 221.081 204.602 221.081 204.881C221.081 205.16 220.867 205.386 220.603 205.386H194.606V178.332C194.606 178.053 194.82 177.827 195.084 177.827Z" fill="#002740"/>
<path d="M201.965 196.604C201.965 197.328 201.409 197.916 200.723 197.916C200.037 197.916 199.48 197.328 199.48 196.604C199.48 195.879 200.037 195.291 200.723 195.291C201.409 195.291 201.965 195.879 201.965 196.604Z" fill="#002740"/>
<path d="M206.553 189.133C206.553 189.858 205.997 190.446 205.311 190.446C204.624 190.446 204.068 189.858 204.068 189.133C204.068 188.409 204.624 187.821 205.311 187.821C205.997 187.821 206.553 188.409 206.553 189.133Z" fill="#002740"/>
<path d="M214.964 190.345C214.964 191.07 214.407 191.657 213.721 191.657C213.035 191.657 212.479 191.07 212.479 190.345C212.479 189.62 213.035 189.032 213.721 189.032C214.407 189.032 214.964 189.62 214.964 190.345Z" fill="#002740"/>
<path d="M220.507 183.682C220.507 184.407 219.951 184.995 219.265 184.995C218.579 184.995 218.022 184.407 218.022 183.682C218.022 182.957 218.579 182.37 219.265 182.37C219.951 182.37 220.507 182.957 220.507 183.682Z" fill="#002740"/>
</g>
<g opacity="0.6">
<path fill-rule="evenodd" clip-rule="evenodd" d="M307.696 183.557C307.814 183.669 307.824 183.861 307.718 183.985L301.879 190.872L293.5 189.464L289.013 196.868C288.928 197.009 288.751 197.05 288.617 196.96C288.484 196.869 288.445 196.682 288.53 196.541L293.219 188.803L301.661 190.222L307.291 183.581C307.396 183.456 307.578 183.446 307.696 183.557Z" fill="#002740"/>
<path fill-rule="evenodd" clip-rule="evenodd" d="M283.133 177.827C283.397 177.827 283.611 178.053 283.611 178.332V204.376H308.651C308.915 204.376 309.129 204.602 309.129 204.881C309.129 205.16 308.915 205.386 308.651 205.386H282.655V178.332C282.655 178.053 282.869 177.827 283.133 177.827Z" fill="#002740"/>
<path d="M290.014 196.604C290.014 197.328 289.458 197.916 288.772 197.916C288.086 197.916 287.529 197.328 287.529 196.604C287.529 195.879 288.086 195.291 288.772 195.291C289.458 195.291 290.014 195.879 290.014 196.604Z" fill="#002740"/>
<path d="M294.602 189.133C294.602 189.858 294.045 190.446 293.359 190.446C292.673 190.446 292.117 189.858 292.117 189.133C292.117 188.409 292.673 187.821 293.359 187.821C294.045 187.821 294.602 188.409 294.602 189.133Z" fill="#002740"/>
<path d="M303.013 190.344C303.013 191.069 302.456 191.657 301.77 191.657C301.084 191.657 300.528 191.069 300.528 190.344C300.528 189.62 301.084 189.032 301.77 189.032C302.456 189.032 303.013 189.62 303.013 190.344Z" fill="#002740"/>
<path d="M308.556 183.682C308.556 184.407 308 184.995 307.313 184.995C306.627 184.995 306.071 184.407 306.071 183.682C306.071 182.957 306.627 182.37 307.313 182.37C308 182.37 308.556 182.957 308.556 183.682Z" fill="#002740"/>
</g>
<g opacity="0.6">
<path fill-rule="evenodd" clip-rule="evenodd" d="M10.4126 244.557C10.5305 244.669 10.5405 244.861 10.4349 244.985L4.59612 251.872L-3.78344 250.464L-8.26984 257.868C-8.3552 258.009 -8.53252 258.05 -8.6659 257.96C-8.79927 257.869 -8.8382 257.682 -8.75284 257.541L-4.06408 249.803L4.37748 251.222L10.0077 244.581C10.1133 244.456 10.2946 244.446 10.4126 244.557Z" fill="#002740"/>
<path fill-rule="evenodd" clip-rule="evenodd" d="M-14.1501 238.827C-13.8862 238.827 -13.6722 239.053 -13.6722 239.332V265.376H11.3683C11.6322 265.376 11.8462 265.602 11.8462 265.881C11.8462 266.16 11.6322 266.386 11.3683 266.386H-14.628V239.332C-14.628 239.053 -14.414 238.827 -14.1501 238.827Z" fill="#002740"/>
<path d="M5.72923 251.344C5.72923 252.069 5.17296 252.657 4.48676 252.657C3.80057 252.657 3.24429 252.069 3.24429 251.344C3.24429 250.62 3.80057 250.032 4.48676 250.032C5.17296 250.032 5.72923 250.62 5.72923 251.344Z" fill="#002740"/>
<path d="M11.2726 244.682C11.2726 245.407 10.7163 245.995 10.0301 245.995C9.3439 245.995 8.78763 245.407 8.78763 244.682C8.78763 243.957 9.3439 243.37 10.0301 243.37C10.7163 243.37 11.2726 243.957 11.2726 244.682Z" fill="#002740"/>
</g>
<g opacity="0.6">
<path fill-rule="evenodd" clip-rule="evenodd" d="M98.4611 244.557C98.5791 244.669 98.5891 244.86 98.4834 244.985L92.6447 251.871L84.2651 250.463L79.7787 257.867C79.6934 258.008 79.516 258.049 79.3827 257.959C79.2493 257.869 79.2104 257.682 79.2957 257.541L83.9845 249.803L92.426 251.221L98.0562 244.581C98.1619 244.456 98.3431 244.445 98.4611 244.557Z" fill="#002740"/>
<path fill-rule="evenodd" clip-rule="evenodd" d="M73.8986 238.827C74.1626 238.827 74.3765 239.053 74.3765 239.332V265.376H99.4171C99.681 265.376 99.8949 265.602 99.8949 265.881C99.8949 266.16 99.681 266.386 99.4171 266.386H73.4208V239.332C73.4208 239.053 73.6347 238.827 73.8986 238.827Z" fill="#002740"/>
<path d="M80.7799 257.604C80.7799 258.328 80.2236 258.916 79.5374 258.916C78.8512 258.916 78.295 258.328 78.295 257.604C78.295 256.879 78.8512 256.291 79.5374 256.291C80.2236 256.291 80.7799 256.879 80.7799 257.604Z" fill="#002740"/>
<path d="M85.3675 250.133C85.3675 250.858 84.8113 251.446 84.1251 251.446C83.4389 251.446 82.8826 250.858 82.8826 250.133C82.8826 249.409 83.4389 248.821 84.1251 248.821C84.8113 248.821 85.3675 249.409 85.3675 250.133Z" fill="#002740"/>
<path d="M93.7781 251.344C93.7781 252.069 93.2218 252.657 92.5357 252.657C91.8495 252.657 91.2932 252.069 91.2932 251.344C91.2932 250.62 91.8495 250.032 92.5357 250.032C93.2218 250.032 93.7781 250.62 93.7781 251.344Z" fill="#002740"/>
<path d="M99.3211 244.682C99.3211 245.407 98.7648 245.994 98.0786 245.994C97.3924 245.994 96.8362 245.407 96.8362 244.682C96.8362 243.957 97.3924 243.369 98.0786 243.369C98.7648 243.369 99.3211 243.957 99.3211 244.682Z" fill="#002740"/>
</g>
<g opacity="0.6">
<path fill-rule="evenodd" clip-rule="evenodd" d="M186.51 244.557C186.628 244.669 186.638 244.861 186.532 244.985L180.694 251.872L172.314 250.464L167.828 257.868C167.742 258.009 167.565 258.05 167.432 257.96C167.298 257.869 167.259 257.682 167.345 257.541L172.033 249.803L180.475 251.222L186.105 244.581C186.211 244.456 186.392 244.446 186.51 244.557Z" fill="#002740"/>
<path fill-rule="evenodd" clip-rule="evenodd" d="M161.948 238.827C162.212 238.827 162.426 239.053 162.426 239.332V265.376H187.466C187.73 265.376 187.944 265.602 187.944 265.881C187.944 266.16 187.73 266.386 187.466 266.386H161.47V239.332C161.47 239.053 161.684 238.827 161.948 238.827Z" fill="#002740"/>
<path d="M168.829 257.604C168.829 258.328 168.273 258.916 167.586 258.916C166.9 258.916 166.344 258.328 166.344 257.604C166.344 256.879 166.9 256.291 167.586 256.291C168.273 256.291 168.829 256.879 168.829 257.604Z" fill="#002740"/>
<path d="M173.416 250.133C173.416 250.858 172.86 251.446 172.174 251.446C171.488 251.446 170.931 250.858 170.931 250.133C170.931 249.409 171.488 248.821 172.174 248.821C172.86 248.821 173.416 249.409 173.416 250.133Z" fill="#002740"/>
<path d="M181.827 251.344C181.827 252.069 181.271 252.657 180.585 252.657C179.898 252.657 179.342 252.069 179.342 251.344C179.342 250.62 179.898 250.032 180.585 250.032C181.271 250.032 181.827 250.62 181.827 251.344Z" fill="#002740"/>
<path d="M187.37 244.682C187.37 245.407 186.814 245.995 186.128 245.995C185.442 245.995 184.885 245.407 184.885 244.682C184.885 243.957 185.442 243.37 186.128 243.37C186.814 243.37 187.37 243.957 187.37 244.682Z" fill="#002740"/>
</g>
<g opacity="0.6">
<path fill-rule="evenodd" clip-rule="evenodd" d="M274.559 244.557C274.677 244.669 274.687 244.86 274.581 244.985L268.743 251.871L260.363 250.463L255.877 257.867C255.791 258.008 255.614 258.049 255.481 257.959C255.347 257.869 255.308 257.682 255.394 257.541L260.082 249.803L268.524 251.221L274.154 244.581C274.26 244.456 274.441 244.445 274.559 244.557Z" fill="#002740"/>
<path fill-rule="evenodd" clip-rule="evenodd" d="M249.996 238.827C250.26 238.827 250.474 239.053 250.474 239.332V265.376H275.515C275.779 265.376 275.993 265.602 275.993 265.881C275.993 266.16 275.779 266.386 275.515 266.386H249.518V239.332C249.518 239.053 249.732 238.827 249.996 238.827Z" fill="#002740"/>
<path d="M256.878 257.604C256.878 258.328 256.321 258.916 255.635 258.916C254.949 258.916 254.393 258.328 254.393 257.604C254.393 256.879 254.949 256.291 255.635 256.291C256.321 256.291 256.878 256.879 256.878 257.604Z" fill="#002740"/>
<path d="M261.465 250.133C261.465 250.858 260.909 251.446 260.223 251.446C259.537 251.446 258.98 250.858 258.98 250.133C258.98 249.409 259.537 248.821 260.223 248.821C260.909 248.821 261.465 249.409 261.465 250.133Z" fill="#002740"/>
<path d="M269.876 251.345C269.876 252.07 269.32 252.657 268.634 252.657C267.947 252.657 267.391 252.07 267.391 251.345C267.391 250.62 267.947 250.032 268.634 250.032C269.32 250.032 269.876 250.62 269.876 251.345Z" fill="#002740"/>
<path d="M275.419 244.682C275.419 245.407 274.863 245.995 274.177 245.995C273.491 245.995 272.935 245.407 272.935 244.682C272.935 243.957 273.491 243.37 274.177 243.37C274.863 243.37 275.419 243.957 275.419 244.682Z" fill="#002740"/>
</g>
<g opacity="0.6">
<path fill-rule="evenodd" clip-rule="evenodd" d="M362.608 244.557C362.726 244.669 362.736 244.861 362.63 244.985L356.791 251.872L348.412 250.464L343.925 257.868C343.84 258.009 343.663 258.05 343.529 257.96C343.396 257.869 343.357 257.682 343.442 257.541L348.131 249.803L356.573 251.222L362.203 244.581C362.309 244.456 362.49 244.446 362.608 244.557Z" fill="#002740"/>
<path fill-rule="evenodd" clip-rule="evenodd" d="M338.045 238.827C338.309 238.827 338.523 239.053 338.523 239.332V265.376H363.564C363.828 265.376 364.042 265.602 364.042 265.881C364.042 266.16 363.828 266.386 363.564 266.386H337.568V239.332C337.568 239.053 337.781 238.827 338.045 238.827Z" fill="#002740"/>
<path d="M344.927 257.604C344.927 258.328 344.37 258.916 343.684 258.916C342.998 258.916 342.442 258.328 342.442 257.604C342.442 256.879 342.998 256.291 343.684 256.291C344.37 256.291 344.927 256.879 344.927 257.604Z" fill="#002740"/>
<path d="M349.514 250.133C349.514 250.858 348.958 251.446 348.272 251.446C347.586 251.446 347.029 250.858 347.029 250.133C347.029 249.409 347.586 248.821 348.272 248.821C348.958 248.821 349.514 249.409 349.514 250.133Z" fill="#002740"/>
<path d="M357.925 251.344C357.925 252.069 357.368 252.657 356.682 252.657C355.996 252.657 355.44 252.069 355.44 251.344C355.44 250.62 355.996 250.032 356.682 250.032C357.368 250.032 357.925 250.62 357.925 251.344Z" fill="#002740"/>
<path d="M363.468 244.682C363.468 245.407 362.912 245.995 362.226 245.995C361.54 245.995 360.983 245.407 360.983 244.682C360.983 243.957 361.54 243.37 362.226 243.37C362.912 243.37 363.468 243.957 363.468 244.682Z" fill="#002740"/>
</g>
<g opacity="0.6">
<path fill-rule="evenodd" clip-rule="evenodd" d="M408.999 51.5575C409.117 51.669 409.127 51.8605 409.022 51.9851L403.183 58.8717L394.803 57.4636L390.317 64.8678C390.232 65.0087 390.054 65.0498 389.921 64.9596C389.788 64.8694 389.749 64.6822 389.834 64.5413L394.523 56.8031L402.964 58.2216L408.595 51.581C408.7 51.4564 408.881 51.4459 408.999 51.5575Z" fill="#002740"/>
<path fill-rule="evenodd" clip-rule="evenodd" d="M384.437 45.8269C384.701 45.8269 384.915 46.0529 384.915 46.3316V72.3765H409.955C410.219 72.3765 410.433 72.6024 410.433 72.8812C410.433 73.16 410.219 73.3859 409.955 73.3859H383.959V46.3316C383.959 46.0529 384.173 45.8269 384.437 45.8269Z" fill="#002740"/>
<path d="M391.318 64.6036C391.318 65.3284 390.762 65.9159 390.076 65.9159C389.389 65.9159 388.833 65.3284 388.833 64.6036C388.833 63.8788 389.389 63.2913 390.076 63.2913C390.762 63.2913 391.318 63.8788 391.318 64.6036Z" fill="#002740"/>
<path d="M395.905 57.1334C395.905 57.8582 395.349 58.4457 394.663 58.4457C393.977 58.4457 393.421 57.8582 393.421 57.1334C393.421 56.4086 393.977 55.821 394.663 55.821C395.349 55.821 395.905 56.4086 395.905 57.1334Z" fill="#002740"/>
<path d="M404.316 58.3443C404.316 59.0691 403.76 59.6567 403.074 59.6567C402.388 59.6567 401.831 59.0691 401.831 58.3443C401.831 57.6195 402.388 57.032 403.074 57.032C403.76 57.032 404.316 57.6195 404.316 58.3443Z" fill="#002740"/>
<path d="M409.86 51.6822C409.86 52.407 409.303 52.9945 408.617 52.9945C407.931 52.9945 407.375 52.407 407.375 51.6822C407.375 50.9574 407.931 50.3699 408.617 50.3699C409.303 50.3699 409.86 50.9574 409.86 51.6822Z" fill="#002740"/>
</g>
<g opacity="0.6">
<path fill-rule="evenodd" clip-rule="evenodd" d="M497.048 51.557C497.166 51.6686 497.176 51.86 497.07 51.9846L491.231 58.8712L482.852 57.4631L478.366 64.8673C478.28 65.0082 478.103 65.0493 477.969 64.9591C477.836 64.869 477.797 64.6817 477.883 64.5408L482.571 56.8026L491.013 58.2211L496.643 51.5806C496.749 51.456 496.93 51.4454 497.048 51.557Z" fill="#002740"/>
<path fill-rule="evenodd" clip-rule="evenodd" d="M472.486 45.8269C472.749 45.8269 472.963 46.0529 472.963 46.3316V72.3765H498.004C498.268 72.3765 498.482 72.6024 498.482 72.8812C498.482 73.16 498.268 73.3859 498.004 73.3859H472.008V46.3316C472.008 46.0529 472.222 45.8269 472.486 45.8269Z" fill="#002740"/>
<path d="M479.367 64.6036C479.367 65.3284 478.81 65.9159 478.124 65.9159C477.438 65.9159 476.882 65.3284 476.882 64.6036C476.882 63.8788 477.438 63.2913 478.124 63.2913C478.81 63.2913 479.367 63.8788 479.367 64.6036Z" fill="#002740"/>
<path d="M483.954 57.1334C483.954 57.8582 483.398 58.4457 482.712 58.4457C482.026 58.4457 481.469 57.8582 481.469 57.1334C481.469 56.4086 482.026 55.821 482.712 55.821C483.398 55.821 483.954 56.4086 483.954 57.1334Z" fill="#002740"/>
<path d="M492.365 58.3443C492.365 59.0691 491.809 59.6567 491.123 59.6567C490.436 59.6567 489.88 59.0691 489.88 58.3443C489.88 57.6195 490.436 57.032 491.123 57.032C491.809 57.032 492.365 57.6195 492.365 58.3443Z" fill="#002740"/>
<path d="M497.908 51.6817C497.908 52.4065 497.352 52.9941 496.666 52.9941C495.98 52.9941 495.423 52.4065 495.423 51.6817C495.423 50.9569 495.98 50.3694 496.666 50.3694C497.352 50.3694 497.908 50.9569 497.908 51.6817Z" fill="#002740"/>
</g>
<g opacity="0.6">
<path fill-rule="evenodd" clip-rule="evenodd" d="M585.097 51.5575C585.215 51.669 585.225 51.8605 585.119 51.9851L579.281 58.8717L570.901 57.4636L566.415 64.8678C566.329 65.0087 566.152 65.0498 566.019 64.9596C565.885 64.8694 565.846 64.6822 565.932 64.5413L570.62 56.8031L579.062 58.2216L584.692 51.581C584.798 51.4564 584.979 51.4459 585.097 51.5575Z" fill="#002740"/>
<path fill-rule="evenodd" clip-rule="evenodd" d="M560.534 45.8269C560.798 45.8269 561.012 46.0529 561.012 46.3316V72.3765H586.053C586.317 72.3765 586.531 72.6024 586.531 72.8812C586.531 73.16 586.317 73.3859 586.053 73.3859H560.057V46.3316C560.057 46.0529 560.27 45.8269 560.534 45.8269Z" fill="#002740"/>
<path d="M567.416 64.6036C567.416 65.3284 566.859 65.9159 566.173 65.9159C565.487 65.9159 564.931 65.3284 564.931 64.6036C564.931 63.8788 565.487 63.2913 566.173 63.2913C566.859 63.2913 567.416 63.8788 567.416 64.6036Z" fill="#002740"/>
<path d="M572.003 57.1334C572.003 57.8582 571.447 58.4457 570.761 58.4457C570.074 58.4457 569.518 57.8582 569.518 57.1334C569.518 56.4086 570.074 55.821 570.761 55.821C571.447 55.821 572.003 56.4086 572.003 57.1334Z" fill="#002740"/>
<path d="M580.414 58.3443C580.414 59.0691 579.857 59.6567 579.171 59.6567C578.485 59.6567 577.929 59.0691 577.929 58.3443C577.929 57.6195 578.485 57.032 579.171 57.032C579.857 57.032 580.414 57.6195 580.414 58.3443Z" fill="#002740"/>
<path d="M585.957 51.6822C585.957 52.407 585.401 52.9945 584.715 52.9945C584.028 52.9945 583.472 52.407 583.472 51.6822C583.472 50.9574 584.028 50.3699 584.715 50.3699C585.401 50.3699 585.957 50.9574 585.957 51.6822Z" fill="#002740"/>
</g>
<g opacity="0.6">
<path fill-rule="evenodd" clip-rule="evenodd" d="M673.146 51.557C673.264 51.6686 673.274 51.86 673.168 51.9846L667.329 58.8712L658.95 57.4631L654.463 64.8673C654.378 65.0082 654.201 65.0493 654.067 64.9591C653.934 64.869 653.895 64.6817 653.98 64.5408L658.669 56.8026L667.111 58.2211L672.741 51.5806C672.847 51.456 673.028 51.4454 673.146 51.557Z" fill="#002740"/>
<path fill-rule="evenodd" clip-rule="evenodd" d="M648.583 45.8269C648.847 45.8269 649.061 46.0529 649.061 46.3316V72.3765H674.102C674.366 72.3765 674.58 72.6024 674.58 72.8812C674.58 73.16 674.366 73.3859 674.102 73.3859H648.105V46.3316C648.105 46.0529 648.319 45.8269 648.583 45.8269Z" fill="#002740"/>
<path d="M655.465 64.6036C655.465 65.3284 654.908 65.9159 654.222 65.9159C653.536 65.9159 652.98 65.3284 652.98 64.6036C652.98 63.8788 653.536 63.2913 654.222 63.2913C654.908 63.2913 655.465 63.8788 655.465 64.6036Z" fill="#002740"/>
<path d="M660.052 57.1334C660.052 57.8582 659.496 58.4457 658.81 58.4457C658.123 58.4457 657.567 57.8582 657.567 57.1334C657.567 56.4086 658.123 55.821 658.81 55.821C659.496 55.821 660.052 56.4086 660.052 57.1334Z" fill="#002740"/>
</g>
<g opacity="0.6">
<path fill-rule="evenodd" clip-rule="evenodd" d="M463.912 112.557C464.03 112.669 464.04 112.861 463.934 112.985L458.095 119.872L449.716 118.464L445.229 125.868C445.144 126.009 444.967 126.05 444.833 125.96C444.7 125.869 444.661 125.682 444.746 125.541L449.435 117.803L457.877 119.222L463.507 112.581C463.612 112.456 463.794 112.446 463.912 112.557Z" fill="#002740"/>
<path fill-rule="evenodd" clip-rule="evenodd" d="M439.349 106.827C439.613 106.827 439.827 107.053 439.827 107.332V133.376H464.867C465.131 133.376 465.345 133.602 465.345 133.881C465.345 134.16 465.131 134.386 464.867 134.386H438.871V107.332C438.871 107.053 439.085 106.827 439.349 106.827Z" fill="#002740"/>
<path d="M446.23 125.604C446.23 126.328 445.674 126.916 444.988 126.916C444.302 126.916 443.745 126.328 443.745 125.604C443.745 124.879 444.302 124.291 444.988 124.291C445.674 124.291 446.23 124.879 446.23 125.604Z" fill="#002740"/>
<path d="M450.818 118.133C450.818 118.858 450.261 119.446 449.575 119.446C448.889 119.446 448.333 118.858 448.333 118.133C448.333 117.409 448.889 116.821 449.575 116.821C450.261 116.821 450.818 117.409 450.818 118.133Z" fill="#002740"/>
<path d="M459.228 119.344C459.228 120.069 458.672 120.657 457.986 120.657C457.3 120.657 456.743 120.069 456.743 119.344C456.743 118.62 457.3 118.032 457.986 118.032C458.672 118.032 459.228 118.62 459.228 119.344Z" fill="#002740"/>
<path d="M464.772 112.682C464.772 113.407 464.215 113.995 463.529 113.995C462.843 113.995 462.287 113.407 462.287 112.682C462.287 111.957 462.843 111.37 463.529 111.37C464.215 111.37 464.772 111.957 464.772 112.682Z" fill="#002740"/>
</g>
<g opacity="0.6">
<path fill-rule="evenodd" clip-rule="evenodd" d="M551.96 112.557C552.078 112.669 552.088 112.86 551.983 112.985L546.144 119.871L537.764 118.463L533.278 125.867C533.193 126.008 533.015 126.049 532.882 125.959C532.748 125.869 532.71 125.682 532.795 125.541L537.484 117.803L545.925 119.221L551.555 112.581C551.661 112.456 551.842 112.445 551.96 112.557Z" fill="#002740"/>
<path fill-rule="evenodd" clip-rule="evenodd" d="M527.398 106.827C527.662 106.827 527.876 107.053 527.876 107.332V133.376H552.916C553.18 133.376 553.394 133.602 553.394 133.881C553.394 134.16 553.18 134.386 552.916 134.386H526.92V107.332C526.92 107.053 527.134 106.827 527.398 106.827Z" fill="#002740"/>
<path d="M534.279 125.604C534.279 126.328 533.723 126.916 533.037 126.916C532.35 126.916 531.794 126.328 531.794 125.604C531.794 124.879 532.35 124.291 533.037 124.291C533.723 124.291 534.279 124.879 534.279 125.604Z" fill="#002740"/>
<path d="M538.867 118.133C538.867 118.858 538.31 119.446 537.624 119.446C536.938 119.446 536.382 118.858 536.382 118.133C536.382 117.409 536.938 116.821 537.624 116.821C538.31 116.821 538.867 117.409 538.867 118.133Z" fill="#002740"/>
<path d="M547.277 119.344C547.277 120.069 546.721 120.657 546.035 120.657C545.349 120.657 544.792 120.069 544.792 119.344C544.792 118.62 545.349 118.032 546.035 118.032C546.721 118.032 547.277 118.62 547.277 119.344Z" fill="#002740"/>
<path d="M552.82 112.682C552.82 113.407 552.264 113.994 551.578 113.994C550.892 113.994 550.335 113.407 550.335 112.682C550.335 111.957 550.892 111.369 551.578 111.369C552.264 111.369 552.82 111.957 552.82 112.682Z" fill="#002740"/>
</g>
<g opacity="0.6">
<path fill-rule="evenodd" clip-rule="evenodd" d="M640.009 112.557C640.127 112.669 640.137 112.861 640.031 112.985L634.193 119.872L625.813 118.464L621.327 125.868C621.241 126.009 621.064 126.05 620.931 125.96C620.797 125.869 620.758 125.682 620.844 125.541L625.532 117.803L633.974 119.222L639.604 112.581C639.71 112.456 639.891 112.446 640.009 112.557Z" fill="#002740"/>
<path fill-rule="evenodd" clip-rule="evenodd" d="M615.447 106.827C615.711 106.827 615.925 107.053 615.925 107.332V133.376H640.965C641.229 133.376 641.443 133.602 641.443 133.881C641.443 134.16 641.229 134.386 640.965 134.386H614.969V107.332C614.969 107.053 615.183 106.827 615.447 106.827Z" fill="#002740"/>
<path d="M622.328 125.604C622.328 126.328 621.772 126.916 621.085 126.916C620.399 126.916 619.843 126.328 619.843 125.604C619.843 124.879 620.399 124.291 621.085 124.291C621.772 124.291 622.328 124.879 622.328 125.604Z" fill="#002740"/>
<path d="M626.915 118.133C626.915 118.858 626.359 119.446 625.673 119.446C624.987 119.446 624.43 118.858 624.43 118.133C624.43 117.409 624.987 116.821 625.673 116.821C626.359 116.821 626.915 117.409 626.915 118.133Z" fill="#002740"/>
<path d="M635.326 119.344C635.326 120.069 634.77 120.657 634.084 120.657C633.397 120.657 632.841 120.069 632.841 119.344C632.841 118.62 633.397 118.032 634.084 118.032C634.77 118.032 635.326 118.62 635.326 119.344Z" fill="#002740"/>
<path d="M640.869 112.682C640.869 113.407 640.313 113.995 639.627 113.995C638.941 113.995 638.385 113.407 638.385 112.682C638.385 111.957 638.941 111.37 639.627 111.37C640.313 111.37 640.869 111.957 640.869 112.682Z" fill="#002740"/>
</g>
<g opacity="0.6">
<path fill-rule="evenodd" clip-rule="evenodd" d="M408.999 183.557C409.117 183.669 409.127 183.861 409.022 183.985L403.183 190.872L394.803 189.464L390.317 196.868C390.232 197.009 390.054 197.05 389.921 196.96C389.788 196.869 389.749 196.682 389.834 196.541L394.523 188.803L402.964 190.222L408.595 183.581C408.7 183.456 408.881 183.446 408.999 183.557Z" fill="#002740"/>
<path fill-rule="evenodd" clip-rule="evenodd" d="M384.437 177.827C384.701 177.827 384.915 178.053 384.915 178.332V204.376H409.955C410.219 204.376 410.433 204.602 410.433 204.881C410.433 205.16 410.219 205.386 409.955 205.386H383.959V178.332C383.959 178.053 384.173 177.827 384.437 177.827Z" fill="#002740"/>
<path d="M391.318 196.604C391.318 197.328 390.762 197.916 390.076 197.916C389.389 197.916 388.833 197.328 388.833 196.604C388.833 195.879 389.389 195.291 390.076 195.291C390.762 195.291 391.318 195.879 391.318 196.604Z" fill="#002740"/>
<path d="M395.905 189.133C395.905 189.858 395.349 190.446 394.663 190.446C393.977 190.446 393.421 189.858 393.421 189.133C393.421 188.409 393.977 187.821 394.663 187.821C395.349 187.821 395.905 188.409 395.905 189.133Z" fill="#002740"/>
<path d="M404.316 190.344C404.316 191.069 403.76 191.657 403.074 191.657C402.388 191.657 401.831 191.069 401.831 190.344C401.831 189.62 402.388 189.032 403.074 189.032C403.76 189.032 404.316 189.62 404.316 190.344Z" fill="#002740"/>
<path d="M409.86 183.682C409.86 184.407 409.303 184.995 408.617 184.995C407.931 184.995 407.375 184.407 407.375 183.682C407.375 182.957 407.931 182.37 408.617 182.37C409.303 182.37 409.86 182.957 409.86 183.682Z" fill="#002740"/>
</g>
<g opacity="0.6">
<path fill-rule="evenodd" clip-rule="evenodd" d="M497.048 183.557C497.166 183.669 497.176 183.86 497.07 183.985L491.231 190.871L482.852 189.463L478.366 196.867C478.28 197.008 478.103 197.049 477.969 196.959C477.836 196.869 477.797 196.682 477.883 196.541L482.571 188.803L491.013 190.221L496.643 183.581C496.749 183.456 496.93 183.445 497.048 183.557Z" fill="#002740"/>
<path fill-rule="evenodd" clip-rule="evenodd" d="M472.486 177.827C472.749 177.827 472.963 178.053 472.963 178.332V204.376H498.004C498.268 204.376 498.482 204.602 498.482 204.881C498.482 205.16 498.268 205.386 498.004 205.386H472.008V178.332C472.008 178.053 472.222 177.827 472.486 177.827Z" fill="#002740"/>
<path d="M479.367 196.604C479.367 197.328 478.81 197.916 478.124 197.916C477.438 197.916 476.882 197.328 476.882 196.604C476.882 195.879 477.438 195.291 478.124 195.291C478.81 195.291 479.367 195.879 479.367 196.604Z" fill="#002740"/>
<path d="M483.954 189.133C483.954 189.858 483.398 190.446 482.712 190.446C482.026 190.446 481.469 189.858 481.469 189.133C481.469 188.409 482.026 187.821 482.712 187.821C483.398 187.821 483.954 188.409 483.954 189.133Z" fill="#002740"/>
<path d="M492.365 190.344C492.365 191.069 491.809 191.657 491.123 191.657C490.436 191.657 489.88 191.069 489.88 190.344C489.88 189.62 490.436 189.032 491.123 189.032C491.809 189.032 492.365 189.62 492.365 190.344Z" fill="#002740"/>
<path d="M497.908 183.682C497.908 184.407 497.352 184.994 496.666 184.994C495.98 184.994 495.423 184.407 495.423 183.682C495.423 182.957 495.98 182.369 496.666 182.369C497.352 182.369 497.908 182.957 497.908 183.682Z" fill="#002740"/>
</g>
<g opacity="0.6">
<path fill-rule="evenodd" clip-rule="evenodd" d="M585.097 183.557C585.215 183.669 585.225 183.861 585.119 183.985L579.281 190.872L570.901 189.464L566.415 196.868C566.329 197.009 566.152 197.05 566.019 196.96C565.885 196.869 565.846 196.682 565.932 196.541L570.62 188.803L579.062 190.222L584.692 183.581C584.798 183.456 584.979 183.446 585.097 183.557Z" fill="#002740"/>
<path fill-rule="evenodd" clip-rule="evenodd" d="M560.534 177.827C560.798 177.827 561.012 178.053 561.012 178.332V204.376H586.053C586.317 204.376 586.531 204.602 586.531 204.881C586.531 205.16 586.317 205.386 586.053 205.386H560.057V178.332C560.057 178.053 560.27 177.827 560.534 177.827Z" fill="#002740"/>
<path d="M567.416 196.604C567.416 197.328 566.859 197.916 566.173 197.916C565.487 197.916 564.931 197.328 564.931 196.604C564.931 195.879 565.487 195.291 566.173 195.291C566.859 195.291 567.416 195.879 567.416 196.604Z" fill="#002740"/>
<path d="M572.003 189.133C572.003 189.858 571.447 190.446 570.761 190.446C570.074 190.446 569.518 189.858 569.518 189.133C569.518 188.409 570.074 187.821 570.761 187.821C571.447 187.821 572.003 188.409 572.003 189.133Z" fill="#002740"/>
<path d="M580.414 190.344C580.414 191.069 579.857 191.657 579.171 191.657C578.485 191.657 577.929 191.069 577.929 190.344C577.929 189.62 578.485 189.032 579.171 189.032C579.857 189.032 580.414 189.62 580.414 190.344Z" fill="#002740"/>
<path d="M585.957 183.682C585.957 184.407 585.401 184.995 584.715 184.995C584.028 184.995 583.472 184.407 583.472 183.682C583.472 182.957 584.028 182.37 584.715 182.37C585.401 182.37 585.957 182.957 585.957 183.682Z" fill="#002740"/>
</g>
<g opacity="0.6">
<path fill-rule="evenodd" clip-rule="evenodd" d="M673.146 183.557C673.264 183.669 673.274 183.86 673.168 183.985L667.329 190.871L658.95 189.463L654.463 196.867C654.378 197.008 654.201 197.049 654.067 196.959C653.934 196.869 653.895 196.682 653.98 196.541L658.669 188.803L667.111 190.221L672.741 183.581C672.847 183.456 673.028 183.445 673.146 183.557Z" fill="#002740"/>
<path fill-rule="evenodd" clip-rule="evenodd" d="M648.583 177.827C648.847 177.827 649.061 178.053 649.061 178.332V204.376H674.102C674.366 204.376 674.58 204.602 674.58 204.881C674.58 205.16 674.366 205.386 674.102 205.386H648.105V178.332C648.105 178.053 648.319 177.827 648.583 177.827Z" fill="#002740"/>
<path d="M655.465 196.604C655.465 197.328 654.908 197.916 654.222 197.916C653.536 197.916 652.98 197.328 652.98 196.604C652.98 195.879 653.536 195.291 654.222 195.291C654.908 195.291 655.465 195.879 655.465 196.604Z" fill="#002740"/>
<path d="M660.052 189.133C660.052 189.858 659.496 190.446 658.81 190.446C658.123 190.446 657.567 189.858 657.567 189.133C657.567 188.409 658.123 187.821 658.81 187.821C659.496 187.821 660.052 188.409 660.052 189.133Z" fill="#002740"/>
</g>
<g opacity="0.6">
<path fill-rule="evenodd" clip-rule="evenodd" d="M463.912 244.557C464.03 244.669 464.04 244.861 463.934 244.985L458.095 251.872L449.716 250.464L445.229 257.868C445.144 258.009 444.967 258.05 444.833 257.96C444.7 257.869 444.661 257.682 444.746 257.541L449.435 249.803L457.877 251.222L463.507 244.581C463.612 244.456 463.794 244.446 463.912 244.557Z" fill="#002740"/>
<path fill-rule="evenodd" clip-rule="evenodd" d="M439.349 238.827C439.613 238.827 439.827 239.053 439.827 239.332V265.376H464.867C465.131 265.376 465.345 265.602 465.345 265.881C465.345 266.16 465.131 266.386 464.867 266.386H438.871V239.332C438.871 239.053 439.085 238.827 439.349 238.827Z" fill="#002740"/>
<path d="M446.23 257.604C446.23 258.328 445.674 258.916 444.988 258.916C444.302 258.916 443.745 258.328 443.745 257.604C443.745 256.879 444.302 256.291 444.988 256.291C445.674 256.291 446.23 256.879 446.23 257.604Z" fill="#002740"/>
<path d="M450.818 250.133C450.818 250.858 450.261 251.446 449.575 251.446C448.889 251.446 448.333 250.858 448.333 250.133C448.333 249.409 448.889 248.821 449.575 248.821C450.261 248.821 450.818 249.409 450.818 250.133Z" fill="#002740"/>
<path d="M459.228 251.344C459.228 252.069 458.672 252.657 457.986 252.657C457.3 252.657 456.743 252.069 456.743 251.344C456.743 250.62 457.3 250.032 457.986 250.032C458.672 250.032 459.228 250.62 459.228 251.344Z" fill="#002740"/>
<path d="M464.772 244.682C464.772 245.407 464.215 245.995 463.529 245.995C462.843 245.995 462.287 245.407 462.287 244.682C462.287 243.957 462.843 243.37 463.529 243.37C464.215 243.37 464.772 243.957 464.772 244.682Z" fill="#002740"/>
</g>
<g opacity="0.6">
<path fill-rule="evenodd" clip-rule="evenodd" d="M551.96 244.557C552.078 244.669 552.088 244.86 551.983 244.985L546.144 251.871L537.764 250.463L533.278 257.867C533.193 258.008 533.015 258.049 532.882 257.959C532.748 257.869 532.71 257.682 532.795 257.541L537.484 249.803L545.925 251.221L551.555 244.581C551.661 244.456 551.842 244.445 551.96 244.557Z" fill="#002740"/>
<path fill-rule="evenodd" clip-rule="evenodd" d="M527.398 238.827C527.662 238.827 527.876 239.053 527.876 239.332V265.376H552.916C553.18 265.376 553.394 265.602 553.394 265.881C553.394 266.16 553.18 266.386 552.916 266.386H526.92V239.332C526.92 239.053 527.134 238.827 527.398 238.827Z" fill="#002740"/>
<path d="M534.279 257.604C534.279 258.328 533.723 258.916 533.037 258.916C532.35 258.916 531.794 258.328 531.794 257.604C531.794 256.879 532.35 256.291 533.037 256.291C533.723 256.291 534.279 256.879 534.279 257.604Z" fill="#002740"/>
<path d="M538.867 250.133C538.867 250.858 538.31 251.446 537.624 251.446C536.938 251.446 536.382 250.858 536.382 250.133C536.382 249.409 536.938 248.821 537.624 248.821C538.31 248.821 538.867 249.409 538.867 250.133Z" fill="#002740"/>
<path d="M547.277 251.344C547.277 252.069 546.721 252.657 546.035 252.657C545.349 252.657 544.792 252.069 544.792 251.344C544.792 250.62 545.349 250.032 546.035 250.032C546.721 250.032 547.277 250.62 547.277 251.344Z" fill="#002740"/>
<path d="M552.82 244.682C552.82 245.407 552.264 245.994 551.578 245.994C550.892 245.994 550.335 245.407 550.335 244.682C550.335 243.957 550.892 243.369 551.578 243.369C552.264 243.369 552.82 243.957 552.82 244.682Z" fill="#002740"/>
</g>
<g opacity="0.6">
<path fill-rule="evenodd" clip-rule="evenodd" d="M640.009 244.557C640.127 244.669 640.137 244.861 640.031 244.985L634.193 251.872L625.813 250.464L621.327 257.868C621.241 258.009 621.064 258.05 620.931 257.96C620.797 257.869 620.758 257.682 620.844 257.541L625.532 249.803L633.974 251.222L639.604 244.581C639.71 244.456 639.891 244.446 640.009 244.557Z" fill="#002740"/>
<path fill-rule="evenodd" clip-rule="evenodd" d="M615.447 238.827C615.711 238.827 615.925 239.053 615.925 239.332V265.376H640.965C641.229 265.376 641.443 265.602 641.443 265.881C641.443 266.16 641.229 266.386 640.965 266.386H614.969V239.332C614.969 239.053 615.183 238.827 615.447 238.827Z" fill="#002740"/>
<path d="M622.328 257.604C622.328 258.328 621.772 258.916 621.085 258.916C620.399 258.916 619.843 258.328 619.843 257.604C619.843 256.879 620.399 256.291 621.085 256.291C621.772 256.291 622.328 256.879 622.328 257.604Z" fill="#002740"/>
<path d="M626.915 250.133C626.915 250.858 626.359 251.446 625.673 251.446C624.987 251.446 624.43 250.858 624.43 250.133C624.43 249.409 624.987 248.821 625.673 248.821C626.359 248.821 626.915 249.409 626.915 250.133Z" fill="#002740"/>
<path d="M635.326 251.344C635.326 252.069 634.77 252.657 634.084 252.657C633.397 252.657 632.841 252.069 632.841 251.344C632.841 250.62 633.397 250.032 634.084 250.032C634.77 250.032 635.326 250.62 635.326 251.344Z" fill="#002740"/>
<path d="M640.869 244.682C640.869 245.407 640.313 245.995 639.627 245.995C638.941 245.995 638.385 245.407 638.385 244.682C638.385 243.957 638.941 243.37 639.627 243.37C640.313 243.37 640.869 243.957 640.869 244.682Z" fill="#002740"/>
</g>
</g>
<circle cx="42" cy="67" r="110.5" stroke="white" stroke-width="3" stroke-dasharray="8 8"/>
<path d="M330.116 239.419L321.036 242.821C320.434 243.046 319.869 243.36 319.359 243.751L263.514 286.603C262.879 287.091 262.339 287.691 261.922 288.375L223.655 351.102C221.395 354.806 223.33 359.642 227.521 360.765L245.236 365.511C247.659 366.161 250.149 364.723 250.798 362.3C250.877 362.006 250.985 361.721 251.121 361.449L282.122 299.261C282.557 298.389 283.182 297.626 283.952 297.029L317.699 270.812C318.224 270.404 318.808 270.079 319.432 269.849L330.896 265.611C332.874 264.88 334.374 263.235 334.92 261.197L338.674 247.187C340.042 242.081 335.066 237.565 330.116 239.419Z" fill="#FC7E24"/>
<path d="M266.312 290.666L250.183 311.154L275.857 311.829L261.771 340.083L261.069 340.206L260.975 341.68L251.121 361.449C250.985 361.721 250.877 362.006 250.799 362.3C250.149 364.722 247.659 366.16 245.236 365.511L243.87 365.145L246.476 360.633L237.877 333.827L223.227 357.036C222.442 355.195 222.497 353 223.655 351.102L261.922 288.374C262.339 287.691 262.879 287.09 263.514 286.603L268.846 282.511L266.312 290.666ZM330.117 239.419C335.067 237.565 340.042 242.081 338.674 247.187L334.92 261.197C334.374 263.234 332.874 264.879 330.896 265.611L319.433 269.849C318.809 270.079 318.224 270.404 317.699 270.812L288.204 293.725L289.737 288.004L280.459 273.599L319.36 243.751C319.869 243.36 320.435 243.047 321.036 242.821L330.117 239.419Z" fill="#FEC955"/>
<path fill-rule="evenodd" clip-rule="evenodd" d="M335.535 246.346C336.219 243.793 333.731 241.535 331.256 242.462L322.176 245.864C321.875 245.976 321.592 246.133 321.337 246.329L265.492 289.181C265.175 289.425 264.905 289.725 264.696 290.067L226.429 352.794C225.299 354.646 226.266 357.064 228.362 357.625L246.077 362.372C246.766 362.557 247.475 362.148 247.66 361.458C247.795 360.954 247.98 360.465 248.212 359.998L279.214 297.811C279.866 296.503 280.804 295.359 281.958 294.462L315.705 268.246C316.493 267.634 317.37 267.146 318.306 266.8L329.769 258.95C330.758 258.585 331.508 257.762 331.781 256.743L335.535 246.346ZM328.976 236.376C336.401 233.594 343.865 240.369 341.813 248.028L338.059 258.426C337.24 261.481 334.989 263.95 332.022 265.046L320.559 272.896C320.247 273.012 319.955 273.174 319.692 273.378L285.945 299.594C285.56 299.893 285.248 300.275 285.031 300.711L254.029 362.898C253.99 362.976 253.96 363.057 253.937 363.14C252.823 367.297 248.551 369.764 244.394 368.65L226.68 363.903C220.393 362.219 217.491 354.965 220.88 349.409L259.148 286.682C259.774 285.657 260.583 284.756 261.536 284.025L317.381 241.173C318.146 240.586 318.993 240.116 319.896 239.778L328.976 236.376Z" fill="#27292A"/>
<path d="M340.539 235.442L321.072 241.731L317.129 243.529C316.615 243.763 316.407 244.382 316.676 244.879L326.776 263.565C327.052 264.076 327.712 264.233 328.189 263.901L339.704 255.892C339.94 255.727 340.092 255.466 340.118 255.179L341.809 236.457C341.872 235.761 341.204 235.227 340.539 235.442Z" fill="#5C4208" stroke="#27292A" stroke-width="5.84723"/>
<path d="M227.536 371.45H246.984C248.463 371.45 249.808 370.66 250.501 369.354C258.364 354.538 284.506 305.064 286.161 301.753C287.728 298.619 301.518 289.003 310.289 283.208C311.9 282.144 312.538 280.09 311.798 278.306L302.734 256.446C301.718 253.996 298.642 253.195 296.56 254.838L259.862 283.811C259.456 284.131 259.117 284.526 258.862 284.975L222.378 349.243C221.967 349.967 221.793 350.801 221.878 351.629L223.557 367.862C223.768 369.901 225.486 371.45 227.536 371.45Z" fill="white" stroke="#333333" stroke-width="4"/>
<path d="M165.019 70.2742L175.143 67.4884L183.343 97.2901L173.219 100.076L165.019 70.2742Z" fill="#27292A"/>
<path fill-rule="evenodd" clip-rule="evenodd" d="M174.628 68.3948L165.925 70.7894L173.734 99.1695L182.437 96.7749L174.628 68.3948ZM165.019 70.2742L173.219 100.076L183.343 97.2901L175.143 67.4884L165.019 70.2742Z" fill="#27292A"/>
<path d="M217.518 70.1536L207.375 67.4358L199.259 97.7241L209.402 100.442L217.518 70.1536Z" fill="#27292A"/>
<path fill-rule="evenodd" clip-rule="evenodd" d="M207.896 68.3387L216.615 70.6749L208.881 99.539L200.162 97.2028L207.896 68.3387ZM217.518 70.1536L209.402 100.442L199.259 97.7241L207.375 67.4358L217.518 70.1536Z" fill="#27292A"/>
<path d="M170.245 43.8577L179.126 52.3298L176.119 63.8586L164.233 66.9152L155.352 58.4431L158.358 46.9143L170.245 43.8577Z" fill="#FEC955"/>
<path fill-rule="evenodd" clip-rule="evenodd" d="M172.586 34.8824L188.177 49.7571L182.762 70.5236L161.892 75.8902L146.301 61.0155L151.716 40.249L172.586 34.8824ZM155.352 58.4429L164.232 66.9151L176.119 63.8585L179.126 52.3297L170.245 43.8575L158.358 46.9142L155.352 58.4429Z" fill="#27292A"/>
<path d="M213.559 43.8151L225.067 46.8987L228.151 58.4071L219.726 66.8318L208.218 63.7481L205.134 52.2398L213.559 43.8151Z" fill="#FEC955"/>
<path fill-rule="evenodd" clip-rule="evenodd" d="M211.135 34.7694L231.689 40.2766L237.196 60.8299L222.15 75.8759L201.597 70.3687L196.089 49.8154L211.135 34.7694ZM208.218 63.7474L219.726 66.831L228.151 58.4063L225.067 46.8979L213.559 43.8143L205.134 52.239L208.218 63.7474Z" fill="#27292A"/>
<path d="M193.161 370.283L150.773 346.28C150.513 346.133 150.368 345.842 150.405 345.546L169.205 197.9C169.252 197.532 169.565 197.256 169.936 197.256H206.549C206.91 197.256 207.218 197.518 207.276 197.875L231.359 345.56C231.407 345.849 231.278 346.139 231.032 346.298L193.924 370.26C193.693 370.409 193.399 370.418 193.161 370.283Z" fill="#FEC955"/>
<path fill-rule="evenodd" clip-rule="evenodd" d="M169.606 197.388C169.911 194.995 171.947 193.201 174.36 193.201H210.972C213.321 193.201 215.323 194.904 215.702 197.222L239.785 344.908C240.091 346.788 239.255 348.671 237.655 349.704L200.547 373.667C199.049 374.634 197.138 374.69 195.586 373.811L153.199 349.809C151.506 348.85 150.561 346.963 150.807 345.033L154.829 345.546L154.837 345.547M154.829 345.546L150.807 345.033L169.606 197.388M177.282 201.311L159.132 343.849L197.835 365.765L231.432 344.07L208.152 201.311H177.282ZM157.195 342.752C157.196 342.753 157.198 342.754 157.199 342.754L157.195 342.752Z" fill="#27292A"/>
<path d="M217.742 260.422L222.903 291.385L227.695 321.243L201.182 305.416L195.8 278.675L217.742 260.422Z" fill="#FC7E24"/>
<path d="M171.035 311.667L184.725 326.217L184.255 341.516L172.828 335.25L161.032 328.984L162.51 317.706L171.035 311.667Z" fill="#FC7E24"/>
<path d="M172.828 236.094L182.346 241.831L186.609 258.708L174.125 270.838L168.405 271.48L170.248 257.105L172.828 236.094Z" fill="#FC7E24"/>
<path fill-rule="evenodd" clip-rule="evenodd" d="M191.816 96.3911H169.641C169.21 96.3911 168.801 96.5792 168.521 96.906L154.291 113.508C153.823 114.054 153.03 114.182 152.413 113.812L138.986 105.756C138.821 105.657 138.639 105.591 138.449 105.563L120.768 102.865C119.435 102.662 118.551 104.208 119.403 105.254L150.708 143.705C150.835 143.861 150.929 144.041 150.984 144.235L156.359 163.227C156.406 163.393 156.482 163.55 156.583 163.69L168.601 180.302C168.832 180.622 168.926 181.022 168.86 181.412L163.915 210.725C163.843 211.152 163.962 211.588 164.24 211.919L179.087 229.594C179.217 229.748 179.377 229.874 179.557 229.964L191.157 235.764C191.572 235.972 192.061 235.972 192.476 235.764L204.076 229.964C204.256 229.874 204.416 229.748 204.546 229.594L219.392 211.919C219.671 211.588 219.789 211.152 219.717 210.725L214.773 181.412C214.707 181.022 214.801 180.622 215.032 180.302L227.05 163.69C227.151 163.55 227.227 163.393 227.274 163.227L232.649 144.235C232.704 144.041 232.798 143.861 232.924 143.705L264.23 105.254C265.082 104.208 264.198 102.662 262.864 102.865L245.183 105.563C244.994 105.591 244.812 105.657 244.647 105.756L231.22 113.812C230.603 114.182 229.809 114.054 229.341 113.508L215.112 96.906C214.831 96.5792 214.422 96.3911 213.992 96.3911H191.816Z" fill="#FEC955"/>
<path fill-rule="evenodd" clip-rule="evenodd" d="M165.443 94.2673C166.493 93.0417 168.027 92.3364 169.641 92.3364H213.992C215.606 92.3364 217.14 93.0417 218.19 94.2673L231.002 109.214L242.561 102.279C243.178 101.909 243.861 101.663 244.572 101.554L262.253 98.8571C267.254 98.0943 270.568 103.891 267.375 107.814L236.406 145.852L231.176 164.331C230.999 164.954 230.715 165.541 230.335 166.066L218.951 181.803L223.716 210.051C223.985 211.649 223.54 213.286 222.497 214.527L207.651 232.202C207.165 232.78 206.565 233.253 205.89 233.591L194.289 239.391C192.733 240.169 190.901 240.169 189.344 239.391L177.744 233.591C177.068 233.253 176.469 232.78 175.983 232.202L161.136 214.527C160.093 213.286 159.648 211.649 159.917 210.051L164.682 181.803L153.298 166.066C152.918 165.541 152.634 164.954 152.458 164.331L147.228 145.852L116.259 107.814C113.065 103.891 116.38 98.0943 121.38 98.8571L139.061 101.554C139.772 101.663 140.455 101.909 141.072 102.279L152.631 109.214L165.443 94.2673ZM170.828 100.446L157.37 116.146C155.615 118.194 152.64 118.677 150.327 117.289L137.336 109.494L126.772 107.883L153.853 141.145C154.329 141.73 154.68 142.406 154.885 143.131L160.136 161.683L171.886 177.926C172.755 179.126 173.105 180.625 172.858 182.086L168.112 210.224L181.848 226.577L191.817 231.561L201.785 226.577L215.521 210.224L210.775 182.086C210.528 180.625 210.879 179.126 211.747 177.926L223.497 161.683L228.748 143.131C228.953 142.406 229.304 141.73 229.78 141.145L256.861 107.883L246.298 109.494L233.306 117.289C230.994 118.677 228.018 118.194 226.263 116.146L212.806 100.446H170.828Z" fill="#27292A"/>
<path d="M210.851 150.945L227.07 149.102L223.384 162.003L211.22 178.591L203.11 167.532L210.851 150.945Z" fill="#FC7E24"/>
<path d="M169.567 201.445L172.516 184.12L178.782 185.595L180.625 195.916L172.516 202.919L169.567 201.445Z" fill="#FC7E24"/>
<path d="M192.493 100.446L194.584 110.146L180.712 120.662L164.669 113.907L164.038 108.555L170.376 100.446L192.493 100.446Z" fill="#FC7E24"/>
<ellipse opacity="0.2" cx="217.455" cy="145.744" rx="17.3309" ry="19.2565" fill="#D9D9D9"/>
<rect x="198.823" y="126.23" width="37.7444" height="37.7444" rx="18.48" stroke="white" stroke-width="4.62"/>
<ellipse opacity="0.2" cx="167.388" cy="145.102" rx="17.2105" ry="17.2105" fill="#D9D9D9"/>
<path d="M187.246 145.102H197.837" stroke="white" stroke-width="4.62" stroke-linecap="round"/>
<path d="M223.344 134.923C229.698 137.388 231.049 144.285 227.955 148.988" stroke="white" stroke-width="3.465" stroke-linecap="round"/>
<path d="M167.388 133.191C174.195 132.87 178.226 138.628 177.303 144.181" stroke="white" stroke-width="3.465" stroke-linecap="round"/>
<ellipse cx="223.653" cy="156.355" rx="1.98583" ry="1.98583" fill="white"/>
<rect x="148.516" y="126.23" width="37.7444" height="37.7444" rx="18.48" stroke="white" stroke-width="4.62"/>
<path d="M159.995 265.635L195.007 324.544L225.017 265.08L242.801 346.881L193.517 382.897L148.424 346.881L159.995 265.635Z" fill="white" stroke="#333333" stroke-width="4"/>
<path d="M160.053 261.027C169.908 276.184 186.685 309.197 194.609 324.099C195.168 325.149 191.885 328.976 190.773 328.554L181.727 325.119C181.467 325.02 181.26 324.818 181.155 324.56L170.356 297.935C170.287 297.767 170.175 297.621 170.03 297.512L153.313 284.924C152.995 284.685 152.85 284.281 152.941 283.895L158.277 261.349C158.477 260.503 159.579 260.298 160.053 261.027Z" fill="#CBCBCB" stroke="#333333" stroke-width="4"/>
<path d="M227.131 258.406C217.435 273.985 202.949 308.393 196.185 323.599C195.704 324.68 199.222 328.542 200.328 328.125L211.168 324.037C211.468 323.924 211.695 323.673 211.779 323.364L219.636 294.56C219.709 294.291 219.892 294.065 220.139 293.936L234.827 286.286C235.235 286.073 235.445 285.61 235.337 285.162L228.901 258.706C228.695 257.86 227.591 257.666 227.131 258.406Z" fill="#CBCBCB" stroke="#333333" stroke-width="4"/>
<path d="M195.562 324.544L193.895 381.786" stroke="#333333" stroke-width="3"/>
<rect y="351" width="1500" height="68" fill="#E6A513"/>
<rect y="339" width="1500" height="26" fill="#B8840F"/>
<path d="M504 154L534 171.321" stroke="#333333" stroke-width="3"/>
<path d="M475.534 110.988C477.373 109.942 479.627 109.942 481.466 110.988L502.479 122.938C504.354 124.004 505.512 125.996 505.512 128.153V151.847C505.512 154.004 504.354 155.996 502.479 157.062L481.466 169.012C479.627 170.058 477.373 170.058 475.534 169.012L454.521 157.062C452.646 155.996 451.488 154.004 451.488 151.847V128.153C451.488 125.996 452.646 124.004 454.521 122.938L475.534 110.988Z" fill="#FC7E24" stroke="#333333" stroke-width="4"/>
<path d="M422.534 203.988C424.373 202.942 426.627 202.942 428.466 203.988L449.479 215.938C451.354 217.004 452.512 218.996 452.512 221.153V244.847C452.512 247.004 451.354 248.996 449.479 250.062L428.466 262.012C426.627 263.058 424.373 263.058 422.534 262.012L401.521 250.062C399.646 248.996 398.488 247.004 398.488 244.847V221.153C398.488 218.996 399.646 217.004 401.521 215.938L422.534 203.988Z" fill="#FC7E24" stroke="#333333" stroke-width="4"/>
<path d="M557.534 156.988C559.373 155.942 561.627 155.942 563.466 156.988L584.479 168.938C586.354 170.004 587.512 171.996 587.512 174.153V197.847C587.512 200.004 586.354 201.996 584.479 203.062L563.466 215.012C561.627 216.058 559.373 216.058 557.534 215.012L536.521 203.062C534.646 201.996 533.488 200.004 533.488 197.847V174.153C533.488 171.996 534.646 170.004 536.521 168.938L557.534 156.988Z" fill="#209583" stroke="#333333" stroke-width="4"/>
<path d="M368.534 110.988C370.373 109.942 372.627 109.942 374.466 110.988L395.479 122.938C397.354 124.004 398.512 125.996 398.512 128.153V151.847C398.512 154.004 397.354 155.996 395.479 157.062L374.466 169.012C372.627 170.058 370.373 170.058 368.534 169.012L347.521 157.062C345.646 155.996 344.488 154.004 344.488 151.847V128.153C344.488 125.996 345.646 124.004 347.521 122.938L368.534 110.988Z" fill="#209583" stroke="#333333" stroke-width="4"/>
<path d="M422 111.041C423.856 109.969 426.144 109.969 428 111.041L448.579 122.923C450.435 123.995 451.579 125.976 451.579 128.119V151.881C451.579 154.024 450.435 156.005 448.579 157.077L428 168.959C426.144 170.031 423.856 170.031 422 168.959L401.421 157.077C399.565 156.005 398.421 154.024 398.421 151.881V128.119C398.421 125.976 399.565 123.995 401.421 122.923L422 111.041Z" fill="#FEC955" stroke="#333333" stroke-width="4"/>
<path d="M425 170V202" stroke="#333333" stroke-width="3"/>
<path d="M479 77.5V108.5" stroke="#333333" stroke-width="3"/>
<path d="M372 77.5V108.5" stroke="#333333" stroke-width="3"/>
<path d="M479 170V202" stroke="#333333" stroke-width="3"/>
<circle cx="478.5" cy="76.5" r="6.5" fill="#333333"/>
<circle cx="478.5" cy="206.5" r="6.5" fill="#333333"/>
<circle cx="371.5" cy="76.5" r="6.5" fill="#333333"/>
<path d="M507.512 59L478.5 75.5L449.488 59" stroke="#333333" stroke-width="3"/>
<path d="M425 155C424.175 155 423.469 154.706 422.881 154.119C422.294 153.531 422 152.825 422 152H428C428 152.825 427.706 153.531 427.119 154.119C426.531 154.706 425.825 155 425 155ZM419 150.5V147.5H431V150.5H419ZM419.375 146C417.65 144.975 416.281 143.6 415.269 141.875C414.256 140.15 413.75 138.275 413.75 136.25C413.75 133.125 414.844 130.469 417.031 128.281C419.219 126.094 421.875 125 425 125C428.125 125 430.781 126.094 432.969 128.281C435.156 130.469 436.25 133.125 436.25 136.25C436.25 138.275 435.744 140.15 434.731 141.875C433.719 143.6 432.35 144.975 430.625 146H419.375Z" fill="#333333"/>
<path d="M571.763 170.5C574.379 170.5 576.5 172.621 576.5 175.237C576.499 177.853 574.379 179.974 571.763 179.974C570.726 179.974 569.768 179.639 568.988 179.074L564.243 183.847C564.801 184.624 565.131 185.576 565.131 186.605C565.131 187.048 565.068 187.476 564.955 187.882L570.32 190.296C570.972 189.765 571.804 189.447 572.711 189.447C574.803 189.447 576.5 191.144 576.5 193.237C576.499 195.33 574.803 197.026 572.711 197.026C570.618 197.026 568.922 195.33 568.922 193.237C568.922 192.612 569.073 192.021 569.341 191.501L564.327 189.245C563.609 190.313 562.468 191.071 561.144 191.281V192.352C563.392 192.667 565.144 194.535 565.201 196.838C565.264 199.405 563.195 201.539 560.58 201.604C557.964 201.668 555.792 199.639 555.728 197.071C555.671 194.739 557.372 192.765 559.644 192.374V191.281C558.622 191.119 557.709 190.63 557.015 189.924L553.347 192.98C553.716 193.595 553.936 194.313 553.957 195.086C554.018 197.42 552.23 199.361 549.962 199.421C547.694 199.48 545.805 197.636 545.744 195.302C545.682 192.967 547.472 191.026 549.74 190.967C550.724 190.941 551.637 191.275 552.36 191.851L556.143 188.696C555.832 188.066 555.658 187.356 555.658 186.605C555.658 185.773 555.872 184.99 556.25 184.31L552.845 180.905C551.027 182.236 548.489 182.132 546.842 180.544C544.996 178.763 544.972 175.792 546.789 173.909C548.605 172.026 551.574 171.944 553.421 173.725C555.106 175.351 555.272 177.968 553.905 179.844L557.183 183.122C557.853 182.504 558.703 182.078 559.644 181.928V177.976C558.439 177.646 557.553 176.547 557.552 175.237C557.552 173.668 558.825 172.395 560.394 172.395C561.964 172.395 563.237 173.668 563.237 175.237C563.237 176.547 562.349 177.646 561.144 177.976V181.928C561.9 182.048 562.596 182.348 563.188 182.781L567.927 178.015C567.361 177.234 567.026 176.275 567.026 175.237C567.026 172.621 569.147 170.5 571.763 170.5ZM560.386 193.805C558.573 193.85 557.186 195.322 557.228 197.035C557.271 198.748 558.729 200.149 560.543 200.104C562.356 200.06 563.743 198.588 563.701 196.875C563.658 195.162 562.2 193.76 560.386 193.805ZM560.394 183.368C558.607 183.368 557.158 184.818 557.158 186.605C557.158 188.393 558.607 189.842 560.394 189.842C562.182 189.842 563.631 188.393 563.631 186.605C563.631 184.818 562.182 183.368 560.394 183.368ZM552.38 174.805C551.15 173.618 549.129 173.644 547.869 174.951C546.608 176.258 546.654 178.277 547.884 179.464C549.114 180.65 551.134 180.624 552.395 179.317C553.656 178.011 553.609 175.991 552.38 174.805ZM571.763 172C569.976 172 568.526 173.45 568.526 175.237C568.526 177.025 569.976 178.474 571.763 178.474C573.551 178.474 574.999 177.025 575 175.237C575 173.45 573.551 172 571.763 172Z" fill="#09090B" fill-opacity="0.9"/>
<path d="M435.95 228.388L429.575 222.088L431.675 219.988C432.25 219.413 432.956 219.125 433.794 219.125C434.631 219.125 435.338 219.413 435.913 219.988L438.013 222.088C438.588 222.663 438.888 223.356 438.913 224.169C438.938 224.981 438.663 225.675 438.088 226.25L435.95 228.388ZM433.775 230.6L417.875 246.5H411.5V240.125L427.4 224.225L433.775 230.6Z" fill="#09090B" fill-opacity="0.9"/>
<path d="M485 131L488.435 134.435L481.115 141.755L475.115 135.755L464 146.885L466.115 149L475.115 140L481.115 146L490.565 136.565L494 140V131H485Z" fill="#09090B" fill-opacity="0.9"/>
<path d="M364.5 145H379.5V135H364.5V145ZM367 137.5H377V142.5H367V137.5ZM362 143.75H359.5V147.5C359.5 148.875 360.625 150 362 150H365.75V147.5H362V143.75ZM362 132.5H365.75V130H362C360.625 130 359.5 131.125 359.5 132.5V136.25H362V132.5ZM382 130H378.25V132.5H382V136.25H384.5V132.5C384.5 131.125 383.375 130 382 130ZM382 147.5H378.25V150H382C383.375 150 384.5 148.875 384.5 147.5V143.75H382V147.5Z" fill="#09090B" fill-opacity="0.9"/>
<path opacity="0.8" d="M337.366 256.873H337.31L367.551 309.251C368.705 311.251 367.261 313.751 364.952 313.751H298.72C296.41 313.751 294.967 311.251 296.122 309.251L326.363 256.873H326.307V226.853H337.366V256.873Z" fill="#EEF8FC"/>
<path d="M343.266 218.953C344.37 218.953 345.266 219.849 345.266 220.953V223.272C345.266 224.377 344.37 225.272 343.266 225.272H340.527V254.543L372.842 310.517C374.381 313.183 372.457 316.516 369.378 316.517H294.295C291.216 316.517 289.292 313.183 290.831 310.517L323.147 254.543V225.272H320.406C319.302 225.272 318.406 224.377 318.406 223.272V220.953C318.406 219.849 319.302 218.953 320.406 218.953H343.266ZM326.307 226.853V256.872H326.363L296.122 309.251C294.968 311.251 296.411 313.751 298.72 313.751H364.952C367.262 313.751 368.706 311.251 367.551 309.251L337.31 256.872H337.366V226.853H326.307Z" fill="white"/>
<path d="M367.551 309.252C368.705 311.252 367.261 313.752 364.952 313.752H298.721C296.411 313.752 294.968 311.252 296.122 309.252L309.943 285.312H353.729L367.551 309.252Z" fill="#209583"/>
<path d="M367.551 309.252C368.705 311.252 367.261 313.752 364.952 313.752H355.16C357.469 313.752 358.913 311.252 357.759 309.252L343.937 285.312H353.729L367.551 309.252Z" fill="#04322B"/>
<path d="M333.963 267.859L355.081 306.761" stroke="white" stroke-width="4" stroke-linecap="round"/>
<path d="M21 77H87" stroke="white" stroke-width="4" stroke-linecap="round"/>
<path d="M21 87H87" stroke="white" stroke-width="4" stroke-linecap="round"/>
<path d="M253 147H298" stroke="white" stroke-width="4" stroke-linecap="round"/>
<path d="M253 157H298" stroke="white" stroke-width="4" stroke-linecap="round"/>
<path d="M253 166H298" stroke="white" stroke-width="4" stroke-linecap="round"/>
<rect x="19" y="24" width="68" height="44" rx="2" fill="white"/>
<path fill-rule="evenodd" clip-rule="evenodd" d="M43.5 35.4999C43.5 34.8556 42.9963 34.3333 42.375 34.3333C41.7537 34.3333 41.25 34.8556 41.25 35.4999V56.4999C41.25 57.1442 41.7537 57.6666 42.375 57.6666H43.5H62.625C63.2463 57.6666 63.75 57.1442 63.75 56.4999C63.75 55.8556 63.2463 55.3333 62.625 55.3333H44.625C44.0037 55.3333 43.5 54.8109 43.5 54.1666V35.4999Z" fill="#B2B2B2"/>
<path d="M53.625 43.0833C53.625 44.0498 52.8695 44.8333 51.9375 44.8333C51.0055 44.8333 50.25 44.0498 50.25 43.0833C50.25 42.1168 51.0055 41.3333 51.9375 41.3333C52.8695 41.3333 53.625 42.1168 53.625 43.0833Z" fill="#B2B2B2"/>
<path d="M49.125 50.0833C49.125 51.0498 48.3695 51.8333 47.4375 51.8333C46.5055 51.8333 45.75 51.0498 45.75 50.0833C45.75 49.1168 46.5055 48.3333 47.4375 48.3333C48.3695 48.3333 49.125 49.1168 49.125 50.0833Z" fill="#B2B2B2"/>
<path fill-rule="evenodd" clip-rule="evenodd" d="M60.375 38.4167L57.5625 44.8334L51.9375 44.2501L47.7761 50.6667L46.875 49.8956L51.375 43.0834L57 43.6667L59.25 38.4167H60.375Z" fill="#B2B2B2"/>
<path d="M59.25 44.25C59.25 45.2165 58.4945 46 57.5625 46C56.6305 46 55.875 45.2165 55.875 44.25C55.875 43.2835 56.6305 42.5 57.5625 42.5C58.4945 42.5 59.25 43.2835 59.25 44.25Z" fill="#B2B2B2"/>
<path d="M61.5 38.4167C61.5 39.3832 60.7445 40.1667 59.8125 40.1667C58.8805 40.1667 58.125 39.3832 58.125 38.4167C58.125 37.4502 58.8805 36.6667 59.8125 36.6667C60.7445 36.6667 61.5 37.4502 61.5 38.4167Z" fill="#B2B2B2"/>
<path d="M579 63H636" stroke="white" stroke-width="4" stroke-linecap="round"/>
<path d="M579 72H636" stroke="white" stroke-width="4" stroke-linecap="round"/>
<rect x="577" y="17" width="59" height="38" rx="2" fill="white"/>
<path fill-rule="evenodd" clip-rule="evenodd" d="M607.749 39.6241C607.773 39.4241 607.789 39.2161 607.789 39.0001C607.789 38.7841 607.773 38.5761 607.741 38.3761L609.093 37.3201C609.213 37.2241 609.245 37.0481 609.173 36.9121L607.893 34.6961C607.813 34.5521 607.645 34.5041 607.501 34.5521L605.909 35.1921C605.573 34.9361 605.221 34.7281 604.829 34.5681L604.589 32.8721C604.565 32.7121 604.429 32.6001 604.269 32.6001H601.709C601.549 32.6001 601.421 32.7121 601.397 32.8721L601.157 34.5681C600.765 34.7281 600.405 34.9441 600.077 35.1921L598.485 34.5521C598.341 34.4961 598.173 34.5521 598.093 34.6961L596.813 36.9121C596.733 37.0561 596.765 37.2241 596.893 37.3201L598.245 38.3761C598.213 38.5761 598.189 38.7921 598.189 39.0001C598.189 39.2081 598.205 39.4241 598.237 39.6241L596.885 40.6801C596.765 40.7761 596.733 40.9521 596.805 41.0881L598.085 43.3041C598.165 43.4481 598.333 43.4961 598.477 43.4481L600.069 42.8081C600.405 43.0641 600.757 43.2721 601.149 43.4321L601.389 45.1281C601.421 45.2881 601.549 45.4001 601.709 45.4001H604.269C604.429 45.4001 604.565 45.2881 604.581 45.1281L604.821 43.4321C605.213 43.2721 605.573 43.0561 605.901 42.8081L607.493 43.4481C607.637 43.5041 607.805 43.4481 607.885 43.3041L609.165 41.0881C609.245 40.9441 609.213 40.7761 609.085 40.6801L607.749 39.6241ZM602.989 41.4001C601.669 41.4001 600.589 40.3201 600.589 39.0001C600.589 37.6801 601.669 36.6001 602.989 36.6001C604.309 36.6001 605.389 37.6801 605.389 39.0001C605.389 40.3201 604.309 41.4001 602.989 41.4001Z" fill="#B2B2B2"/>
<path fill-rule="evenodd" clip-rule="evenodd" d="M613.562 31.468C613.58 31.318 613.592 31.162 613.592 31C613.592 30.838 613.58 30.682 613.556 30.532L614.57 29.74C614.66 29.668 614.684 29.536 614.63 29.434L613.67 27.772C613.61 27.664 613.484 27.628 613.376 27.664L612.182 28.144C611.93 27.952 611.666 27.796 611.372 27.676L611.192 26.404C611.174 26.284 611.072 26.2 610.952 26.2H609.032C608.912 26.2 608.816 26.284 608.798 26.404L608.618 27.676C608.324 27.796 608.054 27.958 607.808 28.144L606.614 27.664C606.506 27.622 606.38 27.664 606.32 27.772L605.36 29.434C605.3 29.542 605.324 29.668 605.42 29.74L606.434 30.532C606.41 30.682 606.392 30.844 606.392 31C606.392 31.156 606.404 31.318 606.428 31.468L605.414 32.26C605.324 32.332 605.3 32.464 605.354 32.566L606.314 34.228C606.374 34.3359 606.5 34.372 606.608 34.3359L607.802 33.856C608.054 34.048 608.318 34.2039 608.612 34.3239L608.792 35.596C608.816 35.716 608.912 35.8 609.032 35.8H610.952C611.072 35.8 611.174 35.716 611.186 35.596L611.366 34.3239C611.66 34.2039 611.93 34.042 612.176 33.856L613.37 34.3359C613.478 34.3779 613.604 34.3359 613.664 34.228L614.624 32.566C614.684 32.458 614.66 32.332 614.564 32.26L613.562 31.468ZM609.992 32.8C609.002 32.8 608.192 31.99 608.192 31C608.192 30.01 609.002 29.2 609.992 29.2C610.982 29.2 611.792 30.01 611.792 31C611.792 31.99 610.982 32.8 609.992 32.8Z" fill="#B2B2B2"/>
<path d="M344.442 253.08L343.49 235.937C343.452 235.252 342.737 234.82 342.113 235.104L337.538 237.184C337.38 237.255 337.245 237.367 337.145 237.508L333.998 241.964C333.922 242.071 333.869 242.192 333.841 242.32L332.3 249.456C332.195 249.94 332.47 250.425 332.939 250.585L343.156 254.056C343.809 254.279 344.481 253.769 344.442 253.08Z" fill="#5C4208" stroke="#27292A" stroke-width="4"/>
<ellipse opacity="0.3" cx="467" cy="376" rx="18" ry="5" fill="#09090B" fill-opacity="0.5"/>
<ellipse opacity="0.3" cx="467" cy="376" rx="18" ry="5" fill="#09090B" fill-opacity="0.5"/>
<ellipse opacity="0.3" cx="607.5" cy="357" rx="38.5" ry="5" fill="#09090B" fill-opacity="0.5"/>
<ellipse opacity="0.3" cx="89" cy="354.5" rx="35" ry="8.5" fill="#09090B" fill-opacity="0.5"/>
<g opacity="0.8">
<path opacity="0.2" d="M463.552 335.608C472.933 337.489 480 345.772 480 355.707C480 367.029 470.822 376.207 459.5 376.207C448.178 376.207 439 367.029 439 355.707C439 346.091 445.621 338.023 454.552 335.81V314H463.552V335.608Z" fill="#002740"/>
</g>
<path d="M466.014 311C467.118 311 468.014 311.895 468.014 313V313.431C468.014 314.535 467.118 315.431 466.014 315.431H465.061V333.738C475.213 336.082 482.782 345.179 482.782 356.044C482.782 368.686 472.534 378.935 459.892 378.936C447.249 378.936 437 368.686 437 356.044C437 345.713 443.844 336.982 453.245 334.134V315.431H452.292C451.187 315.431 450.292 314.535 450.292 313.431V313C450.292 311.895 451.187 311 452.292 311H466.014ZM455.035 315.117V336.519C446.271 338.691 439.775 346.608 439.774 356.044C439.774 367.154 448.781 376.161 459.891 376.161C471.001 376.161 480.008 367.154 480.008 356.044C480.008 346.117 472.816 337.87 463.359 336.227V315.117H455.035Z" fill="white"/>
<path d="M479.804 355.047C479.82 355.377 479.828 355.71 479.828 356.045C479.828 367.056 470.902 375.982 459.891 375.982C448.88 375.982 439.954 367.056 439.953 356.045C439.953 356.02 439.953 355.995 439.953 355.97C442.059 355.382 444.847 354.983 448.077 355.306C455.461 356.045 459.153 361.952 466.537 360.475C470.897 359.603 476.028 357.184 479.804 355.047Z" fill="#0061A0"/>
<path d="M479.805 355.047C479.821 355.377 479.829 355.71 479.829 356.045C479.829 367.056 470.902 375.982 459.891 375.982C454.585 375.982 449.763 373.908 446.19 370.527C448.981 372.014 452.167 372.859 455.55 372.859C464.971 372.859 472.864 366.324 474.948 357.541C476.687 356.737 478.347 355.871 479.805 355.047Z" fill="#002740"/>
<path d="M467 341.946C475.742 345.339 477.602 354.828 473.345 361.299" stroke="white" stroke-width="2" stroke-linecap="round"/>
<path d="M82.71 261C83.8144 261 84.7099 261.896 84.71 263V265.387C84.71 266.491 83.8144 267.387 82.71 267.387H80.4512V293.779C95.088 297.157 106 310.273 106 325.936C106 344.161 91.2254 358.936 73 358.936C54.7746 358.936 40 344.161 40 325.936C40 311.042 49.8663 298.455 63.4189 294.35V267.387H61.1611C60.0566 267.387 59.1611 266.491 59.1611 265.387V263C59.1612 261.896 60.0567 261 61.1611 261H82.71Z" fill="white"/>
<path opacity="0.2" d="M78 297.366C91.6334 299.736 102 311.624 102 325.936C102 341.952 89.0163 354.936 73 354.936C56.9837 354.936 44 341.952 44 325.936C44 312.333 53.3657 300.92 66 297.788V266.936H78V297.366Z" fill="#176FA9"/>
<path d="M101.705 324.503C101.728 324.978 101.742 325.455 101.742 325.936C101.742 341.809 88.8737 354.678 73 354.678C57.1263 354.678 44.2578 341.809 44.2578 325.936C44.2578 325.899 44.2587 325.863 44.2588 325.827C47.2939 324.98 51.3127 324.406 55.9678 324.871C66.6129 325.936 71.9359 334.451 82.5811 332.322C88.8648 331.065 96.2612 327.583 101.705 324.503Z" fill="#F3DB23"/>
<path d="M101.705 324.503C101.728 324.978 101.742 325.455 101.742 325.936C101.742 341.809 88.8737 354.678 73 354.678C65.3505 354.678 58.3999 351.688 53.25 346.815C57.2734 348.959 61.8655 350.175 66.7422 350.175C80.322 350.175 91.6995 340.756 94.7051 328.096C97.2114 326.938 99.6042 325.692 101.705 324.503Z" fill="#FDB515"/>
<path d="M84.4288 308.218C95.68 312.584 98.0729 324.797 92.5942 333.125" stroke="white" stroke-width="3.465" stroke-linecap="round"/>
<path d="M91.5 343C91.5 344.933 89.933 346.5 88 346.5C86.067 346.5 84.5 344.933 84.5 343C84.5 341.067 86.067 339.5 88 339.5C89.933 339.5 91.5 341.067 91.5 343Z" fill="white"/>
<mask id="path-281-outside-1_34815_4252" maskUnits="userSpaceOnUse" x="560.001" y="286" width="77" height="72" fill="black">
<rect fill="white" x="560.001" y="286" width="77" height="72"/>
<path d="M614.422 289C617.522 289 619.876 291.793 619.349 294.849L617.871 303.426C619.403 303.643 620.906 304.055 622.342 304.657C624.894 305.727 627.168 307.367 628.99 309.45C630.812 311.534 632.132 314.006 632.851 316.679C633.571 319.351 633.67 322.153 633.14 324.869C632.611 327.585 631.467 330.145 629.797 332.352C628.126 334.558 625.973 336.354 623.502 337.601C621.031 338.847 618.308 339.513 615.541 339.546C614.251 339.561 612.968 339.436 611.712 339.181L609.731 350.678C609.318 353.076 607.238 354.829 604.804 354.829H578.162C575.713 354.829 573.624 353.055 573.227 350.639L564.067 294.81C563.568 291.766 565.917 289 569.002 289H614.422ZM612.551 334.309C613.511 334.515 614.494 334.616 615.482 334.604C617.496 334.581 619.478 334.096 621.276 333.188C623.074 332.281 624.641 330.975 625.856 329.369C627.072 327.763 627.904 325.901 628.29 323.924C628.675 321.947 628.603 319.909 628.08 317.964C627.556 316.019 626.595 314.219 625.269 312.703C623.944 311.187 622.289 309.993 620.431 309.215C619.341 308.758 618.197 308.452 617.031 308.3L612.551 334.309Z"/>
</mask>
<path d="M614.422 289C617.522 289 619.876 291.793 619.349 294.849L617.871 303.426C619.403 303.643 620.906 304.055 622.342 304.657C624.894 305.727 627.168 307.367 628.99 309.45C630.812 311.534 632.132 314.006 632.851 316.679C633.571 319.351 633.67 322.153 633.14 324.869C632.611 327.585 631.467 330.145 629.797 332.352C628.126 334.558 625.973 336.354 623.502 337.601C621.031 338.847 618.308 339.513 615.541 339.546C614.251 339.561 612.968 339.436 611.712 339.181L609.731 350.678C609.318 353.076 607.238 354.829 604.804 354.829H578.162C575.713 354.829 573.624 353.055 573.227 350.639L564.067 294.81C563.568 291.766 565.917 289 569.002 289H614.422ZM612.551 334.309C613.511 334.515 614.494 334.616 615.482 334.604C617.496 334.581 619.478 334.096 621.276 333.188C623.074 332.281 624.641 330.975 625.856 329.369C627.072 327.763 627.904 325.901 628.29 323.924C628.675 321.947 628.603 319.909 628.08 317.964C627.556 316.019 626.595 314.219 625.269 312.703C623.944 311.187 622.289 309.993 620.431 309.215C619.341 308.758 618.197 308.452 617.031 308.3L612.551 334.309Z" fill="white"/>
<path d="M619.349 294.849L622.306 295.358L622.306 295.358L619.349 294.849ZM617.871 303.426L614.914 302.916L614.389 305.963L617.45 306.396L617.871 303.426ZM622.342 304.657L623.501 301.89L623.501 301.89L622.342 304.657ZM628.99 309.45L631.248 307.476L631.248 307.476L628.99 309.45ZM632.851 316.679L635.748 315.899L635.748 315.899L632.851 316.679ZM633.14 324.869L636.085 325.443L636.085 325.443L633.14 324.869ZM629.797 332.352L632.188 334.162L632.189 334.162L629.797 332.352ZM623.502 337.601L624.853 340.279L624.853 340.279L623.502 337.601ZM615.541 339.546L615.576 342.546H615.576L615.541 339.546ZM611.712 339.181L612.309 336.241L609.28 335.625L608.755 338.671L611.712 339.181ZM609.731 350.678L612.688 351.187L612.688 351.187L609.731 350.678ZM604.804 354.829V357.829H604.805L604.804 354.829ZM573.227 350.639L570.267 351.124L570.267 351.124L573.227 350.639ZM564.067 294.81L561.107 295.295L561.107 295.295L564.067 294.81ZM612.551 334.309L609.594 333.799L609.105 336.637L611.92 337.242L612.551 334.309ZM615.482 334.604L615.518 337.604H615.518L615.482 334.604ZM621.276 333.188L622.628 335.867L622.628 335.867L621.276 333.188ZM625.856 329.369L628.248 331.18L628.248 331.18L625.856 329.369ZM628.29 323.924L631.234 324.498L631.234 324.498L628.29 323.924ZM628.08 317.964L630.977 317.184L630.977 317.184L628.08 317.964ZM625.269 312.703L627.528 310.728L627.528 310.728L625.269 312.703ZM620.431 309.215L621.591 306.448L621.591 306.448L620.431 309.215ZM617.031 308.3L617.418 305.325L614.563 304.953L614.075 307.791L617.031 308.3ZM614.422 289V292C615.662 292 616.603 293.117 616.393 294.339L619.349 294.849L622.306 295.358C623.148 290.469 619.382 286 614.422 286V289ZM619.349 294.849L616.393 294.339L614.914 302.916L617.871 303.426L620.827 303.935L622.306 295.358L619.349 294.849ZM617.871 303.426L617.45 306.396C618.729 306.577 619.983 306.922 621.182 307.424L622.342 304.657L623.501 301.89C621.828 301.189 620.077 300.708 618.292 300.455L617.871 303.426ZM622.342 304.657L621.182 307.424C623.312 308.317 625.211 309.686 626.732 311.425L628.99 309.45L631.248 307.476C629.126 305.048 626.476 303.137 623.501 301.89L622.342 304.657ZM628.99 309.45L626.731 311.425C628.252 313.163 629.354 315.227 629.954 317.459L632.851 316.679L635.748 315.899C634.91 312.785 633.372 309.904 631.248 307.476L628.99 309.45ZM632.851 316.679L629.954 317.459C630.555 319.689 630.638 322.028 630.196 324.295L633.14 324.869L636.085 325.443C636.702 322.277 636.586 319.013 635.748 315.899L632.851 316.679ZM633.14 324.869L630.196 324.295C629.754 326.562 628.799 328.699 627.405 330.541L629.797 332.352L632.189 334.162C634.135 331.591 635.468 328.609 636.085 325.443L633.14 324.869ZM629.797 332.352L627.405 330.541C626.01 332.383 624.213 333.882 622.15 334.922L623.502 337.601L624.853 340.279C627.732 338.826 630.242 336.734 632.188 334.162L629.797 332.352ZM623.502 337.601L622.15 334.922C620.087 335.963 617.815 336.519 615.505 336.546L615.541 339.546L615.576 342.546C618.801 342.507 621.974 341.731 624.853 340.279L623.502 337.601ZM615.541 339.546L615.505 336.546C614.433 336.559 613.362 336.455 612.309 336.241L611.712 339.181L611.114 342.121C612.573 342.417 614.069 342.564 615.576 342.546L615.541 339.546ZM611.712 339.181L608.755 338.671L606.775 350.168L609.731 350.678L612.688 351.187L614.668 339.69L611.712 339.181ZM609.731 350.678L606.775 350.168C606.609 351.128 605.777 351.829 604.804 351.829L604.804 354.829L604.805 357.829C608.699 357.829 612.027 355.024 612.688 351.187L609.731 350.678ZM604.804 354.829V351.829H578.162V354.829V357.829H604.804V354.829ZM578.162 354.829V351.829C577.182 351.829 576.346 351.119 576.188 350.153L573.227 350.639L570.267 351.124C570.901 354.991 574.244 357.829 578.162 357.829V354.829ZM573.227 350.639L576.188 350.153L567.028 294.324L564.067 294.81L561.107 295.295L570.267 351.124L573.227 350.639ZM564.067 294.81L567.028 294.324C566.828 293.107 567.767 292 569.002 292V289V286C564.067 286 560.308 290.425 561.107 295.295L564.067 294.81ZM569.002 289V292H614.422V289V286H569.002V289ZM612.551 334.309L611.92 337.242C613.094 337.494 614.301 337.619 615.518 337.604L615.482 334.604L615.447 331.605C614.687 331.614 613.927 331.536 613.181 331.376L612.551 334.309ZM615.482 334.604L615.518 337.604C617.99 337.575 620.422 336.98 622.628 335.867L621.276 333.188L619.925 330.51C618.534 331.212 617.002 331.586 615.447 331.605L615.482 334.604ZM621.276 333.188L622.628 335.867C624.834 334.753 626.756 333.15 628.248 331.18L625.856 329.369L623.464 327.558C622.525 328.799 621.314 329.809 619.925 330.51L621.276 333.188ZM625.856 329.369L628.248 331.18C629.74 329.21 630.761 326.924 631.234 324.498L628.29 323.924L625.345 323.35C625.047 324.878 624.404 326.317 623.464 327.558L625.856 329.369ZM628.29 323.924L631.234 324.498C631.707 322.072 631.619 319.571 630.977 317.184L628.08 317.964L625.183 318.744C625.588 320.247 625.643 321.822 625.345 323.35L628.29 323.924ZM628.08 317.964L630.977 317.184C630.334 314.798 629.155 312.589 627.528 310.728L625.269 312.703L623.011 314.678C624.035 315.849 624.778 317.24 625.183 318.744L628.08 317.964ZM625.269 312.703L627.528 310.728C625.901 308.868 623.871 307.404 621.591 306.448L620.431 309.215L619.272 311.982C620.707 312.583 621.986 313.505 623.011 314.678L625.269 312.703ZM620.431 309.215L621.591 306.448C620.251 305.886 618.847 305.511 617.418 305.325L617.031 308.3L616.644 311.275C617.546 311.392 618.43 311.629 619.272 311.982L620.431 309.215ZM617.031 308.3L614.075 307.791L609.594 333.799L612.551 334.309L615.507 334.818L619.987 308.809L617.031 308.3Z" fill="#FEC955" mask="url(#path-281-outside-1_34815_4252)"/>
<path d="M614.69 289C617.791 289 620.144 291.793 619.618 294.849L610 350.678C609.587 353.076 607.506 354.829 605.072 354.829H598.809L608.709 289H614.69Z" fill="#F7F7F7"/>
<g clip-path="url(#clip1_34815_4252)">
<path d="M601.114 327.526C600.863 327.933 600.568 328.27 600.229 328.534C599.816 328.852 599.39 329.012 598.949 329.012C598.336 329.012 597.964 328.776 597.836 328.308L597.574 328.263L597.355 329.461C597.739 329.676 598.12 329.785 598.496 329.785C599.623 329.785 600.672 329.031 601.642 327.526H601.114H601.114Z" fill="#2A3C51"/>
<path d="M604.258 326.195C604.672 326.442 604.984 326.598 605.194 326.674C605.515 326.796 605.891 326.858 606.322 326.858C607.083 326.858 607.67 326.659 608.083 326.267C608.449 325.912 608.633 325.435 608.633 324.843C608.633 324.328 608.358 323.784 607.808 323.214C607.322 322.724 607.019 322.399 606.9 322.242C606.661 321.941 606.542 321.654 606.542 321.384C606.542 321.148 606.629 320.943 606.804 320.764C606.987 320.587 607.244 320.495 607.574 320.495C607.794 320.495 608.028 320.567 608.275 320.707C608.532 320.84 608.701 321.004 608.784 321.199C608.83 321.312 608.853 321.46 608.853 321.638L609.211 321.75L609.623 320.414C609.045 320.092 608.44 319.935 607.808 319.935C607.175 319.935 606.629 320.13 606.226 320.527C605.822 320.909 605.62 321.374 605.62 321.918C605.62 322.407 605.849 322.899 606.308 323.396L607.174 324.352C607.532 324.756 607.712 325.112 607.712 325.423C607.712 325.65 607.628 325.84 607.463 326.001C607.261 326.206 606.955 326.309 606.542 326.309C606.203 326.309 605.882 326.216 605.579 326.029C605.213 325.813 605.029 325.536 605.029 325.197C605.029 325.143 605.038 325.044 605.058 324.904L604.658 324.805L604.258 326.196V326.195Z" fill="#2A3C51"/>
<path d="M592.347 326.195C592.76 326.442 593.072 326.598 593.283 326.674C593.614 326.796 593.99 326.858 594.411 326.858C595.181 326.858 595.767 326.659 596.172 326.267C596.548 325.912 596.735 325.435 596.735 324.843C596.735 324.328 596.456 323.784 595.896 323.214C595.41 322.724 595.107 322.399 594.989 322.242C594.759 321.941 594.644 321.654 594.644 321.384C594.644 321.148 594.731 320.943 594.906 320.764C595.089 320.587 595.341 320.495 595.662 320.495C595.883 320.495 596.117 320.567 596.364 320.707C596.622 320.84 596.79 321.004 596.874 321.199C596.919 321.312 596.943 321.46 596.943 321.638L597.3 321.75L597.713 320.414C597.134 320.092 596.53 319.935 595.896 319.935C595.263 319.935 594.719 320.13 594.314 320.527C593.911 320.909 593.709 321.374 593.709 321.918C593.709 322.407 593.938 322.899 594.397 323.396L595.263 324.352C595.621 324.756 595.801 325.112 595.801 325.423C595.801 325.65 595.718 325.84 595.552 326.001C595.352 326.206 595.049 326.309 594.645 326.309C594.296 326.309 593.972 326.216 593.668 326.029C593.301 325.813 593.118 325.536 593.118 325.197C593.118 325.143 593.133 325.044 593.16 324.904L592.747 324.805L592.347 326.196L592.347 326.195Z" fill="#2A3C51"/>
<path d="M591.756 324.83C591.325 325.477 590.995 325.801 590.766 325.801C590.554 325.801 590.449 325.686 590.449 325.449C590.449 325.299 590.482 325.06 590.545 324.732L591.536 319.934C591.36 319.961 591.187 319.975 591.013 319.975C590.94 319.975 590.774 319.972 590.517 319.961C590.269 319.944 590.085 319.934 589.967 319.934C588.922 319.934 587.976 320.272 587.133 320.946C586.428 321.511 585.859 322.243 585.428 323.141C585.042 323.931 584.85 324.629 584.85 325.237C584.85 325.672 584.946 326.031 585.139 326.322C585.368 326.68 585.699 326.858 586.129 326.858C586.817 326.858 587.537 326.42 588.289 325.549C588.812 324.94 589.288 324.198 589.719 323.327L589.746 323.353L589.514 324.351C589.367 325.019 589.294 325.573 589.294 326.014C589.294 326.578 589.518 326.858 589.967 326.858C590.582 326.858 591.302 326.228 592.127 324.971L591.755 324.83H591.756ZM586.006 325.156C586.006 324.714 586.115 324.185 586.336 323.565C586.538 323.011 586.781 322.509 587.065 322.057C587.459 321.438 587.886 321.011 588.345 320.779C588.72 320.591 589.197 320.495 589.775 320.495C589.941 320.495 590.109 320.515 590.285 320.553C590.229 321.5 589.747 322.673 588.839 324.072C587.932 325.459 587.185 326.154 586.597 326.154C586.203 326.154 586.005 325.822 586.005 325.156" fill="#2A3C51"/>
<path d="M573.847 321.665C573.847 323.23 574.347 324.527 575.347 325.549C576.346 326.561 577.58 327.07 579.046 327.07C580.918 327.07 582.389 326.435 583.462 325.169C584.36 324.109 584.809 322.895 584.809 321.524C584.809 319.965 584.31 318.689 583.311 317.695C582.32 316.693 581.027 316.19 579.432 316.19C577.836 316.19 576.415 316.784 575.333 317.978C574.342 319.055 573.847 320.287 573.847 321.665ZM575.236 321.736C575.236 320.348 575.663 319.178 576.516 318.232C577.369 317.284 578.391 316.809 579.583 316.809C580.647 316.809 581.541 317.21 582.265 318.006C583.035 318.85 583.421 319.951 583.421 321.311C583.421 322.769 583.012 323.985 582.196 324.971C581.389 325.955 580.367 326.451 579.129 326.451C577.891 326.451 576.901 325.949 576.185 324.943C575.553 324.051 575.236 322.983 575.236 321.735" fill="#2A3C51"/>
<path d="M601.642 327.527C601.722 327.401 601.801 327.275 601.88 327.138L603.049 325.156C604.443 322.772 605.14 321.285 605.14 320.693C605.14 320.187 604.961 319.934 604.604 319.934C604.374 319.934 604.117 320.026 603.833 320.214C603.723 320.279 603.471 320.478 603.076 320.806L603.2 321.117C603.394 320.957 603.576 320.878 603.752 320.878C603.98 320.878 604.094 321.018 604.094 321.298C604.094 321.702 603.797 322.485 603.2 323.648L601.963 326.069H601.935C601.852 325.552 601.725 324.909 601.55 324.14C601.33 323.155 601.215 322.639 601.206 322.594C600.986 321.524 600.742 320.782 600.476 320.368C600.284 320.078 600.046 319.934 599.762 319.934C599.313 319.934 598.712 320.414 597.961 321.37L597.726 321.665L598.071 321.931C598.465 321.302 598.827 320.991 599.156 320.991C599.532 320.991 599.827 321.446 600.037 322.356L601.192 327.392C601.167 327.439 601.141 327.482 601.115 327.527H601.642L601.642 327.527Z" fill="#2A3C51"/>
</g>
<circle cx="47.5" cy="177.5" r="12.5" fill="white"/>
<circle cx="128.5" cy="-0.5" r="12.5" fill="white"/>
</g>
<defs>
<clipPath id="clip0_34815_4252">
<rect width="660" height="398" fill="white"/>
</clipPath>
<clipPath id="clip1_34815_4252">
<rect width="35.7766" height="13.5951" fill="white" transform="translate(573.847 316.19)"/>
</clipPath>
</defs>
</svg>
