<svg width="160" height="160" viewBox="0 0 160 160" fill="none" xmlns="http://www.w3.org/2000/svg">
<g clip-path="url(#clip0_8126_1458)">
<rect width="160" height="160" rx="8" fill="#FFF2D4"/>
<g opacity="0.6">
<path fill-rule="evenodd" clip-rule="evenodd" d="M29.9392 86.5449C30.0133 86.5904 30.0365 86.6873 29.991 86.7614L27.4793 90.8561L22.8235 90.9602L21.0902 95.1866C21.0573 95.267 20.9653 95.3055 20.8849 95.2725C20.8045 95.2395 20.7661 95.1476 20.799 95.0672L22.6105 90.6502L27.3008 90.5453L29.7227 86.5968C29.7682 86.5227 29.8651 86.4995 29.9392 86.5449Z" fill="#FED77F"/>
<path fill-rule="evenodd" clip-rule="evenodd" d="M16.1424 86.0307C16.2849 86.0048 16.4215 86.0992 16.4474 86.2418L18.8721 99.5566L32.3934 97.0944C32.5359 97.0684 32.6725 97.1629 32.6985 97.3054C32.7244 97.4479 32.6299 97.5845 32.4874 97.6105L18.45 100.167L15.9313 86.3357C15.9054 86.1932 15.9999 86.0567 16.1424 86.0307Z" fill="#FED77F"/>
<path d="M21.6061 94.9532C21.6736 95.3237 21.4279 95.6788 21.0574 95.7462C20.6869 95.8137 20.3318 95.568 20.2643 95.1975C20.1968 94.827 20.4425 94.4719 20.813 94.4044C21.1836 94.337 21.5386 94.5826 21.6061 94.9532Z" fill="#FED77F"/>
<path d="M23.3879 90.6831C23.4553 91.0536 23.2097 91.4087 22.8391 91.4761C22.4686 91.5436 22.1135 91.2979 22.0461 90.9274C21.9786 90.5569 22.2243 90.2018 22.5948 90.1343C22.9653 90.0669 23.3204 90.3125 23.3879 90.6831Z" fill="#FED77F"/>
<path d="M28.0422 90.4753C28.1096 90.8459 27.864 91.2009 27.4934 91.2684C27.1229 91.3359 26.7678 91.0902 26.7003 90.7197C26.6329 90.3491 26.8785 89.9941 27.2491 89.9266C27.6196 89.8591 27.9747 90.1048 28.0422 90.4753Z" fill="#FED77F"/>
<path d="M30.4153 86.5241C30.4828 86.8947 30.2371 87.2497 29.8666 87.3172C29.496 87.3847 29.141 87.139 29.0735 86.7685C29.006 86.3979 29.2517 86.0429 29.6222 85.9754C29.9928 85.9079 30.3478 86.1536 30.4153 86.5241Z" fill="#FED77F"/>
</g>
<g opacity="0.6">
<path fill-rule="evenodd" clip-rule="evenodd" d="M60.3948 80.9989C60.4688 81.0444 60.4921 81.1413 60.4466 81.2154L57.9349 85.3101L53.2791 85.4142L51.5458 89.6406C51.5129 89.721 51.4209 89.7595 51.3405 89.7265C51.2601 89.6935 51.2216 89.6016 51.2546 89.5212L53.0661 85.1042L57.7564 84.9993L60.1783 81.0508C60.2238 80.9767 60.3207 80.9535 60.3948 80.9989Z" fill="#FED77F"/>
<path fill-rule="evenodd" clip-rule="evenodd" d="M46.5979 80.4847C46.7404 80.4587 46.877 80.5532 46.9029 80.6957L49.3276 94.0106L62.8489 91.5483C62.9915 91.5224 63.128 91.6169 63.154 91.7594C63.1799 91.9019 63.0854 92.0385 62.9429 92.0644L48.9055 94.6207L46.3869 80.7897C46.3609 80.6472 46.4554 80.5106 46.5979 80.4847Z" fill="#FED77F"/>
<path d="M52.0617 89.4071C52.1292 89.7777 51.8835 90.1328 51.513 90.2002C51.1425 90.2677 50.7874 90.022 50.7199 89.6515C50.6524 89.281 50.8981 88.9259 51.2686 88.8584C51.6392 88.7909 51.9942 89.0366 52.0617 89.4071Z" fill="#FED77F"/>
<path d="M53.8435 85.137C53.9109 85.5076 53.6653 85.8626 53.2947 85.9301C52.9242 85.9976 52.5691 85.7519 52.5017 85.3814C52.4342 85.0109 52.6799 84.6558 53.0504 84.5883C53.4209 84.5208 53.776 84.7665 53.8435 85.137Z" fill="#FED77F"/>
<path d="M58.4978 84.9293C58.5652 85.2998 58.3196 85.6549 57.949 85.7224C57.5785 85.7899 57.2234 85.5442 57.1559 85.1737C57.0885 84.8031 57.3341 84.448 57.7047 84.3806C58.0752 84.3131 58.4303 84.5588 58.4978 84.9293Z" fill="#FED77F"/>
<path d="M60.8708 80.9781C60.9383 81.3486 60.6926 81.7037 60.322 81.7712C59.9515 81.8387 59.5964 81.593 59.529 81.2224C59.4615 80.8519 59.7072 80.4968 60.0777 80.4294C60.4482 80.3619 60.8033 80.6076 60.8708 80.9781Z" fill="#FED77F"/>
</g>
<g opacity="0.6">
<path fill-rule="evenodd" clip-rule="evenodd" d="M90.8501 75.4529C90.9242 75.4984 90.9474 75.5953 90.902 75.6693L88.3903 79.7641L83.7344 79.8682L82.0012 84.0946C81.9682 84.175 81.8763 84.2135 81.7959 84.1805C81.7154 84.1475 81.677 84.0556 81.71 83.9752L83.5214 79.5582L88.2117 79.4533L90.6337 75.5048C90.6791 75.4307 90.776 75.4075 90.8501 75.4529Z" fill="#FED77F"/>
<path fill-rule="evenodd" clip-rule="evenodd" d="M77.0534 74.9387C77.1959 74.9127 77.3325 75.0072 77.3585 75.1497L79.7831 88.4646L93.3045 86.0023C93.447 85.9764 93.5835 86.0709 93.6095 86.2134C93.6354 86.3559 93.541 86.4925 93.3984 86.5184L79.361 89.0747L76.8424 75.2437C76.8164 75.1012 76.9109 74.9646 77.0534 74.9387Z" fill="#FED77F"/>
<path d="M82.5172 83.8611C82.5847 84.2317 82.339 84.5867 81.9685 84.6542C81.5979 84.7217 81.2428 84.476 81.1754 84.1055C81.1079 83.7349 81.3536 83.3799 81.7241 83.3124C82.0946 83.2449 82.4497 83.4906 82.5172 83.8611Z" fill="#FED77F"/>
<path d="M84.2989 79.591C84.3664 79.9615 84.1207 80.3166 83.7502 80.3841C83.3797 80.4516 83.0246 80.2059 82.9571 79.8354C82.8896 79.4648 83.1353 79.1098 83.5059 79.0423C83.8764 78.9748 84.2315 79.2205 84.2989 79.591Z" fill="#FED77F"/>
<path d="M88.9532 79.3833C89.0207 79.7538 88.775 80.1089 88.4045 80.1764C88.034 80.2439 87.6789 79.9982 87.6114 79.6277C87.5439 79.2571 87.7896 78.9021 88.1601 78.8346C88.5307 78.7671 88.8857 79.0128 88.9532 79.3833Z" fill="#FED77F"/>
<path d="M91.3262 75.4321C91.3937 75.8026 91.148 76.1577 90.7775 76.2252C90.407 76.2926 90.0519 76.047 89.9844 75.6764C89.917 75.3059 90.1626 74.9508 90.5332 74.8834C90.9037 74.8159 91.2588 75.0616 91.3262 75.4321Z" fill="#FED77F"/>
</g>
<g opacity="0.6">
<path fill-rule="evenodd" clip-rule="evenodd" d="M121.306 69.9069C121.38 69.9524 121.403 70.0493 121.357 70.1233L118.846 74.2181L114.19 74.3222L112.457 78.5486C112.424 78.629 112.332 78.6675 112.251 78.6345C112.171 78.6015 112.132 78.5096 112.165 78.4292L113.977 74.0122L118.667 73.9073L121.089 69.9588C121.135 69.8847 121.231 69.8615 121.306 69.9069Z" fill="#FED77F"/>
<path fill-rule="evenodd" clip-rule="evenodd" d="M107.509 69.3926C107.651 69.3667 107.788 69.4612 107.814 69.6037L110.239 82.9186L123.76 80.4563C123.902 80.4304 124.039 80.5249 124.065 80.6674C124.091 80.8099 123.996 80.9464 123.854 80.9724L109.817 83.5286L107.298 69.6977C107.272 69.5552 107.366 69.4186 107.509 69.3926Z" fill="#FED77F"/>
<path d="M112.973 78.3151C113.04 78.6857 112.794 79.0407 112.424 79.1082C112.053 79.1757 111.698 78.93 111.631 78.5595C111.563 78.189 111.809 77.8339 112.18 77.7664C112.55 77.6989 112.905 77.9446 112.973 78.3151Z" fill="#FED77F"/>
<path d="M114.754 74.045C114.822 74.4156 114.576 74.7706 114.206 74.8381C113.835 74.9056 113.48 74.6599 113.413 74.2894C113.345 73.9188 113.591 73.5638 113.961 73.4963C114.332 73.4288 114.687 73.6745 114.754 74.045Z" fill="#FED77F"/>
<path d="M119.409 73.8373C119.476 74.2078 119.23 74.5629 118.86 74.6303C118.489 74.6978 118.134 74.4521 118.067 74.0816C117.999 73.7111 118.245 73.356 118.616 73.2885C118.986 73.2211 119.341 73.4667 119.409 73.8373Z" fill="#FED77F"/>
<path d="M121.782 69.8861C121.849 70.2566 121.604 70.6117 121.233 70.6791C120.862 70.7466 120.507 70.5009 120.44 70.1304C120.372 69.7599 120.618 69.4048 120.989 69.3373C121.359 69.2699 121.714 69.5155 121.782 69.8861Z" fill="#FED77F"/>
</g>
<g opacity="0.6">
<path fill-rule="evenodd" clip-rule="evenodd" d="M18.4196 114.971C18.4937 115.016 18.5169 115.113 18.4715 115.187L15.9598 119.282L11.304 119.386L9.57071 123.612C9.53773 123.693 9.44581 123.731 9.3654 123.698C9.28498 123.665 9.24653 123.573 9.27951 123.493L11.0909 119.076L15.7812 118.971L18.2032 115.023C18.2487 114.949 18.3456 114.925 18.4196 114.971Z" fill="#FED77F"/>
<path fill-rule="evenodd" clip-rule="evenodd" d="M4.62287 114.457C4.76538 114.431 4.90195 114.525 4.9279 114.668L7.35257 127.982L20.8739 125.52C21.0164 125.494 21.153 125.589 21.1789 125.731C21.2049 125.874 21.1104 126.01 20.9679 126.036L6.93047 128.593L4.41182 114.762C4.38587 114.619 4.48036 114.483 4.62287 114.457Z" fill="#FED77F"/>
<path d="M10.0866 123.379C10.1541 123.75 9.90839 124.105 9.53786 124.172C9.16733 124.24 8.81226 123.994 8.74479 123.623C8.67731 123.253 8.92299 122.898 9.29352 122.83C9.66405 122.763 10.0191 123.009 10.0866 123.379Z" fill="#FED77F"/>
<path d="M11.8685 119.109C11.9359 119.479 11.6903 119.835 11.3197 119.902C10.9492 119.969 10.5941 119.724 10.5267 119.353C10.4592 118.983 10.7049 118.628 11.0754 118.56C11.4459 118.493 11.801 118.738 11.8685 119.109Z" fill="#FED77F"/>
<path d="M16.5227 118.901C16.5902 119.272 16.3445 119.627 15.974 119.694C15.6035 119.762 15.2484 119.516 15.1809 119.146C15.1135 118.775 15.3591 118.42 15.7297 118.352C16.1002 118.285 16.4553 118.531 16.5227 118.901Z" fill="#FED77F"/>
<path d="M18.8958 114.95C18.9632 115.321 18.7176 115.676 18.347 115.743C17.9765 115.811 17.6214 115.565 17.554 115.194C17.4865 114.824 17.7322 114.469 18.1027 114.401C18.4732 114.334 18.8283 114.579 18.8958 114.95Z" fill="#FED77F"/>
</g>
<g opacity="0.6">
<path fill-rule="evenodd" clip-rule="evenodd" d="M48.8752 109.425C48.9493 109.47 48.9725 109.567 48.9271 109.641L46.4154 113.736L41.7596 113.84L40.0263 118.067C39.9933 118.147 39.9014 118.185 39.821 118.152C39.7406 118.119 39.7021 118.028 39.7351 117.947L41.5465 113.53L46.2368 113.425L48.6588 109.477C48.7042 109.403 48.8011 109.379 48.8752 109.425Z" fill="#FED77F"/>
<path fill-rule="evenodd" clip-rule="evenodd" d="M35.0784 108.911C35.2209 108.885 35.3575 108.979 35.3834 109.122L37.8081 122.437L51.3294 119.974C51.4719 119.948 51.6085 120.043 51.6344 120.185C51.6604 120.328 51.5659 120.464 51.4234 120.49L37.386 123.047L34.8673 109.216C34.8414 109.073 34.9359 108.937 35.0784 108.911Z" fill="#FED77F"/>
<path d="M40.5422 117.833C40.6097 118.204 40.364 118.559 39.9935 118.626C39.6229 118.694 39.2678 118.448 39.2004 118.077C39.1329 117.707 39.3786 117.352 39.7491 117.284C40.1196 117.217 40.4747 117.463 40.5422 117.833Z" fill="#FED77F"/>
<path d="M42.3239 113.563C42.3914 113.934 42.1457 114.289 41.7752 114.356C41.4047 114.424 41.0496 114.178 40.9821 113.807C40.9146 113.437 41.1603 113.082 41.5309 113.014C41.9014 112.947 42.2565 113.192 42.3239 113.563Z" fill="#FED77F"/>
<path d="M46.9782 113.355C47.0457 113.726 46.8 114.081 46.4295 114.148C46.059 114.216 45.7039 113.97 45.6364 113.6C45.5689 113.229 45.8146 112.874 46.1851 112.807C46.5557 112.739 46.9107 112.985 46.9782 113.355Z" fill="#FED77F"/>
<path d="M49.3514 109.404C49.4188 109.775 49.1732 110.13 48.8026 110.197C48.4321 110.265 48.077 110.019 48.0096 109.648C47.9421 109.278 48.1878 108.923 48.5583 108.855C48.9288 108.788 49.2839 109.034 49.3514 109.404Z" fill="#FED77F"/>
</g>
<g opacity="0.6">
<path fill-rule="evenodd" clip-rule="evenodd" d="M79.3307 103.879C79.4048 103.924 79.428 104.021 79.3826 104.095L76.8709 108.19L72.215 108.294L70.4818 112.52C70.4488 112.601 70.3569 112.639 70.2765 112.606C70.196 112.573 70.1576 112.481 70.1906 112.401L72.002 107.984L76.6923 107.879L79.1143 103.931C79.1597 103.857 79.2566 103.833 79.3307 103.879Z" fill="#FED77F"/>
<path fill-rule="evenodd" clip-rule="evenodd" d="M65.5339 103.365C65.6764 103.339 65.813 103.433 65.8389 103.576L68.2636 116.89L81.7849 114.428C81.9274 114.402 82.064 114.497 82.09 114.639C82.1159 114.782 82.0214 114.918 81.8789 114.944L67.8415 117.501L65.3229 103.67C65.2969 103.527 65.3914 103.39 65.5339 103.365Z" fill="#FED77F"/>
<path d="M70.9977 112.287C71.0651 112.658 70.8195 113.013 70.4489 113.08C70.0784 113.148 69.7233 112.902 69.6558 112.531C69.5884 112.161 69.834 111.806 70.2046 111.738C70.5751 111.671 70.9302 111.916 70.9977 112.287Z" fill="#FED77F"/>
<path d="M72.7794 108.017C72.8469 108.387 72.6012 108.743 72.2307 108.81C71.8601 108.877 71.5051 108.632 71.4376 108.261C71.3701 107.891 71.6158 107.536 71.9863 107.468C72.3569 107.401 72.7119 107.646 72.7794 108.017Z" fill="#FED77F"/>
<path d="M77.4337 107.809C77.5012 108.18 77.2555 108.535 76.885 108.602C76.5144 108.67 76.1594 108.424 76.0919 108.054C76.0244 107.683 76.2701 107.328 76.6406 107.26C77.0111 107.193 77.3662 107.439 77.4337 107.809Z" fill="#FED77F"/>
<path d="M79.8067 103.858C79.8742 104.229 79.6285 104.584 79.258 104.651C78.8874 104.719 78.5324 104.473 78.4649 104.102C78.3974 103.732 78.6431 103.377 79.0136 103.309C79.3842 103.242 79.7392 103.487 79.8067 103.858Z" fill="#FED77F"/>
</g>
<g opacity="0.6">
<path fill-rule="evenodd" clip-rule="evenodd" d="M109.786 98.3328C109.86 98.3782 109.883 98.4751 109.838 98.5492L107.326 102.644L102.67 102.748L100.937 106.974C100.904 107.055 100.812 107.093 100.732 107.06C100.652 107.027 100.613 106.935 100.646 106.855L102.457 102.438L107.148 102.333L109.57 98.3847C109.615 98.3106 109.712 98.2874 109.786 98.3328Z" fill="#FED77F"/>
<path fill-rule="evenodd" clip-rule="evenodd" d="M95.9894 97.8185C96.1319 97.7926 96.2685 97.8871 96.2945 98.0296L98.7191 111.344L112.24 108.882C112.383 108.856 112.52 108.951 112.545 109.093C112.571 109.236 112.477 109.372 112.334 109.398L98.297 111.955L95.7784 98.1236C95.7524 97.9811 95.8469 97.8445 95.9894 97.8185Z" fill="#FED77F"/>
<path d="M101.453 106.741C101.521 107.112 101.275 107.467 100.904 107.534C100.534 107.602 100.179 107.356 100.111 106.985C100.044 106.615 100.29 106.26 100.66 106.192C101.031 106.125 101.386 106.37 101.453 106.741Z" fill="#FED77F"/>
<path d="M103.235 102.471C103.302 102.841 103.057 103.197 102.686 103.264C102.316 103.331 101.961 103.086 101.893 102.715C101.826 102.345 102.071 101.99 102.442 101.922C102.812 101.855 103.167 102.1 103.235 102.471Z" fill="#FED77F"/>
<path d="M107.889 102.263C107.957 102.634 107.711 102.989 107.34 103.056C106.97 103.124 106.615 102.878 106.547 102.507C106.48 102.137 106.726 101.782 107.096 101.714C107.467 101.647 107.822 101.893 107.889 102.263Z" fill="#FED77F"/>
<path d="M110.262 98.3119C110.33 98.6825 110.084 99.0375 109.713 99.105C109.343 99.1725 108.988 98.9268 108.92 98.5563C108.853 98.1858 109.099 97.8307 109.469 97.7632C109.84 97.6957 110.195 97.9414 110.262 98.3119Z" fill="#FED77F"/>
</g>
<g opacity="0.6">
<path fill-rule="evenodd" clip-rule="evenodd" d="M39.2204 137.511C39.2944 137.557 39.3177 137.654 39.2722 137.728L36.7605 141.822L32.1047 141.927L30.3714 146.153C30.3385 146.233 30.2465 146.272 30.1661 146.239C30.0857 146.206 30.0472 146.114 30.0802 146.034L31.8917 141.617L36.582 141.512L39.0039 137.563C39.0494 137.489 39.1463 137.466 39.2204 137.511Z" fill="#FED77F"/>
<path fill-rule="evenodd" clip-rule="evenodd" d="M25.4235 136.997C25.566 136.971 25.7026 137.066 25.7285 137.208L28.1532 150.523L41.6745 148.061C41.817 148.035 41.9536 148.129 41.9796 148.272C42.0055 148.414 41.911 148.551 41.7685 148.577L27.7311 151.133L25.2124 137.302C25.1865 137.16 25.281 137.023 25.4235 136.997Z" fill="#FED77F"/>
<path d="M30.8873 145.92C30.9548 146.29 30.7091 146.645 30.3386 146.713C29.9681 146.78 29.613 146.534 29.5455 146.164C29.478 145.793 29.7237 145.438 30.0942 145.371C30.4648 145.303 30.8198 145.549 30.8873 145.92Z" fill="#FED77F"/>
<path d="M32.6691 141.649C32.7365 142.02 32.4909 142.375 32.1203 142.443C31.7498 142.51 31.3947 142.264 31.3273 141.894C31.2598 141.523 31.5055 141.168 31.876 141.101C32.2465 141.033 32.6016 141.279 32.6691 141.649Z" fill="#FED77F"/>
<path d="M37.3233 141.442C37.3908 141.812 37.1451 142.167 36.7746 142.235C36.4041 142.302 36.049 142.057 35.9815 141.686C35.9141 141.316 36.1597 140.96 36.5303 140.893C36.9008 140.825 37.2559 141.071 37.3233 141.442Z" fill="#FED77F"/>
<path d="M39.6964 137.49C39.7638 137.861 39.5182 138.216 39.1476 138.284C38.7771 138.351 38.422 138.105 38.3546 137.735C38.2871 137.364 38.5328 137.009 38.9033 136.942C39.2738 136.874 39.6289 137.12 39.6964 137.49Z" fill="#FED77F"/>
</g>
<g opacity="0.6">
<path fill-rule="evenodd" clip-rule="evenodd" d="M69.6758 131.965C69.7499 132.011 69.7731 132.108 69.7277 132.182L67.216 136.276L62.5601 136.381L60.8269 140.607C60.7939 140.687 60.702 140.726 60.6216 140.693C60.5412 140.66 60.5027 140.568 60.5357 140.488L62.3471 136.071L67.0374 135.966L69.4594 132.017C69.5048 131.943 69.6017 131.92 69.6758 131.965Z" fill="#FED77F"/>
<path fill-rule="evenodd" clip-rule="evenodd" d="M55.8791 131.451C56.0216 131.425 56.1582 131.52 56.1842 131.662L58.6088 144.977L72.1302 142.515C72.2727 142.489 72.4092 142.583 72.4352 142.726C72.4611 142.868 72.3666 143.005 72.2241 143.031L58.1867 145.587L55.6681 131.756C55.6421 131.614 55.7366 131.477 55.8791 131.451Z" fill="#FED77F"/>
<path d="M61.3429 140.374C61.4104 140.744 61.1647 141.099 60.7942 141.167C60.4236 141.234 60.0686 140.988 60.0011 140.618C59.9336 140.247 60.1793 139.892 60.5498 139.825C60.9203 139.757 61.2754 140.003 61.3429 140.374Z" fill="#FED77F"/>
<path d="M63.1247 136.103C63.1921 136.474 62.9465 136.829 62.5759 136.896C62.2054 136.964 61.8503 136.718 61.7828 136.348C61.7154 135.977 61.961 135.622 62.3316 135.555C62.7021 135.487 63.0572 135.733 63.1247 136.103Z" fill="#FED77F"/>
<path d="M67.7789 135.896C67.8464 136.266 67.6007 136.621 67.2302 136.689C66.8597 136.756 66.5046 136.511 66.4371 136.14C66.3696 135.769 66.6153 135.414 66.9859 135.347C67.3564 135.279 67.7115 135.525 67.7789 135.896Z" fill="#FED77F"/>
<path d="M70.152 131.944C70.2194 132.315 69.9738 132.67 69.6032 132.738C69.2327 132.805 68.8776 132.559 68.8101 132.189C68.7427 131.818 68.9883 131.463 69.3589 131.396C69.7294 131.328 70.0845 131.574 70.152 131.944Z" fill="#FED77F"/>
</g>
<g opacity="0.6">
<path fill-rule="evenodd" clip-rule="evenodd" d="M100.131 126.419C100.205 126.465 100.228 126.562 100.183 126.636L97.6714 130.73L93.0155 130.835L91.2822 135.061C91.2493 135.141 91.1573 135.18 91.0769 135.147C90.9965 135.114 90.9581 135.022 90.991 134.942L92.8025 130.524L97.4928 130.42L99.9147 126.471C99.9602 126.397 100.057 126.374 100.131 126.419Z" fill="#FED77F"/>
<path fill-rule="evenodd" clip-rule="evenodd" d="M86.3345 125.905C86.477 125.879 86.6136 125.974 86.6396 126.116L89.0642 139.431L102.586 136.969C102.728 136.943 102.865 137.037 102.891 137.18C102.917 137.322 102.822 137.459 102.68 137.485L88.6421 140.041L86.1235 126.21C86.0975 126.068 86.192 125.931 86.3345 125.905Z" fill="#FED77F"/>
<path d="M91.7983 134.827C91.8657 135.198 91.62 135.553 91.2495 135.621C90.879 135.688 90.5239 135.442 90.4564 135.072C90.389 134.701 90.6346 134.346 91.0052 134.279C91.3757 134.211 91.7308 134.457 91.7983 134.827Z" fill="#FED77F"/>
<path d="M93.58 130.557C93.6475 130.928 93.4018 131.283 93.0313 131.35C92.6607 131.418 92.3057 131.172 92.2382 130.802C92.1707 130.431 92.4164 130.076 92.7869 130.009C93.1574 129.941 93.5125 130.187 93.58 130.557Z" fill="#FED77F"/>
<path d="M98.2343 130.35C98.3018 130.72 98.0561 131.075 97.6856 131.143C97.315 131.21 96.9599 130.965 96.8925 130.594C96.825 130.223 97.0707 129.868 97.4412 129.801C97.8117 129.733 98.1668 129.979 98.2343 130.35Z" fill="#FED77F"/>
<path d="M100.607 126.398C100.675 126.769 100.429 127.124 100.059 127.192C99.688 127.259 99.333 127.013 99.2655 126.643C99.198 126.272 99.4437 125.917 99.8142 125.85C100.185 125.782 100.54 126.028 100.607 126.398Z" fill="#FED77F"/>
</g>
<g opacity="0.6">
<path fill-rule="evenodd" clip-rule="evenodd" d="M130.587 120.873C130.661 120.919 130.684 121.016 130.639 121.09L128.127 125.184L123.471 125.288L121.738 129.515C121.705 129.595 121.613 129.634 121.533 129.601C121.452 129.568 121.414 129.476 121.447 129.395L123.258 124.978L127.948 124.874L130.37 120.925C130.416 120.851 130.513 120.828 130.587 120.873Z" fill="#FED77F"/>
<path fill-rule="evenodd" clip-rule="evenodd" d="M116.79 120.359C116.932 120.333 117.069 120.427 117.095 120.57L119.52 133.885L133.041 131.423C133.183 131.397 133.32 131.491 133.346 131.634C133.372 131.776 133.277 131.913 133.135 131.939L119.098 134.495L116.579 120.664C116.553 120.521 116.647 120.385 116.79 120.359Z" fill="#FED77F"/>
<path d="M122.254 129.281C122.321 129.652 122.076 130.007 121.705 130.074C121.334 130.142 120.979 129.896 120.912 129.526C120.844 129.155 121.09 128.8 121.461 128.733C121.831 128.665 122.186 128.911 122.254 129.281Z" fill="#FED77F"/>
<path d="M124.035 125.011C124.103 125.382 123.857 125.737 123.487 125.804C123.116 125.872 122.761 125.626 122.694 125.256C122.626 124.885 122.872 124.53 123.242 124.463C123.613 124.395 123.968 124.641 124.035 125.011Z" fill="#FED77F"/>
<path d="M128.69 124.804C128.757 125.174 128.512 125.529 128.141 125.597C127.771 125.664 127.416 125.418 127.348 125.048C127.281 124.677 127.526 124.322 127.897 124.255C128.267 124.187 128.622 124.433 128.69 124.804Z" fill="#FED77F"/>
<path d="M131.063 120.852C131.13 121.223 130.885 121.578 130.514 121.645C130.144 121.713 129.789 121.467 129.721 121.097C129.654 120.726 129.899 120.371 130.27 120.304C130.64 120.236 130.995 120.482 131.063 120.852Z" fill="#FED77F"/>
</g>
<g opacity="0.6">
<path fill-rule="evenodd" clip-rule="evenodd" d="M44.3595 159.877C44.502 159.851 44.6386 159.946 44.6645 160.088L47.0892 173.403L60.6105 170.941C60.753 170.915 60.8896 171.009 60.9155 171.152C60.9415 171.294 60.847 171.431 60.7045 171.457L46.6671 174.013L44.1484 160.182C44.1225 160.04 44.217 159.903 44.3595 159.877Z" fill="#FED77F"/>
<path d="M58.6324 160.37C58.6999 160.741 58.4542 161.096 58.0837 161.163C57.7132 161.231 57.3581 160.985 57.2906 160.615C57.2231 160.244 57.4688 159.889 57.8394 159.822C58.2099 159.754 58.565 160 58.6324 160.37Z" fill="#FED77F"/>
</g>
<g opacity="0.6">
<path fill-rule="evenodd" clip-rule="evenodd" d="M88.6118 154.845C88.6858 154.891 88.7091 154.987 88.6636 155.062L86.1519 159.156L81.4961 159.26L79.7628 163.487C79.7299 163.567 79.6379 163.606 79.5575 163.573C79.4771 163.54 79.4387 163.448 79.4716 163.367L81.2831 158.95L85.9734 158.846L88.3953 154.897C88.4408 154.823 88.5377 154.8 88.6118 154.845Z" fill="#FED77F"/>
<path fill-rule="evenodd" clip-rule="evenodd" d="M74.8151 154.331C74.9576 154.305 75.0942 154.399 75.1202 154.542L77.5448 167.857L91.0661 165.395C91.2087 165.369 91.3452 165.463 91.3712 165.606C91.3971 165.748 91.3026 165.885 91.1601 165.911L77.1227 168.467L74.6041 154.636C74.5781 154.493 74.6726 154.357 74.8151 154.331Z" fill="#FED77F"/>
<path d="M82.0606 158.983C82.1281 159.354 81.8824 159.709 81.5119 159.776C81.1413 159.844 80.7863 159.598 80.7188 159.228C80.6513 158.857 80.897 158.502 81.2675 158.435C81.638 158.367 81.9931 158.613 82.0606 158.983Z" fill="#FED77F"/>
<path d="M86.7149 158.776C86.7824 159.146 86.5367 159.501 86.1661 159.569C85.7956 159.636 85.4405 159.39 85.3731 159.02C85.3056 158.649 85.5513 158.294 85.9218 158.227C86.2923 158.159 86.6474 158.405 86.7149 158.776Z" fill="#FED77F"/>
<path d="M89.0879 154.824C89.1554 155.195 88.9097 155.55 88.5392 155.617C88.1686 155.685 87.8136 155.439 87.7461 155.069C87.6786 154.698 87.9243 154.343 88.2948 154.276C88.6654 154.208 89.0204 154.454 89.0879 154.824Z" fill="#FED77F"/>
</g>
<g opacity="0.6">
<path fill-rule="evenodd" clip-rule="evenodd" d="M119.067 149.299C119.141 149.345 119.165 149.441 119.119 149.516L116.607 153.61L111.952 153.714L110.218 157.941C110.185 158.021 110.093 158.06 110.013 158.027C109.933 157.994 109.894 157.902 109.927 157.821L111.739 153.404L116.429 153.299L118.851 149.351C118.896 149.277 118.993 149.254 119.067 149.299Z" fill="#FED77F"/>
<path fill-rule="evenodd" clip-rule="evenodd" d="M105.271 148.785C105.413 148.759 105.55 148.853 105.576 148.996L108 162.311L121.522 159.849C121.664 159.823 121.801 159.917 121.827 160.06C121.853 160.202 121.758 160.339 121.616 160.365L107.578 162.921L105.059 149.09C105.034 148.947 105.128 148.811 105.271 148.785Z" fill="#FED77F"/>
<path d="M110.734 157.707C110.802 158.078 110.556 158.433 110.186 158.5C109.815 158.568 109.46 158.322 109.393 157.952C109.325 157.581 109.571 157.226 109.941 157.159C110.312 157.091 110.667 157.337 110.734 157.707Z" fill="#FED77F"/>
<path d="M112.516 153.437C112.584 153.808 112.338 154.163 111.967 154.23C111.597 154.298 111.242 154.052 111.174 153.682C111.107 153.311 111.352 152.956 111.723 152.889C112.094 152.821 112.449 153.067 112.516 153.437Z" fill="#FED77F"/>
<path d="M117.17 153.23C117.238 153.6 116.992 153.955 116.622 154.023C116.251 154.09 115.896 153.844 115.829 153.474C115.761 153.103 116.007 152.748 116.377 152.681C116.748 152.613 117.103 152.859 117.17 153.23Z" fill="#FED77F"/>
<path d="M119.543 149.278C119.611 149.649 119.365 150.004 118.995 150.071C118.624 150.139 118.269 149.893 118.202 149.523C118.134 149.152 118.38 148.797 118.75 148.73C119.121 148.662 119.476 148.908 119.543 149.278Z" fill="#FED77F"/>
</g>
<g opacity="0.6">
<path fill-rule="evenodd" clip-rule="evenodd" d="M153.354 64.0709C153.428 64.1163 153.451 64.2132 153.406 64.2873L150.894 68.382L146.238 68.4862L144.505 72.7126C144.472 72.793 144.38 72.8314 144.299 72.7984C144.219 72.7655 144.181 72.6735 144.214 72.5931L146.025 68.1761L150.715 68.0712L153.137 64.1227C153.183 64.0486 153.28 64.0254 153.354 64.0709Z" fill="#FED77F"/>
<path fill-rule="evenodd" clip-rule="evenodd" d="M139.557 63.5566C139.699 63.5306 139.836 63.6251 139.862 63.7676L142.287 77.0825L155.808 74.6203C155.95 74.5943 156.087 74.6888 156.113 74.8313C156.139 74.9738 156.044 75.1104 155.902 75.1363L141.865 77.6926L139.346 63.8616C139.32 63.7191 139.414 63.5825 139.557 63.5566Z" fill="#FED77F"/>
<path d="M145.021 72.4791C145.088 72.8496 144.843 73.2047 144.472 73.2722C144.101 73.3396 143.746 73.094 143.679 72.7234C143.611 72.3529 143.857 71.9978 144.228 71.9303C144.598 71.8629 144.953 72.1085 145.021 72.4791Z" fill="#FED77F"/>
<path d="M146.803 68.209C146.87 68.5795 146.624 68.9346 146.254 69.002C145.883 69.0695 145.528 68.8238 145.461 68.4533C145.393 68.0828 145.639 67.7277 146.009 67.6602C146.38 67.5928 146.735 67.8384 146.803 68.209Z" fill="#FED77F"/>
<path d="M151.457 68.0012C151.524 68.3717 151.279 68.7268 150.908 68.7943C150.538 68.8618 150.182 68.6161 150.115 68.2456C150.047 67.875 150.293 67.5199 150.664 67.4525C151.034 67.385 151.389 67.6307 151.457 68.0012Z" fill="#FED77F"/>
<path d="M153.83 64.05C153.897 64.4205 153.652 64.7756 153.281 64.8431C152.911 64.9106 152.555 64.6649 152.488 64.2943C152.421 63.9238 152.666 63.5687 153.037 63.5013C153.407 63.4338 153.762 63.6795 153.83 64.05Z" fill="#FED77F"/>
</g>
<g opacity="0.6">
<path fill-rule="evenodd" clip-rule="evenodd" d="M141.834 92.4968C141.908 92.5422 141.932 92.6391 141.886 92.7132L139.374 96.808L134.719 96.9121L132.985 101.138C132.952 101.219 132.86 101.257 132.78 101.224C132.7 101.191 132.661 101.099 132.694 101.019L134.506 96.602L139.196 96.4971L141.618 92.5487C141.663 92.4746 141.76 92.4514 141.834 92.4968Z" fill="#FED77F"/>
<path fill-rule="evenodd" clip-rule="evenodd" d="M128.037 91.9825C128.18 91.9566 128.316 92.0511 128.342 92.1936L130.767 105.508L144.288 103.046C144.431 103.02 144.568 103.115 144.593 103.257C144.619 103.4 144.525 103.536 144.382 103.562L130.345 106.119L127.826 92.2876C127.8 92.145 127.895 92.0085 128.037 91.9825Z" fill="#FED77F"/>
<path d="M133.501 100.905C133.569 101.276 133.323 101.631 132.952 101.698C132.582 101.766 132.227 101.52 132.159 101.149C132.092 100.779 132.338 100.424 132.708 100.356C133.079 100.289 133.434 100.534 133.501 100.905Z" fill="#FED77F"/>
<path d="M135.283 96.6349C135.35 97.0054 135.105 97.3605 134.734 97.428C134.364 97.4955 134.009 97.2498 133.941 96.8792C133.874 96.5087 134.119 96.1536 134.49 96.0862C134.86 96.0187 135.215 96.2644 135.283 96.6349Z" fill="#FED77F"/>
<path d="M139.937 96.4271C140.005 96.7977 139.759 97.1527 139.389 97.2202C139.018 97.2877 138.663 97.042 138.595 96.6715C138.528 96.301 138.774 95.9459 139.144 95.8784C139.515 95.8109 139.87 96.0566 139.937 96.4271Z" fill="#FED77F"/>
<path d="M142.31 92.4759C142.378 92.8465 142.132 93.2015 141.762 93.269C141.391 93.3365 141.036 93.0908 140.969 92.7203C140.901 92.3498 141.147 91.9947 141.517 91.9272C141.888 91.8597 142.243 92.1054 142.31 92.4759Z" fill="#FED77F"/>
</g>
<g opacity="0.6">
<path fill-rule="evenodd" clip-rule="evenodd" d="M9.05485 63.5445C9.12893 63.59 9.15215 63.6869 9.10671 63.761L6.59503 67.8557L1.93917 67.9598L0.205919 72.1862C0.172941 72.2666 0.0810192 72.3051 0.00060529 72.2721C-0.0798085 72.2391 -0.118263 72.1472 -0.0852852 72.0668L1.72615 67.6498L6.41645 67.5449L8.83842 63.5964C8.88386 63.5223 8.98076 63.4991 9.05485 63.5445Z" fill="#FED77F"/>
<path fill-rule="evenodd" clip-rule="evenodd" d="M-4.74196 63.0303C-4.59945 63.0043 -4.46288 63.0988 -4.43693 63.2413L-2.01226 76.5562L11.5091 74.094C11.6516 74.068 11.7881 74.1625 11.8141 74.305C11.84 74.4475 11.7456 74.5841 11.603 74.61L-2.43436 77.1663L-4.95301 63.3353C-4.97896 63.1928 -4.88447 63.0562 -4.74196 63.0303Z" fill="#FED77F"/>
<path d="M0.721804 71.9527C0.789279 72.3233 0.543603 72.6783 0.173072 72.7458C-0.197458 72.8133 -0.552532 72.5676 -0.620006 72.1971C-0.687481 71.8266 -0.441805 71.4715 -0.0712747 71.404C0.299256 71.3365 0.654329 71.5822 0.721804 71.9527Z" fill="#FED77F"/>
<path d="M2.50355 67.6827C2.57103 68.0532 2.32535 68.4083 1.95482 68.4757C1.58429 68.5432 1.22922 68.2975 1.16174 67.927C1.09427 67.5565 1.33994 67.2014 1.71047 67.1339C2.081 67.0665 2.43608 67.3121 2.50355 67.6827Z" fill="#FED77F"/>
<path d="M7.15784 67.4749C7.22531 67.8455 6.97964 68.2005 6.60911 68.268C6.23857 68.3355 5.8835 68.0898 5.81603 67.7193C5.74855 67.3487 5.99423 66.9937 6.36476 66.9262C6.73529 66.8587 7.09036 67.1044 7.15784 67.4749Z" fill="#FED77F"/>
<path d="M9.53086 63.5237C9.59834 63.8943 9.35266 64.2493 8.98213 64.3168C8.6116 64.3843 8.25653 64.1386 8.18905 63.7681C8.12158 63.3975 8.36725 63.0425 8.73778 62.975C9.10832 62.9075 9.46339 63.1532 9.53086 63.5237Z" fill="#FED77F"/>
</g>
<g opacity="0.6">
<path fill-rule="evenodd" clip-rule="evenodd" d="M39.5102 57.9985C39.5843 58.044 39.6075 58.1409 39.5621 58.215L37.0504 62.3097L32.3945 62.4138L30.6613 66.6402C30.6283 66.7206 30.5364 66.7591 30.456 66.7261C30.3755 66.6931 30.3371 66.6012 30.3701 66.5208L32.1815 62.1038L36.8718 61.9989L39.2938 58.0504C39.3392 57.9763 39.4361 57.9531 39.5102 57.9985Z" fill="#FED77F"/>
<path fill-rule="evenodd" clip-rule="evenodd" d="M25.7136 57.4843C25.8561 57.4583 25.9926 57.5528 26.0186 57.6953L28.4433 71.0102L41.9646 68.5479C42.1071 68.522 42.2437 68.6165 42.2696 68.759C42.2956 68.9015 42.2011 69.0381 42.0586 69.064L28.0212 71.6203L25.5025 57.7893C25.4766 57.6468 25.571 57.5102 25.7136 57.4843Z" fill="#FED77F"/>
<path d="M31.1773 66.4068C31.2447 66.7773 30.9991 67.1324 30.6285 67.1998C30.258 67.2673 29.9029 67.0216 29.8355 66.6511C29.768 66.2806 30.0137 65.9255 30.3842 65.858C30.7547 65.7905 31.1098 66.0362 31.1773 66.4068Z" fill="#FED77F"/>
<path d="M32.959 62.1366C33.0265 62.5072 32.7808 62.8622 32.4103 62.9297C32.0398 62.9972 31.6847 62.7515 31.6172 62.381C31.5497 62.0105 31.7954 61.6554 32.1659 61.5879C32.5365 61.5204 32.8915 61.7661 32.959 62.1366Z" fill="#FED77F"/>
<path d="M37.6133 61.9289C37.6808 62.2994 37.4351 62.6545 37.0646 62.722C36.694 62.7895 36.339 62.5438 36.2715 62.1733C36.204 61.8027 36.4497 61.4477 36.8202 61.3802C37.1908 61.3127 37.5458 61.5584 37.6133 61.9289Z" fill="#FED77F"/>
<path d="M39.9863 57.9777C40.0538 58.3482 39.8081 58.7033 39.4376 58.7708C39.0671 58.8383 38.712 58.5926 38.6445 58.2221C38.577 57.8515 38.8227 57.4964 39.1933 57.429C39.5638 57.3615 39.9189 57.6072 39.9863 57.9777Z" fill="#FED77F"/>
</g>
<g opacity="0.6">
<path fill-rule="evenodd" clip-rule="evenodd" d="M69.9659 52.4525C70.04 52.4979 70.0632 52.5948 70.0178 52.6689L67.5061 56.7636L62.8502 56.8678L61.117 61.0941C61.084 61.1746 60.9921 61.213 60.9117 61.18C60.8312 61.1471 60.7928 61.0551 60.8258 60.9747L62.6372 56.5577L67.3275 56.4528L69.7495 52.5043C69.7949 52.4302 69.8918 52.407 69.9659 52.4525Z" fill="#FED77F"/>
<path fill-rule="evenodd" clip-rule="evenodd" d="M56.1692 51.9382C56.3117 51.9123 56.4483 52.0067 56.4742 52.1493L58.8989 65.4641L72.4202 63.0019C72.5627 62.9759 72.6993 63.0704 72.7253 63.2129C72.7512 63.3554 72.6567 63.492 72.5142 63.518L58.4768 66.0742L55.9581 52.2432C55.9322 52.1007 56.0267 51.9642 56.1692 51.9382Z" fill="#FED77F"/>
<path d="M61.633 60.8607C61.7005 61.2312 61.4548 61.5863 61.0843 61.6537C60.7137 61.7212 60.3586 61.4755 60.2912 61.105C60.2237 60.7345 60.4694 60.3794 60.8399 60.3119C61.2104 60.2445 61.5655 60.4901 61.633 60.8607Z" fill="#FED77F"/>
<path d="M63.4147 56.5906C63.4822 56.9611 63.2365 57.3162 62.866 57.3837C62.4955 57.4511 62.1404 57.2055 62.0729 56.8349C62.0054 56.4644 62.2511 56.1093 62.6216 56.0419C62.9922 55.9744 63.3473 56.2201 63.4147 56.5906Z" fill="#FED77F"/>
<path d="M68.069 56.3828C68.1365 56.7534 67.8908 57.1084 67.5203 57.1759C67.1498 57.2434 66.7947 56.9977 66.7272 56.6272C66.6597 56.2566 66.9054 55.9016 67.2759 55.8341C67.6465 55.7666 68.0015 56.0123 68.069 56.3828Z" fill="#FED77F"/>
<path d="M70.442 52.4316C70.5095 52.8022 70.2638 53.1572 69.8933 53.2247C69.5228 53.2922 69.1677 53.0465 69.1002 52.676C69.0328 52.3054 69.2784 51.9504 69.649 51.8829C70.0195 51.8154 70.3746 52.0611 70.442 52.4316Z" fill="#FED77F"/>
</g>
<g opacity="0.6">
<path fill-rule="evenodd" clip-rule="evenodd" d="M100.421 46.9065C100.495 46.9519 100.519 47.0488 100.473 47.1229L97.9614 51.2177L93.3056 51.3218L91.5723 55.5482C91.5393 55.6286 91.4474 55.6671 91.367 55.6341C91.2866 55.6011 91.2481 55.5092 91.2811 55.4288L93.0926 51.0117L97.7829 50.9068L100.205 46.9584C100.25 46.8843 100.347 46.8611 100.421 46.9065Z" fill="#FED77F"/>
<path fill-rule="evenodd" clip-rule="evenodd" d="M86.6245 46.3922C86.767 46.3663 86.9036 46.4608 86.9295 46.6033L89.3542 59.9182L102.875 57.4559C103.018 57.43 103.155 57.5245 103.181 57.667C103.206 57.8095 103.112 57.946 102.969 57.972L88.9321 60.5282L86.4134 46.6973C86.3875 46.5548 86.482 46.4182 86.6245 46.3922Z" fill="#FED77F"/>
<path d="M92.0882 55.3147C92.1557 55.6853 91.91 56.0403 91.5395 56.1078C91.169 56.1753 90.8139 55.9296 90.7464 55.5591C90.6789 55.1886 90.9246 54.8335 91.2951 54.766C91.6657 54.6985 92.0207 54.9442 92.0882 55.3147Z" fill="#FED77F"/>
<path d="M93.87 51.0446C93.9374 51.4151 93.6918 51.7702 93.3212 51.8377C92.9507 51.9052 92.5956 51.6595 92.5281 51.2889C92.4607 50.9184 92.7063 50.5633 93.0769 50.4959C93.4474 50.4284 93.8025 50.6741 93.87 51.0446Z" fill="#FED77F"/>
<path d="M98.5244 50.8369C98.5918 51.2074 98.3462 51.5625 97.9756 51.6299C97.6051 51.6974 97.25 51.4517 97.1826 51.0812C97.1151 50.7107 97.3608 50.3556 97.7313 50.2881C98.1018 50.2207 98.4569 50.4663 98.5244 50.8369Z" fill="#FED77F"/>
<path d="M100.897 46.8857C100.965 47.2562 100.719 47.6113 100.349 47.6787C99.9781 47.7462 99.6231 47.5005 99.5556 47.13C99.4881 46.7595 99.7338 46.4044 100.104 46.3369C100.475 46.2695 100.83 46.5151 100.897 46.8857Z" fill="#FED77F"/>
</g>
<g opacity="0.6">
<path fill-rule="evenodd" clip-rule="evenodd" d="M132.469 41.0705C132.543 41.1159 132.567 41.2128 132.521 41.2869L130.009 45.3817L125.354 45.4858L123.62 49.7122C123.587 49.7926 123.495 49.8311 123.415 49.7981C123.335 49.7651 123.296 49.6732 123.329 49.5928L125.141 45.1757L129.831 45.0708L132.253 41.1224C132.298 41.0483 132.395 41.0251 132.469 41.0705Z" fill="#FED77F"/>
<path fill-rule="evenodd" clip-rule="evenodd" d="M118.673 40.5563C118.815 40.5303 118.952 40.6248 118.978 40.7673L121.402 54.0822L134.924 51.6199C135.066 51.594 135.203 51.6885 135.229 51.831C135.255 51.9735 135.16 52.11 135.018 52.136L120.98 54.6922L118.462 40.8613C118.436 40.7188 118.53 40.5822 118.673 40.5563Z" fill="#FED77F"/>
<path d="M124.136 49.4787C124.204 49.8492 123.958 50.2043 123.588 50.2718C123.217 50.3393 122.862 50.0936 122.794 49.7231C122.727 49.3525 122.973 48.9975 123.343 48.93C123.714 48.8625 124.069 49.1082 124.136 49.4787Z" fill="#FED77F"/>
<path d="M125.918 45.2086C125.986 45.5791 125.74 45.9342 125.369 46.0017C124.999 46.0692 124.644 45.8235 124.576 45.4529C124.509 45.0824 124.754 44.7273 125.125 44.6599C125.495 44.5924 125.851 44.8381 125.918 45.2086Z" fill="#FED77F"/>
<path d="M130.572 45.0009C130.64 45.3714 130.394 45.7265 130.024 45.7939C129.653 45.8614 129.298 45.6157 129.231 45.2452C129.163 44.8747 129.409 44.5196 129.779 44.4521C130.15 44.3847 130.505 44.6303 130.572 45.0009Z" fill="#FED77F"/>
<path d="M132.945 41.0497C133.013 41.4202 132.767 41.7753 132.397 41.8427C132.026 41.9102 131.671 41.6645 131.604 41.294C131.536 40.9235 131.782 40.5684 132.152 40.5009C132.523 40.4335 132.878 40.6791 132.945 41.0497Z" fill="#FED77F"/>
</g>
<g opacity="0.6">
<path fill-rule="evenodd" clip-rule="evenodd" d="M162.635 115.037C162.709 115.083 162.732 115.18 162.687 115.254L160.175 119.348L155.519 119.453L153.786 123.679C153.753 123.759 153.661 123.798 153.58 123.765C153.5 123.732 153.462 123.64 153.495 123.559L155.306 119.142L159.996 119.038L162.418 115.089C162.464 115.015 162.561 114.992 162.635 115.037Z" fill="#FED77F"/>
<path fill-rule="evenodd" clip-rule="evenodd" d="M148.838 114.523C148.981 114.497 149.117 114.591 149.143 114.734L151.568 128.049L165.089 125.587C165.232 125.561 165.368 125.655 165.394 125.798C165.42 125.94 165.326 126.077 165.183 126.103L151.146 128.659L148.627 114.828C148.601 114.685 148.696 114.549 148.838 114.523Z" fill="#FED77F"/>
<path d="M154.302 123.445C154.369 123.816 154.124 124.171 153.753 124.238C153.383 124.306 153.027 124.06 152.96 123.69C152.893 123.319 153.138 122.964 153.509 122.897C153.879 122.829 154.234 123.075 154.302 123.445Z" fill="#FED77F"/>
<path d="M156.084 119.175C156.151 119.546 155.905 119.901 155.535 119.968C155.164 120.036 154.809 119.79 154.742 119.42C154.674 119.049 154.92 118.694 155.29 118.627C155.661 118.559 156.016 118.805 156.084 119.175Z" fill="#FED77F"/>
<path d="M160.738 118.968C160.805 119.338 160.56 119.693 160.189 119.761C159.819 119.828 159.464 119.582 159.396 119.212C159.329 118.841 159.574 118.486 159.945 118.419C160.315 118.351 160.67 118.597 160.738 118.968Z" fill="#FED77F"/>
</g>
<g opacity="0.6">
<path fill-rule="evenodd" clip-rule="evenodd" d="M151.115 143.463C151.189 143.509 151.213 143.605 151.167 143.68L148.656 147.774L144 147.878L142.266 152.105C142.233 152.185 142.141 152.224 142.061 152.191C141.981 152.158 141.942 152.066 141.975 151.985L143.787 147.568L148.477 147.463L150.899 143.515C150.944 143.441 151.041 143.418 151.115 143.463Z" fill="#FED77F"/>
<path fill-rule="evenodd" clip-rule="evenodd" d="M137.318 142.949C137.461 142.923 137.598 143.017 137.624 143.16L140.048 156.475L153.57 154.013C153.712 153.987 153.849 154.081 153.875 154.224C153.901 154.366 153.806 154.503 153.663 154.529L139.626 157.085L137.107 143.254C137.081 143.111 137.176 142.975 137.318 142.949Z" fill="#FED77F"/>
<path d="M142.782 151.871C142.85 152.242 142.604 152.597 142.234 152.664C141.863 152.732 141.508 152.486 141.44 152.116C141.373 151.745 141.619 151.39 141.989 151.323C142.36 151.255 142.715 151.501 142.782 151.871Z" fill="#FED77F"/>
<path d="M144.564 147.601C144.632 147.972 144.386 148.327 144.015 148.394C143.645 148.462 143.29 148.216 143.222 147.846C143.155 147.475 143.4 147.12 143.771 147.053C144.141 146.985 144.497 147.231 144.564 147.601Z" fill="#FED77F"/>
<path d="M149.218 147.394C149.286 147.764 149.04 148.119 148.67 148.187C148.299 148.254 147.944 148.008 147.877 147.638C147.809 147.267 148.055 146.912 148.425 146.845C148.796 146.777 149.151 147.023 149.218 147.394Z" fill="#FED77F"/>
<path d="M151.591 143.442C151.659 143.813 151.413 144.168 151.043 144.235C150.672 144.303 150.317 144.057 150.25 143.687C150.182 143.316 150.428 142.961 150.798 142.894C151.169 142.826 151.524 143.072 151.591 143.442Z" fill="#FED77F"/>
</g>
<path fill-rule="evenodd" clip-rule="evenodd" d="M160 40.8702L66 60L74.5 46.5L0 57.1428L0 8C0 3.58172 3.58172 0 8 0H152C156.418 0 160 3.58172 160 8V40.8702Z" fill="#4DAA9C"/>
<path d="M19.125 23.5859H23.6562V29.5078C23.0573 29.7057 22.4349 29.8646 21.7891 29.9844C21.1432 30.099 20.4115 30.1562 19.5938 30.1562C18.4583 30.1562 17.4948 29.9323 16.7031 29.4844C15.9115 29.0365 15.3099 28.375 14.8984 27.5C14.487 26.625 14.2812 25.5495 14.2812 24.2734C14.2812 23.0755 14.5104 22.0391 14.9688 21.1641C15.4323 20.2891 16.1068 19.612 16.9922 19.1328C17.8828 18.6536 18.9688 18.4141 20.25 18.4141C20.8542 18.4141 21.4505 18.4792 22.0391 18.6094C22.6276 18.7396 23.1615 18.9089 23.6406 19.1172L22.8359 21.0547C22.487 20.8776 22.0885 20.7292 21.6406 20.6094C21.1927 20.4896 20.724 20.4297 20.2344 20.4297C19.5312 20.4297 18.9193 20.5911 18.3984 20.9141C17.8828 21.237 17.4818 21.6901 17.1953 22.2734C16.9141 22.8516 16.7734 23.5339 16.7734 24.3203C16.7734 25.0651 16.875 25.7266 17.0781 26.3047C17.2812 26.8776 17.6016 27.3281 18.0391 27.6562C18.4766 27.9792 19.0469 28.1406 19.75 28.1406C20.0938 28.1406 20.3828 28.125 20.6172 28.0938C20.8568 28.0573 21.0807 28.0208 21.2891 27.9844V25.6016H19.125V23.5859ZM28.5781 21.2656V30H26.1953V21.2656H28.5781ZM27.3906 17.8438C27.7448 17.8438 28.0495 17.9271 28.3047 18.0938C28.5599 18.2552 28.6875 18.5599 28.6875 19.0078C28.6875 19.4505 28.5599 19.7578 28.3047 19.9297C28.0495 20.0964 27.7448 20.1797 27.3906 20.1797C27.0312 20.1797 26.724 20.0964 26.4688 19.9297C26.2188 19.7578 26.0938 19.4505 26.0938 19.0078C26.0938 18.5599 26.2188 18.2552 26.4688 18.0938C26.724 17.9271 27.0312 17.8438 27.3906 17.8438ZM35.9609 21.1016C36.0807 21.1016 36.2188 21.1094 36.375 21.125C36.5365 21.1354 36.6667 21.151 36.7656 21.1719L36.5859 23.4062C36.5078 23.3802 36.3958 23.362 36.25 23.3516C36.1094 23.3359 35.987 23.3281 35.8828 23.3281C35.5755 23.3281 35.276 23.3672 34.9844 23.4453C34.6979 23.5234 34.4401 23.651 34.2109 23.8281C33.9818 24 33.7995 24.2292 33.6641 24.5156C33.5339 24.7969 33.4688 25.1432 33.4688 25.5547V30H31.0859V21.2656H32.8906L33.2422 22.7344H33.3594C33.5312 22.4375 33.7448 22.1667 34 21.9219C34.2604 21.6719 34.5547 21.474 34.8828 21.3281C35.2161 21.1771 35.5755 21.1016 35.9609 21.1016ZM41.9297 21.0859C43.1016 21.0859 44 21.3411 44.625 21.8516C45.25 22.362 45.5625 23.138 45.5625 24.1797V30H43.8984L43.4375 28.8125H43.375C43.125 29.125 42.8698 29.3802 42.6094 29.5781C42.349 29.776 42.0495 29.9219 41.7109 30.0156C41.3724 30.1094 40.9609 30.1562 40.4766 30.1562C39.9609 30.1562 39.4974 30.0573 39.0859 29.8594C38.6797 29.6615 38.3594 29.3594 38.125 28.9531C37.8906 28.5417 37.7734 28.0208 37.7734 27.3906C37.7734 26.4635 38.099 25.7812 38.75 25.3438C39.401 24.901 40.3776 24.6562 41.6797 24.6094L43.1953 24.5625V24.1797C43.1953 23.7214 43.0755 23.3854 42.8359 23.1719C42.5964 22.9583 42.263 22.8516 41.8359 22.8516C41.4141 22.8516 41 22.9115 40.5938 23.0312C40.1875 23.151 39.7812 23.3021 39.375 23.4844L38.5859 21.875C39.0495 21.6302 39.5677 21.4375 40.1406 21.2969C40.7188 21.1562 41.3151 21.0859 41.9297 21.0859ZM43.1953 25.9531L42.2734 25.9844C41.5026 26.0052 40.9661 26.1432 40.6641 26.3984C40.3672 26.6536 40.2188 26.9896 40.2188 27.4062C40.2188 27.7708 40.3255 28.0312 40.5391 28.1875C40.7526 28.3385 41.0312 28.4141 41.375 28.4141C41.8854 28.4141 42.3151 28.263 42.6641 27.9609C43.0182 27.6589 43.1953 27.2292 43.1953 26.6719V25.9531ZM52.8828 21.1016C53.8672 21.1016 54.6615 21.4844 55.2656 22.25C55.875 23.0156 56.1797 24.138 56.1797 25.6172C56.1797 26.6068 56.0365 27.4401 55.75 28.1172C55.4635 28.7891 55.0677 29.2969 54.5625 29.6406C54.0573 29.9844 53.4766 30.1562 52.8203 30.1562C52.3984 30.1562 52.0365 30.1042 51.7344 30C51.4323 29.8906 51.1745 29.7526 50.9609 29.5859C50.7474 29.4141 50.5625 29.2318 50.4062 29.0391H50.2812C50.3229 29.2474 50.3542 29.4609 50.375 29.6797C50.3958 29.8984 50.4062 30.112 50.4062 30.3203V33.8438H48.0234V21.2656H49.9609L50.2969 22.3984H50.4062C50.5625 22.1641 50.7526 21.9479 50.9766 21.75C51.2005 21.5521 51.4688 21.3958 51.7812 21.2812C52.099 21.1615 52.4661 21.1016 52.8828 21.1016ZM52.1172 23.0078C51.7005 23.0078 51.3698 23.0938 51.125 23.2656C50.8802 23.4375 50.7005 23.6953 50.5859 24.0391C50.4766 24.3828 50.4167 24.8177 50.4062 25.3438V25.6016C50.4062 26.1641 50.4583 26.6406 50.5625 27.0312C50.6719 27.4219 50.8516 27.7188 51.1016 27.9219C51.3568 28.125 51.7057 28.2266 52.1484 28.2266C52.513 28.2266 52.8125 28.125 53.0469 27.9219C53.2812 27.7188 53.4557 27.4219 53.5703 27.0312C53.6901 26.6354 53.75 26.1536 53.75 25.5859C53.75 24.7318 53.6172 24.0885 53.3516 23.6562C53.0859 23.224 52.6745 23.0078 52.1172 23.0078ZM60.5312 17.8438V20.3203C60.5312 20.7526 60.5156 21.1641 60.4844 21.5547C60.4583 21.9453 60.4375 22.2214 60.4219 22.3828H60.5469C60.7344 22.0807 60.9557 21.8359 61.2109 21.6484C61.4714 21.4609 61.7578 21.3229 62.0703 21.2344C62.3828 21.1458 62.7188 21.1016 63.0781 21.1016C63.7083 21.1016 64.2578 21.2135 64.7266 21.4375C65.1953 21.6562 65.5599 22.0026 65.8203 22.4766C66.0807 22.9453 66.2109 23.5547 66.2109 24.3047V30H63.8281V24.8984C63.8281 24.2734 63.7135 23.8021 63.4844 23.4844C63.2552 23.1667 62.901 23.0078 62.4219 23.0078C61.9427 23.0078 61.5651 23.1198 61.2891 23.3438C61.013 23.5625 60.8177 23.888 60.7031 24.3203C60.5885 24.7474 60.5312 25.2708 60.5312 25.8906V30H58.1484V17.8438H60.5312ZM72.2656 21.1016C73.0729 21.1016 73.7682 21.2578 74.3516 21.5703C74.9349 21.8776 75.3854 22.3255 75.7031 22.9141C76.0208 23.5026 76.1797 24.2214 76.1797 25.0703V26.2266H70.5469C70.5729 26.8984 70.7734 27.4271 71.1484 27.8125C71.5286 28.1927 72.0547 28.3828 72.7266 28.3828C73.2839 28.3828 73.7943 28.3255 74.2578 28.2109C74.7214 28.0964 75.1979 27.9245 75.6875 27.6953V29.5391C75.2552 29.7526 74.8021 29.9089 74.3281 30.0078C73.8594 30.1068 73.2891 30.1562 72.6172 30.1562C71.7422 30.1562 70.9661 29.9948 70.2891 29.6719C69.6172 29.349 69.0885 28.8568 68.7031 28.1953C68.3229 27.5339 68.1328 26.7005 68.1328 25.6953C68.1328 24.6745 68.3047 23.8255 68.6484 23.1484C68.9974 22.4661 69.4818 21.9557 70.1016 21.6172C70.7214 21.2734 71.4427 21.1016 72.2656 21.1016ZM72.2812 22.7969C71.8177 22.7969 71.4323 22.9453 71.125 23.2422C70.8229 23.5391 70.6484 24.0052 70.6016 24.6406H73.9453C73.9401 24.2865 73.875 23.9714 73.75 23.6953C73.6302 23.4193 73.4479 23.2005 73.2031 23.0391C72.9635 22.8776 72.6562 22.7969 72.2812 22.7969ZM89.4531 30L88.7812 26.9453C88.7448 26.763 88.6849 26.4948 88.6016 26.1406C88.5182 25.7812 88.4271 25.3984 88.3281 24.9922C88.2344 24.5807 88.1458 24.2005 88.0625 23.8516C87.9844 23.5026 87.9271 23.2474 87.8906 23.0859H87.8203C87.7839 23.2474 87.7266 23.5026 87.6484 23.8516C87.5703 24.2005 87.4818 24.5807 87.3828 24.9922C87.2891 25.4036 87.2005 25.7917 87.1172 26.1562C87.0339 26.5156 86.9714 26.7891 86.9297 26.9766L86.2266 30H83.6641L81.1797 21.2656H83.5547L84.5625 25.1328C84.6302 25.4036 84.6953 25.7266 84.7578 26.1016C84.8203 26.4714 84.875 26.8307 84.9219 27.1797C84.974 27.5234 85.013 27.7969 85.0391 28H85.1016C85.112 27.849 85.1328 27.6484 85.1641 27.3984C85.2005 27.1484 85.2396 26.8906 85.2812 26.625C85.3281 26.3542 85.3698 26.112 85.4062 25.8984C85.4479 25.6797 85.4792 25.5312 85.5 25.4531L86.5781 21.2656H89.2031L90.2266 25.4531C90.263 25.6042 90.3099 25.8438 90.3672 26.1719C90.4297 26.5 90.4844 26.8385 90.5312 27.1875C90.5781 27.5312 90.6042 27.8021 90.6094 28H90.6719C90.6927 27.8229 90.7292 27.5599 90.7812 27.2109C90.8333 26.862 90.8932 26.4974 90.9609 26.1172C91.0339 25.7318 91.1068 25.4036 91.1797 25.1328L92.2266 21.2656H94.5625L92.0469 30H89.4531ZM99.5781 21.1016C100.385 21.1016 101.081 21.2578 101.664 21.5703C102.247 21.8776 102.698 22.3255 103.016 22.9141C103.333 23.5026 103.492 24.2214 103.492 25.0703V26.2266H97.8594C97.8854 26.8984 98.0859 27.4271 98.4609 27.8125C98.8411 28.1927 99.3672 28.3828 100.039 28.3828C100.596 28.3828 101.107 28.3255 101.57 28.2109C102.034 28.0964 102.51 27.9245 103 27.6953V29.5391C102.568 29.7526 102.115 29.9089 101.641 30.0078C101.172 30.1068 100.602 30.1562 99.9297 30.1562C99.0547 30.1562 98.2786 29.9948 97.6016 29.6719C96.9297 29.349 96.401 28.8568 96.0156 28.1953C95.6354 27.5339 95.4453 26.7005 95.4453 25.6953C95.4453 24.6745 95.6172 23.8255 95.9609 23.1484C96.3099 22.4661 96.7943 21.9557 97.4141 21.6172C98.0339 21.2734 98.7552 21.1016 99.5781 21.1016ZM99.5938 22.7969C99.1302 22.7969 98.7448 22.9453 98.4375 23.2422C98.1354 23.5391 97.9609 24.0052 97.9141 24.6406H101.258C101.253 24.2865 101.188 23.9714 101.062 23.6953C100.943 23.4193 100.76 23.2005 100.516 23.0391C100.276 22.8776 99.9688 22.7969 99.5938 22.7969ZM107.812 17.8438V20.6719C107.812 21 107.802 21.3255 107.781 21.6484C107.766 21.9714 107.745 22.2214 107.719 22.3984H107.812C108.042 22.0391 108.354 21.7344 108.75 21.4844C109.146 21.2292 109.659 21.1016 110.289 21.1016C111.268 21.1016 112.062 21.4844 112.672 22.25C113.281 23.0156 113.586 24.138 113.586 25.6172C113.586 26.612 113.445 27.4479 113.164 28.125C112.883 28.7969 112.49 29.3047 111.984 29.6484C111.479 29.987 110.893 30.1562 110.227 30.1562C109.586 30.1562 109.081 30.0417 108.711 29.8125C108.341 29.5833 108.042 29.3255 107.812 29.0391H107.648L107.25 30H105.43V17.8438H107.812ZM109.523 23.0078C109.107 23.0078 108.776 23.0938 108.531 23.2656C108.286 23.4375 108.107 23.6953 107.992 24.0391C107.883 24.3828 107.823 24.8177 107.812 25.3438V25.6016C107.812 26.4505 107.938 27.1016 108.188 27.5547C108.438 28.0026 108.893 28.2266 109.555 28.2266C110.044 28.2266 110.432 28 110.719 27.5469C111.01 27.0938 111.156 26.4401 111.156 25.5859C111.156 24.7318 111.01 24.0885 110.719 23.6562C110.427 23.224 110.029 23.0078 109.523 23.0078ZM117.938 21.2656V30H115.555V21.2656H117.938ZM116.75 17.8438C117.104 17.8438 117.409 17.9271 117.664 18.0938C117.919 18.2552 118.047 18.5599 118.047 19.0078C118.047 19.4505 117.919 19.7578 117.664 19.9297C117.409 20.0964 117.104 20.1797 116.75 20.1797C116.391 20.1797 116.083 20.0964 115.828 19.9297C115.578 19.7578 115.453 19.4505 115.453 19.0078C115.453 18.5599 115.578 18.2552 115.828 18.0938C116.083 17.9271 116.391 17.8438 116.75 17.8438ZM125.406 21.1016C126.339 21.1016 127.089 21.3568 127.656 21.8672C128.224 22.3724 128.508 23.1849 128.508 24.3047V30H126.125V24.8984C126.125 24.2734 126.01 23.8021 125.781 23.4844C125.557 23.1667 125.203 23.0078 124.719 23.0078C123.99 23.0078 123.492 23.2552 123.227 23.75C122.961 24.2448 122.828 24.9583 122.828 25.8906V30H120.445V21.2656H122.266L122.586 22.3828H122.719C122.906 22.0807 123.138 21.8359 123.414 21.6484C123.695 21.4609 124.005 21.3229 124.344 21.2344C124.688 21.1458 125.042 21.1016 125.406 21.1016ZM134.539 21.0859C135.711 21.0859 136.609 21.3411 137.234 21.8516C137.859 22.362 138.172 23.138 138.172 24.1797V30H136.508L136.047 28.8125H135.984C135.734 29.125 135.479 29.3802 135.219 29.5781C134.958 29.776 134.659 29.9219 134.32 30.0156C133.982 30.1094 133.57 30.1562 133.086 30.1562C132.57 30.1562 132.107 30.0573 131.695 29.8594C131.289 29.6615 130.969 29.3594 130.734 28.9531C130.5 28.5417 130.383 28.0208 130.383 27.3906C130.383 26.4635 130.708 25.7812 131.359 25.3438C132.01 24.901 132.987 24.6562 134.289 24.6094L135.805 24.5625V24.1797C135.805 23.7214 135.685 23.3854 135.445 23.1719C135.206 22.9583 134.872 22.8516 134.445 22.8516C134.023 22.8516 133.609 22.9115 133.203 23.0312C132.797 23.151 132.391 23.3021 131.984 23.4844L131.195 21.875C131.659 21.6302 132.177 21.4375 132.75 21.2969C133.328 21.1562 133.924 21.0859 134.539 21.0859ZM135.805 25.9531L134.883 25.9844C134.112 26.0052 133.576 26.1432 133.273 26.3984C132.977 26.6536 132.828 26.9896 132.828 27.4062C132.828 27.7708 132.935 28.0312 133.148 28.1875C133.362 28.3385 133.641 28.4141 133.984 28.4141C134.495 28.4141 134.924 28.263 135.273 27.9609C135.628 27.6589 135.805 27.2292 135.805 26.6719V25.9531ZM145.508 21.1016C145.628 21.1016 145.766 21.1094 145.922 21.125C146.083 21.1354 146.214 21.151 146.312 21.1719L146.133 23.4062C146.055 23.3802 145.943 23.362 145.797 23.3516C145.656 23.3359 145.534 23.3281 145.43 23.3281C145.122 23.3281 144.823 23.3672 144.531 23.4453C144.245 23.5234 143.987 23.651 143.758 23.8281C143.529 24 143.346 24.2292 143.211 24.5156C143.081 24.7969 143.016 25.1432 143.016 25.5547V30H140.633V21.2656H142.438L142.789 22.7344H142.906C143.078 22.4375 143.292 22.1667 143.547 21.9219C143.807 21.6719 144.102 21.474 144.43 21.3281C144.763 21.1771 145.122 21.1016 145.508 21.1016Z" fill="white"/>
<path d="M83.3715 172.964L67.1432 163.813C67.0435 163.757 66.9878 163.646 67.0023 163.533L74.1999 107.246C74.2178 107.105 74.3378 107 74.4799 107H88.4972C88.6356 107 88.7535 107.1 88.7758 107.236L97.9963 163.538C98.0144 163.649 97.9651 163.759 97.8709 163.82L83.6637 172.955C83.5754 173.012 83.4629 173.015 83.3715 172.964Z" fill="#FEC955"/>
<path fill-rule="evenodd" clip-rule="evenodd" d="M72.0753 106.851C72.2074 105.793 73.0896 105 74.1347 105H87.8814C88.899 105 89.7666 105.753 89.9304 106.777L89.9304 106.777L98.9729 163.36C99.1057 164.191 98.7434 165.024 98.0501 165.481L84.1173 174.661C83.4683 175.089 82.6403 175.113 81.9681 174.725L82.8428 173.149L81.9681 174.725L66.0531 165.529C65.3198 165.105 64.9102 164.271 65.0167 163.418L66.8004 163.65L65.0167 163.418L72.0753 106.851L73.8601 107.083M75.4756 108.672L68.7154 162.848L82.9393 171.066L95.261 162.948L86.5872 108.672H75.4756ZM82.1665 171.576C82.1661 171.576 82.1656 171.576 82.1651 171.577L82.1652 171.577L82.1665 171.576Z" fill="#333333"/>
<path d="M70.8143 58.3108L74.694 57.2433L77.8362 68.6632L73.9566 69.7307L70.8143 58.3108Z" fill="#333333"/>
<path fill-rule="evenodd" clip-rule="evenodd" d="M74.4966 57.5906L71.1617 58.5082L74.154 69.3834L77.4889 68.4658L74.4966 57.5906ZM70.8143 58.3108L73.9566 69.7307L77.8362 68.6632L74.694 57.2433L70.8143 58.3108Z" fill="#333333"/>
<path d="M90.9317 58.2644L87.045 57.223L83.935 68.8294L87.8218 69.8708L90.9317 58.2644Z" fill="#333333"/>
<path fill-rule="evenodd" clip-rule="evenodd" d="M87.2447 57.569L90.5857 58.4642L87.622 69.5248L84.281 68.6296L87.2447 57.569ZM90.9317 58.2644L87.8218 69.8708L83.935 68.8294L87.045 57.223L90.9317 58.2644Z" fill="#333333"/>
<path d="M72.8173 48.1881L76.2203 51.4346L75.0682 55.8524L70.5133 57.0237L67.1103 53.7771L68.2624 49.3594L72.8173 48.1881Z" fill="#FEC955"/>
<path fill-rule="evenodd" clip-rule="evenodd" d="M73.6327 45.0614L79.3734 50.5383L77.3822 58.1742L69.6979 60.1502L63.9571 54.6733L65.9484 47.0374L73.6327 45.0614ZM68.2623 49.3593L72.8173 48.188L76.2203 51.4345L75.0682 55.8523L70.5133 57.0236L67.1103 53.7771L68.2623 49.3593Z" fill="#333333"/>
<path d="M89.415 48.1716L93.8249 49.3532L95.0066 53.7632L91.7783 56.9915L87.3683 55.8098L86.1866 51.3999L89.415 48.1716Z" fill="#FEC955"/>
<path fill-rule="evenodd" clip-rule="evenodd" d="M88.5707 45.0207L96.1315 47.0466L98.1575 54.6075L92.6225 60.1424L85.0617 58.1164L83.0358 50.5556L88.5707 45.0207ZM87.3683 55.8098L91.7783 56.9915L95.0066 53.7632L93.8249 49.3532L89.415 48.1716L86.1866 51.3999L87.3683 55.8098Z" fill="#333333"/>
<path d="M72.1232 68.401L66.238 75.0941C66.1469 75.1977 65.9943 75.2204 65.877 75.1476L60.5119 71.8196C60.4798 71.7996 60.444 71.7863 60.4066 71.7805L52.692 70.5758C52.4359 70.5358 52.2656 70.8329 52.4296 71.0336L64.8764 86.2722C64.8984 86.2992 64.9153 86.3301 64.9261 86.3632L67.3755 93.8636C67.3839 93.8895 67.3961 93.9141 67.4117 93.9366L72.1405 100.774C72.1834 100.836 72.1997 100.913 72.1858 100.987L70.098 112.124C70.0823 112.207 70.105 112.293 70.1596 112.358L76.0321 119.326C76.0525 119.35 76.0769 119.371 76.1042 119.387L80.1644 121.788C80.2274 121.825 80.3024 121.837 80.3736 121.82L84.2306 120.903C84.2915 120.888 84.3459 120.854 84.3852 120.805L91.2033 112.349C91.2511 112.289 91.273 112.213 91.2638 112.137L89.916 100.994C89.9066 100.916 89.9302 100.837 89.9812 100.777L95.7796 93.9526C95.8075 93.9198 95.8275 93.881 95.8381 93.8392L97.7363 86.366C97.7452 86.331 97.7606 86.2981 97.7819 86.269L108.907 71.0142C109.056 70.8106 108.884 70.5293 108.635 70.5687L100.98 71.7794C100.938 71.7859 100.899 71.8016 100.864 71.8253L96.032 75.13C95.9127 75.2117 95.7509 75.19 95.6573 75.0798L89.9858 68.4046C89.9321 68.3414 89.8534 68.305 89.7705 68.305H72.3353C72.2541 68.305 72.1768 68.34 72.1232 68.401Z" fill="#FEC955"/>
<path fill-rule="evenodd" clip-rule="evenodd" d="M73.0378 70.1407L67.6166 76.3063C66.9333 77.0833 65.7886 77.253 64.9094 76.7075L59.8121 73.5456L56.4186 73.0157L66.2981 85.1111C66.4634 85.3136 66.5899 85.5449 66.6711 85.7935L69.0502 93.0787L73.6503 99.7304C73.9719 100.195 74.0942 100.77 73.99 101.325L72.0379 111.738L77.2657 117.941L80.5591 119.889L83.2894 119.24L89.3628 111.707L88.0937 101.214C88.0228 100.628 88.1998 100.039 88.5823 99.5887L94.1477 93.0385L95.9572 85.9142C96.0236 85.6525 96.1396 85.4057 96.2988 85.1875L105.21 72.9689L101.612 73.5379L97.0683 76.6452C96.1733 77.2574 94.9605 77.0947 94.2584 76.2684L89.0521 70.1407H73.0378ZM89.4415 112.358L89.4412 112.356L89.4415 112.358ZM70.7447 67.1889C71.1468 66.7316 71.7263 66.4695 72.3353 66.4695H89.7705C90.3921 66.4695 90.9822 66.7424 91.3847 67.2161L96.1504 72.8253L99.8279 70.3102C100.087 70.1329 100.383 70.0154 100.693 69.9664L100.98 71.7795L100.98 71.7813M100.98 71.7795L100.693 69.9664L108.348 68.7556C110.214 68.4606 111.503 70.5699 110.39 72.0958L99.4416 87.1085L97.6173 94.2912C97.5378 94.6041 97.3877 94.895 97.1785 95.1412L91.82 101.448L93.0862 111.917C93.1548 112.485 92.9911 113.056 92.6323 113.501L85.8142 121.957C85.5196 122.323 85.112 122.58 84.6553 122.689L80.7983 123.606C80.2645 123.733 79.7023 123.648 79.23 123.368L75.1698 120.967C74.9649 120.846 74.7819 120.691 74.6285 120.509L68.7561 113.541C68.3463 113.055 68.1766 112.411 68.2938 111.786L70.2623 101.286L65.9019 94.9807C65.7855 94.8124 65.6941 94.6281 65.6305 94.4335L63.2713 87.2089L51.0079 72.1949C49.7787 70.6899 51.0553 68.4624 52.9752 68.7622L60.6898 69.9669C60.97 70.0107 61.2386 70.1102 61.4796 70.2597L65.7276 72.8949L70.7447 67.1889" fill="#333333"/>
<path d="M90.4364 131.175L92.1313 142.193L93.9676 153.351L84.3092 148.417L82.2467 138.17L90.4364 131.175Z" fill="#FC7E24"/>
<path d="M73.1795 150.613L78.4251 156.189L76.9751 161.544L73.1795 159.425L69.2063 157.306L69.7713 152.504L73.1795 150.613Z" fill="#FC7E24"/>
<path d="M88.6225 89.1722L95.1851 89.1722L94.1963 93.179L92.7018 94.7979L88.6225 99.4729L85.4705 95.4159L88.6225 89.1722Z" fill="#FC7E24"/>
<path d="M73.585 123.124L77.4298 123.892L79.0635 130.36L74.2796 135.008L72.1725 134.283L72.455 132.305L73.585 123.124Z" fill="#FC7E24"/>
<path d="M73.7404 102.773L76.0391 103.33L76.79 107.166L73.7236 109.757L72.475 109.274L72.7188 108.123L73.7404 102.773Z" fill="#FC7E24"/>
<path d="M81.556 70.0345L82.35 73.8742L77.0345 77.9039L70.8869 75.3153L70.8869 72.5565L73.0088 70.0344L81.556 70.0345Z" fill="#FC7E24"/>
<path d="M73.0299 82.0887L73.9339 82.43C74.3744 82.5963 74.7281 82.9947 74.8949 83.5125C75.332 84.8694 74.3384 86.2661 73.1563 85.9565L72.2304 85.7139C71.6612 85.5648 71.2083 85.0467 71.0561 84.3703C70.7339 82.939 71.8537 81.6447 73.0299 82.0887Z" fill="#353535"/>
<path fill-rule="evenodd" clip-rule="evenodd" d="M70.0899 84.0163C69.5735 82.195 71.3685 80.5479 73.2539 81.1129L74.277 81.4196C74.989 81.6329 75.5605 82.144 75.8301 82.8084L75.1444 83.0621L75.8301 82.8084C76.5366 84.5494 74.9308 86.3414 73.0202 85.9441L71.9724 85.7262C71.0598 85.5365 70.3339 84.8771 70.0899 84.0163ZM72.8134 82.453C72.0365 82.2201 71.2969 82.8988 71.5097 83.6493C71.6102 84.004 71.9093 84.2757 72.2854 84.3539L73.3332 84.5718C74.0984 84.7309 74.7416 84.0132 74.4586 83.3159C74.3506 83.0498 74.1217 82.8451 73.8366 82.7596L72.8134 82.453Z" fill="#353535"/>
<path d="M89.0299 84.9335L89.9339 84.6775C90.3744 84.5528 90.7281 84.254 90.8949 83.8656C91.332 82.848 90.3384 81.8004 89.1563 82.0327L88.2304 82.2145C87.6612 82.3264 87.2083 82.715 87.0561 83.2223C86.7339 84.2957 87.8537 85.2665 89.0299 84.9335Z" fill="#353535"/>
<path fill-rule="evenodd" clip-rule="evenodd" d="M86.0899 82.9837C85.5735 84.805 87.3685 86.4521 89.2539 85.8871L90.277 85.5804C90.989 85.3671 91.5605 84.856 91.8301 84.1916C92.5366 82.4506 90.9308 80.6586 89.0202 81.0559L87.9724 81.2738C87.0598 81.4635 86.3339 82.1229 86.0899 82.9837ZM88.8134 84.547C88.0365 84.7799 87.2969 84.1012 87.5097 83.3507C87.6102 82.996 87.9093 82.7243 88.2853 82.6461L89.3332 82.4282C90.0984 82.2691 90.7416 82.9868 90.4586 83.6841C90.3506 83.9502 90.1217 84.1549 89.8366 84.2404L88.8134 84.547Z" fill="#353535"/>
<path d="M126.338 57C120.629 57 116 61.5805 116 67.2308C116 72.8811 120.629 77.4615 126.338 77.4615H127.28L123.255 85L134.364 77.4615H142.662C148.371 77.4615 153 72.8811 153 67.2308C153 61.5805 148.371 57 142.662 57H126.338Z" fill="#458CBA"/>
<path d="M128 67.5C128 66.9471 128.146 66.5588 128.437 66.3353C128.734 66.1118 129.09 66 129.507 66C129.913 66 130.261 66.1118 130.552 66.3353C130.849 66.5588 130.997 66.9471 130.997 67.5C130.997 68.0294 130.849 68.4118 130.552 68.6471C130.261 68.8824 129.913 69 129.507 69C129.09 69 128.734 68.8824 128.437 68.6471C128.146 68.4118 128 68.0294 128 67.5Z" fill="white"/>
<path d="M133.001 67.5C133.001 66.9471 133.147 66.5588 133.438 66.3353C133.735 66.1118 134.092 66 134.509 66C134.914 66 135.262 66.1118 135.553 66.3353C135.85 66.5588 135.999 66.9471 135.999 67.5C135.999 68.0294 135.85 68.4118 135.553 68.6471C135.262 68.8824 134.914 69 134.509 69C134.092 69 133.735 68.8824 133.438 68.6471C133.147 68.4118 133.001 68.0294 133.001 67.5Z" fill="white"/>
<path d="M138.003 67.5C138.003 66.9471 138.148 66.5588 138.439 66.3353C138.736 66.1118 139.093 66 139.51 66C139.915 66 140.264 66.1118 140.555 66.3353C140.852 66.5588 141 66.9471 141 67.5C141 68.0294 140.852 68.4118 140.555 68.6471C140.264 68.8824 139.915 69 139.51 69C139.093 69 138.736 68.8824 138.439 68.6471C138.148 68.4118 138.003 68.0294 138.003 67.5Z" fill="white"/>
<path d="M36.6618 91C42.3714 91 47 95.5805 47 101.231C47 106.881 42.3714 111.462 36.6618 111.462H35.7201L39.7451 119L28.636 111.462H20.3382C14.6286 111.462 10 106.881 10 101.231C10 95.5805 14.6286 91 20.3382 91H36.6618Z" fill="#74A9CB"/>
<path d="M35 101.5C35 100.947 34.8544 100.559 34.5632 100.335C34.2664 100.112 33.9095 100 33.4928 100C33.0874 100 32.7391 100.112 32.448 100.335C32.1511 100.559 32.0026 100.947 32.0026 101.5C32.0026 102.029 32.1511 102.412 32.448 102.647C32.7391 102.882 33.0874 103 33.4928 103C33.9095 103 34.2664 102.882 34.5632 102.647C34.8544 102.412 35 102.029 35 101.5Z" fill="white"/>
<path d="M29.9987 101.5C29.9987 100.947 29.8531 100.559 29.5619 100.335C29.265 100.112 28.9082 100 28.4914 100C28.0861 100 27.7378 100.112 27.4466 100.335C27.1498 100.559 27.0013 100.947 27.0013 101.5C27.0013 102.029 27.1498 102.412 27.4466 102.647C27.7378 102.882 28.0861 103 28.4914 103C28.9082 103 29.265 102.882 29.5619 102.647C29.8531 102.412 29.9987 102.029 29.9987 101.5Z" fill="white"/>
<path d="M24.9974 101.5C24.9974 100.947 24.8518 100.559 24.5606 100.335C24.2637 100.112 23.9069 100 23.4901 100C23.0848 100 22.7365 100.112 22.4453 100.335C22.1484 100.559 22 100.947 22 101.5C22 102.029 22.1484 102.412 22.4453 102.647C22.7365 102.882 23.0848 103 23.4901 103C23.9069 103 24.2637 102.882 24.5606 102.647C24.8518 102.412 24.9974 102.029 24.9974 101.5Z" fill="white"/>
<rect opacity="0.5" x="-4" y="133" width="169" height="41" fill="#333333"/>
<circle cx="81.5" cy="146.5" r="9.5" fill="white"/>
<circle cx="54" cy="147" r="8" fill="white"/>
<circle cx="109" cy="147" r="8" fill="white"/>
<path d="M77.125 151C76.8156 151 76.5508 150.89 76.3305 150.67C76.1102 150.449 76 150.184 76 149.875V143.125C76 142.816 76.1102 142.551 76.3305 142.33C76.5508 142.11 76.8156 142 77.125 142H83.875C84.1844 142 84.4492 142.11 84.6695 142.33C84.8898 142.551 85 142.816 85 143.125V145.656L87.25 143.406V149.594L85 147.344V149.875C85 150.184 84.8898 150.449 84.6695 150.67C84.4492 150.89 84.1844 151 83.875 151H77.125ZM77.125 149.875H83.875V143.125H77.125V149.875Z" fill="#333333"/>
<path d="M51 148.688V145.312H53.25L56.0625 142.5V151.5L53.25 148.688H51ZM52.125 147.562H53.7281L54.9375 148.772V145.228L53.7281 146.438H52.125V147.562Z" fill="#333333"/>
<path d="M105 151.5V144.75C105 144.544 105.073 144.367 105.22 144.22C105.367 144.073 105.544 144 105.75 144H111.75C111.956 144 112.133 144.073 112.28 144.22C112.427 144.367 112.5 144.544 112.5 144.75V149.25C112.5 149.456 112.427 149.633 112.28 149.78C112.133 149.927 111.956 150 111.75 150H106.5L105 151.5Z" fill="#333333"/>
</g>
<defs>
<clipPath id="clip0_8126_1458">
<rect width="160" height="160" rx="8" fill="white"/>
</clipPath>
</defs>
</svg>
