<svg width="900" height="350" viewBox="0 0 900 350" fill="none" xmlns="http://www.w3.org/2000/svg">
<g clip-path="url(#clip0_8767_1142)">
<rect width="900" height="350" fill="#FDF8D3"/>
<g opacity="0.6">
<path fill-rule="evenodd" clip-rule="evenodd" d="M549.311 20.7303C549.467 20.8419 549.48 21.0334 549.34 21.158L541.632 28.0445L530.568 26.6364L524.645 34.0406C524.532 34.1815 524.298 34.2226 524.122 34.1325C523.946 34.0423 523.894 33.855 524.007 33.7141L530.198 25.976L541.343 27.3945L548.776 20.7539C548.916 20.6293 549.155 20.6187 549.311 20.7303Z" fill="#FED77F"/>
<path fill-rule="evenodd" clip-rule="evenodd" d="M516.881 15C517.229 15 517.512 15.226 517.512 15.5047V41.5495H550.573C550.921 41.5495 551.204 41.7755 551.204 42.0543C551.204 42.3331 550.921 42.559 550.573 42.559H516.25V15.5047C516.25 15.226 516.532 15 516.881 15Z" fill="#FED77F"/>
<path d="M525.966 33.7764C525.966 34.5012 525.232 35.0888 524.326 35.0888C523.42 35.0888 522.686 34.5012 522.686 33.7764C522.686 33.0517 523.42 32.4641 524.326 32.4641C525.232 32.4641 525.966 33.0517 525.966 33.7764Z" fill="#FED77F"/>
<path d="M532.023 26.3062C532.023 27.031 531.289 27.6186 530.383 27.6186C529.477 27.6186 528.742 27.031 528.742 26.3062C528.742 25.5814 529.477 24.9939 530.383 24.9939C531.289 24.9939 532.023 25.5814 532.023 26.3062Z" fill="#FED77F"/>
<path d="M543.128 27.5177C543.128 28.2424 542.393 28.83 541.487 28.83C540.581 28.83 539.847 28.2424 539.847 27.5177C539.847 26.7929 540.581 26.2053 541.487 26.2053C542.393 26.2053 543.128 26.7929 543.128 27.5177Z" fill="#FED77F"/>
<path d="M550.446 20.8551C550.446 21.5798 549.712 22.1674 548.806 22.1674C547.9 22.1674 547.166 21.5798 547.166 20.8551C547.166 20.1303 547.9 19.5427 548.806 19.5427C549.712 19.5427 550.446 20.1303 550.446 20.8551Z" fill="#FED77F"/>
</g>
<g opacity="0.6">
<path fill-rule="evenodd" clip-rule="evenodd" d="M665.56 20.7303C665.716 20.8419 665.729 21.0334 665.59 21.158L657.881 28.0445L646.818 26.6364L640.894 34.0406C640.782 34.1815 640.547 34.2226 640.371 34.1325C640.195 34.0423 640.144 33.855 640.257 33.7141L646.447 25.976L657.592 27.3945L665.026 20.7539C665.165 20.6293 665.405 20.6187 665.56 20.7303Z" fill="#FED77F"/>
<path fill-rule="evenodd" clip-rule="evenodd" d="M633.131 15C633.479 15 633.762 15.226 633.762 15.5047V41.5495H666.823C667.171 41.5495 667.454 41.7755 667.454 42.0543C667.454 42.3331 667.171 42.559 666.823 42.559H632.5V15.5047C632.5 15.226 632.782 15 633.131 15Z" fill="#FED77F"/>
<path d="M642.216 33.7766C642.216 34.5014 641.482 35.0889 640.576 35.0889C639.67 35.0889 638.936 34.5014 638.936 33.7766C638.936 33.0518 639.67 32.4642 640.576 32.4642C641.482 32.4642 642.216 33.0518 642.216 33.7766Z" fill="#FED77F"/>
<path d="M648.273 26.3062C648.273 27.031 647.539 27.6186 646.633 27.6186C645.727 27.6186 644.992 27.031 644.992 26.3062C644.992 25.5814 645.727 24.9939 646.633 24.9939C647.539 24.9939 648.273 25.5814 648.273 26.3062Z" fill="#FED77F"/>
<path d="M659.378 27.5175C659.378 28.2423 658.643 28.8299 657.737 28.8299C656.831 28.8299 656.097 28.2423 656.097 27.5175C656.097 26.7928 656.831 26.2052 657.737 26.2052C658.643 26.2052 659.378 26.7928 659.378 27.5175Z" fill="#FED77F"/>
<path d="M666.696 20.8551C666.696 21.5798 665.961 22.1674 665.055 22.1674C664.149 22.1674 663.415 21.5798 663.415 20.8551C663.415 20.1303 664.149 19.5427 665.055 19.5427C665.961 19.5427 666.696 20.1303 666.696 20.8551Z" fill="#FED77F"/>
</g>
<g opacity="0.6">
<path fill-rule="evenodd" clip-rule="evenodd" d="M781.81 20.7303C781.966 20.8419 781.979 21.0334 781.84 21.158L774.131 28.0445L763.068 26.6364L757.144 34.0406C757.032 34.1815 756.797 34.2226 756.621 34.1325C756.445 34.0423 756.394 33.855 756.507 33.7141L762.697 25.976L773.842 27.3945L781.276 20.7539C781.415 20.6293 781.655 20.6187 781.81 20.7303Z" fill="#FED77F"/>
<path fill-rule="evenodd" clip-rule="evenodd" d="M749.381 15C749.729 15 750.012 15.226 750.012 15.5047V41.5495H783.073C783.421 41.5495 783.704 41.7755 783.704 42.0543C783.704 42.3331 783.421 42.559 783.073 42.559H748.75V15.5047C748.75 15.226 749.032 15 749.381 15Z" fill="#FED77F"/>
<path d="M758.466 33.7764C758.466 34.5012 757.732 35.0888 756.826 35.0888C755.92 35.0888 755.186 34.5012 755.186 33.7764C755.186 33.0517 755.92 32.4641 756.826 32.4641C757.732 32.4641 758.466 33.0517 758.466 33.7764Z" fill="#FED77F"/>
<path d="M764.523 26.3064C764.523 27.0311 763.789 27.6187 762.883 27.6187C761.977 27.6187 761.242 27.0311 761.242 26.3064C761.242 25.5816 761.977 24.994 762.883 24.994C763.789 24.994 764.523 25.5816 764.523 26.3064Z" fill="#FED77F"/>
<path d="M775.628 27.5177C775.628 28.2424 774.893 28.83 773.987 28.83C773.081 28.83 772.347 28.2424 772.347 27.5177C772.347 26.7929 773.081 26.2053 773.987 26.2053C774.893 26.2053 775.628 26.7929 775.628 27.5177Z" fill="#FED77F"/>
<path d="M782.946 20.8552C782.946 21.58 782.212 22.1675 781.306 22.1675C780.4 22.1675 779.666 21.58 779.666 20.8552C779.666 20.1304 780.4 19.5428 781.306 19.5428C782.212 19.5428 782.946 20.1304 782.946 20.8552Z" fill="#FED77F"/>
</g>
<g opacity="0.6">
<path fill-rule="evenodd" clip-rule="evenodd" d="M898.061 20.7303C898.217 20.8419 898.23 21.0334 898.09 21.158L890.382 28.0445L879.318 26.6364L873.395 34.0406C873.282 34.1815 873.048 34.2226 872.872 34.1325C872.696 34.0423 872.644 33.855 872.757 33.7141L878.948 25.976L890.093 27.3945L897.526 20.7539C897.666 20.6293 897.905 20.6187 898.061 20.7303Z" fill="#FED77F"/>
<path fill-rule="evenodd" clip-rule="evenodd" d="M865.631 15C865.979 15 866.262 15.226 866.262 15.5047V41.5495H899.323C899.671 41.5495 899.954 41.7755 899.954 42.0543C899.954 42.3331 899.671 42.559 899.323 42.559H865V15.5047C865 15.226 865.282 15 865.631 15Z" fill="#FED77F"/>
<path d="M874.716 33.7764C874.716 34.5012 873.982 35.0888 873.076 35.0888C872.17 35.0888 871.436 34.5012 871.436 33.7764C871.436 33.0517 872.17 32.4641 873.076 32.4641C873.982 32.4641 874.716 33.0517 874.716 33.7764Z" fill="#FED77F"/>
<path d="M880.773 26.3064C880.773 27.0311 880.039 27.6187 879.133 27.6187C878.227 27.6187 877.492 27.0311 877.492 26.3064C877.492 25.5816 878.227 24.994 879.133 24.994C880.039 24.994 880.773 25.5816 880.773 26.3064Z" fill="#FED77F"/>
<path d="M891.878 27.5177C891.878 28.2424 891.144 28.83 890.238 28.83C889.332 28.83 888.597 28.2424 888.597 27.5177C888.597 26.7929 889.332 26.2053 890.238 26.2053C891.144 26.2053 891.878 26.7929 891.878 27.5177Z" fill="#FED77F"/>
<path d="M899.197 20.8551C899.197 21.5798 898.462 22.1674 897.556 22.1674C896.65 22.1674 895.916 21.5798 895.916 20.8551C895.916 20.1303 896.65 19.5427 897.556 19.5427C898.462 19.5427 899.197 20.1303 899.197 20.8551Z" fill="#FED77F"/>
</g>
<g opacity="0.6">
<path fill-rule="evenodd" clip-rule="evenodd" d="M84.3106 20.7303C84.4664 20.8419 84.4796 21.0334 84.3401 21.158L76.6313 28.0445L65.5678 26.6364L59.6445 34.0406C59.5318 34.1815 59.2977 34.2226 59.1216 34.1325C58.9455 34.0423 58.8941 33.855 59.0068 33.7141L65.1973 25.976L76.3426 27.3945L83.7761 20.7539C83.9156 20.6293 84.1549 20.6187 84.3106 20.7303Z" fill="#FED77F"/>
<path fill-rule="evenodd" clip-rule="evenodd" d="M51.8809 15C52.2294 15 52.5119 15.226 52.5119 15.5047V41.5495H85.5726C85.9211 41.5495 86.2036 41.7755 86.2036 42.0543C86.2036 42.3331 85.9211 42.559 85.5726 42.559H51.25V15.5047C51.25 15.226 51.5325 15 51.8809 15Z" fill="#FED77F"/>
<path d="M60.9661 33.7766C60.9661 34.5014 60.2317 35.0889 59.3257 35.0889C58.4197 35.0889 57.6853 34.5014 57.6853 33.7766C57.6853 33.0518 58.4197 32.4642 59.3257 32.4642C60.2317 32.4642 60.9661 33.0518 60.9661 33.7766Z" fill="#FED77F"/>
<path d="M67.0233 26.3062C67.0233 27.031 66.2888 27.6186 65.3829 27.6186C64.4769 27.6186 63.7424 27.031 63.7424 26.3062C63.7424 25.5814 64.4769 24.9939 65.3829 24.9939C66.2888 24.9939 67.0233 25.5814 67.0233 26.3062Z" fill="#FED77F"/>
<path d="M78.1275 27.5175C78.1275 28.2423 77.3931 28.8299 76.4871 28.8299C75.5811 28.8299 74.8467 28.2423 74.8467 27.5175C74.8467 26.7928 75.5811 26.2052 76.4871 26.2052C77.3931 26.2052 78.1275 26.7928 78.1275 27.5175Z" fill="#FED77F"/>
<path d="M85.4464 20.8551C85.4464 21.5798 84.7119 22.1674 83.8059 22.1674C82.9 22.1674 82.1655 21.5798 82.1655 20.8551C82.1655 20.1303 82.9 19.5427 83.8059 19.5427C84.7119 19.5427 85.4464 20.1303 85.4464 20.8551Z" fill="#FED77F"/>
</g>
<g opacity="0.6">
<path fill-rule="evenodd" clip-rule="evenodd" d="M200.56 20.7303C200.716 20.8419 200.729 21.0334 200.59 21.158L192.881 28.0445L181.818 26.6364L175.894 34.0406C175.782 34.1815 175.547 34.2226 175.371 34.1325C175.195 34.0423 175.144 33.855 175.257 33.7141L181.447 25.976L192.592 27.3945L200.026 20.7539C200.165 20.6293 200.405 20.6187 200.56 20.7303Z" fill="#FED77F"/>
<path fill-rule="evenodd" clip-rule="evenodd" d="M168.131 15C168.479 15 168.762 15.226 168.762 15.5047V41.5495H201.823C202.171 41.5495 202.454 41.7755 202.454 42.0543C202.454 42.3331 202.171 42.559 201.823 42.559H167.5V15.5047C167.5 15.226 167.782 15 168.131 15Z" fill="#FED77F"/>
<path d="M177.216 33.7764C177.216 34.5012 176.482 35.0888 175.576 35.0888C174.67 35.0888 173.936 34.5012 173.936 33.7764C173.936 33.0517 174.67 32.4641 175.576 32.4641C176.482 32.4641 177.216 33.0517 177.216 33.7764Z" fill="#FED77F"/>
<path d="M183.273 26.3064C183.273 27.0311 182.539 27.6187 181.633 27.6187C180.727 27.6187 179.992 27.0311 179.992 26.3064C179.992 25.5816 180.727 24.994 181.633 24.994C182.539 24.994 183.273 25.5816 183.273 26.3064Z" fill="#FED77F"/>
<path d="M194.378 27.5177C194.378 28.2424 193.643 28.83 192.737 28.83C191.831 28.83 191.097 28.2424 191.097 27.5177C191.097 26.7929 191.831 26.2053 192.737 26.2053C193.643 26.2053 194.378 26.7929 194.378 27.5177Z" fill="#FED77F"/>
<path d="M201.696 20.8552C201.696 21.58 200.962 22.1675 200.056 22.1675C199.15 22.1675 198.416 21.58 198.416 20.8552C198.416 20.1304 199.15 19.5428 200.056 19.5428C200.962 19.5428 201.696 20.1304 201.696 20.8552Z" fill="#FED77F"/>
</g>
<g opacity="0.6">
<path fill-rule="evenodd" clip-rule="evenodd" d="M316.811 20.7303C316.967 20.8419 316.98 21.0334 316.84 21.158L309.132 28.0445L298.068 26.6364L292.145 34.0406C292.032 34.1815 291.798 34.2226 291.622 34.1325C291.446 34.0423 291.394 33.855 291.507 33.7141L297.698 25.976L308.843 27.3945L316.276 20.7539C316.416 20.6293 316.655 20.6187 316.811 20.7303Z" fill="#FED77F"/>
<path fill-rule="evenodd" clip-rule="evenodd" d="M284.381 15C284.729 15 285.012 15.226 285.012 15.5047V41.5495H318.073C318.421 41.5495 318.704 41.7755 318.704 42.0543C318.704 42.3331 318.421 42.559 318.073 42.559H283.75V15.5047C283.75 15.226 284.032 15 284.381 15Z" fill="#FED77F"/>
<path d="M293.466 33.7764C293.466 34.5012 292.732 35.0888 291.826 35.0888C290.92 35.0888 290.186 34.5012 290.186 33.7764C290.186 33.0517 290.92 32.4641 291.826 32.4641C292.732 32.4641 293.466 33.0517 293.466 33.7764Z" fill="#FED77F"/>
<path d="M299.523 26.3064C299.523 27.0311 298.789 27.6187 297.883 27.6187C296.977 27.6187 296.242 27.0311 296.242 26.3064C296.242 25.5816 296.977 24.994 297.883 24.994C298.789 24.994 299.523 25.5816 299.523 26.3064Z" fill="#FED77F"/>
<path d="M310.628 27.5177C310.628 28.2424 309.894 28.83 308.988 28.83C308.082 28.83 307.347 28.2424 307.347 27.5177C307.347 26.7929 308.082 26.2053 308.988 26.2053C309.894 26.2053 310.628 26.7929 310.628 27.5177Z" fill="#FED77F"/>
<path d="M317.947 20.8551C317.947 21.5798 317.212 22.1674 316.306 22.1674C315.4 22.1674 314.666 21.5798 314.666 20.8551C314.666 20.1303 315.4 19.5427 316.306 19.5427C317.212 19.5427 317.947 20.1303 317.947 20.8551Z" fill="#FED77F"/>
</g>
<g opacity="0.6">
<path fill-rule="evenodd" clip-rule="evenodd" d="M433.06 20.7303C433.216 20.8419 433.229 21.0334 433.09 21.158L425.381 28.0445L414.318 26.6364L408.394 34.0406C408.282 34.1815 408.047 34.2226 407.871 34.1325C407.695 34.0423 407.644 33.855 407.757 33.7141L413.947 25.976L425.092 27.3945L432.526 20.7539C432.665 20.6293 432.905 20.6187 433.06 20.7303Z" fill="#FED77F"/>
<path fill-rule="evenodd" clip-rule="evenodd" d="M400.631 15C400.979 15 401.262 15.226 401.262 15.5047V41.5495H434.323C434.671 41.5495 434.954 41.7755 434.954 42.0543C434.954 42.3331 434.671 42.559 434.323 42.559H400V15.5047C400 15.226 400.282 15 400.631 15Z" fill="#FED77F"/>
<path d="M409.716 33.7766C409.716 34.5014 408.982 35.0889 408.076 35.0889C407.17 35.0889 406.436 34.5014 406.436 33.7766C406.436 33.0518 407.17 32.4642 408.076 32.4642C408.982 32.4642 409.716 33.0518 409.716 33.7766Z" fill="#FED77F"/>
<path d="M415.773 26.3064C415.773 27.0311 415.039 27.6187 414.133 27.6187C413.227 27.6187 412.492 27.0311 412.492 26.3064C412.492 25.5816 413.227 24.994 414.133 24.994C415.039 24.994 415.773 25.5816 415.773 26.3064Z" fill="#FED77F"/>
<path d="M426.878 27.5177C426.878 28.2424 426.143 28.83 425.237 28.83C424.331 28.83 423.597 28.2424 423.597 27.5177C423.597 26.7929 424.331 26.2053 425.237 26.2053C426.143 26.2053 426.878 26.7929 426.878 27.5177Z" fill="#FED77F"/>
<path d="M434.196 20.8552C434.196 21.58 433.462 22.1675 432.556 22.1675C431.65 22.1675 430.916 21.58 430.916 20.8552C430.916 20.1304 431.65 19.5428 432.556 19.5428C433.462 19.5428 434.196 20.1304 434.196 20.8552Z" fill="#FED77F"/>
</g>
<g opacity="0.6">
<path fill-rule="evenodd" clip-rule="evenodd" d="M621.811 81.7303C621.967 81.8419 621.98 82.0334 621.84 82.158L614.132 89.0445L603.068 87.6364L597.145 95.0406C597.032 95.1815 596.798 95.2226 596.622 95.1325C596.446 95.0423 596.394 94.855 596.507 94.7141L602.698 86.976L613.843 88.3945L621.276 81.7539C621.416 81.6293 621.655 81.6187 621.811 81.7303Z" fill="#FED77F"/>
<path fill-rule="evenodd" clip-rule="evenodd" d="M589.381 76C589.729 76 590.012 76.226 590.012 76.5047V102.55H623.073C623.421 102.55 623.704 102.776 623.704 103.054C623.704 103.333 623.421 103.559 623.073 103.559H588.75V76.5047C588.75 76.226 589.032 76 589.381 76Z" fill="#FED77F"/>
<path d="M598.466 94.7764C598.466 95.5012 597.732 96.0888 596.826 96.0888C595.92 96.0888 595.186 95.5012 595.186 94.7764C595.186 94.0517 595.92 93.4641 596.826 93.4641C597.732 93.4641 598.466 94.0517 598.466 94.7764Z" fill="#FED77F"/>
<path d="M604.523 87.3062C604.523 88.031 603.789 88.6186 602.883 88.6186C601.977 88.6186 601.242 88.031 601.242 87.3062C601.242 86.5814 601.977 85.9939 602.883 85.9939C603.789 85.9939 604.523 86.5814 604.523 87.3062Z" fill="#FED77F"/>
<path d="M615.628 88.5177C615.628 89.2424 614.893 89.83 613.987 89.83C613.081 89.83 612.347 89.2424 612.347 88.5177C612.347 87.7929 613.081 87.2053 613.987 87.2053C614.893 87.2053 615.628 87.7929 615.628 88.5177Z" fill="#FED77F"/>
<path d="M622.946 81.8551C622.946 82.5798 622.212 83.1674 621.306 83.1674C620.4 83.1674 619.666 82.5798 619.666 81.8551C619.666 81.1303 620.4 80.5427 621.306 80.5427C622.212 80.5427 622.946 81.1303 622.946 81.8551Z" fill="#FED77F"/>
</g>
<g opacity="0.6">
<path fill-rule="evenodd" clip-rule="evenodd" d="M738.06 81.7303C738.216 81.8419 738.229 82.0334 738.09 82.158L730.381 89.0445L719.318 87.6364L713.394 95.0406C713.282 95.1815 713.047 95.2226 712.871 95.1325C712.695 95.0423 712.644 94.855 712.757 94.7141L718.947 86.976L730.092 88.3945L737.526 81.7539C737.665 81.6293 737.905 81.6187 738.06 81.7303Z" fill="#FED77F"/>
<path fill-rule="evenodd" clip-rule="evenodd" d="M705.631 76C705.979 76 706.262 76.226 706.262 76.5047V102.55H739.323C739.671 102.55 739.954 102.776 739.954 103.054C739.954 103.333 739.671 103.559 739.323 103.559H705V76.5047C705 76.226 705.282 76 705.631 76Z" fill="#FED77F"/>
<path d="M714.716 94.7766C714.716 95.5014 713.982 96.0889 713.076 96.0889C712.17 96.0889 711.436 95.5014 711.436 94.7766C711.436 94.0518 712.17 93.4642 713.076 93.4642C713.982 93.4642 714.716 94.0518 714.716 94.7766Z" fill="#FED77F"/>
<path d="M720.773 87.3062C720.773 88.031 720.039 88.6186 719.133 88.6186C718.227 88.6186 717.492 88.031 717.492 87.3062C717.492 86.5814 718.227 85.9939 719.133 85.9939C720.039 85.9939 720.773 86.5814 720.773 87.3062Z" fill="#FED77F"/>
<path d="M731.878 88.5175C731.878 89.2423 731.143 89.8299 730.237 89.8299C729.331 89.8299 728.597 89.2423 728.597 88.5175C728.597 87.7928 729.331 87.2052 730.237 87.2052C731.143 87.2052 731.878 87.7928 731.878 88.5175Z" fill="#FED77F"/>
<path d="M739.196 81.8551C739.196 82.5798 738.461 83.1674 737.555 83.1674C736.649 83.1674 735.915 82.5798 735.915 81.8551C735.915 81.1303 736.649 80.5427 737.555 80.5427C738.461 80.5427 739.196 81.1303 739.196 81.8551Z" fill="#FED77F"/>
</g>
<g opacity="0.6">
<path fill-rule="evenodd" clip-rule="evenodd" d="M854.31 81.7303C854.466 81.8419 854.479 82.0334 854.34 82.158L846.631 89.0445L835.568 87.6364L829.644 95.0406C829.532 95.1815 829.297 95.2226 829.121 95.1325C828.945 95.0423 828.894 94.855 829.007 94.7141L835.197 86.976L846.342 88.3945L853.776 81.7539C853.915 81.6293 854.155 81.6187 854.31 81.7303Z" fill="#FED77F"/>
<path fill-rule="evenodd" clip-rule="evenodd" d="M821.881 76C822.229 76 822.512 76.226 822.512 76.5047V102.55H855.573C855.921 102.55 856.204 102.776 856.204 103.054C856.204 103.333 855.921 103.559 855.573 103.559H821.25V76.5047C821.25 76.226 821.532 76 821.881 76Z" fill="#FED77F"/>
<path d="M830.966 94.7764C830.966 95.5012 830.232 96.0888 829.326 96.0888C828.42 96.0888 827.686 95.5012 827.686 94.7764C827.686 94.0517 828.42 93.4641 829.326 93.4641C830.232 93.4641 830.966 94.0517 830.966 94.7764Z" fill="#FED77F"/>
<path d="M837.023 87.3064C837.023 88.0311 836.289 88.6187 835.383 88.6187C834.477 88.6187 833.742 88.0311 833.742 87.3064C833.742 86.5816 834.477 85.994 835.383 85.994C836.289 85.994 837.023 86.5816 837.023 87.3064Z" fill="#FED77F"/>
<path d="M848.128 88.5177C848.128 89.2424 847.393 89.83 846.487 89.83C845.581 89.83 844.847 89.2424 844.847 88.5177C844.847 87.7929 845.581 87.2053 846.487 87.2053C847.393 87.2053 848.128 87.7929 848.128 88.5177Z" fill="#FED77F"/>
<path d="M855.446 81.8552C855.446 82.58 854.712 83.1675 853.806 83.1675C852.9 83.1675 852.166 82.58 852.166 81.8552C852.166 81.1304 852.9 80.5428 853.806 80.5428C854.712 80.5428 855.446 81.1304 855.446 81.8552Z" fill="#FED77F"/>
</g>
<g opacity="0.6">
<path fill-rule="evenodd" clip-rule="evenodd" d="M40.5609 81.7303C40.7166 81.8419 40.7298 82.0334 40.5904 82.158L32.8815 89.0445L21.8181 87.6364L15.8947 95.0406C15.782 95.1815 15.5479 95.2226 15.3718 95.1325C15.1957 95.0423 15.1443 94.855 15.257 94.7141L21.4475 86.976L32.5928 88.3945L40.0263 81.7539C40.1658 81.6293 40.4051 81.6187 40.5609 81.7303Z" fill="#FED77F"/>
<path fill-rule="evenodd" clip-rule="evenodd" d="M8.13093 76C8.47938 76 8.76186 76.226 8.76186 76.5047V102.55H41.8226C42.1711 102.55 42.4536 102.776 42.4536 103.054C42.4536 103.333 42.1711 103.559 41.8226 103.559H7.5L7.5 76.5047C7.5 76.226 7.78248 76 8.13093 76Z" fill="#FED77F"/>
<path d="M17.2161 94.7764C17.2161 95.5012 16.4817 96.0888 15.5757 96.0888C14.6697 96.0888 13.9353 95.5012 13.9353 94.7764C13.9353 94.0517 14.6697 93.4641 15.5757 93.4641C16.4817 93.4641 17.2161 94.0517 17.2161 94.7764Z" fill="#FED77F"/>
<path d="M23.273 87.3062C23.273 88.031 22.5386 88.6186 21.6326 88.6186C20.7266 88.6186 19.9922 88.031 19.9922 87.3062C19.9922 86.5814 20.7266 85.9939 21.6326 85.9939C22.5386 85.9939 23.273 86.5814 23.273 87.3062Z" fill="#FED77F"/>
<path d="M34.3775 88.5177C34.3775 89.2424 33.6431 89.83 32.7371 89.83C31.8311 89.83 31.0967 89.2424 31.0967 88.5177C31.0967 87.7929 31.8311 87.2053 32.7371 87.2053C33.6431 87.2053 34.3775 87.7929 34.3775 88.5177Z" fill="#FED77F"/>
<path d="M41.6964 81.8551C41.6964 82.5798 40.9619 83.1674 40.0559 83.1674C39.15 83.1674 38.4155 82.5798 38.4155 81.8551C38.4155 81.1303 39.15 80.5427 40.0559 80.5427C40.9619 80.5427 41.6964 81.1303 41.6964 81.8551Z" fill="#FED77F"/>
</g>
<g opacity="0.6">
<path fill-rule="evenodd" clip-rule="evenodd" d="M156.81 81.7303C156.966 81.8419 156.979 82.0334 156.84 82.158L149.131 89.0445L138.068 87.6364L132.144 95.0406C132.032 95.1815 131.797 95.2226 131.621 95.1325C131.445 95.0423 131.394 94.855 131.507 94.7141L137.697 86.976L148.842 88.3945L156.276 81.7539C156.415 81.6293 156.655 81.6187 156.81 81.7303Z" fill="#FED77F"/>
<path fill-rule="evenodd" clip-rule="evenodd" d="M124.381 76C124.729 76 125.012 76.226 125.012 76.5047V102.55H158.073C158.421 102.55 158.704 102.776 158.704 103.054C158.704 103.333 158.421 103.559 158.073 103.559H123.75V76.5047C123.75 76.226 124.032 76 124.381 76Z" fill="#FED77F"/>
<path d="M133.466 94.7766C133.466 95.5014 132.732 96.0889 131.826 96.0889C130.92 96.0889 130.186 95.5014 130.186 94.7766C130.186 94.0518 130.92 93.4642 131.826 93.4642C132.732 93.4642 133.466 94.0518 133.466 94.7766Z" fill="#FED77F"/>
<path d="M139.523 87.3062C139.523 88.031 138.789 88.6186 137.883 88.6186C136.977 88.6186 136.242 88.031 136.242 87.3062C136.242 86.5814 136.977 85.9939 137.883 85.9939C138.789 85.9939 139.523 86.5814 139.523 87.3062Z" fill="#FED77F"/>
<path d="M150.628 88.5175C150.628 89.2423 149.893 89.8299 148.987 89.8299C148.081 89.8299 147.347 89.2423 147.347 88.5175C147.347 87.7928 148.081 87.2052 148.987 87.2052C149.893 87.2052 150.628 87.7928 150.628 88.5175Z" fill="#FED77F"/>
<path d="M157.946 81.8551C157.946 82.5798 157.212 83.1674 156.306 83.1674C155.4 83.1674 154.666 82.5798 154.666 81.8551C154.666 81.1303 155.4 80.5427 156.306 80.5427C157.212 80.5427 157.946 81.1303 157.946 81.8551Z" fill="#FED77F"/>
</g>
<g opacity="0.6">
<path fill-rule="evenodd" clip-rule="evenodd" d="M273.06 81.7303C273.216 81.8419 273.229 82.0334 273.09 82.158L265.381 89.0445L254.318 87.6364L248.394 95.0406C248.282 95.1815 248.047 95.2226 247.871 95.1325C247.695 95.0423 247.644 94.855 247.757 94.7141L253.947 86.976L265.092 88.3945L272.526 81.7539C272.665 81.6293 272.905 81.6187 273.06 81.7303Z" fill="#FED77F"/>
<path fill-rule="evenodd" clip-rule="evenodd" d="M240.631 76C240.979 76 241.262 76.226 241.262 76.5047V102.55H274.323C274.671 102.55 274.954 102.776 274.954 103.054C274.954 103.333 274.671 103.559 274.323 103.559H240V76.5047C240 76.226 240.282 76 240.631 76Z" fill="#FED77F"/>
<path d="M249.716 94.7764C249.716 95.5012 248.982 96.0888 248.076 96.0888C247.17 96.0888 246.436 95.5012 246.436 94.7764C246.436 94.0517 247.17 93.4641 248.076 93.4641C248.982 93.4641 249.716 94.0517 249.716 94.7764Z" fill="#FED77F"/>
<path d="M255.773 87.3064C255.773 88.0311 255.039 88.6187 254.133 88.6187C253.227 88.6187 252.492 88.0311 252.492 87.3064C252.492 86.5816 253.227 85.994 254.133 85.994C255.039 85.994 255.773 86.5816 255.773 87.3064Z" fill="#FED77F"/>
<path d="M266.878 88.5177C266.878 89.2424 266.143 89.83 265.237 89.83C264.331 89.83 263.597 89.2424 263.597 88.5177C263.597 87.7929 264.331 87.2053 265.237 87.2053C266.143 87.2053 266.878 87.7929 266.878 88.5177Z" fill="#FED77F"/>
<path d="M274.196 81.8552C274.196 82.58 273.462 83.1675 272.556 83.1675C271.65 83.1675 270.916 82.58 270.916 81.8552C270.916 81.1304 271.65 80.5428 272.556 80.5428C273.462 80.5428 274.196 81.1304 274.196 81.8552Z" fill="#FED77F"/>
</g>
<g opacity="0.6">
<path fill-rule="evenodd" clip-rule="evenodd" d="M389.311 81.7303C389.467 81.8419 389.48 82.0334 389.34 82.158L381.632 89.0445L370.568 87.6364L364.645 95.0406C364.532 95.1815 364.298 95.2226 364.122 95.1325C363.946 95.0423 363.894 94.855 364.007 94.7141L370.198 86.976L381.343 88.3945L388.776 81.7539C388.916 81.6293 389.155 81.6187 389.311 81.7303Z" fill="#FED77F"/>
<path fill-rule="evenodd" clip-rule="evenodd" d="M356.881 76C357.229 76 357.512 76.226 357.512 76.5047V102.55H390.573C390.921 102.55 391.204 102.776 391.204 103.054C391.204 103.333 390.921 103.559 390.573 103.559H356.25V76.5047C356.25 76.226 356.532 76 356.881 76Z" fill="#FED77F"/>
<path d="M365.966 94.7764C365.966 95.5012 365.232 96.0888 364.326 96.0888C363.42 96.0888 362.686 95.5012 362.686 94.7764C362.686 94.0517 363.42 93.4641 364.326 93.4641C365.232 93.4641 365.966 94.0517 365.966 94.7764Z" fill="#FED77F"/>
<path d="M372.023 87.3064C372.023 88.0311 371.289 88.6187 370.383 88.6187C369.477 88.6187 368.742 88.0311 368.742 87.3064C368.742 86.5816 369.477 85.994 370.383 85.994C371.289 85.994 372.023 86.5816 372.023 87.3064Z" fill="#FED77F"/>
<path d="M383.128 88.5177C383.128 89.2424 382.394 89.83 381.488 89.83C380.582 89.83 379.847 89.2424 379.847 88.5177C379.847 87.7929 380.582 87.2053 381.488 87.2053C382.394 87.2053 383.128 87.7929 383.128 88.5177Z" fill="#FED77F"/>
<path d="M390.447 81.8551C390.447 82.5798 389.712 83.1674 388.806 83.1674C387.9 83.1674 387.166 82.5798 387.166 81.8551C387.166 81.1303 387.9 80.5427 388.806 80.5427C389.712 80.5427 390.447 81.1303 390.447 81.8551Z" fill="#FED77F"/>
</g>
<g opacity="0.6">
<path fill-rule="evenodd" clip-rule="evenodd" d="M505.56 81.7303C505.716 81.8419 505.729 82.0334 505.59 82.158L497.881 89.0445L486.818 87.6364L480.894 95.0406C480.782 95.1815 480.547 95.2226 480.371 95.1325C480.195 95.0423 480.144 94.855 480.257 94.7141L486.447 86.976L497.592 88.3945L505.026 81.7539C505.165 81.6293 505.405 81.6187 505.56 81.7303Z" fill="#FED77F"/>
<path fill-rule="evenodd" clip-rule="evenodd" d="M473.131 76C473.479 76 473.762 76.226 473.762 76.5047V102.55H506.823C507.171 102.55 507.454 102.776 507.454 103.054C507.454 103.333 507.171 103.559 506.823 103.559H472.5V76.5047C472.5 76.226 472.782 76 473.131 76Z" fill="#FED77F"/>
<path d="M482.216 94.7766C482.216 95.5014 481.482 96.0889 480.576 96.0889C479.67 96.0889 478.936 95.5014 478.936 94.7766C478.936 94.0518 479.67 93.4642 480.576 93.4642C481.482 93.4642 482.216 94.0518 482.216 94.7766Z" fill="#FED77F"/>
<path d="M488.273 87.3064C488.273 88.0311 487.539 88.6187 486.633 88.6187C485.727 88.6187 484.992 88.0311 484.992 87.3064C484.992 86.5816 485.727 85.994 486.633 85.994C487.539 85.994 488.273 86.5816 488.273 87.3064Z" fill="#FED77F"/>
<path d="M499.378 88.5177C499.378 89.2424 498.643 89.83 497.737 89.83C496.831 89.83 496.097 89.2424 496.097 88.5177C496.097 87.7929 496.831 87.2053 497.737 87.2053C498.643 87.2053 499.378 87.7929 499.378 88.5177Z" fill="#FED77F"/>
<path d="M506.696 81.8552C506.696 82.58 505.962 83.1675 505.056 83.1675C504.15 83.1675 503.416 82.58 503.416 81.8552C503.416 81.1304 504.15 80.5428 505.056 80.5428C505.962 80.5428 506.696 81.1304 506.696 81.8552Z" fill="#FED77F"/>
</g>
<g opacity="0.6">
<path fill-rule="evenodd" clip-rule="evenodd" d="M549.311 152.73C549.467 152.842 549.48 153.033 549.34 153.158L541.632 160.045L530.568 158.636L524.645 166.041C524.532 166.182 524.298 166.223 524.122 166.132C523.946 166.042 523.894 165.855 524.007 165.714L530.198 157.976L541.343 159.394L548.776 152.754C548.916 152.629 549.155 152.619 549.311 152.73Z" fill="#FED77F"/>
<path fill-rule="evenodd" clip-rule="evenodd" d="M516.881 147C517.229 147 517.512 147.226 517.512 147.505V173.55H550.573C550.921 173.55 551.204 173.776 551.204 174.054C551.204 174.333 550.921 174.559 550.573 174.559H516.25V147.505C516.25 147.226 516.532 147 516.881 147Z" fill="#FED77F"/>
<path d="M525.966 165.776C525.966 166.501 525.232 167.089 524.326 167.089C523.42 167.089 522.686 166.501 522.686 165.776C522.686 165.052 523.42 164.464 524.326 164.464C525.232 164.464 525.966 165.052 525.966 165.776Z" fill="#FED77F"/>
<path d="M532.023 158.306C532.023 159.031 531.289 159.619 530.383 159.619C529.477 159.619 528.742 159.031 528.742 158.306C528.742 157.581 529.477 156.994 530.383 156.994C531.289 156.994 532.023 157.581 532.023 158.306Z" fill="#FED77F"/>
<path d="M543.128 159.518C543.128 160.242 542.393 160.83 541.487 160.83C540.581 160.83 539.847 160.242 539.847 159.518C539.847 158.793 540.581 158.205 541.487 158.205C542.393 158.205 543.128 158.793 543.128 159.518Z" fill="#FED77F"/>
<path d="M550.446 152.855C550.446 153.58 549.712 154.167 548.806 154.167C547.9 154.167 547.166 153.58 547.166 152.855C547.166 152.13 547.9 151.543 548.806 151.543C549.712 151.543 550.446 152.13 550.446 152.855Z" fill="#FED77F"/>
</g>
<g opacity="0.6">
<path fill-rule="evenodd" clip-rule="evenodd" d="M665.56 152.73C665.716 152.842 665.729 153.033 665.59 153.158L657.881 160.045L646.818 158.636L640.894 166.041C640.782 166.182 640.547 166.223 640.371 166.132C640.195 166.042 640.144 165.855 640.257 165.714L646.447 157.976L657.592 159.394L665.026 152.754C665.165 152.629 665.405 152.619 665.56 152.73Z" fill="#FED77F"/>
<path fill-rule="evenodd" clip-rule="evenodd" d="M633.131 147C633.479 147 633.762 147.226 633.762 147.505V173.55H666.823C667.171 173.55 667.454 173.776 667.454 174.054C667.454 174.333 667.171 174.559 666.823 174.559H632.5V147.505C632.5 147.226 632.782 147 633.131 147Z" fill="#FED77F"/>
<path d="M642.216 165.777C642.216 166.501 641.482 167.089 640.576 167.089C639.67 167.089 638.936 166.501 638.936 165.777C638.936 165.052 639.67 164.464 640.576 164.464C641.482 164.464 642.216 165.052 642.216 165.777Z" fill="#FED77F"/>
<path d="M648.273 158.306C648.273 159.031 647.539 159.619 646.633 159.619C645.727 159.619 644.992 159.031 644.992 158.306C644.992 157.581 645.727 156.994 646.633 156.994C647.539 156.994 648.273 157.581 648.273 158.306Z" fill="#FED77F"/>
<path d="M659.378 159.518C659.378 160.242 658.643 160.83 657.737 160.83C656.831 160.83 656.097 160.242 656.097 159.518C656.097 158.793 656.831 158.205 657.737 158.205C658.643 158.205 659.378 158.793 659.378 159.518Z" fill="#FED77F"/>
<path d="M666.696 152.855C666.696 153.58 665.961 154.167 665.055 154.167C664.149 154.167 663.415 153.58 663.415 152.855C663.415 152.13 664.149 151.543 665.055 151.543C665.961 151.543 666.696 152.13 666.696 152.855Z" fill="#FED77F"/>
</g>
<g opacity="0.6">
<path fill-rule="evenodd" clip-rule="evenodd" d="M781.81 152.73C781.966 152.842 781.979 153.033 781.84 153.158L774.131 160.045L763.068 158.636L757.144 166.041C757.032 166.182 756.797 166.223 756.621 166.132C756.445 166.042 756.394 165.855 756.507 165.714L762.697 157.976L773.842 159.394L781.276 152.754C781.415 152.629 781.655 152.619 781.81 152.73Z" fill="#FED77F"/>
<path fill-rule="evenodd" clip-rule="evenodd" d="M749.381 147C749.729 147 750.012 147.226 750.012 147.505V173.55H783.073C783.421 173.55 783.704 173.776 783.704 174.054C783.704 174.333 783.421 174.559 783.073 174.559H748.75V147.505C748.75 147.226 749.032 147 749.381 147Z" fill="#FED77F"/>
<path d="M758.466 165.776C758.466 166.501 757.732 167.089 756.826 167.089C755.92 167.089 755.186 166.501 755.186 165.776C755.186 165.052 755.92 164.464 756.826 164.464C757.732 164.464 758.466 165.052 758.466 165.776Z" fill="#FED77F"/>
<path d="M764.523 158.306C764.523 159.031 763.789 159.619 762.883 159.619C761.977 159.619 761.242 159.031 761.242 158.306C761.242 157.582 761.977 156.994 762.883 156.994C763.789 156.994 764.523 157.582 764.523 158.306Z" fill="#FED77F"/>
<path d="M775.628 159.518C775.628 160.242 774.893 160.83 773.987 160.83C773.081 160.83 772.347 160.242 772.347 159.518C772.347 158.793 773.081 158.205 773.987 158.205C774.893 158.205 775.628 158.793 775.628 159.518Z" fill="#FED77F"/>
<path d="M782.946 152.855C782.946 153.58 782.212 154.168 781.306 154.168C780.4 154.168 779.666 153.58 779.666 152.855C779.666 152.13 780.4 151.543 781.306 151.543C782.212 151.543 782.946 152.13 782.946 152.855Z" fill="#FED77F"/>
</g>
<g opacity="0.6">
<path fill-rule="evenodd" clip-rule="evenodd" d="M898.061 152.73C898.217 152.842 898.23 153.033 898.09 153.158L890.382 160.045L879.318 158.636L873.395 166.041C873.282 166.182 873.048 166.223 872.872 166.132C872.696 166.042 872.644 165.855 872.757 165.714L878.948 157.976L890.093 159.394L897.526 152.754C897.666 152.629 897.905 152.619 898.061 152.73Z" fill="#FED77F"/>
<path fill-rule="evenodd" clip-rule="evenodd" d="M865.631 147C865.979 147 866.262 147.226 866.262 147.505V173.55H899.323C899.671 173.55 899.954 173.776 899.954 174.054C899.954 174.333 899.671 174.559 899.323 174.559H865V147.505C865 147.226 865.282 147 865.631 147Z" fill="#FED77F"/>
<path d="M874.716 165.776C874.716 166.501 873.982 167.089 873.076 167.089C872.17 167.089 871.436 166.501 871.436 165.776C871.436 165.052 872.17 164.464 873.076 164.464C873.982 164.464 874.716 165.052 874.716 165.776Z" fill="#FED77F"/>
<path d="M880.773 158.306C880.773 159.031 880.039 159.619 879.133 159.619C878.227 159.619 877.492 159.031 877.492 158.306C877.492 157.582 878.227 156.994 879.133 156.994C880.039 156.994 880.773 157.582 880.773 158.306Z" fill="#FED77F"/>
<path d="M891.878 159.518C891.878 160.242 891.144 160.83 890.238 160.83C889.332 160.83 888.597 160.242 888.597 159.518C888.597 158.793 889.332 158.205 890.238 158.205C891.144 158.205 891.878 158.793 891.878 159.518Z" fill="#FED77F"/>
<path d="M899.197 152.855C899.197 153.58 898.462 154.167 897.556 154.167C896.65 154.167 895.916 153.58 895.916 152.855C895.916 152.13 896.65 151.543 897.556 151.543C898.462 151.543 899.197 152.13 899.197 152.855Z" fill="#FED77F"/>
</g>
<g opacity="0.6">
<path fill-rule="evenodd" clip-rule="evenodd" d="M84.3106 152.73C84.4664 152.842 84.4796 153.033 84.3401 153.158L76.6313 160.045L65.5678 158.636L59.6445 166.041C59.5318 166.182 59.2977 166.223 59.1216 166.132C58.9455 166.042 58.8941 165.855 59.0068 165.714L65.1973 157.976L76.3426 159.394L83.7761 152.754C83.9156 152.629 84.1549 152.619 84.3106 152.73Z" fill="#FED77F"/>
<path fill-rule="evenodd" clip-rule="evenodd" d="M51.8809 147C52.2294 147 52.5119 147.226 52.5119 147.505V173.55H85.5726C85.9211 173.55 86.2036 173.776 86.2036 174.054C86.2036 174.333 85.9211 174.559 85.5726 174.559H51.25V147.505C51.25 147.226 51.5325 147 51.8809 147Z" fill="#FED77F"/>
<path d="M60.9661 165.777C60.9661 166.501 60.2317 167.089 59.3257 167.089C58.4197 167.089 57.6853 166.501 57.6853 165.777C57.6853 165.052 58.4197 164.464 59.3257 164.464C60.2317 164.464 60.9661 165.052 60.9661 165.777Z" fill="#FED77F"/>
<path d="M67.0233 158.306C67.0233 159.031 66.2888 159.619 65.3829 159.619C64.4769 159.619 63.7424 159.031 63.7424 158.306C63.7424 157.581 64.4769 156.994 65.3829 156.994C66.2888 156.994 67.0233 157.581 67.0233 158.306Z" fill="#FED77F"/>
<path d="M78.1275 159.518C78.1275 160.242 77.3931 160.83 76.4871 160.83C75.5811 160.83 74.8467 160.242 74.8467 159.518C74.8467 158.793 75.5811 158.205 76.4871 158.205C77.3931 158.205 78.1275 158.793 78.1275 159.518Z" fill="#FED77F"/>
<path d="M85.4464 152.855C85.4464 153.58 84.7119 154.167 83.8059 154.167C82.9 154.167 82.1655 153.58 82.1655 152.855C82.1655 152.13 82.9 151.543 83.8059 151.543C84.7119 151.543 85.4464 152.13 85.4464 152.855Z" fill="#FED77F"/>
</g>
<g opacity="0.6">
<path fill-rule="evenodd" clip-rule="evenodd" d="M200.56 152.73C200.716 152.842 200.729 153.033 200.59 153.158L192.881 160.045L181.818 158.636L175.894 166.041C175.782 166.182 175.547 166.223 175.371 166.132C175.195 166.042 175.144 165.855 175.257 165.714L181.447 157.976L192.592 159.394L200.026 152.754C200.165 152.629 200.405 152.619 200.56 152.73Z" fill="#FED77F"/>
<path fill-rule="evenodd" clip-rule="evenodd" d="M168.131 147C168.479 147 168.762 147.226 168.762 147.505V173.55H201.823C202.171 173.55 202.454 173.776 202.454 174.054C202.454 174.333 202.171 174.559 201.823 174.559H167.5V147.505C167.5 147.226 167.782 147 168.131 147Z" fill="#FED77F"/>
<path d="M177.216 165.776C177.216 166.501 176.482 167.089 175.576 167.089C174.67 167.089 173.936 166.501 173.936 165.776C173.936 165.052 174.67 164.464 175.576 164.464C176.482 164.464 177.216 165.052 177.216 165.776Z" fill="#FED77F"/>
<path d="M183.273 158.306C183.273 159.031 182.539 159.619 181.633 159.619C180.727 159.619 179.992 159.031 179.992 158.306C179.992 157.582 180.727 156.994 181.633 156.994C182.539 156.994 183.273 157.582 183.273 158.306Z" fill="#FED77F"/>
<path d="M194.378 159.518C194.378 160.242 193.643 160.83 192.737 160.83C191.831 160.83 191.097 160.242 191.097 159.518C191.097 158.793 191.831 158.205 192.737 158.205C193.643 158.205 194.378 158.793 194.378 159.518Z" fill="#FED77F"/>
<path d="M201.696 152.855C201.696 153.58 200.962 154.168 200.056 154.168C199.15 154.168 198.416 153.58 198.416 152.855C198.416 152.13 199.15 151.543 200.056 151.543C200.962 151.543 201.696 152.13 201.696 152.855Z" fill="#FED77F"/>
</g>
<g opacity="0.6">
<path fill-rule="evenodd" clip-rule="evenodd" d="M316.811 152.73C316.967 152.842 316.98 153.033 316.84 153.158L309.132 160.045L298.068 158.636L292.145 166.041C292.032 166.182 291.798 166.223 291.622 166.132C291.446 166.042 291.394 165.855 291.507 165.714L297.698 157.976L308.843 159.394L316.276 152.754C316.416 152.629 316.655 152.619 316.811 152.73Z" fill="#FED77F"/>
<path fill-rule="evenodd" clip-rule="evenodd" d="M284.381 147C284.729 147 285.012 147.226 285.012 147.505V173.55H318.073C318.421 173.55 318.704 173.776 318.704 174.054C318.704 174.333 318.421 174.559 318.073 174.559H283.75V147.505C283.75 147.226 284.032 147 284.381 147Z" fill="#FED77F"/>
<path d="M293.466 165.776C293.466 166.501 292.732 167.089 291.826 167.089C290.92 167.089 290.186 166.501 290.186 165.776C290.186 165.052 290.92 164.464 291.826 164.464C292.732 164.464 293.466 165.052 293.466 165.776Z" fill="#FED77F"/>
<path d="M299.523 158.306C299.523 159.031 298.789 159.619 297.883 159.619C296.977 159.619 296.242 159.031 296.242 158.306C296.242 157.582 296.977 156.994 297.883 156.994C298.789 156.994 299.523 157.582 299.523 158.306Z" fill="#FED77F"/>
<path d="M310.628 159.518C310.628 160.242 309.894 160.83 308.988 160.83C308.082 160.83 307.347 160.242 307.347 159.518C307.347 158.793 308.082 158.205 308.988 158.205C309.894 158.205 310.628 158.793 310.628 159.518Z" fill="#FED77F"/>
<path d="M317.947 152.855C317.947 153.58 317.212 154.167 316.306 154.167C315.4 154.167 314.666 153.58 314.666 152.855C314.666 152.13 315.4 151.543 316.306 151.543C317.212 151.543 317.947 152.13 317.947 152.855Z" fill="#FED77F"/>
</g>
<g opacity="0.6">
<path fill-rule="evenodd" clip-rule="evenodd" d="M433.06 152.73C433.216 152.842 433.229 153.033 433.09 153.158L425.381 160.045L414.318 158.636L408.394 166.041C408.282 166.182 408.047 166.223 407.871 166.132C407.695 166.042 407.644 165.855 407.757 165.714L413.947 157.976L425.092 159.394L432.526 152.754C432.665 152.629 432.905 152.619 433.06 152.73Z" fill="#FED77F"/>
<path fill-rule="evenodd" clip-rule="evenodd" d="M400.631 147C400.979 147 401.262 147.226 401.262 147.505V173.55H434.323C434.671 173.55 434.954 173.776 434.954 174.054C434.954 174.333 434.671 174.559 434.323 174.559H400V147.505C400 147.226 400.282 147 400.631 147Z" fill="#FED77F"/>
<path d="M409.716 165.777C409.716 166.501 408.982 167.089 408.076 167.089C407.17 167.089 406.436 166.501 406.436 165.777C406.436 165.052 407.17 164.464 408.076 164.464C408.982 164.464 409.716 165.052 409.716 165.777Z" fill="#FED77F"/>
<path d="M415.773 158.306C415.773 159.031 415.039 159.619 414.133 159.619C413.227 159.619 412.492 159.031 412.492 158.306C412.492 157.582 413.227 156.994 414.133 156.994C415.039 156.994 415.773 157.582 415.773 158.306Z" fill="#FED77F"/>
<path d="M426.878 159.518C426.878 160.242 426.143 160.83 425.237 160.83C424.331 160.83 423.597 160.242 423.597 159.518C423.597 158.793 424.331 158.205 425.237 158.205C426.143 158.205 426.878 158.793 426.878 159.518Z" fill="#FED77F"/>
<path d="M434.196 152.855C434.196 153.58 433.462 154.168 432.556 154.168C431.65 154.168 430.916 153.58 430.916 152.855C430.916 152.13 431.65 151.543 432.556 151.543C433.462 151.543 434.196 152.13 434.196 152.855Z" fill="#FED77F"/>
</g>
<g opacity="0.6">
<path fill-rule="evenodd" clip-rule="evenodd" d="M621.811 213.73C621.967 213.842 621.98 214.033 621.84 214.158L614.132 221.045L603.068 219.636L597.145 227.041C597.032 227.182 596.798 227.223 596.622 227.132C596.446 227.042 596.394 226.855 596.507 226.714L602.698 218.976L613.843 220.394L621.276 213.754C621.416 213.629 621.655 213.619 621.811 213.73Z" fill="#FED77F"/>
<path fill-rule="evenodd" clip-rule="evenodd" d="M589.381 208C589.729 208 590.012 208.226 590.012 208.505V234.55H623.073C623.421 234.55 623.704 234.776 623.704 235.054C623.704 235.333 623.421 235.559 623.073 235.559H588.75V208.505C588.75 208.226 589.032 208 589.381 208Z" fill="#FED77F"/>
<path d="M598.466 226.776C598.466 227.501 597.732 228.089 596.826 228.089C595.92 228.089 595.186 227.501 595.186 226.776C595.186 226.052 595.92 225.464 596.826 225.464C597.732 225.464 598.466 226.052 598.466 226.776Z" fill="#FED77F"/>
<path d="M604.523 219.306C604.523 220.031 603.789 220.619 602.883 220.619C601.977 220.619 601.242 220.031 601.242 219.306C601.242 218.581 601.977 217.994 602.883 217.994C603.789 217.994 604.523 218.581 604.523 219.306Z" fill="#FED77F"/>
<path d="M615.628 220.518C615.628 221.242 614.893 221.83 613.987 221.83C613.081 221.83 612.347 221.242 612.347 220.518C612.347 219.793 613.081 219.205 613.987 219.205C614.893 219.205 615.628 219.793 615.628 220.518Z" fill="#FED77F"/>
<path d="M622.946 213.855C622.946 214.58 622.212 215.167 621.306 215.167C620.4 215.167 619.666 214.58 619.666 213.855C619.666 213.13 620.4 212.543 621.306 212.543C622.212 212.543 622.946 213.13 622.946 213.855Z" fill="#FED77F"/>
</g>
<g opacity="0.6">
<path fill-rule="evenodd" clip-rule="evenodd" d="M738.06 213.73C738.216 213.842 738.229 214.033 738.09 214.158L730.381 221.045L719.318 219.636L713.394 227.041C713.282 227.182 713.047 227.223 712.871 227.132C712.695 227.042 712.644 226.855 712.757 226.714L718.947 218.976L730.092 220.394L737.526 213.754C737.665 213.629 737.905 213.619 738.06 213.73Z" fill="#FED77F"/>
<path fill-rule="evenodd" clip-rule="evenodd" d="M705.631 208C705.979 208 706.262 208.226 706.262 208.505V234.55H739.323C739.671 234.55 739.954 234.776 739.954 235.054C739.954 235.333 739.671 235.559 739.323 235.559H705V208.505C705 208.226 705.282 208 705.631 208Z" fill="#FED77F"/>
<path d="M714.716 226.777C714.716 227.501 713.982 228.089 713.076 228.089C712.17 228.089 711.436 227.501 711.436 226.777C711.436 226.052 712.17 225.464 713.076 225.464C713.982 225.464 714.716 226.052 714.716 226.777Z" fill="#FED77F"/>
<path d="M720.773 219.306C720.773 220.031 720.039 220.619 719.133 220.619C718.227 220.619 717.492 220.031 717.492 219.306C717.492 218.581 718.227 217.994 719.133 217.994C720.039 217.994 720.773 218.581 720.773 219.306Z" fill="#FED77F"/>
<path d="M731.878 220.518C731.878 221.242 731.143 221.83 730.237 221.83C729.331 221.83 728.597 221.242 728.597 220.518C728.597 219.793 729.331 219.205 730.237 219.205C731.143 219.205 731.878 219.793 731.878 220.518Z" fill="#FED77F"/>
<path d="M739.196 213.855C739.196 214.58 738.461 215.167 737.555 215.167C736.649 215.167 735.915 214.58 735.915 213.855C735.915 213.13 736.649 212.543 737.555 212.543C738.461 212.543 739.196 213.13 739.196 213.855Z" fill="#FED77F"/>
</g>
<g opacity="0.6">
<path fill-rule="evenodd" clip-rule="evenodd" d="M854.31 213.73C854.466 213.842 854.479 214.033 854.34 214.158L846.631 221.045L835.568 219.636L829.644 227.041C829.532 227.182 829.297 227.223 829.121 227.132C828.945 227.042 828.894 226.855 829.007 226.714L835.197 218.976L846.342 220.394L853.776 213.754C853.915 213.629 854.155 213.619 854.31 213.73Z" fill="#FED77F"/>
<path fill-rule="evenodd" clip-rule="evenodd" d="M821.881 208C822.229 208 822.512 208.226 822.512 208.505V234.55H855.573C855.921 234.55 856.204 234.776 856.204 235.054C856.204 235.333 855.921 235.559 855.573 235.559H821.25V208.505C821.25 208.226 821.532 208 821.881 208Z" fill="#FED77F"/>
<path d="M830.966 226.776C830.966 227.501 830.232 228.089 829.326 228.089C828.42 228.089 827.686 227.501 827.686 226.776C827.686 226.052 828.42 225.464 829.326 225.464C830.232 225.464 830.966 226.052 830.966 226.776Z" fill="#FED77F"/>
<path d="M837.023 219.306C837.023 220.031 836.289 220.619 835.383 220.619C834.477 220.619 833.742 220.031 833.742 219.306C833.742 218.582 834.477 217.994 835.383 217.994C836.289 217.994 837.023 218.582 837.023 219.306Z" fill="#FED77F"/>
<path d="M848.128 220.518C848.128 221.242 847.393 221.83 846.487 221.83C845.581 221.83 844.847 221.242 844.847 220.518C844.847 219.793 845.581 219.205 846.487 219.205C847.393 219.205 848.128 219.793 848.128 220.518Z" fill="#FED77F"/>
<path d="M855.446 213.855C855.446 214.58 854.712 215.168 853.806 215.168C852.9 215.168 852.166 214.58 852.166 213.855C852.166 213.13 852.9 212.543 853.806 212.543C854.712 212.543 855.446 213.13 855.446 213.855Z" fill="#FED77F"/>
</g>
<g opacity="0.6">
<path fill-rule="evenodd" clip-rule="evenodd" d="M40.5609 213.73C40.7166 213.842 40.7298 214.033 40.5904 214.158L32.8815 221.045L21.8181 219.636L15.8947 227.041C15.782 227.182 15.5479 227.223 15.3718 227.132C15.1957 227.042 15.1443 226.855 15.257 226.714L21.4475 218.976L32.5928 220.394L40.0263 213.754C40.1658 213.629 40.4051 213.619 40.5609 213.73Z" fill="#FED77F"/>
<path fill-rule="evenodd" clip-rule="evenodd" d="M8.13093 208C8.47938 208 8.76186 208.226 8.76186 208.505V234.55H41.8226C42.1711 234.55 42.4536 234.776 42.4536 235.054C42.4536 235.333 42.1711 235.559 41.8226 235.559H7.5L7.5 208.505C7.5 208.226 7.78248 208 8.13093 208Z" fill="#FED77F"/>
<path d="M17.2161 226.776C17.2161 227.501 16.4817 228.089 15.5757 228.089C14.6697 228.089 13.9353 227.501 13.9353 226.776C13.9353 226.052 14.6697 225.464 15.5757 225.464C16.4817 225.464 17.2161 226.052 17.2161 226.776Z" fill="#FED77F"/>
<path d="M23.273 219.306C23.273 220.031 22.5386 220.619 21.6326 220.619C20.7266 220.619 19.9922 220.031 19.9922 219.306C19.9922 218.581 20.7266 217.994 21.6326 217.994C22.5386 217.994 23.273 218.581 23.273 219.306Z" fill="#FED77F"/>
<path d="M34.3775 220.518C34.3775 221.242 33.6431 221.83 32.7371 221.83C31.8311 221.83 31.0967 221.242 31.0967 220.518C31.0967 219.793 31.8311 219.205 32.7371 219.205C33.6431 219.205 34.3775 219.793 34.3775 220.518Z" fill="#FED77F"/>
<path d="M41.6964 213.855C41.6964 214.58 40.9619 215.167 40.0559 215.167C39.15 215.167 38.4155 214.58 38.4155 213.855C38.4155 213.13 39.15 212.543 40.0559 212.543C40.9619 212.543 41.6964 213.13 41.6964 213.855Z" fill="#FED77F"/>
</g>
<g opacity="0.6">
<path fill-rule="evenodd" clip-rule="evenodd" d="M156.81 213.73C156.966 213.842 156.979 214.033 156.84 214.158L149.131 221.045L138.068 219.636L132.144 227.041C132.032 227.182 131.797 227.223 131.621 227.132C131.445 227.042 131.394 226.855 131.507 226.714L137.697 218.976L148.842 220.394L156.276 213.754C156.415 213.629 156.655 213.619 156.81 213.73Z" fill="#FED77F"/>
<path fill-rule="evenodd" clip-rule="evenodd" d="M124.381 208C124.729 208 125.012 208.226 125.012 208.505V234.55H158.073C158.421 234.55 158.704 234.776 158.704 235.054C158.704 235.333 158.421 235.559 158.073 235.559H123.75V208.505C123.75 208.226 124.032 208 124.381 208Z" fill="#FED77F"/>
<path d="M133.466 226.777C133.466 227.501 132.732 228.089 131.826 228.089C130.92 228.089 130.186 227.501 130.186 226.777C130.186 226.052 130.92 225.464 131.826 225.464C132.732 225.464 133.466 226.052 133.466 226.777Z" fill="#FED77F"/>
<path d="M139.523 219.306C139.523 220.031 138.789 220.619 137.883 220.619C136.977 220.619 136.242 220.031 136.242 219.306C136.242 218.581 136.977 217.994 137.883 217.994C138.789 217.994 139.523 218.581 139.523 219.306Z" fill="#FED77F"/>
<path d="M150.628 220.518C150.628 221.242 149.893 221.83 148.987 221.83C148.081 221.83 147.347 221.242 147.347 220.518C147.347 219.793 148.081 219.205 148.987 219.205C149.893 219.205 150.628 219.793 150.628 220.518Z" fill="#FED77F"/>
<path d="M157.946 213.855C157.946 214.58 157.212 215.167 156.306 215.167C155.4 215.167 154.666 214.58 154.666 213.855C154.666 213.13 155.4 212.543 156.306 212.543C157.212 212.543 157.946 213.13 157.946 213.855Z" fill="#FED77F"/>
</g>
<g opacity="0.6">
<path fill-rule="evenodd" clip-rule="evenodd" d="M273.06 213.73C273.216 213.842 273.229 214.033 273.09 214.158L265.381 221.045L254.318 219.636L248.394 227.041C248.282 227.182 248.047 227.223 247.871 227.132C247.695 227.042 247.644 226.855 247.757 226.714L253.947 218.976L265.092 220.394L272.526 213.754C272.665 213.629 272.905 213.619 273.06 213.73Z" fill="#FED77F"/>
<path fill-rule="evenodd" clip-rule="evenodd" d="M240.631 208C240.979 208 241.262 208.226 241.262 208.505V234.55H274.323C274.671 234.55 274.954 234.776 274.954 235.054C274.954 235.333 274.671 235.559 274.323 235.559H240V208.505C240 208.226 240.282 208 240.631 208Z" fill="#FED77F"/>
<path d="M249.716 226.776C249.716 227.501 248.982 228.089 248.076 228.089C247.17 228.089 246.436 227.501 246.436 226.776C246.436 226.052 247.17 225.464 248.076 225.464C248.982 225.464 249.716 226.052 249.716 226.776Z" fill="#FED77F"/>
<path d="M255.773 219.306C255.773 220.031 255.039 220.619 254.133 220.619C253.227 220.619 252.492 220.031 252.492 219.306C252.492 218.582 253.227 217.994 254.133 217.994C255.039 217.994 255.773 218.582 255.773 219.306Z" fill="#FED77F"/>
<path d="M266.878 220.518C266.878 221.242 266.143 221.83 265.237 221.83C264.331 221.83 263.597 221.242 263.597 220.518C263.597 219.793 264.331 219.205 265.237 219.205C266.143 219.205 266.878 219.793 266.878 220.518Z" fill="#FED77F"/>
<path d="M274.196 213.855C274.196 214.58 273.462 215.168 272.556 215.168C271.65 215.168 270.916 214.58 270.916 213.855C270.916 213.13 271.65 212.543 272.556 212.543C273.462 212.543 274.196 213.13 274.196 213.855Z" fill="#FED77F"/>
</g>
<g opacity="0.6">
<path fill-rule="evenodd" clip-rule="evenodd" d="M389.311 213.73C389.467 213.842 389.48 214.033 389.34 214.158L381.632 221.045L370.568 219.636L364.645 227.041C364.532 227.182 364.298 227.223 364.122 227.132C363.946 227.042 363.894 226.855 364.007 226.714L370.198 218.976L381.343 220.394L388.776 213.754C388.916 213.629 389.155 213.619 389.311 213.73Z" fill="#FED77F"/>
<path fill-rule="evenodd" clip-rule="evenodd" d="M356.881 208C357.229 208 357.512 208.226 357.512 208.505V234.55H390.573C390.921 234.55 391.204 234.776 391.204 235.054C391.204 235.333 390.921 235.559 390.573 235.559H356.25V208.505C356.25 208.226 356.532 208 356.881 208Z" fill="#FED77F"/>
<path d="M365.966 226.776C365.966 227.501 365.232 228.089 364.326 228.089C363.42 228.089 362.686 227.501 362.686 226.776C362.686 226.052 363.42 225.464 364.326 225.464C365.232 225.464 365.966 226.052 365.966 226.776Z" fill="#FED77F"/>
<path d="M372.023 219.306C372.023 220.031 371.289 220.619 370.383 220.619C369.477 220.619 368.742 220.031 368.742 219.306C368.742 218.582 369.477 217.994 370.383 217.994C371.289 217.994 372.023 218.582 372.023 219.306Z" fill="#FED77F"/>
<path d="M383.128 220.518C383.128 221.242 382.394 221.83 381.488 221.83C380.582 221.83 379.847 221.242 379.847 220.518C379.847 219.793 380.582 219.205 381.488 219.205C382.394 219.205 383.128 219.793 383.128 220.518Z" fill="#FED77F"/>
<path d="M390.447 213.855C390.447 214.58 389.712 215.167 388.806 215.167C387.9 215.167 387.166 214.58 387.166 213.855C387.166 213.13 387.9 212.543 388.806 212.543C389.712 212.543 390.447 213.13 390.447 213.855Z" fill="#FED77F"/>
</g>
<g opacity="0.6">
<path fill-rule="evenodd" clip-rule="evenodd" d="M505.56 213.73C505.716 213.842 505.729 214.033 505.59 214.158L497.881 221.045L486.818 219.636L480.894 227.041C480.782 227.182 480.547 227.223 480.371 227.132C480.195 227.042 480.144 226.855 480.257 226.714L486.447 218.976L497.592 220.394L505.026 213.754C505.165 213.629 505.405 213.619 505.56 213.73Z" fill="#FED77F"/>
<path fill-rule="evenodd" clip-rule="evenodd" d="M473.131 208C473.479 208 473.762 208.226 473.762 208.505V234.55H506.823C507.171 234.55 507.454 234.776 507.454 235.054C507.454 235.333 507.171 235.559 506.823 235.559H472.5V208.505C472.5 208.226 472.782 208 473.131 208Z" fill="#FED77F"/>
<path d="M482.216 226.777C482.216 227.501 481.482 228.089 480.576 228.089C479.67 228.089 478.936 227.501 478.936 226.777C478.936 226.052 479.67 225.464 480.576 225.464C481.482 225.464 482.216 226.052 482.216 226.777Z" fill="#FED77F"/>
<path d="M488.273 219.306C488.273 220.031 487.539 220.619 486.633 220.619C485.727 220.619 484.992 220.031 484.992 219.306C484.992 218.582 485.727 217.994 486.633 217.994C487.539 217.994 488.273 218.582 488.273 219.306Z" fill="#FED77F"/>
<path d="M499.378 220.518C499.378 221.242 498.643 221.83 497.737 221.83C496.831 221.83 496.097 221.242 496.097 220.518C496.097 219.793 496.831 219.205 497.737 219.205C498.643 219.205 499.378 219.793 499.378 220.518Z" fill="#FED77F"/>
<path d="M506.696 213.855C506.696 214.58 505.962 215.168 505.056 215.168C504.15 215.168 503.416 214.58 503.416 213.855C503.416 213.13 504.15 212.543 505.056 212.543C505.962 212.543 506.696 213.13 506.696 213.855Z" fill="#FED77F"/>
</g>
<rect y="258" width="1388" height="92" fill="#E6A513"/>
<rect y="258" width="1388" height="26" fill="#B8840F"/>
</g>
<defs>
<clipPath id="clip0_8767_1142">
<rect width="900" height="350" fill="white"/>
</clipPath>
</defs>
</svg>
