<svg width="160" height="160" viewBox="0 0 160 160" fill="none" xmlns="http://www.w3.org/2000/svg">
<g clip-path="url(#clip0_21130_2607)">
<rect width="160" height="160" rx="8" fill="#FFF2D4"/>
<rect x="-75.8376" y="145.394" width="233.438" height="28.9071" transform="rotate(-35 -75.8376 145.394)" fill="url(#paint0_linear_21130_2607)" fill-opacity="0.2"/>
<rect x="9.59961" y="189.459" width="200.09" height="22.8713" transform="rotate(-35 9.59961 189.459)" fill="url(#paint1_linear_21130_2607)" fill-opacity="0.3"/>
<rect x="-63.7246" y="276.098" width="300.135" height="12.9243" transform="rotate(-35 -63.7246 276.098)" fill="url(#paint2_linear_21130_2607)" fill-opacity="0.2"/>
<rect x="-99.7838" y="173.895" width="233.438" height="6.66966" transform="rotate(-35 -99.7838 173.895)" fill="url(#paint3_linear_21130_2607)" fill-opacity="0.32"/>
<rect x="-39.1405" y="169.169" width="233.438" height="2.76185" transform="rotate(-35 -39.1405 169.169)" fill="url(#paint4_linear_21130_2607)" fill-opacity="0.26"/>
<path fill-rule="evenodd" clip-rule="evenodd" d="M160 40.8702L66 60L74.5 46.5L0 57.1428V8C0 3.58172 3.58172 0 8 0H152C156.418 0 160 3.58172 160 8V40.8702Z" fill="#4DAA9C"/>
<path d="M53.8438 16.1797C53.8438 17.4661 53.5964 18.5417 53.1016 19.4062C52.612 20.2656 51.901 20.9141 50.9688 21.3516C50.0365 21.7839 48.9141 22 47.6016 22H44.3672V10.5781H47.9531C49.151 10.5781 50.1901 10.7917 51.0703 11.2188C51.9505 11.6406 52.6328 12.2682 53.1172 13.1016C53.6016 13.9297 53.8438 14.9557 53.8438 16.1797ZM51.3281 16.2422C51.3281 15.3984 51.2031 14.7057 50.9531 14.1641C50.7083 13.6172 50.3438 13.2135 49.8594 12.9531C49.3802 12.6927 48.7865 12.5625 48.0781 12.5625H46.7891V20H47.8281C49.0104 20 49.888 19.6849 50.4609 19.0547C51.0391 18.4245 51.3281 17.487 51.3281 16.2422ZM54.7734 13.2656H57.3828L59.0312 18.1797C59.0833 18.3359 59.1276 18.4948 59.1641 18.6562C59.2005 18.8177 59.2318 18.9844 59.2578 19.1562C59.2839 19.3281 59.3047 19.5078 59.3203 19.6953H59.3672C59.3984 19.4141 59.4401 19.151 59.4922 18.9062C59.5495 18.6615 59.6198 18.4193 59.7031 18.1797L61.3203 13.2656H63.875L60.1797 23.1172C59.9557 23.7214 59.6641 24.224 59.3047 24.625C58.9453 25.0312 58.5312 25.3359 58.0625 25.5391C57.599 25.7422 57.0885 25.8438 56.5312 25.8438C56.2604 25.8438 56.026 25.8281 55.8281 25.7969C55.6302 25.7708 55.4609 25.7422 55.3203 25.7109V23.8203C55.4297 23.8464 55.5677 23.8698 55.7344 23.8906C55.901 23.9115 56.0755 23.9219 56.2578 23.9219C56.5911 23.9219 56.8776 23.8516 57.1172 23.7109C57.3568 23.5703 57.5573 23.3802 57.7188 23.1406C57.8802 22.9062 58.0078 22.6484 58.1016 22.3672L58.2422 21.9375L54.7734 13.2656ZM70.0938 13.1016C71.026 13.1016 71.776 13.3568 72.3438 13.8672C72.9115 14.3724 73.1953 15.1849 73.1953 16.3047V22H70.8125V16.8984C70.8125 16.2734 70.6979 15.8021 70.4688 15.4844C70.2448 15.1667 69.8906 15.0078 69.4062 15.0078C68.6771 15.0078 68.1797 15.2552 67.9141 15.75C67.6484 16.2448 67.5156 16.9583 67.5156 17.8906V22H65.1328V13.2656H66.9531L67.2734 14.3828H67.4062C67.5938 14.0807 67.8255 13.8359 68.1016 13.6484C68.3828 13.4609 68.6927 13.3229 69.0312 13.2344C69.375 13.1458 69.7292 13.1016 70.0938 13.1016ZM79.2266 13.0859C80.3984 13.0859 81.2969 13.3411 81.9219 13.8516C82.5469 14.362 82.8594 15.138 82.8594 16.1797V22H81.1953L80.7344 20.8125H80.6719C80.4219 21.125 80.1667 21.3802 79.9062 21.5781C79.6458 21.776 79.3464 21.9219 79.0078 22.0156C78.6693 22.1094 78.2578 22.1562 77.7734 22.1562C77.2578 22.1562 76.7943 22.0573 76.3828 21.8594C75.9766 21.6615 75.6562 21.3594 75.4219 20.9531C75.1875 20.5417 75.0703 20.0208 75.0703 19.3906C75.0703 18.4635 75.3958 17.7812 76.0469 17.3438C76.6979 16.901 77.6745 16.6562 78.9766 16.6094L80.4922 16.5625V16.1797C80.4922 15.7214 80.3724 15.3854 80.1328 15.1719C79.8932 14.9583 79.5599 14.8516 79.1328 14.8516C78.7109 14.8516 78.2969 14.9115 77.8906 15.0312C77.4844 15.151 77.0781 15.3021 76.6719 15.4844L75.8828 13.875C76.3464 13.6302 76.8646 13.4375 77.4375 13.2969C78.0156 13.1562 78.612 13.0859 79.2266 13.0859ZM80.4922 17.9531L79.5703 17.9844C78.7995 18.0052 78.263 18.1432 77.9609 18.3984C77.6641 18.6536 77.5156 18.9896 77.5156 19.4062C77.5156 19.7708 77.6224 20.0312 77.8359 20.1875C78.0495 20.3385 78.3281 20.4141 78.6719 20.4141C79.1823 20.4141 79.612 20.263 79.9609 19.9609C80.3151 19.6589 80.4922 19.2292 80.4922 18.6719V17.9531ZM95.5781 13.1016C96.5677 13.1016 97.3151 13.3568 97.8203 13.8672C98.3307 14.3724 98.5859 15.1849 98.5859 16.3047V22H96.1953V16.8984C96.1953 16.2734 96.0885 15.8021 95.875 15.4844C95.6615 15.1667 95.3307 15.0078 94.8828 15.0078C94.2526 15.0078 93.8047 15.2344 93.5391 15.6875C93.2734 16.1354 93.1406 16.7786 93.1406 17.6172V22H90.7578V16.8984C90.7578 16.4818 90.7109 16.1328 90.6172 15.8516C90.5234 15.5703 90.3802 15.3594 90.1875 15.2188C89.9948 15.0781 89.7474 15.0078 89.4453 15.0078C89.0026 15.0078 88.6536 15.1198 88.3984 15.3438C88.1484 15.5625 87.9688 15.888 87.8594 16.3203C87.7552 16.7474 87.7031 17.2708 87.7031 17.8906V22H85.3203V13.2656H87.1406L87.4609 14.3828H87.5938C87.7708 14.0807 87.9922 13.8359 88.2578 13.6484C88.5286 13.4609 88.8255 13.3229 89.1484 13.2344C89.4714 13.1458 89.7995 13.1016 90.1328 13.1016C90.7734 13.1016 91.3151 13.2057 91.7578 13.4141C92.2057 13.6224 92.5495 13.9453 92.7891 14.3828H93C93.2604 13.9349 93.6276 13.6094 94.1016 13.4062C94.5807 13.2031 95.0729 13.1016 95.5781 13.1016ZM103.422 13.2656V22H101.039V13.2656H103.422ZM102.234 9.84375C102.589 9.84375 102.893 9.92708 103.148 10.0938C103.404 10.2552 103.531 10.5599 103.531 11.0078C103.531 11.4505 103.404 11.7578 103.148 11.9297C102.893 12.0964 102.589 12.1797 102.234 12.1797C101.875 12.1797 101.568 12.0964 101.312 11.9297C101.062 11.7578 100.938 11.4505 100.938 11.0078C100.938 10.5599 101.062 10.2552 101.312 10.0938C101.568 9.92708 101.875 9.84375 102.234 9.84375ZM109.477 22.1562C108.612 22.1562 107.875 22 107.266 21.6875C106.656 21.3698 106.193 20.8802 105.875 20.2188C105.557 19.5573 105.398 18.7109 105.398 17.6797C105.398 16.612 105.578 15.7422 105.938 15.0703C106.302 14.3932 106.805 13.8958 107.445 13.5781C108.091 13.2604 108.839 13.1016 109.688 13.1016C110.292 13.1016 110.812 13.1615 111.25 13.2812C111.693 13.3958 112.078 13.5339 112.406 13.6953L111.703 15.5391C111.328 15.388 110.979 15.2656 110.656 15.1719C110.333 15.0729 110.01 15.0234 109.688 15.0234C109.271 15.0234 108.924 15.1224 108.648 15.3203C108.372 15.513 108.167 15.8047 108.031 16.1953C107.896 16.5859 107.828 17.0755 107.828 17.6641C107.828 18.2422 107.901 18.7214 108.047 19.1016C108.193 19.4818 108.404 19.7656 108.68 19.9531C108.956 20.1354 109.292 20.2266 109.688 20.2266C110.182 20.2266 110.622 20.1615 111.008 20.0312C111.393 19.8958 111.768 19.7083 112.133 19.4688V21.5078C111.768 21.737 111.385 21.901 110.984 22C110.589 22.1042 110.086 22.1562 109.477 22.1562ZM32.4219 40L29.0938 31.2656H31.5859L33.2734 36.2422C33.3672 36.5339 33.4401 36.8411 33.4922 37.1641C33.5495 37.487 33.5885 37.776 33.6094 38.0312H33.6719C33.6875 37.7552 33.724 37.4609 33.7812 37.1484C33.8438 36.8359 33.9245 36.5339 34.0234 36.2422L35.7031 31.2656H38.1953L34.8672 40H32.4219ZM41.8359 31.2656V40H39.4531V31.2656H41.8359ZM40.6484 27.8438C41.0026 27.8438 41.3073 27.9271 41.5625 28.0938C41.8177 28.2552 41.9453 28.5599 41.9453 29.0078C41.9453 29.4505 41.8177 29.7578 41.5625 29.9297C41.3073 30.0964 41.0026 30.1797 40.6484 30.1797C40.2891 30.1797 39.9818 30.0964 39.7266 29.9297C39.4766 29.7578 39.3516 29.4505 39.3516 29.0078C39.3516 28.5599 39.4766 28.2552 39.7266 28.0938C39.9818 27.9271 40.2891 27.8438 40.6484 27.8438ZM50.4375 37.4062C50.4375 38 50.2969 38.5026 50.0156 38.9141C49.7396 39.3203 49.3255 39.6302 48.7734 39.8438C48.2214 40.0521 47.5339 40.1562 46.7109 40.1562C46.1016 40.1562 45.5781 40.1172 45.1406 40.0391C44.7083 39.9609 44.2708 39.8307 43.8281 39.6484V37.6797C44.3021 37.8932 44.8099 38.0703 45.3516 38.2109C45.8984 38.3464 46.3776 38.4141 46.7891 38.4141C47.2526 38.4141 47.5833 38.3464 47.7812 38.2109C47.9844 38.0703 48.0859 37.888 48.0859 37.6641C48.0859 37.5182 48.0443 37.388 47.9609 37.2734C47.8828 37.1536 47.7109 37.0208 47.4453 36.875C47.1797 36.724 46.763 36.5286 46.1953 36.2891C45.6484 36.0599 45.1979 35.8281 44.8438 35.5938C44.4948 35.3594 44.2344 35.0833 44.0625 34.7656C43.8958 34.4427 43.8125 34.0339 43.8125 33.5391C43.8125 32.7318 44.125 32.125 44.75 31.7188C45.3802 31.3073 46.2214 31.1016 47.2734 31.1016C47.8151 31.1016 48.3307 31.1562 48.8203 31.2656C49.3151 31.375 49.8229 31.5495 50.3438 31.7891L49.625 33.5078C49.1927 33.3203 48.7839 33.1667 48.3984 33.0469C48.0182 32.9271 47.6302 32.8672 47.2344 32.8672C46.8854 32.8672 46.6224 32.9141 46.4453 33.0078C46.2682 33.1016 46.1797 33.2448 46.1797 33.4375C46.1797 33.5781 46.224 33.7031 46.3125 33.8125C46.4062 33.9219 46.5833 34.0443 46.8438 34.1797C47.1094 34.3099 47.4974 34.4792 48.0078 34.6875C48.5026 34.8906 48.9323 35.1042 49.2969 35.3281C49.6615 35.5469 49.9427 35.8203 50.1406 36.1484C50.3385 36.4714 50.4375 36.8906 50.4375 37.4062ZM60.3125 31.2656V40H58.4844L58.1641 38.8828H58.0391C57.8516 39.1797 57.6172 39.4219 57.3359 39.6094C57.0547 39.7969 56.7448 39.9349 56.4062 40.0234C56.0677 40.112 55.7161 40.1562 55.3516 40.1562C54.7266 40.1562 54.1823 40.0469 53.7188 39.8281C53.2552 39.6042 52.8932 39.2578 52.6328 38.7891C52.3776 38.3203 52.25 37.7109 52.25 36.9609V31.2656H54.6328V36.3672C54.6328 36.9922 54.7448 37.4635 54.9688 37.7812C55.1927 38.099 55.5495 38.2578 56.0391 38.2578C56.5234 38.2578 56.9036 38.1484 57.1797 37.9297C57.4557 37.7057 57.6484 37.3802 57.7578 36.9531C57.8724 36.5208 57.9297 35.9948 57.9297 35.375V31.2656H60.3125ZM66.3906 31.0859C67.5625 31.0859 68.4609 31.3411 69.0859 31.8516C69.7109 32.362 70.0234 33.138 70.0234 34.1797V40H68.3594L67.8984 38.8125H67.8359C67.5859 39.125 67.3307 39.3802 67.0703 39.5781C66.8099 39.776 66.5104 39.9219 66.1719 40.0156C65.8333 40.1094 65.4219 40.1562 64.9375 40.1562C64.4219 40.1562 63.9583 40.0573 63.5469 39.8594C63.1406 39.6615 62.8203 39.3594 62.5859 38.9531C62.3516 38.5417 62.2344 38.0208 62.2344 37.3906C62.2344 36.4635 62.5599 35.7812 63.2109 35.3438C63.862 34.901 64.8385 34.6562 66.1406 34.6094L67.6562 34.5625V34.1797C67.6562 33.7214 67.5365 33.3854 67.2969 33.1719C67.0573 32.9583 66.724 32.8516 66.2969 32.8516C65.875 32.8516 65.4609 32.9115 65.0547 33.0312C64.6484 33.151 64.2422 33.3021 63.8359 33.4844L63.0469 31.875C63.5104 31.6302 64.0286 31.4375 64.6016 31.2969C65.1797 31.1562 65.776 31.0859 66.3906 31.0859ZM67.6562 35.9531L66.7344 35.9844C65.9635 36.0052 65.4271 36.1432 65.125 36.3984C64.8281 36.6536 64.6797 36.9896 64.6797 37.4062C64.6797 37.7708 64.7865 38.0312 65 38.1875C65.2135 38.3385 65.4922 38.4141 65.8359 38.4141C66.3464 38.4141 66.776 38.263 67.125 37.9609C67.4792 37.6589 67.6562 37.2292 67.6562 36.6719V35.9531ZM74.8672 40H72.4844V27.8438H74.8672V40ZM79.7578 31.2656V40H77.375V31.2656H79.7578ZM78.5703 27.8438C78.9245 27.8438 79.2292 27.9271 79.4844 28.0938C79.7396 28.2552 79.8672 28.5599 79.8672 29.0078C79.8672 29.4505 79.7396 29.7578 79.4844 29.9297C79.2292 30.0964 78.9245 30.1797 78.5703 30.1797C78.2109 30.1797 77.9036 30.0964 77.6484 29.9297C77.3984 29.7578 77.2734 29.4505 77.2734 29.0078C77.2734 28.5599 77.3984 28.2552 77.6484 28.0938C77.9036 27.9271 78.2109 27.8438 78.5703 27.8438ZM88.3594 37.4062C88.3594 38 88.2188 38.5026 87.9375 38.9141C87.6615 39.3203 87.2474 39.6302 86.6953 39.8438C86.1432 40.0521 85.4557 40.1562 84.6328 40.1562C84.0234 40.1562 83.5 40.1172 83.0625 40.0391C82.6302 39.9609 82.1927 39.8307 81.75 39.6484V37.6797C82.224 37.8932 82.7318 38.0703 83.2734 38.2109C83.8203 38.3464 84.2995 38.4141 84.7109 38.4141C85.1745 38.4141 85.5052 38.3464 85.7031 38.2109C85.9062 38.0703 86.0078 37.888 86.0078 37.6641C86.0078 37.5182 85.9661 37.388 85.8828 37.2734C85.8047 37.1536 85.6328 37.0208 85.3672 36.875C85.1016 36.724 84.6849 36.5286 84.1172 36.2891C83.5703 36.0599 83.1198 35.8281 82.7656 35.5938C82.4167 35.3594 82.1562 35.0833 81.9844 34.7656C81.8177 34.4427 81.7344 34.0339 81.7344 33.5391C81.7344 32.7318 82.0469 32.125 82.6719 31.7188C83.3021 31.3073 84.1432 31.1016 85.1953 31.1016C85.737 31.1016 86.2526 31.1562 86.7422 31.2656C87.237 31.375 87.7448 31.5495 88.2656 31.7891L87.5469 33.5078C87.1146 33.3203 86.7057 33.1667 86.3203 33.0469C85.9401 32.9271 85.5521 32.8672 85.1562 32.8672C84.8073 32.8672 84.5443 32.9141 84.3672 33.0078C84.1901 33.1016 84.1016 33.2448 84.1016 33.4375C84.1016 33.5781 84.1458 33.7031 84.2344 33.8125C84.3281 33.9219 84.5052 34.0443 84.7656 34.1797C85.0312 34.3099 85.4193 34.4792 85.9297 34.6875C86.4245 34.8906 86.8542 35.1042 87.2188 35.3281C87.5833 35.5469 87.8646 35.8203 88.0625 36.1484C88.2604 36.4714 88.3594 36.8906 88.3594 37.4062ZM93.7969 31.0859C94.9688 31.0859 95.8672 31.3411 96.4922 31.8516C97.1172 32.362 97.4297 33.138 97.4297 34.1797V40H95.7656L95.3047 38.8125H95.2422C94.9922 39.125 94.737 39.3802 94.4766 39.5781C94.2161 39.776 93.9167 39.9219 93.5781 40.0156C93.2396 40.1094 92.8281 40.1562 92.3438 40.1562C91.8281 40.1562 91.3646 40.0573 90.9531 39.8594C90.5469 39.6615 90.2266 39.3594 89.9922 38.9531C89.7578 38.5417 89.6406 38.0208 89.6406 37.3906C89.6406 36.4635 89.9661 35.7812 90.6172 35.3438C91.2682 34.901 92.2448 34.6562 93.5469 34.6094L95.0625 34.5625V34.1797C95.0625 33.7214 94.9427 33.3854 94.7031 33.1719C94.4635 32.9583 94.1302 32.8516 93.7031 32.8516C93.2812 32.8516 92.8672 32.9115 92.4609 33.0312C92.0547 33.151 91.6484 33.3021 91.2422 33.4844L90.4531 31.875C90.9167 31.6302 91.4349 31.4375 92.0078 31.2969C92.5859 31.1562 93.1823 31.0859 93.7969 31.0859ZM95.0625 35.9531L94.1406 35.9844C93.3698 36.0052 92.8333 36.1432 92.5312 36.3984C92.2344 36.6536 92.0859 36.9896 92.0859 37.4062C92.0859 37.7708 92.1927 38.0312 92.4062 38.1875C92.6198 38.3385 92.8984 38.4141 93.2422 38.4141C93.7526 38.4141 94.1823 38.263 94.5312 37.9609C94.8854 37.6589 95.0625 37.2292 95.0625 36.6719V35.9531ZM103.57 38.2578C103.831 38.2578 104.083 38.2318 104.328 38.1797C104.578 38.1276 104.826 38.0625 105.07 37.9844V39.7578C104.815 39.8724 104.497 39.9661 104.117 40.0391C103.742 40.1172 103.331 40.1562 102.883 40.1562C102.362 40.1562 101.893 40.0729 101.477 39.9062C101.065 39.7344 100.74 39.4401 100.5 39.0234C100.266 38.6016 100.148 38.0156 100.148 37.2656V33.0547H99.0078V32.0469L100.32 31.25L101.008 29.4062H102.531V31.2656H104.977V33.0547H102.531V37.2656C102.531 37.599 102.625 37.849 102.812 38.0156C103.005 38.1771 103.258 38.2578 103.57 38.2578ZM109.227 31.2656V40H106.844V31.2656H109.227ZM108.039 27.8438C108.393 27.8438 108.698 27.9271 108.953 28.0938C109.208 28.2552 109.336 28.5599 109.336 29.0078C109.336 29.4505 109.208 29.7578 108.953 29.9297C108.698 30.0964 108.393 30.1797 108.039 30.1797C107.68 30.1797 107.372 30.0964 107.117 29.9297C106.867 29.7578 106.742 29.4505 106.742 29.0078C106.742 28.5599 106.867 28.2552 107.117 28.0938C107.372 27.9271 107.68 27.8438 108.039 27.8438ZM119.672 35.6172C119.672 36.3464 119.573 36.9922 119.375 37.5547C119.182 38.1172 118.898 38.5938 118.523 38.9844C118.154 39.3698 117.706 39.6615 117.18 39.8594C116.659 40.0573 116.07 40.1562 115.414 40.1562C114.799 40.1562 114.234 40.0573 113.719 39.8594C113.208 39.6615 112.763 39.3698 112.383 38.9844C112.008 38.5938 111.716 38.1172 111.508 37.5547C111.305 36.9922 111.203 36.3464 111.203 35.6172C111.203 34.6484 111.375 33.8281 111.719 33.1562C112.062 32.4844 112.552 31.974 113.188 31.625C113.823 31.276 114.581 31.1016 115.461 31.1016C116.279 31.1016 117.003 31.276 117.633 31.625C118.268 31.974 118.766 32.4844 119.125 33.1562C119.49 33.8281 119.672 34.6484 119.672 35.6172ZM113.633 35.6172C113.633 36.1901 113.695 36.6719 113.82 37.0625C113.945 37.4531 114.141 37.7474 114.406 37.9453C114.672 38.1432 115.018 38.2422 115.445 38.2422C115.867 38.2422 116.208 38.1432 116.469 37.9453C116.734 37.7474 116.927 37.4531 117.047 37.0625C117.172 36.6719 117.234 36.1901 117.234 35.6172C117.234 35.0391 117.172 34.5599 117.047 34.1797C116.927 33.7943 116.734 33.5052 116.469 33.3125C116.203 33.1198 115.857 33.0234 115.43 33.0234C114.799 33.0234 114.341 33.2396 114.055 33.6719C113.773 34.1042 113.633 34.7526 113.633 35.6172ZM126.602 31.1016C127.534 31.1016 128.284 31.3568 128.852 31.8672C129.419 32.3724 129.703 33.1849 129.703 34.3047V40H127.32V34.8984C127.32 34.2734 127.206 33.8021 126.977 33.4844C126.753 33.1667 126.398 33.0078 125.914 33.0078C125.185 33.0078 124.688 33.2552 124.422 33.75C124.156 34.2448 124.023 34.9583 124.023 35.8906V40H121.641V31.2656H123.461L123.781 32.3828H123.914C124.102 32.0807 124.333 31.8359 124.609 31.6484C124.891 31.4609 125.201 31.3229 125.539 31.2344C125.883 31.1458 126.237 31.1016 126.602 31.1016Z" fill="white"/>
<path d="M47.3818 93.3439L79.7873 75.5457L112.689 93.3439V129.295L79.7873 147.022L47.3818 129.295V93.3439Z" fill="white" stroke="#333333" stroke-width="0.0703125"/>
<path fill-rule="evenodd" clip-rule="evenodd" d="M112.9 95.3441L110.248 91.6442L80.1208 113.18L60.5382 101.655L46.1089 122.831L49.8762 125.391L61.903 107.74L80.3618 118.604L112.9 95.3441Z" fill="#4DAA9C"/>
<path d="M84.787 93.4048L82.6404 92.7343L80.6381 99.1444L82.7847 99.8149L84.787 93.4048Z" fill="#333333"/>
<path d="M74.8369 93.405L76.9835 92.7345L78.9858 99.1446L76.8392 99.8151L74.8369 93.405Z" fill="#333333"/>
<path fill-rule="evenodd" clip-rule="evenodd" d="M92.7431 97.3295L91.5073 102.426L88.4552 104.835L100.664 124.108L107.515 128.948L91.1926 138.198L91.1861 137.278L86.5276 126.036L77.6927 116.078L70.8022 119.595L65.1799 115.098L69.179 105.478L66.6088 102.105L65.5298 97.3274C65.5079 97.2303 65.5901 97.1415 65.6885 97.1558L73.8374 98.3375L83.1543 98.4981L92.5853 97.1556C92.6846 97.1415 92.7667 97.232 92.7431 97.3295Z" fill="#FC7E24"/>
<path fill-rule="evenodd" clip-rule="evenodd" d="M70.7025 97.8832L65.6885 97.1561C65.5901 97.1418 65.5079 97.2306 65.5298 97.3277L66.6088 102.105L69.179 105.478L65.1799 115.098L70.8022 119.595L77.6927 116.078L86.5276 126.036L89.0544 132.134L92.9167 127.614L102.173 129.331L104.473 135.83L111.566 131.81L100.664 124.109L98.0858 120.039L95.3447 121.622L86.6824 116.621V106.618L88.8073 105.391L88.4553 104.836L91.5073 102.427L92.7431 97.3298C92.7667 97.2323 92.6846 97.1418 92.5853 97.1559L83.1543 98.4984L79.3649 98.433V102.179L75.0337 104.679L70.7025 102.179V97.8832Z" fill="#FEC955"/>
<path fill-rule="evenodd" clip-rule="evenodd" d="M92.4555 96.243C93.1999 96.1371 93.8162 96.8159 93.639 97.5467L92.4379 102.501C92.3669 102.794 92.1998 103.054 91.9633 103.241L89.6787 105.044L101.345 123.461L110.775 130.123C111.644 130.737 111.115 131.957 110.25 131.998L92.3024 142.168C91.4079 142.675 90.2983 142.034 90.2909 141.006L90.2656 137.465L85.7354 126.532L77.4766 117.223L71.466 120.291C70.9943 120.532 70.4254 120.474 70.0119 120.143L64.8542 116.018C64.3854 115.643 64.2212 115.003 64.4517 114.448L68.1241 105.614L65.9319 102.737C65.8147 102.584 65.7319 102.406 65.6893 102.218L64.6307 97.5304C64.4664 96.8028 65.0826 96.1364 65.8209 96.2435L73.9119 97.4168L83.097 97.5751L92.4555 96.243ZM91.5762 98.2304L83.3177 99.4059C83.2472 99.416 83.1759 99.4204 83.1047 99.4192L73.7631 99.2581L66.679 98.2308L67.4638 101.706L69.7638 104.724C70.0549 105.106 70.1206 105.614 69.9362 106.058L66.2974 114.811L70.9133 118.503L76.9805 115.407C77.5272 115.127 78.1934 115.253 78.6008 115.712L87.1698 125.37C87.2692 125.482 87.3493 125.61 87.4067 125.749L92.0059 136.849C92.0724 137.009 92.1073 137.181 92.1085 137.355L92.1285 140.148L108.577 130.827L100.201 124.91C100.057 124.808 99.9341 124.679 99.8398 124.53L87.8818 105.653C87.5125 105.07 87.6435 104.302 88.1852 103.874L90.6865 101.9L91.5762 98.2304Z" fill="#333333"/>
<path d="M84.171 87.7339L86.6066 88.4947L87.1655 90.9843L85.2889 92.7132L82.8533 91.9524L82.2944 89.4628L84.171 87.7339Z" fill="#FEC955"/>
<path fill-rule="evenodd" clip-rule="evenodd" d="M83.8123 86.1361L87.811 87.3851L88.7286 91.4726L85.6476 94.311L81.6489 93.062L80.7313 88.9745L83.8123 86.1361ZM86.6066 88.4947L84.171 87.7339L82.2944 89.4628L82.8533 91.9524L85.2889 92.7132L87.1655 90.9843L86.6066 88.4947Z" fill="#333333"/>
<path d="M75.453 87.734L73.0174 88.4947L72.4585 90.9844L74.3352 92.7133L76.7707 91.9525L77.3297 89.4628L75.453 87.734Z" fill="#FEC955"/>
<path fill-rule="evenodd" clip-rule="evenodd" d="M75.8117 86.1361L71.813 87.3852L70.8954 91.4726L73.9764 94.3111L77.9751 93.062L78.8927 88.9746L75.8117 86.1361ZM73.0174 88.4947L75.453 87.734L77.3296 89.4628L76.7707 91.9525L74.3351 92.7133L72.4585 90.9844L73.0174 88.4947Z" fill="#333333"/>
<path d="M81.0815 105.512C81.0815 106.376 80.3519 107.077 79.4518 107.077C78.5518 107.077 77.8221 106.376 77.8221 105.512C77.8221 104.648 78.5518 103.948 79.4518 103.948C80.3519 103.948 81.0815 104.648 81.0815 105.512Z" fill="#333333"/>
<path fill-rule="evenodd" clip-rule="evenodd" d="M79.4518 106.935C80.2791 106.935 80.9397 106.292 80.9397 105.512C80.9397 104.732 80.2791 104.089 79.4518 104.089C78.6246 104.089 77.964 104.732 77.964 105.512C77.964 106.292 78.6246 106.935 79.4518 106.935ZM79.4518 107.077C80.3519 107.077 81.0815 106.376 81.0815 105.512C81.0815 104.648 80.3519 103.948 79.4518 103.948C78.5518 103.948 77.8221 104.648 77.8221 105.512C77.8221 106.376 78.5518 107.077 79.4518 107.077Z" fill="#333333"/>
<path fill-rule="evenodd" clip-rule="evenodd" d="M80 77.9447L50.0095 94.4725V127.528L80 144.056L109.99 127.528V94.4725L80 77.9447ZM115.384 92.8406C115.384 92.0138 114.934 91.2524 114.21 90.8533L81.0952 72.6038C80.4134 72.2281 79.5866 72.2281 78.9048 72.6038L45.7902 90.8533C45.0661 91.2524 44.6163 92.0138 44.6163 92.8406V129.16C44.6163 129.987 45.0661 130.748 45.7902 131.147L78.9048 149.397C79.5866 149.772 80.4134 149.772 81.0952 149.397L114.21 131.147C114.934 130.748 115.384 129.987 115.384 129.16V92.8406Z" fill="#333333"/>
<path d="M79.356 106.432L79.9201 106.255C80.1949 106.169 80.4156 105.962 80.5196 105.694C80.7924 104.99 80.1724 104.265 79.4349 104.426L78.8572 104.552C78.502 104.629 78.2195 104.898 78.1245 105.249C77.9235 105.991 78.6221 106.663 79.356 106.432Z" fill="#333333"/>
<path fill-rule="evenodd" clip-rule="evenodd" d="M77.7822 105.156C77.5081 106.169 78.4611 107.085 79.4621 106.77L80.0262 106.593C80.4039 106.475 80.7072 106.191 80.8502 105.822C81.2251 104.854 80.3731 103.859 79.3594 104.079L78.7817 104.205C78.2972 104.311 77.9118 104.677 77.7822 105.156ZM79.2498 106.094C78.7831 106.24 78.3389 105.813 78.4667 105.341C78.5271 105.118 78.7067 104.947 78.9326 104.898L79.5103 104.772C79.9718 104.672 80.3597 105.125 80.189 105.566C80.1239 105.734 79.9858 105.863 79.8139 105.917L79.2498 106.094Z" fill="#333333"/>
<rect x="105.221" y="95.1058" width="77.6065" height="4.5" transform="rotate(-35 105.221 95.1058)" fill="url(#paint5_linear_21130_2607)"/>
<rect x="-32.9901" y="121.391" width="77.6065" height="5" fill="url(#paint6_linear_21130_2607)"/>
</g>
<defs>
<linearGradient id="paint0_linear_21130_2607" x1="-75.8376" y1="159.848" x2="157.6" y2="159.848" gradientUnits="userSpaceOnUse">
<stop offset="0.0616663" stop-color="#FED77F"/>
</linearGradient>
<linearGradient id="paint1_linear_21130_2607" x1="9.59961" y1="200.895" x2="209.689" y2="200.895" gradientUnits="userSpaceOnUse">
<stop offset="0.0616663" stop-color="#FED77F"/>
</linearGradient>
<linearGradient id="paint2_linear_21130_2607" x1="-63.7246" y1="282.56" x2="236.41" y2="282.56" gradientUnits="userSpaceOnUse">
<stop offset="0.0616663" stop-color="#FED77F"/>
</linearGradient>
<linearGradient id="paint3_linear_21130_2607" x1="-99.7838" y1="177.229" x2="133.654" y2="177.229" gradientUnits="userSpaceOnUse">
<stop offset="0.0616663" stop-color="#FED77F"/>
</linearGradient>
<linearGradient id="paint4_linear_21130_2607" x1="-39.1405" y1="170.55" x2="194.298" y2="170.55" gradientUnits="userSpaceOnUse">
<stop offset="0.0616663" stop-color="#FED77F"/>
</linearGradient>
<linearGradient id="paint5_linear_21130_2607" x1="105.221" y1="97.3558" x2="182.827" y2="97.3558" gradientUnits="userSpaceOnUse">
<stop stop-color="#4DAA9C"/>
<stop offset="0.526666" stop-color="#FDB515"/>
</linearGradient>
<linearGradient id="paint6_linear_21130_2607" x1="-32.9901" y1="123.891" x2="44.6164" y2="123.891" gradientUnits="userSpaceOnUse">
<stop stop-color="#4DAA9C"/>
</linearGradient>
<clipPath id="clip0_21130_2607">
<rect width="160" height="160" rx="8" fill="white"/>
</clipPath>
</defs>
</svg>
