<svg width="900" height="350" viewBox="0 0 900 350" fill="none" xmlns="http://www.w3.org/2000/svg">
<g clip-path="url(#clip0_21126_1140)">
<rect width="900" height="350" fill="#FDF8D3"/>
<rect x="-95" y="203.867" width="423.425" height="27.6714" transform="rotate(-35 -95 203.867)" fill="url(#paint0_linear_21126_1140)" fill-opacity="0.34"/>
<rect x="624" y="376.503" width="700" height="67.2529" transform="rotate(-35 624 376.503)" fill="url(#paint1_linear_21126_1140)" fill-opacity="0.26"/>
<rect x="-315.361" y="175.518" width="635.138" height="105.847" transform="rotate(-35 -315.361 175.518)" fill="url(#paint2_linear_21126_1140)" fill-opacity="0.28"/>
<rect x="513" y="350" width="700" height="33.89" transform="rotate(-35 513 350)" fill="url(#paint3_linear_21126_1140)" fill-opacity="0.16"/>
<rect x="478" y="440.146" width="600" height="8" transform="rotate(-35 478 440.146)" fill="url(#paint4_linear_21126_1140)"/>
<rect x="387" y="394.503" width="700" height="9.71566" transform="rotate(-35 387 394.503)" fill="url(#paint5_linear_21126_1140)" fill-opacity="0.13"/>
<rect x="-95" y="254.3" width="635.138" height="6.56648" transform="rotate(-35 -95 254.3)" fill="url(#paint6_linear_21126_1140)" fill-opacity="0.15"/>
<rect x="131.9" y="325.628" width="635.138" height="5.64567" transform="rotate(-35 131.9 325.628)" fill="url(#paint7_linear_21126_1140)" fill-opacity="0.09"/>
<rect x="608.954" y="427.256" width="700" height="153.872" transform="rotate(-35 608.954 427.256)" fill="url(#paint8_linear_21126_1140)" fill-opacity="0.16"/>
</g>
<defs>
<linearGradient id="paint0_linear_21126_1140" x1="-95" y1="217.702" x2="328.425" y2="217.702" gradientUnits="userSpaceOnUse">
<stop offset="0.0616663" stop-color="#FED77F"/>
</linearGradient>
<linearGradient id="paint1_linear_21126_1140" x1="624" y1="410.13" x2="1324" y2="410.13" gradientUnits="userSpaceOnUse">
<stop offset="0.0616663" stop-color="#FED77F"/>
</linearGradient>
<linearGradient id="paint2_linear_21126_1140" x1="-315.361" y1="228.442" x2="319.777" y2="228.442" gradientUnits="userSpaceOnUse">
<stop offset="0.0616663" stop-color="#FED77F"/>
</linearGradient>
<linearGradient id="paint3_linear_21126_1140" x1="513" y1="366.945" x2="1213" y2="366.945" gradientUnits="userSpaceOnUse">
<stop offset="0.0616663" stop-color="#FED77F"/>
</linearGradient>
<linearGradient id="paint4_linear_21126_1140" x1="478" y1="444.146" x2="1078" y2="444.146" gradientUnits="userSpaceOnUse">
<stop stop-color="#4DAA9C"/>
<stop offset="0.0616663" stop-color="#FDB515"/>
</linearGradient>
<linearGradient id="paint5_linear_21126_1140" x1="387" y1="399.361" x2="1087" y2="399.361" gradientUnits="userSpaceOnUse">
<stop offset="0.0616663" stop-color="#FED77F"/>
</linearGradient>
<linearGradient id="paint6_linear_21126_1140" x1="-95" y1="257.583" x2="540.138" y2="257.583" gradientUnits="userSpaceOnUse">
<stop offset="0.0616663" stop-color="#FED77F"/>
</linearGradient>
<linearGradient id="paint7_linear_21126_1140" x1="131.9" y1="328.451" x2="767.038" y2="328.451" gradientUnits="userSpaceOnUse">
<stop offset="0.0616663" stop-color="#FED77F"/>
</linearGradient>
<linearGradient id="paint8_linear_21126_1140" x1="608.954" y1="504.192" x2="1308.95" y2="504.192" gradientUnits="userSpaceOnUse">
<stop offset="0.0616663" stop-color="#FED77F"/>
</linearGradient>
<clipPath id="clip0_21126_1140">
<rect width="900" height="350" fill="white"/>
</clipPath>
</defs>
</svg>
