<svg width="1500" height="350" viewBox="0 0 1500 350" fill="none" xmlns="http://www.w3.org/2000/svg">
<g clip-path="url(#clip0_11361_1272)">
<rect width="1500" height="350" fill="#79BFB5"/>
<path d="M463.303 294.585C464.232 294.871 464.232 296.129 463.303 296.415L458.963 297.754C458.547 297.883 458.265 298.253 458.266 298.671L458.276 303.035C458.278 303.968 457.029 304.357 456.457 303.6L453.784 300.065C453.528 299.726 453.072 299.584 452.657 299.714L448.322 301.072C447.395 301.362 446.623 300.345 447.198 299.591L449.887 296.067C450.144 295.729 450.144 295.271 449.887 294.933L447.198 291.409C446.623 290.655 447.395 289.638 448.322 289.928L452.657 291.286C453.072 291.416 453.528 291.274 453.784 290.935L456.457 287.4C457.029 286.643 458.278 287.032 458.276 287.965L458.266 292.329C458.265 292.747 458.547 293.117 458.963 293.246L463.303 294.585Z" fill="white"/>
<path d="M747.303 21.5849C748.232 21.8715 748.232 23.1285 747.303 23.4151L742.963 24.7543C742.547 24.8826 742.265 25.2534 742.266 25.6714L742.276 30.0346C742.278 30.9681 741.029 31.3566 740.457 30.6001L737.784 27.0647C737.528 26.7259 737.072 26.5843 736.657 26.7143L732.322 28.0717C731.395 28.3621 730.623 27.3451 731.198 26.5911L733.887 23.0668C734.144 22.7291 734.144 22.2709 733.887 21.9332L731.198 18.4089C730.623 17.6549 731.395 16.6379 732.322 16.9283L736.657 18.2857C737.072 18.4157 737.528 18.2741 737.784 17.9353L740.457 14.3999C741.029 13.6434 742.278 14.0319 742.276 14.9654L742.266 19.3286C742.265 19.7466 742.547 20.1174 742.963 20.2457L747.303 21.5849Z" fill="white"/>
<path d="M412.303 -3.41507C413.232 -3.12853 413.232 -1.87147 412.303 -1.58493L407.963 -0.245725C407.547 -0.117398 407.265 0.253358 407.266 0.671445L407.276 5.03456C407.278 5.96811 406.029 6.35656 405.457 5.6001L402.784 2.06466C402.528 1.72589 402.072 1.58427 401.657 1.71433L397.322 3.07168C396.395 3.36211 395.623 2.34513 396.198 1.59107L398.887 -1.93316C399.144 -2.27086 399.144 -2.72914 398.887 -3.06684L396.198 -6.59107C395.623 -7.34513 396.395 -8.36211 397.322 -8.07168L401.657 -6.71434C402.072 -6.58427 402.528 -6.72589 402.784 -7.06466L405.457 -10.6001C406.029 -11.3566 407.278 -10.9681 407.276 -10.0346L407.266 -5.67145C407.265 -5.25336 407.547 -4.8826 407.963 -4.75428L412.303 -3.41507Z" fill="white"/>
<path d="M515.262 47.0311C516.246 47.3345 516.246 48.6655 515.262 48.9689L510.666 50.3869C510.226 50.5228 509.928 50.9153 509.929 51.358L509.939 55.9778C509.942 56.9662 508.618 57.3775 508.013 56.5766L505.183 52.8332C504.912 52.4745 504.429 52.3245 503.99 52.4622L499.4 53.8994C498.418 54.2069 497.6 53.1301 498.209 52.3317L501.057 48.6002C501.329 48.2426 501.329 47.7574 501.057 47.3998L498.209 43.6683C497.6 42.8699 498.418 41.7931 499.4 42.1006L503.99 43.5378C504.429 43.6755 504.912 43.5255 505.183 43.1668L508.013 39.4234C508.618 38.6225 509.942 39.0338 509.939 40.0222L509.929 44.642C509.928 45.0847 510.226 45.4772 510.666 45.6131L515.262 47.0311Z" fill="white"/>
<path d="M653.853 193.385C655.382 193.891 655.382 196.109 653.853 196.615L646.703 198.978C646.018 199.205 645.554 199.859 645.556 200.597L645.572 208.296C645.576 209.944 643.518 210.629 642.576 209.294L638.174 203.055C637.752 202.457 637.001 202.208 636.317 202.437L629.178 204.832C627.65 205.345 626.378 203.55 627.326 202.22L631.755 196C632.179 195.404 632.179 194.596 631.755 194L627.326 187.78C626.378 186.45 627.65 184.655 629.178 185.168L636.317 187.563C637.001 187.792 637.752 187.543 638.174 186.945L642.576 180.706C643.518 179.371 645.576 180.056 645.572 181.704L645.556 189.403C645.554 190.141 646.018 190.795 646.703 191.022L653.853 193.385Z" fill="white"/>
<path d="M536.303 176.031C537.232 176.335 537.232 177.665 536.303 177.969L531.963 179.387C531.547 179.523 531.265 179.915 531.266 180.358L531.276 184.978C531.278 185.966 530.029 186.378 529.457 185.577L526.784 181.833C526.528 181.474 526.072 181.325 525.657 181.462L521.322 182.899C520.395 183.207 519.623 182.13 520.198 181.332L522.887 177.6C523.144 177.243 523.144 176.757 522.887 176.4L520.198 172.668C519.623 171.87 520.395 170.793 521.322 171.101L525.657 172.538C526.072 172.675 526.528 172.526 526.784 172.167L529.457 168.423C530.029 167.622 531.278 168.034 531.276 169.022L531.266 173.642C531.265 174.085 531.547 174.477 531.963 174.613L536.303 176.031Z" fill="white"/>
<path d="M336.303 192.031C337.232 192.335 337.232 193.665 336.303 193.969L331.963 195.387C331.547 195.523 331.265 195.915 331.266 196.358L331.276 200.978C331.278 201.966 330.029 202.378 329.457 201.577L326.784 197.833C326.528 197.474 326.072 197.325 325.657 197.462L321.322 198.899C320.395 199.207 319.623 198.13 320.198 197.332L322.887 193.6C323.144 193.243 323.144 192.757 322.887 192.4L320.198 188.668C319.623 187.87 320.395 186.793 321.322 187.101L325.657 188.538C326.072 188.675 326.528 188.526 326.784 188.167L329.457 184.423C330.029 183.622 331.278 184.034 331.276 185.022L331.266 189.642C331.265 190.085 331.547 190.477 331.963 190.613L336.303 192.031Z" fill="white"/>
<path d="M82.3034 271.031C83.2322 271.335 83.2322 272.665 82.3034 272.969L77.9627 274.387C77.5468 274.523 77.2652 274.915 77.2662 275.358L77.2761 279.978C77.2783 280.966 76.0285 281.378 75.4567 280.577L72.7839 276.833C72.5278 276.474 72.0722 276.325 71.6569 276.462L67.3223 277.899C66.3949 278.207 65.6225 277.13 66.1978 276.332L68.8867 272.6C69.1444 272.243 69.1444 271.757 68.8867 271.4L66.1978 267.668C65.6225 266.87 66.3949 265.793 67.3223 266.101L71.6569 267.538C72.0722 267.675 72.5278 267.526 72.7839 267.167L75.4567 263.423C76.0285 262.622 77.2783 263.034 77.2761 264.022L77.2662 268.642C77.2652 269.085 77.5468 269.477 77.9627 269.613L82.3034 271.031Z" fill="white"/>
<path d="M99.2625 151.031C100.246 151.335 100.246 152.665 99.2625 152.969L94.6664 154.387C94.226 154.523 93.9279 154.915 93.9289 155.358L93.9394 159.978C93.9417 160.966 92.6185 161.378 92.013 160.577L89.183 156.833C88.9118 156.474 88.4294 156.325 87.9896 156.462L83.4001 157.899C82.4181 158.207 81.6003 157.13 82.2095 156.332L85.0565 152.6C85.3293 152.243 85.3293 151.757 85.0565 151.4L82.2095 147.668C81.6003 146.87 82.4181 145.793 83.4001 146.101L87.9896 147.538C88.4294 147.675 88.9118 147.526 89.183 147.167L92.013 143.423C92.6185 142.622 93.9417 143.034 93.9394 144.022L93.9289 148.642C93.9279 149.085 94.226 149.477 94.6664 149.613L99.2625 151.031Z" fill="white"/>
<path d="M27.5903 90.4617C28.1366 90.6303 28.1366 91.3697 27.5903 91.5383L25.0369 92.326C24.7922 92.4015 24.6266 92.6196 24.6272 92.8656L24.633 95.4321C24.6343 95.9812 23.8991 96.2097 23.5628 95.7648L21.9906 93.6851C21.8399 93.4858 21.5719 93.4025 21.3276 93.479L18.7778 94.2775C18.2323 94.4483 17.778 93.8501 18.1164 93.4065L19.6981 91.3334C19.8496 91.1348 19.8496 90.8652 19.6981 90.6666L18.1164 88.5935C17.778 88.1499 18.2323 87.5517 18.7778 87.7225L21.3276 88.521C21.5719 88.5975 21.8399 88.5142 21.9906 88.3149L23.5628 86.2352C23.8991 85.7903 24.6343 86.0188 24.633 86.5679L24.6272 89.1344C24.6266 89.3804 24.7922 89.5985 25.0369 89.674L27.5903 90.4617Z" fill="white"/>
<path d="M251.303 74.0311C252.232 74.3345 252.232 75.6655 251.303 75.9689L246.963 77.3869C246.547 77.5228 246.265 77.9153 246.266 78.358L246.276 82.9778C246.278 83.9662 245.029 84.3775 244.457 83.5766L241.784 79.8332C241.528 79.4745 241.072 79.3245 240.657 79.4622L236.322 80.8994C235.395 81.2069 234.623 80.1301 235.198 79.3317L237.887 75.6002C238.144 75.2426 238.144 74.7574 237.887 74.3998L235.198 70.6683C234.623 69.8699 235.395 68.7931 236.322 69.1006L240.657 70.5378C241.072 70.6755 241.528 70.5255 241.784 70.1668L244.457 66.4234C245.029 65.6225 246.278 66.0338 246.276 67.0222L246.266 71.642C246.265 72.0847 246.547 72.4772 246.963 72.6131L251.303 74.0311Z" fill="white"/>
<path d="M132.935 60.0467C134.355 60.5018 134.355 62.4982 132.935 62.9533L126.296 65.0803C125.66 65.2841 125.229 65.873 125.231 66.537L125.246 73.4667C125.249 74.9493 123.338 75.5663 122.463 74.3649L118.375 68.7498C117.984 68.2117 117.287 67.9868 116.652 68.1934L110.022 70.3491C108.604 70.8104 107.423 69.1952 108.303 67.9976L112.415 62.4003C112.809 61.8639 112.809 61.1361 112.415 60.5997L108.303 55.0024C107.423 53.8048 108.604 52.1896 110.022 52.6509L116.652 54.8066C117.287 55.0132 117.984 54.7883 118.375 54.2502L122.463 48.6351C123.338 47.4337 125.249 48.0507 125.246 49.5333L125.231 56.463C125.229 57.127 125.66 57.7159 126.296 57.9197L132.935 60.0467Z" fill="white"/>
<path fill-rule="evenodd" clip-rule="evenodd" d="M2.31348 229.368C-5.07389 224.033 -10.7404 216.217 -13.2827 206.729C-16.1624 195.981 -14.4983 185.087 -9.46794 176.086C-17.2339 173.952 -23.6946 167.872 -25.9296 159.53C-29.2822 147.018 -21.857 134.158 -9.34496 130.805C3.16708 127.452 16.0279 134.878 19.3805 147.39C20.1131 150.124 20.331 152.874 20.0938 155.539C40.5446 152.352 60.5315 165.036 66.01 185.482C68.9469 196.443 67.1576 207.557 61.8911 216.66C66.0042 215.769 70.2723 215.3 74.649 215.3C102.484 215.3 125.931 234.266 133 260.093C136.005 259.342 139.149 258.943 142.385 258.943C158.381 258.943 172.123 268.687 178.104 282.615C179.611 282.355 181.16 282.22 182.74 282.22C191.04 282.22 198.477 285.947 203.499 291.834C206.807 289.809 210.635 288.652 214.713 288.652C215.247 288.652 215.777 288.672 216.302 288.711C219.674 269.745 235.172 255.412 253.78 255.412C271.327 255.412 286.108 268.157 290.564 285.515C292.459 285.01 294.441 284.742 296.482 284.742C304.787 284.742 312.128 289.183 316.566 295.98C319.908 278.408 337.634 265 359 265C375.811 265 390.369 273.301 397.44 285.4C403.414 282.005 410.578 280.027 418.281 280.027C433.815 280.027 447.16 288.07 452.968 299.567C454.431 299.353 455.935 299.241 457.469 299.241C465.962 299.241 473.525 302.657 478.394 307.975C478.714 307.983 479.032 307.996 479.349 308.015C482.65 293.006 497.819 281.663 516.034 281.663C536.662 281.663 553.385 296.211 553.385 314.158C553.385 314.898 553.357 315.633 553.301 316.361C564.542 318.101 573.078 326.647 573.078 336.927C573.078 348.464 562.328 357.816 549.066 357.816C539.842 357.816 531.832 353.291 527.811 346.653H516.086L516.034 346.653L515.982 346.653H477.86L477.794 346.653L477.727 346.653H475.125V346.515C471.785 346.168 468.673 345.176 465.956 343.687C463.291 344.456 460.437 344.874 457.469 344.874C457 344.874 456.533 344.863 456.069 344.842V344.874H418.307H418.281H418.254H288.121V337.535H253.832L253.78 337.535L253.727 337.535H214.776L214.713 337.535L214.65 337.535H211.987V337.361C207.339 336.763 203.123 334.654 199.774 331.504C195.098 335.259 189.179 337.502 182.74 337.502C182.257 337.502 181.777 337.489 181.3 337.464V337.502H8.35603V337.019C6.4805 337.336 4.55379 337.502 2.5888 337.502C-16.5141 337.502 -32 321.87 -32 302.587C-32 283.304 -16.5141 267.672 2.5888 267.672C3.64145 267.672 4.68311 267.72 5.7118 267.813C6.0374 266.629 6.47886 265.483 7.02664 264.393C3.06516 261.04 0.0501556 256.487 -1.39482 251.094C-3.46813 243.357 -1.87754 235.501 2.31348 229.368Z" fill="#CBCBCB"/>
<path fill-rule="evenodd" clip-rule="evenodd" d="M156.555 353.94C157.024 353.965 157.495 353.977 157.97 353.977C172.827 353.977 184.872 341.819 184.872 326.821C184.872 311.824 172.827 299.666 157.97 299.666C156.417 299.666 154.896 299.799 153.415 300.054C147.539 286.37 134.038 276.798 118.323 276.798C115.144 276.798 112.055 277.19 109.102 277.928C102.158 252.554 79.1228 233.921 51.7763 233.921C21.1084 233.921 -4.13738 257.355 -7.34686 287.451C-10.9867 286.107 -14.9178 285.374 -19.0185 285.374C-37.786 285.374 -53 300.731 -53 319.675C-53 338.62 -37.786 353.977 -19.0185 353.977C-17.088 353.977 -15.1951 353.815 -13.3525 353.502V353.977H156.555V353.94Z" fill="white"/>
<path fill-rule="evenodd" clip-rule="evenodd" d="M152.562 346.563H124.587C124.575 346.563 124.562 346.563 124.55 346.563C124.538 346.563 124.525 346.563 124.513 346.563H98.9524C98.9377 346.563 98.9229 346.563 98.9082 346.563C98.8934 346.563 98.8787 346.563 98.8639 346.563H97.1189V346.456C89.729 345.564 84 339.215 84 331.515C84 323.204 90.6746 316.466 98.9082 316.466C99.2588 316.466 99.6066 316.478 99.9512 316.502C102.165 304.825 112.336 296 124.55 296C136.067 296 145.769 303.847 148.694 314.534C149.938 314.223 151.239 314.058 152.578 314.058C161.47 314.058 168.679 321.335 168.679 330.311C168.679 338.677 162.417 345.566 154.366 346.464V346.563H152.593C152.588 346.563 152.583 346.563 152.578 346.563C152.572 346.563 152.567 346.563 152.562 346.563Z" fill="white"/>
<path fill-rule="evenodd" clip-rule="evenodd" d="M250.082 354.01H208.201C208.184 354.01 208.166 354.01 208.149 354.01C208.131 354.01 208.114 354.01 208.097 354.01H169.833C169.812 354.01 169.79 354.01 169.768 354.01C169.747 354.01 169.725 354.01 169.704 354.01H167.09V353.839C156.029 352.415 147.454 342.284 147.454 329.998C147.454 316.736 157.444 305.985 169.768 305.985C170.293 305.985 170.814 306.005 171.329 306.043C174.642 287.41 189.867 273.328 208.149 273.328C225.388 273.328 239.91 285.85 244.287 302.903C246.149 302.407 248.096 302.143 250.101 302.143C263.411 302.143 274.2 313.754 274.2 328.077C274.2 341.426 264.828 352.419 252.778 353.852V354.01H250.119C250.113 354.01 250.107 354.01 250.101 354.01C250.095 354.01 250.088 354.01 250.082 354.01Z" fill="white"/>
<path fill-rule="evenodd" clip-rule="evenodd" d="M529.234 363.563H495.82C495.805 363.563 495.791 363.563 495.777 363.563C495.762 363.563 495.748 363.563 495.734 363.563H465.209C465.191 363.563 465.174 363.563 465.156 363.563C465.139 363.563 465.121 363.563 465.104 363.563H463.02V363.435C454.195 362.37 447.354 354.788 447.354 345.593C447.354 335.668 455.324 327.622 465.156 327.622C465.575 327.622 465.99 327.637 466.402 327.666C469.045 313.721 481.191 303.183 495.777 303.183C509.53 303.183 521.116 312.554 524.608 325.316C526.094 324.944 527.647 324.747 529.246 324.747C539.865 324.747 548.473 333.436 548.473 344.155C548.473 354.145 540.996 362.372 531.382 363.445V363.563H529.258C529.254 363.563 529.25 363.563 529.246 363.563C529.242 363.563 529.238 363.563 529.234 363.563Z" fill="white"/>
<path fill-rule="evenodd" clip-rule="evenodd" d="M362.747 362.294C358.856 363.405 354.748 364 350.5 364C346.252 364 342.144 363.405 338.253 362.294H293.904V361.89C292.323 362.155 290.698 362.294 289.042 362.294C272.931 362.294 259.87 349.233 259.87 333.122C259.87 317.011 272.931 303.95 289.042 303.95C295.81 303.95 302.04 306.255 306.99 310.123C311.295 290.049 329.14 275 350.5 275C368.411 275 383.851 285.582 390.908 300.835C395.65 298.174 401.12 296.657 406.944 296.657C420.435 296.657 432.024 304.798 437.069 316.435C438.339 316.218 439.645 316.105 440.978 316.105C453.732 316.105 464.072 326.445 464.072 339.199C464.072 351.954 453.732 362.294 440.978 362.294C440.57 362.294 440.165 362.283 439.762 362.262V362.294H406.944H362.747Z" fill="white"/>
<circle cx="227" cy="163" r="62" fill="white"/>
<path d="M178.988 235.809C155.767 235.603 68.3562 296.558 69.4859 422.618C156.06 366.995 193.873 277.405 178.988 235.809Z" fill="#B90A24"/>
<path d="M177.99 235.232C161.106 236.517 84.6723 299.785 82.4175 403.295C152.416 355.446 181.58 281.436 177.99 235.232Z" fill="#B7520A"/>
<path d="M172.735 241.128C159.244 242.119 95.8432 300.849 94.2426 383.333C150.089 345.338 175.694 277.955 172.735 241.128Z" fill="#FD9850"/>
<path d="M160.34 266.605C152.622 267.814 113.966 307.009 109.419 358.201C142.863 332.191 160.4 289.299 160.34 266.605Z" fill="#F8E97B"/>
<path d="M213.002 200.829L203.487 203.674L199.893 210.367L206.377 210.519L213.019 210.763L215.181 205.548L213.002 200.829Z" fill="#FC7E24"/>
<path d="M83.8172 221.23L126.875 197.574C128.242 196.823 129.903 197.855 129.837 199.412L127.87 245.494C127.84 246.202 127.443 246.839 126.813 247.162C122.268 249.491 111.846 254.449 104.401 258.383C98.2402 261.638 90.3804 282.707 86.3666 296.297C85.7469 298.395 82.4419 298.309 82.1149 296.146C78.9318 275.092 76.5925 240.941 76.0937 234.608C75.5051 227.133 80.9974 222.575 83.8172 221.23Z" fill="#D0213B"/>
<path d="M238.257 310.396L237.215 261.278C237.181 259.72 235.457 258.797 234.142 259.633L195.217 284.377C194.619 284.757 194.266 285.419 194.301 286.127C194.556 291.227 195.474 302.732 195.79 311.146C196.051 318.109 181.735 335.45 171.973 345.721C170.466 347.307 172.192 350.127 174.229 349.328C194.054 341.558 224.799 326.508 230.533 323.773C237.301 320.546 238.502 313.51 238.257 310.396Z" fill="#D0213B"/>
<path d="M186.059 218.858L210.333 219.084C210.482 219.085 210.617 218.997 210.674 218.859L239.283 150.56C239.354 150.39 239.288 150.193 239.127 150.1L223.318 140.973C223.162 140.882 222.964 140.918 222.85 141.058L175.714 198.683C175.622 198.796 175.605 198.953 175.672 199.083L185.735 218.658C185.797 218.78 185.922 218.857 186.059 218.858Z" fill="#FEC955"/>
<path fill-rule="evenodd" clip-rule="evenodd" d="M241.852 151.748C242.318 150.642 241.898 149.369 240.872 148.777L225.305 139.789C224.306 139.212 223.031 139.454 222.293 140.36L175.315 198.079C174.717 198.814 174.604 199.831 175.028 200.669L184.846 220.103C185.242 220.888 186.041 221.381 186.919 221.383L210.913 221.447C211.871 221.45 212.743 220.869 213.118 219.977L211.281 219.21L211.277 219.209M211.281 219.21L213.118 219.977L241.852 151.748M237.613 151.553L209.873 217.423L187.965 217.364L179.076 199.769L224.487 143.975L237.613 151.553ZM210.969 217.426C210.969 217.426 210.968 217.426 210.967 217.426L210.969 217.426Z" fill="#333333"/>
<path d="M205.572 167.173L195.663 179.196L186.187 190.836L201.55 190.636L210.507 180.482L205.572 167.173Z" fill="#FC7E24"/>
<path d="M230.982 167.901L225.453 167.997L219.426 174.189L221.801 182.512L224.109 184.212L226.881 177.574L230.982 167.901Z" fill="#FC7E24"/>
<path fill-rule="evenodd" clip-rule="evenodd" d="M281.745 25.6192C292.36 22.638 297.932 24.3468 300.097 26.1113C302.707 27.1041 306.973 31.0754 309.698 41.758C313.706 57.4652 318.52 113.075 307.789 146.316C297.058 179.557 275.642 225.976 245.926 253.465C234.024 264.475 224.019 274.233 215.793 282.256C203.481 294.264 195.154 302.385 190.416 305.002C184.441 308.301 176.632 302.323 170.684 297.769C168.763 296.298 167.036 294.976 165.628 294.163L146.503 283.121L135.191 276.59C133.782 275.777 131.774 274.943 129.541 274.015C122.623 271.141 113.54 267.367 113.411 260.543C113.308 255.13 116.177 243.859 120.42 227.193C123.255 216.058 126.703 202.514 130.288 186.701C139.236 147.222 168.728 105.466 192.15 79.552C215.572 53.6381 266.139 30.0024 281.745 25.6192ZM198.375 205.046C171.664 189.623 162.511 155.467 177.933 128.755C193.356 102.043 227.512 92.8909 254.224 108.313C280.936 123.735 290.088 157.892 274.666 184.604C259.244 211.315 225.087 220.468 198.375 205.046Z" fill="#458CBA"/>
<g filter="url(#filter0_d_11361_1272)">
<path fill-rule="evenodd" clip-rule="evenodd" d="M200.788 201C176.329 186.878 167.948 155.602 182.07 131.143C196.191 106.684 227.467 98.3039 251.926 112.425C276.385 126.547 284.766 157.823 270.644 182.282C256.523 206.741 225.247 215.121 200.788 201ZM198.433 205.079C171.721 189.657 162.569 155.5 177.991 128.788C193.413 102.076 227.569 92.9241 254.281 108.346C280.993 123.768 290.145 157.925 274.723 184.637C259.301 211.349 225.145 220.501 198.433 205.079Z" fill="#D0213B"/>
</g>
<g filter="url(#filter1_d_11361_1272)">
<path fill-rule="evenodd" clip-rule="evenodd" d="M313.267 114.219C315.627 84.819 312.329 52.9057 309.449 41.614C306.723 30.9311 302.458 26.96 299.847 25.9673C297.682 24.2027 292.11 22.494 281.495 25.4751C270.276 28.6261 240.99 41.7268 216.709 58.4709C226.624 74.4968 240.533 88.3713 257.997 98.4539C275.46 108.536 294.43 113.645 313.267 114.219Z" fill="#D0213B"/>
</g>
<path fill-rule="evenodd" clip-rule="evenodd" d="M256.74 102.742L266.329 108.278C266.515 108.385 266.645 108.568 266.685 108.778L268.719 119.465C268.786 119.816 269.097 120.07 269.456 120.065L277.261 119.955C277.356 119.953 277.451 119.971 277.54 120.006L285.855 123.261C286.482 123.506 286.481 124.391 285.853 124.628L262.776 133.336C262.683 133.372 262.598 133.426 262.526 133.495L255.49 140.315C255.428 140.374 255.357 140.423 255.278 140.458L245.96 144.596C245.78 144.676 245.641 144.824 245.573 145.008L240.438 158.84C240.363 159.041 240.203 159.199 240.001 159.271L229.196 163.16C229.102 163.194 229.001 163.209 228.901 163.202L222.446 162.799C222.215 162.784 222.004 162.662 221.876 162.47L218.299 157.081C218.244 156.998 218.206 156.903 218.188 156.805L216.153 145.503C216.115 145.291 216.172 145.074 216.309 144.909L225.72 133.546C225.845 133.395 225.904 133.2 225.883 133.005L224.808 122.866C224.799 122.78 224.805 122.694 224.826 122.611L227.214 113.108C227.238 113.011 227.242 112.91 227.226 112.812L223.23 88.4725C223.121 87.8104 223.887 87.3667 224.413 87.787L231.389 93.36C231.464 93.4198 231.526 93.4935 231.573 93.577L235.38 100.391C235.555 100.704 235.93 100.847 236.268 100.729L246.54 97.1474C246.742 97.0769 246.965 97.0981 247.151 97.2056L256.74 102.742Z" fill="#FEC955"/>
<path fill-rule="evenodd" clip-rule="evenodd" d="M268.671 108.413C268.521 107.624 268.033 106.938 267.335 106.535L248.157 95.4631C247.459 95.0602 246.621 94.9805 245.863 95.2449L236.615 98.4696L233.337 92.6036C233.163 92.2906 232.928 92.0143 232.648 91.7902L225.672 86.2172C223.699 84.641 220.827 86.3046 221.235 88.7876L225.188 112.865L222.865 122.111C222.787 122.423 222.764 122.747 222.798 123.067L223.816 132.672L214.748 143.621C214.234 144.241 214.021 145.055 214.164 145.849L216.198 157.15C216.265 157.52 216.407 157.873 216.615 158.187L220.192 163.575C220.672 164.298 221.464 164.756 222.33 164.81L228.785 165.213C229.161 165.237 229.538 165.183 229.891 165.056L240.696 161.167C241.455 160.894 242.054 160.302 242.334 159.548L247.282 146.22L256.109 142.299C256.403 142.168 256.672 141.987 256.903 141.763L263.749 135.128L286.577 126.513C288.931 125.625 288.936 122.306 286.585 121.385L278.27 118.13C277.936 118 277.58 117.935 277.221 117.94L270.502 118.035L268.671 108.413ZM264.81 109.724L266.733 119.83C266.984 121.148 268.151 122.099 269.495 122.08L277.047 121.973L282.014 123.918L262.052 131.451C261.701 131.584 261.381 131.786 261.113 132.047L254.24 138.708L245.129 142.755C244.456 143.054 243.932 143.611 243.676 144.3L238.747 157.576L228.751 161.174L223.204 160.828L220.13 156.197L218.248 145.741L227.281 134.834C227.75 134.268 227.971 133.536 227.893 132.804L226.842 122.891L229.175 113.607C229.266 113.244 229.282 112.866 229.221 112.496L225.764 91.4418L229.932 94.7715L233.615 101.365C234.271 102.538 235.677 103.073 236.944 102.632L246.659 99.2443L264.81 109.724Z" fill="#333333"/>
<path d="M234.975 121.433L228.419 116.592L226.812 123.057L227.956 133.221L234.206 130.494L234.975 121.433Z" fill="#FC7E24"/>
<path d="M240.297 153.441L243.32 145.26L240.245 144.329L236.887 148.304L238.656 153.338L240.297 153.441Z" fill="#FC7E24"/>
<path d="M255.442 104.315L252.131 107.962L255.52 115.944L264.133 117.046L265.734 114.904L265.005 109.837L255.442 104.315Z" fill="#FC7E24"/>
<path fill-rule="evenodd" clip-rule="evenodd" d="M271.119 95.0021L274.288 98.2038L263.87 108.45L260.701 105.248L271.119 95.0021ZM274.808 98.2086L263.868 108.968L260.181 105.243L271.121 94.484L274.808 98.2086Z" fill="#353535"/>
<path d="M252.137 85.0507L257.197 86.4149L253.192 101.457L248.132 100.092L252.137 85.0507Z" fill="#353535"/>
<path d="M279.101 85.5519L273.159 86.9756L271.599 92.6804L275.981 96.9614L281.922 95.5376L283.483 89.8329L279.101 85.5519Z" fill="#FEC955"/>
<path d="M260.383 74.7203L254.642 73.1724L250.453 77.3481L252.006 83.0716L257.747 84.6195L261.936 80.4438L260.383 74.7203Z" fill="#FEC955"/>
<path fill-rule="evenodd" clip-rule="evenodd" d="M253.33 125.107C254.664 124.908 255.988 125.525 256.694 126.675L257.261 127.599C257.65 128.233 258.478 128.431 259.112 128.042C259.745 127.653 259.943 126.825 259.555 126.191L258.988 125.267C257.717 123.198 255.334 122.087 252.932 122.445L251.773 122.618C251.038 122.728 250.531 123.413 250.64 124.148C250.75 124.883 251.435 125.39 252.17 125.28L253.33 125.107Z" fill="#333333"/>
<path fill-rule="evenodd" clip-rule="evenodd" d="M261.015 124.661C260.913 124.303 260.541 124.096 260.183 124.197L257.415 124.982C257.057 125.083 256.849 125.455 256.95 125.812C257.052 126.169 257.424 126.377 257.782 126.275L260.551 125.491C260.908 125.389 261.116 125.018 261.015 124.661Z" fill="#333333"/>
<path fill-rule="evenodd" clip-rule="evenodd" d="M239.536 117.144C239.042 115.889 237.845 115.051 236.497 115.014L235.413 114.985C234.67 114.965 234.084 114.347 234.104 113.604C234.123 112.861 234.742 112.275 235.485 112.295L236.569 112.324C238.996 112.389 241.15 113.898 242.04 116.157L242.47 117.248C242.743 117.939 242.403 118.721 241.712 118.993C241.02 119.266 240.239 118.926 239.966 118.235L239.536 117.144Z" fill="#333333"/>
<path fill-rule="evenodd" clip-rule="evenodd" d="M236.081 110.265C236.441 110.174 236.806 110.393 236.897 110.753L237.602 113.543C237.694 113.904 237.476 114.27 237.116 114.36C236.756 114.451 236.39 114.232 236.299 113.872L235.594 111.082C235.503 110.721 235.72 110.356 236.081 110.265Z" fill="#333333"/>
<path d="M274.808 98.2086L271.121 94.484L260.181 105.243L263.868 108.968L274.808 98.2086Z" fill="#333333"/>
<path fill-rule="evenodd" clip-rule="evenodd" d="M256.748 86.6728L252.398 85.5001L248.581 99.8346L252.931 101.007L256.748 86.6728ZM252.137 85.0507L248.132 100.092L253.192 101.457L257.197 86.4149L252.137 85.0507Z" fill="#353535"/>
<path fill-rule="evenodd" clip-rule="evenodd" d="M280.316 81.1107L269.884 83.6104L267.073 93.8863L274.766 101.402L285.198 98.9028L288.009 88.6269L280.316 81.1107ZM281.922 95.5376L275.981 96.9614L271.599 92.6804L273.159 86.9756L279.101 85.5518L283.483 89.8328L281.922 95.5376Z" fill="#333333"/>
<path fill-rule="evenodd" clip-rule="evenodd" d="M263.675 71.4385L253.422 68.6741L245.941 76.1315L248.714 86.3534L258.968 89.1178L266.448 81.6604L263.675 71.4385ZM257.747 84.6195L252.006 83.0716L250.453 77.3481L254.642 73.1724L260.383 74.7203L261.936 80.4438L257.747 84.6195Z" fill="#333333"/>
<path fill-rule="evenodd" clip-rule="evenodd" d="M184.677 227.439C184.677 227.439 184.677 227.439 184.677 227.439L179.67 224.548C177.705 223.413 175.19 224.139 174.132 226.146L121.239 326.425C120.807 327.243 121.099 328.255 121.9 328.718L125.128 330.581C125.928 331.043 126.952 330.79 127.444 330.007L188.37 233.223C189.29 231.76 188.812 229.826 187.315 228.962L184.677 227.439C184.677 227.439 184.677 227.439 184.677 227.439Z" fill="#D0213B"/>
<path fill-rule="evenodd" clip-rule="evenodd" d="M-34.6114 225.5C-32.1137 234.821 -26.5467 242.501 -19.289 247.742C-23.4065 253.767 -24.9691 261.485 -22.9322 269.087C-21.5126 274.385 -18.5505 278.858 -14.6585 282.152C-16.5948 286.007 -17.1788 290.56 -15.9744 295.055C-13.3668 304.786 -3.36411 310.561 6.36734 307.954C16.0988 305.346 21.8739 295.344 19.2663 285.612C18.9939 284.595 18.6407 283.622 18.2155 282.697C26.0631 276.469 29.9048 265.962 27.1467 255.668C26.5887 253.586 25.7925 251.631 24.7952 249.826C40.0412 240.865 48.0885 222.538 43.2891 204.627C37.9068 184.54 18.2708 172.078 -1.82088 175.209C-1.58781 172.591 -1.80196 169.889 -2.52166 167.203C-5.81539 154.911 -18.4504 147.616 -30.7428 150.91C-43.0351 154.203 -50.33 166.838 -47.0362 179.131C-44.8405 187.325 -38.4932 193.299 -30.8636 195.395C-35.8056 204.239 -37.4405 214.942 -34.6114 225.5Z" fill="white"/>
<path d="M1228.6 7.06533C1229.04 5.64489 1230.96 5.64489 1231.4 7.06534L1233.45 13.7041C1233.64 14.3402 1234.21 14.7709 1234.85 14.7694L1241.52 14.7542C1242.95 14.7509 1243.55 16.6622 1242.39 17.5368L1236.98 21.6246C1236.46 22.0163 1236.25 22.7131 1236.45 23.3483L1238.52 29.9776C1238.97 31.3961 1237.41 32.5773 1236.26 31.6974L1230.87 27.585C1230.35 27.191 1229.65 27.191 1229.13 27.585L1223.74 31.6974C1222.59 32.5773 1221.03 31.3961 1221.48 29.9776L1223.55 23.3483C1223.75 22.7131 1223.54 22.0163 1223.02 21.6246L1217.61 17.5368C1216.45 16.6622 1217.05 14.7509 1218.48 14.7542L1225.15 14.7694C1225.79 14.7709 1226.36 14.3402 1226.55 13.7041L1228.6 7.06533Z" fill="white"/>
<path d="M896.585 136.697C896.871 135.768 898.129 135.768 898.415 136.697L899.754 141.037C899.883 141.453 900.253 141.735 900.671 141.734L905.035 141.724C905.968 141.722 906.357 142.971 905.6 143.543L902.065 146.216C901.726 146.472 901.584 146.928 901.714 147.343L903.072 151.678C903.362 152.605 902.345 153.377 901.591 152.802L898.067 150.113C897.729 149.856 897.271 149.856 896.933 150.113L893.409 152.802C892.655 153.377 891.638 152.605 891.928 151.678L893.286 147.343C893.416 146.928 893.274 146.472 892.935 146.216L889.4 143.543C888.643 142.971 889.032 141.722 889.965 141.724L894.329 141.734C894.747 141.735 895.117 141.453 895.246 141.037L896.585 136.697Z" fill="white"/>
<path d="M1448.03 258.738C1448.33 257.754 1449.67 257.754 1449.97 258.738L1451.39 263.334C1451.52 263.774 1451.92 264.072 1452.36 264.071L1456.98 264.061C1457.97 264.058 1458.38 265.382 1457.58 265.987L1453.83 268.817C1453.47 269.088 1453.32 269.571 1453.46 270.01L1454.9 274.6C1455.21 275.582 1454.13 276.4 1453.33 275.791L1449.6 272.943C1449.24 272.671 1448.76 272.671 1448.4 272.943L1444.67 275.791C1443.87 276.4 1442.79 275.582 1443.1 274.6L1444.54 270.01C1444.68 269.571 1444.53 269.088 1444.17 268.817L1440.42 265.987C1439.62 265.382 1440.03 264.058 1441.02 264.061L1445.64 264.071C1446.08 264.072 1446.48 263.774 1446.61 263.334L1448.03 258.738Z" fill="white"/>
<path d="M1319.03 38.6966C1319.33 37.7678 1320.67 37.7678 1320.97 38.6966L1322.39 43.0373C1322.52 43.4532 1322.92 43.7348 1323.36 43.7338L1327.98 43.7239C1328.97 43.7217 1329.38 44.9715 1328.58 45.5433L1324.83 48.2161C1324.47 48.4722 1324.32 48.9278 1324.46 49.3431L1325.9 53.6777C1326.21 54.6051 1325.13 55.3775 1324.33 54.8022L1320.6 52.1133C1320.24 51.8556 1319.76 51.8556 1319.4 52.1133L1315.67 54.8022C1314.87 55.3775 1313.79 54.6051 1314.1 53.6777L1315.54 49.3431C1315.68 48.9278 1315.53 48.4722 1315.17 48.2161L1311.42 45.5433C1310.62 44.9715 1311.03 43.7217 1312.02 43.7239L1316.64 43.7338C1317.08 43.7348 1317.48 43.4532 1317.61 43.0373L1319.03 38.6966Z" fill="white"/>
<path d="M1319.8 167.492C1320.02 166.836 1320.98 166.836 1321.2 167.492L1322.22 170.556C1322.32 170.849 1322.61 171.048 1322.93 171.047L1326.26 171.04C1326.98 171.039 1327.27 171.921 1326.69 172.325L1323.99 174.211C1323.73 174.392 1323.62 174.714 1323.72 175.007L1324.76 178.067C1324.98 178.721 1324.21 179.266 1323.63 178.86L1320.93 176.962C1320.68 176.78 1320.32 176.78 1320.07 176.962L1317.37 178.86C1316.79 179.266 1316.02 178.721 1316.24 178.067L1317.28 175.007C1317.38 174.714 1317.27 174.392 1317.01 174.211L1314.31 172.325C1313.73 171.921 1314.02 171.039 1314.74 171.04L1318.07 171.047C1318.39 171.048 1318.68 170.849 1318.78 170.556L1319.8 167.492Z" fill="white"/>
<path d="M1110.8 319.492C1111.02 318.836 1111.98 318.836 1112.2 319.492L1113.22 322.556C1113.32 322.849 1113.61 323.048 1113.93 323.047L1117.26 323.04C1117.98 323.039 1118.27 323.921 1117.69 324.325L1114.99 326.211C1114.73 326.392 1114.62 326.714 1114.72 327.007L1115.76 330.067C1115.98 330.721 1115.21 331.266 1114.63 330.86L1111.93 328.962C1111.68 328.78 1111.32 328.78 1111.07 328.962L1108.37 330.86C1107.79 331.266 1107.02 330.721 1107.24 330.067L1108.28 327.007C1108.38 326.714 1108.27 326.392 1108.01 326.211L1105.31 324.325C1104.73 323.921 1105.02 323.039 1105.74 323.04L1109.07 323.047C1109.39 323.048 1109.68 322.849 1109.78 322.556L1110.8 319.492Z" fill="white"/>
<path d="M766.016 315.369C766.167 314.877 766.833 314.877 766.984 315.369L767.693 317.667C767.761 317.887 767.958 318.036 768.179 318.036L770.489 318.03C770.983 318.029 771.189 318.691 770.788 318.994L768.917 320.409C768.737 320.544 768.662 320.785 768.731 321.005L769.45 323.3C769.603 323.791 769.065 324.2 768.666 323.895L766.8 322.472C766.621 322.335 766.379 322.335 766.2 322.472L764.334 323.895C763.935 324.2 763.397 323.791 763.55 323.3L764.269 321.005C764.338 320.785 764.263 320.544 764.083 320.409L762.212 318.994C761.811 318.691 762.017 318.029 762.511 318.03L764.821 318.036C765.042 318.036 765.239 317.887 765.307 317.667L766.016 315.369Z" fill="white"/>
<path d="M1012.03 54.6966C1012.33 53.7678 1013.67 53.7678 1013.97 54.6966L1015.39 59.0373C1015.52 59.4532 1015.92 59.7348 1016.36 59.7338L1020.98 59.7239C1021.97 59.7217 1022.38 60.9715 1021.58 61.5433L1017.83 64.2161C1017.47 64.4722 1017.32 64.9278 1017.46 65.3431L1018.9 69.6777C1019.21 70.6051 1018.13 71.3775 1017.33 70.8022L1013.6 68.1133C1013.24 67.8556 1012.76 67.8556 1012.4 68.1133L1008.67 70.8022C1007.87 71.3775 1006.79 70.6051 1007.1 69.6777L1008.54 65.3431C1008.68 64.9278 1008.53 64.4722 1008.17 64.2161L1004.42 61.5433C1003.62 60.9715 1004.03 59.7217 1005.02 59.7239L1009.64 59.7338C1010.08 59.7348 1010.48 59.4532 1010.61 59.0373L1012.03 54.6966Z" fill="white"/>
<path opacity="0.5" d="M573.139 -101L369.61 73.3438" stroke="white" stroke-width="10" stroke-linecap="round"/>
<path opacity="0.5" d="M473.985 129L361.59 225.277" stroke="white" stroke-width="10" stroke-linecap="round"/>
<path opacity="0.5" d="M143.985 -35L31.5903 61.2768" stroke="white" stroke-width="10" stroke-linecap="round"/>
<path opacity="0.5" d="M1511.17 152L1348.65 291.212" stroke="white" stroke-width="10" stroke-linecap="round"/>
<path opacity="0.5" d="M991.906 301.426L829.386 440.638" stroke="white" stroke-width="10" stroke-linecap="round"/>
<path opacity="0.5" d="M1592.17 10.0001L1429.65 149.212" stroke="white" stroke-width="10" stroke-linecap="round"/>
<path opacity="0.5" d="M1172.17 -29.9999L1009.65 109.212" stroke="white" stroke-width="10" stroke-linecap="round"/>
<path opacity="0.5" d="M682.171 249L519.651 388.212" stroke="white" stroke-width="10" stroke-linecap="round"/>
</g>
<defs>
<filter id="filter0_d_11361_1272" x="166.499" y="100.855" width="119.716" height="119.716" filterUnits="userSpaceOnUse" color-interpolation-filters="sRGB">
<feFlood flood-opacity="0" result="BackgroundImageFix"/>
<feColorMatrix in="SourceAlpha" type="matrix" values="0 0 0 0 0 0 0 0 0 0 0 0 0 0 0 0 0 0 127 0" result="hardAlpha"/>
<feOffset dy="4"/>
<feGaussianBlur stdDeviation="2"/>
<feComposite in2="hardAlpha" operator="out"/>
<feColorMatrix type="matrix" values="0 0 0 0 0 0 0 0 0 0 0 0 0 0 0 0 0 0 0.25 0"/>
<feBlend mode="normal" in2="BackgroundImageFix" result="effect1_dropShadow_11361_1272"/>
<feBlend mode="normal" in="SourceGraphic" in2="effect1_dropShadow_11361_1272" result="shape"/>
</filter>
<filter id="filter1_d_11361_1272" x="212.709" y="23.8521" width="105.364" height="98.3669" filterUnits="userSpaceOnUse" color-interpolation-filters="sRGB">
<feFlood flood-opacity="0" result="BackgroundImageFix"/>
<feColorMatrix in="SourceAlpha" type="matrix" values="0 0 0 0 0 0 0 0 0 0 0 0 0 0 0 0 0 0 127 0" result="hardAlpha"/>
<feOffset dy="4"/>
<feGaussianBlur stdDeviation="2"/>
<feComposite in2="hardAlpha" operator="out"/>
<feColorMatrix type="matrix" values="0 0 0 0 0 0 0 0 0 0 0 0 0 0 0 0 0 0 0.25 0"/>
<feBlend mode="normal" in2="BackgroundImageFix" result="effect1_dropShadow_11361_1272"/>
<feBlend mode="normal" in="SourceGraphic" in2="effect1_dropShadow_11361_1272" result="shape"/>
</filter>
<clipPath id="clip0_11361_1272">
<rect width="1500" height="350" fill="white"/>
</clipPath>
</defs>
</svg>
