<svg width="160" height="160" viewBox="0 0 160 160" fill="none" xmlns="http://www.w3.org/2000/svg">
<g clip-path="url(#clip0_11361_1419)">
<rect width="160" height="160" rx="8" fill="#FFF2D4"/>
<path d="M86.795 63.2309C87.0682 63.3152 87.0682 63.6849 86.795 63.7692L85.5183 64.1631C85.396 64.2008 85.3132 64.3098 85.3135 64.4328L85.3164 65.7161C85.317 65.9907 84.9495 66.1049 84.7813 65.8824L83.9952 64.8426C83.9198 64.7429 83.7858 64.7013 83.6637 64.7395L82.3888 65.1388C82.116 65.2242 81.8889 64.9251 82.0581 64.7033L82.8489 63.6667C82.9247 63.5674 82.9247 63.4326 82.8489 63.3333L82.0581 62.2968C81.8889 62.075 82.116 61.7759 82.3888 61.8613L83.6637 62.2605C83.7858 62.2988 83.9198 62.2571 83.9952 62.1575L84.7813 61.1176C84.9495 60.8952 85.317 61.0094 85.3164 61.284L85.3135 62.5673C85.3132 62.6902 85.396 62.7993 85.5183 62.837L86.795 63.2309Z" fill="white"/>
<path d="M126.588 83.677C126.916 83.7782 126.916 84.2218 126.588 84.323L125.056 84.7956C124.91 84.8409 124.81 84.9718 124.811 85.1193L124.814 86.6593C124.815 86.9887 124.374 87.1258 124.172 86.8589L123.229 85.6111C123.138 85.4915 122.977 85.4415 122.831 85.4874L121.301 85.9665C120.974 86.069 120.701 85.71 120.904 85.4439L121.853 84.2001C121.944 84.0809 121.944 83.9191 121.853 83.7999L120.904 82.5561C120.701 82.29 120.974 81.931 121.301 82.0335L122.831 82.5126C122.977 82.5585 123.138 82.5085 123.229 82.3889L124.172 81.1411C124.374 80.8742 124.815 81.0113 124.814 81.3407L124.811 82.8807C124.81 83.0282 124.91 83.1591 125.056 83.2044L126.588 83.677Z" fill="white"/>
<path d="M160.588 100.677C160.916 100.778 160.916 101.222 160.588 101.323L159.056 101.796C158.91 101.841 158.81 101.972 158.811 102.119L158.814 103.659C158.815 103.989 158.374 104.126 158.172 103.859L157.229 102.611C157.138 102.491 156.977 102.442 156.831 102.487L155.301 102.966C154.974 103.069 154.701 102.71 154.904 102.444L155.853 101.2C155.944 101.081 155.944 100.919 155.853 100.8L154.904 99.5561C154.701 99.29 154.974 98.931 155.301 99.0335L156.831 99.5126C156.977 99.5585 157.138 99.5085 157.229 99.3889L158.172 98.1411C158.374 97.8742 158.815 98.0113 158.814 98.3407L158.811 99.8807C158.81 100.028 158.91 100.159 159.056 100.204L160.588 100.677Z" fill="white"/>
<path d="M101.588 148.231C101.916 148.315 101.916 148.685 101.588 148.769L100.056 149.163C99.9096 149.201 99.8102 149.31 99.8105 149.433L99.814 150.716C99.8148 150.991 99.3737 151.105 99.1719 150.882L98.2286 149.843C98.1382 149.743 97.9774 149.701 97.8308 149.74L96.3009 150.139C95.9736 150.224 95.701 149.925 95.9041 149.703L96.8531 148.667C96.944 148.567 96.944 148.433 96.8531 148.333L95.9041 147.297C95.701 147.075 95.9736 146.776 96.3009 146.861L97.8308 147.26C97.9774 147.299 98.1382 147.257 98.2286 147.157L99.1719 146.118C99.3737 145.895 99.8148 146.009 99.814 146.284L99.8105 147.567C99.8102 147.69 99.9096 147.799 100.056 147.837L101.588 148.231Z" fill="white"/>
<path d="M17.7542 62.2309C18.0819 62.3151 18.0819 62.6849 17.7542 62.7691L16.2221 63.163C16.0753 63.2008 15.976 63.3098 15.9763 63.4328L15.9798 64.716C15.9806 64.9906 15.5395 65.1049 15.3377 64.8824L14.3943 63.8425C14.3039 63.7429 14.1431 63.7013 13.9965 63.7395L12.4667 64.1387C12.1394 64.2241 11.8668 63.925 12.0698 63.7033L13.0188 62.6667C13.1098 62.5674 13.1098 62.4326 13.0188 62.3333L12.0698 61.2967C11.8668 61.075 12.1394 60.7759 12.4667 60.8613L13.9965 61.2605C14.1431 61.2987 14.3039 61.2571 14.3943 61.1575L15.3377 60.1176C15.5395 59.8951 15.9806 60.0094 15.9798 60.284L15.9763 61.5672C15.976 61.6902 16.0753 61.7992 16.2221 61.837L17.7542 62.2309Z" fill="white"/>
<path d="M15.7542 148.677C16.0819 148.778 16.0819 149.222 15.7542 149.323L14.2221 149.796C14.0753 149.841 13.976 149.972 13.9763 150.119L13.9798 151.659C13.9806 151.989 13.5395 152.126 13.3377 151.859L12.3943 150.611C12.3039 150.491 12.1431 150.442 11.9965 150.487L10.4667 150.966C10.1394 151.069 9.86677 150.71 10.0698 150.444L11.0188 149.2C11.1098 149.081 11.1098 148.919 11.0188 148.8L10.0698 147.556C9.86677 147.29 10.1394 146.931 10.4667 147.034L11.9965 147.513C12.1431 147.558 12.3039 147.509 12.3943 147.389L13.3377 146.141C13.5395 145.874 13.9806 146.011 13.9798 146.341L13.9763 147.881C13.976 148.028 14.0753 148.159 14.2221 148.204L15.7542 148.677Z" fill="white"/>
<path d="M73.5884 109.677C73.9162 109.778 73.9162 110.222 73.5884 110.323L72.0564 110.796C71.9096 110.841 71.8102 110.972 71.8105 111.119L71.814 112.659C71.8148 112.989 71.3737 113.126 71.1719 112.859L70.2286 111.611C70.1382 111.491 69.9774 111.442 69.8308 111.487L68.3009 111.966C67.9736 112.069 67.701 111.71 67.9041 111.444L68.8531 110.2C68.944 110.081 68.944 109.919 68.8531 109.8L67.9041 108.556C67.701 108.29 67.9736 107.931 68.3009 108.034L69.8308 108.513C69.9774 108.558 70.1382 108.509 70.2286 108.389L71.1719 107.141C71.3737 106.874 71.8148 107.011 71.814 107.341L71.8105 108.881C71.8102 109.028 71.9096 109.159 72.0564 109.204L73.5884 109.677Z" fill="white"/>
<path d="M26.6722 110.016C27.1093 110.167 27.1093 110.833 26.6722 110.984L24.6295 111.693C24.4338 111.761 24.3013 111.958 24.3017 112.179L24.3064 114.489C24.3074 114.983 23.7193 115.189 23.4502 114.788L22.1924 112.917C22.0719 112.737 21.8575 112.662 21.6621 112.731L19.6223 113.45C19.1858 113.603 18.8224 113.065 19.0931 112.666L20.3585 110.8C20.4797 110.621 20.4797 110.379 20.3585 110.2L19.0931 108.334C18.8224 107.935 19.1858 107.397 19.6223 107.55L21.6621 108.269C21.8575 108.338 22.0719 108.263 22.1924 108.083L23.4502 106.212C23.7193 105.811 24.3074 106.017 24.3064 106.511L24.3017 108.821C24.3013 109.042 24.4338 109.239 24.6295 109.307L26.6722 110.016Z" fill="white"/>
<path opacity="0.5" fill-rule="evenodd" clip-rule="evenodd" d="M180.583 18.8483C181.174 19.5374 181.094 20.5746 180.405 21.1649L113.525 78.4542C112.836 79.0445 111.799 78.9644 111.208 78.2753C110.618 77.5862 110.698 76.549 111.387 75.9587L178.267 18.6693C178.956 18.079 179.993 18.1591 180.583 18.8483Z" fill="white"/>
<path opacity="0.5" fill-rule="evenodd" clip-rule="evenodd" d="M145.563 140.848C146.154 141.537 146.074 142.575 145.384 143.165L108.452 174.801C107.763 175.392 106.725 175.312 106.135 174.623C105.545 173.933 105.625 172.896 106.314 172.306L143.247 140.669C143.936 140.079 144.973 140.159 145.563 140.848Z" fill="white"/>
<path opacity="0.5" fill-rule="evenodd" clip-rule="evenodd" d="M39.5634 72.5359C40.1537 73.225 40.0736 74.2622 39.3845 74.8525L2.45177 106.489C1.76263 107.079 0.725431 106.999 0.135119 106.31C-0.455193 105.621 -0.375084 104.584 0.314054 103.993L37.2468 72.357C37.9359 71.7666 38.9731 71.8467 39.5634 72.5359Z" fill="white"/>
<path fill-rule="evenodd" clip-rule="evenodd" d="M160 40.8702L66 60L74.5 46.5L0 57.1428V8C0 3.58172 3.58172 0 8 0H152C156.418 0 160 3.58172 160 8V40.8702Z" fill="#4DAA9C"/>
<path d="M29.2656 23.5859H33.7969V29.5078C33.1979 29.7057 32.5755 29.8646 31.9297 29.9844C31.2839 30.099 30.5521 30.1562 29.7344 30.1562C28.599 30.1562 27.6354 29.9323 26.8438 29.4844C26.0521 29.0365 25.4505 28.375 25.0391 27.5C24.6276 26.625 24.4219 25.5495 24.4219 24.2734C24.4219 23.0755 24.651 22.0391 25.1094 21.1641C25.5729 20.2891 26.2474 19.612 27.1328 19.1328C28.0234 18.6536 29.1094 18.4141 30.3906 18.4141C30.9948 18.4141 31.5911 18.4792 32.1797 18.6094C32.7682 18.7396 33.3021 18.9089 33.7812 19.1172L32.9766 21.0547C32.6276 20.8776 32.2292 20.7292 31.7812 20.6094C31.3333 20.4896 30.8646 20.4297 30.375 20.4297C29.6719 20.4297 29.0599 20.5911 28.5391 20.9141C28.0234 21.237 27.6224 21.6901 27.3359 22.2734C27.0547 22.8516 26.9141 23.5339 26.9141 24.3203C26.9141 25.0651 27.0156 25.7266 27.2188 26.3047C27.4219 26.8776 27.7422 27.3281 28.1797 27.6562C28.6172 27.9792 29.1875 28.1406 29.8906 28.1406C30.2344 28.1406 30.5234 28.125 30.7578 28.0938C30.9974 28.0573 31.2214 28.0208 31.4297 27.9844V25.6016H29.2656V23.5859ZM38.7188 21.2656V30H36.3359V21.2656H38.7188ZM37.5312 17.8438C37.8854 17.8438 38.1901 17.9271 38.4453 18.0938C38.7005 18.2552 38.8281 18.5599 38.8281 19.0078C38.8281 19.4505 38.7005 19.7578 38.4453 19.9297C38.1901 20.0964 37.8854 20.1797 37.5312 20.1797C37.1719 20.1797 36.8646 20.0964 36.6094 19.9297C36.3594 19.7578 36.2344 19.4505 36.2344 19.0078C36.2344 18.5599 36.3594 18.2552 36.6094 18.0938C36.8646 17.9271 37.1719 17.8438 37.5312 17.8438ZM46.1016 21.1016C46.2214 21.1016 46.3594 21.1094 46.5156 21.125C46.6771 21.1354 46.8073 21.151 46.9062 21.1719L46.7266 23.4062C46.6484 23.3802 46.5365 23.362 46.3906 23.3516C46.25 23.3359 46.1276 23.3281 46.0234 23.3281C45.7161 23.3281 45.4167 23.3672 45.125 23.4453C44.8385 23.5234 44.5807 23.651 44.3516 23.8281C44.1224 24 43.9401 24.2292 43.8047 24.5156C43.6745 24.7969 43.6094 25.1432 43.6094 25.5547V30H41.2266V21.2656H43.0312L43.3828 22.7344H43.5C43.6719 22.4375 43.8854 22.1667 44.1406 21.9219C44.401 21.6719 44.6953 21.474 45.0234 21.3281C45.3568 21.1771 45.7161 21.1016 46.1016 21.1016ZM52.0703 21.0859C53.2422 21.0859 54.1406 21.3411 54.7656 21.8516C55.3906 22.362 55.7031 23.138 55.7031 24.1797V30H54.0391L53.5781 28.8125H53.5156C53.2656 29.125 53.0104 29.3802 52.75 29.5781C52.4896 29.776 52.1901 29.9219 51.8516 30.0156C51.513 30.1094 51.1016 30.1562 50.6172 30.1562C50.1016 30.1562 49.638 30.0573 49.2266 29.8594C48.8203 29.6615 48.5 29.3594 48.2656 28.9531C48.0312 28.5417 47.9141 28.0208 47.9141 27.3906C47.9141 26.4635 48.2396 25.7812 48.8906 25.3438C49.5417 24.901 50.5182 24.6562 51.8203 24.6094L53.3359 24.5625V24.1797C53.3359 23.7214 53.2161 23.3854 52.9766 23.1719C52.737 22.9583 52.4036 22.8516 51.9766 22.8516C51.5547 22.8516 51.1406 22.9115 50.7344 23.0312C50.3281 23.151 49.9219 23.3021 49.5156 23.4844L48.7266 21.875C49.1901 21.6302 49.7083 21.4375 50.2812 21.2969C50.8594 21.1562 51.4557 21.0859 52.0703 21.0859ZM53.3359 25.9531L52.4141 25.9844C51.6432 26.0052 51.1068 26.1432 50.8047 26.3984C50.5078 26.6536 50.3594 26.9896 50.3594 27.4062C50.3594 27.7708 50.4661 28.0312 50.6797 28.1875C50.8932 28.3385 51.1719 28.4141 51.5156 28.4141C52.026 28.4141 52.4557 28.263 52.8047 27.9609C53.1589 27.6589 53.3359 27.2292 53.3359 26.6719V25.9531ZM63.0234 21.1016C64.0078 21.1016 64.8021 21.4844 65.4062 22.25C66.0156 23.0156 66.3203 24.138 66.3203 25.6172C66.3203 26.6068 66.1771 27.4401 65.8906 28.1172C65.6042 28.7891 65.2083 29.2969 64.7031 29.6406C64.1979 29.9844 63.6172 30.1562 62.9609 30.1562C62.5391 30.1562 62.1771 30.1042 61.875 30C61.5729 29.8906 61.3151 29.7526 61.1016 29.5859C60.888 29.4141 60.7031 29.2318 60.5469 29.0391H60.4219C60.4635 29.2474 60.4948 29.4609 60.5156 29.6797C60.5365 29.8984 60.5469 30.112 60.5469 30.3203V33.8438H58.1641V21.2656H60.1016L60.4375 22.3984H60.5469C60.7031 22.1641 60.8932 21.9479 61.1172 21.75C61.3411 21.5521 61.6094 21.3958 61.9219 21.2812C62.2396 21.1615 62.6068 21.1016 63.0234 21.1016ZM62.2578 23.0078C61.8411 23.0078 61.5104 23.0938 61.2656 23.2656C61.0208 23.4375 60.8411 23.6953 60.7266 24.0391C60.6172 24.3828 60.5573 24.8177 60.5469 25.3438V25.6016C60.5469 26.1641 60.599 26.6406 60.7031 27.0312C60.8125 27.4219 60.9922 27.7188 61.2422 27.9219C61.4974 28.125 61.8464 28.2266 62.2891 28.2266C62.6536 28.2266 62.9531 28.125 63.1875 27.9219C63.4219 27.7188 63.5964 27.4219 63.7109 27.0312C63.8307 26.6354 63.8906 26.1536 63.8906 25.5859C63.8906 24.7318 63.7578 24.0885 63.4922 23.6562C63.2266 23.224 62.8151 23.0078 62.2578 23.0078ZM70.6719 17.8438V20.3203C70.6719 20.7526 70.6562 21.1641 70.625 21.5547C70.599 21.9453 70.5781 22.2214 70.5625 22.3828H70.6875C70.875 22.0807 71.0964 21.8359 71.3516 21.6484C71.612 21.4609 71.8984 21.3229 72.2109 21.2344C72.5234 21.1458 72.8594 21.1016 73.2188 21.1016C73.849 21.1016 74.3984 21.2135 74.8672 21.4375C75.3359 21.6562 75.7005 22.0026 75.9609 22.4766C76.2214 22.9453 76.3516 23.5547 76.3516 24.3047V30H73.9688V24.8984C73.9688 24.2734 73.8542 23.8021 73.625 23.4844C73.3958 23.1667 73.0417 23.0078 72.5625 23.0078C72.0833 23.0078 71.7057 23.1198 71.4297 23.3438C71.1536 23.5625 70.9583 23.888 70.8438 24.3203C70.7292 24.7474 70.6719 25.2708 70.6719 25.8906V30H68.2891V17.8438H70.6719ZM82.4062 21.1016C83.2135 21.1016 83.9089 21.2578 84.4922 21.5703C85.0755 21.8776 85.526 22.3255 85.8438 22.9141C86.1615 23.5026 86.3203 24.2214 86.3203 25.0703V26.2266H80.6875C80.7135 26.8984 80.9141 27.4271 81.2891 27.8125C81.6693 28.1927 82.1953 28.3828 82.8672 28.3828C83.4245 28.3828 83.9349 28.3255 84.3984 28.2109C84.862 28.0964 85.3385 27.9245 85.8281 27.6953V29.5391C85.3958 29.7526 84.9427 29.9089 84.4688 30.0078C84 30.1068 83.4297 30.1562 82.7578 30.1562C81.8828 30.1562 81.1068 29.9948 80.4297 29.6719C79.7578 29.349 79.2292 28.8568 78.8438 28.1953C78.4635 27.5339 78.2734 26.7005 78.2734 25.6953C78.2734 24.6745 78.4453 23.8255 78.7891 23.1484C79.138 22.4661 79.6224 21.9557 80.2422 21.6172C80.862 21.2734 81.5833 21.1016 82.4062 21.1016ZM82.4219 22.7969C81.9583 22.7969 81.5729 22.9453 81.2656 23.2422C80.9635 23.5391 80.7891 24.0052 80.7422 24.6406H84.0859C84.0807 24.2865 84.0156 23.9714 83.8906 23.6953C83.7708 23.4193 83.5885 23.2005 83.3438 23.0391C83.1042 22.8776 82.7969 22.7969 82.4219 22.7969ZM94.7969 21.2656V30H92.4141V21.2656H94.7969ZM93.6094 17.8438C93.9635 17.8438 94.2682 17.9271 94.5234 18.0938C94.7786 18.2552 94.9062 18.5599 94.9062 19.0078C94.9062 19.4505 94.7786 19.7578 94.5234 19.9297C94.2682 20.0964 93.9635 20.1797 93.6094 20.1797C93.25 20.1797 92.9427 20.0964 92.6875 19.9297C92.4375 19.7578 92.3125 19.4505 92.3125 19.0078C92.3125 18.5599 92.4375 18.2552 92.6875 18.0938C92.9427 17.9271 93.25 17.8438 93.6094 17.8438ZM103.398 27.4062C103.398 28 103.258 28.5026 102.977 28.9141C102.701 29.3203 102.286 29.6302 101.734 29.8438C101.182 30.0521 100.495 30.1562 99.6719 30.1562C99.0625 30.1562 98.5391 30.1172 98.1016 30.0391C97.6693 29.9609 97.2318 29.8307 96.7891 29.6484V27.6797C97.263 27.8932 97.7708 28.0703 98.3125 28.2109C98.8594 28.3464 99.3385 28.4141 99.75 28.4141C100.214 28.4141 100.544 28.3464 100.742 28.2109C100.945 28.0703 101.047 27.888 101.047 27.6641C101.047 27.5182 101.005 27.388 100.922 27.2734C100.844 27.1536 100.672 27.0208 100.406 26.875C100.141 26.724 99.724 26.5286 99.1562 26.2891C98.6094 26.0599 98.1589 25.8281 97.8047 25.5938C97.4557 25.3594 97.1953 25.0833 97.0234 24.7656C96.8568 24.4427 96.7734 24.0339 96.7734 23.5391C96.7734 22.7318 97.0859 22.125 97.7109 21.7188C98.3411 21.3073 99.1823 21.1016 100.234 21.1016C100.776 21.1016 101.292 21.1562 101.781 21.2656C102.276 21.375 102.784 21.5495 103.305 21.7891L102.586 23.5078C102.154 23.3203 101.745 23.1667 101.359 23.0469C100.979 22.9271 100.591 22.8672 100.195 22.8672C99.8464 22.8672 99.5833 22.9141 99.4062 23.0078C99.2292 23.1016 99.1406 23.2448 99.1406 23.4375C99.1406 23.5781 99.1849 23.7031 99.2734 23.8125C99.3672 23.9219 99.5443 24.0443 99.8047 24.1797C100.07 24.3099 100.458 24.4792 100.969 24.6875C101.464 24.8906 101.893 25.1042 102.258 25.3281C102.622 25.5469 102.904 25.8203 103.102 26.1484C103.299 26.4714 103.398 26.8906 103.398 27.4062ZM111.797 30H109.414V17.8438H111.797V30ZM116.688 21.2656V30H114.305V21.2656H116.688ZM115.5 17.8438C115.854 17.8438 116.159 17.9271 116.414 18.0938C116.669 18.2552 116.797 18.5599 116.797 19.0078C116.797 19.4505 116.669 19.7578 116.414 19.9297C116.159 20.0964 115.854 20.1797 115.5 20.1797C115.141 20.1797 114.833 20.0964 114.578 19.9297C114.328 19.7578 114.203 19.4505 114.203 19.0078C114.203 18.5599 114.328 18.2552 114.578 18.0938C114.833 17.9271 115.141 17.8438 115.5 17.8438ZM121.273 30L117.945 21.2656H120.438L122.125 26.2422C122.219 26.5339 122.292 26.8411 122.344 27.1641C122.401 27.487 122.44 27.776 122.461 28.0312H122.523C122.539 27.7552 122.576 27.4609 122.633 27.1484C122.695 26.8359 122.776 26.5339 122.875 26.2422L124.555 21.2656H127.047L123.719 30H121.273ZM131.906 21.1016C132.714 21.1016 133.409 21.2578 133.992 21.5703C134.576 21.8776 135.026 22.3255 135.344 22.9141C135.661 23.5026 135.82 24.2214 135.82 25.0703V26.2266H130.188C130.214 26.8984 130.414 27.4271 130.789 27.8125C131.169 28.1927 131.695 28.3828 132.367 28.3828C132.924 28.3828 133.435 28.3255 133.898 28.2109C134.362 28.0964 134.839 27.9245 135.328 27.6953V29.5391C134.896 29.7526 134.443 29.9089 133.969 30.0078C133.5 30.1068 132.93 30.1562 132.258 30.1562C131.383 30.1562 130.607 29.9948 129.93 29.6719C129.258 29.349 128.729 28.8568 128.344 28.1953C127.964 27.5339 127.773 26.7005 127.773 25.6953C127.773 24.6745 127.945 23.8255 128.289 23.1484C128.638 22.4661 129.122 21.9557 129.742 21.6172C130.362 21.2734 131.083 21.1016 131.906 21.1016ZM131.922 22.7969C131.458 22.7969 131.073 22.9453 130.766 23.2422C130.464 23.5391 130.289 24.0052 130.242 24.6406H133.586C133.581 24.2865 133.516 23.9714 133.391 23.6953C133.271 23.4193 133.089 23.2005 132.844 23.0391C132.604 22.8776 132.297 22.7969 131.922 22.7969Z" fill="white"/>
<circle cx="82.2676" cy="95.4028" r="22.0581" transform="rotate(-30 82.2676 95.4028)" fill="white"/>
<path d="M80.4266 126.377C73.2353 130.444 57.1462 164.774 79.9189 203.414C96.6986 170.875 92.4121 136.545 80.4266 126.377Z" fill="#B90A24"/>
<path d="M80.0164 126.377C75.0428 129.776 62.7476 162.866 80.4659 195.159C93.5214 167.965 89.3417 139.974 80.0164 126.377Z" fill="#B7520A"/>
<path d="M79.4458 129.128C75.4656 131.833 66.3785 161.207 80.5581 186.906C91.0062 165.264 86.9087 139.948 79.4458 129.128Z" fill="#FD9850"/>
<path d="M80.1592 139.182C77.9962 140.928 73.0582 159.881 80.7636 176.463C86.4412 162.499 84.2146 146.164 80.1592 139.182Z" fill="#F8E97B"/>
<path d="M84.6842 109.548L82.2586 112.117L82.3418 114.819L84.3666 113.712L86.4567 112.606L86.1948 110.615L84.6842 109.548Z" fill="#FC7E24"/>
<path d="M48.5102 138.814L56.383 125.823C57.1908 124.49 59.1455 124.552 59.8666 125.934L66.0589 137.801C66.3867 138.429 66.3567 139.183 65.9659 139.774C64.8418 141.473 62.866 144.365 61.4614 146.6C60.6392 147.908 60.8446 151.465 61.4018 155.147C61.7292 157.309 58.6992 158.814 57.4099 157.047C53.473 151.652 49.4633 145.697 48.5102 144.31C46.9992 142.112 47.8806 139.73 48.5102 138.814Z" fill="#D0213B"/>
<path d="M111.956 138.814L104.083 125.823C103.275 124.49 101.321 124.552 100.6 125.934L94.4074 137.801C94.0797 138.429 94.1096 139.183 94.5004 139.774C95.6245 141.473 97.6003 144.365 99.0049 146.6C99.8271 147.908 99.6218 151.465 99.0645 155.147C98.7371 157.309 101.767 158.814 103.056 157.047C106.993 151.652 111.003 145.697 111.956 144.31C113.467 142.112 112.586 139.73 111.956 138.814Z" fill="#D0213B"/>
<path d="M79.5897 119.896L87.109 115.648C87.1551 115.622 87.1809 115.57 87.1742 115.518L83.8393 89.3848C83.831 89.3196 83.7754 89.2708 83.7096 89.2708H77.2148C77.1507 89.2708 77.096 89.3171 77.0857 89.3802L72.8135 115.52C72.8051 115.571 72.8279 115.623 72.8716 115.651L79.4544 119.892C79.4952 119.918 79.5474 119.92 79.5897 119.896Z" fill="#FEC955"/>
<path fill-rule="evenodd" clip-rule="evenodd" d="M84.8424 89.2936C84.7892 88.87 84.4334 88.5525 84.012 88.5525H77.6166C77.2063 88.5525 76.8564 88.8539 76.7904 89.2642L72.5835 115.405C72.53 115.738 72.676 116.071 72.9556 116.254L79.4377 120.495C79.6993 120.667 80.0332 120.676 80.3042 120.521L87.7084 116.272C88.0041 116.103 88.1692 115.769 88.1263 115.427L87.4237 115.518L87.4223 115.518M87.4237 115.518L88.1263 115.427L84.8424 89.2936M83.5016 89.9879L86.672 115.218L79.9114 119.097L74.0427 115.257L78.1092 89.9879H83.5016ZM87.0104 115.023C87.0102 115.024 87.0099 115.024 87.0097 115.024L87.0104 115.023Z" fill="#333333"/>
<path d="M76.4081 100.5L75.4937 105.967L74.6446 111.239L79.3424 108.445L80.2961 103.723L76.4081 100.5Z" fill="#FC7E24"/>
<path d="M84.3665 96.2044L82.68 97.2174L81.9246 100.197L84.1367 102.339L85.1503 102.453L84.8237 99.9143L84.3665 96.2044Z" fill="#FC7E24"/>
<path fill-rule="evenodd" clip-rule="evenodd" d="M86.1806 43.3356C83.4403 40.5287 81.4195 40.0641 80.4387 40.2227C79.4578 40.0642 77.4371 40.5289 74.697 43.3356C70.6681 47.4623 59.2926 63.7399 56.6857 75.8908C54.0788 88.0416 52.4198 106.153 56.6857 119.909C58.3943 125.419 59.7412 130.205 60.8485 134.14L60.8486 134.14L60.8486 134.14C62.5059 140.03 63.6268 144.013 64.6213 145.663C65.8753 147.742 69.345 147.289 71.9877 146.944C72.841 146.833 73.6081 146.733 74.1865 146.733H82.0437L86.691 146.733C87.2695 146.733 88.0366 146.833 88.8899 146.944C91.5326 147.289 95.0023 147.742 96.2563 145.663C97.2507 144.013 98.3717 140.03 100.029 134.14C101.136 130.205 102.483 125.419 104.192 119.909C108.458 106.153 106.799 88.0416 104.192 75.8907C101.585 63.7399 90.2094 47.4623 86.1806 43.3356ZM80.9277 113.449C69.9541 113.449 61.0582 104.553 61.0582 93.5797C61.0582 82.6061 69.9541 73.7102 80.9277 73.7102C91.9013 73.7102 100.797 82.6061 100.797 93.5797C100.797 104.553 91.9013 113.449 80.9277 113.449Z" fill="#458CBA"/>
<g filter="url(#filter0_d_11361_1419)">
<path fill-rule="evenodd" clip-rule="evenodd" d="M80.9513 111.773C70.9031 111.773 62.7575 103.628 62.7575 93.5797C62.7575 83.5316 70.9031 75.3859 80.9513 75.3859C90.9994 75.3859 99.1451 83.5316 99.1451 93.5797C99.1451 103.628 90.9994 111.773 80.9513 111.773ZM80.9513 113.449C69.9776 113.449 61.0817 104.553 61.0817 93.5797C61.0817 82.6061 69.9776 73.7102 80.9513 73.7102C91.9249 73.7102 100.821 82.6061 100.821 93.5797C100.821 104.553 91.9249 113.449 80.9513 113.449Z" fill="#D0213B"/>
</g>
<g filter="url(#filter1_d_11361_1419)">
<path fill-rule="evenodd" clip-rule="evenodd" d="M100.17 65.0267C95.6674 55.5484 88.9744 46.3023 86.0781 43.3356C83.3381 40.5291 81.3175 40.0642 80.3365 40.2227C79.3556 40.0641 77.3349 40.5288 74.5947 43.3356C71.6984 46.3022 65.0054 55.5483 60.5027 65.0266C66.4086 68.2005 73.1623 70.0011 80.3365 70.0011C87.5106 70.0011 94.2642 68.2006 100.17 65.0267Z" fill="#D0213B"/>
</g>
<path fill-rule="evenodd" clip-rule="evenodd" d="M80.7119 71.5459H84.6511C84.7276 71.5459 84.8002 71.5791 84.85 71.6368L87.3777 74.5676C87.4608 74.664 87.6018 74.6867 87.7113 74.6214L90.0965 73.1991C90.1257 73.1817 90.1581 73.1701 90.1918 73.165L93.3325 72.6889C93.5694 72.653 93.7264 72.9259 93.5751 73.1105L88.0142 79.8987C87.9916 79.9262 87.975 79.958 87.9652 79.9922L87.0104 83.345C87.0021 83.3743 86.9886 83.4019 86.9706 83.4267L84.8359 86.3594C84.7947 86.4159 84.7781 86.4865 84.7898 86.5553L85.6681 91.7303C85.6809 91.8055 85.6598 91.8826 85.6104 91.941L82.9731 95.0613C82.95 95.0885 82.9217 95.1108 82.8897 95.1267L80.8291 96.1506C80.7553 96.1873 80.6685 96.1873 80.5948 96.1506L78.5342 95.1267C78.5022 95.1108 78.4738 95.0885 78.4508 95.0613L75.8134 91.941C75.764 91.8826 75.7429 91.8055 75.7557 91.7303L76.634 86.5553C76.6457 86.4865 76.6291 86.4159 76.588 86.3594L74.4532 83.4267C74.4352 83.4019 74.4218 83.3743 74.4134 83.345L73.4586 79.9922C73.4489 79.958 73.4322 79.9262 73.4097 79.8987L67.8487 73.1105C67.6974 72.9259 67.8544 72.653 68.0913 72.6889L71.2321 73.165C71.2658 73.1701 71.2981 73.1817 71.3273 73.1991L73.7125 74.6214C73.8221 74.6867 73.963 74.664 74.0462 74.5676L76.5739 71.6368C76.6236 71.5791 76.6963 71.5459 76.7727 71.5459H80.7119Z" fill="#FEC955"/>
<path fill-rule="evenodd" clip-rule="evenodd" d="M85.3967 71.171C85.2101 70.9547 84.9377 70.8301 84.651 70.8301H76.7727C76.4859 70.8301 76.2135 70.9547 76.0269 71.171L73.7511 73.8097L71.6978 72.5854C71.5882 72.52 71.4669 72.4766 71.3406 72.4574L68.1998 71.9813C67.3115 71.8466 66.7227 72.87 67.2901 73.5625L72.7913 80.2777L73.7203 83.54C73.7516 83.65 73.8021 83.7536 73.8695 83.8463L75.8918 86.6244L75.0454 91.6113C74.9975 91.8935 75.0766 92.1823 75.2618 92.4014L77.8992 95.5217C77.9855 95.6239 78.092 95.7073 78.212 95.767L80.2726 96.7909C80.5491 96.9283 80.8746 96.9283 81.1511 96.7909L83.2117 95.767C83.3317 95.7073 83.4382 95.6239 83.5245 95.5217L86.1618 92.4014C86.347 92.1823 86.4262 91.8935 86.3783 91.6113L85.5319 86.6244L87.5541 83.8463C87.6215 83.7536 87.6721 83.65 87.7034 83.54L88.6324 80.2777L94.1336 73.5625C94.7009 72.87 94.1121 71.8466 93.2238 71.9813L90.0831 72.4574C89.9568 72.4766 89.8354 72.52 89.7259 72.5854L87.6726 73.8097L85.3967 71.171ZM84.4402 72.2618L86.8307 75.0335C87.1425 75.3949 87.6711 75.4802 88.0818 75.2353L90.3896 73.8592L92.2661 73.5747L87.4555 79.4468C87.371 79.55 87.3086 79.6693 87.2721 79.7973L86.3394 83.0725L84.2522 85.9399C84.0979 86.1519 84.0357 86.4165 84.0795 86.6744L84.9226 91.6418L82.4825 94.5287L80.7118 95.4086L78.9411 94.5287L76.5011 91.6418L77.3442 86.6744C77.3879 86.4165 77.3257 86.1519 77.1715 85.9399L75.0843 83.0725L74.1515 79.7973C74.1151 79.6693 74.0527 79.55 73.9682 79.4468L69.1576 73.5747L71.0341 73.8592L73.3419 75.2353C73.7526 75.4802 74.2812 75.3949 74.5929 75.0335L76.9835 72.2618H84.4402Z" fill="#333333"/>
<path d="M77.3305 81.1769L74.4495 80.8516L75.1043 83.1291L77.265 86.0575L78.7056 84.1052L77.3305 81.1769Z" fill="#FC7E24"/>
<path d="M84.6642 90.092L84.1404 87.0335L83.0272 87.2938L82.6998 89.1159L84.1404 90.3523L84.6642 90.092Z" fill="#FC7E24"/>
<path d="M80.5918 72.2617L80.2205 73.9742L82.6846 75.8306L85.5343 74.6381L85.6464 73.6934L84.5205 72.2617L80.5918 72.2617Z" fill="#FC7E24"/>
<path fill-rule="evenodd" clip-rule="evenodd" d="M83.7651 66.6036L85.311 67.0263L83.9239 72.0365L82.378 71.6138L83.7651 66.6036ZM85.472 66.9354L84.0154 72.1965L82.217 71.7047L83.6736 66.4436L85.472 66.9354Z" fill="#353535"/>
<path d="M76.1466 66.9139L77.9484 66.4341L79.39 71.7812L77.5882 72.261L76.1466 66.9139Z" fill="#353535"/>
<path d="M84.5438 62.2718L82.9663 63.7674L83.5004 65.8027L85.6119 66.3423L87.1894 64.8466L86.6553 62.8114L84.5438 62.2718Z" fill="#FEC955"/>
<path d="M76.8496 62.2643L74.8053 62.8087L74.2575 64.8403L75.7541 66.3276L77.7983 65.7832L78.3461 63.7516L76.8496 62.2643Z" fill="#FEC955"/>
<path fill-rule="evenodd" clip-rule="evenodd" d="M83.6396 79.0439C84.0152 78.7452 84.533 78.6998 84.9549 78.9285L85.294 79.1123C85.5265 79.2383 85.8171 79.1521 85.9431 78.9196C86.0692 78.6871 85.9829 78.3965 85.7504 78.2705L85.4112 78.0866C84.6518 77.675 83.7198 77.7567 83.0436 78.2943L82.7171 78.554C82.5101 78.7185 82.4757 79.0197 82.6403 79.2267C82.8048 79.4337 83.106 79.4681 83.313 79.3035L83.6396 79.0439Z" fill="#333333"/>
<path fill-rule="evenodd" clip-rule="evenodd" d="M85.9281 77.539C85.8334 77.447 85.6817 77.4493 85.5895 77.5442L84.876 78.2784C84.7838 78.3733 84.7859 78.5248 84.8806 78.6168C84.9754 78.7088 85.127 78.7065 85.2193 78.6116L85.9328 77.8774C86.025 77.7825 86.0229 77.631 85.9281 77.539Z" fill="#333333"/>
<path fill-rule="evenodd" clip-rule="evenodd" d="M77.9731 79.0438C77.5974 78.7451 77.0797 78.6997 76.6578 78.9284L76.3186 79.1123C76.0862 79.2383 75.7955 79.152 75.6695 78.9195C75.5435 78.6871 75.6298 78.3965 75.8623 78.2704L76.2014 78.0866C76.9609 77.6749 77.8928 77.7566 78.569 78.2943L78.8956 78.5539C79.1026 78.7185 79.137 79.0196 78.9724 79.2266C78.8079 79.4336 78.5067 79.468 78.2997 79.3034L77.9731 79.0438Z" fill="#333333"/>
<path fill-rule="evenodd" clip-rule="evenodd" d="M75.6845 77.5391C75.7793 77.4471 75.9309 77.4494 76.0231 77.5443L76.7367 78.2785C76.8289 78.3734 76.8268 78.5249 76.732 78.6169C76.6372 78.7089 76.4856 78.7066 76.3934 78.6117L75.6799 77.8775C75.5877 77.7827 75.5898 77.6311 75.6845 77.5391Z" fill="#333333"/>
<path d="M85.472 66.9354L83.6736 66.4436L82.217 71.7047L84.0154 72.1965L85.472 66.9354Z" fill="#333333"/>
<path fill-rule="evenodd" clip-rule="evenodd" d="M77.8558 66.5935L76.307 67.006L77.6808 72.1016L79.2296 71.6892L77.8558 66.5935ZM76.1466 66.9139L77.5882 72.261L79.39 71.7812L77.9484 66.4341L76.1466 66.9139Z" fill="#353535"/>
<path fill-rule="evenodd" clip-rule="evenodd" d="M84.1279 60.6874L81.3584 63.3133L82.3203 66.9794L86.0275 67.9268L88.7971 65.3009L87.8351 61.6348L84.1279 60.6874ZM87.1892 64.8467L85.6118 66.3424L83.5003 65.8028L82.9662 63.7675L84.5437 62.2718L86.6552 62.8114L87.1892 64.8467Z" fill="#333333"/>
<path fill-rule="evenodd" clip-rule="evenodd" d="M77.2803 60.6674L73.6293 61.6396L72.651 65.268L75.3237 67.9242L78.9747 66.952L79.953 63.3236L77.2803 60.6674ZM77.7985 65.7831L75.7543 66.3275L74.2577 64.8402L74.8055 62.8085L76.8498 62.2641L78.3463 63.7514L77.7985 65.7831Z" fill="#333333"/>
<path fill-rule="evenodd" clip-rule="evenodd" d="M79.3647 122.786C79.3647 122.786 79.3647 122.786 79.3647 122.786H81.0987C82.0824 122.786 82.8691 123.603 82.8315 124.586L81.3023 164.569C81.2898 164.898 81.0196 165.158 80.6905 165.158C79.6212 165.158 78.743 164.313 78.7022 163.244L77.1979 123.911C77.1744 123.296 77.6661 122.786 78.2809 122.786H79.3647C79.3647 122.786 79.3647 122.786 79.3647 122.786Z" fill="#D0213B"/>
</g>
<defs>
<filter id="filter0_d_11361_1419" x="57.0818" y="73.7102" width="47.739" height="47.739" filterUnits="userSpaceOnUse" color-interpolation-filters="sRGB">
<feFlood flood-opacity="0" result="BackgroundImageFix"/>
<feColorMatrix in="SourceAlpha" type="matrix" values="0 0 0 0 0 0 0 0 0 0 0 0 0 0 0 0 0 0 127 0" result="hardAlpha"/>
<feOffset dy="4"/>
<feGaussianBlur stdDeviation="2"/>
<feComposite in2="hardAlpha" operator="out"/>
<feColorMatrix type="matrix" values="0 0 0 0 0 0 0 0 0 0 0 0 0 0 0 0 0 0 0.25 0"/>
<feBlend mode="normal" in2="BackgroundImageFix" result="effect1_dropShadow_11361_1419"/>
<feBlend mode="normal" in="SourceGraphic" in2="effect1_dropShadow_11361_1419" result="shape"/>
</filter>
<filter id="filter1_d_11361_1419" x="56.5027" y="40.1953" width="47.6674" height="37.8058" filterUnits="userSpaceOnUse" color-interpolation-filters="sRGB">
<feFlood flood-opacity="0" result="BackgroundImageFix"/>
<feColorMatrix in="SourceAlpha" type="matrix" values="0 0 0 0 0 0 0 0 0 0 0 0 0 0 0 0 0 0 127 0" result="hardAlpha"/>
<feOffset dy="4"/>
<feGaussianBlur stdDeviation="2"/>
<feComposite in2="hardAlpha" operator="out"/>
<feColorMatrix type="matrix" values="0 0 0 0 0 0 0 0 0 0 0 0 0 0 0 0 0 0 0.25 0"/>
<feBlend mode="normal" in2="BackgroundImageFix" result="effect1_dropShadow_11361_1419"/>
<feBlend mode="normal" in="SourceGraphic" in2="effect1_dropShadow_11361_1419" result="shape"/>
</filter>
<clipPath id="clip0_11361_1419">
<rect width="160" height="160" rx="8" fill="white"/>
</clipPath>
</defs>
</svg>
