<svg width="160" height="160" viewBox="0 0 160 160" fill="none" xmlns="http://www.w3.org/2000/svg">
<g clip-path="url(#clip0_11665_4681)">
<rect width="160" height="160" rx="8" fill="#F3DB23"/>
<circle cx="78" cy="104" r="70" fill="#F6E24F"/>
<circle cx="78" cy="104" r="56" fill="#F8E97B"/>
<circle cx="78" cy="104" r="46" fill="#FAF0A7"/>
<circle cx="78" cy="104" r="34" fill="#FDF8D3"/>
<circle cx="78" cy="104" r="22" fill="#FEFBE7"/>
<path fill-rule="evenodd" clip-rule="evenodd" d="M83.8045 108.351C83.8045 107.271 84.3622 106.286 85.1452 105.542C87.2079 103.584 88.4941 100.816 88.4941 97.7471C88.4941 91.8116 83.6825 87 77.7471 87C71.8116 87 67 91.8116 67 97.7471C67 100.816 68.2862 103.584 70.3489 105.542C71.1319 106.286 71.6896 107.271 71.6896 108.351C71.6896 110.157 73.1534 111.62 74.9591 111.62H80.535C82.3407 111.62 83.8045 110.157 83.8045 108.351Z" fill="#FDB515"/>
<path fill-rule="evenodd" clip-rule="evenodd" d="M80.4399 105.785C79.2203 106.926 78.3527 108.448 78.3527 110.118C78.3527 110.641 78.2725 111.146 78.1238 111.621H80.6086C82.4145 111.621 83.8784 110.157 83.8784 108.351C83.8784 107.271 84.436 106.286 85.2191 105.542C87.2816 103.584 88.5676 100.816 88.5676 97.7472C88.5676 94.6833 87.2854 91.9188 85.2283 89.9611C85.5216 91.1861 85.6768 92.4636 85.6768 93.777C85.6768 98.5051 83.6653 102.77 80.4399 105.785Z" fill="#E6A513"/>
<path d="M72.4604 113.856C72.4604 112.861 73.2672 112.054 74.2623 112.054H81.306C82.3011 112.054 83.1079 112.861 83.1079 113.856V115.739C83.1079 118.68 80.7244 121.063 77.7842 121.063C74.844 121.063 72.4604 118.68 72.4604 115.739V113.856Z" fill="#B2B2B2"/>
<path fill-rule="evenodd" clip-rule="evenodd" d="M71.9255 113.512C71.9992 113.093 72.4043 112.812 72.8301 112.884L83.0041 114.618C83.43 114.691 83.7155 115.09 83.6418 115.509C83.5681 115.929 83.1631 116.21 82.7372 116.137L72.5632 114.403C72.1373 114.331 71.8518 113.932 71.9255 113.512Z" fill="#6C6C6C"/>
<path fill-rule="evenodd" clip-rule="evenodd" d="M72.1971 117.327C72.2644 116.918 72.6603 116.639 73.0813 116.704L82.7306 118.206C83.1516 118.271 83.4382 118.656 83.3709 119.066C83.3035 119.475 82.9076 119.754 82.4867 119.688L72.8374 118.187C72.4164 118.121 72.1297 117.736 72.1971 117.327Z" fill="#6C6C6C"/>
<path d="M13.9918 92.5873L33.1027 82.0909L52.5064 92.5873V113.789L33.1027 124.244L13.9918 113.789V92.5873Z" fill="white" stroke="#333333" stroke-width="0.0703125"/>
<path fill-rule="evenodd" clip-rule="evenodd" d="M52.6311 93.7669L51.0667 91.5849L33.2995 104.286L21.7508 97.4885L13.2412 109.977L15.463 111.487L22.5557 101.077L33.4416 107.484L52.6311 93.7669Z" fill="#4DAA9C"/>
<path d="M36.0514 92.6233L34.7854 92.2278L33.6046 96.0081L34.8706 96.4036L36.0514 92.6233Z" fill="#333333"/>
<path d="M30.1833 92.6233L31.4493 92.2279L32.6301 96.0082L31.3642 96.4036L30.1833 92.6233Z" fill="#333333"/>
<path fill-rule="evenodd" clip-rule="evenodd" d="M40.7435 94.9378L40.0147 97.9435L38.2148 99.3643L45.4145 110.73L49.4551 113.585L39.8291 119.039L39.8252 118.497L37.0779 111.867L31.8676 105.995L27.804 108.069L24.4883 105.416L26.8467 99.7432L25.331 97.7541L24.6946 94.9365C24.6817 94.8793 24.7302 94.8269 24.7882 94.8353L29.594 95.5322L35.0885 95.6269L40.6504 94.8352C40.709 94.8269 40.7574 94.8803 40.7435 94.9378Z" fill="#FC7E24"/>
<path fill-rule="evenodd" clip-rule="evenodd" d="M27.7452 95.2643L24.7882 94.8355C24.7302 94.827 24.6817 94.8794 24.6946 94.9367L25.331 97.7543L26.8467 99.7433L24.4883 105.417L27.804 108.069L31.8676 105.995L37.0779 111.867L38.5681 115.464L40.8458 112.798L46.3047 113.811L47.6611 117.643L51.8444 115.273L45.4145 110.731L43.8943 108.331L42.2777 109.264L37.1692 106.315V100.416L38.4223 99.6922L38.2148 99.3645L40.0147 97.9437L40.7435 94.9379C40.7574 94.8804 40.709 94.8271 40.6504 94.8354L35.0885 95.6271L32.8537 95.5886V97.7975L30.2995 99.2722L27.7452 97.7975V95.2643Z" fill="#FEC955"/>
<path fill-rule="evenodd" clip-rule="evenodd" d="M40.5738 94.297C41.0128 94.2345 41.3763 94.6349 41.2718 95.0658L40.5634 97.9875C40.5215 98.1602 40.423 98.3138 40.2835 98.4239L38.9362 99.4874L45.8161 110.349L51.3778 114.277C51.8903 114.639 51.5781 115.359 51.0678 115.383L40.4835 121.381C39.956 121.68 39.3016 121.302 39.2972 120.696L39.2823 118.607L36.6106 112.16L31.7401 106.67L28.1953 108.479C27.9172 108.621 27.5817 108.587 27.3378 108.392L24.2961 105.959C24.0196 105.738 23.9228 105.36 24.0587 105.033L26.2245 99.8236L24.9317 98.1271C24.8625 98.0364 24.8137 97.9318 24.7886 97.8205L24.1643 95.0563C24.0674 94.6271 24.4308 94.2342 24.8662 94.2973L29.6378 94.9892L35.0547 95.0826L40.5738 94.297ZM40.0552 95.4691L35.1849 96.1623C35.1432 96.1683 35.1012 96.1709 35.0592 96.1701L29.5501 96.0752L25.3723 95.4693L25.8351 97.5188L27.1915 99.2987C27.3632 99.524 27.4019 99.8237 27.2932 100.085L25.1472 105.247L27.8694 107.425L31.4475 105.599C31.7699 105.434 32.1628 105.508 32.403 105.779L37.4566 111.475C37.5152 111.541 37.5624 111.616 37.5963 111.698L40.3087 118.244C40.3479 118.339 40.3684 118.44 40.3692 118.542L40.3809 120.19L50.0814 114.693L45.1414 111.203C45.0565 111.143 44.9842 111.067 44.9286 110.979L37.8765 99.8463C37.6587 99.5024 37.7359 99.0496 38.0554 98.7974L39.5305 97.6331L40.0552 95.4691Z" fill="#333333"/>
<path d="M35.6881 89.2788L37.1244 89.7275L37.454 91.1958L36.3473 92.2154L34.9109 91.7667L34.5813 90.2984L35.6881 89.2788Z" fill="#FEC955"/>
<path fill-rule="evenodd" clip-rule="evenodd" d="M35.4765 88.3365L37.8347 89.0731L38.3759 91.4837L36.5589 93.1577L34.2007 92.421L33.6595 90.0105L35.4765 88.3365ZM37.1244 89.7275L35.6881 89.2788L34.5813 90.2984L34.911 91.7667L36.3473 92.2154L37.4541 91.1958L37.1244 89.7275Z" fill="#333333"/>
<path d="M30.5467 89.2789L29.1103 89.7275L28.7807 91.1958L29.8874 92.2154L31.3238 91.7667L31.6534 90.2985L30.5467 89.2789Z" fill="#FEC955"/>
<path fill-rule="evenodd" clip-rule="evenodd" d="M30.7582 88.3366L28.4 89.0732L27.8589 91.4837L29.6759 93.1577L32.0341 92.4211L32.5752 90.0105L30.7582 88.3366ZM29.1103 89.7275L30.5467 89.2789L31.6534 90.2985L31.3238 91.7667L29.8874 92.2154L28.7807 91.1958L29.1103 89.7275Z" fill="#333333"/>
<path d="M33.866 99.7634C33.866 100.273 33.4357 100.686 32.9049 100.686C32.3741 100.686 31.9438 100.273 31.9438 99.7634C31.9438 99.2538 32.3741 98.8407 32.9049 98.8407C33.4357 98.8407 33.866 99.2538 33.866 99.7634Z" fill="#333333"/>
<path fill-rule="evenodd" clip-rule="evenodd" d="M32.9049 100.602C33.3928 100.602 33.7824 100.224 33.7824 99.7634C33.7824 99.3032 33.3928 98.9244 32.9049 98.9244C32.4171 98.9244 32.0275 99.3032 32.0275 99.7634C32.0275 100.224 32.4171 100.602 32.9049 100.602ZM32.9049 100.686C33.4357 100.686 33.866 100.273 33.866 99.7634C33.866 99.2538 33.4357 98.8407 32.9049 98.8407C32.3741 98.8407 31.9438 99.2538 31.9438 99.7634C31.9438 100.273 32.3741 100.686 32.9049 100.686Z" fill="#333333"/>
<path fill-rule="evenodd" clip-rule="evenodd" d="M33.2282 83.5057L15.5416 93.2528V112.747L33.2282 122.494L50.9149 112.747V93.2528L33.2282 83.5057ZM54.0955 92.2905C54.0955 91.8028 53.8303 91.3538 53.4032 91.1185L33.8741 80.3559C33.472 80.1344 32.9844 80.1344 32.5824 80.3559L13.0533 91.1185C12.6262 91.3538 12.361 91.8028 12.361 92.2905V113.71C12.361 114.197 12.6262 114.646 13.0533 114.882L32.5824 125.644C32.9844 125.866 33.472 125.866 33.8741 125.644L53.4032 114.882C53.8303 114.646 54.0955 114.197 54.0955 113.71V92.2905Z" fill="#333333"/>
<path d="M32.8485 100.306L33.1811 100.202C33.3432 100.151 33.4734 100.029 33.5347 99.8705C33.6956 99.4554 33.33 99.0281 32.895 99.1228L32.5543 99.197C32.3448 99.2426 32.1782 99.4011 32.1222 99.608C32.0037 100.046 32.4157 100.442 32.8485 100.306Z" fill="#333333"/>
<path fill-rule="evenodd" clip-rule="evenodd" d="M31.9204 99.5534C31.7587 100.151 32.3207 100.691 32.9111 100.506L33.2437 100.401C33.4665 100.331 33.6453 100.164 33.7297 99.946C33.9507 99.3755 33.4483 98.7883 32.8505 98.9185L32.5098 98.9927C32.2241 99.0549 31.9968 99.2711 31.9204 99.5534ZM32.7859 100.107C32.5106 100.193 32.2486 99.9411 32.324 99.6627C32.3596 99.5311 32.4656 99.4303 32.5988 99.4013L32.9395 99.3271C33.2116 99.2678 33.4404 99.5352 33.3398 99.7949C33.3014 99.894 33.2199 99.9703 33.1185 100.002L32.7859 100.107Z" fill="#333333"/>
<path d="M145.358 96.7853L145.281 96.8637V100.358H145.204L143.194 96.8637L143.041 96.7853H142.009L141.932 96.8637V102.027L142.009 102.105H142.898L142.975 102.027V98.5324H143.041L145.061 102.027L145.204 102.105H146.247L146.324 102.027V96.8637L146.247 96.7853H145.358Z" fill="#1D1F22"/>
<path d="M151.485 96.7853H147.312L147.246 96.8637V97.6253L147.312 97.7037H148.805L148.882 97.7709V102.027L148.959 102.105H149.849L149.925 102.027V97.7709L150.002 97.7037H151.485L151.562 97.6253V96.8637L151.485 96.7853Z" fill="#1D1F22"/>
<path d="M121.332 99.9099V102.038L121.409 102.116H124.912L124.989 102.038V101.276L124.912 101.198H122.452L122.375 101.119V99.8315H121.409C121.387 99.8539 121.365 99.8763 121.332 99.9099Z" fill="#1D1F22"/>
<path d="M121.409 96.7853L121.332 96.8637V98.8348C121.365 98.8684 121.376 98.8796 121.409 98.9132H122.375V97.7709L122.452 97.6925H124.912L124.989 97.6141V96.8525L124.912 96.7741H121.409V96.7853Z" fill="#1D1F22"/>
<path d="M124.121 99.8315C124.154 99.7979 124.165 99.7868 124.198 99.7532V99.0028C124.165 98.9692 124.154 98.958 124.121 98.9244H122.375V99.8315H124.121Z" fill="#1D1F22"/>
<path d="M116.578 99.9099V102.038L116.654 102.116H120.157L120.234 102.038V101.276L120.157 101.198H117.698L117.621 101.119V99.8315H116.654C116.632 99.8539 116.61 99.8763 116.578 99.9099Z" fill="#1D1F22"/>
<path d="M116.654 96.7853L116.578 96.8637V98.8348C116.61 98.8684 116.621 98.8796 116.654 98.9132H117.621V97.7709L117.698 97.6925H120.157L120.234 97.6141V96.8525L120.157 96.7741H116.654V96.7853Z" fill="#1D1F22"/>
<path d="M119.367 99.8315C119.4 99.7979 119.411 99.7868 119.443 99.7532V99.0028C119.411 98.9692 119.4 98.958 119.367 98.9244H117.621V99.8315H119.367Z" fill="#1D1F22"/>
<path d="M137.177 99.9099V102.038L137.254 102.116H140.757L140.834 102.038V101.276L140.757 101.198H138.297L138.22 101.119V99.8315H137.254C137.221 99.8539 137.21 99.8763 137.177 99.9099Z" fill="#1D1F22"/>
<path d="M137.254 96.7853L137.177 96.8637V98.8348C137.21 98.8684 137.221 98.8796 137.254 98.9132H138.22V97.7709L138.297 97.6925H140.757L140.834 97.6141V96.8525L140.757 96.7741H137.254V96.7853Z" fill="#1D1F22"/>
<path d="M139.966 99.8315C139.999 99.7979 140.01 99.7868 140.043 99.7532V99.0028C140.01 98.9692 139.999 98.958 139.966 98.9244H138.22V99.8315H139.966Z" fill="#1D1F22"/>
<path d="M98.9648 98.51H97.3397C97.2847 98.454 97.2628 98.4316 97.2079 98.3756V96.8413C97.2628 96.7853 97.2847 96.7629 97.3397 96.7069H98.9648V98.51Z" fill="#1D1F22"/>
<path d="M106.014 100.302H100.733C99.7553 100.302 98.9757 99.4956 98.9757 98.51H104.257C105.224 98.51 106.014 99.3164 106.014 100.302Z" fill="#1D1F22"/>
<path d="M104.246 103.897H99.0965C99.0416 103.841 99.0196 103.818 98.9647 103.762V102.228C99.0196 102.172 99.0416 102.15 99.0965 102.094H106.014C106.014 103.091 105.224 103.897 104.246 103.897Z" fill="#1D1F22"/>
<path d="M107.639 102.094H106.014V100.302H107.639C107.694 100.358 107.716 100.38 107.771 100.436V101.971C107.716 102.015 107.694 102.049 107.639 102.094Z" fill="#1D1F22"/>
<path d="M100.733 94.9151H105.882C105.937 94.9711 105.959 94.9935 106.014 95.0495V96.5838C105.959 96.6398 105.937 96.6622 105.882 96.7181H98.9647C98.9647 95.7214 99.7553 94.9151 100.733 94.9151Z" fill="#1D1F22"/>
<path d="M128.25 97.6253C129.216 97.6253 129.743 98.3868 129.743 99.4508C129.743 99.7083 129.71 99.9547 129.644 100.179L129.326 99.8539C129.304 99.8427 129.293 99.8427 129.271 99.8315H128.283C128.25 99.8651 128.239 99.8763 128.206 99.9099V100.683C128.239 100.716 128.25 100.727 128.283 100.761H128.953C128.975 100.772 128.986 100.772 129.008 100.783L129.172 100.951C128.931 101.153 128.623 101.276 128.25 101.276C127.284 101.276 126.757 100.515 126.757 99.4508C126.757 98.3868 127.273 97.6253 128.25 97.6253ZM128.25 102.183C128.887 102.183 129.414 101.993 129.831 101.668L130.237 102.083C130.259 102.094 130.27 102.094 130.292 102.105H130.644C130.677 102.071 130.688 102.06 130.721 102.027V101.299C130.71 101.276 130.71 101.265 130.699 101.243L130.424 100.963C130.655 100.537 130.786 100.022 130.786 99.4508C130.786 97.8605 129.82 96.7181 128.25 96.7181C126.68 96.7181 125.713 97.8605 125.713 99.4508C125.713 101.041 126.68 102.183 128.25 102.183Z" fill="#1D1F22"/>
<path d="M113.448 102.183C115.007 102.183 115.611 101.422 115.611 100.593C115.611 99.5292 114.788 99.07 113.745 98.9244C112.701 98.7676 112.405 98.622 112.405 98.1628C112.405 97.8605 112.625 97.6365 113.294 97.6365C114.118 97.6365 114.338 97.8605 114.338 98.3196L114.414 98.398H115.304L115.381 98.3196C115.381 97.4125 114.788 96.7293 113.371 96.7293C111.955 96.7293 111.362 97.4125 111.362 98.174C111.362 99.238 112.185 99.6187 113.228 99.7643C114.272 99.9211 114.568 100.067 114.568 100.604C114.568 101.063 114.195 101.287 113.525 101.287C112.636 101.287 112.328 100.985 112.328 100.447L112.251 100.369H111.362L111.285 100.447C111.296 101.422 111.966 102.183 113.448 102.183Z" fill="#1D1F22"/>
<path d="M133.85 102.183C135.19 102.183 135.936 101.422 135.936 100.056V96.8637L135.859 96.7853H134.97L134.893 96.8637V100.056C134.893 100.817 134.597 101.276 133.85 101.276C133.103 101.276 132.807 100.817 132.807 100.056V96.8637L132.73 96.7853H131.841L131.764 96.8637V100.056C131.764 101.422 132.51 102.183 133.85 102.183Z" fill="#1D1F22"/>
<path d="M99.1844 107.973L98.9209 108.242V115.197L99.1844 115.477H151.507L151.77 115.197V108.242L151.507 107.973H99.1844Z" fill="#1D1F22"/>
<path d="M104.345 109.631H103.104L103.039 109.687V113.315L102.984 113.371H102.764L102.709 113.315V109.687L102.643 109.631H101.402L101.348 109.575V109.407L101.402 109.351H104.345L104.4 109.407V109.575L104.345 109.631Z" fill="white"/>
<path d="M106.541 111.703C106.541 111.3 106.311 110.728 105.641 110.728C104.96 110.728 104.741 111.3 104.741 111.703L104.795 111.759H106.486L106.541 111.703ZM104.795 112.05L104.741 112.106C104.741 112.453 104.971 113.136 105.696 113.136C106.146 113.136 106.377 112.901 106.486 112.565L106.541 112.509H106.772L106.827 112.565C106.772 112.912 106.486 113.427 105.696 113.427C104.795 113.427 104.4 112.733 104.4 111.927V111.815C104.4 111.008 104.85 110.437 105.641 110.437C106.432 110.437 106.882 111.008 106.882 111.815V111.983L106.827 112.039H104.795V112.05Z" fill="white"/>
<path d="M108.573 113.147C109.133 113.147 109.363 112.8 109.418 112.453L109.473 112.397H109.704L109.759 112.453C109.704 113.024 109.254 113.427 108.573 113.427C107.837 113.427 107.277 112.968 107.277 111.927C107.277 110.896 107.837 110.426 108.573 110.426C109.254 110.426 109.704 110.829 109.759 111.4L109.704 111.456H109.473L109.418 111.4C109.363 111.053 109.133 110.706 108.573 110.706C108.013 110.706 107.617 111.109 107.617 111.916C107.617 112.744 108.013 113.147 108.573 113.147Z" fill="white"/>
<path d="M112.581 113.371H112.35L112.295 113.315V111.591C112.295 111.02 112.01 110.728 111.559 110.728C110.934 110.728 110.659 111.132 110.659 111.77V113.327L110.604 113.383H110.384L110.33 113.327V109.418L110.384 109.362H110.615L110.67 109.418V110.919H110.725C110.89 110.628 111.23 110.46 111.625 110.46C112.251 110.46 112.636 110.863 112.636 111.613V113.338L112.581 113.371Z" fill="white"/>
<path d="M115.633 113.371H115.403L115.348 113.315V111.591C115.348 111.02 115.062 110.728 114.612 110.728C113.986 110.728 113.712 111.132 113.712 111.77V113.327L113.657 113.383H113.426L113.371 113.327V110.56L113.426 110.504H113.591L113.646 110.56L113.701 110.908H113.756C113.92 110.616 114.261 110.448 114.656 110.448C115.282 110.448 115.666 110.852 115.666 111.602V113.327L115.633 113.371Z" fill="white"/>
<path d="M116.534 111.938C116.534 112.688 116.929 113.147 117.489 113.147C118.049 113.147 118.444 112.688 118.444 111.938C118.444 111.188 118.049 110.728 117.489 110.728C116.929 110.728 116.534 111.188 116.534 111.938ZM116.193 111.938C116.193 110.964 116.753 110.437 117.489 110.437C118.225 110.437 118.785 110.952 118.785 111.938C118.785 112.912 118.225 113.439 117.489 113.439C116.753 113.427 116.193 112.912 116.193 111.938Z" fill="white"/>
<path d="M119.63 113.371H119.41L119.356 113.315V109.407L119.41 109.351H119.63L119.696 109.407V113.315L119.63 113.371Z" fill="white"/>
<path d="M120.596 111.938C120.596 112.688 120.992 113.147 121.552 113.147C122.112 113.147 122.507 112.688 122.507 111.938C122.507 111.188 122.112 110.728 121.552 110.728C120.992 110.728 120.596 111.188 120.596 111.938ZM120.256 111.938C120.256 110.964 120.816 110.437 121.552 110.437C122.287 110.437 122.847 110.952 122.847 111.938C122.847 112.912 122.287 113.439 121.552 113.439C120.816 113.427 120.256 112.912 120.256 111.938Z" fill="white"/>
<path d="M125.395 111.938C125.395 111.132 125.054 110.728 124.494 110.728C123.934 110.728 123.594 111.132 123.594 111.938C123.594 112.744 123.934 113.147 124.494 113.147C125.054 113.147 125.395 112.744 125.395 111.938ZM125.34 112.968C125.23 113.203 124.945 113.427 124.44 113.427C123.649 113.427 123.254 112.789 123.254 111.927C123.254 111.064 123.649 110.426 124.44 110.426C124.945 110.426 125.23 110.661 125.34 110.885H125.395L125.45 110.538L125.505 110.482H125.669L125.724 110.538V112.957C125.724 114.111 125.274 114.57 124.538 114.57C123.858 114.57 123.528 114.223 123.462 113.763L123.517 113.707H123.748L123.803 113.763C123.858 114.055 124.033 114.279 124.538 114.279C125.219 114.279 125.384 113.707 125.384 112.957H125.34V112.968Z" fill="white"/>
<path d="M127.701 113.259C127.47 113.898 127.305 114.234 126.691 114.234H126.581L126.526 114.178V114.01L126.581 113.954H126.691C127.086 113.954 127.196 113.663 127.251 113.495V113.383L126.295 110.74V110.572L126.35 110.516H126.515L126.57 110.572L127.415 112.991H127.47L128.316 110.572L128.371 110.516H128.535L128.59 110.572V110.74L127.701 113.259Z" fill="white"/>
<path d="M132.62 109.866H131.434L131.379 109.922V111.076L131.434 111.132H132.62C133.125 111.132 133.356 110.964 133.356 110.493C133.345 110.034 133.125 109.866 132.62 109.866ZM132.62 111.647H131.434L131.379 111.703V113.315L131.324 113.371H130.874L130.819 113.315V109.407L130.874 109.351H132.62C133.411 109.351 133.916 109.698 133.916 110.504C133.916 111.3 133.345 111.647 132.62 111.647Z" fill="white"/>
<path d="M136.057 112.162L136.002 112.106C136.002 112.106 135.837 112.05 135.552 112.05C135.047 112.05 134.816 112.218 134.816 112.509C134.816 112.8 134.981 112.912 135.321 112.912C135.772 112.912 136.057 112.677 136.057 112.341V112.162ZM136.562 113.371H136.167L136.112 113.315L136.057 113.08H136.002C136.002 113.08 135.772 113.427 135.212 113.427C134.586 113.427 134.256 113.08 134.256 112.509C134.256 111.871 134.761 111.591 135.497 111.591C135.783 111.591 136.002 111.647 136.002 111.647L136.057 111.591V111.479C136.057 111.076 135.892 110.964 135.497 110.964C135.102 110.964 134.937 111.076 134.937 111.311L134.882 111.367H134.432L134.377 111.311C134.377 110.908 134.663 110.448 135.508 110.448C136.354 110.448 136.639 110.852 136.639 111.714V113.327L136.562 113.371Z" fill="white"/>
<path d="M138.879 111.02H138.593C138.143 111.02 137.858 111.188 137.858 111.882V113.315L137.803 113.371H137.353L137.298 113.315V110.549L137.353 110.493H137.748L137.803 110.549L137.858 110.784H137.913C138.077 110.616 138.253 110.493 138.648 110.493H138.879L138.934 110.549V110.952L138.879 111.02Z" fill="white"/>
<path d="M140.965 113.371H140.515C140.12 113.371 139.724 113.136 139.724 112.621V111.064L139.67 111.008H139.274L139.219 110.952V110.549L139.274 110.493H139.67L139.724 110.437V109.922L139.779 109.866H140.23L140.284 109.922V110.437L140.339 110.493H140.965L141.02 110.549V110.952L140.965 111.008H140.339L140.284 111.064V112.621C140.284 112.789 140.394 112.856 140.515 112.856H140.965L141.02 112.912V113.315L140.965 113.371Z" fill="white"/>
<path d="M144.018 113.371H143.568L143.513 113.315V111.647C143.513 111.356 143.458 110.952 142.953 110.952C142.448 110.952 142.217 111.244 142.217 111.927V113.304L142.162 113.36H141.712L141.657 113.304V110.538L141.712 110.482H142.107L142.162 110.538L142.217 110.773H142.272C142.272 110.773 142.503 110.426 143.008 110.426C143.798 110.426 144.084 110.941 144.084 111.636V113.304L144.018 113.371Z" fill="white"/>
<path d="M146.554 111.647C146.554 111.479 146.499 110.952 145.874 110.952C145.248 110.952 145.193 111.468 145.193 111.647L145.248 111.703H146.488L146.554 111.647ZM144.578 111.938C144.578 111.132 144.973 110.437 145.874 110.437C146.774 110.437 147.169 111.132 147.169 111.938V112.106L147.114 112.162H145.248L145.193 112.218C145.193 112.33 145.248 112.912 145.928 112.912C146.159 112.912 146.379 112.856 146.488 112.565L146.543 112.509H146.994L147.049 112.565C146.994 113.024 146.598 113.427 145.918 113.427C145.028 113.427 144.578 112.8 144.578 111.938Z" fill="white"/>
<path d="M149.321 111.02H149.036C148.586 111.02 148.3 111.188 148.3 111.882V113.315L148.245 113.371H147.795L147.74 113.315V110.549L147.795 110.493H148.19L148.245 110.549L148.3 110.784H148.355C148.52 110.616 148.696 110.493 149.091 110.493H149.321L149.376 110.549V110.952L149.321 111.02Z" fill="white"/>
<path fill-rule="evenodd" clip-rule="evenodd" d="M160 40.8702L66 60L74.5 46.5L0 57.1428V8C0 3.58172 3.58172 0 8 0H152C156.418 0 160 3.58172 160 8V40.8702Z" fill="#4DAA9C"/>
<path d="M56.6172 18.5781L53.7109 30H50.9531L49.4062 24C49.375 23.8854 49.3333 23.7109 49.2812 23.4766C49.2292 23.2422 49.1745 22.987 49.1172 22.7109C49.0599 22.4297 49.0078 22.1667 48.9609 21.9219C48.9193 21.6719 48.8906 21.474 48.875 21.3281C48.8594 21.474 48.8281 21.6693 48.7812 21.9141C48.7396 22.1589 48.6901 22.4193 48.6328 22.6953C48.5807 22.9714 48.5286 23.2292 48.4766 23.4688C48.4245 23.7083 48.3828 23.8906 48.3516 24.0156L46.8125 30H44.0625L41.1484 18.5781H43.5312L44.9922 24.8125C45.0339 25 45.0807 25.224 45.1328 25.4844C45.1901 25.7448 45.2448 26.0182 45.2969 26.3047C45.3542 26.5859 45.4036 26.8594 45.4453 27.125C45.4922 27.3854 45.526 27.612 45.5469 27.8047C45.5729 27.6068 45.6068 27.3776 45.6484 27.1172C45.6901 26.8516 45.7344 26.5833 45.7812 26.3125C45.8333 26.0365 45.8854 25.7812 45.9375 25.5469C45.9896 25.3125 46.0365 25.1224 46.0781 24.9766L47.7422 18.5781H50.0312L51.6953 24.9766C51.7318 25.1172 51.7734 25.3073 51.8203 25.5469C51.8724 25.7812 51.9245 26.0365 51.9766 26.3125C52.0286 26.5885 52.0755 26.8594 52.1172 27.125C52.1641 27.3854 52.1979 27.612 52.2188 27.8047C52.2552 27.5443 52.3047 27.2292 52.3672 26.8594C52.4349 26.4844 52.5052 26.112 52.5781 25.7422C52.6562 25.3724 52.724 25.0625 52.7812 24.8125L54.2344 18.5781H56.6172ZM61.4688 21.1016C62.276 21.1016 62.9714 21.2578 63.5547 21.5703C64.138 21.8776 64.5885 22.3255 64.9062 22.9141C65.224 23.5026 65.3828 24.2214 65.3828 25.0703V26.2266H59.75C59.776 26.8984 59.9766 27.4271 60.3516 27.8125C60.7318 28.1927 61.2578 28.3828 61.9297 28.3828C62.487 28.3828 62.9974 28.3255 63.4609 28.2109C63.9245 28.0964 64.401 27.9245 64.8906 27.6953V29.5391C64.4583 29.7526 64.0052 29.9089 63.5312 30.0078C63.0625 30.1068 62.4922 30.1562 61.8203 30.1562C60.9453 30.1562 60.1693 29.9948 59.4922 29.6719C58.8203 29.349 58.2917 28.8568 57.9062 28.1953C57.526 27.5339 57.3359 26.7005 57.3359 25.6953C57.3359 24.6745 57.5078 23.8255 57.8516 23.1484C58.2005 22.4661 58.6849 21.9557 59.3047 21.6172C59.9245 21.2734 60.6458 21.1016 61.4688 21.1016ZM61.4844 22.7969C61.0208 22.7969 60.6354 22.9453 60.3281 23.2422C60.026 23.5391 59.8516 24.0052 59.8047 24.6406H63.1484C63.1432 24.2865 63.0781 23.9714 62.9531 23.6953C62.8333 23.4193 62.651 23.2005 62.4062 23.0391C62.1667 22.8776 61.8594 22.7969 61.4844 22.7969ZM69.7031 30H67.3203V17.8438H69.7031V30ZM75.7578 30.1562C74.8932 30.1562 74.1562 30 73.5469 29.6875C72.9375 29.3698 72.474 28.8802 72.1562 28.2188C71.8385 27.5573 71.6797 26.7109 71.6797 25.6797C71.6797 24.612 71.8594 23.7422 72.2188 23.0703C72.5833 22.3932 73.0859 21.8958 73.7266 21.5781C74.3724 21.2604 75.1198 21.1016 75.9688 21.1016C76.5729 21.1016 77.0938 21.1615 77.5312 21.2812C77.974 21.3958 78.3594 21.5339 78.6875 21.6953L77.9844 23.5391C77.6094 23.388 77.2604 23.2656 76.9375 23.1719C76.6146 23.0729 76.2917 23.0234 75.9688 23.0234C75.5521 23.0234 75.2057 23.1224 74.9297 23.3203C74.6536 23.513 74.4479 23.8047 74.3125 24.1953C74.1771 24.5859 74.1094 25.0755 74.1094 25.6641C74.1094 26.2422 74.1823 26.7214 74.3281 27.1016C74.474 27.4818 74.6849 27.7656 74.9609 27.9531C75.237 28.1354 75.5729 28.2266 75.9688 28.2266C76.4635 28.2266 76.9036 28.1615 77.2891 28.0312C77.6745 27.8958 78.0495 27.7083 78.4141 27.4688V29.5078C78.0495 29.737 77.6667 29.901 77.2656 30C76.8698 30.1042 76.3672 30.1562 75.7578 30.1562ZM88.3828 25.6172C88.3828 26.3464 88.2839 26.9922 88.0859 27.5547C87.8932 28.1172 87.6094 28.5938 87.2344 28.9844C86.8646 29.3698 86.4167 29.6615 85.8906 29.8594C85.3698 30.0573 84.7812 30.1562 84.125 30.1562C83.5104 30.1562 82.9453 30.0573 82.4297 29.8594C81.9193 29.6615 81.474 29.3698 81.0938 28.9844C80.7188 28.5938 80.4271 28.1172 80.2188 27.5547C80.0156 26.9922 79.9141 26.3464 79.9141 25.6172C79.9141 24.6484 80.0859 23.8281 80.4297 23.1562C80.7734 22.4844 81.263 21.974 81.8984 21.625C82.5339 21.276 83.2917 21.1016 84.1719 21.1016C84.9896 21.1016 85.7135 21.276 86.3438 21.625C86.9792 21.974 87.4766 22.4844 87.8359 23.1562C88.2005 23.8281 88.3828 24.6484 88.3828 25.6172ZM82.3438 25.6172C82.3438 26.1901 82.4062 26.6719 82.5312 27.0625C82.6562 27.4531 82.8516 27.7474 83.1172 27.9453C83.3828 28.1432 83.7292 28.2422 84.1562 28.2422C84.5781 28.2422 84.9193 28.1432 85.1797 27.9453C85.4453 27.7474 85.638 27.4531 85.7578 27.0625C85.8828 26.6719 85.9453 26.1901 85.9453 25.6172C85.9453 25.0391 85.8828 24.5599 85.7578 24.1797C85.638 23.7943 85.4453 23.5052 85.1797 23.3125C84.9141 23.1198 84.5677 23.0234 84.1406 23.0234C83.5104 23.0234 83.0521 23.2396 82.7656 23.6719C82.4844 24.1042 82.3438 24.7526 82.3438 25.6172ZM100.609 21.1016C101.599 21.1016 102.346 21.3568 102.852 21.8672C103.362 22.3724 103.617 23.1849 103.617 24.3047V30H101.227V24.8984C101.227 24.2734 101.12 23.8021 100.906 23.4844C100.693 23.1667 100.362 23.0078 99.9141 23.0078C99.2839 23.0078 98.8359 23.2344 98.5703 23.6875C98.3047 24.1354 98.1719 24.7786 98.1719 25.6172V30H95.7891V24.8984C95.7891 24.4818 95.7422 24.1328 95.6484 23.8516C95.5547 23.5703 95.4115 23.3594 95.2188 23.2188C95.026 23.0781 94.7786 23.0078 94.4766 23.0078C94.0339 23.0078 93.6849 23.1198 93.4297 23.3438C93.1797 23.5625 93 23.888 92.8906 24.3203C92.7865 24.7474 92.7344 25.2708 92.7344 25.8906V30H90.3516V21.2656H92.1719L92.4922 22.3828H92.625C92.8021 22.0807 93.0234 21.8359 93.2891 21.6484C93.5599 21.4609 93.8568 21.3229 94.1797 21.2344C94.5026 21.1458 94.8307 21.1016 95.1641 21.1016C95.8047 21.1016 96.3464 21.2057 96.7891 21.4141C97.237 21.6224 97.5807 21.9453 97.8203 22.3828H98.0312C98.2917 21.9349 98.6589 21.6094 99.1328 21.4062C99.612 21.2031 100.104 21.1016 100.609 21.1016ZM109.672 21.1016C110.479 21.1016 111.174 21.2578 111.758 21.5703C112.341 21.8776 112.792 22.3255 113.109 22.9141C113.427 23.5026 113.586 24.2214 113.586 25.0703V26.2266H107.953C107.979 26.8984 108.18 27.4271 108.555 27.8125C108.935 28.1927 109.461 28.3828 110.133 28.3828C110.69 28.3828 111.201 28.3255 111.664 28.2109C112.128 28.0964 112.604 27.9245 113.094 27.6953V29.5391C112.661 29.7526 112.208 29.9089 111.734 30.0078C111.266 30.1068 110.695 30.1562 110.023 30.1562C109.148 30.1562 108.372 29.9948 107.695 29.6719C107.023 29.349 106.495 28.8568 106.109 28.1953C105.729 27.5339 105.539 26.7005 105.539 25.6953C105.539 24.6745 105.711 23.8255 106.055 23.1484C106.404 22.4661 106.888 21.9557 107.508 21.6172C108.128 21.2734 108.849 21.1016 109.672 21.1016ZM109.688 22.7969C109.224 22.7969 108.839 22.9453 108.531 23.2422C108.229 23.5391 108.055 24.0052 108.008 24.6406H111.352C111.346 24.2865 111.281 23.9714 111.156 23.6953C111.036 23.4193 110.854 23.2005 110.609 23.0391C110.37 22.8776 110.062 22.7969 109.688 22.7969ZM117.523 26.2109H115.617L115.219 18.5781H117.922L117.523 26.2109ZM115.188 28.8828C115.188 28.3932 115.32 28.0495 115.586 27.8516C115.857 27.6536 116.182 27.5547 116.562 27.5547C116.932 27.5547 117.25 27.6536 117.516 27.8516C117.786 28.0495 117.922 28.3932 117.922 28.8828C117.922 29.3516 117.786 29.6901 117.516 29.8984C117.25 30.1068 116.932 30.2109 116.562 30.2109C116.182 30.2109 115.857 30.1068 115.586 29.8984C115.32 29.6901 115.188 29.3516 115.188 28.8828Z" fill="white"/>
<path d="M79.838 68.6245C79.838 67.7273 79.0152 67 78.0002 67C76.9852 67 76.1624 67.7273 76.1624 68.6245L76.1624 75.4836C76.1624 76.3808 76.9852 77.1081 78.0002 77.1081C79.0152 77.1081 79.838 76.3808 79.838 75.4836L79.838 68.6245Z" fill="#FEC955"/>
<path d="M93.8584 74.025C94.4889 73.3945 94.4889 72.3721 93.8584 71.7416C93.2278 71.111 92.2055 71.111 91.575 71.7416L86.7544 76.5622C86.1238 77.1927 86.1238 78.215 86.7544 78.8456C87.3849 79.4761 88.4073 79.4761 89.0378 78.8456L93.8584 74.025Z" fill="#FEC955"/>
<path d="M66.9623 78.8455C67.5929 79.4761 68.6152 79.4761 69.2457 78.8455C69.8763 78.215 69.8763 77.1926 69.2457 76.5621L64.4251 71.7415C63.7946 71.1109 62.7723 71.1109 62.1417 71.7415C61.5112 72.372 61.5112 73.3944 62.1417 74.0249L66.9623 78.8455Z" fill="#FEC955"/>
</g>
<defs>
<clipPath id="clip0_11665_4681">
<rect width="160" height="160" rx="8" fill="white"/>
</clipPath>
</defs>
</svg>
