<svg width="900" height="350" viewBox="0 0 900 350" fill="none" xmlns="http://www.w3.org/2000/svg">
<g clip-path="url(#clip0_11681_1667)">
<rect width="900" height="350" fill="#FDF8D3"/>
<g opacity="0.6">
<path fill-rule="evenodd" clip-rule="evenodd" d="M583.284 29.0022C583.458 29.158 583.473 29.4253 583.317 29.5993L574.705 39.2161L562.346 37.2498L555.728 47.5894C555.602 47.7861 555.341 47.8435 555.144 47.7176C554.947 47.5917 554.89 47.3301 555.016 47.1334L561.932 36.3275L574.383 38.3083L582.687 29.0351C582.843 28.8611 583.11 28.8463 583.284 29.0022Z" fill="#FEE4AA"/>
<path fill-rule="evenodd" clip-rule="evenodd" d="M547.055 21C547.444 21 547.76 21.3156 547.76 21.7049V58.0752H584.694C585.083 58.0752 585.399 58.3907 585.399 58.78C585.399 59.1693 585.083 59.4849 584.694 59.4849H546.35V21.7049C546.35 21.3156 546.666 21 547.055 21Z" fill="#FEE4AA"/>
<path d="M557.205 47.2204C557.205 48.2326 556.384 49.053 555.372 49.053C554.36 49.053 553.54 48.2326 553.54 47.2204C553.54 46.2083 554.36 45.3878 555.372 45.3878C556.384 45.3878 557.205 46.2083 557.205 47.2204Z" fill="#FEE4AA"/>
<path d="M563.971 36.7885C563.971 37.8007 563.151 38.6212 562.139 38.6212C561.127 38.6212 560.306 37.8007 560.306 36.7885C560.306 35.7764 561.127 34.9559 562.139 34.9559C563.151 34.9559 563.971 35.7764 563.971 36.7885Z" fill="#FEE4AA"/>
<path d="M576.377 38.4803C576.377 39.4924 575.556 40.3129 574.544 40.3129C573.532 40.3129 572.711 39.4924 572.711 38.4803C572.711 37.4682 573.532 36.6477 574.544 36.6477C575.556 36.6477 576.377 37.4682 576.377 38.4803Z" fill="#FEE4AA"/>
<path d="M584.553 29.1764C584.553 30.1885 583.732 31.009 582.72 31.009C581.708 31.009 580.888 30.1885 580.888 29.1764C580.888 28.1642 581.708 27.3438 582.72 27.3438C583.732 27.3438 584.553 28.1642 584.553 29.1764Z" fill="#FEE4AA"/>
</g>
<g opacity="0.6">
<path fill-rule="evenodd" clip-rule="evenodd" d="M713.154 29.0022C713.328 29.158 713.343 29.4253 713.187 29.5993L704.575 39.2161L692.215 37.2498L685.598 47.5894C685.472 47.7861 685.211 47.8435 685.014 47.7176C684.817 47.5917 684.76 47.3301 684.886 47.1334L691.801 36.3275L704.253 38.3083L712.557 29.0351C712.713 28.8611 712.98 28.8463 713.154 29.0022Z" fill="#FEE4AA"/>
<path fill-rule="evenodd" clip-rule="evenodd" d="M676.925 21C677.314 21 677.63 21.3156 677.63 21.7049V58.0752H714.564C714.953 58.0752 715.269 58.3907 715.269 58.78C715.269 59.1693 714.953 59.4849 714.564 59.4849H676.22V21.7049C676.22 21.3156 676.536 21 676.925 21Z" fill="#FEE4AA"/>
<path d="M687.075 47.2206C687.075 48.2327 686.254 49.0532 685.242 49.0532C684.23 49.0532 683.41 48.2327 683.41 47.2206C683.41 46.2084 684.23 45.3879 685.242 45.3879C686.254 45.3879 687.075 46.2084 687.075 47.2206Z" fill="#FEE4AA"/>
<path d="M693.841 36.7885C693.841 37.8007 693.021 38.6212 692.008 38.6212C690.996 38.6212 690.176 37.8007 690.176 36.7885C690.176 35.7764 690.996 34.9559 692.008 34.9559C693.021 34.9559 693.841 35.7764 693.841 36.7885Z" fill="#FEE4AA"/>
<path d="M706.247 38.4801C706.247 39.4922 705.426 40.3127 704.414 40.3127C703.402 40.3127 702.582 39.4922 702.582 38.4801C702.582 37.4679 703.402 36.6475 704.414 36.6475C705.426 36.6475 706.247 37.4679 706.247 38.4801Z" fill="#FEE4AA"/>
<path d="M714.423 29.1764C714.423 30.1885 713.603 31.009 712.59 31.009C711.578 31.009 710.758 30.1885 710.758 29.1764C710.758 28.1642 711.578 27.3438 712.59 27.3438C713.603 27.3438 714.423 28.1642 714.423 29.1764Z" fill="#FEE4AA"/>
</g>
<g opacity="0.6">
<path fill-rule="evenodd" clip-rule="evenodd" d="M843.025 29.0022C843.199 29.158 843.213 29.4253 843.058 29.5993L834.446 39.2161L822.086 37.2498L815.469 47.5894C815.343 47.7861 815.081 47.8435 814.884 47.7176C814.688 47.5917 814.63 47.3301 814.756 47.1334L821.672 36.3275L834.123 38.3083L842.428 29.0351C842.583 28.8611 842.851 28.8463 843.025 29.0022Z" fill="#FEE4AA"/>
<path fill-rule="evenodd" clip-rule="evenodd" d="M806.795 21C807.184 21 807.5 21.3156 807.5 21.7049V58.0752H844.434C844.824 58.0752 845.139 58.3907 845.139 58.78C845.139 59.1693 844.824 59.4849 844.434 59.4849H806.09V21.7049C806.09 21.3156 806.406 21 806.795 21Z" fill="#FEE4AA"/>
<path d="M816.945 47.2204C816.945 48.2326 816.125 49.053 815.112 49.053C814.1 49.053 813.28 48.2326 813.28 47.2204C813.28 46.2083 814.1 45.3878 815.112 45.3878C816.125 45.3878 816.945 46.2083 816.945 47.2204Z" fill="#FEE4AA"/>
<path d="M823.711 36.7888C823.711 37.8009 822.891 38.6214 821.879 38.6214C820.866 38.6214 820.046 37.8009 820.046 36.7888C820.046 35.7767 820.866 34.9562 821.879 34.9562C822.891 34.9562 823.711 35.7767 823.711 36.7888Z" fill="#FEE4AA"/>
<path d="M836.117 38.4803C836.117 39.4924 835.296 40.3129 834.284 40.3129C833.272 40.3129 832.452 39.4924 832.452 38.4803C832.452 37.4682 833.272 36.6477 834.284 36.6477C835.296 36.6477 836.117 37.4682 836.117 38.4803Z" fill="#FEE4AA"/>
<path d="M844.293 29.1765C844.293 30.1886 843.473 31.0091 842.461 31.0091C841.448 31.0091 840.628 30.1886 840.628 29.1765C840.628 28.1644 841.448 27.3439 842.461 27.3439C843.473 27.3439 844.293 28.1644 844.293 29.1765Z" fill="#FEE4AA"/>
</g>
<g opacity="0.6">
<path fill-rule="evenodd" clip-rule="evenodd" d="M63.804 29.0022C63.978 29.158 63.9927 29.4253 63.8369 29.5993L55.2249 39.2161L42.8653 37.2498L36.2479 47.5894C36.122 47.7861 35.8605 47.8435 35.6637 47.7176C35.467 47.5917 35.4096 47.3301 35.5355 47.1334L42.4513 36.3275L54.9024 38.3083L63.2068 29.0351C63.3626 28.8611 63.63 28.8463 63.804 29.0022Z" fill="#FEE4AA"/>
<path fill-rule="evenodd" clip-rule="evenodd" d="M27.575 21C27.9642 21 28.2798 21.3156 28.2798 21.7049V58.0752H65.214C65.6033 58.0752 65.9189 58.3907 65.9189 58.78C65.9189 59.1693 65.6033 59.4849 65.214 59.4849H26.8701V21.7049C26.8701 21.3156 27.1857 21 27.575 21Z" fill="#FEE4AA"/>
<path d="M37.7248 47.2206C37.7248 48.2327 36.9043 49.0532 35.8922 49.0532C34.8801 49.0532 34.0596 48.2327 34.0596 47.2206C34.0596 46.2084 34.8801 45.3879 35.8922 45.3879C36.9043 45.3879 37.7248 46.2084 37.7248 47.2206Z" fill="#FEE4AA"/>
<path d="M44.4914 36.7885C44.4914 37.8007 43.6709 38.6212 42.6588 38.6212C41.6467 38.6212 40.8262 37.8007 40.8262 36.7885C40.8262 35.7764 41.6467 34.9559 42.6588 34.9559C43.6709 34.9559 44.4914 35.7764 44.4914 36.7885Z" fill="#FEE4AA"/>
<path d="M56.8967 38.4801C56.8967 39.4922 56.0762 40.3127 55.0641 40.3127C54.0519 40.3127 53.2314 39.4922 53.2314 38.4801C53.2314 37.4679 54.0519 36.6475 55.0641 36.6475C56.0762 36.6475 56.8967 37.4679 56.8967 38.4801Z" fill="#FEE4AA"/>
<path d="M65.0725 29.1764C65.0725 30.1885 64.252 31.009 63.2398 31.009C62.2277 31.009 61.4072 30.1885 61.4072 29.1764C61.4072 28.1642 62.2277 27.3438 63.2398 27.3438C64.252 27.3438 65.0725 28.1642 65.0725 29.1764Z" fill="#FEE4AA"/>
</g>
<g opacity="0.6">
<path fill-rule="evenodd" clip-rule="evenodd" d="M193.674 29.0022C193.848 29.158 193.863 29.4253 193.707 29.5993L185.095 39.2161L172.735 37.2498L166.118 47.5894C165.992 47.7861 165.731 47.8435 165.534 47.7176C165.337 47.5917 165.28 47.3301 165.406 47.1334L172.321 36.3275L184.773 38.3083L193.077 29.0351C193.233 28.8611 193.5 28.8463 193.674 29.0022Z" fill="#FEE4AA"/>
<path fill-rule="evenodd" clip-rule="evenodd" d="M157.445 21C157.834 21 158.15 21.3156 158.15 21.7049V58.0752H195.084C195.473 58.0752 195.789 58.3907 195.789 58.78C195.789 59.1693 195.473 59.4849 195.084 59.4849H156.74V21.7049C156.74 21.3156 157.056 21 157.445 21Z" fill="#FEE4AA"/>
<path d="M167.594 47.2204C167.594 48.2326 166.774 49.053 165.762 49.053C164.75 49.053 163.929 48.2326 163.929 47.2204C163.929 46.2083 164.75 45.3878 165.762 45.3878C166.774 45.3878 167.594 46.2083 167.594 47.2204Z" fill="#FEE4AA"/>
<path d="M174.362 36.7888C174.362 37.8009 173.541 38.6214 172.529 38.6214C171.517 38.6214 170.696 37.8009 170.696 36.7888C170.696 35.7767 171.517 34.9562 172.529 34.9562C173.541 34.9562 174.362 35.7767 174.362 36.7888Z" fill="#FEE4AA"/>
<path d="M186.767 38.4803C186.767 39.4924 185.946 40.3129 184.934 40.3129C183.922 40.3129 183.102 39.4924 183.102 38.4803C183.102 37.4682 183.922 36.6477 184.934 36.6477C185.946 36.6477 186.767 37.4682 186.767 38.4803Z" fill="#FEE4AA"/>
<path d="M194.943 29.1765C194.943 30.1886 194.123 31.0091 193.11 31.0091C192.098 31.0091 191.278 30.1886 191.278 29.1765C191.278 28.1644 192.098 27.3439 193.11 27.3439C194.123 27.3439 194.943 28.1644 194.943 29.1765Z" fill="#FEE4AA"/>
</g>
<g opacity="0.6">
<path fill-rule="evenodd" clip-rule="evenodd" d="M323.545 29.0022C323.719 29.158 323.733 29.4253 323.578 29.5993L314.966 39.2161L302.606 37.2498L295.989 47.5894C295.863 47.7861 295.601 47.8435 295.404 47.7176C295.208 47.5917 295.15 47.3301 295.276 47.1334L302.192 36.3275L314.643 38.3083L322.948 29.0351C323.103 28.8611 323.371 28.8463 323.545 29.0022Z" fill="#FEE4AA"/>
<path fill-rule="evenodd" clip-rule="evenodd" d="M287.315 21C287.704 21 288.02 21.3156 288.02 21.7049V58.0752H324.954C325.344 58.0752 325.659 58.3907 325.659 58.78C325.659 59.1693 325.344 59.4849 324.954 59.4849H286.61V21.7049C286.61 21.3156 286.926 21 287.315 21Z" fill="#FEE4AA"/>
<path d="M297.465 47.2204C297.465 48.2326 296.645 49.053 295.632 49.053C294.62 49.053 293.8 48.2326 293.8 47.2204C293.8 46.2083 294.62 45.3878 295.632 45.3878C296.645 45.3878 297.465 46.2083 297.465 47.2204Z" fill="#FEE4AA"/>
<path d="M304.232 36.7888C304.232 37.8009 303.411 38.6214 302.399 38.6214C301.387 38.6214 300.566 37.8009 300.566 36.7888C300.566 35.7767 301.387 34.9562 302.399 34.9562C303.411 34.9562 304.232 35.7767 304.232 36.7888Z" fill="#FEE4AA"/>
<path d="M316.637 38.4803C316.637 39.4924 315.817 40.3129 314.805 40.3129C313.793 40.3129 312.972 39.4924 312.972 38.4803C312.972 37.4682 313.793 36.6477 314.805 36.6477C315.817 36.6477 316.637 37.4682 316.637 38.4803Z" fill="#FEE4AA"/>
<path d="M324.814 29.1764C324.814 30.1885 323.993 31.009 322.981 31.009C321.969 31.009 321.148 30.1885 321.148 29.1764C321.148 28.1642 321.969 27.3438 322.981 27.3438C323.993 27.3438 324.814 28.1642 324.814 29.1764Z" fill="#FEE4AA"/>
</g>
<g opacity="0.6">
<path fill-rule="evenodd" clip-rule="evenodd" d="M453.414 29.0022C453.588 29.158 453.603 29.4253 453.447 29.5993L444.835 39.2161L432.475 37.2498L425.858 47.5894C425.732 47.7861 425.47 47.8435 425.274 47.7176C425.077 47.5917 425.019 47.3301 425.145 47.1334L432.061 36.3275L444.512 38.3083L452.817 29.0351C452.973 28.8611 453.24 28.8463 453.414 29.0022Z" fill="#FEE4AA"/>
<path fill-rule="evenodd" clip-rule="evenodd" d="M417.185 21C417.574 21 417.89 21.3156 417.89 21.7049V58.0752H454.824C455.213 58.0752 455.529 58.3907 455.529 58.78C455.529 59.1693 455.213 59.4849 454.824 59.4849H416.48V21.7049C416.48 21.3156 416.796 21 417.185 21Z" fill="#FEE4AA"/>
<path d="M427.335 47.2206C427.335 48.2327 426.514 49.0532 425.502 49.0532C424.49 49.0532 423.669 48.2327 423.669 47.2206C423.669 46.2084 424.49 45.3879 425.502 45.3879C426.514 45.3879 427.335 46.2084 427.335 47.2206Z" fill="#FEE4AA"/>
<path d="M434.101 36.7888C434.101 37.8009 433.281 38.6214 432.269 38.6214C431.257 38.6214 430.436 37.8009 430.436 36.7888C430.436 35.7767 431.257 34.9562 432.269 34.9562C433.281 34.9562 434.101 35.7767 434.101 36.7888Z" fill="#FEE4AA"/>
<path d="M446.507 38.4803C446.507 39.4924 445.687 40.3129 444.674 40.3129C443.662 40.3129 442.842 39.4924 442.842 38.4803C442.842 37.4682 443.662 36.6477 444.674 36.6477C445.687 36.6477 446.507 37.4682 446.507 38.4803Z" fill="#FEE4AA"/>
<path d="M454.683 29.1765C454.683 30.1886 453.862 31.0091 452.85 31.0091C451.838 31.0091 451.018 30.1886 451.018 29.1765C451.018 28.1644 451.838 27.3439 452.85 27.3439C453.862 27.3439 454.683 28.1644 454.683 29.1765Z" fill="#FEE4AA"/>
</g>
<g opacity="0.6">
<path fill-rule="evenodd" clip-rule="evenodd" d="M664.279 114.186C664.453 114.341 664.467 114.609 664.312 114.783L655.7 124.4L643.34 122.433L636.723 132.773C636.597 132.97 636.335 133.027 636.138 132.901C635.942 132.775 635.884 132.514 636.01 132.317L642.926 121.511L655.377 123.492L663.681 114.219C663.837 114.045 664.105 114.03 664.279 114.186Z" fill="#FEE4AA"/>
<path fill-rule="evenodd" clip-rule="evenodd" d="M628.049 106.184C628.438 106.184 628.754 106.499 628.754 106.888V143.259H665.688C666.077 143.259 666.393 143.574 666.393 143.964C666.393 144.353 666.077 144.668 665.688 144.668H627.344V106.888C627.344 106.499 627.66 106.184 628.049 106.184Z" fill="#FEE4AA"/>
<path d="M638.199 132.404C638.199 133.416 637.378 134.237 636.366 134.237C635.354 134.237 634.534 133.416 634.534 132.404C634.534 131.392 635.354 130.571 636.366 130.571C637.378 130.571 638.199 131.392 638.199 132.404Z" fill="#FEE4AA"/>
<path d="M644.965 121.972C644.965 122.984 644.145 123.805 643.132 123.805C642.12 123.805 641.3 122.984 641.3 121.972C641.3 120.96 642.12 120.14 643.132 120.14C644.145 120.14 644.965 120.96 644.965 121.972Z" fill="#FEE4AA"/>
<path d="M657.371 123.664C657.371 124.676 656.55 125.496 655.538 125.496C654.526 125.496 653.706 124.676 653.706 123.664C653.706 122.652 654.526 121.831 655.538 121.831C656.55 121.831 657.371 122.652 657.371 123.664Z" fill="#FEE4AA"/>
<path d="M665.547 114.36C665.547 115.372 664.727 116.192 663.714 116.192C662.702 116.192 661.882 115.372 661.882 114.36C661.882 113.348 662.702 112.527 663.714 112.527C664.727 112.527 665.547 113.348 665.547 114.36Z" fill="#FEE4AA"/>
</g>
<g opacity="0.6">
<path fill-rule="evenodd" clip-rule="evenodd" d="M794.148 114.186C794.322 114.341 794.337 114.609 794.181 114.783L785.569 124.4L773.209 122.433L766.592 132.773C766.466 132.97 766.205 133.027 766.008 132.901C765.811 132.775 765.754 132.514 765.88 132.317L772.796 121.511L785.247 123.492L793.551 114.219C793.707 114.045 793.974 114.03 794.148 114.186Z" fill="#FEE4AA"/>
<path fill-rule="evenodd" clip-rule="evenodd" d="M757.919 106.184C758.308 106.184 758.624 106.499 758.624 106.888V143.259H795.558C795.947 143.259 796.263 143.574 796.263 143.964C796.263 144.353 795.947 144.668 795.558 144.668H757.214V106.888C757.214 106.499 757.529 106.184 757.919 106.184Z" fill="#FEE4AA"/>
<path d="M768.069 132.404C768.069 133.416 767.248 134.237 766.236 134.237C765.224 134.237 764.403 133.416 764.403 132.404C764.403 131.392 765.224 130.572 766.236 130.572C767.248 130.572 768.069 131.392 768.069 132.404Z" fill="#FEE4AA"/>
<path d="M774.835 121.972C774.835 122.984 774.014 123.805 773.002 123.805C771.99 123.805 771.169 122.984 771.169 121.972C771.169 120.96 771.99 120.14 773.002 120.14C774.014 120.14 774.835 120.96 774.835 121.972Z" fill="#FEE4AA"/>
<path d="M787.24 123.664C787.24 124.676 786.42 125.496 785.408 125.496C784.396 125.496 783.575 124.676 783.575 123.664C783.575 122.652 784.396 121.831 785.408 121.831C786.42 121.831 787.24 122.652 787.24 123.664Z" fill="#FEE4AA"/>
<path d="M795.417 114.36C795.417 115.372 794.596 116.192 793.584 116.192C792.572 116.192 791.751 115.372 791.751 114.36C791.751 113.348 792.572 112.527 793.584 112.527C794.596 112.527 795.417 113.348 795.417 114.36Z" fill="#FEE4AA"/>
</g>
<g opacity="0.6">
<path fill-rule="evenodd" clip-rule="evenodd" d="M924.018 114.186C924.192 114.341 924.207 114.609 924.051 114.783L915.439 124.4L903.079 122.433L896.462 132.773C896.336 132.97 896.074 133.027 895.878 132.901C895.681 132.775 895.623 132.514 895.749 132.317L902.665 121.511L915.116 123.492L923.421 114.219C923.577 114.045 923.844 114.03 924.018 114.186Z" fill="#FEE4AA"/>
<path fill-rule="evenodd" clip-rule="evenodd" d="M887.789 106.184C888.178 106.184 888.494 106.499 888.494 106.888V143.259H925.428C925.817 143.259 926.133 143.574 926.133 143.964C926.133 144.353 925.817 144.668 925.428 144.668H887.084V106.888C887.084 106.499 887.4 106.184 887.789 106.184Z" fill="#FEE4AA"/>
<path d="M897.939 132.404C897.939 133.416 897.118 134.237 896.106 134.237C895.094 134.237 894.273 133.416 894.273 132.404C894.273 131.392 895.094 130.571 896.106 130.571C897.118 130.571 897.939 131.392 897.939 132.404Z" fill="#FEE4AA"/>
</g>
<g opacity="0.6">
<path fill-rule="evenodd" clip-rule="evenodd" d="M14.9285 114.186C15.1025 114.341 15.1173 114.609 14.9614 114.783L6.34941 124.4L-6.01024 122.433L-12.6276 132.773C-12.7535 132.97 -13.015 133.027 -13.2117 132.901C-13.4085 132.775 -13.4659 132.514 -13.34 132.317L-6.42417 121.511L6.02693 123.492L14.3313 114.219C14.4872 114.045 14.7545 114.03 14.9285 114.186Z" fill="#FEE4AA"/>
<path fill-rule="evenodd" clip-rule="evenodd" d="M-21.301 106.184C-20.9117 106.184 -20.5962 106.499 -20.5962 106.888V143.259H16.338C16.7273 143.259 17.0429 143.574 17.0429 143.964C17.0429 144.353 16.7273 144.668 16.338 144.668H-22.0059V106.888C-22.0059 106.499 -21.6903 106.184 -21.301 106.184Z" fill="#FEE4AA"/>
<path d="M8.02069 123.664C8.02069 124.676 7.20021 125.496 6.18808 125.496C5.17596 125.496 4.35547 124.676 4.35547 123.664C4.35547 122.652 5.17596 121.831 6.18808 121.831C7.20021 121.831 8.02069 122.652 8.02069 123.664Z" fill="#FEE4AA"/>
<path d="M16.197 114.36C16.197 115.372 15.3765 116.192 14.3644 116.192C13.3522 116.192 12.5317 115.372 12.5317 114.36C12.5317 113.348 13.3522 112.527 14.3644 112.527C15.3765 112.527 16.197 113.348 16.197 114.36Z" fill="#FEE4AA"/>
</g>
<g opacity="0.6">
<path fill-rule="evenodd" clip-rule="evenodd" d="M144.798 114.186C144.972 114.341 144.987 114.609 144.831 114.783L136.219 124.4L123.859 122.433L117.242 132.773C117.116 132.97 116.855 133.027 116.658 132.901C116.461 132.775 116.404 132.514 116.53 132.317L123.445 121.511L135.897 123.492L144.201 114.219C144.357 114.045 144.624 114.03 144.798 114.186Z" fill="#FEE4AA"/>
<path fill-rule="evenodd" clip-rule="evenodd" d="M108.569 106.184C108.958 106.184 109.274 106.499 109.274 106.888V143.259H146.208C146.597 143.259 146.913 143.574 146.913 143.964C146.913 144.353 146.597 144.668 146.208 144.668H107.864V106.888C107.864 106.499 108.18 106.184 108.569 106.184Z" fill="#FEE4AA"/>
<path d="M118.719 132.404C118.719 133.416 117.898 134.237 116.886 134.237C115.874 134.237 115.054 133.416 115.054 132.404C115.054 131.392 115.874 130.572 116.886 130.572C117.898 130.572 118.719 131.392 118.719 132.404Z" fill="#FEE4AA"/>
<path d="M125.486 121.972C125.486 122.984 124.665 123.805 123.653 123.805C122.641 123.805 121.82 122.984 121.82 121.972C121.82 120.96 122.641 120.14 123.653 120.14C124.665 120.14 125.486 120.96 125.486 121.972Z" fill="#FEE4AA"/>
<path d="M137.891 123.664C137.891 124.676 137.07 125.496 136.058 125.496C135.046 125.496 134.226 124.676 134.226 123.664C134.226 122.652 135.046 121.831 136.058 121.831C137.07 121.831 137.891 122.652 137.891 123.664Z" fill="#FEE4AA"/>
<path d="M146.067 114.36C146.067 115.372 145.247 116.192 144.234 116.192C143.222 116.192 142.402 115.372 142.402 114.36C142.402 113.348 143.222 112.527 144.234 112.527C145.247 112.527 146.067 113.348 146.067 114.36Z" fill="#FEE4AA"/>
</g>
<g opacity="0.6">
<path fill-rule="evenodd" clip-rule="evenodd" d="M274.668 114.186C274.842 114.341 274.857 114.609 274.701 114.783L266.089 124.4L253.729 122.433L247.112 132.773C246.986 132.97 246.724 133.027 246.528 132.901C246.331 132.775 246.273 132.514 246.399 132.317L253.315 121.511L265.766 123.492L274.071 114.219C274.226 114.045 274.494 114.03 274.668 114.186Z" fill="#FEE4AA"/>
<path fill-rule="evenodd" clip-rule="evenodd" d="M238.439 106.184C238.828 106.184 239.144 106.499 239.144 106.888V143.259H276.078C276.467 143.259 276.783 143.574 276.783 143.964C276.783 144.353 276.467 144.668 276.078 144.668H237.734V106.888C237.734 106.499 238.049 106.184 238.439 106.184Z" fill="#FEE4AA"/>
<path d="M248.588 132.404C248.588 133.416 247.768 134.237 246.755 134.237C245.743 134.237 244.923 133.416 244.923 132.404C244.923 131.392 245.743 130.571 246.755 130.571C247.768 130.571 248.588 131.392 248.588 132.404Z" fill="#FEE4AA"/>
<path d="M255.355 121.972C255.355 122.984 254.535 123.805 253.523 123.805C252.51 123.805 251.69 122.984 251.69 121.972C251.69 120.96 252.51 120.14 253.523 120.14C254.535 120.14 255.355 120.96 255.355 121.972Z" fill="#FEE4AA"/>
<path d="M267.76 123.664C267.76 124.676 266.94 125.496 265.928 125.496C264.916 125.496 264.095 124.676 264.095 123.664C264.095 122.652 264.916 121.831 265.928 121.831C266.94 121.831 267.76 122.652 267.76 123.664Z" fill="#FEE4AA"/>
<path d="M275.937 114.36C275.937 115.372 275.116 116.193 274.104 116.193C273.092 116.193 272.271 115.372 272.271 114.36C272.271 113.348 273.092 112.527 274.104 112.527C275.116 112.527 275.937 113.348 275.937 114.36Z" fill="#FEE4AA"/>
</g>
<g opacity="0.6">
<path fill-rule="evenodd" clip-rule="evenodd" d="M404.538 114.186C404.712 114.341 404.727 114.609 404.571 114.783L395.959 124.4L383.6 122.433L376.982 132.773C376.856 132.97 376.595 133.027 376.398 132.901C376.201 132.775 376.144 132.514 376.27 132.317L383.186 121.511L395.637 123.492L403.941 114.219C404.097 114.045 404.364 114.03 404.538 114.186Z" fill="#FEE4AA"/>
<path fill-rule="evenodd" clip-rule="evenodd" d="M368.309 106.184C368.698 106.184 369.014 106.499 369.014 106.888V143.259H405.948C406.337 143.259 406.653 143.574 406.653 143.964C406.653 144.353 406.337 144.668 405.948 144.668H367.604V106.888C367.604 106.499 367.92 106.184 368.309 106.184Z" fill="#FEE4AA"/>
<path d="M378.459 132.404C378.459 133.416 377.638 134.237 376.626 134.237C375.614 134.237 374.793 133.416 374.793 132.404C374.793 131.392 375.614 130.571 376.626 130.571C377.638 130.571 378.459 131.392 378.459 132.404Z" fill="#FEE4AA"/>
<path d="M385.225 121.972C385.225 122.984 384.405 123.805 383.393 123.805C382.381 123.805 381.56 122.984 381.56 121.972C381.56 120.96 382.381 120.14 383.393 120.14C384.405 120.14 385.225 120.96 385.225 121.972Z" fill="#FEE4AA"/>
<path d="M397.631 123.664C397.631 124.676 396.811 125.496 395.798 125.496C394.786 125.496 393.966 124.676 393.966 123.664C393.966 122.652 394.786 121.831 395.798 121.831C396.811 121.831 397.631 122.652 397.631 123.664Z" fill="#FEE4AA"/>
<path d="M405.807 114.36C405.807 115.372 404.987 116.192 403.975 116.192C402.963 116.192 402.142 115.372 402.142 114.36C402.142 113.348 402.963 112.527 403.975 112.527C404.987 112.527 405.807 113.348 405.807 114.36Z" fill="#FEE4AA"/>
</g>
<g opacity="0.6">
<path fill-rule="evenodd" clip-rule="evenodd" d="M534.408 114.186C534.582 114.341 534.597 114.609 534.441 114.783L525.829 124.4L513.469 122.433L506.852 132.773C506.726 132.97 506.464 133.027 506.268 132.901C506.071 132.775 506.014 132.514 506.14 132.317L513.055 121.511L525.506 123.492L533.811 114.219C533.967 114.045 534.234 114.03 534.408 114.186Z" fill="#FEE4AA"/>
<path fill-rule="evenodd" clip-rule="evenodd" d="M498.179 106.184C498.568 106.184 498.884 106.499 498.884 106.888V143.259H535.818C536.207 143.259 536.523 143.574 536.523 143.964C536.523 144.353 536.207 144.668 535.818 144.668H497.474V106.888C497.474 106.499 497.79 106.184 498.179 106.184Z" fill="#FEE4AA"/>
<path d="M508.329 132.404C508.329 133.416 507.508 134.237 506.496 134.237C505.484 134.237 504.664 133.416 504.664 132.404C504.664 131.392 505.484 130.572 506.496 130.572C507.508 130.572 508.329 131.392 508.329 132.404Z" fill="#FEE4AA"/>
<path d="M515.095 121.972C515.095 122.984 514.275 123.805 513.263 123.805C512.251 123.805 511.43 122.984 511.43 121.972C511.43 120.96 512.251 120.14 513.263 120.14C514.275 120.14 515.095 120.96 515.095 121.972Z" fill="#FEE4AA"/>
<path d="M527.501 123.664C527.501 124.676 526.681 125.496 525.669 125.496C524.656 125.496 523.836 124.676 523.836 123.664C523.836 122.652 524.656 121.831 525.669 121.831C526.681 121.831 527.501 122.652 527.501 123.664Z" fill="#FEE4AA"/>
<path d="M535.677 114.36C535.677 115.372 534.856 116.193 533.844 116.193C532.832 116.193 532.012 115.372 532.012 114.36C532.012 113.348 532.832 112.527 533.844 112.527C534.856 112.527 535.677 113.348 535.677 114.36Z" fill="#FEE4AA"/>
</g>
<g opacity="0.6">
<path fill-rule="evenodd" clip-rule="evenodd" d="M583.284 213.334C583.458 213.49 583.473 213.757 583.317 213.931L574.705 223.548L562.346 221.581L555.728 231.921C555.602 232.118 555.341 232.175 555.144 232.049C554.947 231.923 554.89 231.662 555.016 231.465L561.932 220.659L574.383 222.64L582.687 213.367C582.843 213.193 583.11 213.178 583.284 213.334Z" fill="#FEE4AA"/>
<path fill-rule="evenodd" clip-rule="evenodd" d="M547.055 205.332C547.444 205.332 547.76 205.647 547.76 206.036V242.407H584.694C585.083 242.407 585.399 242.722 585.399 243.112C585.399 243.501 585.083 243.816 584.694 243.816H546.35V206.036C546.35 205.647 546.666 205.332 547.055 205.332Z" fill="#FEE4AA"/>
<path d="M557.205 231.552C557.205 232.564 556.384 233.385 555.372 233.385C554.36 233.385 553.54 232.564 553.54 231.552C553.54 230.54 554.36 229.719 555.372 229.719C556.384 229.719 557.205 230.54 557.205 231.552Z" fill="#FEE4AA"/>
<path d="M563.971 221.12C563.971 222.132 563.151 222.953 562.139 222.953C561.127 222.953 560.306 222.132 560.306 221.12C560.306 220.108 561.127 219.288 562.139 219.288C563.151 219.288 563.971 220.108 563.971 221.12Z" fill="#FEE4AA"/>
<path d="M576.377 222.812C576.377 223.824 575.556 224.644 574.544 224.644C573.532 224.644 572.711 223.824 572.711 222.812C572.711 221.8 573.532 220.979 574.544 220.979C575.556 220.979 576.377 221.8 576.377 222.812Z" fill="#FEE4AA"/>
<path d="M584.553 213.508C584.553 214.52 583.732 215.341 582.72 215.341C581.708 215.341 580.888 214.52 580.888 213.508C580.888 212.496 581.708 211.675 582.72 211.675C583.732 211.675 584.553 212.496 584.553 213.508Z" fill="#FEE4AA"/>
</g>
<g opacity="0.6">
<path fill-rule="evenodd" clip-rule="evenodd" d="M713.154 213.334C713.328 213.49 713.343 213.757 713.187 213.931L704.575 223.548L692.215 221.581L685.598 231.921C685.472 232.118 685.211 232.175 685.014 232.049C684.817 231.923 684.76 231.662 684.886 231.465L691.801 220.659L704.253 222.64L712.557 213.367C712.713 213.193 712.98 213.178 713.154 213.334Z" fill="#FEE4AA"/>
<path fill-rule="evenodd" clip-rule="evenodd" d="M676.925 205.332C677.314 205.332 677.63 205.647 677.63 206.036V242.407H714.564C714.953 242.407 715.269 242.722 715.269 243.112C715.269 243.501 714.953 243.816 714.564 243.816H676.22V206.036C676.22 205.647 676.536 205.332 676.925 205.332Z" fill="#FEE4AA"/>
<path d="M687.075 231.552C687.075 232.564 686.254 233.385 685.242 233.385C684.23 233.385 683.41 232.564 683.41 231.552C683.41 230.54 684.23 229.719 685.242 229.719C686.254 229.719 687.075 230.54 687.075 231.552Z" fill="#FEE4AA"/>
<path d="M693.841 221.12C693.841 222.132 693.021 222.953 692.008 222.953C690.996 222.953 690.176 222.132 690.176 221.12C690.176 220.108 690.996 219.288 692.008 219.288C693.021 219.288 693.841 220.108 693.841 221.12Z" fill="#FEE4AA"/>
<path d="M706.247 222.812C706.247 223.824 705.426 224.644 704.414 224.644C703.402 224.644 702.582 223.824 702.582 222.812C702.582 221.799 703.402 220.979 704.414 220.979C705.426 220.979 706.247 221.799 706.247 222.812Z" fill="#FEE4AA"/>
<path d="M714.423 213.508C714.423 214.52 713.603 215.341 712.59 215.341C711.578 215.341 710.758 214.52 710.758 213.508C710.758 212.496 711.578 211.675 712.59 211.675C713.603 211.675 714.423 212.496 714.423 213.508Z" fill="#FEE4AA"/>
</g>
<g opacity="0.6">
<path fill-rule="evenodd" clip-rule="evenodd" d="M843.025 213.334C843.199 213.49 843.213 213.757 843.058 213.931L834.446 223.548L822.086 221.581L815.469 231.921C815.343 232.118 815.081 232.175 814.884 232.049C814.688 231.923 814.63 231.662 814.756 231.465L821.672 220.659L834.123 222.64L842.428 213.367C842.583 213.193 842.851 213.178 843.025 213.334Z" fill="#FEE4AA"/>
<path fill-rule="evenodd" clip-rule="evenodd" d="M806.795 205.332C807.184 205.332 807.5 205.647 807.5 206.036V242.407H844.434C844.824 242.407 845.139 242.722 845.139 243.112C845.139 243.501 844.824 243.816 844.434 243.816H806.09V206.036C806.09 205.647 806.406 205.332 806.795 205.332Z" fill="#FEE4AA"/>
<path d="M816.945 231.552C816.945 232.564 816.125 233.384 815.112 233.384C814.1 233.384 813.28 232.564 813.28 231.552C813.28 230.54 814.1 229.719 815.112 229.719C816.125 229.719 816.945 230.54 816.945 231.552Z" fill="#FEE4AA"/>
<path d="M823.711 221.12C823.711 222.132 822.891 222.953 821.879 222.953C820.866 222.953 820.046 222.132 820.046 221.12C820.046 220.108 820.866 219.288 821.879 219.288C822.891 219.288 823.711 220.108 823.711 221.12Z" fill="#FEE4AA"/>
<path d="M836.117 222.812C836.117 223.824 835.296 224.644 834.284 224.644C833.272 224.644 832.452 223.824 832.452 222.812C832.452 221.8 833.272 220.979 834.284 220.979C835.296 220.979 836.117 221.8 836.117 222.812Z" fill="#FEE4AA"/>
<path d="M844.293 213.508C844.293 214.52 843.473 215.341 842.461 215.341C841.448 215.341 840.628 214.52 840.628 213.508C840.628 212.496 841.448 211.675 842.461 211.675C843.473 211.675 844.293 212.496 844.293 213.508Z" fill="#FEE4AA"/>
</g>
<g opacity="0.6">
<path fill-rule="evenodd" clip-rule="evenodd" d="M63.804 213.334C63.978 213.49 63.9927 213.757 63.8369 213.931L55.2249 223.548L42.8653 221.581L36.2479 231.921C36.122 232.118 35.8605 232.175 35.6637 232.049C35.467 231.923 35.4096 231.662 35.5355 231.465L42.4513 220.659L54.9024 222.64L63.2068 213.367C63.3626 213.193 63.63 213.178 63.804 213.334Z" fill="#FEE4AA"/>
<path fill-rule="evenodd" clip-rule="evenodd" d="M27.575 205.332C27.9642 205.332 28.2798 205.647 28.2798 206.036V242.407H65.214C65.6033 242.407 65.9189 242.722 65.9189 243.112C65.9189 243.501 65.6033 243.816 65.214 243.816H26.8701V206.036C26.8701 205.647 27.1857 205.332 27.575 205.332Z" fill="#FEE4AA"/>
<path d="M37.7248 231.552C37.7248 232.564 36.9043 233.385 35.8922 233.385C34.8801 233.385 34.0596 232.564 34.0596 231.552C34.0596 230.54 34.8801 229.719 35.8922 229.719C36.9043 229.719 37.7248 230.54 37.7248 231.552Z" fill="#FEE4AA"/>
<path d="M44.4914 221.12C44.4914 222.132 43.6709 222.953 42.6588 222.953C41.6467 222.953 40.8262 222.132 40.8262 221.12C40.8262 220.108 41.6467 219.288 42.6588 219.288C43.6709 219.288 44.4914 220.108 44.4914 221.12Z" fill="#FEE4AA"/>
<path d="M56.8967 222.812C56.8967 223.824 56.0762 224.644 55.0641 224.644C54.0519 224.644 53.2314 223.824 53.2314 222.812C53.2314 221.799 54.0519 220.979 55.0641 220.979C56.0762 220.979 56.8967 221.799 56.8967 222.812Z" fill="#FEE4AA"/>
<path d="M65.0725 213.508C65.0725 214.52 64.252 215.341 63.2398 215.341C62.2277 215.341 61.4072 214.52 61.4072 213.508C61.4072 212.496 62.2277 211.675 63.2398 211.675C64.252 211.675 65.0725 212.496 65.0725 213.508Z" fill="#FEE4AA"/>
</g>
<g opacity="0.6">
<path fill-rule="evenodd" clip-rule="evenodd" d="M193.674 213.334C193.848 213.49 193.863 213.757 193.707 213.931L185.095 223.548L172.735 221.581L166.118 231.921C165.992 232.118 165.731 232.175 165.534 232.049C165.337 231.923 165.28 231.662 165.406 231.465L172.321 220.659L184.773 222.64L193.077 213.367C193.233 213.193 193.5 213.178 193.674 213.334Z" fill="#FEE4AA"/>
<path fill-rule="evenodd" clip-rule="evenodd" d="M157.445 205.332C157.834 205.332 158.15 205.647 158.15 206.036V242.407H195.084C195.473 242.407 195.789 242.722 195.789 243.112C195.789 243.501 195.473 243.816 195.084 243.816H156.74V206.036C156.74 205.647 157.056 205.332 157.445 205.332Z" fill="#FEE4AA"/>
<path d="M167.594 231.552C167.594 232.564 166.774 233.385 165.762 233.385C164.75 233.385 163.929 232.564 163.929 231.552C163.929 230.54 164.75 229.719 165.762 229.719C166.774 229.719 167.594 230.54 167.594 231.552Z" fill="#FEE4AA"/>
<path d="M174.362 221.12C174.362 222.133 173.541 222.953 172.529 222.953C171.517 222.953 170.696 222.133 170.696 221.12C170.696 220.108 171.517 219.288 172.529 219.288C173.541 219.288 174.362 220.108 174.362 221.12Z" fill="#FEE4AA"/>
<path d="M186.767 222.812C186.767 223.824 185.946 224.644 184.934 224.644C183.922 224.644 183.102 223.824 183.102 222.812C183.102 221.8 183.922 220.979 184.934 220.979C185.946 220.979 186.767 221.8 186.767 222.812Z" fill="#FEE4AA"/>
<path d="M194.943 213.508C194.943 214.52 194.123 215.341 193.11 215.341C192.098 215.341 191.278 214.52 191.278 213.508C191.278 212.496 192.098 211.676 193.11 211.676C194.123 211.676 194.943 212.496 194.943 213.508Z" fill="#FEE4AA"/>
</g>
<g opacity="0.6">
<path fill-rule="evenodd" clip-rule="evenodd" d="M323.545 213.334C323.719 213.49 323.733 213.757 323.578 213.931L314.966 223.548L302.606 221.581L295.989 231.921C295.863 232.118 295.601 232.175 295.404 232.049C295.208 231.923 295.15 231.662 295.276 231.465L302.192 220.659L314.643 222.64L322.948 213.367C323.103 213.193 323.371 213.178 323.545 213.334Z" fill="#FEE4AA"/>
<path fill-rule="evenodd" clip-rule="evenodd" d="M287.315 205.332C287.704 205.332 288.02 205.647 288.02 206.036V242.407H324.954C325.344 242.407 325.659 242.722 325.659 243.112C325.659 243.501 325.344 243.816 324.954 243.816H286.61V206.036C286.61 205.647 286.926 205.332 287.315 205.332Z" fill="#FEE4AA"/>
<path d="M297.465 231.552C297.465 232.564 296.645 233.385 295.632 233.385C294.62 233.385 293.8 232.564 293.8 231.552C293.8 230.54 294.62 229.719 295.632 229.719C296.645 229.719 297.465 230.54 297.465 231.552Z" fill="#FEE4AA"/>
<path d="M304.232 221.12C304.232 222.133 303.411 222.953 302.399 222.953C301.387 222.953 300.566 222.133 300.566 221.12C300.566 220.108 301.387 219.288 302.399 219.288C303.411 219.288 304.232 220.108 304.232 221.12Z" fill="#FEE4AA"/>
<path d="M316.637 222.812C316.637 223.824 315.817 224.644 314.805 224.644C313.793 224.644 312.972 223.824 312.972 222.812C312.972 221.8 313.793 220.979 314.805 220.979C315.817 220.979 316.637 221.8 316.637 222.812Z" fill="#FEE4AA"/>
<path d="M324.814 213.508C324.814 214.52 323.993 215.341 322.981 215.341C321.969 215.341 321.148 214.52 321.148 213.508C321.148 212.496 321.969 211.675 322.981 211.675C323.993 211.675 324.814 212.496 324.814 213.508Z" fill="#FEE4AA"/>
</g>
<g opacity="0.6">
<path fill-rule="evenodd" clip-rule="evenodd" d="M453.414 213.334C453.588 213.49 453.603 213.757 453.447 213.931L444.835 223.548L432.475 221.581L425.858 231.921C425.732 232.118 425.47 232.175 425.274 232.049C425.077 231.923 425.019 231.662 425.145 231.465L432.061 220.659L444.512 222.64L452.817 213.367C452.973 213.193 453.24 213.178 453.414 213.334Z" fill="#FEE4AA"/>
<path fill-rule="evenodd" clip-rule="evenodd" d="M417.185 205.332C417.574 205.332 417.89 205.647 417.89 206.036V242.407H454.824C455.213 242.407 455.529 242.722 455.529 243.112C455.529 243.501 455.213 243.816 454.824 243.816H416.48V206.036C416.48 205.647 416.796 205.332 417.185 205.332Z" fill="#FEE4AA"/>
<path d="M427.335 231.552C427.335 232.564 426.514 233.385 425.502 233.385C424.49 233.385 423.669 232.564 423.669 231.552C423.669 230.54 424.49 229.719 425.502 229.719C426.514 229.719 427.335 230.54 427.335 231.552Z" fill="#FEE4AA"/>
<path d="M434.101 221.12C434.101 222.133 433.281 222.953 432.269 222.953C431.257 222.953 430.436 222.133 430.436 221.12C430.436 220.108 431.257 219.288 432.269 219.288C433.281 219.288 434.101 220.108 434.101 221.12Z" fill="#FEE4AA"/>
<path d="M446.507 222.812C446.507 223.824 445.687 224.644 444.674 224.644C443.662 224.644 442.842 223.824 442.842 222.812C442.842 221.8 443.662 220.979 444.674 220.979C445.687 220.979 446.507 221.8 446.507 222.812Z" fill="#FEE4AA"/>
<path d="M454.683 213.508C454.683 214.52 453.862 215.341 452.85 215.341C451.838 215.341 451.018 214.52 451.018 213.508C451.018 212.496 451.838 211.676 452.85 211.676C453.862 211.676 454.683 212.496 454.683 213.508Z" fill="#FEE4AA"/>
</g>
<g opacity="0.6">
<path fill-rule="evenodd" clip-rule="evenodd" d="M664.279 298.517C664.453 298.673 664.467 298.94 664.312 299.114L655.7 308.731L643.34 306.765L636.723 317.104C636.597 317.301 636.335 317.359 636.138 317.233C635.942 317.107 635.884 316.845 636.01 316.649L642.926 305.843L655.377 307.823L663.681 298.55C663.837 298.376 664.105 298.361 664.279 298.517Z" fill="#FEE4AA"/>
<path fill-rule="evenodd" clip-rule="evenodd" d="M628.049 290.515C628.438 290.515 628.754 290.831 628.754 291.22V327.59H665.688C666.077 327.59 666.393 327.906 666.393 328.295C666.393 328.684 666.077 329 665.688 329H627.344V291.22C627.344 290.831 627.66 290.515 628.049 290.515Z" fill="#FEE4AA"/>
<path d="M638.199 316.735C638.199 317.748 637.378 318.568 636.366 318.568C635.354 318.568 634.534 317.748 634.534 316.735C634.534 315.723 635.354 314.903 636.366 314.903C637.378 314.903 638.199 315.723 638.199 316.735Z" fill="#FEE4AA"/>
<path d="M644.965 306.304C644.965 307.316 644.145 308.136 643.132 308.136C642.12 308.136 641.3 307.316 641.3 306.304C641.3 305.292 642.12 304.471 643.132 304.471C644.145 304.471 644.965 305.292 644.965 306.304Z" fill="#FEE4AA"/>
<path d="M657.371 307.995C657.371 309.008 656.55 309.828 655.538 309.828C654.526 309.828 653.706 309.008 653.706 307.995C653.706 306.983 654.526 306.163 655.538 306.163C656.55 306.163 657.371 306.983 657.371 307.995Z" fill="#FEE4AA"/>
<path d="M665.547 298.691C665.547 299.704 664.727 300.524 663.714 300.524C662.702 300.524 661.882 299.704 661.882 298.691C661.882 297.679 662.702 296.859 663.714 296.859C664.727 296.859 665.547 297.679 665.547 298.691Z" fill="#FEE4AA"/>
</g>
<g opacity="0.6">
<path fill-rule="evenodd" clip-rule="evenodd" d="M794.148 298.517C794.322 298.673 794.337 298.94 794.181 299.114L785.569 308.731L773.209 306.765L766.592 317.104C766.466 317.301 766.205 317.359 766.008 317.233C765.811 317.107 765.754 316.845 765.88 316.649L772.796 305.843L785.247 307.823L793.551 298.55C793.707 298.376 793.974 298.361 794.148 298.517Z" fill="#FEE4AA"/>
<path fill-rule="evenodd" clip-rule="evenodd" d="M757.919 290.515C758.308 290.515 758.624 290.831 758.624 291.22V327.59H795.558C795.947 327.59 796.263 327.906 796.263 328.295C796.263 328.684 795.947 329 795.558 329H757.214V291.22C757.214 290.831 757.529 290.515 757.919 290.515Z" fill="#FEE4AA"/>
<path d="M768.069 316.735C768.069 317.748 767.248 318.568 766.236 318.568C765.224 318.568 764.403 317.748 764.403 316.735C764.403 315.723 765.224 314.903 766.236 314.903C767.248 314.903 768.069 315.723 768.069 316.735Z" fill="#FEE4AA"/>
<path d="M774.835 306.304C774.835 307.316 774.014 308.136 773.002 308.136C771.99 308.136 771.169 307.316 771.169 306.304C771.169 305.292 771.99 304.471 773.002 304.471C774.014 304.471 774.835 305.292 774.835 306.304Z" fill="#FEE4AA"/>
<path d="M787.24 307.995C787.24 309.008 786.42 309.828 785.408 309.828C784.396 309.828 783.575 309.008 783.575 307.995C783.575 306.983 784.396 306.163 785.408 306.163C786.42 306.163 787.24 306.983 787.24 307.995Z" fill="#FEE4AA"/>
<path d="M795.417 298.691C795.417 299.704 794.596 300.524 793.584 300.524C792.572 300.524 791.751 299.704 791.751 298.691C791.751 297.679 792.572 296.859 793.584 296.859C794.596 296.859 795.417 297.679 795.417 298.691Z" fill="#FEE4AA"/>
</g>
<g opacity="0.6">
<path fill-rule="evenodd" clip-rule="evenodd" d="M924.018 298.517C924.192 298.673 924.207 298.94 924.051 299.114L915.439 308.731L903.079 306.765L896.462 317.104C896.336 317.301 896.074 317.359 895.878 317.233C895.681 317.107 895.623 316.845 895.749 316.649L902.665 305.843L915.116 307.823L923.421 298.55C923.577 298.376 923.844 298.361 924.018 298.517Z" fill="#FEE4AA"/>
<path fill-rule="evenodd" clip-rule="evenodd" d="M887.789 290.515C888.178 290.515 888.494 290.831 888.494 291.22V327.59H925.428C925.817 327.59 926.133 327.906 926.133 328.295C926.133 328.684 925.817 329 925.428 329H887.084V291.22C887.084 290.831 887.4 290.515 887.789 290.515Z" fill="#FEE4AA"/>
<path d="M897.939 316.735C897.939 317.748 897.118 318.568 896.106 318.568C895.094 318.568 894.273 317.748 894.273 316.735C894.273 315.723 895.094 314.903 896.106 314.903C897.118 314.903 897.939 315.723 897.939 316.735Z" fill="#FEE4AA"/>
</g>
<g opacity="0.6">
<path fill-rule="evenodd" clip-rule="evenodd" d="M14.9285 298.517C15.1025 298.673 15.1173 298.94 14.9614 299.114L6.34941 308.731L-6.01024 306.765L-12.6276 317.104C-12.7535 317.301 -13.015 317.359 -13.2117 317.233C-13.4085 317.107 -13.4659 316.845 -13.34 316.649L-6.42417 305.843L6.02693 307.823L14.3313 298.55C14.4872 298.376 14.7545 298.361 14.9285 298.517Z" fill="#FEE4AA"/>
<path fill-rule="evenodd" clip-rule="evenodd" d="M-21.301 290.515C-20.9117 290.515 -20.5962 290.831 -20.5962 291.22V327.59H16.338C16.7273 327.59 17.0429 327.906 17.0429 328.295C17.0429 328.684 16.7273 329 16.338 329H-22.0059V291.22C-22.0059 290.831 -21.6903 290.515 -21.301 290.515Z" fill="#FEE4AA"/>
<path d="M8.02069 307.995C8.02069 309.008 7.20021 309.828 6.18808 309.828C5.17596 309.828 4.35547 309.008 4.35547 307.995C4.35547 306.983 5.17596 306.163 6.18808 306.163C7.20021 306.163 8.02069 306.983 8.02069 307.995Z" fill="#FEE4AA"/>
<path d="M16.197 298.691C16.197 299.704 15.3765 300.524 14.3644 300.524C13.3522 300.524 12.5317 299.704 12.5317 298.691C12.5317 297.679 13.3522 296.859 14.3644 296.859C15.3765 296.859 16.197 297.679 16.197 298.691Z" fill="#FEE4AA"/>
</g>
<g opacity="0.6">
<path fill-rule="evenodd" clip-rule="evenodd" d="M144.798 298.517C144.972 298.673 144.987 298.94 144.831 299.114L136.219 308.731L123.859 306.765L117.242 317.104C117.116 317.301 116.855 317.359 116.658 317.233C116.461 317.107 116.404 316.845 116.53 316.649L123.445 305.843L135.897 307.823L144.201 298.55C144.357 298.376 144.624 298.361 144.798 298.517Z" fill="#FEE4AA"/>
<path fill-rule="evenodd" clip-rule="evenodd" d="M108.569 290.515C108.958 290.515 109.274 290.831 109.274 291.22V327.59H146.208C146.597 327.59 146.913 327.906 146.913 328.295C146.913 328.684 146.597 329 146.208 329H107.864V291.22C107.864 290.831 108.18 290.515 108.569 290.515Z" fill="#FEE4AA"/>
<path d="M118.719 316.735C118.719 317.748 117.898 318.568 116.886 318.568C115.874 318.568 115.054 317.748 115.054 316.735C115.054 315.723 115.874 314.903 116.886 314.903C117.898 314.903 118.719 315.723 118.719 316.735Z" fill="#FEE4AA"/>
<path d="M125.486 306.304C125.486 307.316 124.665 308.136 123.653 308.136C122.641 308.136 121.82 307.316 121.82 306.304C121.82 305.292 122.641 304.471 123.653 304.471C124.665 304.471 125.486 305.292 125.486 306.304Z" fill="#FEE4AA"/>
<path d="M137.891 307.995C137.891 309.008 137.07 309.828 136.058 309.828C135.046 309.828 134.226 309.008 134.226 307.995C134.226 306.983 135.046 306.163 136.058 306.163C137.07 306.163 137.891 306.983 137.891 307.995Z" fill="#FEE4AA"/>
<path d="M146.067 298.691C146.067 299.704 145.247 300.524 144.234 300.524C143.222 300.524 142.402 299.704 142.402 298.691C142.402 297.679 143.222 296.859 144.234 296.859C145.247 296.859 146.067 297.679 146.067 298.691Z" fill="#FEE4AA"/>
</g>
<g opacity="0.6">
<path fill-rule="evenodd" clip-rule="evenodd" d="M274.668 298.517C274.842 298.673 274.857 298.94 274.701 299.114L266.089 308.731L253.729 306.765L247.112 317.104C246.986 317.301 246.724 317.359 246.528 317.233C246.331 317.107 246.273 316.845 246.399 316.649L253.315 305.843L265.766 307.823L274.071 298.55C274.226 298.376 274.494 298.361 274.668 298.517Z" fill="#FEE4AA"/>
<path fill-rule="evenodd" clip-rule="evenodd" d="M238.439 290.515C238.828 290.515 239.144 290.831 239.144 291.22V327.59H276.078C276.467 327.59 276.783 327.906 276.783 328.295C276.783 328.684 276.467 329 276.078 329H237.734V291.22C237.734 290.831 238.049 290.515 238.439 290.515Z" fill="#FEE4AA"/>
<path d="M248.588 316.735C248.588 317.748 247.768 318.568 246.755 318.568C245.743 318.568 244.923 317.748 244.923 316.735C244.923 315.723 245.743 314.903 246.755 314.903C247.768 314.903 248.588 315.723 248.588 316.735Z" fill="#FEE4AA"/>
<path d="M255.355 306.304C255.355 307.316 254.535 308.136 253.523 308.136C252.51 308.136 251.69 307.316 251.69 306.304C251.69 305.292 252.51 304.471 253.523 304.471C254.535 304.471 255.355 305.292 255.355 306.304Z" fill="#FEE4AA"/>
<path d="M267.76 307.995C267.76 309.008 266.94 309.828 265.928 309.828C264.916 309.828 264.095 309.008 264.095 307.995C264.095 306.983 264.916 306.163 265.928 306.163C266.94 306.163 267.76 306.983 267.76 307.995Z" fill="#FEE4AA"/>
<path d="M275.937 298.691C275.937 299.704 275.116 300.524 274.104 300.524C273.092 300.524 272.271 299.704 272.271 298.691C272.271 297.679 273.092 296.859 274.104 296.859C275.116 296.859 275.937 297.679 275.937 298.691Z" fill="#FEE4AA"/>
</g>
<g opacity="0.6">
<path fill-rule="evenodd" clip-rule="evenodd" d="M404.538 298.517C404.712 298.673 404.727 298.94 404.571 299.114L395.959 308.731L383.6 306.765L376.982 317.104C376.856 317.301 376.595 317.359 376.398 317.233C376.201 317.107 376.144 316.845 376.27 316.649L383.186 305.843L395.637 307.823L403.941 298.55C404.097 298.376 404.364 298.361 404.538 298.517Z" fill="#FEE4AA"/>
<path fill-rule="evenodd" clip-rule="evenodd" d="M368.309 290.515C368.698 290.515 369.014 290.831 369.014 291.22V327.59H405.948C406.337 327.59 406.653 327.906 406.653 328.295C406.653 328.684 406.337 329 405.948 329H367.604V291.22C367.604 290.831 367.92 290.515 368.309 290.515Z" fill="#FEE4AA"/>
<path d="M378.459 316.735C378.459 317.748 377.638 318.568 376.626 318.568C375.614 318.568 374.793 317.748 374.793 316.735C374.793 315.723 375.614 314.903 376.626 314.903C377.638 314.903 378.459 315.723 378.459 316.735Z" fill="#FEE4AA"/>
<path d="M385.225 306.304C385.225 307.316 384.405 308.136 383.393 308.136C382.381 308.136 381.56 307.316 381.56 306.304C381.56 305.292 382.381 304.471 383.393 304.471C384.405 304.471 385.225 305.292 385.225 306.304Z" fill="#FEE4AA"/>
<path d="M397.631 307.995C397.631 309.008 396.811 309.828 395.798 309.828C394.786 309.828 393.966 309.008 393.966 307.995C393.966 306.983 394.786 306.163 395.798 306.163C396.811 306.163 397.631 306.983 397.631 307.995Z" fill="#FEE4AA"/>
<path d="M405.807 298.691C405.807 299.704 404.987 300.524 403.975 300.524C402.963 300.524 402.142 299.704 402.142 298.691C402.142 297.679 402.963 296.859 403.975 296.859C404.987 296.859 405.807 297.679 405.807 298.691Z" fill="#FEE4AA"/>
</g>
<g opacity="0.6">
<path fill-rule="evenodd" clip-rule="evenodd" d="M534.408 298.517C534.582 298.673 534.597 298.94 534.441 299.114L525.829 308.731L513.469 306.765L506.852 317.104C506.726 317.301 506.464 317.359 506.268 317.233C506.071 317.107 506.014 316.845 506.14 316.649L513.055 305.843L525.506 307.823L533.811 298.55C533.967 298.376 534.234 298.361 534.408 298.517Z" fill="#FEE4AA"/>
<path fill-rule="evenodd" clip-rule="evenodd" d="M498.179 290.515C498.568 290.515 498.884 290.831 498.884 291.22V327.59H535.818C536.207 327.59 536.523 327.906 536.523 328.295C536.523 328.684 536.207 329 535.818 329H497.474V291.22C497.474 290.831 497.79 290.515 498.179 290.515Z" fill="#FEE4AA"/>
<path d="M508.329 316.735C508.329 317.748 507.508 318.568 506.496 318.568C505.484 318.568 504.664 317.748 504.664 316.735C504.664 315.723 505.484 314.903 506.496 314.903C507.508 314.903 508.329 315.723 508.329 316.735Z" fill="#FEE4AA"/>
<path d="M515.095 306.304C515.095 307.316 514.275 308.137 513.263 308.137C512.251 308.137 511.43 307.316 511.43 306.304C511.43 305.292 512.251 304.471 513.263 304.471C514.275 304.471 515.095 305.292 515.095 306.304Z" fill="#FEE4AA"/>
<path d="M527.501 307.995C527.501 309.008 526.681 309.828 525.669 309.828C524.656 309.828 523.836 309.008 523.836 307.995C523.836 306.983 524.656 306.163 525.669 306.163C526.681 306.163 527.501 306.983 527.501 307.995Z" fill="#FEE4AA"/>
<path d="M535.677 298.691C535.677 299.704 534.856 300.524 533.844 300.524C532.832 300.524 532.012 299.704 532.012 298.691C532.012 297.679 532.832 296.859 533.844 296.859C534.856 296.859 535.677 297.679 535.677 298.691Z" fill="#FEE4AA"/>
</g>
</g>
<defs>
<clipPath id="clip0_11681_1667">
<rect width="900" height="350" fill="white"/>
</clipPath>
</defs>
</svg>
