<svg width="1500" height="350" viewBox="0 0 1500 350" fill="none" xmlns="http://www.w3.org/2000/svg">
<g clip-path="url(#clip0_8719_1714)">
<rect width="1500" height="350" fill="#D1E3FA"/>
<path fill-rule="evenodd" clip-rule="evenodd" d="M562.692 161.515C562.955 161.529 563.221 161.536 563.488 161.536C571.845 161.536 578.621 154.696 578.621 146.26C578.621 137.823 571.845 130.984 563.488 130.984C562.614 130.984 561.758 131.059 560.925 131.202C557.62 123.504 550.025 118.12 541.185 118.12C539.396 118.12 537.659 118.34 535.998 118.755C532.091 104.481 519.133 94 503.75 94C486.498 94 472.296 107.182 470.491 124.112C468.443 123.356 466.232 122.944 463.925 122.944C453.368 122.944 444.809 131.583 444.809 142.24C444.809 152.897 453.368 161.536 463.925 161.536C465.011 161.536 466.076 161.444 467.113 161.269V161.536H562.692V161.515Z" fill="white"/>
<path fill-rule="evenodd" clip-rule="evenodd" d="M259.761 316.563H231.786C231.773 316.563 231.761 316.563 231.749 316.563C231.736 316.563 231.724 316.563 231.712 316.563H206.151C206.136 316.563 206.122 316.563 206.107 316.563C206.092 316.563 206.077 316.563 206.063 316.563H204.318V316.456C196.928 315.564 191.199 309.215 191.199 301.515C191.199 293.204 197.873 286.466 206.107 286.466C206.458 286.466 206.805 286.478 207.15 286.502C209.363 274.825 219.535 266 231.749 266C243.266 266 252.968 273.847 255.893 284.534C257.136 284.223 258.437 284.058 259.776 284.058C268.669 284.058 275.877 291.335 275.877 300.311C275.877 308.677 269.616 315.566 261.565 316.464V316.563H259.792C259.787 316.563 259.782 316.563 259.776 316.563C259.771 316.563 259.766 316.563 259.761 316.563Z" fill="white"/>
<path fill-rule="evenodd" clip-rule="evenodd" d="M160.694 193.563H132.719C132.707 193.563 132.694 193.563 132.682 193.563C132.67 193.563 132.658 193.563 132.645 193.563H107.085C107.07 193.563 107.055 193.563 107.04 193.563C107.026 193.563 107.011 193.563 106.996 193.563H105.251V193.456C97.861 192.564 92.1321 186.215 92.1321 178.515C92.1321 170.204 98.8067 163.466 107.04 163.466C107.391 163.466 107.739 163.478 108.083 163.502C110.297 151.825 120.468 143 132.682 143C144.2 143 153.901 150.847 156.826 161.534C158.07 161.223 159.371 161.058 160.71 161.058C169.602 161.058 176.811 168.335 176.811 177.311C176.811 185.677 170.549 192.566 162.498 193.464V193.563H160.726C160.72 193.563 160.715 193.563 160.71 193.563C160.705 193.563 160.699 193.563 160.694 193.563Z" fill="white"/>
<path fill-rule="evenodd" clip-rule="evenodd" d="M790.758 69.5634H762.783C762.771 69.5634 762.758 69.5634 762.746 69.5634C762.734 69.5634 762.722 69.5634 762.709 69.5634H737.148C737.134 69.5634 737.119 69.5635 737.104 69.5635C737.089 69.5635 737.075 69.5634 737.06 69.5634H735.315V69.4562C727.925 68.5639 722.196 62.2147 722.196 54.5148C722.196 46.2037 728.871 39.4662 737.104 39.4662C737.455 39.4662 737.803 39.4784 738.147 39.5024C740.361 27.8249 750.532 19 762.746 19C774.264 19 783.965 26.8474 786.89 37.5343C788.134 37.2234 789.435 37.0583 790.774 37.0583C799.666 37.0583 806.875 44.3349 806.875 53.3109C806.875 61.6766 800.613 68.5661 792.562 69.4643V69.5634H790.79C790.784 69.5634 790.779 69.5634 790.774 69.5634C790.769 69.5634 790.763 69.5634 790.758 69.5634Z" fill="white"/>
<path fill-rule="evenodd" clip-rule="evenodd" d="M69.2143 110.472C69.575 110.491 69.9382 110.5 70.3036 110.5C81.7339 110.5 91 101.234 91 89.8036C91 78.3732 81.7339 69.1071 70.3036 69.1071C69.1096 69.1071 67.9393 69.2082 66.8007 69.4023C62.2801 58.9737 51.8938 51.6786 39.8036 51.6786C37.3577 51.6786 34.9816 51.9771 32.7097 52.5398C27.3673 33.2008 9.64558 19 -11.3929 19C-34.9864 19 -54.4087 36.8596 -56.8779 59.7971C-59.6781 58.7731 -62.7023 58.2143 -65.8571 58.2143C-80.2954 58.2143 -92 69.9188 -92 84.3571C-92 98.7954 -80.2954 110.5 -65.8571 110.5C-64.3726 110.5 -62.917 110.376 -61.5 110.139V110.5H-11.3929H39.8036H69.2143V110.472Z" fill="white"/>
<path fill-rule="evenodd" clip-rule="evenodd" d="M1390.99 48.515C1391.26 48.5287 1391.53 48.5357 1391.8 48.5357C1400.23 48.5357 1407.07 41.6965 1407.07 33.2598C1407.07 24.8231 1400.23 17.9839 1391.8 17.9839C1390.91 17.9839 1390.05 18.0585 1389.21 18.2019C1385.87 10.5045 1378.21 5.11986 1369.28 5.11986C1367.48 5.11986 1365.72 5.34021 1364.05 5.75548C1360.1 -8.51852 1347.02 -19 1331.5 -19C1314.08 -19 1299.75 -5.81783 1297.92 11.1123C1295.86 10.3565 1293.62 9.94399 1291.3 9.94399C1280.64 9.94399 1272 18.5831 1272 29.2399C1272 39.8967 1280.64 48.5358 1291.3 48.5358C1292.39 48.5358 1293.47 48.4444 1294.51 48.2688V48.5359H1390.99V48.515Z" fill="white"/>
<rect x="134" y="56" width="322" height="72" fill="#649D35"/>
<path d="M257.094 99.7812C257.094 101.135 256.76 102.302 256.094 103.281C255.438 104.26 254.49 105.01 253.25 105.531C252.021 106.052 250.552 106.312 248.844 106.312C248.01 106.312 247.214 106.266 246.453 106.172C245.693 106.078 244.974 105.943 244.297 105.766C243.63 105.578 243.021 105.354 242.469 105.094V101.562C243.396 101.969 244.432 102.339 245.578 102.672C246.724 102.995 247.891 103.156 249.078 103.156C250.047 103.156 250.849 103.031 251.484 102.781C252.13 102.521 252.609 102.156 252.922 101.688C253.234 101.208 253.391 100.651 253.391 100.016C253.391 99.3385 253.208 98.7656 252.844 98.2969C252.479 97.8281 251.927 97.401 251.188 97.0156C250.458 96.6198 249.542 96.1979 248.438 95.75C247.688 95.4479 246.969 95.1042 246.281 94.7188C245.604 94.3333 245 93.8802 244.469 93.3594C243.938 92.8385 243.516 92.224 243.203 91.5156C242.901 90.7969 242.75 89.9531 242.75 88.9844C242.75 87.6927 243.057 86.5885 243.672 85.6719C244.297 84.7552 245.172 84.0521 246.297 83.5625C247.432 83.0729 248.755 82.8281 250.266 82.8281C251.464 82.8281 252.589 82.9531 253.641 83.2031C254.703 83.4531 255.745 83.8073 256.766 84.2656L255.578 87.2812C254.641 86.8958 253.729 86.5885 252.844 86.3594C251.969 86.1302 251.073 86.0156 250.156 86.0156C249.365 86.0156 248.693 86.1354 248.141 86.375C247.589 86.6146 247.167 86.9531 246.875 87.3906C246.594 87.8177 246.453 88.3281 246.453 88.9219C246.453 89.5885 246.615 90.151 246.938 90.6094C247.271 91.0573 247.781 91.4688 248.469 91.8438C249.167 92.2188 250.062 92.6354 251.156 93.0938C252.417 93.6146 253.484 94.1615 254.359 94.7344C255.245 95.3073 255.922 95.9948 256.391 96.7969C256.859 97.5885 257.094 98.5833 257.094 99.7812ZM269.422 106H265.656V86.3438H258.969V83.1562H276.094V86.3438H269.422V106ZM293.75 106L291.516 99.6562H282.781L280.547 106H276.594L285.094 83.0625H289.25L297.734 106H293.75ZM290.547 96.4375L288.375 90.1875C288.292 89.9167 288.172 89.5365 288.016 89.0469C287.859 88.5469 287.703 88.0417 287.547 87.5312C287.391 87.0104 287.26 86.5729 287.156 86.2188C287.052 86.6458 286.922 87.125 286.766 87.6562C286.62 88.1771 286.474 88.6667 286.328 89.125C286.193 89.5833 286.089 89.9375 286.016 90.1875L283.828 96.4375H290.547ZM307.172 83.1562C309.141 83.1562 310.766 83.3958 312.047 83.875C313.339 84.3542 314.297 85.0833 314.922 86.0625C315.557 87.0417 315.875 88.2865 315.875 89.7969C315.875 90.9219 315.667 91.8802 315.25 92.6719C314.833 93.4635 314.286 94.1198 313.609 94.6406C312.932 95.1615 312.208 95.5781 311.438 95.8906L317.922 106H313.688L308.172 96.8438H304.5V106H300.75V83.1562H307.172ZM306.922 86.2812H304.5V93.75H307.094C308.833 93.75 310.094 93.4271 310.875 92.7812C311.667 92.1354 312.062 91.1823 312.062 89.9219C312.062 88.599 311.641 87.6615 310.797 87.1094C309.964 86.5573 308.672 86.2812 306.922 86.2812ZM329.109 106H325.344V86.3438H318.656V83.1562H335.781V86.3438H329.109V106ZM342.078 99.0312H339.312L338.562 83.1562H342.828L342.078 99.0312ZM338.375 104.062C338.375 103.208 338.594 102.609 339.031 102.266C339.479 101.911 340.026 101.734 340.672 101.734C341.307 101.734 341.849 101.911 342.297 102.266C342.745 102.609 342.969 103.208 342.969 104.062C342.969 104.896 342.745 105.5 342.297 105.875C341.849 106.24 341.307 106.422 340.672 106.422C340.026 106.422 339.479 106.24 339.031 105.875C338.594 105.5 338.375 104.896 338.375 104.062Z" fill="white"/>
<rect x="127" y="47" width="7" height="388" fill="#5C4208"/>
<rect x="124" y="47" width="5" height="388" fill="#C78A0C"/>
<rect x="458" y="47" width="7" height="388" fill="#5C4208"/>
<rect x="456" y="47" width="5" height="388" fill="#C78A0C"/>
<ellipse cx="128.5" cy="39" rx="11.5" ry="11" fill="#5C4208"/>
<ellipse cx="460.5" cy="39" rx="11.5" ry="11" fill="#5C4208"/>
<path fill-rule="evenodd" clip-rule="evenodd" d="M371.985 220.894C373.579 221.813 375.607 221.88 377.315 220.894C379.863 219.422 380.737 216.163 379.265 213.615C377.794 211.066 374.535 210.193 371.986 211.664C370.278 212.65 369.323 214.439 369.321 216.279L283.332 265.925L285.996 270.54L331.774 244.11L378.398 278.719L371.738 221.037L371.985 220.894Z" fill="#FDB515"/>
<path d="M273.21 146.961L280.742 144.888L286.842 167.059L279.31 169.131L273.21 146.961Z" fill="#333333"/>
<path fill-rule="evenodd" clip-rule="evenodd" d="M280.358 145.563L273.884 147.344L279.693 168.457L286.168 166.675L280.358 145.563ZM273.21 146.961L279.31 169.131L286.842 167.059L280.742 144.888L273.21 146.961Z" fill="#353535"/>
<path d="M312.265 146.871L304.719 144.849L298.682 167.381L306.227 169.403L312.265 146.871Z" fill="#353535"/>
<path fill-rule="evenodd" clip-rule="evenodd" d="M305.107 145.521L311.593 147.259L305.84 168.731L299.353 166.994L305.107 145.521ZM312.265 146.871L306.227 169.403L298.682 167.381L304.719 144.849L312.265 146.871Z" fill="#353535"/>
<path d="M277.098 127.309L283.705 133.611L281.468 142.188L272.625 144.462L266.019 138.159L268.255 129.583L277.098 127.309Z" fill="#FEC955"/>
<path fill-rule="evenodd" clip-rule="evenodd" d="M278.839 120.632L290.438 131.698L286.41 147.146L270.884 151.139L259.285 140.073L263.314 124.624L278.839 120.632ZM266.019 138.159L272.625 144.462L281.468 142.188L283.705 133.611L277.098 127.309L268.255 129.583L266.019 138.159Z" fill="#333333"/>
<path d="M309.32 127.277L317.882 129.571L320.176 138.132L313.908 144.4L305.347 142.106L303.053 133.544L309.32 127.277Z" fill="#FEC955"/>
<path fill-rule="evenodd" clip-rule="evenodd" d="M307.518 120.548L322.808 124.645L326.905 139.935L315.711 151.128L300.421 147.031L296.324 131.741L307.518 120.548ZM305.347 142.106L313.909 144.4L320.176 138.132L317.882 129.571L309.32 127.277L303.053 133.544L305.347 142.106Z" fill="#333333"/>
<path d="M299.146 370.145L267.613 352.289C267.419 352.179 267.311 351.964 267.339 351.743L281.324 241.905C281.359 241.631 281.592 241.426 281.868 241.426H309.105C309.374 241.426 309.603 241.621 309.647 241.886L327.563 351.754C327.598 351.969 327.502 352.184 327.319 352.303L299.713 370.129C299.542 370.239 299.323 370.246 299.146 370.145Z" fill="#FEC955"/>
<path fill-rule="evenodd" clip-rule="evenodd" d="M276.623 241.524C276.85 239.744 278.364 238.41 280.159 238.41H307.396C309.143 238.41 310.633 239.676 310.914 241.401L328.83 351.268C329.059 352.667 328.436 354.068 327.246 354.837L299.64 372.663C298.526 373.382 297.104 373.424 295.95 372.77L264.417 354.914C263.158 354.201 262.455 352.797 262.637 351.362L265.63 351.743L265.635 351.743M265.63 351.743L262.637 351.362L276.623 241.524M282.333 244.442L268.831 350.481L297.623 366.784L322.616 350.645L305.298 244.442H282.333ZM267.39 349.664C267.391 349.665 267.392 349.666 267.393 349.666L267.39 349.664Z" fill="#333333"/>
<path d="M312.433 288.417L316.272 311.451L319.837 333.663L300.113 321.889L296.109 301.996L312.433 288.417Z" fill="#FC7E24"/>
<path d="M277.686 326.539L287.87 337.363L287.521 348.745L279.02 344.083L270.245 339.422L271.344 331.032L277.686 326.539Z" fill="#FC7E24"/>
<path d="M279.02 270.319L286.1 274.587L289.272 287.142L279.984 296.166L275.729 296.644L277.1 285.949L279.02 270.319Z" fill="#FC7E24"/>
<path fill-rule="evenodd" clip-rule="evenodd" d="M293.146 166.39H276.649C276.329 166.39 276.024 166.53 275.816 166.773L265.23 179.123C264.882 179.529 264.291 179.625 263.833 179.35L253.844 173.356C253.721 173.283 253.586 173.234 253.445 173.213L240.291 171.206C239.299 171.055 238.642 172.205 239.275 172.983L262.564 201.588C262.659 201.704 262.729 201.838 262.769 201.982L266.768 216.111C266.803 216.234 266.859 216.351 266.935 216.455L275.875 228.814C276.047 229.052 276.117 229.349 276.068 229.639L272.39 251.446C272.336 251.763 272.424 252.088 272.631 252.334L283.676 265.483C283.773 265.598 283.892 265.692 284.026 265.759L292.655 270.073C292.964 270.228 293.328 270.228 293.636 270.073L302.266 265.759C302.4 265.692 302.519 265.598 302.615 265.483L313.66 252.334C313.867 252.088 313.956 251.763 313.902 251.446L310.224 229.639C310.175 229.349 310.244 229.052 310.417 228.814L319.357 216.455C319.432 216.351 319.489 216.234 319.524 216.111L323.522 201.982C323.563 201.838 323.633 201.704 323.727 201.588L347.016 172.983C347.65 172.205 346.992 171.055 346 171.206L332.847 173.213C332.706 173.234 332.57 173.283 332.448 173.356L322.459 179.35C322 179.625 321.41 179.529 321.062 179.123L310.476 166.773C310.267 166.53 309.963 166.39 309.643 166.39H293.146Z" fill="#FEC955"/>
<path fill-rule="evenodd" clip-rule="evenodd" d="M273.526 164.81C274.307 163.898 275.448 163.373 276.649 163.373H309.643C310.844 163.373 311.985 163.898 312.766 164.81L322.297 175.929L330.896 170.77C331.355 170.495 331.863 170.311 332.392 170.231L345.546 168.224C349.266 167.657 351.732 171.969 349.356 174.888L326.317 203.185L322.426 216.932C322.295 217.396 322.084 217.833 321.801 218.223L313.332 229.93L316.877 250.945C317.077 252.134 316.746 253.351 315.97 254.274L304.925 267.423C304.564 267.854 304.118 268.205 303.615 268.457L294.986 272.771C293.828 273.35 292.464 273.35 291.306 272.771L282.677 268.457C282.174 268.205 281.728 267.854 281.367 267.423L270.322 254.274C269.546 253.351 269.215 252.134 269.415 250.945L272.96 229.93L264.491 218.223C264.209 217.833 263.997 217.396 263.866 216.932L259.975 203.185L236.936 174.888C234.56 171.969 237.026 167.657 240.746 168.224L253.9 170.231C254.429 170.311 254.937 170.495 255.396 170.77L263.995 175.929L273.526 164.81ZM277.532 169.406L267.52 181.086C266.215 182.609 264.001 182.969 262.281 181.936L252.616 176.138L244.757 174.939L264.904 199.684C265.258 200.119 265.519 200.621 265.672 201.161L269.578 214.962L278.319 227.046C278.965 227.939 279.226 229.054 279.042 230.141L275.512 251.073L285.73 263.238L293.146 266.946L300.562 263.238L310.78 251.073L307.25 230.141C307.066 229.054 307.327 227.939 307.973 227.046L316.714 214.962L320.62 201.161C320.773 200.621 321.034 200.119 321.388 199.684L341.535 174.939L333.676 176.138L324.011 181.936C322.291 182.969 320.077 182.609 318.772 181.086L308.76 169.406H277.532Z" fill="#333333"/>
<path d="M307.306 206.974L319.372 205.603L316.63 215.201L307.58 227.541L301.548 219.314L307.306 206.974Z" fill="#FC7E24"/>
<path d="M276.594 244.542L278.787 231.654L283.449 232.751L284.82 240.429L278.787 245.639L276.594 244.542Z" fill="#FC7E24"/>
<path d="M293.649 169.406L295.204 176.622L284.885 184.445L272.95 179.42L272.48 175.439L277.196 169.406L293.649 169.406Z" fill="#FC7E24"/>
<path d="M273 196.5L274.412 195.73C276.888 194.379 279.934 194.647 282.136 196.409L283.5 197.5" stroke="#333333" stroke-width="4" stroke-linecap="round"/>
<path d="M274.988 195.462L272 192.368" stroke="#333333" stroke-width="2" stroke-linecap="round"/>
<path d="M312.5 196.5L311.088 195.73C308.612 194.379 305.566 194.647 303.364 196.409L302 197.5" stroke="#333333" stroke-width="4" stroke-linecap="round"/>
<path d="M310.512 195.462L313.5 192.368" stroke="#333333" stroke-width="2" stroke-linecap="round"/>
<path fill-rule="evenodd" clip-rule="evenodd" d="M1266.14 358H1576.14C1544.04 215.161 1486.62 120 1421.14 120C1355.65 120 1298.24 215.161 1266.14 358Z" fill="#649D35"/>
<path fill-rule="evenodd" clip-rule="evenodd" d="M1428.64 120.434C1385.34 161.693 1348.82 246.873 1325.21 358H1266C1298.1 215.161 1355.51 120 1421 120C1423.56 120 1426.11 120.145 1428.64 120.434Z" fill="#467609"/>
<path d="M1371.18 269.022C1361.01 260.006 1340.82 256.625 1332 256.061C1339.12 256.061 1417.49 233.521 1430.72 229.577C1443.95 225.632 1468.19 215.536 1468.19 209.8C1468.19 200.705 1432.77 190.168 1422.08 185.66C1411.39 181.152 1388.49 171.23 1379.33 161.65C1370.17 152.071 1379.33 143.815 1387.35 138.11C1395.57 132.262 1418.77 120.275 1423.15 120.051C1427.53 119.828 1431.73 120.37 1430.51 120.99C1415.79 128.481 1401.64 137.636 1391.92 146.67C1383.29 154.695 1414.19 166.373 1446.25 178.77C1478.31 191.167 1495 199.1 1495 209.8C1495 219.894 1480.31 229.168 1465.55 237.62C1453.74 244.382 1411.94 258.691 1390.9 269.022C1383.78 272.778 1381.36 278.038 1371.18 269.022Z" fill="#9A9A9A"/>
<path fill-rule="evenodd" clip-rule="evenodd" d="M1420.81 80.7405C1421.57 80.3014 1422.08 79.4804 1422.08 78.5401C1422.08 77.1373 1420.94 76 1419.54 76C1418.14 76 1417 77.1373 1417 78.5401C1417 79.4803 1417.51 80.3011 1418.27 80.7403V128.073H1420.81V102.874L1446.21 91.8756L1420.81 80.8768V80.7405Z" fill="#BE1C48"/>
<path fill-rule="evenodd" clip-rule="evenodd" d="M1131 359H1457C1423.25 290.581 1362.87 245 1294 245C1225.13 245 1164.76 290.581 1131 359Z" fill="#186219"/>
<path fill-rule="evenodd" clip-rule="evenodd" d="M1453.94 353H1182C1207.16 299.189 1247.94 259.505 1295.96 245.012C1295.31 245.004 1294.65 245 1294 245C1225.13 245 1164.75 290.581 1131 359H1457C1456 356.98 1454.98 354.98 1453.94 353Z" fill="#124A13"/>
<path d="M1253.71 266.376C1252.8 260.057 1275.95 249.099 1287.02 245.525C1291.43 244.471 1303.04 244.983 1297.32 247.24C1291.6 249.497 1272.14 259.765 1276.14 264.143C1281.29 269.785 1320.21 275.426 1335.1 282.76C1357.99 294.044 1352.84 307.606 1347.12 317.761C1339.37 331.499 1325.37 343.148 1315.64 349.354C1307.85 354.319 1309.34 362.872 1311.06 364H1192C1193.91 361.367 1201.73 354.409 1205.16 352.175C1212.61 347.333 1234.93 340.305 1264.12 334.099C1293.31 327.893 1320 316.941 1320 304.486C1320 290.912 1305.95 286.845 1291.6 282.76C1281.71 279.949 1254.86 274.274 1253.71 266.376Z" fill="#B2B2B2"/>
</g>
<defs>
<clipPath id="clip0_8719_1714">
<rect width="1500" height="350" fill="white"/>
</clipPath>
</defs>
</svg>
