<svg width="160" height="160" viewBox="0 0 160 160" fill="none" xmlns="http://www.w3.org/2000/svg">
<g clip-path="url(#clip0_8126_1681)">
<rect width="160" height="164" rx="8" fill="#D1E3FA"/>
<rect x="20" y="21" width="117" height="27" fill="#598F22"/>
<path d="M61.0938 37.8906C61.0938 38.5677 60.9271 39.151 60.5938 39.6406C60.2656 40.1302 59.7917 40.5052 59.1719 40.7656C58.5573 41.026 57.8229 41.1562 56.9688 41.1562C56.5521 41.1562 56.1536 41.1328 55.7734 41.0859C55.3932 41.0391 55.0339 40.9714 54.6953 40.8828C54.362 40.7891 54.0573 40.6771 53.7812 40.5469V38.7812C54.2448 38.9844 54.763 39.1693 55.3359 39.3359C55.9089 39.4974 56.4922 39.5781 57.0859 39.5781C57.5703 39.5781 57.9714 39.5156 58.2891 39.3906C58.612 39.2604 58.8516 39.0781 59.0078 38.8438C59.1641 38.6042 59.2422 38.3255 59.2422 38.0078C59.2422 37.6693 59.151 37.3828 58.9688 37.1484C58.7865 36.9141 58.5104 36.7005 58.1406 36.5078C57.776 36.3099 57.3177 36.099 56.7656 35.875C56.3906 35.724 56.0312 35.5521 55.6875 35.3594C55.349 35.1667 55.0469 34.9401 54.7812 34.6797C54.5156 34.4193 54.3047 34.112 54.1484 33.7578C53.9974 33.3984 53.9219 32.9766 53.9219 32.4922C53.9219 31.8464 54.0755 31.2943 54.3828 30.8359C54.6953 30.3776 55.1328 30.026 55.6953 29.7812C56.263 29.5365 56.9245 29.4141 57.6797 29.4141C58.2786 29.4141 58.8411 29.4766 59.3672 29.6016C59.8984 29.7266 60.4193 29.9036 60.9297 30.1328L60.3359 31.6406C59.8672 31.4479 59.4115 31.2943 58.9688 31.1797C58.5312 31.0651 58.0833 31.0078 57.625 31.0078C57.2292 31.0078 56.8932 31.0677 56.6172 31.1875C56.3411 31.3073 56.1302 31.4766 55.9844 31.6953C55.8438 31.9089 55.7734 32.1641 55.7734 32.4609C55.7734 32.7943 55.8542 33.0755 56.0156 33.3047C56.1823 33.5286 56.4375 33.7344 56.7812 33.9219C57.1302 34.1094 57.5781 34.3177 58.125 34.5469C58.7552 34.8073 59.2891 35.0807 59.7266 35.3672C60.1693 35.6536 60.5078 35.9974 60.7422 36.3984C60.9766 36.7943 61.0938 37.2917 61.0938 37.8906ZM67.2578 41H65.375V31.1719H62.0312V29.5781H70.5938V31.1719H67.2578V41ZM79.4219 41L78.3047 37.8281H73.9375L72.8203 41H70.8438L75.0938 29.5312H77.1719L81.4141 41H79.4219ZM77.8203 36.2188L76.7344 33.0938C76.6927 32.9583 76.6328 32.7682 76.5547 32.5234C76.4766 32.2734 76.3984 32.0208 76.3203 31.7656C76.2422 31.5052 76.1771 31.2865 76.125 31.1094C76.0729 31.3229 76.0078 31.5625 75.9297 31.8281C75.8568 32.0885 75.7839 32.3333 75.7109 32.5625C75.6432 32.7917 75.5911 32.9688 75.5547 33.0938L74.4609 36.2188H77.8203ZM86.1328 29.5781C87.1172 29.5781 87.9297 29.6979 88.5703 29.9375C89.2161 30.1771 89.6953 30.5417 90.0078 31.0312C90.3255 31.5208 90.4844 32.1432 90.4844 32.8984C90.4844 33.4609 90.3802 33.9401 90.1719 34.3359C89.9635 34.7318 89.6901 35.0599 89.3516 35.3203C89.013 35.5807 88.651 35.7891 88.2656 35.9453L91.5078 41H89.3906L86.6328 36.4219H84.7969V41H82.9219V29.5781H86.1328ZM86.0078 31.1406H84.7969V34.875H86.0938C86.9635 34.875 87.5938 34.7135 87.9844 34.3906C88.3802 34.0677 88.5781 33.5911 88.5781 32.9609C88.5781 32.2995 88.3672 31.8307 87.9453 31.5547C87.5286 31.2786 86.8828 31.1406 86.0078 31.1406ZM97.1016 41H95.2188V31.1719H91.875V29.5781H100.438V31.1719H97.1016V41ZM103.586 37.5156H102.203L101.828 29.5781H103.961L103.586 37.5156ZM101.734 40.0312C101.734 39.6042 101.844 39.3047 102.062 39.1328C102.286 38.9557 102.56 38.8672 102.883 38.8672C103.201 38.8672 103.471 38.9557 103.695 39.1328C103.919 39.3047 104.031 39.6042 104.031 40.0312C104.031 40.4479 103.919 40.75 103.695 40.9375C103.471 41.1198 103.201 41.2109 102.883 41.2109C102.56 41.2109 102.286 41.1198 102.062 40.9375C101.844 40.75 101.734 40.4479 101.734 40.0312Z" fill="white"/>
<path d="M0 160L56.7165 86H103.062L161 160H0Z" fill="#8B8B8B"/>
<path d="M147 160L97 86H103.242L161 160H147Z" fill="#515151"/>
<rect x="17" y="18" width="3" height="142" fill="#754C24"/>
<rect x="16" y="18" width="2" height="142" fill="#C78A0C"/>
<rect x="138" y="18" width="3" height="142" fill="#754C24"/>
<rect x="137" y="18" width="2" height="142" fill="#C78A0C"/>
<circle cx="18" cy="16" r="4" fill="#754C24"/>
<circle cx="139" cy="16" r="4" fill="#754C24"/>
<path d="M120.029 95.9892C120.821 96.4501 121.828 96.4837 122.676 95.989C123.942 95.2507 124.376 93.6157 123.645 92.3371C122.914 91.0585 121.296 90.6204 120.03 91.3586C119.182 91.8534 118.707 92.7509 118.706 93.674L76 118.581L77.3232 120.896L100.059 107.637L123.214 125L119.906 96.0609L120.029 95.9892Z" fill="#FDB515"/>
<path d="M82.3715 172.964L66.1432 163.813C66.0435 163.757 65.9878 163.646 66.0023 163.533L73.1999 107.246C73.2178 107.105 73.3378 107 73.4799 107H87.4972C87.6356 107 87.7535 107.1 87.7758 107.236L96.9963 163.538C97.0144 163.649 96.9651 163.759 96.8709 163.82L82.6637 172.955C82.5754 173.012 82.4629 173.015 82.3715 172.964Z" fill="#FEC955"/>
<path fill-rule="evenodd" clip-rule="evenodd" d="M71.0753 106.851C71.2074 105.793 72.0896 105 73.1347 105H86.8814C87.899 105 88.7666 105.753 88.9304 106.777L88.9304 106.777L97.9729 163.36C98.1057 164.191 97.7434 165.024 97.0501 165.481L83.1173 174.661C82.4683 175.089 81.6403 175.113 80.9681 174.725L81.8428 173.149L80.9681 174.725L65.0531 165.529C64.3198 165.105 63.9102 164.271 64.0167 163.418L65.8004 163.65L64.0167 163.418L71.0753 106.851L72.8601 107.083M74.4756 108.672L67.7154 162.848L81.9393 171.066L94.261 162.948L85.5872 108.672H74.4756ZM81.1665 171.576C81.1661 171.576 81.1656 171.576 81.1651 171.577L81.1652 171.577L81.1665 171.576Z" fill="#333333"/>
<path d="M69.8144 58.3108L73.694 57.2433L76.8363 68.6632L72.9566 69.7307L69.8144 58.3108Z" fill="#333333"/>
<path fill-rule="evenodd" clip-rule="evenodd" d="M73.4966 57.5906L70.1617 58.5082L73.154 69.3834L76.4889 68.4658L73.4966 57.5906ZM69.8144 58.3108L72.9566 69.7307L76.8363 68.6632L73.694 57.2433L69.8144 58.3108Z" fill="#333333"/>
<path d="M89.9317 58.2644L86.0449 57.223L82.935 68.8294L86.8218 69.8708L89.9317 58.2644Z" fill="#333333"/>
<path fill-rule="evenodd" clip-rule="evenodd" d="M86.2447 57.569L89.5857 58.4642L86.622 69.5248L83.281 68.6296L86.2447 57.569ZM89.9317 58.2644L86.8218 69.8708L82.935 68.8294L86.0449 57.223L89.9317 58.2644Z" fill="#333333"/>
<path d="M71.8173 48.1881L75.2203 51.4346L74.0682 55.8524L69.5133 57.0237L66.1103 53.7771L67.2624 49.3594L71.8173 48.1881Z" fill="#FEC955"/>
<path fill-rule="evenodd" clip-rule="evenodd" d="M72.6327 45.0614L78.3734 50.5383L76.3822 58.1742L68.6979 60.1502L62.9571 54.6733L64.9484 47.0374L72.6327 45.0614ZM67.2623 49.3593L71.8173 48.188L75.2203 51.4345L74.0682 55.8523L69.5133 57.0236L66.1103 53.7771L67.2623 49.3593Z" fill="#333333"/>
<path d="M88.415 48.1716L92.8249 49.3532L94.0066 53.7632L90.7783 56.9915L86.3683 55.8098L85.1867 51.3999L88.415 48.1716Z" fill="#FEC955"/>
<path fill-rule="evenodd" clip-rule="evenodd" d="M87.5707 45.0207L95.1315 47.0466L97.1575 54.6075L91.6226 60.1424L84.0617 58.1164L82.0358 50.5556L87.5707 45.0207ZM86.3683 55.8098L90.7783 56.9915L94.0066 53.7632L92.8249 49.3532L88.415 48.1716L85.1866 51.3999L86.3683 55.8098Z" fill="#333333"/>
<path d="M71.1232 68.401L65.238 75.0941C65.1469 75.1977 64.9943 75.2204 64.877 75.1476L59.5119 71.8196C59.4798 71.7996 59.444 71.7863 59.4066 71.7805L51.692 70.5758C51.4359 70.5358 51.2656 70.8329 51.4296 71.0336L63.8764 86.2722C63.8984 86.2992 63.9153 86.3301 63.9261 86.3632L66.3755 93.8636C66.3839 93.8895 66.3961 93.9141 66.4117 93.9366L71.1405 100.774C71.1834 100.836 71.1997 100.913 71.1858 100.987L69.098 112.124C69.0823 112.207 69.105 112.293 69.1596 112.358L75.0321 119.326C75.0525 119.35 75.0769 119.371 75.1042 119.387L79.1644 121.788C79.2274 121.825 79.3024 121.837 79.3736 121.82L83.2306 120.903C83.2915 120.888 83.3459 120.854 83.3852 120.805L90.2033 112.349C90.2511 112.289 90.273 112.213 90.2638 112.137L88.916 100.994C88.9066 100.916 88.9302 100.837 88.9812 100.777L94.7796 93.9526C94.8075 93.9198 94.8275 93.881 94.8381 93.8392L96.7363 86.366C96.7452 86.331 96.7606 86.2981 96.7819 86.269L107.907 71.0142C108.056 70.8106 107.884 70.5293 107.635 70.5687L99.9795 71.7794C99.9382 71.7859 99.8988 71.8016 99.8642 71.8253L95.032 75.13C94.9127 75.2117 94.7509 75.19 94.6573 75.0798L88.9858 68.4046C88.9321 68.3414 88.8534 68.305 88.7705 68.305H71.3353C71.2541 68.305 71.1768 68.34 71.1232 68.401Z" fill="#FEC955"/>
<path fill-rule="evenodd" clip-rule="evenodd" d="M72.0378 70.1407L66.6166 76.3063C65.9333 77.0833 64.7886 77.253 63.9094 76.7075L58.8121 73.5456L55.4186 73.0157L65.2981 85.1111C65.4634 85.3136 65.5899 85.5449 65.6711 85.7935L68.0502 93.0787L72.6503 99.7304C72.9719 100.195 73.0942 100.77 72.99 101.325L71.0379 111.738L76.2657 117.941L79.5591 119.889L82.2894 119.24L88.3628 111.707L87.0937 101.214C87.0228 100.628 87.1998 100.039 87.5823 99.5887L93.1477 93.0385L94.9572 85.9142C95.0236 85.6525 95.1396 85.4057 95.2988 85.1875L104.21 72.9689L100.612 73.5379L96.0683 76.6452C95.1733 77.2574 93.9605 77.0947 93.2584 76.2684L88.0521 70.1407H72.0378ZM88.4415 112.358L88.4412 112.356L88.4415 112.358ZM69.7447 67.1889C70.1468 66.7316 70.7263 66.4695 71.3353 66.4695H88.7705C89.3921 66.4695 89.9822 66.7424 90.3847 67.2161L95.1504 72.8253L98.8279 70.3102C99.0872 70.1329 99.3827 70.0154 99.6928 69.9664L99.9795 71.7795L99.9798 71.7813M99.9795 71.7795L99.6928 69.9664L107.348 68.7556C109.214 68.4606 110.503 70.5699 109.39 72.0958L98.4416 87.1085L96.6173 94.2912C96.5378 94.6041 96.3877 94.895 96.1785 95.1412L90.82 101.448L92.0862 111.917C92.1548 112.485 91.9911 113.056 91.6323 113.501L84.8142 121.957C84.5196 122.323 84.112 122.58 83.6553 122.689L79.7983 123.606C79.2645 123.733 78.7023 123.648 78.23 123.368L74.1698 120.967C73.9649 120.846 73.7819 120.691 73.6285 120.509L67.7561 113.541C67.3463 113.055 67.1766 112.411 67.2938 111.786L69.2623 101.286L64.9019 94.9807C64.7855 94.8124 64.6941 94.6281 64.6305 94.4335L62.2713 87.2089L50.0079 72.1949C48.7787 70.6899 50.0553 68.4624 51.9752 68.7622L59.6898 69.9669C59.97 70.0107 60.2386 70.1102 60.4796 70.2597L64.7276 72.8949L69.7447 67.1889" fill="#333333"/>
<path d="M89.4364 131.175L91.1313 142.193L92.9676 153.351L83.3092 148.417L81.2467 138.17L89.4364 131.175Z" fill="#FC7E24"/>
<path d="M72.1795 150.613L77.4251 156.189L75.9751 161.544L72.1795 159.425L68.2063 157.306L68.7713 152.504L72.1795 150.613Z" fill="#FC7E24"/>
<path d="M87.6225 89.1722L94.1851 89.1722L93.1963 93.179L91.7018 94.7979L87.6225 99.4729L84.4705 95.4159L87.6225 89.1722Z" fill="#FC7E24"/>
<path d="M72.585 123.124L76.4298 123.892L78.0635 130.36L73.2796 135.008L71.1725 134.283L71.455 132.305L72.585 123.124Z" fill="#FC7E24"/>
<path d="M72.7404 102.773L75.0391 103.33L75.79 107.166L72.7236 109.757L71.475 109.274L71.7188 108.123L72.7404 102.773Z" fill="#FC7E24"/>
<path d="M80.556 70.0345L81.35 73.8742L76.0345 77.9039L69.8869 75.3153L69.8869 72.5565L72.0088 70.0344L80.556 70.0345Z" fill="#FC7E24"/>
<path fill-rule="evenodd" clip-rule="evenodd" d="M70.6279 81.1027C70.4352 80.9032 70.1173 80.8976 69.9178 81.0903C69.7183 81.283 69.7128 81.601 69.9055 81.8005L70.5716 82.4902L70.2879 82.6449C69.8009 82.9105 69.6215 83.5207 69.8871 84.0077C70.1528 84.4947 70.7629 84.6741 71.2499 84.4085L71.9589 84.0218C72.8473 83.5372 73.9398 83.6332 74.73 84.2654L75.4148 84.8132C75.848 85.1598 76.48 85.0896 76.8266 84.6564C77.1731 84.2232 77.1029 83.5911 76.6697 83.2446L75.9849 82.6967C74.7119 81.6783 73.0031 81.4329 71.5119 82.0178L70.6279 81.1027ZM86.6456 84.2654C87.4358 83.6332 88.5283 83.5372 89.4167 84.0218L90.1257 84.4085C90.6127 84.6741 91.2228 84.4947 91.4885 84.0077C91.7541 83.5207 91.5747 82.9105 91.0877 82.6449L90.804 82.4902L91.4701 81.8005C91.6628 81.601 91.6573 81.283 91.4578 81.0903C91.2583 80.8976 90.9404 80.9032 90.7477 81.1027L89.8637 82.0178C88.3725 81.4329 86.6637 81.6783 85.3907 82.6967L84.7059 83.2446C84.2727 83.5911 84.2025 84.2232 84.549 84.6564C84.8956 85.0896 85.5276 85.1598 85.9608 84.8132L86.6456 84.2654Z" fill="#333333"/>
</g>
<defs>
<clipPath id="clip0_8126_1681">
<rect width="160" height="160" rx="8" fill="white"/>
</clipPath>
</defs>
</svg>
