<svg width="900" height="350" viewBox="0 0 900 350" fill="none" xmlns="http://www.w3.org/2000/svg">
<g clip-path="url(#clip0_8767_1714)">
<rect width="900" height="350" fill="#D1E3FA"/>
<path fill-rule="evenodd" clip-rule="evenodd" d="M693.993 161.515C694.259 161.529 694.527 161.536 694.796 161.536C703.233 161.536 710.072 154.696 710.072 146.26C710.072 137.823 703.233 130.984 694.796 130.984C693.915 130.984 693.051 131.059 692.21 131.202C688.873 123.504 681.207 118.12 672.283 118.12C670.478 118.12 668.725 118.34 667.048 118.755C663.104 104.481 650.024 94 634.496 94C617.081 94 602.746 107.182 600.924 124.112C598.857 123.356 596.624 122.944 594.296 122.944C583.639 122.944 575 131.583 575 142.24C575 152.897 583.639 161.536 594.296 161.536C595.392 161.536 596.467 161.444 597.513 161.269V161.536H693.993V161.515Z" fill="white"/>
<path fill-rule="evenodd" clip-rule="evenodd" d="M512.208 316.563H483.969C483.957 316.563 483.944 316.563 483.932 316.563C483.92 316.563 483.907 316.563 483.895 316.563H458.093C458.078 316.563 458.064 316.563 458.049 316.563C458.034 316.563 458.019 316.563 458.004 316.563H456.242V316.456C448.783 315.564 443 309.215 443 301.515C443 293.204 449.738 286.466 458.049 286.466C458.403 286.466 458.754 286.478 459.101 286.502C461.336 274.825 471.603 266 483.932 266C495.558 266 505.351 273.847 508.303 284.534C509.559 284.223 510.872 284.058 512.224 284.058C521.2 284.058 528.476 291.335 528.476 300.311C528.476 308.677 522.156 315.566 514.029 316.464V316.563H512.24C512.234 316.563 512.229 316.563 512.224 316.563C512.218 316.563 512.213 316.563 512.208 316.563Z" fill="white"/>
<path fill-rule="evenodd" clip-rule="evenodd" d="M277.208 200.563H248.969C248.957 200.563 248.944 200.563 248.932 200.563C248.92 200.563 248.907 200.563 248.895 200.563H223.093C223.078 200.563 223.064 200.563 223.049 200.563C223.034 200.563 223.019 200.563 223.004 200.563H221.242V200.456C213.783 199.564 208 193.215 208 185.515C208 177.204 214.738 170.466 223.049 170.466C223.403 170.466 223.754 170.478 224.101 170.502C226.336 158.825 236.603 150 248.932 150C260.558 150 270.351 157.847 273.303 168.534C274.559 168.223 275.872 168.058 277.224 168.058C286.2 168.058 293.476 175.335 293.476 184.311C293.476 192.677 287.156 199.566 279.029 200.464V200.563H277.24C277.234 200.563 277.229 200.563 277.224 200.563C277.218 200.563 277.213 200.563 277.208 200.563Z" fill="white"/>
<path fill-rule="evenodd" clip-rule="evenodd" d="M109.214 110.472C109.575 110.491 109.938 110.5 110.304 110.5C121.734 110.5 131 101.234 131 89.8036C131 78.3732 121.734 69.1071 110.304 69.1071C109.11 69.1071 107.939 69.2082 106.801 69.4023C102.28 58.9737 91.8938 51.6786 79.8036 51.6786C77.3577 51.6786 74.9816 51.9771 72.7097 52.5398C67.3673 33.2008 49.6456 19 28.6071 19C5.01357 19 -14.4087 36.8596 -16.8779 59.7971C-19.6781 58.7731 -22.7023 58.2143 -25.8571 58.2143C-40.2954 58.2143 -52 69.9188 -52 84.3571C-52 98.7954 -40.2954 110.5 -25.8571 110.5C-24.3726 110.5 -22.917 110.376 -21.5 110.139V110.5H28.6071H79.8036H109.214V110.472Z" fill="white"/>
<path fill-rule="evenodd" clip-rule="evenodd" d="M814.208 69.5634H785.969C785.957 69.5634 785.944 69.5634 785.932 69.5634C785.92 69.5634 785.907 69.5634 785.895 69.5634H760.093C760.078 69.5634 760.064 69.5635 760.049 69.5635C760.034 69.5635 760.019 69.5634 760.004 69.5634H758.242V69.4562C750.783 68.5639 745 62.2147 745 54.5148C745 46.2037 751.738 39.4662 760.049 39.4662C760.403 39.4662 760.754 39.4784 761.101 39.5024C763.336 27.8249 773.603 19 785.932 19C797.558 19 807.351 26.8474 810.303 37.5343C811.559 37.2234 812.872 37.0583 814.224 37.0583C823.2 37.0583 830.476 44.3349 830.476 53.3109C830.476 61.6766 824.156 68.5661 816.029 69.4643V69.5634H814.24C814.234 69.5634 814.229 69.5634 814.224 69.5634C814.218 69.5634 814.213 69.5634 814.208 69.5634Z" fill="white"/>
</g>
<defs>
<clipPath id="clip0_8767_1714">
<rect width="900" height="350" fill="white"/>
</clipPath>
</defs>
</svg>
