<svg width="168" height="168" viewBox="0 0 168 168" fill="none" xmlns="http://www.w3.org/2000/svg">
<g filter="url(#filter0_d_8126_1681)">
<g clip-path="url(#clip0_8126_1681)">
<rect x="4" width="160" height="164" rx="8" fill="#D1E3FA"/>
<rect x="24" y="21" width="117" height="27" fill="#598F22"/>
<path d="M65.0938 37.8906C65.0938 38.5677 64.9271 39.151 64.5938 39.6406C64.2656 40.1302 63.7917 40.5052 63.1719 40.7656C62.5573 41.026 61.8229 41.1562 60.9688 41.1562C60.5521 41.1562 60.1536 41.1328 59.7734 41.0859C59.3932 41.0391 59.0339 40.9714 58.6953 40.8828C58.362 40.7891 58.0573 40.6771 57.7812 40.5469V38.7812C58.2448 38.9844 58.763 39.1693 59.3359 39.3359C59.9089 39.4974 60.4922 39.5781 61.0859 39.5781C61.5703 39.5781 61.9714 39.5156 62.2891 39.3906C62.612 39.2604 62.8516 39.0781 63.0078 38.8438C63.1641 38.6042 63.2422 38.3255 63.2422 38.0078C63.2422 37.6693 63.151 37.3828 62.9688 37.1484C62.7865 36.9141 62.5104 36.7005 62.1406 36.5078C61.776 36.3099 61.3177 36.099 60.7656 35.875C60.3906 35.724 60.0312 35.5521 59.6875 35.3594C59.349 35.1667 59.0469 34.9401 58.7812 34.6797C58.5156 34.4193 58.3047 34.112 58.1484 33.7578C57.9974 33.3984 57.9219 32.9766 57.9219 32.4922C57.9219 31.8464 58.0755 31.2943 58.3828 30.8359C58.6953 30.3776 59.1328 30.026 59.6953 29.7812C60.263 29.5365 60.9245 29.4141 61.6797 29.4141C62.2786 29.4141 62.8411 29.4766 63.3672 29.6016C63.8984 29.7266 64.4193 29.9036 64.9297 30.1328L64.3359 31.6406C63.8672 31.4479 63.4115 31.2943 62.9688 31.1797C62.5312 31.0651 62.0833 31.0078 61.625 31.0078C61.2292 31.0078 60.8932 31.0677 60.6172 31.1875C60.3411 31.3073 60.1302 31.4766 59.9844 31.6953C59.8438 31.9089 59.7734 32.1641 59.7734 32.4609C59.7734 32.7943 59.8542 33.0755 60.0156 33.3047C60.1823 33.5286 60.4375 33.7344 60.7812 33.9219C61.1302 34.1094 61.5781 34.3177 62.125 34.5469C62.7552 34.8073 63.2891 35.0807 63.7266 35.3672C64.1693 35.6536 64.5078 35.9974 64.7422 36.3984C64.9766 36.7943 65.0938 37.2917 65.0938 37.8906ZM71.2578 41H69.375V31.1719H66.0312V29.5781H74.5938V31.1719H71.2578V41ZM83.4219 41L82.3047 37.8281H77.9375L76.8203 41H74.8438L79.0938 29.5312H81.1719L85.4141 41H83.4219ZM81.8203 36.2188L80.7344 33.0938C80.6927 32.9583 80.6328 32.7682 80.5547 32.5234C80.4766 32.2734 80.3984 32.0208 80.3203 31.7656C80.2422 31.5052 80.1771 31.2865 80.125 31.1094C80.0729 31.3229 80.0078 31.5625 79.9297 31.8281C79.8568 32.0885 79.7839 32.3333 79.7109 32.5625C79.6432 32.7917 79.5911 32.9688 79.5547 33.0938L78.4609 36.2188H81.8203ZM90.1328 29.5781C91.1172 29.5781 91.9297 29.6979 92.5703 29.9375C93.2161 30.1771 93.6953 30.5417 94.0078 31.0312C94.3255 31.5208 94.4844 32.1432 94.4844 32.8984C94.4844 33.4609 94.3802 33.9401 94.1719 34.3359C93.9635 34.7318 93.6901 35.0599 93.3516 35.3203C93.013 35.5807 92.651 35.7891 92.2656 35.9453L95.5078 41H93.3906L90.6328 36.4219H88.7969V41H86.9219V29.5781H90.1328ZM90.0078 31.1406H88.7969V34.875H90.0938C90.9635 34.875 91.5938 34.7135 91.9844 34.3906C92.3802 34.0677 92.5781 33.5911 92.5781 32.9609C92.5781 32.2995 92.3672 31.8307 91.9453 31.5547C91.5286 31.2786 90.8828 31.1406 90.0078 31.1406ZM101.102 41H99.2188V31.1719H95.875V29.5781H104.438V31.1719H101.102V41ZM107.586 37.5156H106.203L105.828 29.5781H107.961L107.586 37.5156ZM105.734 40.0312C105.734 39.6042 105.844 39.3047 106.062 39.1328C106.286 38.9557 106.56 38.8672 106.883 38.8672C107.201 38.8672 107.471 38.9557 107.695 39.1328C107.919 39.3047 108.031 39.6042 108.031 40.0312C108.031 40.4479 107.919 40.75 107.695 40.9375C107.471 41.1198 107.201 41.2109 106.883 41.2109C106.56 41.2109 106.286 41.1198 106.062 40.9375C105.844 40.75 105.734 40.4479 105.734 40.0312Z" fill="white"/>
<path d="M4 160L60.7165 86H107.062L165 160H4Z" fill="#8B8B8B"/>
<path d="M151 160L101 86H107.242L165 160H151Z" fill="#515151"/>
<rect x="21" y="18" width="3" height="142" fill="#754C24"/>
<rect x="20" y="18" width="2" height="142" fill="#C78A0C"/>
<rect x="142" y="18" width="3" height="142" fill="#754C24"/>
<rect x="141" y="18" width="2" height="142" fill="#C78A0C"/>
<circle cx="22" cy="16" r="4" fill="#754C24"/>
<circle cx="143" cy="16" r="4" fill="#754C24"/>
<path d="M124.029 95.9892C124.821 96.4501 125.828 96.4837 126.676 95.989C127.942 95.2507 128.376 93.6157 127.645 92.3371C126.914 91.0585 125.296 90.6204 124.03 91.3586C123.182 91.8534 122.707 92.7509 122.706 93.674L80 118.581L81.3232 120.896L104.059 107.637L127.214 125L123.906 96.0609L124.029 95.9892Z" fill="#FDB515"/>
<path d="M86.3715 172.964L70.1432 163.813C70.0435 163.757 69.9878 163.646 70.0023 163.533L77.1999 107.246C77.2178 107.105 77.3378 107 77.4799 107H91.4972C91.6356 107 91.7535 107.1 91.7758 107.236L100.996 163.538C101.014 163.649 100.965 163.759 100.871 163.82L86.6637 172.955C86.5754 173.012 86.4629 173.015 86.3715 172.964Z" fill="#FEC955"/>
<path fill-rule="evenodd" clip-rule="evenodd" d="M75.0753 106.851C75.2074 105.793 76.0896 105 77.1347 105H90.8814C91.899 105 92.7666 105.753 92.9304 106.777L92.9304 106.777L101.973 163.36C102.106 164.191 101.743 165.024 101.05 165.481L87.1173 174.661C86.4683 175.089 85.6403 175.113 84.9681 174.725L85.8428 173.149L84.9681 174.725L69.0531 165.529C68.3198 165.105 67.9102 164.271 68.0167 163.418L69.8004 163.65L68.0167 163.418L75.0753 106.851L76.8601 107.083M78.4756 108.672L71.7154 162.848L85.9393 171.066L98.261 162.948L89.5872 108.672H78.4756ZM85.1665 171.576C85.1661 171.576 85.1656 171.576 85.1651 171.577L85.1652 171.577L85.1665 171.576Z" fill="#333333"/>
<path d="M73.8144 58.3108L77.694 57.2433L80.8363 68.6632L76.9566 69.7307L73.8144 58.3108Z" fill="#333333"/>
<path fill-rule="evenodd" clip-rule="evenodd" d="M77.4966 57.5906L74.1617 58.5082L77.154 69.3834L80.4889 68.4658L77.4966 57.5906ZM73.8144 58.3108L76.9566 69.7307L80.8363 68.6632L77.694 57.2433L73.8144 58.3108Z" fill="#333333"/>
<path d="M93.9317 58.2644L90.0449 57.223L86.935 68.8294L90.8218 69.8708L93.9317 58.2644Z" fill="#333333"/>
<path fill-rule="evenodd" clip-rule="evenodd" d="M90.2447 57.569L93.5857 58.4642L90.622 69.5248L87.281 68.6296L90.2447 57.569ZM93.9317 58.2644L90.8218 69.8708L86.935 68.8294L90.0449 57.223L93.9317 58.2644Z" fill="#333333"/>
<path d="M75.8173 48.1881L79.2203 51.4346L78.0682 55.8524L73.5133 57.0237L70.1103 53.7771L71.2624 49.3594L75.8173 48.1881Z" fill="#FEC955"/>
<path fill-rule="evenodd" clip-rule="evenodd" d="M76.6327 45.0614L82.3734 50.5383L80.3822 58.1742L72.6979 60.1502L66.9571 54.6733L68.9484 47.0374L76.6327 45.0614ZM71.2623 49.3593L75.8173 48.188L79.2203 51.4345L78.0682 55.8523L73.5133 57.0236L70.1103 53.7771L71.2623 49.3593Z" fill="#333333"/>
<path d="M92.415 48.1716L96.8249 49.3532L98.0066 53.7632L94.7783 56.9915L90.3683 55.8098L89.1867 51.3999L92.415 48.1716Z" fill="#FEC955"/>
<path fill-rule="evenodd" clip-rule="evenodd" d="M91.5707 45.0207L99.1315 47.0466L101.157 54.6075L95.6226 60.1424L88.0617 58.1164L86.0358 50.5556L91.5707 45.0207ZM90.3683 55.8098L94.7783 56.9915L98.0066 53.7632L96.8249 49.3532L92.415 48.1716L89.1866 51.3999L90.3683 55.8098Z" fill="#333333"/>
<path d="M75.1232 68.401L69.238 75.0941C69.1469 75.1977 68.9943 75.2204 68.877 75.1476L63.5119 71.8196C63.4798 71.7996 63.444 71.7863 63.4066 71.7805L55.692 70.5758C55.4359 70.5358 55.2656 70.8329 55.4296 71.0336L67.8764 86.2722C67.8984 86.2992 67.9153 86.3301 67.9261 86.3632L70.3755 93.8636C70.3839 93.8895 70.3961 93.9141 70.4117 93.9366L75.1405 100.774C75.1834 100.836 75.1997 100.913 75.1858 100.987L73.098 112.124C73.0823 112.207 73.105 112.293 73.1596 112.358L79.0321 119.326C79.0525 119.35 79.0769 119.371 79.1042 119.387L83.1644 121.788C83.2274 121.825 83.3024 121.837 83.3736 121.82L87.2306 120.903C87.2915 120.888 87.3459 120.854 87.3852 120.805L94.2033 112.349C94.2511 112.289 94.273 112.213 94.2638 112.137L92.916 100.994C92.9066 100.916 92.9302 100.837 92.9812 100.777L98.7796 93.9526C98.8075 93.9198 98.8275 93.881 98.8381 93.8392L100.736 86.366C100.745 86.331 100.761 86.2981 100.782 86.269L111.907 71.0142C112.056 70.8106 111.884 70.5293 111.635 70.5687L103.98 71.7794C103.938 71.7859 103.899 71.8016 103.864 71.8253L99.032 75.13C98.9127 75.2117 98.7509 75.19 98.6573 75.0798L92.9858 68.4046C92.9321 68.3414 92.8534 68.305 92.7705 68.305H75.3353C75.2541 68.305 75.1768 68.34 75.1232 68.401Z" fill="#FEC955"/>
<path fill-rule="evenodd" clip-rule="evenodd" d="M76.0378 70.1407L70.6166 76.3063C69.9333 77.0833 68.7886 77.253 67.9094 76.7075L62.8121 73.5456L59.4186 73.0157L69.2981 85.1111C69.4634 85.3136 69.5899 85.5449 69.6711 85.7935L72.0502 93.0787L76.6503 99.7304C76.9719 100.195 77.0942 100.77 76.99 101.325L75.0379 111.738L80.2657 117.941L83.5591 119.889L86.2894 119.24L92.3628 111.707L91.0937 101.214C91.0228 100.628 91.1998 100.039 91.5823 99.5887L97.1477 93.0385L98.9572 85.9142C99.0236 85.6525 99.1396 85.4057 99.2988 85.1875L108.21 72.9689L104.612 73.5379L100.068 76.6452C99.1733 77.2574 97.9605 77.0947 97.2584 76.2684L92.0521 70.1407H76.0378ZM92.4415 112.358L92.4412 112.356L92.4415 112.358ZM73.7447 67.1889C74.1468 66.7316 74.7263 66.4695 75.3353 66.4695H92.7705C93.3921 66.4695 93.9822 66.7424 94.3847 67.2161L99.1504 72.8253L102.828 70.3102C103.087 70.1329 103.383 70.0154 103.693 69.9664L103.98 71.7795L103.98 71.7813M103.98 71.7795L103.693 69.9664L111.348 68.7556C113.214 68.4606 114.503 70.5699 113.39 72.0958L102.442 87.1085L100.617 94.2912C100.538 94.6041 100.388 94.895 100.179 95.1412L94.82 101.448L96.0862 111.917C96.1548 112.485 95.9911 113.056 95.6323 113.501L88.8142 121.957C88.5196 122.323 88.112 122.58 87.6553 122.689L83.7983 123.606C83.2645 123.733 82.7023 123.648 82.23 123.368L78.1698 120.967C77.9649 120.846 77.7819 120.691 77.6285 120.509L71.7561 113.541C71.3463 113.055 71.1766 112.411 71.2938 111.786L73.2623 101.286L68.9019 94.9807C68.7855 94.8124 68.6941 94.6281 68.6305 94.4335L66.2713 87.2089L54.0079 72.1949C52.7787 70.6899 54.0553 68.4624 55.9752 68.7622L63.6898 69.9669C63.97 70.0107 64.2386 70.1102 64.4796 70.2597L68.7276 72.8949L73.7447 67.1889" fill="#333333"/>
<path d="M93.4364 131.175L95.1313 142.193L96.9676 153.351L87.3092 148.417L85.2467 138.17L93.4364 131.175Z" fill="#FC7E24"/>
<path d="M76.1795 150.613L81.4251 156.189L79.9751 161.544L76.1795 159.425L72.2063 157.306L72.7713 152.504L76.1795 150.613Z" fill="#FC7E24"/>
<path d="M91.6225 89.1722L98.1851 89.1722L97.1963 93.179L95.7018 94.7979L91.6225 99.4729L88.4705 95.4159L91.6225 89.1722Z" fill="#FC7E24"/>
<path d="M76.585 123.124L80.4298 123.892L82.0635 130.36L77.2796 135.008L75.1725 134.283L75.455 132.305L76.585 123.124Z" fill="#FC7E24"/>
<path d="M76.7404 102.773L79.0391 103.33L79.79 107.166L76.7236 109.757L75.475 109.274L75.7188 108.123L76.7404 102.773Z" fill="#FC7E24"/>
<path d="M84.556 70.0345L85.35 73.8742L80.0345 77.9039L73.8869 75.3153L73.8869 72.5565L76.0088 70.0344L84.556 70.0345Z" fill="#FC7E24"/>
<path fill-rule="evenodd" clip-rule="evenodd" d="M74.6279 81.1027C74.4352 80.9032 74.1173 80.8976 73.9178 81.0903C73.7183 81.283 73.7128 81.601 73.9055 81.8005L74.5716 82.4902L74.2879 82.6449C73.8009 82.9105 73.6215 83.5207 73.8871 84.0077C74.1528 84.4947 74.7629 84.6741 75.2499 84.4085L75.9589 84.0218C76.8473 83.5372 77.9398 83.6332 78.73 84.2654L79.4148 84.8132C79.848 85.1598 80.48 85.0896 80.8266 84.6564C81.1731 84.2232 81.1029 83.5911 80.6697 83.2446L79.9849 82.6967C78.7119 81.6783 77.0031 81.4329 75.5119 82.0178L74.6279 81.1027ZM90.6456 84.2654C91.4358 83.6332 92.5283 83.5372 93.4167 84.0218L94.1257 84.4085C94.6127 84.6741 95.2228 84.4947 95.4885 84.0077C95.7541 83.5207 95.5747 82.9105 95.0877 82.6449L94.804 82.4902L95.4701 81.8005C95.6628 81.601 95.6573 81.283 95.4578 81.0903C95.2583 80.8976 94.9404 80.9032 94.7477 81.1027L93.8637 82.0178C92.3725 81.4329 90.6637 81.6783 89.3907 82.6967L88.7059 83.2446C88.2727 83.5911 88.2025 84.2232 88.549 84.6564C88.8956 85.0896 89.5276 85.1598 89.9608 84.8132L90.6456 84.2654Z" fill="#333333"/>
</g>
</g>
<defs>
<filter id="filter0_d_8126_1681" x="0" y="0" width="168" height="168" filterUnits="userSpaceOnUse" color-interpolation-filters="sRGB">
<feFlood flood-opacity="0" result="BackgroundImageFix"/>
<feColorMatrix in="SourceAlpha" type="matrix" values="0 0 0 0 0 0 0 0 0 0 0 0 0 0 0 0 0 0 127 0" result="hardAlpha"/>
<feOffset dy="4"/>
<feGaussianBlur stdDeviation="2"/>
<feComposite in2="hardAlpha" operator="out"/>
<feColorMatrix type="matrix" values="0 0 0 0 0 0 0 0 0 0 0 0 0 0 0 0 0 0 0.25 0"/>
<feBlend mode="normal" in2="BackgroundImageFix" result="effect1_dropShadow_8126_1681"/>
<feBlend mode="normal" in="SourceGraphic" in2="effect1_dropShadow_8126_1681" result="shape"/>
</filter>
<clipPath id="clip0_8126_1681">
<rect x="4" width="160" height="160" rx="8" fill="white"/>
</clipPath>
</defs>
</svg>
