<svg width="1500" height="350" viewBox="0 0 1500 350" fill="none" xmlns="http://www.w3.org/2000/svg">
<g clip-path="url(#clip0_10311_4037)">
<path d="M1500 0H0V350H1500V0Z" fill="#243D51"/>
<path d="M1500 0H0V350H1500V0Z" fill="#D1E3FA"/>
<path d="M1500 286.2V350H0V272.9C51.4 262.4 266.2 221.3 326.7 254.1C395.6 291.4 503.6 304.8 527.6 292.8C551.6 280.8 696.3 276.8 723 282.2C749.7 287.5 824.9 298.7 850.2 297.1C875.5 295.5 1000.9 286.1 1026.2 291.5C1051.5 296.8 1107.7 311.5 1131.5 297.2C1146.1 288.4 1167.4 278.9 1196.3 278.9C1225.2 278.9 1267.6 261.9 1285.1 286.1C1302.7 310.3 1338.7 293.4 1361.6 280.7C1370.5 275.8 1417.8 268.4 1433.3 272.6C1442.8 275.1 1475.7 281.5 1500 286.2Z" fill="white"/>
<path d="M67.9002 34.7H61.9002L64.6002 32L63.3002 30.7V28.7999L59.5002 28.7L63.7002 24.5L62.3002 23.1L58.0002 27.4V23.5H56.0002L54.8002 22.2L52.1002 24.7999V18.7H50.1002V25L47.3002 22.2L46.0002 23.5H44.2002L44.1002 27.2999L39.8002 23L38.4002 24.4L42.8002 28.7999H39.0002V30.6L37.7002 31.9L40.3002 34.5999H34.2002V36.5999H40.4002L37.6002 39.4L38.9002 40.7V42.5L42.7002 42.5999L38.4002 46.9L39.8002 48.2999L44.2002 43.9V47.7999H46.0002L47.4002 49.2L50.2002 46.5V52.5H52.2002V46.5L54.9002 49.2L56.2002 47.9H58.1002L58.2002 44.0999L62.4002 48.2999L63.8002 46.9L59.5002 42.5999H63.4002V40.7L64.7002 39.4L62.0002 36.5999H68.0002V34.7H67.9002ZM63.1002 30.7L59.1002 34.7H53.5002L57.5002 30.7H63.1002ZM56.1002 23.7999V29.2999L52.1002 33.2999V27.7L56.1002 23.7999ZM46.2002 23.9L50.1002 27.7999V33.2999L46.1002 29.2999L46.2002 23.9ZM39.3002 30.7999H44.8002L48.7002 34.7H43.0002L39.3002 30.7999ZM39.3002 40.5L43.2002 36.5999H48.7002L44.7002 40.5999L39.3002 40.5ZM46.2002 47.5V41.9L50.1002 38V43.7999L46.2002 47.5ZM56.1002 47.5999L52.1002 43.5999V38L56.1002 42V47.5999ZM63.1002 40.5999H57.5002L53.5002 36.5999H59.2002L63.1002 40.5999Z" fill="white"/>
<path d="M1434.6 59.8H1428.6L1431.3 57.1L1430 55.8V53.9L1426.2 53.8L1430.4 49.6L1429 48.2L1424.7 52.5V48.6H1422.7L1421.5 47.3L1418.8 49.9V44H1416.8V50.2L1414 47.4L1412.7 48.7H1410.9L1410.8 52.5L1406.5 48.2L1405.1 49.6L1409.5 54H1405.6V55.8L1404.3 57.1L1406.9 59.8H1400.8V61.8H1407L1404.2 64.6L1405.5 65.9V67.7L1409.3 67.8L1405 72.1L1406.4 73.5L1410.8 69.1V73H1412.5L1413.9 74.4L1416.7 71.7V77.7H1418.7V71.7L1421.4 74.4L1422.7 73.1H1424.6L1424.7 69.3L1428.9 73.5L1430.3 72.1L1426 67.8H1429.9V65.9L1431.2 64.6L1428.5 61.8H1434.5V59.8H1434.6ZM1429.8 55.9L1425.8 59.9H1420.2L1424.2 55.9H1429.8ZM1422.8 49V54.5L1418.8 58.5V52.9L1422.8 49ZM1412.9 49.1L1416.8 53V58.5L1412.8 54.5L1412.9 49.1ZM1406.1 55.9H1411.6L1415.5 59.8H1409.8L1406.1 55.9ZM1406.1 65.7L1410 61.8H1415.5L1411.5 65.8L1406.1 65.7ZM1412.9 72.7V67.1L1416.8 63.2V69L1412.9 72.7ZM1422.8 72.8L1418.8 68.8V63.2L1422.8 67.2V72.8ZM1429.8 65.8H1424.2L1420.2 61.8H1425.9L1429.8 65.8Z" fill="white"/>
<path opacity="0.11" d="M365.8 227.1L360.5 229.9L361.7 226.2L359.9 225.6L359 224L355.6 225.7L357.4 220L355.5 219.4L353.7 225.2L351.9 221.8L350.2 222.7L348.5 222.1L347.3 225.7L344.5 220.3L342.8 221.2L345.7 226.7L342 225.5L341.4 227.3L339.8 228.1L341.5 231.5L335.7 229.7L335.1 231.6L341 233.5L337.5 235.3L338.4 236.9L337.8 238.6L341.4 239.8L336 242.6L336.9 244.3L342.4 241.4L341.2 245.1L343 245.7L343.8 247.3L347.2 245.6L345.4 251.4L347.3 252L349.2 246.1L351 249.6L352.5 248.8L354.4 249.4L355.6 245.7L358.4 251L360.1 250.1L357.3 244.8L361 246L361.6 244.2L363.3 243.4L361.6 240L367.3 241.8L367.9 239.9L362.1 238.1L365.5 236.3L364.6 234.6L365.2 232.8L361.5 231.6L366.8 228.8L365.8 227.1ZM359.7 225.8L358 231.1L353 233.7L354.7 228.2L359.7 225.8ZM350.3 222.9L352.8 227.8L351.1 233.1L348.5 228.1L350.3 222.9ZM341.6 227.5L346.9 229.2L349.4 234.1L344 232.4L341.6 227.5ZM338.7 236.8L343.6 234.2L348.8 235.8L343.8 238.4L338.7 236.8ZM343.2 245.5L344.9 240.2L349.8 237.7L348.1 243.1L343.2 245.5ZM352.5 248.5L349.9 243.5L351.6 238.2L354.3 243.3L352.5 248.5ZM361.3 244L356 242.3L353.4 237.3L358.9 239L361.3 244ZM364.3 234.6L359.3 237.2L353.9 235.5L359 232.9L364.3 234.6Z" fill="white"/>
<path d="M236.05 26.5926L234.283 28.3604L236.05 30.1281L237.818 28.3604L236.05 26.5926Z" fill="white"/>
<path d="M236.028 24.3505L235.108 25.2698L236.028 26.189L236.947 25.2698L236.028 24.3505Z" fill="white"/>
<path d="M236.018 45.2544L235.099 46.1736L236.018 47.0928L236.938 46.1736L236.018 45.2544Z" fill="white"/>
<path d="M236.021 41.3049L234.253 43.0726L236.021 44.8404L237.788 43.0726L236.021 41.3049Z" fill="white"/>
<path d="M228.661 33.9968L226.894 35.7645L228.661 37.5323L230.429 35.7645L228.661 33.9968Z" fill="white"/>
<path d="M225.572 34.8689L224.652 35.7881L225.572 36.7073L226.491 35.7881L225.572 34.8689Z" fill="white"/>
<path d="M246.546 34.8073L245.626 35.7266L246.546 36.6458L247.465 35.7266L246.546 34.8073Z" fill="white"/>
<path d="M243.374 34.027L241.606 35.7948L243.374 37.5625L245.142 35.7948L243.374 34.027Z" fill="white"/>
<path d="M241.6 40.3H243.6V38.9H240.2L239.4 38.1C239.6 37.8 239.7 37.5 239.9 37.2L241.3 35.8L239.9 34.4C239.8 34.1 239.6 33.8 239.4 33.5L240.1 32.8H243.5V31.4H241.5L242.8 30.1H246.2V28.7H243.1V25.6H241.7V29.2L240.4 30.5V28.3H239V31.8L238.4 32.4C238.1 32.2 237.7 32 237.4 31.8L236 30.4L234.6 31.8C234.2 31.9 233.8 32.1 233.5 32.4L232.9 31.8V28.4H231.5V30.4L230.2 29.1V25.7H228.8V28.8H225.7V30.2H229.3L230.6 31.5H228.4V32.9H231.9L232.4 33.4C232.2 33.7 232 34.1 231.8 34.5L230.5 35.8L231.7 37C231.9 37.5 232.1 38 232.5 38.5L231.9 39.1L228.4 39V40.4H230.6L229.3 41.7L225.7 41.6V43H228.8V46.1H230.2V42.7L231.5 41.4V43.4H232.9V40L233.6 39.3C233.9 39.5 234.2 39.6 234.6 39.7L235.9 41L237.2 39.7C237.6 39.5 238 39.3 238.4 39L239.1 39.7L239 43.2H240.4V41L241.7 42.3L241.6 45.9H243V42.8H246.1V41.4H242.7L241.6 40.3ZM238.7 34.9L237.8 35.8L236.1 34.1L237 33.2C237.8 33.5 238.4 34.2 238.7 34.9ZM234.3 35.9L236 37.6L235.1 38.5C234.3 38.2 233.7 37.6 233.4 36.8L234.3 35.9ZM235.1 33.2L236 34.1L234.3 35.8L233.3 34.8C233.7 34.1 234.3 33.5 235.1 33.2ZM237 38.5L236.1 37.6L237.8 35.9L238.6 36.7C238.4 37.6 237.8 38.2 237 38.5Z" fill="white"/>
<path d="M531.893 44.8588L530.762 45.9902L531.893 47.1216L533.024 45.9902L531.893 44.8588Z" fill="white"/>
<path d="M531.934 43.366L531.298 44.0024L531.934 44.6388L532.571 44.0024L531.934 43.366Z" fill="white"/>
<path d="M531.971 56.7507L531.334 57.3871L531.971 58.0235L532.607 57.3871L531.971 56.7507Z" fill="white"/>
<path d="M531.887 54.2614L530.755 55.3928L531.887 56.5242L533.018 55.3928L531.887 54.2614Z" fill="white"/>
<path d="M527.177 49.5515L526.045 50.6829L527.177 51.8142L528.308 50.6829L527.177 49.5515Z" fill="white"/>
<path d="M525.261 50.0782L524.625 50.7146L525.261 51.351L525.898 50.7146L525.261 50.0782Z" fill="white"/>
<path d="M538.574 50.1107L537.938 50.7471L538.574 51.3835L539.211 50.7471L538.574 50.1107Z" fill="white"/>
<path d="M536.58 49.5587L535.449 50.6901L536.58 51.8214L537.711 50.69L536.58 49.5587Z" fill="white"/>
<path d="M535.4 53.5999H536.7V52.7H534.5L534 52.2C534.1 52 534.2 51.7999 534.3 51.5999L535.2 50.7L534.3 49.7999C534.2 49.5999 534.1 49.4 534 49.2L534.4 48.7999H536.6V47.9H535.3L536.1 47.0999H538.3V46.2H536.3V44.2H535.4V46.5L534.6 47.2999V45.9H533.7V48.2L533.3 48.5999C533.1 48.4999 532.9 48.3 532.6 48.2L531.7 47.2999L530.8 48.2C530.5 48.3 530.3 48.3999 530.1 48.5999L529.7 48.2V46H528.8V47.2999L528 46.5V44.2999H527.1V46.2999H525.1V47.2H527.4L528.2 48H526.8V48.9H529.1L529.4 49.2C529.3 49.4 529.1 49.6 529 49.9L528.2 50.7L529 51.5C529.1 51.8 529.3 52.2 529.5 52.4L529.1 52.7999H526.8V53.7H528.2L527.4 54.5H525.1V55.4H527.1V57.4H528V55.2L528.8 54.4V55.7H529.7V53.5L530.1 53.0999C530.3 53.1999 530.5 53.3 530.7 53.4L531.5 54.2L532.3 53.4C532.6 53.3 532.8 53.2 533.1 53L533.5 53.4V55.7H534.4V54.2999L535.2 55.0999V57.4H536.1V55.4H538.1V54.5H535.9L535.4 53.5999ZM533.5 50.2L532.9 50.7999L531.8 49.7L532.4 49.0999C533 49.2999 533.4 49.7 533.5 50.2ZM530.7 50.7999L531.8 51.9L531.2 52.5C530.7 52.3 530.3 51.9 530.1 51.4L530.7 50.7999ZM531.3 49.0999L531.9 49.7L530.8 50.7999L530.2 50.2C530.4 49.7 530.8 49.2999 531.3 49.0999ZM532.5 52.5L531.9 51.9L533 50.7999L533.5 51.2999C533.4 51.8999 533 52.3 532.5 52.5Z" fill="white"/>
<path d="M81.6174 118.828L79.8496 120.596L81.6174 122.364L83.3851 120.596L81.6174 118.828Z" fill="white"/>
<path d="M81.6653 116.657L80.7461 117.576L81.6653 118.496L82.5846 117.576L81.6653 116.657Z" fill="white"/>
<path d="M81.6556 137.561L80.7363 138.48L81.6556 139.399L82.5748 138.48L81.6556 137.561Z" fill="white"/>
<path d="M81.6579 133.611L79.8901 135.379L81.6579 137.147L83.4256 135.379L81.6579 133.611Z" fill="white"/>
<path d="M74.2282 126.233L72.4604 128L74.2282 129.768L75.9959 128L74.2282 126.233Z" fill="white"/>
<path d="M71.2083 127.034L70.2891 127.953L71.2083 128.872L72.1275 127.953L71.2083 127.034Z" fill="white"/>
<path d="M92.1121 127.043L91.1929 127.962L92.1121 128.882L93.0313 127.962L92.1121 127.043Z" fill="white"/>
<path d="M89.0114 126.192L87.2437 127.96L89.0114 129.728L90.7792 127.96L89.0114 126.192Z" fill="white"/>
<path d="M87.2999 132.6H89.2999V131.2H85.8999L85.0999 130.4C85.2999 130.1 85.3999 129.8 85.5999 129.5L86.9999 128.1L85.5999 126.7C85.4999 126.4 85.2999 126.1 85.0999 125.8L85.7999 125.1H89.1999V123.7H87.1999L88.4999 122.4H91.8999V121H88.7999V117.9H87.3999V121.5L86.0999 122.8V120.6H84.6999V124.1L84.0999 124.7C83.7999 124.5 83.3999 124.3 83.0999 124.1L81.6999 122.7L80.2999 124.1C79.8999 124.2 79.4999 124.4 79.1999 124.7L78.5999 124.1V120.7H77.1999V122.7L75.8999 121.4V118H74.4999V121.1H71.3999V122.5H74.9999L76.2999 123.8H74.0999V125.2H77.5999L78.0999 125.7C77.8999 126 77.6999 126.4 77.4999 126.8L76.1999 128.1L77.3999 129.3C77.5999 129.8 77.7999 130.3 78.1999 130.8L77.5999 131.4L74.0999 131.3V132.7H76.2999L74.9999 134L71.3999 133.9V135.3H74.4999V138.4H75.8999V135L77.1999 133.7V135.7H78.5999V132.3L79.2999 131.6C79.5999 131.8 79.8999 131.9 80.2999 132L81.5999 133.3L82.8999 132C83.2999 131.8 83.6999 131.6 84.0999 131.3L84.7999 132L84.6999 135.5H86.0999V133.3L87.3999 134.6L87.2999 138.2H88.6999V135.1H91.9999V133.7H88.5999L87.2999 132.6ZM84.2999 127.2L83.3999 128.1L81.6999 126.4L82.5999 125.5C83.3999 125.8 83.9999 126.4 84.2999 127.2ZM79.8999 128.2L81.5999 129.9L80.6999 130.8C79.8999 130.5 79.2999 129.9 78.9999 129.1L79.8999 128.2ZM80.7999 125.5L81.6999 126.4L79.9999 128.1L78.9999 127.1C79.2999 126.4 79.9999 125.7 80.7999 125.5ZM82.6999 130.8L81.7999 129.9L83.4999 128.2L84.2999 129C83.9999 129.8 83.3999 130.5 82.6999 130.8Z" fill="white"/>
<path d="M1131.26 153.283L1129.49 155.05L1131.26 156.818L1133.02 155.05L1131.26 153.283Z" fill="white"/>
<path d="M1131.23 151.041L1130.31 151.96L1131.23 152.879L1132.15 151.96L1131.23 151.041Z" fill="white"/>
<path d="M1131.22 171.944L1130.31 172.864L1131.22 173.783L1132.14 172.863L1131.22 171.944Z" fill="white"/>
<path d="M1131.23 167.995L1129.46 169.763L1131.23 171.53L1132.99 169.763L1131.23 167.995Z" fill="white"/>
<path d="M1123.8 160.615L1122.03 162.383L1123.8 164.15L1125.56 162.383L1123.8 160.615Z" fill="white"/>
<path d="M1120.78 161.561L1119.86 162.48L1120.78 163.4L1121.7 162.48L1120.78 161.561Z" fill="white"/>
<path d="M1141.68 161.568L1140.76 162.487L1141.68 163.407L1142.6 162.487L1141.68 161.568Z" fill="white"/>
<path d="M1138.51 160.646L1136.74 162.414L1138.51 164.182L1140.28 162.414L1138.51 160.646Z" fill="white"/>
<path d="M1136.8 167H1138.8V165.6H1135.4L1134.6 164.8C1134.8 164.5 1134.9 164.2 1135.1 163.9L1136.5 162.5L1135.1 161.1C1135 160.8 1134.8 160.5 1134.6 160.2L1135.3 159.5H1138.7V158.1H1136.7L1138 156.8H1141.4V155.4H1138.3V152.3H1136.9V155.9L1135.6 157.2V155H1134.2V158.5L1133.6 159.1C1133.3 158.9 1132.9 158.7 1132.6 158.5L1131.2 157.1L1129.8 158.5C1129.4 158.6 1129 158.8 1128.7 159.1L1128.1 158.5V155.1H1126.7V157.1L1125.4 155.8V152.4H1124V155.5H1120.9V156.9H1124.5L1125.8 158.2H1123.6V159.6H1127.1L1127.6 160.1C1127.4 160.4 1127.2 160.8 1127 161.2L1125.7 162.5L1126.9 163.7C1127.1 164.2 1127.3 164.7 1127.7 165.2L1127.1 165.8L1123.6 165.7V167.1H1125.8L1124.5 168.4L1120.9 168.3V169.7H1124V172.8H1125.4V169.4L1126.7 168.1V170.1H1128.1V166.7L1128.8 166C1129.1 166.2 1129.4 166.3 1129.8 166.4L1131.1 167.7L1132.4 166.4C1132.8 166.2 1133.2 166 1133.6 165.7L1134.3 166.4L1134.2 169.9H1135.6V167.7L1136.9 169L1136.8 172.6H1138.2V169.5H1141.3V168.1H1137.9L1136.8 167ZM1133.9 161.6L1133 162.5L1131.3 160.8L1132.2 159.9C1132.9 160.2 1133.6 160.8 1133.9 161.6ZM1129.5 162.6L1131.2 164.3L1130.3 165.2C1129.5 164.9 1128.9 164.3 1128.6 163.5L1129.5 162.6ZM1130.3 159.9L1131.2 160.8L1129.5 162.5L1128.5 161.5C1128.9 160.8 1129.5 160.2 1130.3 159.9ZM1132.2 165.2L1131.3 164.3L1133 162.6L1133.8 163.4C1133.6 164.2 1133 164.9 1132.2 165.2Z" fill="white"/>
<g opacity="0.6">
<path d="M131.359 36.3912L130.44 37.3104L131.359 38.2297L132.278 37.3104L131.359 36.3912Z" fill="white"/>
<path d="M131.313 35.2346L130.818 35.7296L131.313 36.2246L131.808 35.7296L131.313 35.2346Z" fill="white"/>
<path d="M131.34 45.7233L130.845 46.2183L131.34 46.7132L131.835 46.2183L131.34 45.7233Z" fill="white"/>
<path d="M131.377 43.7838L130.458 44.703L131.377 45.6222L132.296 44.703L131.377 43.7838Z" fill="white"/>
<path d="M127.663 40.0926L126.744 41.0118L127.663 41.9311L128.582 41.0118L127.663 40.0926Z" fill="white"/>
<path d="M126.082 40.5636L125.587 41.0586L126.082 41.5536L126.577 41.0586L126.082 40.5636Z" fill="white"/>
<path d="M136.571 40.5362L136.076 41.0311L136.571 41.5261L137.066 41.0311L136.571 40.5362Z" fill="white"/>
<path d="M135.055 40.0748L134.136 40.994L135.055 41.9132L135.975 40.994L135.055 40.0748Z" fill="white"/>
<path d="M134.1 43.3H135.1V42.6H133.4L133 42.2C133.1 42.1 133.2 41.9 133.2 41.7L133.9 41L133.2 40.3C133.1 40.1 133.1 40 133 39.9L133.3 39.6H135V38.9H134L134.6 38.3H136.3V37.6H134.8V36H134.1V37.8L133.4 38.4V37.3H132.7V39.1L132.4 39.4C132.2 39.3 132.1 39.2 131.9 39.1L131.2 38.4L130.5 39.1C130.3 39.2 130.1 39.3 129.9 39.4L129.6 39.1V37.4H128.9V38.4L128.3 37.8V36.1H127.6V37.6H126V38.3H127.8L128.4 39H127.3V39.7H129.1L129.4 40C129.3 40.2 129.2 40.3 129.1 40.5L128.5 41.1L129.1 41.7C129.2 42 129.3 42.2 129.5 42.4L129.2 42.7H127.4V43.4H128.5L127.9 44.1H126.1V44.8H127.7V46.3H128.4V44.6L129 44V45H129.7V43.3L130 43C130.2 43.1 130.3 43.2 130.5 43.2L131.1 43.8L131.8 43.1C132 43 132.2 42.9 132.4 42.8L132.7 43.1V44.9H133.4V43.8L134.1 44.4V46.2H134.8V44.6H136.3V43.9H134.6L134.1 43.3ZM132.6 40.6L132.2 41L131.4 40.2L131.9 39.7C132.2 39.9 132.5 40.2 132.6 40.6ZM130.4 41.1L131.2 41.9L130.8 42.3C130.4 42.2 130.1 41.8 129.9 41.5L130.4 41.1ZM130.8 39.8L131.3 40.3L130.5 41.1L130 40.6C130.1 40.2 130.4 39.9 130.8 39.8ZM131.8 42.4L131.4 42L132.2 41.2L132.6 41.6C132.5 41.9 132.2 42.2 131.8 42.4Z" fill="white"/>
</g>
<g opacity="0.6">
<path d="M544.878 162.38L543.181 164.077L544.878 165.774L546.575 164.077L544.878 162.38Z" fill="white"/>
<path d="M544.871 160.331L543.952 161.25L544.871 162.17L545.791 161.25L544.871 160.331Z" fill="white"/>
<path d="M544.866 180.033L543.947 180.952L544.866 181.871L545.786 180.952L544.866 180.033Z" fill="white"/>
<path d="M544.884 176.277L543.187 177.974L544.884 179.671L546.581 177.974L544.884 176.277Z" fill="white"/>
<path d="M537.915 169.395L536.218 171.092L537.915 172.789L539.612 171.092L537.915 169.395Z" fill="white"/>
<path d="M535.019 170.111L534.1 171.03L535.019 171.949L535.938 171.03L535.019 170.111Z" fill="white"/>
<path d="M554.72 170.114L553.8 171.033L554.72 171.952L555.639 171.033L554.72 170.114Z" fill="white"/>
<path d="M551.813 169.389L550.116 171.086L551.813 172.783L553.51 171.086L551.813 169.389Z" fill="white"/>
<path d="M550.1 175.4H552V174.1H548.8L548.1 173.4C548.3 173.1 548.4 172.8 548.5 172.5L549.8 171.2L548.4 169.8C548.3 169.5 548.1 169.2 548 169L548.6 168.4H551.8V167.1H549.9L551.1 165.9H554.3V164.6H551.4V161.7H550.1V165.1L548.9 166.3V164.2H547.6V167.5L547 168.1C546.7 167.9 546.4 167.7 546 167.6L544.7 166.3L543.4 167.6C543 167.7 542.6 167.9 542.3 168.2L541.8 167.7V164.5H540.5V166.4L539.3 165.2V162H538V164.9H535.1V166.2H538.5L539.7 167.4H537.6V168.7H540.9L541.4 169.2C541.2 169.5 541 169.9 540.9 170.2L539.7 171.4L540.9 172.6C541.1 173.1 541.3 173.6 541.6 174L541.1 174.6L537.8 174.5V175.8H539.9L538.7 177L535.3 176.9V178.2H538.2V181.1H539.5V177.9L540.7 176.7V178.6H542V175.4L542.7 174.7C543 174.9 543.3 175 543.6 175.1L544.8 176.3L546 175.1C546.4 175 546.8 174.7 547.1 174.5L547.8 175.1L547.7 178.4H549V176.3L550.2 177.5L550.1 180.9H551.4V178H554.3V176.7H551.1L550.1 175.4ZM547.3 170.3L546.5 171.1L544.9 169.5L545.8 168.6C546.5 169 547 169.6 547.3 170.3ZM543.2 171.3L544.8 172.9L544 173.7C543.3 173.4 542.7 172.8 542.4 172.1L543.2 171.3ZM544 168.7L544.9 169.6L543.3 171.2L542.4 170.3C542.6 169.5 543.2 168.9 544 168.7ZM545.8 173.7L545 172.9L546.6 171.3L547.4 172.1C547.1 172.8 546.5 173.4 545.8 173.7Z" fill="white"/>
</g>
<g opacity="0.6">
<path d="M791.681 234.695L789.984 236.392L791.681 238.089L793.378 236.392L791.681 234.695Z" fill="white"/>
<path d="M791.745 232.575L790.826 233.494L791.745 234.414L792.665 233.494L791.745 232.575Z" fill="white"/>
<path d="M791.741 252.277L790.822 253.196L791.741 254.115L792.66 253.196L791.741 252.277Z" fill="white"/>
<path d="M791.688 248.592L789.991 250.289L791.688 251.986L793.385 250.289L791.688 248.592Z" fill="white"/>
<path d="M784.719 241.709L783.021 243.406L784.719 245.103L786.416 243.406L784.719 241.709Z" fill="white"/>
<path d="M781.823 242.426L780.904 243.345L781.823 244.264L782.742 243.345L781.823 242.426Z" fill="white"/>
<path d="M801.523 242.428L800.604 243.347L801.523 244.267L802.443 243.347L801.523 242.428Z" fill="white"/>
<path d="M798.616 241.704L796.919 243.401L798.616 245.098L800.313 243.401L798.616 241.704Z" fill="white"/>
<path d="M796.9 247.7H798.8V246.4H795.6L794.9 245.7C795.1 245.4 795.2 245.1 795.3 244.8L796.6 243.5L795.2 242.1C795.1 241.8 794.9 241.5 794.8 241.3L795.4 240.7H798.6V239.4H796.7L797.9 238.2H801.1V236.9H798.2V234H796.9V237.4L795.7 238.6V236.5H794.4V239.8L793.8 240.4C793.5 240.2 793.2 240 792.8 239.9L791.5 238.6L790.2 239.9C789.8 240 789.4 240.2 789.1 240.5L788.6 240V236.8H787.3V238.7L786.1 237.5V234.3H784.8V237.2H781.9V238.5H785.3L786.5 239.7H784.4V241H787.7L788.2 241.5C788 241.8 787.8 242.2 787.7 242.5L786.5 243.7L787.7 244.9C787.9 245.4 788.1 245.9 788.4 246.3L787.9 246.9L784.6 246.8V248.1H786.7L785.5 249.3L782.1 249.2V250.5H785V253.4H786.3V250L787.5 248.8V250.7H788.8V247.5L789.5 246.8C789.8 247 790.1 247.1 790.4 247.2L791.6 248.4L792.8 247.2C793.2 247.1 793.6 246.8 793.9 246.6L794.6 247.2L794.5 250.5H795.8V248.4L797 249.6L796.9 253H798.2V250.1H801.1V248.8H797.9L796.9 247.7ZM794.1 242.6L793.3 243.4L791.7 241.8L792.6 240.9C793.3 241.3 793.9 241.9 794.1 242.6ZM790 243.6L791.6 245.2L790.8 246C790.1 245.7 789.5 245.1 789.2 244.4L790 243.6ZM790.8 241L791.7 241.9L790.1 243.5L789.2 242.6C789.4 241.8 790 241.2 790.8 241ZM792.6 246L791.8 245.2L793.4 243.6L794.2 244.4C793.9 245.1 793.3 245.7 792.6 246Z" fill="white"/>
</g>
<path d="M334.3 108.5L328.2 110.9L329.8 107.1L327.8 106.3L325.3 112.1L324.9 112.3C324.2 111.1 323.2 110.2 322 109.5L322.4 108.5L325.3 107.7L324.7 105.7L322.2 106.4L321.5 103.9L319.5 104.5L320.4 107.8L320 108.7C318.6 108.3 317.1 108.3 315.6 108.7L315.3 107.9L317.8 102.3L315.9 101.4L314.2 105.2L312 99L310 99.8L312.5 106L308.6 104.3L307.8 106.3L313.6 108.8L313.9 109.5C312.7 110.2 311.7 111.2 311.1 112.4L309.9 111.9L309.1 109L307.1 109.6L307.8 112.1L305.3 112.8L305.9 114.8L309.2 113.9L310.4 114.4C310.1 115.6 310 117 310.3 118.3L309.5 118.6L303.9 116.1L303 118L306.8 119.7L300.7 122.1L301.5 124.1L307.7 121.6L306 125.5L308 126.3L310.5 120.5L311.1 120.2C311.8 121.5 312.8 122.6 314 123.3L313.4 124.6L310.5 125.4L311.1 127.4L313.6 126.7L314.3 129.2L316.3 128.6L315.3 125.3L315.8 124.2C317.1 124.6 318.5 124.7 319.9 124.3L320.1 124.8L317.6 130.5L319.5 131.4L321.2 127.6L323.6 133.6L325.6 132.8L323.2 126.7L327 128.3L327.8 126.3L322 123.8L321.9 123.5C323.2 122.8 324.3 121.8 325 120.6L326.1 121.1L326.9 124L328.9 123.4L328.2 120.9L330.7 120.2L330.1 118.2L326.8 119.2L325.9 118.8C326.3 117.3 326.4 115.7 325.9 114.2L326.3 114L332 116.5L332.9 114.6L329.1 112.9L335.1 110.5L334.3 108.5ZM323 113.1L320.1 114.3L321.3 111.5C322 111.8 322.6 112.4 323 113.1ZM319.4 110.6L318 113.9L316.7 110.7C317.6 110.4 318.5 110.4 319.4 110.6ZM314.7 111.5L315.9 114.5L313 113.3C313.5 112.6 314 112 314.7 111.5ZM312.3 115.2L314.9 116.3L312.2 117.4C312.1 116.7 312.1 115.9 312.3 115.2ZM312.9 119.4L316.1 118.1L314.7 121.3C314 120.9 313.4 120.2 312.9 119.4ZM316.6 122.2L317.9 119.3L319.1 122.3C318.3 122.5 317.4 122.4 316.6 122.2ZM321.1 121.6L319.8 118.5L323 119.9C322.5 120.6 321.9 121.2 321.1 121.6ZM323.9 117.9L320.4 116.4L323.9 115C324.2 116 324.1 117 323.9 117.9Z" fill="white"/>
<path d="M906.3 80.8L901.7 80L904.2 78.3L903.3 77L899.6 79.6L899.3 79.5C899.3 78.5 899.1 77.6 898.6 76.7L899.3 76.2L901.4 76.8L901.8 75.3L900 74.8L900.5 73L899 72.6L898.3 74.9L897.7 75.3C897 74.5 896.1 73.9 895 73.6L895.1 73L898.8 70.5L898 69.2L895.5 70.8L896.3 66.2L894.8 65.9L894 71L892.3 68.5L891 69.4L893.6 73.1L893.5 73.6C892.5 73.6 891.5 73.8 890.7 74.3L890.2 73.5L890.8 71.4L889.3 71L888.8 72.8L887 72.3L886.6 73.8L888.9 74.5L889.4 75.2C888.7 75.8 888.2 76.6 887.9 77.5L887.3 77.4L884.8 73.7L883.5 74.5L885.1 77L880.5 76.2L880.2 77.7L884.9 78.6L882.4 80.3L883.3 81.6L887 79L887.5 79.1C887.4 80.2 887.6 81.2 888.1 82.1L887.3 82.7L885.2 82.1L884.8 83.6L886.6 84.1L886.1 85.9L887.6 86.3L888.3 83.9L889 83.4C889.6 84.1 890.5 84.7 891.4 85.1L891.3 85.5L887.6 88L888.4 89.3L890.9 87.6L890.1 92.2L891.6 92.5L892.4 87.9L894.1 90.4L895.4 89.5L892.8 85.8V85.5C893.9 85.6 894.9 85.4 895.8 84.9L896.3 85.6L895.7 87.7L897.2 88.1L897.7 86.3L899.5 86.8L899.9 85.3L897.5 84.6L897.1 84C897.9 83.3 898.6 82.3 898.9 81.2L899.2 81.3L901.7 85L903 84.2L901.3 81.7L905.9 82.5L906.3 80.8ZM897.7 79.3L895.5 78.9L897.3 77.7C897.6 78.1 897.7 78.7 897.7 79.3ZM896.5 76.4L894.4 77.8L894.8 75.3C895.4 75.6 896 75.9 896.5 76.4ZM893.3 75.1L892.9 77.4L891.6 75.5C892.1 75.3 892.7 75.2 893.3 75.1ZM890.4 76.4L891.6 78.1L889.6 77.7C889.7 77.3 890 76.8 890.4 76.4ZM889.2 79.3L891.6 79.7L889.5 81.1C889.2 80.5 889.1 79.9 889.2 79.3ZM890.3 82.4L892.2 81.1L891.8 83.4C891.2 83.2 890.7 82.8 890.3 82.4ZM893.3 83.7L893.7 81.3L895.1 83.4C894.5 83.6 893.9 83.8 893.3 83.7ZM896.4 82.6L894.8 80.3L897.5 80.8C897.3 81.5 896.9 82.1 896.4 82.6Z" fill="white"/>
<path d="M1266.5 60L1261.9 59.2L1264.4 57.5L1263.5 56.2L1259.8 58.8L1259.5 58.7C1259.5 57.7 1259.3 56.8 1258.8 55.9L1259.5 55.4L1261.6 56L1262 54.5L1260.2 54L1260.7 52.2L1259.2 51.8L1258.5 54.1L1257.9 54.5C1257.2 53.7 1256.3 53.1 1255.2 52.8L1255.3 52.2L1259 49.7L1258.2 48.4L1255.7 50L1256.5 45.4L1255 45.1L1254.1 49.8L1252.4 47.3L1251.1 48.2L1253.7 51.9L1253.6 52.4C1252.6 52.4 1251.6 52.6 1250.8 53.1L1250.3 52.3L1250.9 50.2L1249.4 49.8L1249 52L1247.2 51.5L1246.8 53L1249.1 53.7L1249.6 54.4C1248.9 55 1248.4 55.8 1248.1 56.7L1247.5 56.6L1245 52.9L1243.7 53.7L1245.3 56.2L1240.7 55.4L1240.4 56.9L1245.1 57.8L1242.6 59.5L1243.5 60.8L1247.2 58.2L1247.7 58.3C1247.6 59.4 1247.8 60.4 1248.3 61.3L1247.5 61.9L1245.4 61.3L1245 62.8L1246.8 63.3L1246.3 65.1L1247.8 65.5L1248.5 63.1L1249.2 62.6C1249.8 63.3 1250.7 63.9 1251.6 64.3L1251.5 64.7L1248 67L1248.8 68.3L1251.3 66.6L1250.5 71.2L1252 71.5L1252.8 66.9L1254.5 69.4L1255.8 68.5L1253.2 64.8V64.5C1254.3 64.6 1255.3 64.4 1256.2 63.9L1256.7 64.6L1256.1 66.7L1257.6 67.1L1258.1 65.3L1259.9 65.8L1260.3 64.3L1257.9 63.6L1257.5 63C1258.3 62.3 1259 61.3 1259.3 60.2L1259.6 60.3L1262.1 64L1263.4 63.2L1261.7 60.7L1266.3 61.5L1266.5 60ZM1258 58.5L1255.8 58.1L1257.6 56.9C1257.8 57.3 1257.9 57.9 1258 58.5ZM1256.7 55.6L1254.6 57L1255 54.5C1255.7 54.8 1256.2 55.1 1256.7 55.6ZM1253.5 54.3L1253.1 56.6L1251.8 54.7C1252.3 54.5 1252.9 54.4 1253.5 54.3ZM1250.6 55.6L1251.8 57.3L1249.8 56.9C1249.9 56.5 1250.2 56 1250.6 55.6ZM1249.4 58.4L1251.8 58.8L1249.7 60.2C1249.5 59.7 1249.3 59.1 1249.4 58.4ZM1250.6 61.6L1252.5 60.3L1252.1 62.6C1251.5 62.4 1251 62 1250.6 61.6ZM1253.5 62.9L1253.9 60.5L1255.3 62.6C1254.8 62.8 1254.1 63 1253.5 62.9ZM1256.6 61.8L1255 59.5L1257.7 60C1257.5 60.7 1257.1 61.3 1256.6 61.8Z" fill="white"/>
<path opacity="0.26" d="M418.6 44H413.5L415.8 41.7L414.6 40.5L411.1 44H410.8C410.6 42.9 410.2 41.9 409.5 41.1L410.1 40.5L412.4 40.8L412.6 39.1L410.6 38.9L410.8 36.9L409.1 36.7L408.8 39.4L408.2 40C407.3 39.3 406.2 38.9 405 38.7V38L408.5 34.6L407.3 33.4L405 35.7V30.5H403.3V35.8L401 33.5L399.8 34.7L403.3 38.2V38.8C402.2 39 401.2 39.4 400.4 40.1L399.7 39.4L400 37.1L398.3 36.9L398.1 38.9L396.1 38.7L395.9 40.4L398.6 40.7L399.3 41.4C398.7 42.2 398.3 43.2 398.1 44.2H397.4L394 40.7L392.8 41.9L395.1 44.2H390V45.9H395.3L393 48L394.2 49.2L397.7 45.7H398.2C398.3 46.9 398.8 47.9 399.4 48.8L398.6 49.6L396.3 49.3L396.1 51L398.1 51.2L397.9 53.2L399.6 53.4L399.9 50.7L400.6 50C401.4 50.7 402.5 51.1 403.6 51.3V51.7L400.1 55.1L401.3 56.3L403.7 54V59.1H405.4V54L407.7 56.3L408.9 55.1L405.4 51.6V51.3C406.6 51.2 407.6 50.8 408.5 50.1L409.2 50.8L408.9 53.1L410.6 53.3L410.8 51.3L412.8 51.5L413 49.8L410.3 49.5L409.7 48.9C410.5 48 411 46.8 411.1 45.6H411.5L414.9 49.1L416.1 47.9L413.8 45.5H418.9V44H418.6ZM409.1 44H406.6L408.3 42.3C408.7 42.8 409 43.4 409.1 44ZM407.2 41.1L405.2 43.1V40.4C405.9 40.4 406.6 40.7 407.2 41.1ZM403.5 40.4V42.9L401.8 41.1C402.3 40.8 402.9 40.5 403.5 40.4ZM400.6 42.4L402.2 44H399.9C400.1 43.4 400.3 42.9 400.6 42.4ZM399.9 45.6H402.6L400.6 47.6C400.2 47 400 46.4 399.9 45.6ZM401.8 48.8L403.6 47.1V49.6C402.9 49.5 402.3 49.2 401.8 48.8ZM405.2 49.7V47L407.1 48.9C406.5 49.3 405.9 49.6 405.2 49.7ZM408.3 47.8L406.2 45.6H409.2C409.1 46.4 408.8 47.2 408.3 47.8Z" fill="white"/>
<path opacity="0.26" d="M675.9 88.7L671.9 91.9L672.2 88.6L670.5 88.4L670 93.3L669.8 93.5C669 92.8 668 92.3 667 92.1L667.1 91.2L669.1 89.9L668.2 88.5L666.5 89.6L665.4 87.9L664 89L665.5 91.2L665.4 92C664.3 92 663.1 92.4 662.1 93L661.7 92.5L662.3 87.7L660.6 87.5L660.2 90.7L656.9 86.7L655.6 87.8L658.9 91.9L655.6 91.6L655.4 93.3L660.4 93.8L660.8 94.2C660.1 95 659.6 96 659.3 97L658.3 96.9L657 94.9L655.6 95.8L656.7 97.5L655 98.6L655.9 100L658.1 98.5L659.1 98.6C659.1 99.6 659.4 100.6 659.9 101.5L659.3 102L654.5 101.4L654.3 103.1L657.5 103.5L653.5 106.8L654.6 108.1L658.7 104.8L658.4 108.1L660.1 108.3L660.6 103.3L661 103C661.8 103.8 662.8 104.4 663.9 104.7L663.8 105.8L661.8 107.1L662.7 108.5L664.4 107.4L665.5 109.1L666.9 108.2L665.4 106L665.5 105C666.6 105 667.6 104.7 668.6 104.1L668.9 104.4L668.3 109.3L670 109.5L670.4 106.2L673.6 110.1L674.9 109L671.7 105L675 105.3L675.2 103.6L670.3 103.1L670.1 102.9C670.9 102.1 671.5 101.1 671.7 100L672.6 100.1L673.9 102.1L675.3 101.2L674.2 99.5L675.9 98.4L675 97L672.8 98.5L672 98.4C672 97.2 671.6 96 670.9 94.9L671.2 94.7L676.1 95.3L676.3 93.6L673 93.2L676.9 90L675.9 88.7ZM668.5 94.7L666.6 96.3L666.9 93.9C667.5 94.1 668 94.3 668.5 94.7ZM665.2 93.8L664.9 96.6L663.2 94.5C663.8 94 664.5 93.8 665.2 93.8ZM661.9 95.5L663.5 97.5L661 97.2C661.2 96.6 661.5 96 661.9 95.5ZM660.9 98.9L663.1 99.1L661.3 100.5C661.1 100 661 99.5 660.9 98.9ZM662.4 101.9L664.5 100.2L664.2 103C663.6 102.7 662.9 102.4 662.4 101.9ZM665.9 103.1L666.2 100.6L667.8 102.6C667.1 102.9 666.5 103.1 665.9 103.1ZM669.1 101.6L667.4 99.5L670.1 99.8C669.9 100.5 669.5 101.1 669.1 101.6ZM670.3 98.2L667.3 97.9L669.6 96C670 96.7 670.3 97.4 670.3 98.2Z" fill="white"/>
<path d="M324.1 39.7C325.536 39.7 326.7 38.5359 326.7 37.1C326.7 35.6641 325.536 34.5 324.1 34.5C322.664 34.5 321.5 35.6641 321.5 37.1C321.5 38.5359 322.664 39.7 324.1 39.7Z" fill="white"/>
<path d="M395.8 104.7C396.684 104.7 397.4 103.984 397.4 103.1C397.4 102.216 396.684 101.5 395.8 101.5C394.917 101.5 394.2 102.216 394.2 103.1C394.2 103.984 394.917 104.7 395.8 104.7Z" fill="white"/>
<path d="M17.9 180.3C18.3971 180.3 18.8 179.897 18.8 179.4C18.8 178.903 18.3971 178.5 17.9 178.5C17.4029 178.5 17 178.903 17 179.4C17 179.897 17.4029 180.3 17.9 180.3Z" fill="white"/>
<path d="M20.3998 101.6C21.2835 101.6 21.9998 100.884 21.9998 100C21.9998 99.1164 21.2835 98.4 20.3998 98.4C19.5161 98.4 18.7998 99.1164 18.7998 100C18.7998 100.884 19.5161 101.6 20.3998 101.6Z" fill="white"/>
<path d="M432 161.6C433.105 161.6 434 160.705 434 159.6C434 158.495 433.105 157.6 432 157.6C430.895 157.6 430 158.495 430 159.6C430 160.705 430.895 161.6 432 161.6Z" fill="white"/>
<path d="M688.7 54.9C689.584 54.9 690.3 54.1836 690.3 53.2999C690.3 52.4163 689.584 51.7 688.7 51.7C687.816 51.7 687.1 52.4163 687.1 53.2999C687.1 54.1836 687.816 54.9 688.7 54.9Z" fill="white"/>
<path d="M557.9 13.7C558.783 13.7 559.5 12.9837 559.5 12.1C559.5 11.2163 558.783 10.5 557.9 10.5C557.016 10.5 556.3 11.2163 556.3 12.1C556.3 12.9837 557.016 13.7 557.9 13.7Z" fill="white"/>
<path d="M844.3 13.7C845.184 13.7 845.9 12.9837 845.9 12.1C845.9 11.2163 845.184 10.5 844.3 10.5C843.416 10.5 842.7 11.2163 842.7 12.1C842.7 12.9837 843.416 13.7 844.3 13.7Z" fill="white"/>
<path d="M1360 91.8C1360.88 91.8 1361.6 91.0836 1361.6 90.2C1361.6 89.3163 1360.88 88.6 1360 88.6C1359.12 88.6 1358.4 89.3163 1358.4 90.2C1358.4 91.0836 1359.12 91.8 1360 91.8Z" fill="white"/>
<path d="M1078.7 87.8C1079.36 87.8 1079.9 87.2628 1079.9 86.6C1079.9 85.9373 1079.36 85.4 1078.7 85.4C1078.04 85.4 1077.5 85.9373 1077.5 86.6C1077.5 87.2628 1078.04 87.8 1078.7 87.8Z" fill="white"/>
<path d="M1277.3 149.4C1278.63 149.4 1279.7 148.325 1279.7 147C1279.7 145.674 1278.63 144.6 1277.3 144.6C1275.97 144.6 1274.9 145.674 1274.9 147C1274.9 148.325 1275.97 149.4 1277.3 149.4Z" fill="white"/>
<path d="M806.6 67.7C807.484 67.7 808.2 66.9837 808.2 66.1C808.2 65.2163 807.484 64.5 806.6 64.5C805.716 64.5 805 65.2163 805 66.1C805 66.9837 805.716 67.7 806.6 67.7Z" fill="white"/>
<path d="M1206.7 112.1C1207.58 112.1 1208.3 111.384 1208.3 110.5C1208.3 109.616 1207.58 108.9 1206.7 108.9C1205.82 108.9 1205.1 109.616 1205.1 110.5C1205.1 111.384 1205.82 112.1 1206.7 112.1Z" fill="white"/>
<path d="M1343.3 35.5C1344.18 35.5 1344.9 34.7837 1344.9 33.9001C1344.9 33.0164 1344.18 32.3 1343.3 32.3C1342.42 32.3 1341.7 33.0164 1341.7 33.9001C1341.7 34.7837 1342.42 35.5 1343.3 35.5Z" fill="white"/>
<path d="M1438.1 30C1438.98 30 1439.7 29.2837 1439.7 28.4C1439.7 27.5164 1438.98 26.8 1438.1 26.8C1437.22 26.8 1436.5 27.5164 1436.5 28.4C1436.5 29.2837 1437.22 30 1438.1 30Z" fill="white"/>
<path d="M1247.5 15.3C1248.38 15.3 1249.1 14.5836 1249.1 13.7C1249.1 12.8163 1248.38 12.1 1247.5 12.1C1246.62 12.1 1245.9 12.8163 1245.9 13.7C1245.9 14.5836 1246.62 15.3 1247.5 15.3Z" fill="white"/>
<path d="M599.6 101.6C600.484 101.6 601.2 100.884 601.2 100C601.2 99.1164 600.484 98.4 599.6 98.4C598.716 98.4 598 99.1164 598 100C598 100.884 598.716 101.6 599.6 101.6Z" fill="white"/>
<path d="M649.7 156.2C650.473 156.2 651.1 155.573 651.1 154.8C651.1 154.027 650.473 153.4 649.7 153.4C648.927 153.4 648.3 154.027 648.3 154.8C648.3 155.573 648.927 156.2 649.7 156.2Z" fill="white"/>
<path d="M996.8 38.9C997.573 38.9 998.2 38.2732 998.2 37.5C998.2 36.7268 997.573 36.1 996.8 36.1C996.027 36.1 995.4 36.7268 995.4 37.5C995.4 38.2732 996.027 38.9 996.8 38.9Z" fill="white"/>
<path d="M1144.9 32.7C1146.17 32.7 1147.2 31.6702 1147.2 30.4C1147.2 29.1297 1146.17 28.1 1144.9 28.1C1143.63 28.1 1142.6 29.1297 1142.6 30.4C1142.6 31.6702 1143.63 32.7 1144.9 32.7Z" fill="white"/>
<path d="M979.5 217.3C980.163 217.3 980.7 216.763 980.7 216.1C980.7 215.437 980.163 214.9 979.5 214.9C978.837 214.9 978.3 215.437 978.3 216.1C978.3 216.763 978.837 217.3 979.5 217.3Z" fill="white"/>
<path d="M897.6 168.3C898.373 168.3 899 167.673 899 166.9C899 166.127 898.373 165.5 897.6 165.5C896.827 165.5 896.2 166.127 896.2 166.9C896.2 167.673 896.827 168.3 897.6 168.3Z" fill="white"/>
<path d="M1045.7 162.1C1046.97 162.1 1048 161.07 1048 159.8C1048 158.53 1046.97 157.5 1045.7 157.5C1044.43 157.5 1043.4 158.53 1043.4 159.8C1043.4 161.07 1044.43 162.1 1045.7 162.1Z" fill="white"/>
<path d="M1189.6 273.5C1190.26 273.5 1190.8 272.963 1190.8 272.3C1190.8 271.637 1190.26 271.1 1189.6 271.1C1188.94 271.1 1188.4 271.637 1188.4 272.3C1188.4 272.963 1188.94 273.5 1189.6 273.5Z" fill="white"/>
<path d="M1107.7 224.5C1108.47 224.5 1109.1 223.873 1109.1 223.1C1109.1 222.327 1108.47 221.7 1107.7 221.7C1106.93 221.7 1106.3 222.327 1106.3 223.1C1106.3 223.873 1106.93 224.5 1107.7 224.5Z" fill="white"/>
<path d="M1255.8 218.3C1257.07 218.3 1258.1 217.27 1258.1 216C1258.1 214.73 1257.07 213.7 1255.8 213.7C1254.53 213.7 1253.5 214.73 1253.5 216C1253.5 217.27 1254.53 218.3 1255.8 218.3Z" fill="white"/>
<path d="M1442 208.8C1443.27 208.8 1444.3 207.77 1444.3 206.5C1444.3 205.23 1443.27 204.2 1442 204.2C1440.73 204.2 1439.7 205.23 1439.7 206.5C1439.7 207.77 1440.73 208.8 1442 208.8Z" fill="white"/>
<path d="M139.4 126.2L147.9 123.9L154.8 148.8L146.3 151.1L139.4 126.2Z" fill="#333333"/>
<path fill-rule="evenodd" clip-rule="evenodd" d="M147.4 124.6L140.1 126.6L146.6 150.3L153.9 148.3L147.4 124.6ZM139.4 126.2L146.3 151.1L154.8 148.8L147.9 123.9L139.4 126.2Z" fill="#353535"/>
<path d="M183.3 126.1L174.8 123.8L168 149.1L176.5 151.4L183.3 126.1Z" fill="#353535"/>
<path fill-rule="evenodd" clip-rule="evenodd" d="M175.2 124.5L182.5 126.5L176 150.6L168.7 148.6L175.2 124.5ZM183.3 126.1L176.5 151.4L168 149.1L174.8 123.8L183.3 126.1Z" fill="#353535"/>
<path d="M143.7 104.1L151.1 111.2L148.6 120.8L138.7 123.4L131.3 116.3L133.8 106.7L143.7 104.1Z" fill="#FEC955"/>
<path fill-rule="evenodd" clip-rule="evenodd" d="M145.7 96.6L158.7 109L154.2 126.4L136.7 130.9L123.7 118.5L128.2 101.1L145.7 96.6ZM131.3 116.3L138.7 123.4L148.6 120.8L151.1 111.2L143.7 104.1L133.8 106.7L131.3 116.3Z" fill="#333333"/>
<path d="M180 104L189.6 106.6L192.2 116.2L185.2 123.2L175.6 120.6L173 111L180 104Z" fill="#FEC955"/>
<path fill-rule="evenodd" clip-rule="evenodd" d="M177.9 96.5L195.1 101.1L199.7 118.3L187.1 130.9L169.9 126.3L165.3 109.1L177.9 96.5ZM175.5 120.7L185.1 123.3L192.1 116.3L189.5 106.7L180 104L173 111L175.5 120.7Z" fill="#333333"/>
<path d="M162.9 377.1L127.4 357C127.2 356.9 127.1 356.6 127.1 356.4L142.8 232.9C142.8 232.6 143.1 232.4 143.4 232.4H174C174.3 232.4 174.6 232.6 174.6 232.9L194.7 356.5C194.7 356.7 194.6 357 194.4 357.1L163.4 377.1C163.3 377.3 163.1 377.3 162.9 377.1Z" fill="#FEC955"/>
<path fill-rule="evenodd" clip-rule="evenodd" d="M143.2 232.5C143.5 230.5 145.2 229 147.2 229H177.8C179.8 229 181.4 230.4 181.8 232.4L201.9 356C202.2 357.6 201.5 359.1 200.1 360L169.1 380C167.8 380.8 166.2 380.9 165 380.1L129.5 360C128.1 359.2 127.3 357.6 127.5 356L130.9 356.4M130.8 356.5L127.4 356.1L143.1 232.6M149.6 235.8L134.4 355L166.8 373.3L194.9 355.2L175.4 235.8H149.6Z" fill="#333333"/>
<path d="M183.5 285.2L187.8 311.1L191.8 336.1L169.6 322.9L165.1 300.5L183.5 285.2Z" fill="#FC7E24"/>
<path d="M144.4 328.1L155.9 340.3L155.5 353.1L145.9 347.9L136 342.7L137.2 333.3L144.4 328.1Z" fill="#FC7E24"/>
<path d="M145.9 264.9L153.9 269.7L157.5 283.8L147 294L142.2 294.5L143.7 282.5L145.9 264.9Z" fill="#FC7E24"/>
<path d="M230.3 255.8C230.3 255.8 257.3 232.7 259.6 243.8C262 254.8 230.3 255.8 230.3 255.8Z" fill="#598F22" stroke="#333333" stroke-width="0.9386"/>
<path d="M230.3 255.8C230.3 255.8 245.5 252.3 247.8 248.2Z" fill="#598F22"/>
<path d="M230.3 255.7C234.9 254.4 239.5 252.8 243.8 250.7C245.2 250 246.7 249.3 247.8 248.2H247.9C246.3 251.1 242.7 252.3 239.7 253.3C236.7 254.3 233.3 255.4 230.3 255.7Z" fill="#333333"/>
<path d="M103.8 223.9L107.5 221.2C107.5 221.2 132.6 243.8 174.7 250.2C216.8 256.5 244.5 256.9 253.7 254.7C263 252.5 285.8 241.8 285.7 251.1C285.6 260.4 283.8 258.3 272.7 256.5C261.6 254.7 263.3 255.7 250.4 257C237.5 258.3 197 255.2 174.2 251.8C142.5 247 109.5 232.9 103.8 223.9Z" fill="#598F22" stroke="#333333" stroke-width="0.9386"/>
<path d="M250.9 256.5C250.9 256.5 274.8 250.6 280.1 253.9Z" fill="#598F22"/>
<path d="M250.9 256.4C255.7 255.1 260.5 254 265.4 253.1C270.1 252.4 275.8 251.2 280.2 253.8L280.1 253.9C277.8 253.1 275.3 253.4 272.9 253.6C268 253.9 263.1 254.4 258.2 255.2C255.8 255.6 253.3 256 250.9 256.5V256.4Z" fill="#333333"/>
<path d="M233.5 257.2C233.5 257.2 277.5 257.6 270.6 269.8C263.7 282 233.5 257.2 233.5 257.2Z" fill="#598F22" stroke="#333333" stroke-width="1.1604"/>
<path d="M233.5 257.2C233.5 257.2 250.5 266.2 256 264.4Z" fill="#598F22"/>
<path d="M233.5 257.1C238.9 259.6 244.5 261.9 250.2 263.4C252.1 263.9 254 264.5 256 264.3V264.4C252.1 265.9 247.8 264 244.2 262.5C240.5 260.9 236.9 259.1 233.4 257.2L233.5 257.1Z" fill="#333333"/>
<path d="M206.601 253.6C206.601 253.6 231.501 225.6 235.001 237.2C238.501 248.8 206.601 253.6 206.601 253.6Z" fill="#598F22" stroke="#333333" stroke-width="0.9815"/>
<path d="M206.601 253.6C206.601 253.6 221.501 248 223.501 243.4Z" fill="#598F22"/>
<path d="M206.5 253.6C212.5 250.9 218.8 248 223.5 243.5C222.2 246.8 218.8 248.5 215.8 249.9C212.9 251.2 209.6 252.9 206.5 253.6Z" fill="#333333"/>
<path d="M201 255.5C201 255.5 237.8 262.4 229.7 271.4C221.6 280.3 201 255.5 201 255.5Z" fill="#598F22" stroke="#333333" stroke-width="0.9815"/>
<path d="M201 255.5C201 255.5 213.5 265.4 218.5 264.8Z" fill="#598F22"/>
<path d="M201 255.4C206.4 259.1 212.2 263.1 218.4 264.8C215 265.4 211.7 263.3 209 261.5C206.3 259.7 203.2 257.7 201 255.4Z" fill="#333333"/>
<path d="M177.2 250.3C177.2 250.3 206.6 227.1 208 239.1C209.4 251.1 177.2 250.3 177.2 250.3Z" fill="#598F22" stroke="#333333" stroke-width="0.9815"/>
<path d="M177.2 250.3C177.2 250.3 192.9 247.4 195.7 243.2Z" fill="#598F22"/>
<path d="M177.2 250.2C183.5 248.6 190.3 246.8 195.7 243.2C193.9 246.2 190.2 247.2 187 248.2C183.9 249 180.3 250 177.2 250.2Z" fill="#333333"/>
<path d="M237.5 243.3C237.5 243.3 261.6 214.1 266.1 225.3C270.6 236.5 237.5 243.3 237.5 243.3Z" fill="#598F22" stroke="#333333"/>
<path d="M237.5 243.3C237.5 243.3 252.8 236.8 254.5 232.2Z" fill="#598F22"/>
<path d="M237.5 243.3C242.1 241.1 246.6 238.6 250.8 235.6C252.2 234.6 253.6 233.7 254.5 232.2H254.6C253.4 235.6 249.9 237.4 247 239.1C243.9 240.6 240.6 242.4 237.5 243.3Z" fill="#333333"/>
<path d="M98.9004 233L102.3 229.5C102.3 229.5 132.8 248.7 178.2 247.6C223.6 246.5 252.6 241.9 262 237.9C271.3 233.9 293.3 218.5 294.9 228.3C296.5 238.1 294.2 236.2 282.2 236.4C270.2 236.6 272.2 237.2 258.9 241C245.6 244.8 202.5 248.9 178 249.4C143.7 250.1 106.5 241.4 98.9004 233Z" fill="#598F22" stroke="#333333"/>
<path d="M259.3 240.3C259.3 240.3 283.4 229.8 289.5 232.3Z" fill="#598F22"/>
<path d="M259.2 240.2C264 237.9 268.8 235.9 273.8 234.1C278.6 232.5 284.4 230.1 289.4 232.1L289.3 232.2C286.7 231.8 284.2 232.6 281.7 233.2C279.2 233.9 276.6 234.4 274.1 235.2C269.1 236.7 264.1 238.4 259.2 240.3C259.3 240.4 259.2 240.2 259.2 240.2Z" fill="#333333"/>
<path d="M241.101 244.2C241.101 244.2 287.301 236.6 282.401 250.6C277.501 264.6 241.101 244.2 241.101 244.2Z" fill="#598F22" stroke="#333333" stroke-width="1.2364"/>
<path d="M241.101 244.2C241.101 244.2 260.601 250.6 266.001 247.7Z" fill="#598F22"/>
<path d="M241.101 244.2C247.201 245.9 253.501 247.2 259.801 247.8C261.901 248 264.001 248.3 266.001 247.7L266.101 247.8C262.301 250 257.501 248.9 253.401 248C249.201 247 245.101 245.8 241.101 244.4C241.101 244.3 241.101 244.2 241.101 244.2Z" fill="#333333"/>
<path d="M212.2 245.4C212.2 245.4 233.2 211.5 239 223C244.8 234.5 212.2 245.4 212.2 245.4Z" fill="#598F22" stroke="#333333" stroke-width="1.0457"/>
<path d="M212.2 245.4C212.2 245.4 226.9 236.8 228.1 231.6Z" fill="#598F22"/>
<path d="M212.2 245.4C216.7 242.5 220.9 239.3 224.8 235.6C226.1 234.4 227.3 233.2 228.1 231.6H228.2C228.1 232 228 232.5 227.8 232.9C226.5 235.8 223.8 237.9 221.3 239.7C218.4 241.9 215.4 243.8 212.2 245.4Z" fill="#333333"/>
<path d="M206.7 248.4C206.7 248.4 246.6 248.9 239.7 259.8C232.8 270.7 206.7 248.4 206.7 248.4Z" fill="#598F22" stroke="#333333" stroke-width="1.0457"/>
<path d="M206.7 248.4C206.7 248.4 221.6 256.5 226.7 254.9Z" fill="#598F22"/>
<path d="M206.7 248.3C211.5 250.6 216.4 252.6 221.5 254C223.2 254.5 224.9 254.9 226.6 254.8V254.9C226.2 255 225.7 255.2 225.3 255.3C222.1 255.7 219 254.5 216.1 253.2C213 251.8 209.4 250.3 206.7 248.3Z" fill="#333333"/>
<path d="M180.8 247.3C180.8 247.3 207.4 217.6 211.1 229.9C214.8 242.2 180.8 247.3 180.8 247.3Z" fill="#598F22" stroke="#333333" stroke-width="1.0457"/>
<path d="M180.8 247.3C180.8 247.3 196.7 241.4 198.9 236.5Z" fill="#598F22"/>
<path d="M180.7 247.2C185.6 245.1 190.4 242.7 194.8 239.8C196.3 238.8 197.7 237.9 198.8 236.5H198.9C198.7 236.9 198.6 237.4 198.3 237.7C196.5 240.3 193.5 241.9 190.7 243.3C187.5 244.7 184 246.5 180.7 247.2Z" fill="#333333"/>
<path fill-rule="evenodd" clip-rule="evenodd" d="M161.8 148H143.2C142.8 148 142.5 148.2 142.3 148.4L130.4 162.3C130 162.8 129.3 162.9 128.8 162.6L117.6 155.9C117.5 155.8 117.3 155.8 117.2 155.7L102.4 153.4C101.3 153.2 100.5 154.5 101.3 155.4L127.5 187.6C127.6 187.7 127.7 187.9 127.7 188L132.2 203.9C132.2 204 132.3 204.2 132.4 204.3L142.5 218.2C142.7 218.5 142.8 218.8 142.7 219.1L138.6 243.6C138.5 244 138.6 244.3 138.9 244.6L151.3 259.4C151.4 259.5 151.5 259.6 151.7 259.7L161.4 264.6C161.7 264.8 162.2 264.8 162.5 264.6L172.2 259.7C172.4 259.6 172.5 259.5 172.6 259.4L185 244.6C185.2 244.3 185.3 244 185.3 243.6L181.2 219.1C181.1 218.8 181.2 218.4 181.4 218.2L191.5 204.3C191.6 204.2 191.6 204.1 191.7 203.9L196.2 188C196.2 187.8 196.3 187.7 196.4 187.6L222.6 155.4C223.3 154.5 222.6 153.2 221.5 153.4L206.7 155.7C206.5 155.7 206.4 155.8 206.3 155.9L195.1 162.6C194.6 162.9 193.9 162.8 193.5 162.3L181.6 148.4C181.4 148.1 181 148 180.7 148H161.8Z" fill="#FEC955"/>
<path fill-rule="evenodd" clip-rule="evenodd" d="M139.7 146.2C140.6 145.2 141.9 144.6 143.2 144.6H180.3C181.7 144.6 182.9 145.2 183.8 146.2L194.5 158.7L204.2 152.9C204.7 152.6 205.3 152.4 205.9 152.3L220.7 150C224.9 149.4 227.7 154.2 225 157.5L199.1 189.3L194.7 204.8C194.6 205.3 194.3 205.8 194 206.3L184.5 219.5L188.5 243.1C188.7 244.4 188.4 245.8 187.5 246.8L175 261.6C174.6 262.1 174.1 262.5 173.5 262.8L163.8 267.7C162.5 268.4 161 268.4 159.7 267.7L150 262.8C149.4 262.5 148.9 262.1 148.5 261.6L136.1 246.8C135.2 245.8 134.9 244.4 135.1 243.1L139.1 219.5L129.6 206.3C129.3 205.9 129 205.4 128.9 204.8L124.5 189.3L98.6001 157.5C95.9001 154.2 98.7002 149.4 102.9 150L117.7 152.3C118.3 152.4 118.9 152.6 119.4 152.9L129.1 158.7L139.7 146.2ZM144.2 151.4L133 164.5C131.5 166.2 129 166.6 127.1 165.5L116.2 159L107.4 157.7L130.1 185.5C130.5 186 130.8 186.6 131 187.2L135.4 202.7L145.2 216.3C145.9 217.3 146.2 218.6 146 219.8L142 243.3L153.5 257L161.8 261.2L170.1 257L181.6 243.3L177.6 219.8C177.4 218.6 177.7 217.3 178.4 216.3L188.2 202.7L192.6 187.2C192.8 186.6 193.1 186 193.5 185.5L216.2 157.7L207.4 159L196.5 165.5C194.6 166.7 192.1 166.3 190.6 164.5L179.3 151.4H144.2Z" fill="#333333"/>
<path d="M145.6 177.7L147.7 178.4C148.7 178.7 149.6 179.5 150 180.5C151 183.2 148.7 185.9 145.9 185.3L143.7 184.8C142.3 184.5 141.3 183.5 140.9 182.1C140.2 179.4 142.8 176.8 145.6 177.7Z" fill="#353535" stroke="#353535" stroke-width="3.0837"/>
<path d="M178.9 184.7L181 184C182 183.7 182.9 182.9 183.3 181.9C184.3 179.2 182 176.5 179.2 177.1L177 177.6C175.6 177.9 174.6 178.9 174.2 180.3C173.4 183.1 176.1 185.6 178.9 184.7Z" fill="#353535" stroke="#353535" stroke-width="3.0837"/>
<path d="M177.7 193.7L191.3 192.2L188.2 203L178 216.8L171.2 207.5L177.7 193.7Z" fill="#FC7E24"/>
<path d="M143.2 235.9L145.7 221.4L150.9 222.6L152.4 231.2L145.6 237.1L143.2 235.9Z" fill="#FC7E24"/>
<path d="M162.3 151.4L164 159.5L152.4 168.3L139 162.6L138.5 158.1L143.8 151.3H162.3V151.4Z" fill="#FC7E24"/>
<path d="M195 111.5C195 111.5 209.8 116.4 211.9 119.4C214 122.3 218.6 130 218.8 132.4C219 134.7 227.2 138.5 228.6 139.2C230 139.9 230.9 144.7 230.9 144.7C230.9 144.7 210.1 144.3 205.5 143.7C200.8 143.1 192.5 136.7 192.5 136.7L186.7 126.2L195.1 119.5L195 111.5Z" fill="#D0213B" stroke="#333333" stroke-width="3" stroke-miterlimit="10"/>
<path d="M129.2 144.2C129.2 144.2 128 122.6 138.5 119.2C149 115.8 151.3 116.2 154.6 114.9C158 113.6 164.2 110.8 170.1 114.2C176 117.6 183.5 122.9 189.7 125C195.9 127.1 197.6 138.1 197.4 140C197.3 141.9 196.2 149.1 196.2 149.1L129.2 144.2Z" fill="#D0213B" stroke="#333333" stroke-width="3" stroke-miterlimit="10"/>
<path d="M122.9 150.6C122.9 150.6 122.8 157.9 125 160.3C127.2 162.7 126.1 166.2 128.5 166C130.9 165.9 139.6 156.2 145.6 155.9C151.5 155.6 153.3 155.6 161 155.9C168.7 156.2 176.4 154.4 178.8 154.4C181.2 154.4 186.9 160.2 188.8 162.4C190.7 164.6 193.9 166.3 196.3 164.1C198.7 161.8 199.8 153.8 199.8 153.8C199.8 153.8 192.8 142.8 187.4 142.5C182.1 142.2 178 137 168 137.5C158 138 141.2 137.8 137 141.3C132.8 144.8 129.7 143.4 127.5 144.5C125.8 145.4 124.7 148.5 122.9 150.6Z" fill="white" stroke="#333333" stroke-width="3" stroke-miterlimit="10"/>
<path d="M224.9 141.2L230.8 137.8L236.7 141.2V148L230.8 151.4L224.9 148V141.2Z" fill="white" stroke="#333333" stroke-width="3" stroke-miterlimit="10"/>
<path d="M199.7 253.5C202.462 253.5 204.7 251.261 204.7 248.5C204.7 245.739 202.462 243.5 199.7 243.5C196.939 243.5 194.7 245.739 194.7 248.5C194.7 251.261 196.939 253.5 199.7 253.5Z" fill="white" stroke="#333333" stroke-width="1.2296"/>
<path d="M213.2 261.7C215.962 261.7 218.2 259.461 218.2 256.7C218.2 253.939 215.962 251.7 213.2 251.7C210.439 251.7 208.2 253.939 208.2 256.7C208.2 259.461 210.439 261.7 213.2 261.7Z" fill="white" stroke="#333333" stroke-width="1.2296"/>
<path d="M219.4 251.6C222.162 251.6 224.4 249.362 224.4 246.6C224.4 243.839 222.162 241.6 219.4 241.6C216.639 241.6 214.4 243.839 214.4 246.6C214.4 249.362 216.639 251.6 219.4 251.6Z" fill="white" stroke="#333333" stroke-width="1.2296"/>
</g>
<defs>
<clipPath id="clip0_10311_4037">
<rect width="1500" height="350" fill="white"/>
</clipPath>
</defs>
</svg>
