<svg width="900" height="350" viewBox="0 0 900 350" fill="none" xmlns="http://www.w3.org/2000/svg">
<g clip-path="url(#clip0_10354_1227)">
<rect width="900" height="350" fill="#D1E3FA"/>
<path d="M1.9002 24.2H-4.0998L-1.39981 21.5L-2.69981 20.2V18.2999L-6.49981 18.2L-2.2998 14L-3.69981 12.6L-7.99981 16.9V13H-9.99981L-11.1998 11.7L-13.8998 14.2999V8.19995H-15.8998V14.5L-18.6998 11.7L-19.9998 13H-21.7998L-21.8998 16.7999L-26.1998 12.5L-27.5998 13.9L-23.1998 18.2999H-26.9998V20.1L-28.2998 21.4L-25.6998 24.0999H-31.7998V26.0999H-25.5998L-28.3998 28.9L-27.0998 30.2V32L-23.2998 32.0999L-27.5998 36.4L-26.1998 37.7999L-21.7998 33.4V37.2999H-19.9998L-18.5998 38.7L-15.7998 36V42H-13.7998V36L-11.0998 38.7L-9.7998 37.4H-7.89981L-7.7998 33.5999L-3.5998 37.7999L-2.19981 36.4L-6.49981 32.0999H-2.5998V30.2L-1.29981 28.9L-3.99981 26.0999H2.00019V24.2H1.9002ZM-2.89981 20.2L-6.89981 24.2H-12.4998L-8.49981 20.2H-2.89981ZM-9.89981 13.2999V18.7999L-13.8998 22.7999V17.2L-9.89981 13.2999ZM-19.7998 13.4L-15.8998 17.2999V22.7999L-19.8998 18.7999L-19.7998 13.4ZM-26.6998 20.2999H-21.1998L-17.2998 24.2H-22.9998L-26.6998 20.2999ZM-26.6998 30L-22.7998 26.0999H-17.2998L-21.2998 30.0999L-26.6998 30ZM-19.7998 37V31.4L-15.8998 27.5V33.2999L-19.7998 37ZM-9.89981 37.0999L-13.8998 33.0999V27.5L-9.89981 31.5V37.0999ZM-2.89981 30.0999H-8.49981L-12.4998 26.0999H-6.7998L-2.89981 30.0999Z" fill="white"/>
<path opacity="0.11" d="M299.8 216.6L294.5 219.4L295.7 215.7L293.9 215.1L293 213.5L289.6 215.2L291.4 209.5L289.5 208.9L287.7 214.7L285.9 211.3L284.2 212.2L282.5 211.6L281.3 215.2L278.5 209.8L276.8 210.7L279.7 216.2L276 215L275.4 216.8L273.8 217.6L275.5 221L269.7 219.2L269.1 221.1L275 223L271.5 224.8L272.4 226.4L271.8 228.1L275.4 229.3L270 232.1L270.9 233.8L276.4 230.9L275.2 234.6L277 235.2L277.8 236.8L281.2 235.1L279.4 240.9L281.3 241.5L283.2 235.6L285 239.1L286.5 238.3L288.4 238.9L289.6 235.2L292.4 240.5L294.1 239.6L291.3 234.3L295 235.5L295.6 233.7L297.3 232.9L295.6 229.5L301.3 231.3L301.9 229.4L296.1 227.6L299.5 225.8L298.6 224.1L299.2 222.3L295.5 221.1L300.8 218.3L299.8 216.6ZM293.7 215.3L292 220.6L287 223.2L288.7 217.7L293.7 215.3ZM284.3 212.4L286.8 217.3L285.1 222.6L282.5 217.6L284.3 212.4ZM275.6 217L280.9 218.7L283.4 223.6L278 221.9L275.6 217ZM272.7 226.3L277.6 223.7L282.8 225.3L277.8 227.9L272.7 226.3ZM277.2 235L278.9 229.7L283.8 227.2L282.1 232.6L277.2 235ZM286.5 238L283.9 233L285.6 227.7L288.3 232.8L286.5 238ZM295.3 233.5L290 231.8L287.4 226.8L292.9 228.5L295.3 233.5ZM298.3 224.1L293.3 226.7L287.9 225L293 222.4L298.3 224.1Z" fill="white"/>
<path d="M170.05 16.0926L168.283 17.8604L170.05 19.6281L171.818 17.8604L170.05 16.0926Z" fill="white"/>
<path d="M170.028 13.8505L169.108 14.7698L170.028 15.689L170.947 14.7698L170.028 13.8505Z" fill="white"/>
<path d="M170.018 34.7544L169.099 35.6736L170.018 36.5928L170.938 35.6736L170.018 34.7544Z" fill="white"/>
<path d="M170.021 30.8049L168.253 32.5726L170.021 34.3404L171.788 32.5726L170.021 30.8049Z" fill="white"/>
<path d="M162.661 23.4968L160.894 25.2645L162.661 27.0323L164.429 25.2645L162.661 23.4968Z" fill="white"/>
<path d="M159.572 24.3689L158.652 25.2881L159.572 26.2073L160.491 25.2881L159.572 24.3689Z" fill="white"/>
<path d="M180.546 24.3073L179.626 25.2266L180.546 26.1458L181.465 25.2266L180.546 24.3073Z" fill="white"/>
<path d="M177.374 23.527L175.606 25.2948L177.374 27.0625L179.142 25.2948L177.374 23.527Z" fill="white"/>
<path d="M175.6 29.8H177.6V28.4H174.2L173.4 27.6C173.6 27.3 173.7 27 173.9 26.7L175.3 25.3L173.9 23.9C173.8 23.6 173.6 23.3 173.4 23L174.1 22.3H177.5V20.9H175.5L176.8 19.6H180.2V18.2H177.1V15.1H175.7V18.7L174.4 20V17.8H173V21.3L172.4 21.9C172.1 21.7 171.7 21.5 171.4 21.3L170 19.9L168.6 21.3C168.2 21.4 167.8 21.6 167.5 21.9L166.9 21.3V17.9H165.5V19.9L164.2 18.6V15.2H162.8V18.3H159.7V19.7H163.3L164.6 21H162.4V22.4H165.9L166.4 22.9C166.2 23.2 166 23.6 165.8 24L164.5 25.3L165.7 26.5C165.9 27 166.1 27.5 166.5 28L165.9 28.6L162.4 28.5V29.9H164.6L163.3 31.2L159.7 31.1V32.5H162.8V35.6H164.2V32.2L165.5 30.9V32.9H166.9V29.5L167.6 28.8C167.9 29 168.2 29.1 168.6 29.2L169.9 30.5L171.2 29.2C171.6 29 172 28.8 172.4 28.5L173.1 29.2L173 32.7H174.4V30.5L175.7 31.8L175.6 35.4H177V32.3H180.1V30.9H176.7L175.6 29.8ZM172.7 24.4L171.8 25.3L170.1 23.6L171 22.7C171.8 23 172.4 23.7 172.7 24.4ZM168.3 25.4L170 27.1L169.1 28C168.3 27.7 167.7 27.1 167.4 26.3L168.3 25.4ZM169.1 22.7L170 23.6L168.3 25.3L167.3 24.3C167.7 23.6 168.3 23 169.1 22.7ZM171 28L170.1 27.1L171.8 25.4L172.6 26.2C172.4 27.1 171.8 27.7 171 28Z" fill="white"/>
<path d="M465.893 34.359L464.762 35.4904L465.893 36.6217L467.024 35.4903L465.893 34.359Z" fill="white"/>
<path d="M465.934 32.8662L465.298 33.5026L465.934 34.139L466.571 33.5025L465.934 32.8662Z" fill="white"/>
<path d="M465.971 46.2508L465.334 46.8872L465.971 47.5236L466.607 46.8872L465.971 46.2508Z" fill="white"/>
<path d="M465.887 43.7616L464.755 44.8929L465.887 46.0243L467.018 44.8929L465.887 43.7616Z" fill="white"/>
<path d="M461.177 39.0516L460.045 40.183L461.177 41.3143L462.308 40.183L461.177 39.0516Z" fill="white"/>
<path d="M459.261 39.5783L458.625 40.2147L459.261 40.8511L459.898 40.2147L459.261 39.5783Z" fill="white"/>
<path d="M472.574 39.6108L471.938 40.2472L472.574 40.8836L473.211 40.2472L472.574 39.6108Z" fill="white"/>
<path d="M470.58 39.0588L469.449 40.1902L470.58 41.3215L471.711 40.1902L470.58 39.0588Z" fill="white"/>
<path d="M469.4 43.1001H470.7V42.2001H468.5L468 41.7001C468.1 41.5001 468.2 41.3001 468.3 41.1001L469.2 40.2001L468.3 39.3001C468.2 39.1001 468.1 38.9001 468 38.7001L468.4 38.3001H470.6V37.4001H469.3L470.1 36.6001H472.3V35.7001H470.3V33.7001H469.4V36.0001L468.6 36.8001V35.4001H467.7V37.7001L467.3 38.1001C467.1 38.0001 466.9 37.8001 466.6 37.7001L465.7 36.8001L464.8 37.7001C464.5 37.8001 464.3 37.9001 464.1 38.1001L463.7 37.7001V35.5001H462.8V36.8001L462 36.0001V33.8001H461.1V35.8001H459.1V36.7001H461.4L462.2 37.5001H460.8V38.4001H463.1L463.4 38.7001C463.3 38.9001 463.1 39.1001 463 39.4001L462.2 40.2001L463 41.0001C463.1 41.3001 463.3 41.7001 463.5 41.9001L463.1 42.3001H460.8V43.2001H462.2L461.4 44.0001H459.1V44.9001H461.1V46.9001H462V44.7001L462.8 43.9001V45.2001H463.7V43.0001L464.1 42.6001C464.3 42.7001 464.5 42.8001 464.7 42.9001L465.5 43.7001L466.3 42.9001C466.6 42.8001 466.8 42.7001 467.1 42.5001L467.5 42.9001V45.2001H468.4V43.8001L469.2 44.6001V46.9001H470.1V44.9001H472.1V44.0001H469.9L469.4 43.1001ZM467.5 39.7001L466.9 40.3001L465.8 39.2001L466.4 38.6001C467 38.8001 467.4 39.2001 467.5 39.7001ZM464.7 40.3001L465.8 41.4001L465.2 42.0001C464.7 41.8001 464.3 41.4001 464.1 40.9001L464.7 40.3001ZM465.3 38.6001L465.9 39.2001L464.8 40.3001L464.2 39.7001C464.4 39.2001 464.8 38.8001 465.3 38.6001ZM466.5 42.0001L465.9 41.4001L467 40.3001L467.5 40.8001C467.4 41.4001 467 41.8001 466.5 42.0001Z" fill="white"/>
<path d="M15.6174 108.328L13.8496 110.096L15.6174 111.864L17.3851 110.096L15.6174 108.328Z" fill="white"/>
<path d="M15.6653 106.157L14.7461 107.076L15.6653 107.995L16.5846 107.076L15.6653 106.157Z" fill="white"/>
<path d="M15.6556 127.061L14.7363 127.98L15.6556 128.899L16.5748 127.98L15.6556 127.061Z" fill="white"/>
<path d="M15.6579 123.111L13.8901 124.879L15.6579 126.647L17.4256 124.879L15.6579 123.111Z" fill="white"/>
<path d="M8.2282 115.732L6.46045 117.5L8.2282 119.268L9.99595 117.5L8.2282 115.732Z" fill="white"/>
<path d="M5.20829 116.534L4.28906 117.453L5.20829 118.372L6.12753 117.453L5.20829 116.534Z" fill="white"/>
<path d="M26.1121 116.543L25.1929 117.462L26.1121 118.382L27.0313 117.462L26.1121 116.543Z" fill="white"/>
<path d="M23.0114 115.692L21.2437 117.46L23.0114 119.228L24.7792 117.46L23.0114 115.692Z" fill="white"/>
<path d="M21.2999 122.1H23.2999V120.7H19.8999L19.0999 119.9C19.2999 119.6 19.3999 119.3 19.5999 119L20.9999 117.6L19.5999 116.2C19.4999 115.9 19.2999 115.6 19.0999 115.3L19.7999 114.6H23.1999V113.2H21.1999L22.4999 111.9H25.8999V110.5H22.7999V107.4H21.3999V111L20.0999 112.3V110.1H18.6999V113.6L18.0999 114.2C17.7999 114 17.3999 113.8 17.0999 113.6L15.6999 112.2L14.2999 113.6C13.8999 113.7 13.4999 113.9 13.1999 114.2L12.5999 113.6V110.2H11.1999V112.2L9.8999 110.9V107.5H8.4999V110.6H5.3999V112H8.9999L10.2999 113.3H8.0999V114.7H11.5999L12.0999 115.2C11.8999 115.5 11.6999 115.9 11.4999 116.3L10.1999 117.6L11.3999 118.8C11.5999 119.3 11.7999 119.8 12.1999 120.3L11.5999 120.9L8.0999 120.8V122.2H10.2999L8.9999 123.5L5.3999 123.4V124.8H8.4999V127.9H9.8999V124.5L11.1999 123.2V125.2H12.5999V121.8L13.2999 121.1C13.5999 121.3 13.8999 121.4 14.2999 121.5L15.5999 122.8L16.8999 121.5C17.2999 121.3 17.6999 121.1 18.0999 120.8L18.7999 121.5L18.6999 125H20.0999V122.8L21.3999 124.1L21.2999 127.7H22.6999V124.6H25.9999V123.2H22.5999L21.2999 122.1ZM18.2999 116.7L17.3999 117.6L15.6999 115.9L16.5999 115C17.3999 115.3 17.9999 115.9 18.2999 116.7ZM13.8999 117.7L15.5999 119.4L14.6999 120.3C13.8999 120 13.2999 119.4 12.9999 118.6L13.8999 117.7ZM14.7999 115L15.6999 115.9L13.9999 117.6L12.9999 116.6C13.2999 115.9 13.9999 115.2 14.7999 115ZM16.6999 120.3L15.7999 119.4L17.4999 117.7L18.2999 118.5C17.9999 119.3 17.3999 120 16.6999 120.3Z" fill="white"/>
<g opacity="0.6">
<path d="M65.3592 25.8912L64.4399 26.8104L65.3592 27.7297L66.2784 26.8104L65.3592 25.8912Z" fill="white"/>
<path d="M65.3128 24.7346L64.8179 25.2296L65.3128 25.7246L65.8078 25.2296L65.3128 24.7346Z" fill="white"/>
<path d="M65.3402 35.2233L64.8452 35.7183L65.3402 36.2132L65.8352 35.7183L65.3402 35.2233Z" fill="white"/>
<path d="M65.3772 33.2838L64.458 34.203L65.3772 35.1222L66.2965 34.203L65.3772 33.2838Z" fill="white"/>
<path d="M61.6629 29.5926L60.7437 30.5118L61.6629 31.4311L62.5821 30.5118L61.6629 29.5926Z" fill="white"/>
<path d="M60.0824 30.0636L59.5874 30.5586L60.0824 31.0536L60.5773 30.5586L60.0824 30.0636Z" fill="white"/>
<path d="M70.5707 30.0362L70.0757 30.5311L70.5707 31.0261L71.0656 30.5311L70.5707 30.0362Z" fill="white"/>
<path d="M69.0555 29.5748L68.1362 30.494L69.0555 31.4132L69.9747 30.494L69.0555 29.5748Z" fill="white"/>
<path d="M68.1 32.8H69.1V32.1H67.4L67 31.7C67.1 31.6 67.2 31.4 67.2 31.2L67.9 30.5L67.2 29.8C67.1 29.6 67.1 29.5 67 29.4L67.3 29.1H69V28.4H68L68.6 27.8H70.3V27.1H68.8V25.5H68.1V27.3L67.4 27.9V26.8H66.7V28.6L66.4 28.9C66.2 28.8 66.1 28.7 65.9 28.6L65.2 27.9L64.5 28.6C64.3 28.7 64.1 28.8 63.9 28.9L63.6 28.6V26.9H62.9V27.9L62.3 27.3V25.6H61.6V27.1H60V27.8H61.8L62.4 28.5H61.3V29.2H63.1L63.4 29.5C63.3 29.7 63.2 29.8 63.1 30L62.5 30.6L63.1 31.2C63.2 31.5 63.3 31.7 63.5 31.9L63.2 32.2H61.4V32.9H62.5L61.9 33.6H60.1V34.3H61.7V35.8H62.4V34.1L63 33.5V34.5H63.7V32.8L64 32.5C64.2 32.6 64.3 32.7 64.5 32.7L65.1 33.3L65.8 32.6C66 32.5 66.2 32.4 66.4 32.3L66.7 32.6V34.4H67.4V33.3L68.1 33.9V35.7H68.8V34.1H70.3V33.4H68.6L68.1 32.8ZM66.6 30.1L66.2 30.5L65.4 29.7L65.9 29.2C66.2 29.4 66.5 29.7 66.6 30.1ZM64.4 30.6L65.2 31.4L64.8 31.8C64.4 31.7 64.1 31.3 63.9 31L64.4 30.6ZM64.8 29.3L65.3 29.8L64.5 30.6L64 30.1C64.1 29.7 64.4 29.4 64.8 29.3ZM65.8 31.9L65.4 31.5L66.2 30.7L66.6 31.1C66.5 31.4 66.2 31.7 65.8 31.9Z" fill="white"/>
</g>
<g opacity="0.6">
<path d="M478.878 151.88L477.181 153.577L478.878 155.274L480.575 153.577L478.878 151.88Z" fill="white"/>
<path d="M478.871 149.831L477.952 150.75L478.871 151.67L479.791 150.75L478.871 149.831Z" fill="white"/>
<path d="M478.866 169.533L477.947 170.452L478.866 171.371L479.786 170.452L478.866 169.533Z" fill="white"/>
<path d="M478.884 165.777L477.187 167.474L478.884 169.171L480.581 167.474L478.884 165.777Z" fill="white"/>
<path d="M471.915 158.895L470.218 160.592L471.915 162.289L473.612 160.592L471.915 158.895Z" fill="white"/>
<path d="M469.019 159.611L468.1 160.53L469.019 161.449L469.938 160.53L469.019 159.611Z" fill="white"/>
<path d="M488.72 159.614L487.8 160.533L488.72 161.452L489.639 160.533L488.72 159.614Z" fill="white"/>
<path d="M485.813 158.889L484.116 160.586L485.813 162.283L487.51 160.586L485.813 158.889Z" fill="white"/>
<path d="M484.1 164.9H486V163.6H482.8L482.1 162.9C482.3 162.6 482.4 162.3 482.5 162L483.8 160.7L482.4 159.3C482.3 159 482.1 158.7 482 158.5L482.6 157.9H485.8V156.6H483.9L485.1 155.4H488.3V154.1H485.4V151.2H484.1V154.6L482.9 155.8V153.7H481.6V157L481 157.6C480.7 157.4 480.4 157.2 480 157.1L478.7 155.8L477.4 157.1C477 157.2 476.6 157.4 476.3 157.7L475.8 157.2V154H474.5V155.9L473.3 154.7V151.5H472V154.4H469.1V155.7H472.5L473.7 156.9H471.6V158.2H474.9L475.4 158.7C475.2 159 475 159.4 474.9 159.7L473.7 160.9L474.9 162.1C475.1 162.6 475.3 163.1 475.6 163.5L475.1 164.1L471.8 164V165.3H473.9L472.7 166.5L469.3 166.4V167.7H472.2V170.6H473.5V167.4L474.7 166.2V168.1H476V164.9L476.7 164.2C477 164.4 477.3 164.5 477.6 164.6L478.8 165.8L480 164.6C480.4 164.5 480.8 164.2 481.1 164L481.8 164.6L481.7 167.9H483V165.8L484.2 167L484.1 170.4H485.4V167.5H488.3V166.2H485.1L484.1 164.9ZM481.3 159.8L480.5 160.6L478.9 159L479.8 158.1C480.5 158.5 481 159.1 481.3 159.8ZM477.2 160.8L478.8 162.4L478 163.2C477.3 162.9 476.7 162.3 476.4 161.6L477.2 160.8ZM478 158.2L478.9 159.1L477.3 160.7L476.4 159.8C476.6 159 477.2 158.4 478 158.2ZM479.8 163.2L479 162.4L480.6 160.8L481.4 161.6C481.1 162.3 480.5 162.9 479.8 163.2Z" fill="white"/>
</g>
<g opacity="0.6">
<path d="M725.681 224.194L723.984 225.891L725.681 227.589L727.378 225.891L725.681 224.194Z" fill="white"/>
<path d="M725.745 222.075L724.826 222.994L725.745 223.913L726.665 222.994L725.745 222.075Z" fill="white"/>
<path d="M725.741 241.777L724.822 242.696L725.741 243.615L726.66 242.696L725.741 241.777Z" fill="white"/>
<path d="M725.688 238.092L723.991 239.789L725.688 241.486L727.385 239.789L725.688 238.092Z" fill="white"/>
<path d="M718.719 231.209L717.021 232.906L718.719 234.603L720.416 232.906L718.719 231.209Z" fill="white"/>
<path d="M715.823 231.926L714.904 232.845L715.823 233.764L716.742 232.845L715.823 231.926Z" fill="white"/>
<path d="M735.523 231.928L734.604 232.847L735.523 233.766L736.443 232.847L735.523 231.928Z" fill="white"/>
<path d="M732.616 231.204L730.919 232.901L732.616 234.598L734.313 232.901L732.616 231.204Z" fill="white"/>
<path d="M730.9 237.2H732.8V235.9H729.6L728.9 235.2C729.1 234.9 729.2 234.6 729.3 234.3L730.6 233L729.2 231.6C729.1 231.3 728.9 231 728.8 230.8L729.4 230.2H732.6V228.9H730.7L731.9 227.7H735.1V226.4H732.2V223.5H730.9V226.9L729.7 228.1V226H728.4V229.3L727.8 229.9C727.5 229.7 727.2 229.5 726.8 229.4L725.5 228.1L724.2 229.4C723.8 229.5 723.4 229.7 723.1 230L722.6 229.5V226.3H721.3V228.2L720.1 227V223.8H718.8V226.7H715.9V228H719.3L720.5 229.2H718.4V230.5H721.7L722.2 231C722 231.3 721.8 231.7 721.7 232L720.5 233.2L721.7 234.4C721.9 234.9 722.1 235.4 722.4 235.8L721.9 236.4L718.6 236.3V237.6H720.7L719.5 238.8L716.1 238.7V240H719V242.9H720.3V239.5L721.5 238.3V240.2H722.8V237L723.5 236.3C723.8 236.5 724.1 236.6 724.4 236.7L725.6 237.9L726.8 236.7C727.2 236.6 727.6 236.3 727.9 236.1L728.6 236.7L728.5 240H729.8V237.9L731 239.1L730.9 242.5H732.2V239.6H735.1V238.3H731.9L730.9 237.2ZM728.1 232.1L727.3 232.9L725.7 231.3L726.6 230.4C727.3 230.8 727.9 231.4 728.1 232.1ZM724 233.1L725.6 234.7L724.8 235.5C724.1 235.2 723.5 234.6 723.2 233.9L724 233.1ZM724.8 230.5L725.7 231.4L724.1 233L723.2 232.1C723.4 231.3 724 230.7 724.8 230.5ZM726.6 235.5L725.8 234.7L727.4 233.1L728.2 233.9C727.9 234.6 727.3 235.2 726.6 235.5Z" fill="white"/>
</g>
<path d="M268.3 98L262.2 100.4L263.8 96.6L261.8 95.8L259.3 101.6L258.9 101.8C258.2 100.6 257.2 99.7 256 99L256.4 98L259.3 97.2L258.7 95.2L256.2 95.9L255.5 93.4L253.5 94L254.4 97.3L254 98.2C252.6 97.8 251.1 97.8 249.6 98.2L249.3 97.4L251.8 91.8L249.9 90.9L248.2 94.7L246 88.5L244 89.3L246.5 95.5L242.6 93.8L241.8 95.8L247.6 98.3L247.9 99C246.7 99.7 245.7 100.7 245.1 101.9L243.9 101.4L243.1 98.5L241.1 99.1L241.8 101.6L239.3 102.3L239.9 104.3L243.2 103.4L244.4 103.9C244.1 105.1 244 106.5 244.3 107.8L243.5 108.1L237.9 105.6L237 107.5L240.8 109.2L234.7 111.6L235.5 113.6L241.7 111.1L240 115L242 115.8L244.5 110L245.1 109.7C245.8 111 246.8 112.1 248 112.8L247.4 114.1L244.5 114.9L245.1 116.9L247.6 116.2L248.3 118.7L250.3 118.1L249.3 114.8L249.8 113.7C251.1 114.1 252.5 114.2 253.9 113.8L254.1 114.3L251.6 120L253.5 120.9L255.2 117.1L257.6 123.1L259.6 122.3L257.2 116.2L261 117.8L261.8 115.8L256 113.3L255.9 113C257.2 112.3 258.3 111.3 259 110.1L260.1 110.6L260.9 113.5L262.9 112.9L262.2 110.4L264.7 109.7L264.1 107.7L260.8 108.7L259.9 108.3C260.3 106.8 260.4 105.2 259.9 103.7L260.3 103.5L266 106L266.9 104.1L263.1 102.4L269.1 100L268.3 98ZM257 102.6L254.1 103.8L255.3 101C256 101.3 256.6 101.9 257 102.6ZM253.4 100.1L252 103.4L250.7 100.2C251.6 99.9 252.5 99.9 253.4 100.1ZM248.7 101L249.9 104L247 102.8C247.5 102.1 248 101.5 248.7 101ZM246.3 104.7L248.9 105.8L246.2 106.9C246.1 106.2 246.1 105.4 246.3 104.7ZM246.9 108.9L250.1 107.6L248.7 110.8C248 110.4 247.4 109.7 246.9 108.9ZM250.6 111.7L251.9 108.8L253.1 111.8C252.3 112 251.4 111.9 250.6 111.7ZM255.1 111.1L253.8 108L257 109.4C256.5 110.1 255.9 110.7 255.1 111.1ZM257.9 107.4L254.4 105.9L257.9 104.5C258.2 105.5 258.1 106.5 257.9 107.4Z" fill="white"/>
<path d="M840.3 70.2999L835.7 69.4999L838.2 67.7999L837.3 66.4999L833.6 69.0999L833.3 68.9999C833.3 67.9999 833.1 67.0999 832.6 66.1999L833.3 65.6999L835.4 66.2999L835.8 64.7999L834 64.2999L834.5 62.4999L833 62.0999L832.3 64.3999L831.7 64.7999C831 63.9999 830.1 63.3999 829 63.0999L829.1 62.4999L832.8 59.9999L832 58.6999L829.5 60.2999L830.3 55.6999L828.8 55.3999L828 60.4999L826.3 57.9999L825 58.8999L827.6 62.5999L827.5 63.0999C826.5 63.0999 825.5 63.2999 824.7 63.7999L824.2 62.9999L824.8 60.8999L823.3 60.4999L822.8 62.2999L821 61.7999L820.6 63.2999L822.9 63.9999L823.4 64.6999C822.7 65.2999 822.2 66.0999 821.9 66.9999L821.3 66.8999L818.8 63.1999L817.5 63.9999L819.1 66.4999L814.5 65.6999L814.2 67.1999L818.9 68.0999L816.4 69.7999L817.3 71.0999L821 68.4999L821.5 68.5999C821.4 69.6999 821.6 70.6999 822.1 71.5999L821.3 72.1999L819.2 71.5999L818.8 73.0999L820.6 73.5999L820.1 75.3999L821.6 75.7999L822.3 73.3999L823 72.8999C823.6 73.5999 824.5 74.1999 825.4 74.5999L825.3 74.9999L821.6 77.4999L822.4 78.7999L824.9 77.0999L824.1 81.6999L825.6 81.9999L826.4 77.3999L828.1 79.8999L829.4 78.9999L826.8 75.2999V74.9999C827.9 75.0999 828.9 74.8999 829.8 74.3999L830.3 75.0999L829.7 77.1999L831.2 77.5999L831.7 75.7999L833.5 76.2999L833.9 74.7999L831.5 74.0999L831.1 73.4999C831.9 72.7999 832.6 71.7999 832.9 70.6999L833.2 70.7999L835.7 74.4999L837 73.6999L835.3 71.1999L839.9 71.9999L840.3 70.2999ZM831.7 68.7999L829.5 68.3999L831.3 67.1999C831.6 67.5999 831.7 68.1999 831.7 68.7999ZM830.5 65.8999L828.4 67.2999L828.8 64.7999C829.4 65.0999 830 65.3999 830.5 65.8999ZM827.3 64.5999L826.9 66.8999L825.6 64.9999C826.1 64.7999 826.7 64.6999 827.3 64.5999ZM824.4 65.8999L825.6 67.5999L823.6 67.1999C823.7 66.7999 824 66.2999 824.4 65.8999ZM823.2 68.7999L825.6 69.1999L823.5 70.5999C823.2 69.9999 823.1 69.3999 823.2 68.7999ZM824.3 71.8999L826.2 70.5999L825.8 72.8999C825.2 72.6999 824.7 72.2999 824.3 71.8999ZM827.3 73.1999L827.7 70.7999L829.1 72.8999C828.5 73.0999 827.9 73.2999 827.3 73.1999ZM830.4 72.0999L828.8 69.7999L831.5 70.2999C831.3 70.9999 830.9 71.5999 830.4 72.0999Z" fill="white"/>
<path opacity="0.26" d="M352.6 33.5H347.5L349.8 31.2L348.6 30L345.1 33.5H344.8C344.6 32.4 344.2 31.4 343.5 30.6L344.1 30L346.4 30.3L346.6 28.6L344.6 28.4L344.8 26.4L343.1 26.2L342.8 28.9L342.2 29.5C341.3 28.8 340.2 28.4 339 28.2V27.5L342.5 24.1L341.3 22.9L339 25.2V20H337.3V25.3L335 23L333.8 24.2L337.3 27.7V28.3C336.2 28.5 335.2 28.9 334.4 29.6L333.7 28.9L334 26.6L332.3 26.4L332.1 28.4L330.1 28.2L329.9 29.9L332.6 30.2L333.3 30.9C332.7 31.7 332.3 32.7 332.1 33.7H331.4L328 30.2L326.8 31.4L329.1 33.7H324V35.4H329.3L327 37.5L328.2 38.7L331.7 35.2H332.2C332.3 36.4 332.8 37.4 333.4 38.3L332.6 39.1L330.3 38.8L330.1 40.5L332.1 40.7L331.9 42.7L333.6 42.9L333.9 40.2L334.6 39.5C335.4 40.2 336.5 40.6 337.6 40.8V41.2L334.1 44.6L335.3 45.8L337.7 43.5V48.6H339.4V43.5L341.7 45.8L342.9 44.6L339.4 41.1V40.8C340.6 40.7 341.6 40.3 342.5 39.6L343.2 40.3L342.9 42.6L344.6 42.8L344.8 40.8L346.8 41L347 39.3L344.3 39L343.7 38.4C344.5 37.5 345 36.3 345.1 35.1H345.5L348.9 38.6L350.1 37.4L347.8 35H352.9V33.5H352.6ZM343.1 33.5H340.6L342.3 31.8C342.7 32.3 343 32.9 343.1 33.5ZM341.2 30.6L339.2 32.6V29.9C339.9 29.9 340.6 30.2 341.2 30.6ZM337.5 29.9V32.4L335.8 30.6C336.3 30.3 336.9 30 337.5 29.9ZM334.6 31.9L336.2 33.5H333.9C334.1 32.9 334.3 32.4 334.6 31.9ZM333.9 35.1H336.6L334.6 37.1C334.2 36.5 334 35.9 333.9 35.1ZM335.8 38.3L337.6 36.6V39.1C336.9 39 336.3 38.7 335.8 38.3ZM339.2 39.2V36.5L341.1 38.4C340.5 38.8 339.9 39.1 339.2 39.2ZM342.3 37.3L340.2 35.1H343.2C343.1 35.9 342.8 36.7 342.3 37.3Z" fill="white"/>
<path opacity="0.26" d="M609.9 78.2L605.9 81.4L606.2 78.1L604.5 77.9L604 82.8L603.8 83C603 82.3 602 81.8 601 81.6L601.1 80.7L603.1 79.4L602.2 78L600.5 79.1L599.4 77.4L598 78.5L599.5 80.7L599.4 81.5C598.3 81.5 597.1 81.9 596.1 82.5L595.7 82L596.3 77.2L594.6 77L594.2 80.2L590.9 76.2L589.6 77.3L592.9 81.4L589.6 81.1L589.4 82.8L594.4 83.3L594.8 83.7C594.1 84.5 593.6 85.5 593.3 86.5L592.3 86.4L591 84.4L589.6 85.3L590.7 87L589 88.1L589.9 89.5L592.1 88L593.1 88.1C593.1 89.1 593.4 90.1 593.9 91L593.3 91.5L588.5 90.9L588.3 92.6L591.5 93L587.5 96.3L588.6 97.6L592.7 94.3L592.4 97.6L594.1 97.8L594.6 92.8L595 92.5C595.8 93.3 596.8 93.9 597.9 94.2L597.8 95.3L595.8 96.6L596.7 98L598.4 96.9L599.5 98.6L600.9 97.7L599.4 95.5L599.5 94.5C600.6 94.5 601.6 94.2 602.6 93.6L602.9 93.9L602.3 98.8L604 99L604.4 95.7L607.6 99.6L608.9 98.5L605.7 94.5L609 94.8L609.2 93.1L604.3 92.6L604.1 92.4C604.9 91.6 605.5 90.6 605.7 89.5L606.6 89.6L607.9 91.6L609.3 90.7L608.2 89L609.9 87.9L609 86.5L606.8 88L606 87.9C606 86.7 605.6 85.5 604.9 84.4L605.2 84.2L610.1 84.8L610.3 83.1L607 82.7L610.9 79.5L609.9 78.2ZM602.5 84.2L600.6 85.8L600.9 83.4C601.5 83.6 602 83.8 602.5 84.2ZM599.2 83.3L598.9 86.1L597.2 84C597.8 83.5 598.5 83.3 599.2 83.3ZM595.9 85L597.5 87L595 86.7C595.2 86.1 595.5 85.5 595.9 85ZM594.9 88.4L597.1 88.6L595.3 90C595.1 89.5 595 89 594.9 88.4ZM596.4 91.4L598.5 89.7L598.2 92.5C597.6 92.2 596.9 91.9 596.4 91.4ZM599.9 92.6L600.2 90.1L601.8 92.1C601.1 92.4 600.5 92.6 599.9 92.6ZM603.1 91.1L601.4 89L604.1 89.3C603.9 90 603.5 90.6 603.1 91.1ZM604.3 87.7L601.3 87.4L603.6 85.5C604 86.2 604.3 86.9 604.3 87.7Z" fill="white"/>
<path d="M258.1 29.2C259.536 29.2 260.7 28.0359 260.7 26.6C260.7 25.1641 259.536 24 258.1 24C256.664 24 255.5 25.1641 255.5 26.6C255.5 28.0359 256.664 29.2 258.1 29.2Z" fill="white"/>
<path d="M329.8 94.2C330.684 94.2 331.4 93.4837 331.4 92.6C331.4 91.7163 330.684 91 329.8 91C328.917 91 328.2 91.7163 328.2 92.6C328.2 93.4837 328.917 94.2 329.8 94.2Z" fill="white"/>
<path d="M366 151.1C367.105 151.1 368 150.205 368 149.1C368 147.996 367.105 147.1 366 147.1C364.895 147.1 364 147.996 364 149.1C364 150.205 364.895 151.1 366 151.1Z" fill="white"/>
<path d="M622.7 44.4C623.584 44.4 624.3 43.6836 624.3 42.7999C624.3 41.9163 623.584 41.2 622.7 41.2C621.816 41.2 621.1 41.9163 621.1 42.7999C621.1 43.6836 621.816 44.4 622.7 44.4Z" fill="white"/>
<path d="M491.9 3.2C492.783 3.2 493.5 2.48366 493.5 1.6C493.5 0.716345 492.783 0 491.9 0C491.016 0 490.3 0.716345 490.3 1.6C490.3 2.48366 491.016 3.2 491.9 3.2Z" fill="white"/>
<path d="M778.3 3.2C779.184 3.2 779.9 2.48366 779.9 1.6C779.9 0.716345 779.184 0 778.3 0C777.417 0 776.7 0.716345 776.7 1.6C776.7 2.48366 777.417 3.2 778.3 3.2Z" fill="white"/>
<path d="M740.6 57.2C741.484 57.2 742.2 56.4837 742.2 55.6C742.2 54.7163 741.484 54 740.6 54C739.716 54 739 54.7163 739 55.6C739 56.4837 739.716 57.2 740.6 57.2Z" fill="white"/>
<path d="M533.6 91.0999C534.484 91.0999 535.2 90.3836 535.2 89.4999C535.2 88.6162 534.484 87.8999 533.6 87.8999C532.716 87.8999 532 88.6162 532 89.4999C532 90.3836 532.716 91.0999 533.6 91.0999Z" fill="white"/>
<path d="M583.7 145.7C584.473 145.7 585.1 145.073 585.1 144.3C585.1 143.527 584.473 142.9 583.7 142.9C582.927 142.9 582.3 143.527 582.3 144.3C582.3 145.073 582.927 145.7 583.7 145.7Z" fill="white"/>
<path d="M831.6 157.8C832.373 157.8 833 157.173 833 156.4C833 155.627 832.373 155 831.6 155C830.827 155 830.2 155.627 830.2 156.4C830.2 157.173 830.827 157.8 831.6 157.8Z" fill="white"/>
</g>
<defs>
<clipPath id="clip0_10354_1227">
<rect width="900" height="350" fill="white"/>
</clipPath>
</defs>
</svg>
