<svg width="900" height="210" viewBox="0 0 900 210" fill="none" xmlns="http://www.w3.org/2000/svg">
<g clip-path="url(#clip0_10311_11613)">
<path d="M900 0H0V210H900V0Z" fill="#243D51"/>
<path d="M900 0H0V210H900V0Z" fill="#D1E3FA"/>
<path d="M40.74 20.82H37.14L38.76 19.2L37.98 18.42V17.28L35.7 17.22L38.22 14.7L37.38 13.86L34.8 16.44V14.1H33.6L32.88 13.32L31.26 14.88V11.22H30.06V15L28.38 13.32L27.6 14.1H26.52L26.46 16.38L23.88 13.8L23.04 14.64L25.68 17.28H23.4V18.36L22.62 19.14L24.18 20.76H20.52V21.96H24.24L22.56 23.64L23.34 24.42V25.5L25.62 25.56L23.04 28.14L23.88 28.98L26.52 26.34V28.68H27.6L28.44 29.52L30.12 27.9V31.5H31.32V27.9L32.94 29.52L33.72 28.74H34.86L34.92 26.46L37.44 28.98L38.28 28.14L35.7 25.56H38.04V24.42L38.82 23.64L37.2 21.96H40.8V20.82H40.74ZM37.86 18.42L35.46 20.82H32.1L34.5 18.42H37.86ZM33.66 14.28V17.58L31.26 19.98V16.62L33.66 14.28ZM27.72 14.34L30.06 16.68V19.98L27.66 17.58L27.72 14.34ZM23.58 18.48H26.88L29.22 20.82H25.8L23.58 18.48ZM23.58 24.3L25.92 21.96H29.22L26.82 24.36L23.58 24.3ZM27.72 28.5V25.14L30.06 22.8V26.28L27.72 28.5ZM33.66 28.56L31.26 26.16V22.8L33.66 25.2V28.56ZM37.86 24.36H34.5L32.1 21.96H35.52L37.86 24.36Z" fill="white"/>
<path d="M860.76 35.8799H857.16L858.78 34.2599L858 33.4799V32.3399L855.72 32.2799L858.24 29.7599L857.4 28.9199L854.82 31.4999V29.1599H853.62L852.9 28.3799L851.28 29.9399V26.3999H850.08V30.1199L848.4 28.4399L847.62 29.2199H846.54L846.48 31.4999L843.9 28.9199L843.06 29.7599L845.7 32.3999H843.36V33.4799L842.58 34.2599L844.14 35.8799H840.48V37.0799H844.2L842.52 38.7599L843.3 39.5399V40.6199L845.58 40.6799L843 43.2599L843.84 44.0999L846.48 41.4599V43.7999H847.5L848.34 44.6399L850.02 43.0199V46.6199H851.22V43.0199L852.84 44.6399L853.62 43.8599H854.76L854.82 41.5799L857.34 44.0999L858.18 43.2599L855.6 40.6799H857.94V39.5399L858.72 38.7599L857.1 37.0799H860.7V35.8799H860.76ZM857.88 33.5399L855.48 35.9399H852.12L854.52 33.5399H857.88ZM853.68 29.3999V32.6999L851.28 35.0999V31.7399L853.68 29.3999ZM847.74 29.4599L850.08 31.7999V35.0999L847.68 32.6999L847.74 29.4599ZM843.66 33.5399H846.96L849.3 35.8799H845.88L843.66 33.5399ZM843.66 39.4199L846 37.0799H849.3L846.9 39.4799L843.66 39.4199ZM847.74 43.6199V40.2599L850.08 37.9199V41.3999L847.74 43.6199ZM853.68 43.6799L851.28 41.2799V37.9199L853.68 40.3199V43.6799ZM857.88 39.4799H854.52L852.12 37.0799H855.54L857.88 39.4799Z" fill="white"/>
<path opacity="0.11" d="M219.48 136.26L216.3 137.94L217.02 135.72L215.94 135.36L215.4 134.4L213.36 135.42L214.44 132L213.3 131.64L212.22 135.12L211.14 133.08L210.12 133.62L209.1 133.26L208.38 135.42L206.7 132.18L205.68 132.72L207.42 136.02L205.2 135.3L204.84 136.38L203.88 136.86L204.9 138.9L201.42 137.82L201.06 138.96L204.6 140.1L202.5 141.18L203.04 142.14L202.68 143.16L204.84 143.88L201.6 145.56L202.14 146.58L205.44 144.84L204.72 147.06L205.8 147.42L206.28 148.38L208.32 147.36L207.24 150.84L208.38 151.2L209.52 147.66L210.6 149.76L211.5 149.28L212.64 149.64L213.36 147.42L215.04 150.6L216.06 150.06L214.38 146.88L216.6 147.6L216.96 146.52L217.98 146.04L216.96 144L220.38 145.08L220.74 143.94L217.26 142.86L219.3 141.78L218.76 140.76L219.12 139.68L216.9 138.96L220.08 137.28L219.48 136.26ZM215.82 135.48L214.8 138.66L211.8 140.22L212.82 136.92L215.82 135.48ZM210.18 133.74L211.68 136.68L210.66 139.86L209.1 136.86L210.18 133.74ZM204.96 136.5L208.14 137.52L209.64 140.46L206.4 139.44L204.96 136.5ZM203.22 142.08L206.16 140.52L209.28 141.48L206.28 143.04L203.22 142.08ZM205.92 147.3L206.94 144.12L209.88 142.62L208.86 145.86L205.92 147.3ZM211.5 149.1L209.94 146.1L210.96 142.92L212.58 145.98L211.5 149.1ZM216.78 146.4L213.6 145.38L212.04 142.38L215.34 143.4L216.78 146.4ZM218.58 140.76L215.58 142.32L212.34 141.3L215.4 139.74L218.58 140.76Z" fill="white"/>
<path d="M141.63 15.9555L140.57 17.0161L141.63 18.0768L142.691 17.0161L141.63 15.9555Z" fill="white"/>
<path d="M141.617 14.6103L141.065 15.1619L141.617 15.7134L142.169 15.1619L141.617 14.6103Z" fill="white"/>
<path d="M141.611 27.1526L141.06 27.7041L141.611 28.2556L142.163 27.7041L141.611 27.1526Z" fill="white"/>
<path d="M141.612 24.7829L140.552 25.8435L141.612 26.9042L142.673 25.8435L141.612 24.7829Z" fill="white"/>
<path d="M137.197 20.3981L136.136 21.4587L137.197 22.5194L138.258 21.4587L137.197 20.3981Z" fill="white"/>
<path d="M135.343 20.9214L134.792 21.4729L135.343 22.0244L135.895 21.4729L135.343 20.9214Z" fill="white"/>
<path d="M147.928 20.8843L147.376 21.4358L147.928 21.9873L148.479 21.4358L147.928 20.8843Z" fill="white"/>
<path d="M146.025 20.4162L144.964 21.4768L146.025 22.5375L147.085 21.4768L146.025 20.4162Z" fill="white"/>
<path d="M144.96 24.1801H146.16V23.3401H144.12L143.64 22.8601C143.76 22.6801 143.82 22.5001 143.94 22.3201L144.78 21.4801L143.94 20.6401C143.88 20.4601 143.76 20.2801 143.64 20.1001L144.06 19.6801H146.1V18.8401H144.9L145.68 18.0601H147.72V17.2201H145.86V15.3601H145.02V17.5201L144.24 18.3001V16.9801H143.4V19.0801L143.04 19.4401C142.86 19.3201 142.62 19.2001 142.44 19.0801L141.6 18.2401L140.76 19.0801C140.52 19.1401 140.28 19.2601 140.1 19.4401L139.74 19.0801V17.0401H138.9V18.2401L138.12 17.4601V15.4201H137.28V17.2801H135.42V18.1201H137.58L138.36 18.9001H137.04V19.7401H139.14L139.44 20.0401C139.32 20.2201 139.2 20.4601 139.08 20.7001L138.3 21.4801L139.02 22.2001C139.14 22.5001 139.26 22.8001 139.5 23.1001L139.14 23.4601L137.04 23.4001V24.2401H138.36L137.58 25.0201L135.42 24.9601V25.8001H137.28V27.6601H138.12V25.6201L138.9 24.8401V26.0401H139.74V24.0001L140.16 23.5801C140.34 23.7001 140.52 23.7601 140.76 23.8201L141.54 24.6001L142.32 23.8201C142.56 23.7001 142.8 23.5801 143.04 23.4001L143.46 23.8201L143.4 25.9201H144.24V24.6001L145.02 25.3801L144.96 27.5401H145.8V25.6801H147.66V24.8401H145.62L144.96 24.1801ZM143.22 20.9401L142.68 21.4801L141.66 20.4601L142.2 19.9201C142.68 20.1001 143.04 20.5201 143.22 20.9401ZM140.58 21.5401L141.6 22.5601L141.06 23.1001C140.58 22.9201 140.22 22.5601 140.04 22.0801L140.58 21.5401ZM141.06 19.9201L141.6 20.4601L140.58 21.4801L139.98 20.8801C140.22 20.4601 140.58 20.1001 141.06 19.9201ZM142.2 23.1001L141.66 22.5601L142.68 21.5401L143.16 22.0201C143.04 22.5601 142.68 22.9201 142.2 23.1001Z" fill="white"/>
<path d="M319.136 26.9154L318.457 27.5942L319.136 28.2731L319.815 27.5942L319.136 26.9154Z" fill="white"/>
<path d="M319.161 26.0198L318.779 26.4016L319.161 26.7834L319.542 26.4016L319.161 26.0198Z" fill="white"/>
<path d="M319.183 34.0505L318.801 34.4324L319.183 34.8142L319.564 34.4324L319.183 34.0505Z" fill="white"/>
<path d="M319.132 32.557L318.453 33.2358L319.132 33.9147L319.811 33.2358L319.132 32.557Z" fill="white"/>
<path d="M316.306 29.7311L315.627 30.4099L316.306 31.0887L316.985 30.4099L316.306 29.7311Z" fill="white"/>
<path d="M315.157 30.0471L314.775 30.429L315.157 30.8108L315.539 30.4289L315.157 30.0471Z" fill="white"/>
<path d="M323.145 30.0666L322.763 30.4485L323.145 30.8303L323.526 30.4485L323.145 30.0666Z" fill="white"/>
<path d="M321.948 29.7352L321.269 30.4141L321.948 31.0929L322.627 30.414L321.948 29.7352Z" fill="white"/>
<path d="M321.24 32.16H322.02V31.62H320.7L320.4 31.32C320.46 31.2 320.52 31.08 320.58 30.96L321.12 30.42L320.58 29.88C320.52 29.76 320.46 29.64 320.4 29.52L320.64 29.28H321.96V28.74H321.18L321.66 28.26H322.98V27.72H321.78V26.52H321.24V27.9L320.76 28.38V27.54H320.22V28.92L319.98 29.16C319.86 29.1 319.74 28.98 319.56 28.92L319.02 28.38L318.48 28.92C318.3 28.98 318.18 29.04 318.06 29.16L317.82 28.92V27.6H317.28V28.38L316.8 27.9V26.58H316.26V27.78H315.06V28.32H316.44L316.92 28.8H316.08V29.34H317.46L317.64 29.52C317.58 29.64 317.46 29.76 317.4 29.94L316.92 30.42L317.4 30.9C317.46 31.08 317.58 31.32 317.7 31.44L317.46 31.68H316.08V32.22H316.92L316.44 32.7H315.06V33.24H316.26V34.44H316.8V33.12L317.28 32.64V33.42H317.82V32.1L318.06 31.86C318.18 31.92 318.3 31.98 318.42 32.04L318.9 32.52L319.38 32.04C319.56 31.98 319.68 31.92 319.86 31.8L320.1 32.04V33.42H320.64V32.58L321.12 33.06V34.44H321.66V33.24H322.86V32.7H321.54L321.24 32.16ZM320.1 30.12L319.74 30.48L319.08 29.82L319.44 29.46C319.8 29.58 320.04 29.82 320.1 30.12ZM318.42 30.48L319.08 31.14L318.72 31.5C318.42 31.38 318.18 31.14 318.06 30.84L318.42 30.48ZM318.78 29.46L319.14 29.82L318.48 30.48L318.12 30.12C318.24 29.82 318.48 29.58 318.78 29.46ZM319.5 31.5L319.14 31.14L319.8 30.48L320.1 30.78C320.04 31.14 319.8 31.38 319.5 31.5Z" fill="white"/>
<path d="M48.9703 71.297L47.9097 72.3577L48.9703 73.4183L50.031 72.3577L48.9703 71.297Z" fill="white"/>
<path d="M48.9988 69.9941L48.4473 70.5457L48.9988 71.0972L49.5503 70.5457L48.9988 69.9941Z" fill="white"/>
<path d="M48.9934 82.5366L48.4419 83.0881L48.9934 83.6397L49.545 83.0881L48.9934 82.5366Z" fill="white"/>
<path d="M48.9947 80.1666L47.9341 81.2273L48.9947 82.2879L50.0554 81.2273L48.9947 80.1666Z" fill="white"/>
<path d="M44.5367 75.7394L43.4761 76.8L44.5367 77.8607L45.5974 76.8L44.5367 75.7394Z" fill="white"/>
<path d="M42.7249 76.2202L42.1733 76.7717L42.7249 77.3233L43.2764 76.7717L42.7249 76.2202Z" fill="white"/>
<path d="M55.2674 76.2258L54.7158 76.7773L55.2674 77.3289L55.8189 76.7773L55.2674 76.2258Z" fill="white"/>
<path d="M53.4068 75.7152L52.3462 76.7759L53.4068 77.8365L54.4675 76.7759L53.4068 75.7152Z" fill="white"/>
<path d="M52.3798 79.56H53.5798V78.72H51.5398L51.0598 78.24C51.1798 78.06 51.2398 77.88 51.3598 77.7L52.1998 76.86L51.3598 76.02C51.2998 75.84 51.1798 75.66 51.0598 75.48L51.4798 75.06H53.5198V74.22H52.3198L53.0998 73.44H55.1398V72.6H53.2798V70.74H52.4398V72.9L51.6598 73.68V72.36H50.8198V74.46L50.4598 74.82C50.2798 74.7 50.0398 74.58 49.8598 74.46L49.0198 73.62L48.1798 74.46C47.9398 74.52 47.6998 74.64 47.5198 74.82L47.1598 74.46V72.42H46.3198V73.62L45.5398 72.84V70.8H44.6998V72.66H42.8398V73.5H44.9998L45.7798 74.28H44.4598V75.12H46.5598L46.8598 75.42C46.7398 75.6 46.6198 75.84 46.4998 76.08L45.7198 76.86L46.4398 77.58C46.5598 77.88 46.6798 78.18 46.9198 78.48L46.5598 78.84L44.4598 78.78V79.62H45.7798L44.9998 80.4L42.8398 80.34V81.18H44.6998V83.04H45.5398V81L46.3198 80.22V81.42H47.1598V79.38L47.5798 78.96C47.7598 79.08 47.9398 79.14 48.1798 79.2L48.9598 79.98L49.7398 79.2C49.9798 79.08 50.2198 78.96 50.4598 78.78L50.8798 79.2L50.8198 81.3H51.6598V79.98L52.4398 80.76L52.3798 82.92H53.2198V81.06H55.1998V80.22H53.1598L52.3798 79.56ZM50.5798 76.32L50.0398 76.86L49.0198 75.84L49.5598 75.3C50.0398 75.48 50.3998 75.84 50.5798 76.32ZM47.9398 76.92L48.9598 77.94L48.4198 78.48C47.9398 78.3 47.5798 77.94 47.3998 77.46L47.9398 76.92ZM48.4798 75.3L49.0198 75.84L47.9998 76.86L47.3998 76.26C47.5798 75.84 47.9998 75.42 48.4798 75.3ZM49.6198 78.48L49.0798 77.94L50.0998 76.92L50.5798 77.4C50.3998 77.88 50.0398 78.3 49.6198 78.48Z" fill="white"/>
<path d="M678.754 91.9696L677.693 93.0303L678.754 94.0909L679.815 93.0303L678.754 91.9696Z" fill="white"/>
<path d="M678.741 90.6242L678.189 91.1758L678.741 91.7273L679.292 91.1758L678.741 90.6242Z" fill="white"/>
<path d="M678.735 103.166L678.183 103.718L678.735 104.27L679.286 103.718L678.735 103.166Z" fill="white"/>
<path d="M678.736 100.797L677.675 101.857L678.736 102.918L679.797 101.857L678.736 100.797Z" fill="white"/>
<path d="M674.277 96.3688L673.217 97.4294L674.277 98.4901L675.338 97.4294L674.277 96.3688Z" fill="white"/>
<path d="M672.468 96.9367L671.916 97.4883L672.468 98.0398L673.019 97.4883L672.468 96.9367Z" fill="white"/>
<path d="M685.009 96.9409L684.457 97.4924L685.009 98.044L685.56 97.4924L685.009 96.9409Z" fill="white"/>
<path d="M683.106 96.3878L682.045 97.4485L683.106 98.5091L684.166 97.4485L683.106 96.3878Z" fill="white"/>
<path d="M682.08 100.2H683.28V99.3599H681.24L680.76 98.8799C680.88 98.6999 680.94 98.5199 681.06 98.3399L681.9 97.4999L681.06 96.6599C681 96.4799 680.88 96.2999 680.76 96.1199L681.18 95.6999H683.22V94.8599H682.02L682.8 94.0799H684.84V93.2399H682.98V91.3799H682.14V93.5399L681.36 94.3199V92.9999H680.52V95.0999L680.16 95.4599C679.98 95.3399 679.74 95.2199 679.56 95.0999L678.72 94.2599L677.88 95.0999C677.64 95.1599 677.4 95.2799 677.22 95.4599L676.86 95.0999V93.0599H676.02V94.2599L675.24 93.4799V91.4399H674.4V93.2999H672.54V94.1399H674.7L675.48 94.9199H674.16V95.7599H676.26L676.56 96.0599C676.44 96.2399 676.32 96.4799 676.2 96.7199L675.42 97.4999L676.14 98.2199C676.26 98.5199 676.38 98.8199 676.62 99.1199L676.26 99.4799L674.16 99.4199V100.26H675.48L674.7 101.04L672.54 100.98V101.82H674.4V103.68H675.24V101.64L676.02 100.86V102.06H676.86V100.02L677.28 99.5999C677.46 99.7199 677.64 99.7799 677.88 99.8399L678.66 100.62L679.44 99.8399C679.68 99.7199 679.92 99.5999 680.16 99.4199L680.58 99.8399L680.52 101.94H681.36V100.62L682.14 101.4L682.08 103.56H682.92V101.7H684.78V100.86H682.74L682.08 100.2ZM680.34 96.9599L679.8 97.4999L678.78 96.4799L679.32 95.9399C679.74 96.1199 680.16 96.4799 680.34 96.9599ZM677.7 97.5599L678.72 98.5799L678.18 99.1199C677.7 98.9399 677.34 98.5799 677.16 98.0999L677.7 97.5599ZM678.18 95.9399L678.72 96.4799L677.7 97.4999L677.1 96.8999C677.34 96.4799 677.7 96.1199 678.18 95.9399ZM679.32 99.1199L678.78 98.5799L679.8 97.5599L680.28 98.0399C680.16 98.5199 679.8 98.9399 679.32 99.1199Z" fill="white"/>
<g opacity="0.6">
<path d="M78.8157 21.8347L78.2642 22.3862L78.8157 22.9378L79.3672 22.3862L78.8157 21.8347Z" fill="white"/>
<path d="M78.7877 21.1405L78.4907 21.4375L78.7877 21.7345L79.0847 21.4375L78.7877 21.1405Z" fill="white"/>
<path d="M78.8043 27.4337L78.5073 27.7307L78.8043 28.0277L79.1013 27.7307L78.8043 27.4337Z" fill="white"/>
<path d="M78.8264 26.27L78.2749 26.8215L78.8264 27.3731L79.378 26.8215L78.8264 26.27Z" fill="white"/>
<path d="M76.5979 24.0554L76.0464 24.6069L76.5979 25.1585L77.1495 24.6069L76.5979 24.0554Z" fill="white"/>
<path d="M75.6495 24.338L75.3525 24.635L75.6495 24.932L75.9465 24.635L75.6495 24.338Z" fill="white"/>
<path d="M81.9425 24.3214L81.6455 24.6184L81.9425 24.9154L82.2395 24.6184L81.9425 24.3214Z" fill="white"/>
<path d="M81.0335 24.0447L80.4819 24.5962L81.0335 25.1477L81.585 24.5962L81.0335 24.0447Z" fill="white"/>
<path d="M80.4601 25.9799H81.0601V25.5599H80.0401L79.8001 25.3199C79.8601 25.2599 79.9201 25.1399 79.9201 25.0199L80.3401 24.5999L79.9201 24.1799C79.8601 24.0599 79.8601 23.9999 79.8001 23.9399L79.9801 23.7599H81.0001V23.3399H80.4001L80.7601 22.9799H81.7801V22.5599H80.8801V21.5999H80.4601V22.6799L80.0401 23.0399V22.3799H79.6201V23.4599L79.4401 23.6399C79.3201 23.5799 79.2601 23.5199 79.1401 23.4599L78.7201 23.0399L78.3001 23.4599C78.1801 23.5199 78.0601 23.5799 77.9401 23.6399L77.7601 23.4599V22.4399H77.3401V23.0399L76.9801 22.6799V21.6599H76.5601V22.5599H75.6001V22.9799H76.6801L77.0401 23.3999H76.3801V23.8199H77.4601L77.6401 23.9999C77.5801 24.1199 77.5201 24.1799 77.4601 24.2999L77.1001 24.6599L77.4601 25.0199C77.5201 25.1999 77.5801 25.3199 77.7001 25.4399L77.5201 25.6199H76.4401V26.0399H77.1001L76.7401 26.4599H75.6601V26.8799H76.6201V27.7799H77.0401V26.7599L77.4001 26.3999V26.9999H77.8201V25.9799L78.0001 25.7999C78.1201 25.8599 78.1801 25.9199 78.3001 25.9199L78.6601 26.2799L79.0801 25.8599C79.2001 25.7999 79.3201 25.7399 79.4401 25.6799L79.6201 25.8599V26.9399H80.0401V26.2799L80.4601 26.6399V27.7199H80.8801V26.7599H81.7801V26.3399H80.7601L80.4601 25.9799ZM79.5601 24.3599L79.3201 24.5999L78.8401 24.1199L79.1401 23.8199C79.3201 23.9399 79.5001 24.1199 79.5601 24.3599ZM78.2401 24.6599L78.7201 25.1399L78.4801 25.3799C78.2401 25.3199 78.0601 25.0799 77.9401 24.8999L78.2401 24.6599ZM78.4801 23.8799L78.7801 24.1799L78.3001 24.6599L78.0001 24.3599C78.0601 24.1199 78.2401 23.9399 78.4801 23.8799ZM79.0801 25.4399L78.8401 25.1999L79.3201 24.7199L79.5601 24.9599C79.5001 25.1399 79.3201 25.3199 79.0801 25.4399Z" fill="white"/>
</g>
<g opacity="0.6">
<path d="M326.927 97.4281L325.909 98.4463L326.927 99.4645L327.945 98.4463L326.927 97.4281Z" fill="white"/>
<path d="M326.923 96.1987L326.372 96.7502L326.923 97.3018L327.475 96.7502L326.923 96.1987Z" fill="white"/>
<path d="M326.92 108.02L326.369 108.571L326.92 109.123L327.472 108.571L326.92 108.02Z" fill="white"/>
<path d="M326.93 105.766L325.912 106.785L326.93 107.803L327.949 106.785L326.93 105.766Z" fill="white"/>
<path d="M322.749 101.637L321.731 102.655L322.749 103.673L323.767 102.655L322.749 101.637Z" fill="white"/>
<path d="M321.011 102.066L320.46 102.618L321.012 103.169L321.563 102.618L321.011 102.066Z" fill="white"/>
<path d="M332.832 102.068L332.28 102.62L332.832 103.171L333.383 102.62L332.832 102.068Z" fill="white"/>
<path d="M331.088 101.634L330.069 102.652L331.088 103.67L332.106 102.652L331.088 101.634Z" fill="white"/>
<path d="M330.06 105.24H331.2V104.46H329.28L328.86 104.04C328.98 103.86 329.04 103.68 329.1 103.5L329.88 102.72L329.04 101.88C328.98 101.7 328.86 101.52 328.8 101.4L329.16 101.04H331.08V100.26H329.94L330.66 99.54H332.58V98.76H330.84V97.02H330.06V99.06L329.34 99.78V98.52H328.56V100.5L328.2 100.86C328.02 100.74 327.84 100.62 327.6 100.56L326.82 99.78L326.04 100.56C325.8 100.62 325.56 100.74 325.38 100.92L325.08 100.62V98.7H324.3V99.84L323.58 99.12V97.2H322.8V98.94H321.06V99.72H323.1L323.82 100.44H322.56V101.22H324.54L324.84 101.52C324.72 101.7 324.6 101.94 324.54 102.12L323.82 102.84L324.54 103.56C324.66 103.86 324.78 104.16 324.96 104.4L324.66 104.76L322.68 104.7V105.48H323.94L323.22 106.2L321.18 106.14V106.92H322.92V108.66H323.7V106.74L324.42 106.02V107.16H325.2V105.24L325.62 104.82C325.8 104.94 325.98 105 326.16 105.06L326.88 105.78L327.6 105.06C327.84 105 328.08 104.82 328.26 104.7L328.68 105.06L328.62 107.04H329.4V105.78L330.12 106.5L330.06 108.54H330.84V106.8H332.58V106.02H330.66L330.06 105.24ZM328.38 102.18L327.9 102.66L326.94 101.7L327.48 101.16C327.9 101.4 328.2 101.76 328.38 102.18ZM325.92 102.78L326.88 103.74L326.4 104.22C325.98 104.04 325.62 103.68 325.44 103.26L325.92 102.78ZM326.4 101.22L326.94 101.76L325.98 102.72L325.44 102.18C325.56 101.7 325.92 101.34 326.4 101.22ZM327.48 104.22L327 103.74L327.96 102.78L328.44 103.26C328.26 103.68 327.9 104.04 327.48 104.22Z" fill="white"/>
</g>
<g opacity="0.6">
<path d="M475.009 140.817L473.991 141.835L475.009 142.853L476.027 141.835L475.009 140.817Z" fill="white"/>
<path d="M475.048 139.545L474.496 140.096L475.048 140.648L475.599 140.096L475.048 139.545Z" fill="white"/>
<path d="M475.045 151.366L474.493 151.917L475.045 152.469L475.596 151.917L475.045 151.366Z" fill="white"/>
<path d="M475.013 149.155L473.995 150.173L475.013 151.192L476.031 150.173L475.013 149.155Z" fill="white"/>
<path d="M470.831 145.025L469.813 146.043L470.831 147.062L471.849 146.043L470.831 145.025Z" fill="white"/>
<path d="M469.094 145.456L468.542 146.007L469.094 146.559L469.646 146.007L469.094 145.456Z" fill="white"/>
<path d="M480.914 145.457L480.363 146.008L480.914 146.56L481.466 146.008L480.914 145.457Z" fill="white"/>
<path d="M479.17 145.022L478.152 146.041L479.17 147.059L480.188 146.041L479.17 145.022Z" fill="white"/>
<path d="M478.14 148.62H479.28V147.84H477.36L476.94 147.42C477.06 147.24 477.12 147.06 477.18 146.88L477.96 146.1L477.12 145.26C477.06 145.08 476.94 144.9 476.88 144.78L477.24 144.42H479.16V143.64H478.02L478.74 142.92H480.66V142.14H478.92V140.4H478.14V142.44L477.42 143.16V141.9H476.64V143.88L476.28 144.24C476.1 144.12 475.92 144 475.68 143.94L474.9 143.16L474.12 143.94C473.88 144 473.64 144.12 473.46 144.3L473.16 144V142.08H472.38V143.22L471.66 142.5V140.58H470.88V142.32H469.14V143.1H471.18L471.9 143.82H470.64V144.6H472.62L472.92 144.9C472.8 145.08 472.68 145.32 472.62 145.5L471.9 146.22L472.62 146.94C472.74 147.24 472.86 147.54 473.04 147.78L472.74 148.14L470.76 148.08V148.86H472.02L471.3 149.58L469.26 149.52V150.3H471V152.04H471.78V150L472.5 149.28V150.42H473.28V148.5L473.7 148.08C473.88 148.2 474.06 148.26 474.24 148.32L474.96 149.04L475.68 148.32C475.92 148.26 476.16 148.08 476.34 147.96L476.76 148.32L476.7 150.3H477.48V149.04L478.2 149.76L478.14 151.8H478.92V150.06H480.66V149.28H478.74L478.14 148.62ZM476.46 145.56L475.98 146.04L475.02 145.08L475.56 144.54C475.98 144.78 476.34 145.14 476.46 145.56ZM474 146.16L474.96 147.12L474.48 147.6C474.06 147.42 473.7 147.06 473.52 146.64L474 146.16ZM474.48 144.6L475.02 145.14L474.06 146.1L473.52 145.56C473.64 145.08 474 144.72 474.48 144.6ZM475.56 147.6L475.08 147.12L476.04 146.16L476.52 146.64C476.34 147.06 475.98 147.42 475.56 147.6Z" fill="white"/>
</g>
<path d="M200.58 65.0999L196.92 66.5399L197.88 64.2599L196.68 63.7799L195.18 67.2599L194.94 67.3799C194.52 66.6599 193.92 66.1199 193.2 65.6999L193.44 65.0999L195.18 64.6199L194.82 63.4199L193.32 63.8399L192.9 62.3399L191.7 62.6999L192.24 64.6799L192 65.2199C191.16 64.9799 190.26 64.9799 189.36 65.2199L189.18 64.7399L190.68 61.3799L189.54 60.8399L188.52 63.1199L187.2 59.3999L186 59.8799L187.5 63.5999L185.16 62.5799L184.68 63.7799L188.16 65.2799L188.34 65.6999C187.62 66.1199 187.02 66.7199 186.66 67.4399L185.94 67.1399L185.46 65.3999L184.26 65.7599L184.68 67.2599L183.18 67.6799L183.54 68.8799L185.52 68.3399L186.24 68.6399C186.06 69.3599 186 70.1999 186.18 70.9799L185.7 71.1599L182.34 69.6599L181.8 70.7999L184.08 71.8199L180.42 73.2599L180.9 74.4599L184.62 72.9599L183.6 75.2999L184.8 75.7799L186.3 72.2999L186.66 72.1199C187.08 72.8999 187.68 73.5599 188.4 73.9799L188.04 74.7599L186.3 75.2399L186.66 76.4399L188.16 76.0199L188.58 77.5199L189.78 77.1599L189.18 75.1799L189.48 74.5199C190.26 74.7599 191.1 74.8199 191.94 74.5799L192.06 74.8799L190.56 78.2999L191.7 78.8399L192.72 76.5599L194.16 80.1599L195.36 79.6799L193.92 76.0199L196.2 76.9799L196.68 75.7799L193.2 74.2799L193.14 74.0999C193.92 73.6799 194.58 73.0799 195 72.3599L195.66 72.6599L196.14 74.3999L197.34 74.0399L196.92 72.5399L198.42 72.1199L198.06 70.9199L196.08 71.5199L195.54 71.2799C195.78 70.3799 195.84 69.4199 195.54 68.5199L195.78 68.3999L199.2 69.8999L199.74 68.7599L197.46 67.7399L201.06 66.2999L200.58 65.0999ZM193.8 67.8599L192.06 68.5799L192.78 66.8999C193.2 67.0799 193.56 67.4399 193.8 67.8599ZM191.64 66.3599L190.8 68.3399L190.02 66.4199C190.56 66.2399 191.1 66.2399 191.64 66.3599ZM188.82 66.8999L189.54 68.6999L187.8 67.9799C188.1 67.5599 188.4 67.1999 188.82 66.8999ZM187.38 69.1199L188.94 69.7799L187.32 70.4399C187.26 70.0199 187.26 69.5399 187.38 69.1199ZM187.74 71.6399L189.66 70.8599L188.82 72.7799C188.4 72.5399 188.04 72.1199 187.74 71.6399ZM189.96 73.3199L190.74 71.5799L191.46 73.3799C190.98 73.4999 190.44 73.4399 189.96 73.3199ZM192.66 72.9599L191.88 71.0999L193.8 71.9399C193.5 72.3599 193.14 72.7199 192.66 72.9599ZM194.34 70.7399L192.24 69.8399L194.34 68.9999C194.52 69.5999 194.46 70.1999 194.34 70.7399Z" fill="white"/>
<path d="M543.78 48.48L541.02 48L542.52 46.98L541.98 46.2L539.76 47.76L539.58 47.7C539.58 47.1 539.46 46.56 539.16 46.02L539.58 45.72L540.84 46.08L541.08 45.18L540 44.88L540.3 43.8L539.4 43.56L538.98 44.94L538.62 45.18C538.2 44.7 537.66 44.34 537 44.16L537.06 43.8L539.28 42.3L538.8 41.52L537.3 42.48L537.78 39.72L536.88 39.54L536.4 42.6L535.38 41.1L534.6 41.64L536.16 43.86L536.1 44.16C535.5 44.16 534.9 44.28 534.42 44.58L534.12 44.1L534.48 42.84L533.58 42.6L533.28 43.68L532.2 43.38L531.96 44.28L533.34 44.7L533.64 45.12C533.22 45.48 532.92 45.96 532.74 46.5L532.38 46.44L530.88 44.22L530.1 44.7L531.06 46.2L528.3 45.72L528.12 46.62L530.94 47.16L529.44 48.18L529.98 48.96L532.2 47.4L532.5 47.46C532.44 48.12 532.56 48.72 532.86 49.26L532.38 49.62L531.12 49.26L530.88 50.16L531.96 50.46L531.66 51.54L532.56 51.78L532.98 50.34L533.4 50.04C533.76 50.46 534.3 50.82 534.84 51.06L534.78 51.3L532.56 52.8L533.04 53.58L534.54 52.56L534.06 55.32L534.96 55.5L535.44 52.74L536.46 54.24L537.24 53.7L535.68 51.48V51.3C536.34 51.36 536.94 51.24 537.48 50.94L537.78 51.36L537.42 52.62L538.32 52.86L538.62 51.78L539.7 52.08L539.94 51.18L538.5 50.76L538.26 50.4C538.74 49.98 539.16 49.38 539.34 48.72L539.52 48.78L541.02 51L541.8 50.52L540.78 49.02L543.54 49.5L543.78 48.48ZM538.62 47.58L537.3 47.34L538.38 46.62C538.56 46.86 538.62 47.22 538.62 47.58ZM537.9 45.84L536.64 46.68L536.88 45.18C537.24 45.36 537.6 45.54 537.9 45.84ZM535.98 45.06L535.74 46.44L534.96 45.3C535.26 45.18 535.62 45.12 535.98 45.06ZM534.24 45.84L534.96 46.86L533.76 46.62C533.82 46.38 534 46.08 534.24 45.84ZM533.52 47.58L534.96 47.82L533.7 48.66C533.52 48.3 533.46 47.94 533.52 47.58ZM534.18 49.44L535.32 48.66L535.08 50.04C534.72 49.92 534.42 49.68 534.18 49.44ZM535.98 50.22L536.22 48.78L537.06 50.04C536.7 50.16 536.34 50.28 535.98 50.22ZM537.84 49.56L536.88 48.18L538.5 48.48C538.38 48.9 538.14 49.26 537.84 49.56Z" fill="white"/>
<path d="M759.9 36.0001L757.14 35.5201L758.64 34.5001L758.1 33.7201L755.88 35.2801L755.7 35.2201C755.7 34.6201 755.58 34.0801 755.28 33.5401L755.7 33.2401L756.96 33.6001L757.2 32.7001L756.12 32.4001L756.42 31.3201L755.52 31.0801L755.1 32.4601L754.74 32.7001C754.32 32.2201 753.78 31.8601 753.12 31.6801L753.18 31.3201L755.4 29.8201L754.92 29.0401L753.42 30.0001L753.9 27.2401L753 27.0601L752.46 29.8801L751.44 28.3801L750.66 28.9201L752.22 31.1401L752.16 31.4401C751.56 31.4401 750.96 31.5601 750.48 31.8601L750.18 31.3801L750.54 30.1201L749.64 29.8801L749.4 31.2001L748.32 30.9001L748.08 31.8001L749.46 32.2201L749.76 32.6401C749.34 33.0001 749.04 33.4801 748.86 34.0201L748.5 33.9601L747 31.7401L746.22 32.2201L747.18 33.7201L744.42 33.2401L744.24 34.1401L747.06 34.6801L745.56 35.7001L746.1 36.4801L748.32 34.9201L748.62 34.9801C748.56 35.6401 748.68 36.2401 748.98 36.7801L748.5 37.1401L747.24 36.7801L747 37.6801L748.08 37.9801L747.78 39.0601L748.68 39.3001L749.1 37.8601L749.52 37.5601C749.88 37.9801 750.42 38.3401 750.96 38.5801L750.9 38.8201L748.8 40.2001L749.28 40.9801L750.78 39.9601L750.3 42.7201L751.2 42.9001L751.68 40.1401L752.7 41.6401L753.48 41.1001L751.92 38.8801V38.7001C752.58 38.7601 753.18 38.6401 753.72 38.3401L754.02 38.7601L753.66 40.0201L754.56 40.2601L754.86 39.1801L755.94 39.4801L756.18 38.5801L754.74 38.1601L754.5 37.8001C754.98 37.3801 755.4 36.7801 755.58 36.1201L755.76 36.1801L757.26 38.4001L758.04 37.9201L757.02 36.4201L759.78 36.9001L759.9 36.0001ZM754.8 35.1001L753.48 34.8601L754.56 34.1401C754.68 34.3801 754.74 34.7401 754.8 35.1001ZM754.02 33.3601L752.76 34.2001L753 32.7001C753.42 32.8801 753.72 33.0601 754.02 33.3601ZM752.1 32.5801L751.86 33.9601L751.08 32.8201C751.38 32.7001 751.74 32.6401 752.1 32.5801ZM750.36 33.3601L751.08 34.3801L749.88 34.1401C749.94 33.9001 750.12 33.6001 750.36 33.3601ZM749.64 35.0401L751.08 35.2801L749.82 36.1201C749.7 35.8201 749.58 35.4601 749.64 35.0401ZM750.36 36.9601L751.5 36.1801L751.26 37.5601C750.9 37.4401 750.6 37.2001 750.36 36.9601ZM752.1 37.7401L752.34 36.3001L753.18 37.5601C752.88 37.6801 752.46 37.8001 752.1 37.7401ZM753.96 37.0801L753 35.7001L754.62 36.0001C754.5 36.4201 754.26 36.7801 753.96 37.0801Z" fill="white"/>
<path opacity="0.26" d="M251.16 26.4H248.1L249.48 25.02L248.76 24.3L246.66 26.4H246.48C246.36 25.74 246.12 25.14 245.7 24.66L246.06 24.3L247.44 24.48L247.56 23.46L246.36 23.34L246.48 22.14L245.46 22.02L245.28 23.64L244.92 24C244.38 23.58 243.72 23.34 243 23.22V22.8L245.1 20.76L244.38 20.04L243 21.42V18.3H241.98V21.48L240.6 20.1L239.88 20.82L241.98 22.92V23.28C241.32 23.4 240.72 23.64 240.24 24.06L239.82 23.64L240 22.26L238.98 22.14L238.86 23.34L237.66 23.22L237.54 24.24L239.16 24.42L239.58 24.8401C239.22 25.3201 238.98 25.92 238.86 26.52H238.44L236.4 24.42L235.68 25.1401L237.06 26.52H234V27.5401H237.18L235.8 28.8L236.52 29.52L238.62 27.42H238.92C238.98 28.14 239.28 28.74 239.64 29.28L239.16 29.76L237.78 29.58L237.66 30.6L238.86 30.72L238.74 31.92L239.76 32.0401L239.94 30.42L240.36 30C240.84 30.42 241.5 30.66 242.16 30.78V31.02L240.06 33.06L240.78 33.78L242.22 32.4V35.46H243.24V32.4L244.62 33.78L245.34 33.06L243.24 30.96V30.78C243.96 30.72 244.56 30.48 245.1 30.06L245.52 30.48L245.34 31.86L246.36 31.98L246.48 30.78L247.68 30.9L247.8 29.88L246.18 29.7L245.82 29.3401C246.3 28.8001 246.6 28.08 246.66 27.36H246.9L248.94 29.46L249.66 28.7401L248.28 27.3H251.34V26.4H251.16ZM245.46 26.4H243.96L244.98 25.38C245.22 25.68 245.4 26.04 245.46 26.4ZM244.32 24.66L243.12 25.86V24.24C243.54 24.24 243.96 24.42 244.32 24.66ZM242.1 24.24V25.7401L241.08 24.66C241.38 24.48 241.74 24.3 242.1 24.24ZM240.36 25.4401L241.32 26.4H239.94C240.06 26.04 240.18 25.7401 240.36 25.4401ZM239.94 27.36H241.56L240.36 28.56C240.12 28.2 240 27.84 239.94 27.36ZM241.08 29.28L242.16 28.26V29.76C241.74 29.7 241.38 29.52 241.08 29.28ZM243.12 29.82V28.2L244.26 29.3401C243.9 29.5801 243.54 29.76 243.12 29.82ZM244.98 28.68L243.72 27.36H245.52C245.46 27.84 245.28 28.32 244.98 28.68Z" fill="white"/>
<path opacity="0.26" d="M405.54 53.22L403.14 55.14L403.32 53.16L402.3 53.04L402 55.98L401.88 56.1C401.4 55.68 400.8 55.38 400.2 55.26L400.26 54.72L401.46 53.94L400.92 53.1L399.9 53.76L399.24 52.74L398.4 53.4L399.3 54.72L399.24 55.2C398.58 55.2 397.86 55.44 397.26 55.8L397.02 55.5L397.38 52.62L396.36 52.5L396.12 54.42L394.14 52.02L393.36 52.68L395.34 55.14L393.36 54.96L393.24 55.98L396.24 56.28L396.48 56.52C396.06 57 395.76 57.6 395.58 58.2L394.98 58.14L394.2 56.94L393.36 57.48L394.02 58.5L393 59.16L393.54 60L394.86 59.1L395.46 59.16C395.46 59.76 395.64 60.36 395.94 60.9L395.58 61.2L392.7 60.84L392.58 61.86L394.5 62.1L392.1 64.08L392.76 64.86L395.22 62.88L395.04 64.86L396.06 64.98L396.36 61.98L396.6 61.8C397.08 62.28 397.68 62.64 398.34 62.82L398.28 63.48L397.08 64.26L397.62 65.1L398.64 64.44L399.3 65.46L400.14 64.92L399.24 63.6L399.3 63C399.96 63 400.56 62.82 401.16 62.46L401.34 62.64L400.98 65.58L402 65.7L402.24 63.72L404.16 66.06L404.94 65.4L403.02 63L405 63.18L405.12 62.16L402.18 61.86L402.06 61.74C402.54 61.26 402.9 60.66 403.02 60L403.56 60.06L404.34 61.26L405.18 60.72L404.52 59.7L405.54 59.04L405 58.2L403.68 59.1L403.2 59.04C403.2 58.32 402.96 57.6 402.54 56.94L402.72 56.82L405.66 57.18L405.78 56.16L403.8 55.92L406.14 54L405.54 53.22ZM401.1 56.82L399.96 57.78L400.14 56.34C400.5 56.46 400.8 56.58 401.1 56.82ZM399.12 56.28L398.94 57.96L397.92 56.7C398.28 56.4 398.7 56.28 399.12 56.28ZM397.14 57.3L398.1 58.5L396.6 58.32C396.72 57.96 396.9 57.6 397.14 57.3ZM396.54 59.34L397.86 59.46L396.78 60.3C396.66 60 396.6 59.7 396.54 59.34ZM397.44 61.14L398.7 60.12L398.52 61.8C398.16 61.62 397.74 61.44 397.44 61.14ZM399.54 61.86L399.72 60.36L400.68 61.56C400.26 61.74 399.9 61.86 399.54 61.86ZM401.46 60.96L400.44 59.7L402.06 59.88C401.94 60.3 401.7 60.66 401.46 60.96ZM402.18 58.92L400.38 58.74L401.76 57.6C402 58.02 402.18 58.44 402.18 58.92Z" fill="white"/>
<path d="M194.46 23.82C195.321 23.82 196.02 23.1215 196.02 22.26C196.02 21.3984 195.321 20.7 194.46 20.7C193.598 20.7 192.9 21.3984 192.9 22.26C192.9 23.1215 193.598 23.82 194.46 23.82Z" fill="white"/>
<path d="M237.48 62.8199C238.01 62.8199 238.44 62.3901 238.44 61.8599C238.44 61.3297 238.01 60.8999 237.48 60.8999C236.95 60.8999 236.52 61.3297 236.52 61.8599C236.52 62.3901 236.95 62.8199 237.48 62.8199Z" fill="white"/>
<path d="M10.7402 108.18C11.0384 108.18 11.2802 107.938 11.2802 107.64C11.2802 107.342 11.0384 107.1 10.7402 107.1C10.442 107.1 10.2002 107.342 10.2002 107.64C10.2002 107.938 10.442 108.18 10.7402 108.18Z" fill="white"/>
<path d="M12.2398 60.96C12.77 60.96 13.1998 60.5302 13.1998 60C13.1998 59.4698 12.77 59.04 12.2398 59.04C11.7096 59.04 11.2798 59.4698 11.2798 60C11.2798 60.5302 11.7096 60.96 12.2398 60.96Z" fill="white"/>
<path d="M259.2 96.9601C259.863 96.9601 260.4 96.4228 260.4 95.7601C260.4 95.0973 259.863 94.5601 259.2 94.5601C258.537 94.5601 258 95.0973 258 95.7601C258 96.4228 258.537 96.9601 259.2 96.9601Z" fill="white"/>
<path d="M413.22 32.94C413.75 32.94 414.18 32.5102 414.18 31.98C414.18 31.4498 413.75 31.02 413.22 31.02C412.69 31.02 412.26 31.4498 412.26 31.98C412.26 32.5102 412.69 32.94 413.22 32.94Z" fill="white"/>
<path d="M334.74 8.22005C335.27 8.22005 335.7 7.79024 335.7 7.26005C335.7 6.72986 335.27 6.30005 334.74 6.30005C334.21 6.30005 333.78 6.72986 333.78 7.26005C333.78 7.79024 334.21 8.22005 334.74 8.22005Z" fill="white"/>
<path d="M506.58 8.22005C507.11 8.22005 507.54 7.79024 507.54 7.26005C507.54 6.72986 507.11 6.30005 506.58 6.30005C506.05 6.30005 505.62 6.72986 505.62 7.26005C505.62 7.79024 506.05 8.22005 506.58 8.22005Z" fill="white"/>
<path d="M816 55.0799C816.53 55.0799 816.96 54.6501 816.96 54.1199C816.96 53.5897 816.53 53.1599 816 53.1599C815.47 53.1599 815.04 53.5897 815.04 54.1199C815.04 54.6501 815.47 55.0799 816 55.0799Z" fill="white"/>
<path d="M647.22 52.68C647.618 52.68 647.94 52.3576 647.94 51.96C647.94 51.5623 647.618 51.24 647.22 51.24C646.822 51.24 646.5 51.5623 646.5 51.96C646.5 52.3576 646.822 52.68 647.22 52.68Z" fill="white"/>
<path d="M766.38 89.64C767.175 89.64 767.82 88.9953 767.82 88.2C767.82 87.4047 767.175 86.76 766.38 86.76C765.585 86.76 764.94 87.4047 764.94 88.2C764.94 88.9953 765.585 89.64 766.38 89.64Z" fill="white"/>
<path d="M483.96 40.6199C484.49 40.6199 484.92 40.1901 484.92 39.66C484.92 39.1298 484.49 38.7 483.96 38.7C483.43 38.7 483 39.1298 483 39.66C483 40.1901 483.43 40.6199 483.96 40.6199Z" fill="white"/>
<path d="M724.02 67.2601C724.55 67.2601 724.98 66.8303 724.98 66.3001C724.98 65.7699 724.55 65.3401 724.02 65.3401C723.49 65.3401 723.06 65.7699 723.06 66.3001C723.06 66.8303 723.49 67.2601 724.02 67.2601Z" fill="white"/>
<path d="M805.98 21.2999C806.51 21.2999 806.94 20.8701 806.94 20.3399C806.94 19.8097 806.51 19.3799 805.98 19.3799C805.45 19.3799 805.02 19.8097 805.02 20.3399C805.02 20.8701 805.45 21.2999 805.98 21.2999Z" fill="white"/>
<path d="M862.86 18.0001C863.39 18.0001 863.82 17.5703 863.82 17.0401C863.82 16.5099 863.39 16.0801 862.86 16.0801C862.33 16.0801 861.9 16.5099 861.9 17.0401C861.9 17.5703 862.33 18.0001 862.86 18.0001Z" fill="white"/>
<path d="M748.5 9.18001C749.03 9.18001 749.46 8.7502 749.46 8.22001C749.46 7.68982 749.03 7.26001 748.5 7.26001C747.97 7.26001 747.54 7.68982 747.54 8.22001C747.54 8.7502 747.97 9.18001 748.5 9.18001Z" fill="white"/>
<path d="M359.76 60.96C360.29 60.96 360.72 60.5302 360.72 60C360.72 59.4698 360.29 59.04 359.76 59.04C359.23 59.04 358.8 59.4698 358.8 60C358.8 60.5302 359.23 60.96 359.76 60.96Z" fill="white"/>
<path d="M389.82 93.72C390.284 93.72 390.66 93.344 390.66 92.88C390.66 92.4161 390.284 92.04 389.82 92.04C389.356 92.04 388.98 92.4161 388.98 92.88C388.98 93.344 389.356 93.72 389.82 93.72Z" fill="white"/>
<path d="M598.08 23.3399C598.544 23.3399 598.92 22.9638 598.92 22.4999C598.92 22.036 598.544 21.6599 598.08 21.6599C597.616 21.6599 597.24 22.036 597.24 22.4999C597.24 22.9638 597.616 23.3399 598.08 23.3399Z" fill="white"/>
<path d="M686.94 19.6201C687.702 19.6201 688.32 19.0023 688.32 18.2401C688.32 17.478 687.702 16.8601 686.94 16.8601C686.178 16.8601 685.56 17.478 685.56 18.2401C685.56 19.0023 686.178 19.6201 686.94 19.6201Z" fill="white"/>
<path d="M587.7 130.38C588.098 130.38 588.42 130.058 588.42 129.66C588.42 129.262 588.098 128.94 587.7 128.94C587.302 128.94 586.98 129.262 586.98 129.66C586.98 130.058 587.302 130.38 587.7 130.38Z" fill="white"/>
<path d="M538.56 100.98C539.024 100.98 539.4 100.604 539.4 100.14C539.4 99.6761 539.024 99.3 538.56 99.3C538.096 99.3 537.72 99.6761 537.72 100.14C537.72 100.604 538.096 100.98 538.56 100.98Z" fill="white"/>
<path d="M627.42 97.26C628.182 97.26 628.8 96.6422 628.8 95.88C628.8 95.1178 628.182 94.5 627.42 94.5C626.658 94.5 626.04 95.1178 626.04 95.88C626.04 96.6422 626.658 97.26 627.42 97.26Z" fill="white"/>
<path d="M713.76 164.1C714.158 164.1 714.48 163.778 714.48 163.38C714.48 162.982 714.158 162.66 713.76 162.66C713.362 162.66 713.04 162.982 713.04 163.38C713.04 163.778 713.362 164.1 713.76 164.1Z" fill="white"/>
<path d="M664.62 134.7C665.084 134.7 665.46 134.324 665.46 133.86C665.46 133.396 665.084 133.02 664.62 133.02C664.156 133.02 663.78 133.396 663.78 133.86C663.78 134.324 664.156 134.7 664.62 134.7Z" fill="white"/>
<path d="M753.48 130.98C754.242 130.98 754.86 130.362 754.86 129.6C754.86 128.838 754.242 128.22 753.48 128.22C752.718 128.22 752.1 128.838 752.1 129.6C752.1 130.362 752.718 130.98 753.48 130.98Z" fill="white"/>
<path d="M865.2 125.28C865.962 125.28 866.58 124.662 866.58 123.9C866.58 123.138 865.962 122.52 865.2 122.52C864.438 122.52 863.82 123.138 863.82 123.9C863.82 124.662 864.438 125.28 865.2 125.28Z" fill="white"/>
</g>
<defs>
<clipPath id="clip0_10311_11613">
<rect width="900" height="210" fill="white"/>
</clipPath>
</defs>
</svg>
