<svg width="160" height="160" viewBox="0 0 160 160" fill="none" xmlns="http://www.w3.org/2000/svg">
<g clip-path="url(#clip0_10311_689)">
<rect width="160" height="160" rx="8" fill="white"/>
<g clip-path="url(#clip1_10311_689)">
<path d="M720.945 0H-0.0546875V168H720.945V0Z" fill="#D1E3FA"/>
<path d="M720.945 137.376V168H-0.0546875V130.992C24.6516 125.952 127.899 106.224 156.979 121.968C190.097 139.872 242.009 146.304 253.545 140.544C265.081 134.784 334.634 132.864 347.467 135.456C360.301 138 396.447 143.376 408.608 142.608C420.769 141.84 481.045 137.328 493.205 139.92C505.366 142.464 532.38 149.52 543.82 142.656C550.837 138.432 561.076 133.872 574.967 133.872C588.858 133.872 609.238 125.712 617.65 137.328C626.11 148.944 643.414 140.832 654.421 134.736C658.699 132.384 681.435 128.832 688.885 130.848C693.451 132.048 709.265 135.12 720.945 137.376Z" fill="white"/>
<path d="M32.5827 16.656H29.6987L30.9965 15.36L30.3717 14.736V13.824L28.5451 13.776L30.5639 11.76L29.891 11.088L27.8241 13.152V11.28H26.8628L26.286 10.656L24.9882 11.904V8.97595H24.0269V12L22.681 10.656L22.0561 11.28H21.1909L21.1429 13.104L19.076 11.04L18.4031 11.712L20.518 13.824H18.6915V14.688L18.0666 15.312L19.3163 16.608H16.3843V17.568H19.3644L18.0185 18.912L18.6434 19.536V20.4L20.4699 20.448L18.4031 22.512L19.076 23.184L21.1909 21.072V22.944H22.0561L22.7291 23.616L24.0749 22.32V25.2H25.0363V22.32L26.3341 23.616L26.9589 22.992H27.8722L27.9203 21.168L29.9391 23.184L30.612 22.512L28.5451 20.448H30.4197V19.536L31.0446 18.912L29.7468 17.568H32.6308V16.656H32.5827ZM30.2755 14.736L28.3529 16.656H25.6611L27.5838 14.736H30.2755ZM26.9109 11.424V14.064L24.9882 15.984V13.296L26.9109 11.424ZM22.1523 11.472L24.0269 13.344V15.984L22.1042 14.064L22.1523 11.472ZM18.8357 14.784H21.4793L23.3539 16.656H20.6141L18.8357 14.784ZM18.8357 19.44L20.7103 17.568H23.3539L21.4313 19.488L18.8357 19.44ZM22.1523 22.8V20.112L24.0269 18.24V21.024L22.1523 22.8ZM26.9109 22.848L24.9882 20.928V18.24L26.9109 20.16V22.848ZM30.2755 19.488H27.5838L25.6611 17.568H28.4009L30.2755 19.488Z" fill="white"/>
<path d="M113.407 12.7644L112.557 13.6129L113.407 14.4614L114.257 13.6129L113.407 12.7644Z" fill="white"/>
<path d="M113.396 11.6883L112.954 12.1295L113.396 12.5707L113.838 12.1295L113.396 11.6883Z" fill="white"/>
<path d="M113.392 21.7221L112.95 22.1633L113.392 22.6046L113.833 22.1633L113.392 21.7221Z" fill="white"/>
<path d="M113.393 19.8263L112.543 20.6748L113.393 21.5233L114.242 20.6748L113.393 19.8263Z" fill="white"/>
<path d="M109.855 16.3184L109.005 17.1669L109.855 18.0154L110.705 17.1669L109.855 16.3184Z" fill="white"/>
<path d="M108.37 16.737L107.928 17.1782L108.37 17.6195L108.812 17.1782L108.37 16.737Z" fill="white"/>
<path d="M118.452 16.7075L118.01 17.1487L118.452 17.5899L118.893 17.1487L118.452 16.7075Z" fill="white"/>
<path d="M116.927 16.333L116.077 17.1815L116.927 18.03L117.777 17.1815L116.927 16.333Z" fill="white"/>
<path d="M116.074 19.344H117.036V18.672H115.401L115.017 18.288C115.113 18.144 115.161 18 115.257 17.856L115.93 17.184L115.257 16.512C115.209 16.368 115.113 16.224 115.017 16.08L115.353 15.744H116.988V15.072H116.026L116.651 14.448H118.285V13.776H116.795V12.288H116.122V14.016L115.497 14.64V13.584H114.825V15.264L114.536 15.552C114.392 15.456 114.2 15.36 114.055 15.264L113.383 14.592L112.71 15.264C112.517 15.312 112.325 15.408 112.181 15.552L111.892 15.264V13.632H111.22V14.592L110.595 13.968V12.336H109.922V13.824H108.432V14.496H110.162L110.787 15.12H109.729V15.792H111.412L111.652 16.032C111.556 16.176 111.46 16.368 111.364 16.56L110.739 17.184L111.316 17.76C111.412 18 111.508 18.24 111.7 18.48L111.412 18.768L109.729 18.72V19.392H110.787L110.162 20.016L108.432 19.968V20.64H109.922V22.128H110.595V20.496L111.22 19.872V20.832H111.892V19.2L112.229 18.864C112.373 18.96 112.517 19.008 112.71 19.056L113.334 19.68L113.959 19.056C114.152 18.96 114.344 18.864 114.536 18.72L114.873 19.056L114.825 20.736H115.497V19.68L116.122 20.304L116.074 22.032H116.747V20.544H118.237V19.872H116.603L116.074 19.344ZM114.68 16.752L114.248 17.184L113.431 16.368L113.863 15.936C114.248 16.08 114.536 16.416 114.68 16.752ZM112.565 17.232L113.383 18.048L112.95 18.48C112.565 18.336 112.277 18.048 112.133 17.664L112.565 17.232ZM112.95 15.936L113.383 16.368L112.565 17.184L112.085 16.704C112.277 16.368 112.565 16.08 112.95 15.936ZM113.863 18.48L113.431 18.048L114.248 17.232L114.632 17.616C114.536 18.048 114.248 18.336 113.863 18.48Z" fill="white"/>
<path d="M39.1759 57.0376L38.3262 57.8861L39.1759 58.7346L40.0256 57.8861L39.1759 57.0376Z" fill="white"/>
<path d="M39.1992 55.9954L38.7573 56.4366L39.1992 56.8779L39.641 56.4366L39.1992 55.9954Z" fill="white"/>
<path d="M39.1943 66.0292L38.7524 66.4705L39.1943 66.9117L39.6361 66.4705L39.1943 66.0292Z" fill="white"/>
<path d="M39.1954 64.1334L38.3457 64.9819L39.1954 65.8305L40.0451 64.9819L39.1954 64.1334Z" fill="white"/>
<path d="M35.6246 60.5917L34.7749 61.4402L35.6246 62.2887L36.4743 61.4402L35.6246 60.5917Z" fill="white"/>
<path d="M34.1728 60.9762L33.731 61.4175L34.1728 61.8587L34.6146 61.4175L34.1728 60.9762Z" fill="white"/>
<path d="M44.2207 60.9806L43.7788 61.4219L44.2207 61.8631L44.6625 61.4219L44.2207 60.9806Z" fill="white"/>
<path d="M42.7301 60.5723L41.8804 61.4208L42.7301 62.2693L43.5798 61.4208L42.7301 60.5723Z" fill="white"/>
<path d="M41.9072 63.6479H42.8686V62.9759H41.2343L40.8498 62.5919C40.9459 62.4479 40.994 62.3039 41.0901 62.1599L41.763 61.4879L41.0901 60.8159C41.042 60.6719 40.9459 60.5279 40.8498 60.3839L41.1862 60.0479H42.8205V59.3759H41.8592L42.484 58.7519H44.1183V58.0799H42.6282V56.5919H41.9553V58.3199L41.3304 58.9439V57.8879H40.6575V59.5679L40.3691 59.8559C40.2249 59.7599 40.0326 59.6639 39.8884 59.5679L39.2155 58.8959L38.5426 59.5679C38.3503 59.6159 38.158 59.7119 38.0138 59.8559L37.7254 59.5679V57.9359H37.0525V58.8959L36.4276 58.2719V56.6399H35.7547V58.1279H34.2646V58.7999H35.995L36.6199 59.4239H35.5624V60.0959H37.2448L37.4851 60.3359C37.389 60.4799 37.2928 60.6719 37.1967 60.8639L36.5718 61.4879L37.1486 62.0639C37.2448 62.3039 37.3409 62.5439 37.5332 62.7839L37.2448 63.0719L35.5624 63.0239V63.6959H36.6199L35.995 64.3199L34.2646 64.2719V64.9439H35.7547V66.4319H36.4276V64.7999L37.0525 64.1759V65.1359H37.7254V63.5039L38.0619 63.1679C38.2061 63.2639 38.3503 63.3119 38.5426 63.3599L39.1674 63.9839L39.7923 63.3599C39.9846 63.2639 40.1768 63.1679 40.3691 63.0239L40.7056 63.3599L40.6575 65.0399H41.3304V63.9839L41.9553 64.6079L41.9072 66.3359H42.5802V64.8479H44.1664V64.1759H42.5321L41.9072 63.6479ZM40.4652 61.0559L40.0326 61.4879L39.2155 60.6719L39.6481 60.2399C40.0326 60.3839 40.321 60.6719 40.4652 61.0559ZM38.3503 61.5359L39.1674 62.3519L38.7348 62.7839C38.3503 62.6399 38.0619 62.3519 37.9177 61.9679L38.3503 61.5359ZM38.7829 60.2399L39.2155 60.6719L38.3984 61.4879L37.9177 61.0079C38.0619 60.6719 38.3984 60.3359 38.7829 60.2399ZM39.6962 62.7839L39.2636 62.3519L40.0807 61.5359L40.4652 61.9199C40.321 62.3039 40.0326 62.6399 39.6962 62.7839Z" fill="white"/>
<g opacity="0.6">
<path d="M63.0854 17.4677L62.6436 17.9089L63.0854 18.3502L63.5272 17.9089L63.0854 17.4677Z" fill="white"/>
<path d="M63.0631 16.9126L62.8252 17.1501L63.0631 17.3877L63.301 17.1501L63.0631 16.9126Z" fill="white"/>
<path d="M63.0763 21.9471L62.8384 22.1847L63.0763 22.4223L63.3142 22.1847L63.0763 21.9471Z" fill="white"/>
<path d="M63.0942 21.0162L62.6523 21.4574L63.0942 21.8986L63.536 21.4574L63.0942 21.0162Z" fill="white"/>
<path d="M61.3085 19.2444L60.8667 19.6857L61.3085 20.1269L61.7504 19.6857L61.3085 19.2444Z" fill="white"/>
<path d="M60.549 19.4705L60.311 19.7081L60.549 19.9457L60.7869 19.7081L60.549 19.4705Z" fill="white"/>
<path d="M65.5905 19.4574L65.3525 19.6949L65.5905 19.9325L65.8284 19.6949L65.5905 19.4574Z" fill="white"/>
<path d="M64.8623 19.2359L64.4204 19.6771L64.8623 20.1184L65.3041 19.6771L64.8623 19.2359Z" fill="white"/>
<path d="M64.4027 20.784H64.8833V20.448H64.0662L63.8739 20.256C63.922 20.208 63.9701 20.112 63.9701 20.016L64.3065 19.68L63.9701 19.344C63.922 19.248 63.922 19.2 63.8739 19.152L64.0181 19.008H64.8353V18.672H64.3546L64.643 18.384H65.4601V18.048H64.7391V17.28H64.4027V18.144L64.0662 18.432V17.904H63.7297V18.768L63.5855 18.912C63.4894 18.864 63.4413 18.816 63.3452 18.768L63.0087 18.432L62.6723 18.768C62.5761 18.816 62.48 18.864 62.3839 18.912L62.2397 18.768V17.952H61.9032V18.432L61.6148 18.144V17.328H61.2783V18.048H60.5093V18.384H61.3745L61.6629 18.72H61.1341V19.056H61.9993L62.1435 19.2C62.0955 19.296 62.0474 19.344 61.9993 19.44L61.7109 19.728L61.9993 20.016C62.0474 20.16 62.0955 20.256 62.1916 20.352L62.0474 20.496H61.1822V20.832H61.7109L61.4225 21.168H60.5573V21.504H61.3264V22.224H61.6629V21.408L61.9513 21.12V21.6H62.2877V20.784L62.4319 20.64C62.5281 20.688 62.5761 20.736 62.6723 20.736L62.9607 21.024L63.2971 20.688C63.3933 20.64 63.4894 20.592 63.5855 20.544L63.7297 20.688V21.552H64.0662V21.024L64.4027 21.312V22.176H64.7391V21.408H65.4601V21.072H64.643L64.4027 20.784ZM63.6817 19.488L63.4894 19.68L63.1049 19.296L63.3452 19.056C63.4894 19.152 63.6336 19.296 63.6817 19.488ZM62.6242 19.728L63.0087 20.112L62.8165 20.304C62.6242 20.256 62.48 20.064 62.3839 19.92L62.6242 19.728ZM62.8165 19.104L63.0568 19.344L62.6723 19.728L62.4319 19.488C62.48 19.296 62.6242 19.152 62.8165 19.104ZM63.2971 20.352L63.1049 20.16L63.4894 19.776L63.6817 19.968C63.6336 20.112 63.4894 20.256 63.2971 20.352Z" fill="white"/>
</g>
<path d="M146.453 52.6926L143.521 53.8446L144.29 52.0206L143.328 51.6366L142.127 54.4206L141.934 54.5166C141.598 53.9406 141.117 53.5086 140.54 53.1726L140.733 52.6926L142.127 52.3086L141.838 51.3486L140.637 51.6846L140.3 50.4846L139.339 50.7726L139.771 52.3566L139.579 52.7886C138.906 52.5966 138.185 52.5966 137.464 52.7886L137.32 52.4046L138.522 49.7166L137.608 49.2846L136.791 51.1086L135.734 48.1326L134.772 48.5166L135.974 51.4926L134.1 50.6766L133.715 51.6366L136.503 52.8366L136.647 53.1726C136.07 53.5086 135.59 53.9886 135.301 54.5646L134.724 54.3246L134.34 52.9326L133.379 53.2206L133.715 54.4206L132.513 54.7566L132.802 55.7166L134.388 55.2846L134.965 55.5246C134.821 56.1006 134.772 56.7726 134.917 57.3966L134.532 57.5406L131.84 56.3406L131.408 57.2526L133.234 58.0686L130.302 59.2206L130.687 60.1806L133.667 58.9806L132.85 60.8526L133.811 61.2366L135.013 58.4526L135.301 58.3086C135.638 58.9326 136.118 59.4606 136.695 59.7966L136.407 60.4206L135.013 60.8046L135.301 61.7646L136.503 61.4286L136.839 62.6286L137.801 62.3406L137.32 60.7566L137.56 60.2286C138.185 60.4206 138.858 60.4686 139.531 60.2766L139.627 60.5166L138.426 63.2526L139.339 63.6846L140.156 61.8606L141.31 64.7406L142.271 64.3566L141.117 61.4286L142.944 62.1966L143.328 61.2366L140.54 60.0366L140.492 59.8926C141.117 59.5566 141.646 59.0766 141.982 58.5006L142.511 58.7406L142.896 60.1326L143.857 59.8446L143.521 58.6446L144.722 58.3086L144.434 57.3486L142.848 57.8286L142.415 57.6366C142.607 56.9166 142.655 56.1486 142.415 55.4286L142.607 55.3326L145.347 56.5326L145.78 55.6206L143.953 54.8046L146.837 53.6526L146.453 52.6926ZM141.021 54.9006L139.627 55.4766L140.204 54.1326C140.54 54.2766 140.829 54.5646 141.021 54.9006ZM139.291 53.7006L138.618 55.2846L137.993 53.7486C138.426 53.6046 138.858 53.6046 139.291 53.7006ZM137.032 54.1326L137.608 55.5726L136.214 54.9966C136.455 54.6606 136.695 54.3726 137.032 54.1326ZM135.878 55.9086L137.128 56.4366L135.83 56.9646C135.782 56.6286 135.782 56.2446 135.878 55.9086ZM136.166 57.9246L137.705 57.3006L137.032 58.8366C136.695 58.6446 136.407 58.3086 136.166 57.9246ZM137.945 59.2686L138.57 57.8766L139.147 59.3166C138.762 59.4126 138.329 59.3646 137.945 59.2686ZM140.108 58.9806L139.483 57.4926L141.021 58.1646C140.781 58.5006 140.492 58.7886 140.108 58.9806ZM141.454 57.2046L139.771 56.4846L141.454 55.8126C141.598 56.2926 141.55 56.7726 141.454 57.2046Z" fill="white"/>
<path d="M155.729 19.0561C156.419 19.0561 156.979 18.4973 156.979 17.8081C156.979 17.1188 156.419 16.5601 155.729 16.5601C155.039 16.5601 154.479 17.1188 154.479 17.8081C154.479 18.4973 155.039 19.0561 155.729 19.0561Z" fill="white"/>
<path d="M8.5493 86.5441C8.78822 86.5441 8.9819 86.3506 8.9819 86.1121C8.9819 85.8735 8.78822 85.6801 8.5493 85.6801C8.31038 85.6801 8.1167 85.8735 8.1167 86.1121C8.1167 86.3506 8.31038 86.5441 8.5493 86.5441Z" fill="white"/>
<path d="M9.751 48.7681C10.1757 48.7681 10.5201 48.4242 10.5201 48.0001C10.5201 47.5759 10.1757 47.2321 9.751 47.2321C9.32626 47.2321 8.98193 47.5759 8.98193 48.0001C8.98193 48.4242 9.32626 48.7681 9.751 48.7681Z" fill="white"/>
</g>
<path d="M62.7622 53.7956L67.3745 52.5476L71.1185 66.0588L66.5063 67.3068L62.7622 53.7956Z" fill="#333333"/>
<path fill-rule="evenodd" clip-rule="evenodd" d="M67.1031 52.9274L63.142 54.0127L66.6691 66.8727L70.6302 65.7875L67.1031 52.9274ZM62.7622 53.7956L66.5063 67.3068L71.1185 66.0588L67.3745 52.5476L62.7622 53.7956Z" fill="#353535"/>
<path d="M86.5828 53.7414L81.9706 52.4934L78.2808 66.2216L82.893 67.4696L86.5828 53.7414Z" fill="#353535"/>
<path fill-rule="evenodd" clip-rule="evenodd" d="M82.1876 52.8732L86.1487 53.9585L82.6217 67.0356L78.6606 65.9503L82.1876 52.8732ZM86.5828 53.7414L82.893 67.4696L78.2808 66.2216L81.9706 52.4934L86.5828 53.7414Z" fill="#353535"/>
<path d="M65.0956 41.8038L69.111 45.6564L67.7545 50.8655L62.3826 52.2764L58.3672 48.4238L59.7237 43.2146L65.0956 41.8038Z" fill="#FEC955"/>
<path fill-rule="evenodd" clip-rule="evenodd" d="M66.1807 37.7343L73.2348 44.4627L70.793 53.9043L61.2972 56.346L54.2432 49.6176L56.6849 40.176L66.1807 37.7343ZM58.3671 48.4238L62.3824 52.2764L67.7543 50.8656L69.1109 45.6565L65.0955 41.8039L59.7236 43.2147L58.3671 48.4238Z" fill="#333333"/>
<path d="M84.7925 41.7495L90.0016 43.1603L91.4124 48.3694L87.6141 52.1678L82.4049 50.757L80.9941 45.5478L84.7925 41.7495Z" fill="#FEC955"/>
<path fill-rule="evenodd" clip-rule="evenodd" d="M83.6529 37.6799L92.9859 40.176L95.482 49.509L88.645 56.346L79.312 53.8499L76.8159 44.5169L83.6529 37.6799ZM82.3506 50.8113L87.5597 52.2221L91.3581 48.4238L89.9473 43.2146L84.7924 41.7496L80.9941 45.5479L82.3506 50.8113Z" fill="#333333"/>
<path d="M75.5136 189.938L56.2507 179.032C56.1422 178.978 56.0879 178.815 56.0879 178.706L64.607 111.693C64.607 111.53 64.7698 111.422 64.9326 111.422H81.5367C81.6994 111.422 81.8622 111.53 81.8622 111.693L92.7688 178.76C92.7688 178.869 92.7146 179.032 92.606 179.086L75.7849 189.938C75.7306 190.047 75.6221 190.047 75.5136 189.938Z" fill="#FEC955"/>
<path fill-rule="evenodd" clip-rule="evenodd" d="M64.8238 111.476C64.9866 110.391 65.9091 109.577 66.9943 109.577H83.5984C84.6836 109.577 85.5518 110.336 85.7689 111.422L96.6755 178.489C96.8383 179.357 96.4584 180.171 95.6988 180.66L78.8776 191.512C78.1722 191.946 77.304 192 76.6529 191.566L57.39 180.66C56.6303 180.225 56.1962 179.357 56.3047 178.489L58.1496 178.706M58.0954 178.76L56.2505 178.543L64.7696 111.53M68.2966 113.266L60.0488 177.946L77.6296 187.876L92.8772 178.055L82.2961 113.266H68.2966Z" fill="#333333"/>
<path d="M86.6917 140.072L89.0249 154.126L91.1954 167.691L79.1493 160.529L76.7075 148.374L86.6917 140.072Z" fill="#FC7E24"/>
<path d="M66.2889 129.057L70.6299 131.661L72.5833 139.312L66.8858 144.847L64.2812 145.118L65.0952 138.607L66.2889 129.057Z" fill="#FC7E24"/>
<path d="M112.086 124.119C112.086 124.119 126.737 111.584 127.985 117.607C129.287 123.576 112.086 124.119 112.086 124.119Z" fill="#598F22" stroke="#333333" stroke-width="0.9386"/>
<path d="M112.086 124.119C112.086 124.119 120.334 122.22 121.582 119.995Z" fill="#598F22"/>
<path d="M112.086 124.065C114.582 123.359 117.078 122.491 119.411 121.351C120.171 120.972 120.985 120.592 121.582 119.995H121.636C120.768 121.568 118.814 122.22 117.187 122.762C115.559 123.305 113.714 123.902 112.086 124.065Z" fill="#333333"/>
<path d="M43.4448 106.809L45.4525 105.344C45.4525 105.344 59.0722 117.607 81.9164 121.08C104.761 124.499 119.791 124.716 124.783 123.522C129.83 122.328 142.201 116.522 142.147 121.569C142.093 126.615 141.116 125.475 135.093 124.499C129.07 123.522 129.992 124.065 122.993 124.77C115.993 125.475 94.0168 123.793 81.6451 121.948C64.4441 119.344 46.5377 111.693 43.4448 106.809Z" fill="#598F22" stroke="#333333" stroke-width="0.9386"/>
<path d="M123.264 124.499C123.264 124.499 136.232 121.297 139.108 123.088Z" fill="#598F22"/>
<path d="M123.264 124.445C125.868 123.739 128.473 123.142 131.132 122.654C133.682 122.274 136.775 121.623 139.162 123.034L139.108 123.088C137.86 122.654 136.504 122.817 135.201 122.925C132.542 123.088 129.884 123.359 127.225 123.793C125.923 124.01 124.566 124.227 123.264 124.499V124.445Z" fill="#333333"/>
<path d="M113.822 124.878C113.822 124.878 137.697 125.095 133.953 131.715C130.209 138.335 113.822 124.878 113.822 124.878Z" fill="#598F22" stroke="#333333" stroke-width="1.1604"/>
<path d="M113.822 124.878C113.822 124.878 123.047 129.762 126.031 128.785Z" fill="#598F22"/>
<path d="M113.822 124.824C116.752 126.181 119.791 127.429 122.884 128.243C123.915 128.514 124.946 128.84 126.031 128.731V128.785C123.915 129.599 121.582 128.568 119.628 127.754C117.621 126.886 115.667 125.909 113.768 124.878L113.822 124.824Z" fill="#333333"/>
<path d="M99.2256 122.925C99.2256 122.925 112.737 107.732 114.636 114.026C116.535 120.32 99.2256 122.925 99.2256 122.925Z" fill="#598F22" stroke="#333333" stroke-width="0.9815"/>
<path d="M99.2256 122.925C99.2256 122.925 107.311 119.886 108.396 117.39Z" fill="#598F22"/>
<path d="M99.1714 122.925C102.427 121.46 105.846 119.886 108.396 117.445C107.69 119.235 105.846 120.158 104.218 120.917C102.644 121.623 100.854 122.545 99.1714 122.925Z" fill="#333333"/>
<path d="M96.187 123.956C96.187 123.956 116.155 127.7 111.76 132.584C107.365 137.413 96.187 123.956 96.187 123.956Z" fill="#598F22" stroke="#333333" stroke-width="0.9815"/>
<path d="M96.187 123.956C96.187 123.956 102.97 129.328 105.683 129.002Z" fill="#598F22"/>
<path d="M96.187 123.902C99.1171 125.91 102.264 128.08 105.629 129.002C103.784 129.328 101.993 128.189 100.528 127.212C99.0629 126.235 97.3808 125.15 96.187 123.902Z" fill="#333333"/>
<path d="M83.2729 121.135C83.2729 121.135 99.2259 108.546 99.9856 115.057C100.745 121.569 83.2729 121.135 83.2729 121.135Z" fill="#598F22" stroke="#333333" stroke-width="0.9815"/>
<path d="M83.2729 121.135C83.2729 121.135 91.792 119.561 93.3114 117.282Z" fill="#598F22"/>
<path d="M83.2729 121.08C86.6914 120.212 90.3812 119.236 93.3114 117.282C92.3347 118.91 90.327 119.453 88.5906 119.995C86.9085 120.429 84.9551 120.972 83.2729 121.08Z" fill="#333333"/>
<path d="M115.993 117.336C115.993 117.336 129.07 101.492 131.512 107.569C133.954 113.646 115.993 117.336 115.993 117.336Z" fill="#598F22" stroke="#333333"/>
<path d="M115.993 117.336C115.993 117.336 124.295 113.809 125.218 111.313Z" fill="#598F22"/>
<path d="M115.993 117.336C118.489 116.143 120.931 114.786 123.21 113.158C123.97 112.616 124.729 112.127 125.218 111.313H125.272C124.621 113.158 122.722 114.135 121.148 115.057C119.466 115.871 117.675 116.848 115.993 117.336Z" fill="#333333"/>
<path d="M40.7861 111.747L42.631 109.848C42.631 109.848 59.1809 120.266 83.8157 119.67C108.451 119.073 124.186 116.577 129.287 114.406C134.333 112.236 146.271 103.879 147.139 109.197C148.007 114.515 146.759 113.484 140.248 113.592C133.737 113.701 134.822 114.026 127.605 116.088C120.388 118.15 97.0013 120.375 83.7072 120.646C65.0954 121.026 44.91 116.305 40.7861 111.747Z" fill="#598F22" stroke="#333333"/>
<path d="M127.822 115.709C127.822 115.709 140.899 110.011 144.209 111.368Z" fill="#598F22"/>
<path d="M127.768 115.655C130.372 114.407 132.977 113.321 135.69 112.345C138.294 111.476 141.442 110.174 144.155 111.259L144.1 111.314C142.69 111.097 141.333 111.531 139.976 111.856C138.62 112.236 137.209 112.507 135.853 112.941C133.139 113.755 130.426 114.678 127.768 115.709C127.822 115.763 127.768 115.655 127.768 115.655Z" fill="#333333"/>
<path d="M117.946 117.825C117.946 117.825 143.015 113.701 140.356 121.297C137.698 128.894 117.946 117.825 117.946 117.825Z" fill="#598F22" stroke="#333333" stroke-width="1.2364"/>
<path d="M117.946 117.825C117.946 117.825 128.527 121.298 131.457 119.724Z" fill="#598F22"/>
<path d="M117.946 117.825C121.256 118.747 124.675 119.453 128.093 119.778C129.233 119.887 130.372 120.05 131.457 119.724L131.512 119.778C129.45 120.972 126.845 120.375 124.62 119.887C122.341 119.344 120.117 118.693 117.946 117.933C117.946 117.879 117.946 117.825 117.946 117.825Z" fill="#333333"/>
<path d="M102.265 118.476C102.265 118.476 113.66 100.081 116.807 106.321C119.954 112.561 102.265 118.476 102.265 118.476Z" fill="#598F22" stroke="#333333" stroke-width="1.0457"/>
<path d="M102.265 118.476C102.265 118.476 110.241 113.81 110.892 110.988Z" fill="#598F22"/>
<path d="M102.265 118.476C104.706 116.902 106.985 115.166 109.102 113.158C109.807 112.507 110.458 111.856 110.892 110.988H110.947C110.892 111.205 110.838 111.476 110.729 111.693C110.024 113.267 108.559 114.406 107.202 115.383C105.629 116.577 104.001 117.608 102.265 118.476Z" fill="#333333"/>
<path d="M99.2803 120.104C99.2803 120.104 120.931 120.375 117.187 126.29C113.443 132.204 99.2803 120.104 99.2803 120.104Z" fill="#598F22" stroke="#333333" stroke-width="1.0457"/>
<path d="M99.2803 120.104C99.2803 120.104 107.365 124.499 110.133 123.631Z" fill="#598F22"/>
<path d="M99.2803 120.05C101.885 121.298 104.544 122.383 107.311 123.142C108.233 123.414 109.156 123.631 110.078 123.577V123.631C109.861 123.685 109.59 123.794 109.373 123.848C107.637 124.065 105.954 123.414 104.381 122.708C102.699 121.949 100.745 121.135 99.2803 120.05Z" fill="#333333"/>
<path d="M85.2266 119.507C85.2266 119.507 99.6602 103.391 101.668 110.065C103.676 116.739 85.2266 119.507 85.2266 119.507Z" fill="#598F22" stroke="#333333" stroke-width="1.0457"/>
<path d="M85.2266 119.507C85.2266 119.507 93.8542 116.306 95.0479 113.647Z" fill="#598F22"/>
<path d="M85.1724 119.453C87.8312 118.313 90.4358 117.011 92.8233 115.437C93.6372 114.895 94.3969 114.406 94.9937 113.647H95.048C94.9395 113.864 94.8852 114.135 94.7224 114.298C93.7457 115.709 92.1179 116.577 90.5985 117.337C88.8622 118.096 86.963 119.073 85.1724 119.453Z" fill="#333333"/>
<path fill-rule="evenodd" clip-rule="evenodd" d="M74.9169 65.6246H64.8242C64.6072 65.6246 64.4444 65.7332 64.3359 65.8417L57.8787 73.3841C57.6617 73.6554 57.2818 73.7096 57.0105 73.5469L50.9332 69.9113C50.8789 69.857 50.7704 69.857 50.7162 69.8028L42.6854 68.5548C42.0885 68.4462 41.6544 69.1516 42.0885 69.64L56.3051 87.1123C56.3594 87.1666 56.4136 87.2751 56.4136 87.3293L58.8554 95.957C58.8554 96.0112 58.9097 96.1197 58.9639 96.174L64.4444 103.716C64.5529 103.879 64.6072 104.042 64.5529 104.205L62.3282 117.499C62.2739 117.716 62.3282 117.879 62.491 118.041L69.2194 126.072C69.2737 126.126 69.3279 126.181 69.4365 126.235L74.6998 128.894C74.8626 129.002 75.1339 129.002 75.2967 128.894L80.5601 126.235C80.6686 126.181 80.7229 126.126 80.7772 126.072L87.5056 118.041C87.6141 117.879 87.6684 117.716 87.6684 117.499L85.4437 104.205C85.3894 104.042 85.4437 103.825 85.5522 103.716L91.0326 96.174C91.0869 96.1197 91.0869 96.0655 91.1412 95.957L93.5829 87.3293C93.5829 87.2208 93.6372 87.1666 93.6915 87.1123L107.908 69.64C108.288 69.1516 107.908 68.4462 107.311 68.5548L99.2804 69.8028C99.1719 69.8028 99.1176 69.857 99.0634 69.9113L92.9861 73.5469C92.7148 73.7096 92.3349 73.6554 92.1179 73.3841L85.6607 65.8417C85.5522 65.6789 85.3352 65.6246 85.1724 65.6246H74.9169Z" fill="#FEC955"/>
<path fill-rule="evenodd" clip-rule="evenodd" d="M62.9249 64.6481C63.4132 64.1055 64.1186 63.7799 64.824 63.7799H84.9551C85.7148 63.7799 86.366 64.1055 86.8543 64.6481L92.6603 71.4308L97.9237 68.2836C98.195 68.1208 98.5206 68.0123 98.8462 67.9581L106.877 66.71C109.156 66.3845 110.675 68.989 109.21 70.7797L95.1564 88.0349L92.7688 96.4455C92.7146 96.7168 92.5518 96.9881 92.389 97.2594L87.2341 104.422L89.4046 117.228C89.5131 117.933 89.3503 118.693 88.862 119.235L82.0793 127.266C81.8622 127.537 81.5909 127.755 81.2653 127.917L76.002 130.576C75.2966 130.956 74.4826 130.956 73.7772 130.576L68.5138 127.917C68.1883 127.755 67.917 127.537 67.6999 127.266L60.9715 119.235C60.4831 118.693 60.3203 117.933 60.4288 117.228L62.5993 104.422L57.4444 97.2594C57.2817 97.0424 57.1189 96.771 57.0646 96.4455L54.6771 88.0349L40.6233 70.7797C39.1582 68.989 40.6776 66.3845 42.9566 66.71L50.9873 67.9581C51.3129 68.0123 51.6384 68.1208 51.9097 68.2836L57.1731 71.4308L62.9249 64.6481ZM65.3667 67.4697L59.2893 74.578C58.4754 75.5004 57.1189 75.7175 56.0879 75.1206L50.1734 71.5936L45.3983 70.8882L57.7157 85.973C57.9328 86.2443 58.0956 86.5698 58.2041 86.8954L60.5916 95.306L65.9093 102.686C66.2891 103.228 66.4519 103.934 66.3434 104.585L64.1729 117.336L70.413 124.77L74.9167 127.049L79.4205 124.77L85.6606 117.336L83.4901 104.585C83.3816 103.934 83.5443 103.228 83.9242 102.686L89.2418 95.306L91.6293 86.8954C91.7379 86.5698 91.9006 86.2443 92.1177 85.973L104.435 70.8882L99.6601 71.5936L93.7455 75.1206C92.7146 75.7718 91.358 75.5547 90.5441 74.578L84.4125 67.4697H65.3667Z" fill="#333333"/>
<path d="M66.1266 81.7404L67.2661 82.1202C67.8087 82.283 68.297 82.7171 68.5141 83.2597C69.0567 84.7248 67.8087 86.1898 66.2894 85.8643L65.0956 85.593C64.3359 85.4302 63.7933 84.8876 63.5763 84.1279C63.1964 82.6628 64.6073 81.252 66.1266 81.7404Z" fill="#353535" stroke="#353535" stroke-width="3.0837"/>
<path d="M84.1956 85.539L85.3351 85.1592C85.8777 84.9964 86.3661 84.5623 86.5831 84.0197C87.1257 82.5546 85.8777 81.0895 84.3584 81.4151L83.1646 81.6864C82.405 81.8492 81.8623 82.3918 81.6453 83.1515C81.2112 84.6708 82.6763 86.0273 84.1956 85.539Z" fill="#353535" stroke="#353535" stroke-width="3.0837"/>
<path d="M83.5446 90.4223L90.9242 89.6084L89.2421 95.4687L83.7074 102.957L80.0176 97.9104L83.5446 90.4223Z" fill="#FC7E24"/>
<path d="M64.8242 113.321L66.1808 105.453L69.0024 106.104L69.8163 110.771L66.1265 113.972L64.8242 113.321Z" fill="#FC7E24"/>
<path d="M75.1882 67.4697L76.1107 71.8649L69.8163 76.6399L62.5452 73.547L62.2739 71.1052L65.1498 67.4154H75.1882V67.4697Z" fill="#FC7E24"/>
<path d="M92.9315 45.8191C92.9315 45.8191 100.962 48.4779 102.102 50.1058C103.241 51.6794 105.737 55.8575 105.846 57.1598C105.954 58.4078 110.404 60.4698 111.163 60.8496C111.923 61.2294 112.411 63.834 112.411 63.834C112.411 63.834 101.125 63.6169 98.6289 63.2914C96.0786 62.9658 91.5749 59.4931 91.5749 59.4931L88.4277 53.7956L92.9857 50.16L92.9315 45.8191Z" fill="#D0213B" stroke="#333333" stroke-width="3" stroke-miterlimit="10"/>
<path d="M57.2276 63.5626C57.2276 63.5626 56.5765 51.8421 62.274 49.9972C67.9714 48.1523 69.2195 48.3693 71.0101 47.6639C72.855 46.9585 76.2192 45.4392 79.4207 47.2841C82.6221 49.129 86.6917 52.0049 90.056 53.1444C93.4202 54.2839 94.3427 60.2527 94.2341 61.2836C94.1799 62.3146 93.583 66.2215 93.583 66.2215L57.2276 63.5626Z" fill="#D0213B" stroke="#333333" stroke-width="3" stroke-miterlimit="10"/>
<path d="M53.809 67.0354C53.809 67.0354 53.7547 70.9965 54.9485 72.2987C56.1422 73.601 55.5453 75.5002 56.8476 75.3917C58.1499 75.3374 62.8707 70.074 66.1264 69.9112C69.3278 69.7484 70.3045 69.7484 74.4827 69.9112C78.6609 70.074 82.839 69.0973 84.1413 69.0973C85.4436 69.0973 88.5365 72.2445 89.5675 73.4382C90.5984 74.632 92.3348 75.5544 93.6371 74.3607C94.9394 73.1127 95.5363 68.7717 95.5363 68.7717C95.5363 68.7717 91.7379 62.8029 88.8078 62.6401C85.9319 62.4774 83.7072 59.6557 78.281 59.9271C72.8548 60.1984 63.7389 60.0898 61.4599 61.989C59.1809 63.8882 57.4988 63.1285 56.305 63.7254C55.3826 64.2137 54.7857 65.8959 53.809 67.0354Z" fill="white" stroke="#333333" stroke-width="3" stroke-miterlimit="10"/>
<path d="M109.156 61.9349L112.357 60.09L115.559 61.9349V65.6247L112.357 67.4696L109.156 65.6247V61.9349Z" fill="white" stroke="#333333" stroke-width="3" stroke-miterlimit="10"/>
<path d="M95.4821 122.871C96.9805 122.871 98.1952 121.656 98.1952 120.158C98.1952 118.659 96.9805 117.445 95.4821 117.445C93.9837 117.445 92.769 118.659 92.769 120.158C92.769 121.656 93.9837 122.871 95.4821 122.871Z" fill="white" stroke="#333333" stroke-width="1.2296"/>
<path d="M102.807 127.32C104.306 127.32 105.52 126.106 105.52 124.607C105.52 123.109 104.306 121.894 102.807 121.894C101.309 121.894 100.094 123.109 100.094 124.607C100.094 126.106 101.309 127.32 102.807 127.32Z" fill="white" stroke="#333333" stroke-width="1.2296"/>
<path d="M106.172 121.84C107.67 121.84 108.885 120.625 108.885 119.127C108.885 117.629 107.67 116.414 106.172 116.414C104.673 116.414 103.458 117.629 103.458 119.127C103.458 120.625 104.673 121.84 106.172 121.84Z" fill="white" stroke="#333333" stroke-width="1.2296"/>
</g>
<defs>
<clipPath id="clip0_10311_689">
<rect width="160" height="160" rx="8" fill="white"/>
</clipPath>
<clipPath id="clip1_10311_689">
<rect width="721" height="168" fill="white" transform="translate(-0.0546875)"/>
</clipPath>
</defs>
</svg>
