<svg width="1500" height="350" viewBox="0 0 1500 350" fill="none" xmlns="http://www.w3.org/2000/svg">
<g clip-path="url(#clip0_10311_11613)">
<path d="M1500 0H0V350H1500V0Z" fill="#243D51"/>
<path d="M1500 0H0V350H1500V0Z" fill="#D1E3FA"/>
<path d="M67.9002 34.7H61.9002L64.6002 32L63.3002 30.7V28.7999L59.5002 28.7L63.7002 24.5L62.3002 23.1L58.0002 27.4V23.5H56.0002L54.8002 22.2L52.1002 24.7999V18.7H50.1002V25L47.3002 22.2L46.0002 23.5H44.2002L44.1002 27.2999L39.8002 23L38.4002 24.4L42.8002 28.7999H39.0002V30.6L37.7002 31.9L40.3002 34.5999H34.2002V36.5999H40.4002L37.6002 39.4L38.9002 40.7V42.5L42.7002 42.5999L38.4002 46.9L39.8002 48.2999L44.2002 43.9V47.7999H46.0002L47.4002 49.2L50.2002 46.5V52.5H52.2002V46.5L54.9002 49.2L56.2002 47.9H58.1002L58.2002 44.0999L62.4002 48.2999L63.8002 46.9L59.5002 42.5999H63.4002V40.7L64.7002 39.4L62.0002 36.5999H68.0002V34.7H67.9002ZM63.1002 30.7L59.1002 34.7H53.5002L57.5002 30.7H63.1002ZM56.1002 23.7999V29.2999L52.1002 33.2999V27.7L56.1002 23.7999ZM46.2002 23.9L50.1002 27.7999V33.2999L46.1002 29.2999L46.2002 23.9ZM39.3002 30.7999H44.8002L48.7002 34.7H43.0002L39.3002 30.7999ZM39.3002 40.5L43.2002 36.5999H48.7002L44.7002 40.5999L39.3002 40.5ZM46.2002 47.5V41.9L50.1002 38V43.7999L46.2002 47.5ZM56.1002 47.5999L52.1002 43.5999V38L56.1002 42V47.5999ZM63.1002 40.5999H57.5002L53.5002 36.5999H59.2002L63.1002 40.5999Z" fill="white"/>
<path d="M1434.6 59.8H1428.6L1431.3 57.1L1430 55.8V53.9L1426.2 53.8L1430.4 49.6L1429 48.2L1424.7 52.5V48.6H1422.7L1421.5 47.3L1418.8 49.9V44H1416.8V50.2L1414 47.4L1412.7 48.7H1410.9L1410.8 52.5L1406.5 48.2L1405.1 49.6L1409.5 54H1405.6V55.8L1404.3 57.1L1406.9 59.8H1400.8V61.8H1407L1404.2 64.6L1405.5 65.9V67.7L1409.3 67.8L1405 72.1L1406.4 73.5L1410.8 69.1V73H1412.5L1413.9 74.4L1416.7 71.7V77.7H1418.7V71.7L1421.4 74.4L1422.7 73.1H1424.6L1424.7 69.3L1428.9 73.5L1430.3 72.1L1426 67.8H1429.9V65.9L1431.2 64.6L1428.5 61.8H1434.5V59.8H1434.6ZM1429.8 55.9L1425.8 59.9H1420.2L1424.2 55.9H1429.8ZM1422.8 49V54.5L1418.8 58.5V52.9L1422.8 49ZM1412.9 49.1L1416.8 53V58.5L1412.8 54.5L1412.9 49.1ZM1406.1 55.9H1411.6L1415.5 59.8H1409.8L1406.1 55.9ZM1406.1 65.7L1410 61.8H1415.5L1411.5 65.8L1406.1 65.7ZM1412.9 72.7V67.1L1416.8 63.2V69L1412.9 72.7ZM1422.8 72.8L1418.8 68.8V63.2L1422.8 67.2V72.8ZM1429.8 65.8H1424.2L1420.2 61.8H1425.9L1429.8 65.8Z" fill="white"/>
<path opacity="0.11" d="M365.8 227.1L360.5 229.9L361.7 226.2L359.9 225.6L359 224L355.6 225.7L357.4 220L355.5 219.4L353.7 225.2L351.9 221.8L350.2 222.7L348.5 222.1L347.3 225.7L344.5 220.3L342.8 221.2L345.7 226.7L342 225.5L341.4 227.3L339.8 228.1L341.5 231.5L335.7 229.7L335.1 231.6L341 233.5L337.5 235.3L338.4 236.9L337.8 238.6L341.4 239.8L336 242.6L336.9 244.3L342.4 241.4L341.2 245.1L343 245.7L343.8 247.3L347.2 245.6L345.4 251.4L347.3 252L349.2 246.1L351 249.6L352.5 248.8L354.4 249.4L355.6 245.7L358.4 251L360.1 250.1L357.3 244.8L361 246L361.6 244.2L363.3 243.4L361.6 240L367.3 241.8L367.9 239.9L362.1 238.1L365.5 236.3L364.6 234.6L365.2 232.8L361.5 231.6L366.8 228.8L365.8 227.1ZM359.7 225.8L358 231.1L353 233.7L354.7 228.2L359.7 225.8ZM350.3 222.9L352.8 227.8L351.1 233.1L348.5 228.1L350.3 222.9ZM341.6 227.5L346.9 229.2L349.4 234.1L344 232.4L341.6 227.5ZM338.7 236.8L343.6 234.2L348.8 235.8L343.8 238.4L338.7 236.8ZM343.2 245.5L344.9 240.2L349.8 237.7L348.1 243.1L343.2 245.5ZM352.5 248.5L349.9 243.5L351.6 238.2L354.3 243.3L352.5 248.5ZM361.3 244L356 242.3L353.4 237.3L358.9 239L361.3 244ZM364.3 234.6L359.3 237.2L353.9 235.5L359 232.9L364.3 234.6Z" fill="white"/>
<path d="M236.05 26.5926L234.283 28.3604L236.05 30.1281L237.818 28.3604L236.05 26.5926Z" fill="white"/>
<path d="M236.028 24.3505L235.108 25.2698L236.028 26.189L236.947 25.2698L236.028 24.3505Z" fill="white"/>
<path d="M236.018 45.2544L235.099 46.1736L236.018 47.0928L236.938 46.1736L236.018 45.2544Z" fill="white"/>
<path d="M236.021 41.305L234.253 43.0728L236.021 44.8405L237.788 43.0728L236.021 41.305Z" fill="white"/>
<path d="M228.661 33.9967L226.894 35.7644L228.661 37.5322L230.429 35.7644L228.661 33.9967Z" fill="white"/>
<path d="M225.572 34.8689L224.652 35.7881L225.572 36.7073L226.491 35.7881L225.572 34.8689Z" fill="white"/>
<path d="M246.546 34.8073L245.626 35.7266L246.546 36.6458L247.465 35.7266L246.546 34.8073Z" fill="white"/>
<path d="M243.374 34.0272L241.606 35.7949L243.374 37.5627L245.142 35.7949L243.374 34.0272Z" fill="white"/>
<path d="M241.6 40.3001H243.6V38.9001H240.2L239.4 38.1001C239.6 37.8001 239.7 37.5001 239.9 37.2001L241.3 35.8001L239.9 34.4001C239.8 34.1001 239.6 33.8001 239.4 33.5001L240.1 32.8001H243.5V31.4001H241.5L242.8 30.1001H246.2V28.7001H243.1V25.6001H241.7V29.2001L240.4 30.5001V28.3001H239V31.8001L238.4 32.4001C238.1 32.2001 237.7 32.0001 237.4 31.8001L236 30.4001L234.6 31.8001C234.2 31.9001 233.8 32.1001 233.5 32.4001L232.9 31.8001V28.4001H231.5V30.4001L230.2 29.1001V25.7001H228.8V28.8001H225.7V30.2001H229.3L230.6 31.5001H228.4V32.9001H231.9L232.4 33.4001C232.2 33.7001 232 34.1001 231.8 34.5001L230.5 35.8001L231.7 37.0001C231.9 37.5001 232.1 38.0001 232.5 38.5001L231.9 39.1001L228.4 39.0001V40.4001H230.6L229.3 41.7001L225.7 41.6001V43.0001H228.8V46.1001H230.2V42.7001L231.5 41.4001V43.4001H232.9V40.0001L233.6 39.3001C233.9 39.5001 234.2 39.6001 234.6 39.7001L235.9 41.0001L237.2 39.7001C237.6 39.5001 238 39.3001 238.4 39.0001L239.1 39.7001L239 43.2001H240.4V41.0001L241.7 42.3001L241.6 45.9001H243V42.8001H246.1V41.4001H242.7L241.6 40.3001ZM238.7 34.9001L237.8 35.8001L236.1 34.1001L237 33.2001C237.8 33.5001 238.4 34.2001 238.7 34.9001ZM234.3 35.9001L236 37.6001L235.1 38.5001C234.3 38.2001 233.7 37.6001 233.4 36.8001L234.3 35.9001ZM235.1 33.2001L236 34.1001L234.3 35.8001L233.3 34.8001C233.7 34.1001 234.3 33.5001 235.1 33.2001ZM237 38.5001L236.1 37.6001L237.8 35.9001L238.6 36.7001C238.4 37.6001 237.8 38.2001 237 38.5001Z" fill="white"/>
<path d="M531.893 44.8588L530.762 45.9902L531.893 47.1216L533.024 45.9902L531.893 44.8588Z" fill="white"/>
<path d="M531.934 43.3663L531.298 44.0027L531.934 44.6391L532.571 44.0027L531.934 43.3663Z" fill="white"/>
<path d="M531.971 56.7508L531.334 57.3872L531.971 58.0236L532.607 57.3872L531.971 56.7508Z" fill="white"/>
<path d="M531.887 54.2617L530.755 55.3931L531.887 56.5244L533.018 55.393L531.887 54.2617Z" fill="white"/>
<path d="M527.177 49.5515L526.045 50.6829L527.177 51.8142L528.308 50.6829L527.177 49.5515Z" fill="white"/>
<path d="M525.261 50.0782L524.625 50.7146L525.261 51.351L525.898 50.7146L525.261 50.0782Z" fill="white"/>
<path d="M538.574 50.1109L537.938 50.7473L538.574 51.3837L539.211 50.7473L538.574 50.1109Z" fill="white"/>
<path d="M536.58 49.5588L535.449 50.6902L536.58 51.8215L537.711 50.6902L536.58 49.5588Z" fill="white"/>
<path d="M535.4 53.6002H536.7V52.7002H534.5L534 52.2002C534.1 52.0002 534.2 51.8002 534.3 51.6002L535.2 50.7002L534.3 49.8002C534.2 49.6002 534.1 49.4002 534 49.2002L534.4 48.8002H536.6V47.9002H535.3L536.1 47.1002H538.3V46.2002H536.3V44.2002H535.4V46.5002L534.6 47.3002V45.9002H533.7V48.2002L533.3 48.6002C533.1 48.5002 532.9 48.3002 532.6 48.2002L531.7 47.3002L530.8 48.2002C530.5 48.3002 530.3 48.4002 530.1 48.6002L529.7 48.2002V46.0002H528.8V47.3002L528 46.5002V44.3002H527.1V46.3002H525.1V47.2002H527.4L528.2 48.0002H526.8V48.9002H529.1L529.4 49.2002C529.3 49.4002 529.1 49.6002 529 49.9002L528.2 50.7002L529 51.5002C529.1 51.8002 529.3 52.2002 529.5 52.4002L529.1 52.8002H526.8V53.7002H528.2L527.4 54.5002H525.1V55.4002H527.1V57.4002H528V55.2002L528.8 54.4002V55.7002H529.7V53.5002L530.1 53.1002C530.3 53.2002 530.5 53.3002 530.7 53.4002L531.5 54.2002L532.3 53.4002C532.6 53.3002 532.8 53.2002 533.1 53.0002L533.5 53.4002V55.7002H534.4V54.3002L535.2 55.1002V57.4002H536.1V55.4002H538.1V54.5002H535.9L535.4 53.6002ZM533.5 50.2002L532.9 50.8002L531.8 49.7002L532.4 49.1002C533 49.3002 533.4 49.7002 533.5 50.2002ZM530.7 50.8002L531.8 51.9002L531.2 52.5002C530.7 52.3002 530.3 51.9002 530.1 51.4002L530.7 50.8002ZM531.3 49.1002L531.9 49.7002L530.8 50.8002L530.2 50.2002C530.4 49.7002 530.8 49.3002 531.3 49.1002ZM532.5 52.5002L531.9 51.9002L533 50.8002L533.5 51.3002C533.4 51.9002 533 52.3002 532.5 52.5002Z" fill="white"/>
<path d="M81.6174 118.828L79.8496 120.596L81.6174 122.364L83.3851 120.596L81.6174 118.828Z" fill="white"/>
<path d="M81.6653 116.657L80.7461 117.576L81.6653 118.495L82.5846 117.576L81.6653 116.657Z" fill="white"/>
<path d="M81.6556 137.561L80.7363 138.48L81.6556 139.399L82.5748 138.48L81.6556 137.561Z" fill="white"/>
<path d="M81.6579 133.611L79.8901 135.379L81.6579 137.147L83.4256 135.379L81.6579 133.611Z" fill="white"/>
<path d="M74.2282 126.232L72.4604 128L74.2282 129.768L75.9959 128L74.2282 126.232Z" fill="white"/>
<path d="M71.2083 127.034L70.2891 127.953L71.2083 128.872L72.1275 127.953L71.2083 127.034Z" fill="white"/>
<path d="M92.1121 127.043L91.1929 127.962L92.1121 128.882L93.0313 127.962L92.1121 127.043Z" fill="white"/>
<path d="M89.0114 126.192L87.2437 127.96L89.0114 129.728L90.7792 127.96L89.0114 126.192Z" fill="white"/>
<path d="M87.2999 132.6H89.2999V131.2H85.8999L85.0999 130.4C85.2999 130.1 85.3999 129.8 85.5999 129.5L86.9999 128.1L85.5999 126.7C85.4999 126.4 85.2999 126.1 85.0999 125.8L85.7999 125.1H89.1999V123.7H87.1999L88.4999 122.4H91.8999V121H88.7999V117.9H87.3999V121.5L86.0999 122.8V120.6H84.6999V124.1L84.0999 124.7C83.7999 124.5 83.3999 124.3 83.0999 124.1L81.6999 122.7L80.2999 124.1C79.8999 124.2 79.4999 124.4 79.1999 124.7L78.5999 124.1V120.7H77.1999V122.7L75.8999 121.4V118H74.4999V121.1H71.3999V122.5H74.9999L76.2999 123.8H74.0999V125.2H77.5999L78.0999 125.7C77.8999 126 77.6999 126.4 77.4999 126.8L76.1999 128.1L77.3999 129.3C77.5999 129.8 77.7999 130.3 78.1999 130.8L77.5999 131.4L74.0999 131.3V132.7H76.2999L74.9999 134L71.3999 133.9V135.3H74.4999V138.4H75.8999V135L77.1999 133.7V135.7H78.5999V132.3L79.2999 131.6C79.5999 131.8 79.8999 131.9 80.2999 132L81.5999 133.3L82.8999 132C83.2999 131.8 83.6999 131.6 84.0999 131.3L84.7999 132L84.6999 135.5H86.0999V133.3L87.3999 134.6L87.2999 138.2H88.6999V135.1H91.9999V133.7H88.5999L87.2999 132.6ZM84.2999 127.2L83.3999 128.1L81.6999 126.4L82.5999 125.5C83.3999 125.8 83.9999 126.4 84.2999 127.2ZM79.8999 128.2L81.5999 129.9L80.6999 130.8C79.8999 130.5 79.2999 129.9 78.9999 129.1L79.8999 128.2ZM80.7999 125.5L81.6999 126.4L79.9999 128.1L78.9999 127.1C79.2999 126.4 79.9999 125.7 80.7999 125.5ZM82.6999 130.8L81.7999 129.9L83.4999 128.2L84.2999 129C83.9999 129.8 83.3999 130.5 82.6999 130.8Z" fill="white"/>
<path d="M1131.26 153.283L1129.49 155.05L1131.26 156.818L1133.02 155.05L1131.26 153.283Z" fill="white"/>
<path d="M1131.23 151.04L1130.31 151.96L1131.23 152.879L1132.15 151.96L1131.23 151.04Z" fill="white"/>
<path d="M1131.22 171.944L1130.31 172.864L1131.22 173.783L1132.14 172.863L1131.22 171.944Z" fill="white"/>
<path d="M1131.23 167.995L1129.46 169.763L1131.23 171.53L1132.99 169.763L1131.23 167.995Z" fill="white"/>
<path d="M1123.8 160.615L1122.03 162.383L1123.8 164.15L1125.56 162.383L1123.8 160.615Z" fill="white"/>
<path d="M1120.78 161.561L1119.86 162.48L1120.78 163.4L1121.7 162.48L1120.78 161.561Z" fill="white"/>
<path d="M1141.68 161.568L1140.76 162.487L1141.68 163.407L1142.6 162.487L1141.68 161.568Z" fill="white"/>
<path d="M1138.51 160.646L1136.74 162.414L1138.51 164.182L1140.28 162.414L1138.51 160.646Z" fill="white"/>
<path d="M1136.8 167H1138.8V165.6H1135.4L1134.6 164.8C1134.8 164.5 1134.9 164.2 1135.1 163.9L1136.5 162.5L1135.1 161.1C1135 160.8 1134.8 160.5 1134.6 160.2L1135.3 159.5H1138.7V158.1H1136.7L1138 156.8H1141.4V155.4H1138.3V152.3H1136.9V155.9L1135.6 157.2V155H1134.2V158.5L1133.6 159.1C1133.3 158.9 1132.9 158.7 1132.6 158.5L1131.2 157.1L1129.8 158.5C1129.4 158.6 1129 158.8 1128.7 159.1L1128.1 158.5V155.1H1126.7V157.1L1125.4 155.8V152.4H1124V155.5H1120.9V156.9H1124.5L1125.8 158.2H1123.6V159.6H1127.1L1127.6 160.1C1127.4 160.4 1127.2 160.8 1127 161.2L1125.7 162.5L1126.9 163.7C1127.1 164.2 1127.3 164.7 1127.7 165.2L1127.1 165.8L1123.6 165.7V167.1H1125.8L1124.5 168.4L1120.9 168.3V169.7H1124V172.8H1125.4V169.4L1126.7 168.1V170.1H1128.1V166.7L1128.8 166C1129.1 166.2 1129.4 166.3 1129.8 166.4L1131.1 167.7L1132.4 166.4C1132.8 166.2 1133.2 166 1133.6 165.7L1134.3 166.4L1134.2 169.9H1135.6V167.7L1136.9 169L1136.8 172.6H1138.2V169.5H1141.3V168.1H1137.9L1136.8 167ZM1133.9 161.6L1133 162.5L1131.3 160.8L1132.2 159.9C1132.9 160.2 1133.6 160.8 1133.9 161.6ZM1129.5 162.6L1131.2 164.3L1130.3 165.2C1129.5 164.9 1128.9 164.3 1128.6 163.5L1129.5 162.6ZM1130.3 159.9L1131.2 160.8L1129.5 162.5L1128.5 161.5C1128.9 160.8 1129.5 160.2 1130.3 159.9ZM1132.2 165.2L1131.3 164.3L1133 162.6L1133.8 163.4C1133.6 164.2 1133 164.9 1132.2 165.2Z" fill="white"/>
<g opacity="0.6">
<path d="M131.359 36.3913L130.44 37.3105L131.359 38.2298L132.278 37.3105L131.359 36.3913Z" fill="white"/>
<path d="M131.313 35.2345L130.818 35.7295L131.313 36.2245L131.808 35.7295L131.313 35.2345Z" fill="white"/>
<path d="M131.34 45.7233L130.845 46.2183L131.34 46.7132L131.835 46.2183L131.34 45.7233Z" fill="white"/>
<path d="M131.377 43.7836L130.458 44.7029L131.377 45.6221L132.296 44.7029L131.377 43.7836Z" fill="white"/>
<path d="M127.663 40.0925L126.744 41.0117L127.663 41.9309L128.582 41.0117L127.663 40.0925Z" fill="white"/>
<path d="M126.082 40.5636L125.587 41.0586L126.082 41.5536L126.577 41.0586L126.082 40.5636Z" fill="white"/>
<path d="M136.571 40.536L136.076 41.031L136.571 41.526L137.066 41.031L136.571 40.536Z" fill="white"/>
<path d="M135.055 40.0749L134.136 40.9941L135.055 41.9134L135.975 40.9941L135.055 40.0749Z" fill="white"/>
<path d="M134.1 43.3H135.1V42.6H133.4L133 42.2C133.1 42.1 133.2 41.9 133.2 41.7L133.9 41L133.2 40.3C133.1 40.1 133.1 40 133 39.9L133.3 39.6H135V38.9H134L134.6 38.3H136.3V37.6H134.8V36H134.1V37.8L133.4 38.4V37.3H132.7V39.1L132.4 39.4C132.2 39.3 132.1 39.2 131.9 39.1L131.2 38.4L130.5 39.1C130.3 39.2 130.1 39.3 129.9 39.4L129.6 39.1V37.4H128.9V38.4L128.3 37.8V36.1H127.6V37.6H126V38.3H127.8L128.4 39H127.3V39.7H129.1L129.4 40C129.3 40.2 129.2 40.3 129.1 40.5L128.5 41.1L129.1 41.7C129.2 42 129.3 42.2 129.5 42.4L129.2 42.7H127.4V43.4H128.5L127.9 44.1H126.1V44.8H127.7V46.3H128.4V44.6L129 44V45H129.7V43.3L130 43C130.2 43.1 130.3 43.2 130.5 43.2L131.1 43.8L131.8 43.1C132 43 132.2 42.9 132.4 42.8L132.7 43.1V44.9H133.4V43.8L134.1 44.4V46.2H134.8V44.6H136.3V43.9H134.6L134.1 43.3ZM132.6 40.6L132.2 41L131.4 40.2L131.9 39.7C132.2 39.9 132.5 40.2 132.6 40.6ZM130.4 41.1L131.2 41.9L130.8 42.3C130.4 42.2 130.1 41.8 129.9 41.5L130.4 41.1ZM130.8 39.8L131.3 40.3L130.5 41.1L130 40.6C130.1 40.2 130.4 39.9 130.8 39.8ZM131.8 42.4L131.4 42L132.2 41.2L132.6 41.6C132.5 41.9 132.2 42.2 131.8 42.4Z" fill="white"/>
</g>
<g opacity="0.6">
<path d="M544.878 162.38L543.181 164.077L544.878 165.774L546.575 164.077L544.878 162.38Z" fill="white"/>
<path d="M544.871 160.331L543.952 161.25L544.871 162.17L545.791 161.25L544.871 160.331Z" fill="white"/>
<path d="M544.866 180.033L543.947 180.952L544.866 181.871L545.786 180.952L544.866 180.033Z" fill="white"/>
<path d="M544.884 176.277L543.187 177.974L544.884 179.671L546.581 177.974L544.884 176.277Z" fill="white"/>
<path d="M537.915 169.395L536.218 171.092L537.915 172.789L539.612 171.092L537.915 169.395Z" fill="white"/>
<path d="M535.019 170.111L534.1 171.03L535.019 171.949L535.938 171.03L535.019 170.111Z" fill="white"/>
<path d="M554.72 170.113L553.8 171.033L554.72 171.952L555.639 171.033L554.72 170.113Z" fill="white"/>
<path d="M551.813 169.389L550.116 171.086L551.813 172.783L553.51 171.086L551.813 169.389Z" fill="white"/>
<path d="M550.1 175.4H552V174.1H548.8L548.1 173.4C548.3 173.1 548.4 172.8 548.5 172.5L549.8 171.2L548.4 169.8C548.3 169.5 548.1 169.2 548 169L548.6 168.4H551.8V167.1H549.9L551.1 165.9H554.3V164.6H551.4V161.7H550.1V165.1L548.9 166.3V164.2H547.6V167.5L547 168.1C546.7 167.9 546.4 167.7 546 167.6L544.7 166.3L543.4 167.6C543 167.7 542.6 167.9 542.3 168.2L541.8 167.7V164.5H540.5V166.4L539.3 165.2V162H538V164.9H535.1V166.2H538.5L539.7 167.4H537.6V168.7H540.9L541.4 169.2C541.2 169.5 541 169.9 540.9 170.2L539.7 171.4L540.9 172.6C541.1 173.1 541.3 173.6 541.6 174L541.1 174.6L537.8 174.5V175.8H539.9L538.7 177L535.3 176.9V178.2H538.2V181.1H539.5V177.9L540.7 176.7V178.6H542V175.4L542.7 174.7C543 174.9 543.3 175 543.6 175.1L544.8 176.3L546 175.1C546.4 175 546.8 174.7 547.1 174.5L547.8 175.1L547.7 178.4H549V176.3L550.2 177.5L550.1 180.9H551.4V178H554.3V176.7H551.1L550.1 175.4ZM547.3 170.3L546.5 171.1L544.9 169.5L545.8 168.6C546.5 169 547 169.6 547.3 170.3ZM543.2 171.3L544.8 172.9L544 173.7C543.3 173.4 542.7 172.8 542.4 172.1L543.2 171.3ZM544 168.7L544.9 169.6L543.3 171.2L542.4 170.3C542.6 169.5 543.2 168.9 544 168.7ZM545.8 173.7L545 172.9L546.6 171.3L547.4 172.1C547.1 172.8 546.5 173.4 545.8 173.7Z" fill="white"/>
</g>
<g opacity="0.6">
<path d="M791.681 234.695L789.984 236.392L791.681 238.089L793.378 236.392L791.681 234.695Z" fill="white"/>
<path d="M791.745 232.575L790.826 233.494L791.745 234.413L792.665 233.494L791.745 232.575Z" fill="white"/>
<path d="M791.741 252.277L790.822 253.196L791.741 254.115L792.66 253.196L791.741 252.277Z" fill="white"/>
<path d="M791.688 248.592L789.991 250.289L791.688 251.986L793.385 250.289L791.688 248.592Z" fill="white"/>
<path d="M784.719 241.709L783.021 243.406L784.719 245.103L786.416 243.406L784.719 241.709Z" fill="white"/>
<path d="M781.823 242.426L780.904 243.345L781.823 244.264L782.742 243.345L781.823 242.426Z" fill="white"/>
<path d="M801.524 242.428L800.604 243.347L801.524 244.266L802.443 243.347L801.524 242.428Z" fill="white"/>
<path d="M798.616 241.704L796.919 243.401L798.616 245.098L800.313 243.401L798.616 241.704Z" fill="white"/>
<path d="M796.9 247.7H798.8V246.4H795.6L794.9 245.7C795.1 245.4 795.2 245.1 795.3 244.8L796.6 243.5L795.2 242.1C795.1 241.8 794.9 241.5 794.8 241.3L795.4 240.7H798.6V239.4H796.7L797.9 238.2H801.1V236.9H798.2V234H796.9V237.4L795.7 238.6V236.5H794.4V239.8L793.8 240.4C793.5 240.2 793.2 240 792.8 239.9L791.5 238.6L790.2 239.9C789.8 240 789.4 240.2 789.1 240.5L788.6 240V236.8H787.3V238.7L786.1 237.5V234.3H784.8V237.2H781.9V238.5H785.3L786.5 239.7H784.4V241H787.7L788.2 241.5C788 241.8 787.8 242.2 787.7 242.5L786.5 243.7L787.7 244.9C787.9 245.4 788.1 245.9 788.4 246.3L787.9 246.9L784.6 246.8V248.1H786.7L785.5 249.3L782.1 249.2V250.5H785V253.4H786.3V250L787.5 248.8V250.7H788.8V247.5L789.5 246.8C789.8 247 790.1 247.1 790.4 247.2L791.6 248.4L792.8 247.2C793.2 247.1 793.6 246.8 793.9 246.6L794.6 247.2L794.5 250.5H795.8V248.4L797 249.6L796.9 253H798.2V250.1H801.1V248.8H797.9L796.9 247.7ZM794.1 242.6L793.3 243.4L791.7 241.8L792.6 240.9C793.3 241.3 793.9 241.9 794.1 242.6ZM790 243.6L791.6 245.2L790.8 246C790.1 245.7 789.5 245.1 789.2 244.4L790 243.6ZM790.8 241L791.7 241.9L790.1 243.5L789.2 242.6C789.4 241.8 790 241.2 790.8 241ZM792.6 246L791.8 245.2L793.4 243.6L794.2 244.4C793.9 245.1 793.3 245.7 792.6 246Z" fill="white"/>
</g>
<path d="M334.3 108.5L328.2 110.9L329.8 107.1L327.8 106.3L325.3 112.1L324.9 112.3C324.2 111.1 323.2 110.2 322 109.5L322.4 108.5L325.3 107.7L324.7 105.7L322.2 106.4L321.5 103.9L319.5 104.5L320.4 107.8L320 108.7C318.6 108.3 317.1 108.3 315.6 108.7L315.3 107.9L317.8 102.3L315.9 101.4L314.2 105.2L312 99L310 99.8L312.5 106L308.6 104.3L307.8 106.3L313.6 108.8L313.9 109.5C312.7 110.2 311.7 111.2 311.1 112.4L309.9 111.9L309.1 109L307.1 109.6L307.8 112.1L305.3 112.8L305.9 114.8L309.2 113.9L310.4 114.4C310.1 115.6 310 117 310.3 118.3L309.5 118.6L303.9 116.1L303 118L306.8 119.7L300.7 122.1L301.5 124.1L307.7 121.6L306 125.5L308 126.3L310.5 120.5L311.1 120.2C311.8 121.5 312.8 122.6 314 123.3L313.4 124.6L310.5 125.4L311.1 127.4L313.6 126.7L314.3 129.2L316.3 128.6L315.3 125.3L315.8 124.2C317.1 124.6 318.5 124.7 319.9 124.3L320.1 124.8L317.6 130.5L319.5 131.4L321.2 127.6L323.6 133.6L325.6 132.8L323.2 126.7L327 128.3L327.8 126.3L322 123.8L321.9 123.5C323.2 122.8 324.3 121.8 325 120.6L326.1 121.1L326.9 124L328.9 123.4L328.2 120.9L330.7 120.2L330.1 118.2L326.8 119.2L325.9 118.8C326.3 117.3 326.4 115.7 325.9 114.2L326.3 114L332 116.5L332.9 114.6L329.1 112.9L335.1 110.5L334.3 108.5ZM323 113.1L320.1 114.3L321.3 111.5C322 111.8 322.6 112.4 323 113.1ZM319.4 110.6L318 113.9L316.7 110.7C317.6 110.4 318.5 110.4 319.4 110.6ZM314.7 111.5L315.9 114.5L313 113.3C313.5 112.6 314 112 314.7 111.5ZM312.3 115.2L314.9 116.3L312.2 117.4C312.1 116.7 312.1 115.9 312.3 115.2ZM312.9 119.4L316.1 118.1L314.7 121.3C314 120.9 313.4 120.2 312.9 119.4ZM316.6 122.2L317.9 119.3L319.1 122.3C318.3 122.5 317.4 122.4 316.6 122.2ZM321.1 121.6L319.8 118.5L323 119.9C322.5 120.6 321.9 121.2 321.1 121.6ZM323.9 117.9L320.4 116.4L323.9 115C324.2 116 324.1 117 323.9 117.9Z" fill="white"/>
<path d="M906.3 80.7999L901.7 79.9999L904.2 78.2999L903.3 76.9999L899.6 79.5999L899.3 79.4999C899.3 78.4999 899.1 77.5999 898.6 76.6999L899.3 76.1999L901.4 76.7999L901.8 75.2999L900 74.7999L900.5 72.9999L899 72.5999L898.3 74.8999L897.7 75.2999C897 74.4999 896.1 73.8999 895 73.5999L895.1 72.9999L898.8 70.4999L898 69.1999L895.5 70.7999L896.3 66.1999L894.8 65.8999L894 70.9999L892.3 68.4999L891 69.3999L893.6 73.0999L893.5 73.5999C892.5 73.5999 891.5 73.7999 890.7 74.2999L890.2 73.4999L890.8 71.3999L889.3 70.9999L888.8 72.7999L887 72.2999L886.6 73.7999L888.9 74.4999L889.4 75.1999C888.7 75.7999 888.2 76.5999 887.9 77.4999L887.3 77.3999L884.8 73.6999L883.5 74.4999L885.1 76.9999L880.5 76.1999L880.2 77.6999L884.9 78.5999L882.4 80.2999L883.3 81.5999L887 78.9999L887.5 79.0999C887.4 80.1999 887.6 81.1999 888.1 82.0999L887.3 82.6999L885.2 82.0999L884.8 83.5999L886.6 84.0999L886.1 85.8999L887.6 86.2999L888.3 83.8999L889 83.3999C889.6 84.0999 890.5 84.6999 891.4 85.0999L891.3 85.4999L887.6 87.9999L888.4 89.2999L890.9 87.5999L890.1 92.1999L891.6 92.4999L892.4 87.8999L894.1 90.3999L895.4 89.4999L892.8 85.7999V85.4999C893.9 85.5999 894.9 85.3999 895.8 84.8999L896.3 85.5999L895.7 87.6999L897.2 88.0999L897.7 86.2999L899.5 86.7999L899.9 85.2999L897.5 84.5999L897.1 83.9999C897.9 83.2999 898.6 82.2999 898.9 81.1999L899.2 81.2999L901.7 84.9999L903 84.1999L901.3 81.6999L905.9 82.4999L906.3 80.7999ZM897.7 79.2999L895.5 78.8999L897.3 77.6999C897.6 78.0999 897.7 78.6999 897.7 79.2999ZM896.5 76.3999L894.4 77.7999L894.8 75.2999C895.4 75.5999 896 75.8999 896.5 76.3999ZM893.3 75.0999L892.9 77.3999L891.6 75.4999C892.1 75.2999 892.7 75.1999 893.3 75.0999ZM890.4 76.3999L891.6 78.0999L889.6 77.6999C889.7 77.2999 890 76.7999 890.4 76.3999ZM889.2 79.2999L891.6 79.6999L889.5 81.0999C889.2 80.4999 889.1 79.8999 889.2 79.2999ZM890.3 82.3999L892.2 81.0999L891.8 83.3999C891.2 83.1999 890.7 82.7999 890.3 82.3999ZM893.3 83.6999L893.7 81.2999L895.1 83.3999C894.5 83.5999 893.9 83.7999 893.3 83.6999ZM896.4 82.5999L894.8 80.2999L897.5 80.7999C897.3 81.4999 896.9 82.0999 896.4 82.5999Z" fill="white"/>
<path d="M1266.5 60.0001L1261.9 59.2001L1264.4 57.5001L1263.5 56.2001L1259.8 58.8001L1259.5 58.7001C1259.5 57.7001 1259.3 56.8001 1258.8 55.9001L1259.5 55.4001L1261.6 56.0001L1262 54.5001L1260.2 54.0001L1260.7 52.2001L1259.2 51.8001L1258.5 54.1001L1257.9 54.5001C1257.2 53.7001 1256.3 53.1001 1255.2 52.8001L1255.3 52.2001L1259 49.7001L1258.2 48.4001L1255.7 50.0001L1256.5 45.4001L1255 45.1001L1254.1 49.8001L1252.4 47.3001L1251.1 48.2001L1253.7 51.9001L1253.6 52.4001C1252.6 52.4001 1251.6 52.6001 1250.8 53.1001L1250.3 52.3001L1250.9 50.2001L1249.4 49.8001L1249 52.0001L1247.2 51.5001L1246.8 53.0001L1249.1 53.7001L1249.6 54.4001C1248.9 55.0001 1248.4 55.8001 1248.1 56.7001L1247.5 56.6001L1245 52.9001L1243.7 53.7001L1245.3 56.2001L1240.7 55.4001L1240.4 56.9001L1245.1 57.8001L1242.6 59.5001L1243.5 60.8001L1247.2 58.2001L1247.7 58.3001C1247.6 59.4001 1247.8 60.4001 1248.3 61.3001L1247.5 61.9001L1245.4 61.3001L1245 62.8001L1246.8 63.3001L1246.3 65.1001L1247.8 65.5001L1248.5 63.1001L1249.2 62.6001C1249.8 63.3001 1250.7 63.9001 1251.6 64.3001L1251.5 64.7001L1248 67.0001L1248.8 68.3001L1251.3 66.6001L1250.5 71.2001L1252 71.5001L1252.8 66.9001L1254.5 69.4001L1255.8 68.5001L1253.2 64.8001V64.5001C1254.3 64.6001 1255.3 64.4001 1256.2 63.9001L1256.7 64.6001L1256.1 66.7001L1257.6 67.1001L1258.1 65.3001L1259.9 65.8001L1260.3 64.3001L1257.9 63.6001L1257.5 63.0001C1258.3 62.3001 1259 61.3001 1259.3 60.2001L1259.6 60.3001L1262.1 64.0001L1263.4 63.2001L1261.7 60.7001L1266.3 61.5001L1266.5 60.0001ZM1258 58.5001L1255.8 58.1001L1257.6 56.9001C1257.8 57.3001 1257.9 57.9001 1258 58.5001ZM1256.7 55.6001L1254.6 57.0001L1255 54.5001C1255.7 54.8001 1256.2 55.1001 1256.7 55.6001ZM1253.5 54.3001L1253.1 56.6001L1251.8 54.7001C1252.3 54.5001 1252.9 54.4001 1253.5 54.3001ZM1250.6 55.6001L1251.8 57.3001L1249.8 56.9001C1249.9 56.5001 1250.2 56.0001 1250.6 55.6001ZM1249.4 58.4001L1251.8 58.8001L1249.7 60.2001C1249.5 59.7001 1249.3 59.1001 1249.4 58.4001ZM1250.6 61.6001L1252.5 60.3001L1252.1 62.6001C1251.5 62.4001 1251 62.0001 1250.6 61.6001ZM1253.5 62.9001L1253.9 60.5001L1255.3 62.6001C1254.8 62.8001 1254.1 63.0001 1253.5 62.9001ZM1256.6 61.8001L1255 59.5001L1257.7 60.0001C1257.5 60.7001 1257.1 61.3001 1256.6 61.8001Z" fill="white"/>
<path opacity="0.26" d="M418.6 44H413.5L415.8 41.7L414.6 40.5L411.1 44H410.8C410.6 42.9 410.2 41.9 409.5 41.1L410.1 40.5L412.4 40.8L412.6 39.1L410.6 38.9L410.8 36.9L409.1 36.7L408.8 39.4L408.2 40C407.3 39.3 406.2 38.9 405 38.7V38L408.5 34.6L407.3 33.4L405 35.7V30.5H403.3V35.8L401 33.5L399.8 34.7L403.3 38.2V38.8C402.2 39 401.2 39.4 400.4 40.1L399.7 39.4L400 37.1L398.3 36.9L398.1 38.9L396.1 38.7L395.9 40.4L398.6 40.7L399.3 41.4C398.7 42.2 398.3 43.2 398.1 44.2H397.4L394 40.7L392.8 41.9L395.1 44.2H390V45.9H395.3L393 48L394.2 49.2L397.7 45.7H398.2C398.3 46.9 398.8 47.9 399.4 48.8L398.6 49.6L396.3 49.3L396.1 51L398.1 51.2L397.9 53.2L399.6 53.4L399.9 50.7L400.6 50C401.4 50.7 402.5 51.1 403.6 51.3V51.7L400.1 55.1L401.3 56.3L403.7 54V59.1H405.4V54L407.7 56.3L408.9 55.1L405.4 51.6V51.3C406.6 51.2 407.6 50.8 408.5 50.1L409.2 50.8L408.9 53.1L410.6 53.3L410.8 51.3L412.8 51.5L413 49.8L410.3 49.5L409.7 48.9C410.5 48 411 46.8 411.1 45.6H411.5L414.9 49.1L416.1 47.9L413.8 45.5H418.9V44H418.6ZM409.1 44H406.6L408.3 42.3C408.7 42.8 409 43.4 409.1 44ZM407.2 41.1L405.2 43.1V40.4C405.9 40.4 406.6 40.7 407.2 41.1ZM403.5 40.4V42.9L401.8 41.1C402.3 40.8 402.9 40.5 403.5 40.4ZM400.6 42.4L402.2 44H399.9C400.1 43.4 400.3 42.9 400.6 42.4ZM399.9 45.6H402.6L400.6 47.6C400.2 47 400 46.4 399.9 45.6ZM401.8 48.8L403.6 47.1V49.6C402.9 49.5 402.3 49.2 401.8 48.8ZM405.2 49.7V47L407.1 48.9C406.5 49.3 405.9 49.6 405.2 49.7ZM408.3 47.8L406.2 45.6H409.2C409.1 46.4 408.8 47.2 408.3 47.8Z" fill="white"/>
<path opacity="0.26" d="M675.9 88.7L671.9 91.9L672.2 88.6L670.5 88.4L670 93.3L669.8 93.5C669 92.8 668 92.3 667 92.1L667.1 91.2L669.1 89.9L668.2 88.5L666.5 89.6L665.4 87.9L664 89L665.5 91.2L665.4 92C664.3 92 663.1 92.4 662.1 93L661.7 92.5L662.3 87.7L660.6 87.5L660.2 90.7L656.9 86.7L655.6 87.8L658.9 91.9L655.6 91.6L655.4 93.3L660.4 93.8L660.8 94.2C660.1 95 659.6 96 659.3 97L658.3 96.9L657 94.9L655.6 95.8L656.7 97.5L655 98.6L655.9 100L658.1 98.5L659.1 98.6C659.1 99.6 659.4 100.6 659.9 101.5L659.3 102L654.5 101.4L654.3 103.1L657.5 103.5L653.5 106.8L654.6 108.1L658.7 104.8L658.4 108.1L660.1 108.3L660.6 103.3L661 103C661.8 103.8 662.8 104.4 663.9 104.7L663.8 105.8L661.8 107.1L662.7 108.5L664.4 107.4L665.5 109.1L666.9 108.2L665.4 106L665.5 105C666.6 105 667.6 104.7 668.6 104.1L668.9 104.4L668.3 109.3L670 109.5L670.4 106.2L673.6 110.1L674.9 109L671.7 105L675 105.3L675.2 103.6L670.3 103.1L670.1 102.9C670.9 102.1 671.5 101.1 671.7 100L672.6 100.1L673.9 102.1L675.3 101.2L674.2 99.5L675.9 98.4L675 97L672.8 98.5L672 98.4C672 97.2 671.6 96 670.9 94.9L671.2 94.7L676.1 95.3L676.3 93.6L673 93.2L676.9 90L675.9 88.7ZM668.5 94.7L666.6 96.3L666.9 93.9C667.5 94.1 668 94.3 668.5 94.7ZM665.2 93.8L664.9 96.6L663.2 94.5C663.8 94 664.5 93.8 665.2 93.8ZM661.9 95.5L663.5 97.5L661 97.2C661.2 96.6 661.5 96 661.9 95.5ZM660.9 98.9L663.1 99.1L661.3 100.5C661.1 100 661 99.5 660.9 98.9ZM662.4 101.9L664.5 100.2L664.2 103C663.6 102.7 662.9 102.4 662.4 101.9ZM665.9 103.1L666.2 100.6L667.8 102.6C667.1 102.9 666.5 103.1 665.9 103.1ZM669.1 101.6L667.4 99.5L670.1 99.8C669.9 100.5 669.5 101.1 669.1 101.6ZM670.3 98.2L667.3 97.9L669.6 96C670 96.7 670.3 97.4 670.3 98.2Z" fill="white"/>
<path d="M324.1 39.7C325.536 39.7 326.7 38.5359 326.7 37.1C326.7 35.6641 325.536 34.5 324.1 34.5C322.664 34.5 321.5 35.6641 321.5 37.1C321.5 38.5359 322.664 39.7 324.1 39.7Z" fill="white"/>
<path d="M395.8 104.7C396.684 104.7 397.4 103.984 397.4 103.1C397.4 102.216 396.684 101.5 395.8 101.5C394.917 101.5 394.2 102.216 394.2 103.1C394.2 103.984 394.917 104.7 395.8 104.7Z" fill="white"/>
<path d="M17.9 180.3C18.3971 180.3 18.8 179.897 18.8 179.4C18.8 178.903 18.3971 178.5 17.9 178.5C17.4029 178.5 17 178.903 17 179.4C17 179.897 17.4029 180.3 17.9 180.3Z" fill="white"/>
<path d="M20.3998 101.6C21.2835 101.6 21.9998 100.884 21.9998 99.9999C21.9998 99.1162 21.2835 98.3999 20.3998 98.3999C19.5161 98.3999 18.7998 99.1162 18.7998 99.9999C18.7998 100.884 19.5161 101.6 20.3998 101.6Z" fill="white"/>
<path d="M432 161.6C433.105 161.6 434 160.705 434 159.6C434 158.496 433.105 157.6 432 157.6C430.895 157.6 430 158.496 430 159.6C430 160.705 430.895 161.6 432 161.6Z" fill="white"/>
<path d="M688.7 54.9C689.584 54.9 690.3 54.1836 690.3 53.2999C690.3 52.4163 689.584 51.7 688.7 51.7C687.816 51.7 687.1 52.4163 687.1 53.2999C687.1 54.1836 687.816 54.9 688.7 54.9Z" fill="white"/>
<path d="M557.9 13.7C558.783 13.7 559.5 12.9837 559.5 12.1C559.5 11.2163 558.783 10.5 557.9 10.5C557.016 10.5 556.3 11.2163 556.3 12.1C556.3 12.9837 557.016 13.7 557.9 13.7Z" fill="white"/>
<path d="M844.3 13.7C845.184 13.7 845.9 12.9837 845.9 12.1C845.9 11.2163 845.184 10.5 844.3 10.5C843.417 10.5 842.7 11.2163 842.7 12.1C842.7 12.9837 843.417 13.7 844.3 13.7Z" fill="white"/>
<path d="M1360 91.8001C1360.88 91.8001 1361.6 91.0838 1361.6 90.2001C1361.6 89.3164 1360.88 88.6001 1360 88.6001C1359.12 88.6001 1358.4 89.3164 1358.4 90.2001C1358.4 91.0838 1359.12 91.8001 1360 91.8001Z" fill="white"/>
<path d="M1078.7 87.7999C1079.36 87.7999 1079.9 87.2626 1079.9 86.5999C1079.9 85.9372 1079.36 85.3999 1078.7 85.3999C1078.04 85.3999 1077.5 85.9372 1077.5 86.5999C1077.5 87.2626 1078.04 87.7999 1078.7 87.7999Z" fill="white"/>
<path d="M1277.3 149.4C1278.63 149.4 1279.7 148.326 1279.7 147C1279.7 145.675 1278.63 144.6 1277.3 144.6C1275.97 144.6 1274.9 145.675 1274.9 147C1274.9 148.326 1275.97 149.4 1277.3 149.4Z" fill="white"/>
<path d="M806.6 67.7C807.484 67.7 808.2 66.9837 808.2 66.1C808.2 65.2163 807.484 64.5 806.6 64.5C805.716 64.5 805 65.2163 805 66.1C805 66.9837 805.716 67.7 806.6 67.7Z" fill="white"/>
<path d="M1206.7 112.1C1207.58 112.1 1208.3 111.384 1208.3 110.5C1208.3 109.616 1207.58 108.9 1206.7 108.9C1205.82 108.9 1205.1 109.616 1205.1 110.5C1205.1 111.384 1205.82 112.1 1206.7 112.1Z" fill="white"/>
<path d="M1343.3 35.5C1344.18 35.5 1344.9 34.7837 1344.9 33.9001C1344.9 33.0164 1344.18 32.3 1343.3 32.3C1342.42 32.3 1341.7 33.0164 1341.7 33.9001C1341.7 34.7837 1342.42 35.5 1343.3 35.5Z" fill="white"/>
<path d="M1438.1 30C1438.98 30 1439.7 29.2837 1439.7 28.4C1439.7 27.5164 1438.98 26.8 1438.1 26.8C1437.22 26.8 1436.5 27.5164 1436.5 28.4C1436.5 29.2837 1437.22 30 1438.1 30Z" fill="white"/>
<path d="M1247.5 15.3001C1248.38 15.3001 1249.1 14.5838 1249.1 13.7001C1249.1 12.8164 1248.38 12.1001 1247.5 12.1001C1246.62 12.1001 1245.9 12.8164 1245.9 13.7001C1245.9 14.5838 1246.62 15.3001 1247.5 15.3001Z" fill="white"/>
<path d="M599.6 101.6C600.484 101.6 601.2 100.884 601.2 99.9999C601.2 99.1162 600.484 98.3999 599.6 98.3999C598.716 98.3999 598 99.1162 598 99.9999C598 100.884 598.716 101.6 599.6 101.6Z" fill="white"/>
<path d="M649.7 156.2C650.473 156.2 651.1 155.573 651.1 154.8C651.1 154.027 650.473 153.4 649.7 153.4C648.927 153.4 648.3 154.027 648.3 154.8C648.3 155.573 648.927 156.2 649.7 156.2Z" fill="white"/>
<path d="M996.8 38.9001C997.573 38.9001 998.2 38.2733 998.2 37.5001C998.2 36.7269 997.573 36.1001 996.8 36.1001C996.027 36.1001 995.4 36.7269 995.4 37.5001C995.4 38.2733 996.027 38.9001 996.8 38.9001Z" fill="white"/>
<path d="M1144.9 32.7001C1146.17 32.7001 1147.2 31.6704 1147.2 30.4001C1147.2 29.1298 1146.17 28.1001 1144.9 28.1001C1143.63 28.1001 1142.6 29.1298 1142.6 30.4001C1142.6 31.6704 1143.63 32.7001 1144.9 32.7001Z" fill="white"/>
<path d="M979.5 217.3C980.163 217.3 980.7 216.763 980.7 216.1C980.7 215.437 980.163 214.9 979.5 214.9C978.837 214.9 978.3 215.437 978.3 216.1C978.3 216.763 978.837 217.3 979.5 217.3Z" fill="white"/>
<path d="M897.6 168.3C898.373 168.3 899 167.673 899 166.9C899 166.127 898.373 165.5 897.6 165.5C896.827 165.5 896.2 166.127 896.2 166.9C896.2 167.673 896.827 168.3 897.6 168.3Z" fill="white"/>
<path d="M1045.7 162.1C1046.97 162.1 1048 161.07 1048 159.8C1048 158.53 1046.97 157.5 1045.7 157.5C1044.43 157.5 1043.4 158.53 1043.4 159.8C1043.4 161.07 1044.43 162.1 1045.7 162.1Z" fill="white"/>
<path d="M1189.6 273.5C1190.26 273.5 1190.8 272.963 1190.8 272.3C1190.8 271.637 1190.26 271.1 1189.6 271.1C1188.94 271.1 1188.4 271.637 1188.4 272.3C1188.4 272.963 1188.94 273.5 1189.6 273.5Z" fill="white"/>
<path d="M1107.7 224.5C1108.47 224.5 1109.1 223.873 1109.1 223.1C1109.1 222.327 1108.47 221.7 1107.7 221.7C1106.93 221.7 1106.3 222.327 1106.3 223.1C1106.3 223.873 1106.93 224.5 1107.7 224.5Z" fill="white"/>
<path d="M1255.8 218.3C1257.07 218.3 1258.1 217.27 1258.1 216C1258.1 214.73 1257.07 213.7 1255.8 213.7C1254.53 213.7 1253.5 214.73 1253.5 216C1253.5 217.27 1254.53 218.3 1255.8 218.3Z" fill="white"/>
<path d="M1442 208.8C1443.27 208.8 1444.3 207.77 1444.3 206.5C1444.3 205.23 1443.27 204.2 1442 204.2C1440.73 204.2 1439.7 205.23 1439.7 206.5C1439.7 207.77 1440.73 208.8 1442 208.8Z" fill="white"/>
</g>
<defs>
<clipPath id="clip0_10311_11613">
<rect width="1500" height="350" fill="white"/>
</clipPath>
</defs>
</svg>
